<?xml version="1.0" standalone="no"?>
<!DOCTYPE svg PUBLIC "-//W3C//DTD SVG 20010904//EN"
 "http://www.w3.org/TR/2001/REC-SVG-20010904/DTD/svg10.dtd">
<svg version="1.0" xmlns="http://www.w3.org/2000/svg"
 width="522.000000pt" height="522.000000pt" viewBox="0 0 522.000000 522.000000"
 preserveAspectRatio="xMidYMid meet">
<metadata>
Created by potrace 1.14, written by Peter Selinger 2001-2017
</metadata>
<g transform="translate(0.000000,522.000000) scale(0.100000,-0.100000)"
fill="#000000" stroke="none">
<path d="M2468 5035 c-2 -2 -39 -6 -83 -9 -93 -7 -145 -15 -285 -42 -59 -12
-182 -45 -255 -70 -366 -122 -677 -315 -955 -594 -275 -274 -473 -594 -592
-953 -28 -88 -77 -278 -84 -327 -2 -14 -8 -54 -13 -90 -29 -179 -31 -471 -7
-650 39 -277 105 -502 215 -734 354 -744 1032 -1247 1851 -1373 170 -25 565
-25 713 2 15 3 39 7 54 10 396 69 781 241 1088 485 477 380 805 932 895 1506
6 38 13 80 16 94 8 43 17 211 17 320 0 143 -10 252 -39 435 -14 91 -93 376
-113 410 -3 6 -6 15 -7 20 -3 18 -86 199 -127 275 -76 142 -196 319 -291 430
-53 61 -249 254 -295 290 -24 19 -49 40 -55 45 -63 59 -280 197 -421 267 -80
40 -259 116 -289 123 -6 1 -18 5 -26 8 -14 5 -83 28 -105 34 -55 16 -293 63
-340 68 -33 3 -73 8 -88 11 -30 6 -374 14 -379 9z m407 -258 c70 -9 168 -27
234 -43 36 -9 72 -17 80 -19 88 -18 303 -104 441 -177 143 -75 335 -205 409
-276 10 -10 46 -44 82 -77 58 -55 168 -176 227 -251 100 -126 230 -356 297
-525 38 -96 102 -307 110 -362 2 -18 8 -57 14 -88 26 -151 35 -438 18 -594
-33 -301 -143 -626 -303 -892 -40 -66 -137 -207 -154 -223 -3 -3 -23 -27 -45
-55 -22 -27 -81 -91 -131 -141 -466 -462 -1088 -686 -1749 -630 -49 4 -92 9
-95 11 -3 1 -25 6 -50 9 -242 33 -525 134 -759 272 -231 135 -461 338 -625
553 -133 173 -239 366 -320 580 -25 67 -48 132 -50 144 -2 12 -9 42 -16 67 -7
25 -14 56 -16 70 -3 14 -7 32 -9 40 -3 8 -7 32 -11 54 -3 21 -7 47 -9 57 -20
103 -26 403 -12 554 24 248 107 527 230 765 219 427 562 762 998 973 115 56
327 136 402 151 127 27 232 46 282 51 33 4 62 9 63 10 6 5 422 -2 467 -8z"/>
<path d="M2623 4422 c-9 -6 -11 -467 -10 -1822 l2 -1815 45 1 c99 3 262 20
290 30 8 3 33 8 55 11 22 3 48 9 58 14 9 6 17 7 17 4 0 -3 13 1 30 10 16 8 33
15 37 15 19 -2 92 23 88 30 -3 5 3 7 12 6 10 -2 25 0 33 5 8 4 33 15 55 24 98
42 276 141 295 164 3 3 16 12 30 19 14 7 42 27 62 45 20 18 59 50 87 72 27 22
50 46 51 54 0 8 3 12 6 8 4 -3 20 9 38 27 79 85 116 128 116 137 0 5 4 9 9 9
5 0 18 15 30 33 11 17 29 42 41 55 11 12 18 22 15 22 -3 0 5 15 19 33 13 17
39 59 57 92 18 33 37 63 43 67 6 4 7 8 2 8 -5 0 -3 7 4 15 6 8 8 20 4 27 -4 7
-4 10 1 6 9 -8 45 64 45 88 0 8 5 14 11 14 6 0 9 9 6 20 -3 11 -2 20 3 20 7 0
27 54 46 125 11 42 11 44 14 50 1 3 3 8 4 13 25 100 31 133 42 222 8 64 12
380 5 380 -3 0 -6 17 -6 38 -1 98 -60 362 -95 424 -6 10 -10 22 -10 28 0 6
-15 43 -34 83 -19 40 -34 75 -33 78 1 4 -5 15 -13 25 -9 11 -22 33 -30 49 -22
45 -82 140 -92 143 -4 2 -8 8 -8 13 0 12 -99 137 -146 186 -19 19 -43 46 -54
60 -11 14 -20 22 -20 17 0 -5 -7 2 -16 14 -8 12 -21 19 -27 16 -7 -4 -9 -4 -5
1 8 8 -34 50 -92 94 -19 14 -41 32 -48 39 -7 6 -17 12 -22 12 -5 0 -15 6 -23
14 -37 38 -234 149 -248 141 -5 -4 -9 -2 -9 3 0 5 -24 19 -52 31 -29 12 -62
26 -73 32 -33 16 -209 69 -228 69 -10 0 -26 4 -36 9 -10 6 -42 13 -72 16 -30
4 -67 9 -84 11 -16 3 -60 6 -97 8 -36 2 -71 7 -77 10 -6 4 -11 2 -11 -5 0 -8
-4 -8 -13 -1 -7 6 -18 8 -24 4z m104 -87 c0 -8 -4 -12 -9 -9 -5 3 -6 10 -3 15
9 13 12 11 12 -6z"/>
</g>
</svg>
