<svg width="643" height="131" viewBox="0 0 643 131" xmlns="http://www.w3.org/2000/svg"><title>Artboard 1</title><g fill="#359E91" fill-rule="evenodd"><path d="M225.4 39.018l-7.636-28.073-7.564 28.073h15.2zM231.655 62l-4.873-17.964h-17.964L203.945 62H198.2L215 3.818h5.89L237.619 62h-5.963zm-17.673 55.273c1.94 0 3.794-.473 5.563-1.418 1.77-.946 3.237-2.655 4.4-5.128v-7.709h-9.672c-2.085 0-3.746.51-4.982 1.527-1.236 1.019-1.855 2.837-1.855 5.455 0 2.279.522 4.06 1.564 5.345 1.042 1.285 2.703 1.928 4.982 1.928zm-.655 5.454c-3.49 0-6.23-1.103-8.218-3.309-1.988-2.206-2.982-5.2-2.982-8.982 0-3.781 1.03-6.775 3.091-8.981 2.06-2.207 4.812-3.31 8.255-3.31h10.472v-7.49c0-2.23-.642-4.11-1.927-5.637-1.285-1.527-3.188-2.29-5.709-2.29-2.715 0-4.69.617-5.927 1.854-1.237 1.236-2.17 3.527-2.8 6.873l-4.727-1.746c.63-4.024 2.036-7.042 4.218-9.054 2.182-2.013 5.212-3.019 9.09-3.019 3.831 0 7.007.982 9.528 2.946 2.521 1.963 3.782 4.957 3.782 8.982v22.763c0 2.134.497 3.564 1.49 4.291.995.727 2.68.776 5.055.146v5.6c-3.2.484-5.563.133-7.09-1.055-1.528-1.188-2.389-3.14-2.583-5.854h-1.09c-.873 2.084-2.425 3.818-4.655 5.2a13.551 13.551 0 0 1-7.273 2.072zM320.818 38.873l-7.054-27.491-7.128 27.49h14.182zM326.782 62l-4.437-17.31H305.11L300.673 62h-6.546L310.2 3.818h7.49l16 58.182h-6.908zm-16.655 54.836c1.843 0 3.6-.424 5.273-1.272 1.673-.849 3.042-2.388 4.11-4.619v-7.709h-9.237c-1.94 0-3.48.497-4.618 1.491-1.14.994-1.71 2.728-1.71 5.2 0 2.182.497 3.88 1.491 5.091.994 1.212 2.558 1.818 4.691 1.818zm-1.09 5.891c-3.492 0-6.255-1.103-8.292-3.309-2.036-2.206-3.054-5.224-3.054-9.054 0-3.782 1.054-6.776 3.164-8.982 2.109-2.206 4.933-3.31 8.472-3.31h10.182V90.8c0-2.133-.606-3.915-1.818-5.345-1.212-1.43-3.006-2.146-5.382-2.146-2.57 0-4.436.594-5.6 1.782-1.164 1.188-2.06 3.382-2.69 6.582l-5.6-1.746c.678-4.121 2.169-7.2 4.472-9.236 2.303-2.036 5.467-3.055 9.49-3.055 4.025 0 7.31.994 9.855 2.982 2.546 1.988 3.819 5.067 3.819 9.237v21.818c0 2.182.497 3.612 1.49 4.29.994.68 2.68.728 5.055.146v6.182c-3.2.485-5.636.182-7.31-.91-1.672-1.09-2.654-3.017-2.945-5.781h-1.236c-.921 2.085-2.497 3.794-4.727 5.127-2.23 1.334-4.679 2-7.346 2zM415.927 38.51l-5.382-25.455-5.454 25.454h10.836zM420.945 62L417.6 46.218h-14.182L400.073 62h-9.237l13.819-58.182h12.654L430.982 62h-10.037zm-11.054 53.745a9.832 9.832 0 0 0 4.254-.945c1.334-.63 2.461-1.721 3.382-3.273v-7.709h-7.854c-1.406 0-2.534.424-3.382 1.273-.849.848-1.273 2.388-1.273 4.618 0 1.94.4 3.43 1.2 4.473.8 1.042 2.024 1.563 3.673 1.563zm-2.4 6.982c-3.685 0-6.57-1.103-8.655-3.309-2.084-2.206-3.127-5.273-3.127-9.2 0-3.927 1.115-6.97 3.346-9.127 2.23-2.158 5.26-3.236 9.09-3.236h9.382V91.09c0-1.94-.509-3.491-1.527-4.655-1.018-1.163-2.497-1.745-4.436-1.745-2.037 0-3.528.521-4.473 1.564-.946 1.042-1.685 3.042-2.218 6l-8.437-1.746c.776-4.46 2.534-7.721 5.273-9.782 2.74-2.06 6.291-3.09 10.655-3.09 4.703 0 8.375 1.018 11.018 3.054 2.642 2.036 3.963 5.309 3.963 9.818v19.564c0 2.23.534 3.648 1.6 4.254 1.067.606 2.716.667 4.946.182v7.564c-3.297.63-6 .497-8.11-.4-2.108-.897-3.478-2.825-4.108-5.782h-1.6c-1.212 2.036-2.91 3.685-5.091 4.945-2.182 1.261-4.679 1.891-7.491 1.891zM511.2 38.436l-4.727-24.581-4.873 24.581h9.6zM515.782 62l-2.91-15.127H500L497.018 62h-10.327l12.873-58.182h14.763L527.127 62h-11.345zm-9.673 53.382c1.358 0 2.63-.279 3.818-.837 1.188-.557 2.194-1.466 3.018-2.727v-7.782h-7.2c-1.212 0-2.181.412-2.909 1.237-.727.824-1.09 2.279-1.09 4.363 0 1.843.351 3.261 1.054 4.255.703.994 1.806 1.49 3.31 1.49zm-2.982 7.345c-3.782 0-6.727-1.115-8.836-3.345-2.11-2.23-3.164-5.31-3.164-9.237 0-3.927 1.152-6.97 3.455-9.127 2.303-2.157 5.418-3.236 9.345-3.236h9.018v-6.546c0-1.89-.46-3.357-1.381-4.4-.922-1.042-2.255-1.563-4-1.563-1.843 0-3.2.497-4.073 1.49-.873.995-1.552 2.922-2.036 5.782l-9.528-1.818c.825-4.557 2.679-7.879 5.564-9.963 2.885-2.085 6.606-3.128 11.164-3.128 4.945 0 8.751 1.043 11.418 3.128 2.666 2.084 4 5.43 4 10.036v18.69c0 2.231.557 3.637 1.672 4.22 1.116.58 2.74.654 4.873.217v8c-3.297.728-6.097.691-8.4-.109-2.303-.8-3.818-2.727-4.545-5.782h-1.746c-1.309 1.988-3.042 3.6-5.2 4.837-2.157 1.236-4.69 1.854-7.6 1.854zM607.11 38.218l-3.783-22.909-3.927 22.91h7.71zm4 23.782l-2.4-14.182H597.8L595.4 62h-11.855l11.491-58.182h17.891L624.273 62h-13.164zm-6.765 52.727c1.116 0 2.17-.206 3.164-.618.994-.412 1.879-1.054 2.655-1.927V104.4h-6.4c-.922 0-1.649.364-2.182 1.09-.534.728-.8 2.062-.8 4 0 1.746.29 3.055.873 3.928.581.873 1.478 1.31 2.69 1.31zm-3.709 8c-3.878 0-6.897-1.115-9.054-3.345-2.158-2.23-3.237-5.333-3.237-9.31 0-4.024 1.176-7.102 3.528-9.236 2.351-2.133 5.612-3.2 9.782-3.2h8.509v-6.254c0-1.794-.4-3.127-1.2-4-.8-.873-1.952-1.31-3.455-1.31-1.503 0-2.618.461-3.345 1.383-.728.92-1.334 2.739-1.819 5.454l-11.2-1.818c.922-4.752 2.934-8.182 6.037-10.291 3.103-2.11 7.054-3.164 11.854-3.164 5.334 0 9.37 1.067 12.11 3.2 2.739 2.134 4.109 5.6 4.109 10.4v17.31c0 2.278.57 3.672 1.709 4.181 1.139.51 2.751.594 4.836.255v8.8c-3.345.776-6.315.836-8.91.182-2.593-.655-4.35-2.582-5.272-5.782h-1.89a17.377 17.377 0 0 1-5.455 4.763c-2.134 1.188-4.679 1.782-7.637 1.782zM130.055 39.964l-8.219-29.746-8.29 29.746h16.509zM136.164 62l-5.019-17.89h-18.763L107.436 62h-4.581l16.727-58.182h4.654L140.964 62h-4.8zm-17.673 56.655c1.988 0 3.818-.51 5.49-1.528 1.674-1.018 3.164-2.618 4.474-4.8v-9.89h-10.328c-2.23 0-3.988.545-5.272 1.636-1.285 1.09-1.928 3.018-1.928 5.782 0 2.763.606 4.92 1.818 6.472 1.213 1.552 3.128 2.328 5.746 2.328zm-.655 4.072c-3.442 0-6.17-1.115-8.181-3.345-2.013-2.23-3.019-5.26-3.019-9.091 0-3.636.97-6.485 2.91-8.546 1.939-2.06 4.63-3.09 8.072-3.09h10.837V90c0-2.521-.716-4.533-2.146-6.036-1.43-1.503-3.406-2.255-5.927-2.255-2.715 0-4.703.594-5.964 1.782-1.26 1.188-2.23 3.382-2.909 6.582l-4-1.164c.776-3.927 2.182-6.788 4.218-8.582 2.037-1.794 4.897-2.69 8.582-2.69 3.782 0 6.849 1.03 9.2 3.09 2.352 2.06 3.527 5.006 3.527 8.837v21.745c0 3.006.485 4.982 1.455 5.927.97.946 2.667 1.128 5.09.546v4.363c-2.763.485-4.945.194-6.545-.872-1.6-1.067-2.52-2.958-2.763-5.673h-.8c-.97 2.085-2.521 3.794-4.655 5.127-2.133 1.334-4.46 2-6.982 2zM33.855 40.69l-8.946-31.2-9.09 31.2h18.036zM40.036 62l-5.309-18.327H14.945L9.636 62H6.364L23.527 3.818h2.764L43.527 62h-3.49zm-18.254 57.818c2.085 0 3.963-.57 5.636-1.709 1.673-1.14 3.212-2.776 4.618-4.909v-11.345H20.982c-2.376 0-4.255.581-5.637 1.745-1.381 1.164-2.072 3.248-2.072 6.255 0 3.2.69 5.66 2.072 7.381 1.382 1.722 3.528 2.582 6.437 2.582zm-.364 2.91c-3.442 0-6.17-1.116-8.182-3.346-2.012-2.23-3.018-5.26-3.018-9.091 0-3.491.921-6.243 2.764-8.255 1.842-2.012 4.436-3.018 7.782-3.018h11.272v-9.6c0-2.763-.775-4.921-2.327-6.473-1.551-1.551-3.66-2.327-6.327-2.327-2.764 0-4.812.606-6.146 1.818-1.333 1.212-2.363 3.419-3.09 6.619l-2.91-.873c.825-3.782 2.17-6.485 4.037-8.11 1.866-1.624 4.545-2.436 8.036-2.436 3.636 0 6.546 1.055 8.727 3.164 2.182 2.11 3.273 4.982 3.273 8.618v21.673c0 3.54.473 5.867 1.418 6.982.946 1.115 2.655 1.382 5.128.8V122c-2.425.485-4.425.206-6-.836-1.576-1.043-2.461-2.897-2.655-5.564h-.51c-.969 2.133-2.496 3.855-4.58 5.164-2.086 1.309-4.316 1.963-6.692 1.963z"/></g></svg>