<svg width="601" height="153" viewBox="0 0 601 153" xmlns="http://www.w3.org/2000/svg"><title>SVG</title><g fill-opacity=".22" fill="#000" fill-rule="evenodd"><path d="M452.436 123V12.455h65.499v18.24h-40.626v24.043h35.513v18.24h-35.513v31.782h40.626V123h-65.499zm147.137-19.207c-1.843 6.356-5.712 11.377-11.608 15.062-5.895 3.684-13.127 5.527-21.694 5.527-10.133 0-18.056-2.672-23.767-8.015-5.712-5.343-8.568-12.712-8.568-22.109v-25.84c0-9.304 2.948-16.582 8.844-21.833 5.896-5.25 14.048-7.876 24.458-7.876 10.318 0 18.401 2.672 24.251 8.015 5.85 5.343 8.775 12.712 8.775 22.109v17.41h-41.455v8.015c0 5.527.691 9.327 2.073 11.4 1.382 2.073 3.961 3.11 7.738 3.11 2.856 0 5.067-.738 6.633-2.212 1.566-1.474 3.086-4.191 4.56-8.152l19.76 5.389zm-40.764-35.237v4.837h16.582V68.97c0-5.804-.599-9.788-1.796-11.953-1.198-2.165-3.363-3.247-6.495-3.247s-5.297 1.036-6.495 3.109c-1.197 2.073-1.796 5.965-1.796 11.676zM276.036 123h-24.872V81.545l-30.262-69.09h25.702l17.41 49.054 18.102-49.054h24.182l-30.262 69.09V123zm51.515 29.156c-3.04 0-6.38-.138-10.018-.414-3.64-.277-7.577-.691-11.815-1.244l.83-17.273c3.224.461 6.102.83 8.636 1.106 2.533.276 4.813.414 6.84.414 6.08 0 10.202-1.22 12.367-3.661 2.165-2.442 3.616-5.873 4.353-10.295l.276-1.658h-18.655L304.06 40.09h23.905l12.99 67.985 11.469-67.985h23.214l-14.509 81.942c-1.842 10.41-5.504 18.032-10.985 22.869-5.482 4.836-13.012 7.254-22.593 7.254zM64.138 140.327c-14.647 2.303-24.965 1.083-30.953-3.662-5.987-4.744-8.843-14.071-8.567-27.981-7.738-2.12-13.703-6.126-17.894-12.022C2.532 90.766.436 83.396.436 74.552v-38c0-11.33 3.34-20.243 10.019-26.737C17.133 3.32 26.599.073 38.85.073c12.344 0 21.81 3.247 28.396 9.742 6.587 6.494 9.88 15.407 9.88 26.738v38c0 10.686-3.017 19.16-9.05 25.425-6.035 6.264-14.579 9.719-25.633 10.364.368 5.803 1.934 9.488 4.698 11.054 2.763 1.566 7.646 1.474 14.647-.276l2.35 19.207zm-25.287-47.12c5.343 0 8.913-1.359 10.709-4.076 1.796-2.718 2.695-8.222 2.695-16.513v-34.13c0-8.015-.899-13.381-2.695-16.099-1.796-2.717-5.366-4.076-10.71-4.076-5.434 0-9.05 1.359-10.846 4.076-1.797 2.718-2.695 8.084-2.695 16.098v34.131c0 8.291.898 13.795 2.695 16.513 1.796 2.717 5.412 4.076 10.847 4.076zm94.904 46.43V99.977h-3.04c-1.106 4.422-3.179 7.761-6.219 10.018-3.04 2.257-7 3.386-11.883 3.386-6.725 0-11.792-2.35-15.2-7.047-3.409-4.699-5.113-11.654-5.113-20.866V56.59c0-9.396 2.833-16.49 8.498-21.28 5.666-4.79 14.118-7.185 25.357-7.185 6.54 0 12.62.967 18.24 2.901 5.619 1.935 10.363 4.653 14.232 8.153v100.458h-24.872zm-9.95-44.633c1.474 0 3.156-.461 5.044-1.382 1.889-.921 3.524-2.58 4.906-4.975v-40.21c-.922-.922-2.165-1.682-3.731-2.28-1.566-.6-3.409-.899-5.528-.899-2.763 0-4.675.852-5.734 2.557-1.06 1.704-1.59 4.72-1.59 9.05v26.67c0 4.145.623 7.093 1.866 8.843 1.244 1.75 2.833 2.626 4.767 2.626z"/><path d="M454.436 123V12.455h62.597v16.029h-41.455v26.945h36.204v16.167h-36.204v35.375h41.455V123h-62.597zm140.09-18.793c-1.935 6.449-5.666 11.423-11.193 14.924-5.528 3.5-12.298 5.25-20.313 5.25-9.58 0-17.111-2.625-22.593-7.876-5.481-5.25-8.222-12.482-8.222-21.694V68.14c0-9.211 2.787-16.42 8.36-21.625 5.574-5.205 13.289-7.807 23.146-7.807 9.673 0 17.273 2.672 22.8 8.015 5.527 5.343 8.29 12.712 8.29 22.109v16.72h-41.454v9.258c0 5.804.852 9.81 2.557 12.022 1.704 2.21 4.629 3.316 8.774 3.316 3.5 0 6.126-.783 7.877-2.349 1.75-1.566 3.316-4.376 4.698-8.43l17.272 4.837zM553.346 68.28v5.25h20.313v-4.56c0-6.08-.76-10.34-2.28-12.78-1.52-2.442-4.122-3.663-7.807-3.663-3.685 0-6.31 1.175-7.877 3.524-1.566 2.349-2.349 6.425-2.349 12.229zM274.305 123h-21.141V81.545l-30.124-69.09h22.11l19.068 51.403 19.346-51.403h20.865l-30.124 69.09V123zm48.475 28.88c-2.672 0-5.596-.138-8.775-.415-3.178-.276-6.61-.644-10.294-1.105l.967-15.476c2.856.46 5.458.829 7.807 1.105 2.35.276 4.4.415 6.15.415 5.527 0 9.373-1.221 11.538-3.662 2.165-2.441 3.708-5.965 4.629-10.571l.276-1.658h-14.923L302.329 40.09h20.727l14.095 69.367 12.989-69.367h20.036l-16.72 85.12c-2.026 9.396-5.55 16.19-10.57 20.382-5.021 4.191-11.723 6.287-20.106 6.287zM65.724 139.636c-13.45 2.303-23.1 1.152-28.95-3.454-5.85-4.606-8.728-13.266-8.636-25.978-8.29-1.659-14.647-5.482-19.069-11.47-4.422-5.987-6.633-13.772-6.633-23.352V36.69c0-11.515 3.179-20.497 9.535-26.946C18.327 3.297 27.355.073 39.055.073 50.754.073 59.735 3.297 66 9.745c6.264 6.449 9.396 15.43 9.396 26.946v38.69c0 10.503-2.694 18.863-8.083 25.08-5.39 6.219-13.15 9.789-23.284 10.71.369 5.896 2.004 9.742 4.906 11.538 2.901 1.796 7.807 1.866 14.716.207l2.073 16.72zM39.054 96.11c5.804 0 9.788-1.566 11.953-4.698 2.165-3.132 3.248-8.936 3.248-17.411V38.073c0-8.383-1.083-14.14-3.248-17.273-2.165-3.132-6.149-4.698-11.952-4.698-5.896 0-9.95 1.566-12.16 4.698-2.211 3.132-3.317 8.89-3.317 17.273V74c0 8.475 1.106 14.279 3.317 17.41 2.21 3.133 6.264 4.7 12.16 4.7zm92.97 43.527v-39.243h-3.04c-1.198 4.237-3.363 7.462-6.495 9.672-3.132 2.211-7.047 3.317-11.745 3.317-6.633 0-11.654-2.395-15.062-7.186-3.409-4.79-5.113-11.791-5.113-21.003V56.589c0-9.304 2.764-16.397 8.291-21.28 5.527-4.882 13.45-7.324 23.767-7.324 6.08 0 11.769.876 17.066 2.626 5.297 1.75 9.788 4.191 13.472 7.324v101.701h-21.141zm-12.16-42.698c2.118 0 4.26-.622 6.425-1.865 2.165-1.244 4.076-3.386 5.735-6.426V46.778c-1.198-1.105-2.695-1.957-4.491-2.556-1.797-.599-3.846-.898-6.15-.898-3.224 0-5.642 1.013-7.254 3.04-1.612 2.026-2.418 5.527-2.418 10.501v26.531c0 4.79.714 8.245 2.142 10.364 1.428 2.119 3.431 3.178 6.01 3.178z"/><g><path d="M459.68 123V12.455h60.662v14.647h-41.87v28.742h36.619v14.785h-36.618v37.724h41.869V123H459.68zm137.878-18.655c-1.934 6.633-5.527 11.63-10.778 14.993-5.25 3.363-11.745 5.044-19.484 5.044-9.304 0-16.604-2.603-21.901-7.807-5.297-5.205-7.946-12.368-7.946-21.488V68.004c0-9.12 2.695-16.283 8.084-21.488 5.389-5.205 12.781-7.807 22.178-7.807 9.304 0 16.628 2.672 21.97 8.015 5.344 5.343 8.015 12.712 8.015 22.109V85h-41.454v10.087c0 5.896.944 10.041 2.833 12.437 1.888 2.395 5.043 3.592 9.465 3.592 3.87 0 6.748-.829 8.636-2.487 1.889-1.658 3.478-4.56 4.768-8.705l15.614 4.421zm-41.316-36.203v5.527h22.662v-4.698c0-6.172-.876-10.594-2.626-13.266-1.75-2.671-4.652-4.007-8.705-4.007-4.054 0-6.955 1.267-8.706 3.8-1.75 2.534-2.625 6.748-2.625 12.644zM276.2 123h-18.793V81.545l-29.985-69.09h19.76l20.036 53.061 20.175-53.061h18.654L276.2 81.545V123zm48.75 28.742c-2.486 0-5.158-.138-8.014-.415a225.494 225.494 0 0 1-9.258-1.105l1.244-14.233c2.58.46 4.951.83 7.116 1.106 2.165.276 4.077.414 5.735.414 5.066 0 8.682-1.22 10.847-3.662 2.165-2.441 3.846-6.01 5.044-10.709l.276-1.658h-12.575l-18.792-81.39h18.516l15.062 70.335 13.956-70.334h17.964l-18.378 87.193c-2.211 8.843-5.666 15.13-10.364 18.861s-10.824 5.597-18.378 5.597zM70.83 139.222c-12.714 2.21-21.972 1.082-27.775-3.386-5.804-4.468-8.706-12.643-8.706-24.527-8.567-1.382-15.154-5.113-19.76-11.193-4.606-6.08-6.909-14.14-6.909-24.181V36.829c0-11.7 3.063-20.75 9.19-27.153C22.994 3.274 31.723.073 43.054.073c11.33 0 20.036 3.2 26.116 9.603 6.08 6.403 9.12 15.454 9.12 27.153v39.106c0 10.41-2.533 18.7-7.6 24.872-5.067 6.172-12.298 9.811-21.695 10.917.369 6.08 2.073 10.087 5.113 12.021 3.04 1.935 7.922 2.073 14.647.415l2.073 15.062zM43.054 97.905c6.08 0 10.34-1.68 12.781-5.043 2.442-3.363 3.662-9.327 3.662-17.895v-37.17c0-8.568-1.22-14.556-3.662-17.964-2.44-3.409-6.701-5.113-12.781-5.113-6.173 0-10.48 1.704-12.92 5.113-2.442 3.408-3.662 9.396-3.662 17.963v37.171c0 8.568 1.22 14.532 3.662 17.895 2.44 3.362 6.747 5.043 12.92 5.043zm94.212 41.731v-39.105h-3.04c-1.197 4.145-3.362 7.324-6.494 9.534-3.132 2.211-7.048 3.317-11.746 3.317-6.54 0-11.538-2.441-14.992-7.324-3.455-4.882-5.182-11.93-5.182-21.142V56.59c0-9.304 2.717-16.42 8.152-21.349 5.436-4.929 12.99-7.393 22.662-7.393 5.804 0 11.262.806 16.375 2.418 5.113 1.613 9.465 3.847 13.058 6.702v102.67h-18.793zm-13.68-41.454c2.58 0 5.044-.76 7.393-2.28 2.35-1.52 4.445-3.984 6.287-7.393V45.535c-1.382-1.198-3.017-2.096-4.905-2.695-1.889-.599-4.077-.898-6.564-.898-3.685 0-6.471 1.151-8.36 3.454-1.888 2.303-2.833 6.126-2.833 11.47v26.53c0 5.251.76 9.028 2.28 11.331 1.52 2.303 3.754 3.455 6.702 3.455z"/></g><g><path d="M458.436 123V12.455h55.688v11.054H471.01v33.578h37.862V68.28H471.01v43.665h43.113V123h-55.688zm123.646-17.964c-2.027 6.817-5.32 11.746-9.88 14.786-4.56 3.04-10.34 4.56-17.342 4.56-8.567 0-15.246-2.51-20.036-7.531-4.79-5.02-7.186-11.999-7.186-20.935V67.727c0-9.12 2.395-16.236 7.186-21.349 4.79-5.113 11.423-7.669 19.898-7.669s15.085 2.672 19.829 8.015 7.116 12.712 7.116 22.109v15.062h-41.454v12.16c0 6.264 1.22 10.732 3.662 13.403 2.44 2.672 6.195 4.007 11.261 4.007 4.699 0 8.176-.944 10.433-2.832 2.257-1.889 3.938-4.952 5.044-9.19l11.469 3.593zm-41.87-37.309v6.357h28.88v-4.975c0-6.633-1.174-11.538-3.523-14.716-2.349-3.178-6.01-4.768-10.985-4.768-4.883 0-8.499 1.497-10.848 4.491-2.349 2.994-3.523 7.531-3.523 13.611zM268.738 123h-12.574V81.545l-29.71-69.09h13.68l22.8 57.069 22.11-57.07h13.265l-29.57 69.091V123zm41.151 28.327c-1.842 0-3.823-.138-5.942-.414-2.119-.277-4.33-.6-6.632-.968l1.658-11.33c2.026.46 3.892.829 5.596 1.105 1.704.276 3.247.415 4.63.415 4.145 0 7.3-1.198 9.465-3.593 2.164-2.395 3.984-6.126 5.458-11.193l.276-1.52h-6.494l-21.142-83.738h13.127l16.996 72.822L343.33 40.09h12.713l-22.11 92.444c-2.579 7.093-5.849 11.998-9.81 14.716-3.961 2.717-8.706 4.076-14.233 4.076zM68.895 137.978c-10.687 2.027-18.862.99-24.528-3.109-5.665-4.1-8.59-11.077-8.774-20.934-9.489-.645-16.72-4.077-21.695-10.295-4.974-6.218-7.462-14.947-7.462-26.185V37.244c0-12.068 2.787-21.28 8.36-27.637C20.37 3.251 28.361.073 38.771.073c10.41 0 18.355 3.178 23.836 9.534 5.482 6.357 8.222 15.569 8.222 27.637v40.21c0 10.134-2.027 18.24-6.08 24.32-4.053 6.08-9.949 9.904-17.687 11.47.368 6.172 2.21 10.41 5.527 12.712 3.316 2.303 8.199 2.672 14.647 1.106l1.659 10.916zm-30.262-35.236c6.909 0 11.906-2.004 14.992-6.011 3.087-4.007 4.63-10.479 4.63-19.415V37.244c0-9.213-1.543-15.868-4.63-19.968-3.086-4.1-8.083-6.149-14.992-6.149-6.91 0-11.907 2.05-14.993 6.15-3.086 4.099-4.63 10.754-4.63 19.967v40.072c0 8.936 1.544 15.408 4.63 19.415s8.084 6.01 14.993 6.01zm88.823 36.894v-38.414h-3.04c-1.381 3.869-3.684 6.863-6.909 8.982-3.224 2.118-7.093 3.178-11.607 3.178-6.264 0-11.147-2.533-14.647-7.6s-5.251-12.16-5.251-21.28V56.589c0-9.12 2.556-16.236 7.669-21.349 5.113-5.113 11.814-7.67 20.105-7.67 4.975 0 9.788.646 14.44 1.935 4.653 1.29 8.59 3.087 11.815 5.39v104.741h-12.575zm-17.41-38.138c3.684 0 6.932-1.036 9.741-3.109 2.81-2.073 5.366-5.366 7.67-9.88V42.771a17.405 17.405 0 0 0-6.15-3.178c-2.257-.645-4.813-.968-7.669-.968-4.514 0-8.153 1.451-10.916 4.353-2.764 2.902-4.146 7.531-4.146 13.887v26.393c0 6.357.922 10.986 2.764 13.887 1.842 2.902 4.744 4.353 8.705 4.353z"/></g><g><path d="M459.404 123V12.455h54.167v9.672h-43.39v35.375h38.139v9.81h-38.138v46.015h43.389V123h-54.167zm121.987-17.687c-2.027 6.909-5.228 11.814-9.604 14.716-4.376 2.902-9.972 4.353-16.789 4.353-8.29 0-14.762-2.487-19.414-7.462-4.653-4.975-6.979-11.884-6.979-20.727V67.589c0-9.028 2.303-16.098 6.91-21.21 4.606-5.114 11.008-7.67 19.207-7.67 8.199 0 14.601 2.672 19.207 8.015s6.91 12.712 6.91 22.109V83.48h-41.455v12.99c0 6.355 1.29 10.938 3.869 13.748 2.58 2.81 6.494 4.215 11.745 4.215 4.975 0 8.66-.99 11.055-2.971 2.395-1.98 4.1-5.136 5.112-9.466l10.226 3.317zm-42.007-37.724v6.633h30.676v-5.113c0-6.725-1.267-11.791-3.8-15.2-2.533-3.408-6.425-5.113-11.676-5.113-5.067 0-8.867 1.59-11.4 4.768-2.534 3.178-3.8 7.853-3.8 14.025zM271.91 123h-10.78V81.545l-29.57-69.09h11.884l23.49 58.589 22.8-58.59h11.608l-29.433 69.091V123zm41.426 28.19c-1.75 0-3.57-.14-5.458-.415-1.888-.277-3.8-.6-5.734-.968l1.796-10.087c1.75.46 3.432.83 5.044 1.105 1.612.277 3.063.415 4.352.415 3.87 0 6.863-1.175 8.982-3.524 2.119-2.349 4.007-6.149 5.666-11.4l.276-1.52h-4.698l-21.833-84.705h11.47l17.686 73.789 17.135-73.79h11.193l-23.353 94.517c-2.58 6.357-5.735 10.71-9.465 13.058-3.731 2.35-8.084 3.524-13.059 3.524zM74.724 137.564c-3.501.737-6.68 1.059-9.535.967-5.896.092-11.077-1.543-15.545-4.906-4.468-3.362-6.932-9.557-7.393-18.585-9.673-.368-17.066-3.708-22.178-10.018-5.113-6.31-7.67-15.315-7.67-27.015V37.382c0-12.16 2.695-21.418 8.084-27.775C25.877 3.251 33.637.073 43.771.073c10.133 0 17.871 3.178 23.214 9.534C72.33 15.964 75 25.222 75 37.382v40.625c0 10.042-1.888 18.079-5.665 24.113-3.777 6.034-9.259 9.926-16.444 11.676.553 6.265 2.142 10.387 4.767 12.368 2.626 1.98 5.597 2.97 8.913 2.97 2.027 0 4.191-.276 6.494-.829l1.659 9.259zm-31.091-32.888c7.185 0 12.413-2.118 15.683-6.356 3.27-4.238 4.906-10.916 4.906-20.036V36.967c0-9.396-1.635-16.282-4.906-20.658-3.27-4.376-8.498-6.564-15.683-6.564-7.094 0-12.275 2.188-15.546 6.564-3.27 4.376-4.905 11.262-4.905 20.658v41.317c0 9.12 1.635 15.798 4.905 20.036 3.27 4.238 8.452 6.356 15.546 6.356zm89.79 34.96v-38.138h-3.04c-1.473 3.685-3.822 6.587-7.047 8.706-3.224 2.118-7.047 3.178-11.469 3.178-6.172 0-11.031-2.557-14.578-7.67-3.547-5.112-5.32-12.228-5.32-21.348V56.589c0-9.12 2.533-16.26 7.6-21.418 5.067-5.159 11.47-7.738 19.207-7.738 4.79 0 9.443.575 13.957 1.727 4.514 1.152 8.337 2.787 11.469 4.905v105.571h-10.778zm-18.516-36.894c4.054 0 7.531-1.152 10.433-3.455s5.596-5.895 8.084-10.778V41.665c-2.027-1.566-4.192-2.694-6.495-3.385-2.303-.69-4.974-1.036-8.014-1.036-4.699 0-8.568 1.589-11.608 4.767-3.04 3.178-4.56 8.13-4.56 14.854v26.393c0 6.725.945 11.653 2.833 14.786 1.888 3.132 4.998 4.698 9.327 4.698z"/></g><g><path d="M460.37 123V12.455h52.095v7.876h-43.389v38.276h38.277v7.877h-38.277v48.64h43.39V123H460.37zm119.363-16.996c-1.75 6.356-4.606 11.008-8.568 13.956-3.96 2.948-9.304 4.422-16.029 4.422-8.014 0-14.278-2.464-18.792-7.393-4.514-4.928-6.771-11.999-6.771-21.21V67.864c0-9.488 2.257-16.72 6.77-21.694 4.515-4.975 10.64-7.462 18.379-7.462 7.738 0 13.841 2.556 18.309 7.67 4.468 5.112 6.702 12.597 6.702 22.454v14.094h-41.455v12.99c0 7.277 1.405 12.55 4.215 15.821 2.81 3.27 7.07 4.906 12.782 4.906 4.974 0 8.613-.968 10.916-2.902 2.303-1.935 4.1-5.343 5.389-10.226l8.153 2.488zm-41.455-38.139v7.739h32.75v-6.495c0-7.738-1.36-13.45-4.077-17.134-2.718-3.685-6.794-5.528-12.23-5.528-5.526 0-9.649 1.75-12.366 5.251-2.718 3.5-4.077 8.89-4.077 16.167zM270.804 123h-8.706V81.545l-29.709-69.09h9.673l24.734 59.418 24.182-59.418h9.397l-29.571 69.09V123zm42.118 28.465a32.76 32.76 0 0 1-4.63-.345c-1.611-.23-3.339-.53-5.181-.898l1.244-7.877a87.44 87.44 0 0 0 4.56.899c1.381.23 2.855.345 4.421.345 3.685 0 6.564-1.105 8.637-3.316 2.072-2.211 3.846-6.126 5.32-11.746l1.243-5.25h-3.592L302.696 40.09h9.259l18.93 74.342 18.517-74.342h8.843l-23.905 92.167c-2.21 7.094-5.067 12.068-8.567 14.924s-7.784 4.283-12.851 4.283zM74.447 138.255c-10.41 2.579-18.4 1.75-23.974-2.488-5.574-4.237-8.452-11.607-8.637-22.109-9.58-.368-16.72-3.662-21.418-9.88-4.698-6.218-7.047-15.453-7.047-27.705V38.21c0-12.897 2.51-22.478 7.53-28.742C25.923 3.205 33.546.073 43.772.073c10.133 0 17.687 3.132 22.662 9.396 4.974 6.264 7.462 15.845 7.462 28.742v37.862c0 11.515-1.958 20.312-5.873 26.392-3.915 6.08-9.88 9.673-17.895 10.779.277 8.383 2.326 13.864 6.15 16.443 3.822 2.58 9.419 2.856 16.788.83l1.382 7.738zm-30.814-32.473c7.646 0 13.15-2.326 16.512-6.978 3.363-4.653 5.044-12.275 5.044-22.87V38.212c0-10.778-1.681-18.516-5.044-23.215-3.362-4.698-8.866-7.047-16.512-7.047-7.646 0-13.15 2.35-16.513 7.047-3.362 4.699-5.044 12.437-5.044 23.215v37.724c0 10.594 1.682 18.216 5.044 22.869 3.362 4.652 8.867 6.978 16.513 6.978zm90.758 33.854v-38.552h-1.935c-1.934 3.96-4.49 7-7.669 9.12-3.178 2.118-6.886 3.178-11.123 3.178-6.541 0-11.63-2.441-15.27-7.324-3.638-4.882-5.458-11.745-5.458-20.589V56.59c0-9.028 2.326-16.098 6.979-21.21 4.652-5.114 10.985-7.67 19-7.67 4.698 0 9.143.691 13.334 2.073 4.192 1.382 7.807 3.132 10.847 5.25v104.604h-8.705zm-18.655-34.407c3.685 0 6.979-.99 9.88-2.97 2.902-1.981 5.827-5.229 8.775-9.743V39.87a26.806 26.806 0 0 0-7.255-3.385c-2.625-.783-5.412-1.175-8.36-1.175-5.527 0-9.764 1.796-12.712 5.39-2.948 3.592-4.422 8.981-4.422 16.166v27.222c0 7.186 1.151 12.506 3.454 15.96 2.303 3.455 5.85 5.182 10.64 5.182z"/></g></g></svg>