<svg width="764" height="37" viewBox="0 0 764 37" xmlns="http://www.w3.org/2000/svg"><title>Group</title><g fill="none" fill-rule="evenodd"><circle fill="#FFF" cx="33.5" cy="31.5" r="5.5"/><circle fill="#FFF" cx="736.5" cy="31.5" r="5.5"/><path d="M5.364 16.182c-1.358 0-2.455-.337-3.291-1.01C1.236 14.5.818 13.462.818 12.056V9.109c0-1.418.421-2.473 1.264-3.164.842-.69 1.942-1.036 3.3-1.036 1.357 0 2.451.346 3.282 1.036.83.691 1.245 1.746 1.245 3.164v2.946c0 1.406-.418 2.445-1.254 3.118-.837.672-1.934 1.009-3.291 1.009zm0-1.637c.909 0 1.59-.193 2.045-.581.455-.388.682-1.025.682-1.91V9.11c0-.873-.227-1.518-.682-1.936-.454-.418-1.136-.628-2.045-.628-.91 0-1.591.21-2.046.628-.454.418-.682 1.063-.682 1.936v2.946c0 .884.228 1.52.682 1.909.455.388 1.137.581 2.046.581zm9 1.455V6.727h-2.182V5.091h2.182v-.727c0-.982.297-1.743.89-2.282.594-.54 1.334-.81 2.219-.81.351 0 .782.05 1.29.146.51.097.916.206 1.219.327l-.364 1.528a6.671 6.671 0 0 0-.845-.255 4.075 4.075 0 0 0-.937-.109c-.509 0-.912.112-1.209.336-.297.225-.445.591-.445 1.1v.746h3.636v1.636h-3.636V16h-1.818zm9.909 0V6.727H22.09V5.091h2.182v-.727c0-.982.297-1.743.89-2.282.595-.54 1.334-.81 2.219-.81.351 0 .782.05 1.29.146.51.097.916.206 1.219.327l-.364 1.528a6.671 6.671 0 0 0-.845-.255 4.075 4.075 0 0 0-.937-.109c-.509 0-.912.112-1.209.336-.297.225-.445.591-.445 1.1v.746h3.636v1.636h-3.636V16h-1.818zm12.927.09c-1.224 0-2.185-.411-2.882-1.235-.697-.825-1.045-1.8-1.045-2.928V1.455h1.818v10.49c0 .643.179 1.213.536 1.71.358.497.9.745 1.628.745.181 0 .393-.03.636-.09a3.54 3.54 0 0 0 .636-.22l.364 1.583c-.23.12-.491.22-.782.3-.29.079-.594.118-.909.118zm5.073-.09V5.09h1.818V16h-1.818zm.909-12.91c-.46 0-.834-.072-1.118-.217-.285-.146-.428-.418-.428-.818v-.128c0-.412.143-.694.428-.845.284-.152.657-.227 1.118-.227.46 0 .833.075 1.118.227.285.151.427.433.427.845v.128c0 .4-.145.672-.436.818-.291.145-.66.218-1.11.218zM48.545 16V5.09h1.819v1.82h.545a3.228 3.228 0 0 1 1.264-1.455 3.55 3.55 0 0 1 1.936-.546c1.079 0 1.936.336 2.573 1.01.636.672.954 1.578.954 2.717V16h-1.818V9c0-.8-.203-1.394-.609-1.782-.406-.388-.918-.582-1.536-.582-.703 0-1.31.18-1.818.537a8.386 8.386 0 0 0-1.491 1.372V16h-1.819zM69.4 13.6c-.327.91-.845 1.567-1.555 1.973-.709.406-1.712.609-3.009.609-1.442 0-2.563-.349-3.363-1.046-.8-.697-1.2-1.73-1.2-3.1V9.11c0-1.406.42-2.457 1.263-3.154.843-.697 1.943-1.046 3.3-1.046 1.37 0 2.467.355 3.291 1.064.825.709 1.237 1.797 1.237 3.263v1.673H62.09v1.146c0 .909.227 1.566.682 1.972.454.406 1.136.61 2.045.61.873 0 1.51-.122 1.91-.364.4-.243.702-.637.908-1.182l1.764.509zm-7.31-4.49v.435h5.455v-.272c0-.982-.227-1.697-.681-2.146-.455-.448-1.137-.672-2.046-.672-.909 0-1.59.215-2.045.645-.455.43-.682 1.1-.682 2.01zM707.364 16.182c-1.358 0-2.455-.337-3.291-1.01-.837-.672-1.255-1.711-1.255-3.117V9.109c0-1.418.421-2.473 1.264-3.164.842-.69 1.942-1.036 3.3-1.036 1.357 0 2.451.346 3.282 1.036.83.691 1.245 1.746 1.245 3.164v2.946c0 1.406-.418 2.445-1.254 3.118-.837.672-1.934 1.009-3.291 1.009zm0-1.637c.909 0 1.59-.193 2.045-.581.455-.388.682-1.025.682-1.91V9.11c0-.873-.227-1.518-.682-1.936-.454-.418-1.136-.628-2.045-.628-.91 0-1.591.21-2.046.628-.454.418-.682 1.063-.682 1.936v2.946c0 .884.228 1.52.682 1.909.455.388 1.137.581 2.046.581zM714.545 16V5.09h1.819v1.82h.545a3.228 3.228 0 0 1 1.264-1.455 3.55 3.55 0 0 1 1.936-.546c1.079 0 1.936.336 2.573 1.01.636.672.954 1.578.954 2.717V16h-1.818V9c0-.8-.203-1.394-.609-1.782-.406-.388-.918-.582-1.536-.582-.703 0-1.31.18-1.818.537a8.386 8.386 0 0 0-1.491 1.372V16h-1.819zm16.564.09c-1.224 0-2.185-.411-2.882-1.235-.697-.825-1.045-1.8-1.045-2.928V1.455H729v10.49c0 .643.179 1.213.536 1.71.358.497.9.745 1.628.745.181 0 .394-.03.636-.09a3.54 3.54 0 0 0 .636-.22l.364 1.583c-.23.12-.49.22-.782.3-.29.079-.594.118-.909.118zm5.073-.09V5.09H738V16h-1.818zm.909-12.91c-.46 0-.833-.072-1.118-.217-.285-.146-.428-.418-.428-.818v-.128c0-.412.143-.694.428-.845.285-.152.657-.227 1.118-.227.46 0 .833.075 1.118.227.285.151.427.433.427.845v.128c0 .4-.145.672-.436.818-.29.145-.66.218-1.11.218zM742.455 16V5.09h1.818v1.82h.545a3.228 3.228 0 0 1 1.264-1.455 3.55 3.55 0 0 1 1.936-.546c1.079 0 1.937.336 2.573 1.01.636.672.954 1.578.954 2.717V16h-1.818V9c0-.8-.203-1.394-.609-1.782-.406-.388-.918-.582-1.536-.582-.703 0-1.31.18-1.818.537a8.386 8.386 0 0 0-1.491 1.372V16h-1.818zm20.854-2.4c-.327.91-.845 1.567-1.554 1.973-.71.406-1.713.609-3.01.609-1.442 0-2.563-.349-3.363-1.046-.8-.697-1.2-1.73-1.2-3.1V9.11c0-1.406.421-2.457 1.263-3.154.843-.697 1.943-1.046 3.3-1.046 1.37 0 2.467.355 3.291 1.064.825.709 1.237 1.797 1.237 3.263v1.673H756v1.146c0 .909.227 1.566.682 1.972.454.406 1.136.61 2.045.61.873 0 1.51-.122 1.91-.364.4-.243.702-.637.908-1.182l1.764.509zM756 9.11v.435h5.455v-.272c0-.982-.228-1.697-.682-2.146-.455-.448-1.137-.672-2.046-.672-.909 0-1.59.215-2.045.645-.455.43-.682 1.1-.682 2.01z" fill="#FFF"/><path fill="#359E91" d="M39 31h692v1H39z"/></g></svg>