<svg width="767" height="65" viewBox="0 0 767 65" xmlns="http://www.w3.org/2000/svg"><title>Group</title><g fill="none" fill-rule="evenodd"><circle fill="#FFF" cx="33.5" cy="31.5" r="5.5"/><circle fill="#FFF" cx="736.5" cy="31.5" r="5.5"/><path d="M5.364 16.182c-1.358 0-2.455-.337-3.291-1.01C1.236 14.5.818 13.462.818 12.056V9.109c0-1.418.421-2.473 1.264-3.164.842-.69 1.942-1.036 3.3-1.036 1.357 0 2.451.346 3.282 1.036.83.691 1.245 1.746 1.245 3.164v2.946c0 1.406-.418 2.445-1.254 3.118-.837.672-1.934 1.009-3.291 1.009zm0-1.637c.909 0 1.59-.193 2.045-.581.455-.388.682-1.025.682-1.91V9.11c0-.873-.227-1.518-.682-1.936-.454-.418-1.136-.628-2.045-.628-.91 0-1.591.21-2.046.628-.454.418-.682 1.063-.682 1.936v2.946c0 .884.228 1.52.682 1.909.455.388 1.137.581 2.046.581zm9 1.455V6.727h-2.182V5.091h2.182v-.727c0-.982.297-1.743.89-2.282.594-.54 1.334-.81 2.219-.81.351 0 .782.05 1.29.146.51.097.916.206 1.219.327l-.364 1.528a6.671 6.671 0 0 0-.845-.255 4.075 4.075 0 0 0-.937-.109c-.509 0-.912.112-1.209.336-.297.225-.445.591-.445 1.1v.746h3.636v1.636h-3.636V16h-1.818zm9.909 0V6.727H22.09V5.091h2.182v-.727c0-.982.297-1.743.89-2.282.595-.54 1.334-.81 2.219-.81.351 0 .782.05 1.29.146.51.097.916.206 1.219.327l-.364 1.528a6.671 6.671 0 0 0-.845-.255 4.075 4.075 0 0 0-.937-.109c-.509 0-.912.112-1.209.336-.297.225-.445.591-.445 1.1v.746h3.636v1.636h-3.636V16h-1.818zm12.927.09c-1.224 0-2.185-.411-2.882-1.235-.697-.825-1.045-1.8-1.045-2.928V1.455h1.818v10.49c0 .643.179 1.213.536 1.71.358.497.9.745 1.628.745.181 0 .393-.03.636-.09a3.54 3.54 0 0 0 .636-.22l.364 1.583c-.23.12-.491.22-.782.3-.29.079-.594.118-.909.118zm5.073-.09V5.09h1.818V16h-1.818zm.909-12.91c-.46 0-.834-.072-1.118-.217-.285-.146-.428-.418-.428-.818v-.128c0-.412.143-.694.428-.845.284-.152.657-.227 1.118-.227.46 0 .833.075 1.118.227.285.151.427.433.427.845v.128c0 .4-.145.672-.436.818-.291.145-.66.218-1.11.218zM48.545 16V5.09h1.819v1.82h.545a3.228 3.228 0 0 1 1.264-1.455 3.55 3.55 0 0 1 1.936-.546c1.079 0 1.936.336 2.573 1.01.636.672.954 1.578.954 2.717V16h-1.818V9c0-.8-.203-1.394-.609-1.782-.406-.388-.918-.582-1.536-.582-.703 0-1.31.18-1.818.537a8.386 8.386 0 0 0-1.491 1.372V16h-1.819zM69.4 13.6c-.327.91-.845 1.567-1.555 1.973-.709.406-1.712.609-3.009.609-1.442 0-2.563-.349-3.363-1.046-.8-.697-1.2-1.73-1.2-3.1V9.11c0-1.406.42-2.457 1.263-3.154.843-.697 1.943-1.046 3.3-1.046 1.37 0 2.467.355 3.291 1.064.825.709 1.237 1.797 1.237 3.263v1.673H62.09v1.146c0 .909.227 1.566.682 1.972.454.406 1.136.61 2.045.61.873 0 1.51-.122 1.91-.364.4-.243.702-.637.908-1.182l1.764.509zm-7.31-4.49v.435h5.455v-.272c0-.982-.227-1.697-.681-2.146-.455-.448-1.137-.672-2.046-.672-.909 0-1.59.215-2.045.645-.455.43-.682 1.1-.682 2.01zM707.364 16.182c-1.358 0-2.455-.337-3.291-1.01-.837-.672-1.255-1.711-1.255-3.117V9.109c0-1.418.421-2.473 1.264-3.164.842-.69 1.942-1.036 3.3-1.036 1.357 0 2.451.346 3.282 1.036.83.691 1.245 1.746 1.245 3.164v2.946c0 1.406-.418 2.445-1.254 3.118-.837.672-1.934 1.009-3.291 1.009zm0-1.637c.909 0 1.59-.193 2.045-.581.455-.388.682-1.025.682-1.91V9.11c0-.873-.227-1.518-.682-1.936-.454-.418-1.136-.628-2.045-.628-.91 0-1.591.21-2.046.628-.454.418-.682 1.063-.682 1.936v2.946c0 .884.228 1.52.682 1.909.455.388 1.137.581 2.046.581zM714.545 16V5.09h1.819v1.82h.545a3.228 3.228 0 0 1 1.264-1.455 3.55 3.55 0 0 1 1.936-.546c1.079 0 1.936.336 2.573 1.01.636.672.954 1.578.954 2.717V16h-1.818V9c0-.8-.203-1.394-.609-1.782-.406-.388-.918-.582-1.536-.582-.703 0-1.31.18-1.818.537a8.386 8.386 0 0 0-1.491 1.372V16h-1.819zm16.564.09c-1.224 0-2.185-.411-2.882-1.235-.697-.825-1.045-1.8-1.045-2.928V1.455H729v10.49c0 .643.179 1.213.536 1.71.358.497.9.745 1.628.745.181 0 .394-.03.636-.09a3.54 3.54 0 0 0 .636-.22l.364 1.583c-.23.12-.49.22-.782.3-.29.079-.594.118-.909.118zm5.073-.09V5.09H738V16h-1.818zm.909-12.91c-.46 0-.833-.072-1.118-.217-.285-.146-.428-.418-.428-.818v-.128c0-.412.143-.694.428-.845.285-.152.657-.227 1.118-.227.46 0 .833.075 1.118.227.285.151.427.433.427.845v.128c0 .4-.145.672-.436.818-.29.145-.66.218-1.11.218zM742.455 16V5.09h1.818v1.82h.545a3.228 3.228 0 0 1 1.264-1.455 3.55 3.55 0 0 1 1.936-.546c1.079 0 1.937.336 2.573 1.01.636.672.954 1.578.954 2.717V16h-1.818V9c0-.8-.203-1.394-.609-1.782-.406-.388-.918-.582-1.536-.582-.703 0-1.31.18-1.818.537a8.386 8.386 0 0 0-1.491 1.372V16h-1.818zm20.854-2.4c-.327.91-.845 1.567-1.554 1.973-.71.406-1.713.609-3.01.609-1.442 0-2.563-.349-3.363-1.046-.8-.697-1.2-1.73-1.2-3.1V9.11c0-1.406.421-2.457 1.263-3.154.843-.697 1.943-1.046 3.3-1.046 1.37 0 2.467.355 3.291 1.064.825.709 1.237 1.797 1.237 3.263v1.673H756v1.146c0 .909.227 1.566.682 1.972.454.406 1.136.61 2.045.61.873 0 1.51-.122 1.91-.364.4-.243.702-.637.908-1.182l1.764.509zM756 9.11v.435h5.455v-.272c0-.982-.228-1.697-.682-2.146-.455-.448-1.137-.672-2.046-.672-.909 0-1.59.215-2.045.645-.455.43-.682 1.1-.682 2.01z" fill="#FFF"/><path fill="#359E91" d="M39 31h692v1H39z"/><path d="M17.353 64.127c-.408 0-.89-.065-1.445-.197a5.516 5.516 0 0 1-1.635-.694v-9.418h1.272v3.818h.382c.22-.44.522-.784.904-1.03a2.39 2.39 0 0 1 1.324-.37c.746 0 1.347.253 1.8.758.454.504.681 1.22.681 2.144v2.075c0 1.043-.35 1.79-1.05 2.24-.7.45-1.444.674-2.233.674zm-.013-1.12c.535 0 1.005-.127 1.413-.382.407-.254.61-.733.61-1.438v-2.036c0-.662-.137-1.112-.413-1.35-.276-.237-.647-.356-1.114-.356-.432 0-.831.11-1.196.331-.365.221-.73.556-1.095 1.006v3.742c.255.152.527.271.815.356.288.085.615.127.98.127zm9.024 1.12c-.95 0-1.719-.235-2.304-.706-.585-.471-.878-1.199-.878-2.183v-2.062c0-.992.295-1.73.884-2.214.59-.484 1.36-.726 2.31-.726s1.716.242 2.298.726c.58.483.871 1.222.871 2.214v2.062c0 .984-.292 1.712-.878 2.183-.585.47-1.353.706-2.303.706zm0-1.145c.636 0 1.113-.136 1.431-.407.319-.272.478-.717.478-1.337v-2.062c0-.61-.16-1.062-.478-1.355-.318-.293-.795-.44-1.431-.44-.637 0-1.114.147-1.432.44-.318.293-.477.744-.477 1.355v2.062c0 .62.159 1.065.477 1.337.318.271.795.407 1.432.407zm8.909 1.145c-.95 0-1.718-.235-2.304-.706-.585-.471-.878-1.199-.878-2.183v-2.062c0-.992.295-1.73.884-2.214.59-.484 1.36-.726 2.31-.726s1.717.242 2.298.726c.58.483.872 1.222.872 2.214v2.062c0 .984-.293 1.712-.879 2.183-.585.47-1.353.706-2.303.706zm0-1.145c.636 0 1.113-.136 1.432-.407.318-.272.477-.717.477-1.337v-2.062c0-.61-.16-1.062-.477-1.355-.319-.293-.796-.44-1.432-.44-.637 0-1.114.147-1.432.44-.318.293-.477.744-.477 1.355v2.062c0 .62.159 1.065.477 1.337.318.271.795.407 1.432.407zm7-2.457V64H41V53.818h1.273v5.638h.649l2.443-3.092h1.553l-2.99 3.55L46.88 64h-1.45l-2.508-3.475h-.65zm9.647 3.602a6.156 6.156 0 0 1-1.87-.286 5.265 5.265 0 0 1-1.668-.885l.573-1.005c.415.34.88.596 1.393.77.514.174 1.037.26 1.572.26a3.94 3.94 0 0 0 1.266-.203c.403-.136.605-.424.605-.865 0-.365-.166-.624-.496-.777-.331-.152-.938-.284-1.82-.394-.934-.11-1.64-.329-2.12-.656-.479-.326-.719-.842-.719-1.546 0-.764.289-1.338.866-1.725.577-.386 1.247-.579 2.01-.579a5.01 5.01 0 0 1 1.738.306 5.62 5.62 0 0 1 1.546.865l-.572 1.006a5.078 5.078 0 0 0-1.273-.751 3.776 3.776 0 0 0-1.438-.28c-.408 0-.779.076-1.114.229-.335.153-.503.433-.503.84 0 .348.155.6.465.757.31.157.906.29 1.788.401.967.11 1.693.346 2.176.706.484.361.726.864.726 1.509 0 .797-.323 1.38-.967 1.75-.645.369-1.366.553-2.164.553zM182.662 62.32c-.23.636-.592 1.097-1.088 1.38-.497.285-1.199.427-2.107.427-1.01 0-1.794-.244-2.354-.732-.56-.487-.84-1.21-.84-2.17v-2.049c0-.984.295-1.72.884-2.208.59-.488 1.36-.732 2.31-.732.96 0 1.727.249 2.304.745.577.496.865 1.258.865 2.284v1.171h-5.09v.802c0 .637.159 1.097.477 1.381.318.284.795.426 1.432.426.61 0 1.056-.084 1.336-.254.28-.17.492-.446.636-.827l1.235.356zm-5.117-3.144v.306h3.819v-.191c0-.687-.16-1.188-.478-1.502-.318-.314-.795-.47-1.431-.47-.637 0-1.114.15-1.432.451-.318.301-.478.77-.478 1.406zm10.717 4.951c-.407 0-.889-.065-1.445-.197a5.516 5.516 0 0 1-1.635-.694v-9.418h1.273v3.818h.381c.221-.44.522-.784.904-1.03a2.39 2.39 0 0 1 1.324-.37c.746 0 1.347.253 1.8.758.454.504.681 1.22.681 2.144v2.075c0 1.043-.35 1.79-1.05 2.24-.7.45-1.444.674-2.233.674zm-.013-1.12c.535 0 1.006-.127 1.413-.382.407-.254.61-.733.61-1.438v-2.036c0-.662-.137-1.112-.413-1.35-.276-.237-.647-.356-1.114-.356-.432 0-.831.11-1.196.331-.365.221-.73.556-1.094 1.006v3.742c.254.152.526.271.814.356.289.085.615.127.98.127zm9.024 1.12c-.95 0-1.718-.235-2.304-.706-.585-.471-.878-1.199-.878-2.183v-2.062c0-.992.295-1.73.884-2.214.59-.484 1.36-.726 2.31-.726s1.717.242 2.298.726c.58.483.872 1.222.872 2.214v2.062c0 .984-.293 1.712-.879 2.183-.585.47-1.353.706-2.303.706zm0-1.145c.636 0 1.113-.136 1.432-.407.318-.272.477-.717.477-1.337v-2.062c0-.61-.16-1.062-.477-1.355-.319-.293-.796-.44-1.432-.44-.637 0-1.114.147-1.432.44-.318.293-.477.744-.477 1.355v2.062c0 .62.159 1.065.477 1.337.318.271.795.407 1.432.407zm8.909 1.145c-.95 0-1.718-.235-2.304-.706-.585-.471-.878-1.199-.878-2.183v-2.062c0-.992.295-1.73.885-2.214.59-.484 1.36-.726 2.31-.726s1.716.242 2.297.726c.581.483.872 1.222.872 2.214v2.062c0 .984-.293 1.712-.879 2.183-.585.47-1.353.706-2.303.706zm0-1.145c.636 0 1.113-.136 1.432-.407.318-.272.477-.717.477-1.337v-2.062c0-.61-.16-1.062-.477-1.355-.319-.293-.796-.44-1.432-.44-.637 0-1.114.147-1.432.44-.318.293-.477.744-.477 1.355v2.062c0 .62.159 1.065.477 1.337.318.271.795.407 1.432.407zm7-2.457V64h-1.273V53.818h1.273v5.638h.649l2.444-3.092h1.552l-2.99 3.55L217.788 64h-1.45l-2.508-3.475h-.65zm9.647 3.602a6.156 6.156 0 0 1-1.87-.286 5.265 5.265 0 0 1-1.668-.885l.573-1.005c.415.34.88.596 1.393.77.514.174 1.038.26 1.572.26a3.94 3.94 0 0 0 1.266-.203c.403-.136.605-.424.605-.865 0-.365-.165-.624-.496-.777-.331-.152-.938-.284-1.82-.394-.934-.11-1.64-.329-2.12-.656-.479-.326-.719-.842-.719-1.546 0-.764.289-1.338.866-1.725.577-.386 1.247-.579 2.01-.579a5.01 5.01 0 0 1 1.738.306 5.62 5.62 0 0 1 1.546.865l-.572 1.006a5.078 5.078 0 0 0-1.273-.751 3.776 3.776 0 0 0-1.438-.28c-.407 0-.779.076-1.114.229-.335.153-.503.433-.503.84 0 .348.155.6.465.757.31.157.906.29 1.788.401.967.11 1.693.346 2.177.706.483.361.725.864.725 1.509 0 .797-.322 1.38-.967 1.75-.645.369-1.366.553-2.164.553zM348.545 64v-6.49h-1.527v-1.146h1.527v-.51c0-.687.208-1.22.624-1.597.416-.377.933-.566 1.553-.566.246 0 .547.034.903.102.357.068.641.144.853.229l-.254 1.069a4.67 4.67 0 0 0-.592-.178 2.852 2.852 0 0 0-.656-.077c-.356 0-.638.079-.846.236-.208.157-.312.413-.312.77v.522h2.546v1.145h-2.546V64h-1.273zm9.139-.967c.466 0 .899-.079 1.298-.236.399-.157.738-.43 1.018-.82v-1.222h-2.673c-.365 0-.657.082-.878.248-.22.165-.33.456-.33.872 0 .364.124.649.375.852.25.204.647.306 1.19.306zm-.166 1.094c-.679 0-1.283-.172-1.813-.515-.53-.344-.796-.897-.796-1.661 0-.67.204-1.196.611-1.578.407-.382.955-.573 1.642-.573H360v-1.095c0-.407-.146-.74-.44-.999-.292-.258-.735-.388-1.33-.388-.593 0-1.047.094-1.36.28-.315.187-.552.564-.714 1.133l-1.081-.306c.135-.695.451-1.234.948-1.616.496-.382 1.224-.573 2.182-.573.874 0 1.604.19 2.19.567.585.377.878.96.878 1.75v3.41c0 .459.127.745.382.86.254.114.636.13 1.145.044v1.171a3.26 3.26 0 0 1-1.483-.108c-.462-.148-.715-.55-.757-1.203h-.255c-.237.4-.608.732-1.113 1a3.52 3.52 0 0 1-1.674.4zm10.933 0c-1.154 0-2.003-.252-2.546-.757-.543-.505-.814-1.215-.814-2.132v-2.062c0-.984.305-1.72.916-2.208.611-.488 1.421-.732 2.431-.732 1.001 0 1.76.215 2.278.643.518.429.81 1.088.879 1.98l-1.248.076c-.042-.62-.214-1.033-.515-1.241-.301-.208-.77-.312-1.407-.312-.661 0-1.17.136-1.527.407-.356.272-.534.734-.534 1.387v2.062c0 .62.178 1.065.534 1.337.357.271.874.407 1.553.407.628 0 1.092-.083 1.394-.248.3-.166.468-.516.502-1.05l1.248.076c-.06.815-.35 1.413-.872 1.795-.522.381-1.28.572-2.272.572zm11.938-1.807c-.229.636-.592 1.097-1.088 1.38-.496.285-1.199.427-2.106.427-1.01 0-1.795-.244-2.355-.732-.56-.487-.84-1.21-.84-2.17v-2.049c0-.984.295-1.72.885-2.208.59-.488 1.36-.732 2.31-.732.958 0 1.726.249 2.303.745s.866 1.258.866 2.284v1.171h-5.091v.802c0 .637.159 1.097.477 1.381.318.284.795.426 1.432.426.61 0 1.056-.084 1.336-.254.28-.17.492-.446.637-.827l1.234.356zm-5.116-3.144v.306h3.818v-.191c0-.687-.16-1.188-.477-1.502-.319-.314-.796-.47-1.432-.47-.637 0-1.114.15-1.432.451-.318.301-.477.77-.477 1.406zm10.716 4.951c-.407 0-.889-.065-1.444-.197a5.516 5.516 0 0 1-1.636-.694v-9.418h1.273v3.818h.382c.22-.44.521-.784.903-1.03a2.39 2.39 0 0 1 1.324-.37c.747 0 1.347.253 1.8.758.455.504.682 1.22.682 2.144v2.075c0 1.043-.35 1.79-1.05 2.24-.7.45-1.445.674-2.234.674zm-.013-1.12c.535 0 1.006-.127 1.413-.382.407-.254.611-.733.611-1.438v-2.036c0-.662-.138-1.112-.414-1.35-.275-.237-.647-.356-1.113-.356-.433 0-.832.11-1.197.331-.364.221-.73.556-1.094 1.006v3.742c.254.152.526.271.814.356.289.085.616.127.98.127zm9.024 1.12c-.95 0-1.718-.235-2.304-.706-.585-.471-.878-1.199-.878-2.183v-2.062c0-.992.295-1.73.885-2.214.59-.484 1.36-.726 2.31-.726s1.716.242 2.297.726c.581.483.872 1.222.872 2.214v2.062c0 .984-.293 1.712-.878 2.183-.586.47-1.354.706-2.304.706zm0-1.145c.636 0 1.114-.136 1.432-.407.318-.272.477-.717.477-1.337v-2.062c0-.61-.159-1.062-.477-1.355-.318-.293-.796-.44-1.432-.44-.636 0-1.114.147-1.432.44-.318.293-.477.744-.477 1.355v2.062c0 .62.159 1.065.477 1.337.318.271.796.407 1.432.407zm8.91 1.145c-.951 0-1.72-.235-2.305-.706-.585-.471-.878-1.199-.878-2.183v-2.062c0-.992.295-1.73.885-2.214.59-.484 1.36-.726 2.31-.726s1.716.242 2.297.726c.581.483.872 1.222.872 2.214v2.062c0 .984-.293 1.712-.878 2.183-.586.47-1.354.706-2.304.706zm0-1.145c.635 0 1.113-.136 1.43-.407.32-.272.478-.717.478-1.337v-2.062c0-.61-.159-1.062-.477-1.355-.318-.293-.796-.44-1.432-.44-.636 0-1.114.147-1.432.44-.318.293-.477.744-.477 1.355v2.062c0 .62.16 1.065.477 1.337.318.271.796.407 1.432.407zm7-2.457V64h-1.274V53.818h1.273v5.638h.65l2.443-3.092h1.553l-2.991 3.55L415.516 64h-1.45l-2.508-3.475h-.649zM534.545 58.935h3.182c.688 0 1.178-.128 1.47-.382.293-.255.44-.675.44-1.26v-.79c0-.55-.147-.945-.44-1.183-.292-.238-.782-.356-1.47-.356h-3.182v3.97zm0 5.065h-1.272V53.818h4.467c1.06 0 1.854.223 2.38.668.526.446.79 1.118.79 2.018v.789c0 .806-.207 1.434-.618 1.883-.412.45-1.037.73-1.877.84L541.024 64h-1.451l-2.584-3.945h-2.444V64zm15.299-1.68c-.23.636-.592 1.097-1.089 1.38-.496.285-1.198.427-2.106.427-1.01 0-1.794-.244-2.354-.732-.56-.487-.84-1.21-.84-2.17v-2.049c0-.984.294-1.72.884-2.208.59-.488 1.36-.732 2.31-.732.959 0 1.727.249 2.304.745.577.496.865 1.258.865 2.284v1.171h-5.09v.802c0 .637.158 1.097.477 1.381.318.284.795.426 1.431.426.611 0 1.057-.084 1.337-.254.28-.17.492-.446.636-.827l1.235.356zm-5.117-3.144v.306h3.818v-.191c0-.687-.159-1.188-.477-1.502-.318-.314-.795-.47-1.432-.47-.636 0-1.113.15-1.431.451-.319.301-.478.77-.478 1.406zm10.411 3.857c.467 0 .9-.079 1.298-.236.4-.157.739-.43 1.019-.82v-1.222h-2.673c-.365 0-.658.082-.878.248-.221.165-.331.456-.331.872 0 .364.125.649.375.852.25.204.647.306 1.19.306zm-.165 1.094c-.68 0-1.284-.172-1.814-.515-.53-.344-.795-.897-.795-1.661 0-.67.203-1.196.61-1.578.408-.382.955-.573 1.642-.573h2.839v-1.095c0-.407-.147-.74-.44-.999-.292-.258-.736-.388-1.33-.388-.593 0-1.047.094-1.361.28-.314.187-.552.564-.713 1.133l-1.082-.306c.136-.695.452-1.234.948-1.616.497-.382 1.224-.573 2.183-.573.874 0 1.604.19 2.19.567.585.377.877.96.877 1.75v3.41c0 .459.128.745.382.86.255.114.636.13 1.146.044v1.171a3.26 3.26 0 0 1-1.483-.108c-.463-.148-.715-.55-.757-1.203h-.255c-.238.4-.609.732-1.114 1a3.52 3.52 0 0 1-1.673.4zm10.372-1.209c.433 0 .832-.11 1.197-.33.365-.221.73-.556 1.094-1.006V57.84a3.373 3.373 0 0 0-.865-.363 3.626 3.626 0 0 0-.93-.12c-.661 0-1.164.154-1.507.464-.344.31-.516.761-.516 1.355v2.05c0 .661.138 1.109.414 1.342.276.234.647.35 1.113.35zm1.91-.19c-.221.44-.522.784-.904 1.03a2.39 2.39 0 0 1-1.324.37c-.746 0-1.347-.253-1.8-.758-.455-.505-.682-1.22-.682-2.145v-2.074c0-.891.295-1.6.885-2.126.59-.526 1.39-.789 2.4-.789.338 0 .66.032.966.096.306.063.586.15.84.26v-2.774h1.273V64h-1.273v-1.273h-.381zm5.472-4.073V64h-1.272v-7.636h1.272v1.272h.382c.136-.424.393-.763.77-1.018.378-.254.821-.382 1.33-.382.45 0 .834.126 1.152.376.318.25.545.592.68 1.024h.459a1.87 1.87 0 0 1 .79-1.018c.39-.254.852-.382 1.386-.382.594 0 1.07.219 1.426.656.356.437.534 1.024.534 1.763V64h-1.272v-5.142c0-.509-.098-.872-.293-1.088-.195-.216-.475-.325-.84-.325s-.728.11-1.088.331c-.36.221-.681.514-.961.879V64h-1.273v-5.142c0-.509-.097-.872-.293-1.088-.195-.216-.475-.325-.84-.325-.364 0-.727.11-1.088.331-.36.221-.68.514-.96.879zM585.455 64v-7.636h1.272V64h-1.272zm.636-9.036c-.323 0-.583-.051-.783-.153-.2-.102-.299-.293-.299-.573v-.089c0-.288.1-.486.3-.592.199-.106.46-.159.782-.159s.583.053.783.16c.199.105.299.303.299.591v.09c0 .28-.102.47-.306.572-.203.102-.462.153-.776.153zm7.84 9.1c-.857 0-1.53-.289-2.017-.866-.488-.577-.732-1.26-.732-2.049v-7.33h1.273v7.343c0 .45.125.848.375 1.196s.63.522 1.14.522c.126 0 .275-.021.445-.064.17-.042.318-.093.445-.152l.255 1.107a2.673 2.673 0 0 1-.548.21 2.424 2.424 0 0 1-.636.083zm6.364 0c-.857 0-1.53-.289-2.018-.866-.488-.577-.732-1.26-.732-2.049v-7.33h1.273v7.343c0 .45.125.848.376 1.196.25.348.63.522 1.139.522.127 0 .275-.021.445-.064.17-.042.318-.093.446-.152l.254 1.107a2.673 2.673 0 0 1-.547.21 2.424 2.424 0 0 1-.636.083zM705.42 64l-1.705-5.167-1.63 5.167h-1.45l-2.139-7.636h1.286l1.603 6.401 1.566-5.129h1.502l1.642 5.002 1.578-6.274h1.285L706.82 64h-1.4zm11.696-1.68c-.229.636-.591 1.097-1.088 1.38-.496.285-1.198.427-2.106.427-1.01 0-1.795-.244-2.355-.732-.56-.487-.84-1.21-.84-2.17v-2.049c0-.984.295-1.72.885-2.208.59-.488 1.36-.732 2.31-.732.959 0 1.726.249 2.303.745s.866 1.258.866 2.284v1.171H712v.802c0 .637.16 1.097.477 1.381.318.284.796.426 1.432.426.611 0 1.056-.084 1.336-.254.28-.17.493-.446.637-.827l1.234.356zM712 59.176v.306h3.818v-.191c0-.687-.159-1.188-.477-1.502-.318-.314-.796-.47-1.432-.47-.636 0-1.114.15-1.432.451-.318.301-.477.77-.477 1.406zm10.716 4.951c-.407 0-.888-.065-1.444-.197a5.516 5.516 0 0 1-1.636-.694v-9.418h1.273v3.818h.382c.22-.44.522-.784.904-1.03a2.39 2.39 0 0 1 1.323-.37c.747 0 1.347.253 1.801.758.454.504.681 1.22.681 2.144v2.075c0 1.043-.35 1.79-1.05 2.24-.7.45-1.445.674-2.234.674zm-.012-1.12c.534 0 1.005-.127 1.412-.382.408-.254.611-.733.611-1.438v-2.036c0-.662-.138-1.112-.413-1.35-.276-.237-.647-.356-1.114-.356-.433 0-.832.11-1.196.331-.365.221-.73.556-1.095 1.006v3.742c.255.152.526.271.815.356.288.085.615.127.98.127zm9.125 1.12a6.156 6.156 0 0 1-1.87-.286 5.265 5.265 0 0 1-1.668-.885l.573-1.005c.415.34.88.596 1.393.77.514.174 1.038.26 1.572.26a3.94 3.94 0 0 0 1.266-.203c.403-.136.605-.424.605-.865 0-.365-.165-.624-.496-.777-.331-.152-.938-.284-1.82-.394-.934-.11-1.64-.329-2.12-.656-.479-.326-.719-.842-.719-1.546 0-.764.289-1.338.866-1.725.577-.386 1.247-.579 2.01-.579a5.01 5.01 0 0 1 1.738.306 5.62 5.62 0 0 1 1.546.865l-.572 1.006a5.078 5.078 0 0 0-1.273-.751 3.776 3.776 0 0 0-1.438-.28c-.407 0-.779.076-1.114.229-.335.153-.503.433-.503.84 0 .348.155.6.465.757.31.157.906.29 1.788.401.967.11 1.693.346 2.177.706.483.361.725.864.725 1.509 0 .797-.322 1.38-.967 1.75-.645.369-1.366.553-2.164.553zm6.898-.127v-7.636H740V64h-1.273zm.637-9.036c-.323 0-.584-.051-.783-.153-.2-.102-.3-.293-.3-.573v-.089c0-.288.1-.486.3-.592.2-.106.46-.159.783-.159.322 0 .583.053.782.16.2.105.3.303.3.591v.09c0 .28-.102.47-.306.572-.204.102-.462.153-.776.153zm8.26 9.15c-.84 0-1.472-.22-1.897-.661-.424-.441-.636-1.095-.636-1.96v-3.984h-1.527v-1.145h1.527v-2.546h1.273v2.546h2.8v1.145h-2.8v3.996c0 .501.123.868.369 1.101.246.234.568.35.967.35.187 0 .395-.02.624-.063a4.54 4.54 0 0 0 .7-.191l.254 1.12c-.288.102-.57.176-.846.223a4.84 4.84 0 0 1-.808.07zm10.22-1.794c-.23.636-.592 1.097-1.089 1.38-.496.285-1.198.427-2.106.427-1.01 0-1.794-.244-2.354-.732-.56-.487-.84-1.21-.84-2.17v-2.049c0-.984.294-1.72.884-2.208.59-.488 1.36-.732 2.31-.732.959 0 1.727.249 2.304.745.577.496.865 1.258.865 2.284v1.171h-5.09v.802c0 .637.158 1.097.477 1.381.318.284.795.426 1.431.426.611 0 1.057-.084 1.337-.254.28-.17.492-.446.636-.827l1.235.356zm-5.117-3.144v.306h3.818v-.191c0-.687-.159-1.188-.477-1.502-.318-.314-.795-.47-1.432-.47-.636 0-1.113.15-1.431.451-.319.301-.478.77-.478 1.406zm10.92 4.951a6.156 6.156 0 0 1-1.87-.286 5.265 5.265 0 0 1-1.668-.885l.573-1.005c.416.34.88.596 1.393.77.514.174 1.038.26 1.572.26a3.94 3.94 0 0 0 1.267-.203c.403-.136.604-.424.604-.865 0-.365-.165-.624-.496-.777-.331-.152-.938-.284-1.82-.394-.934-.11-1.64-.329-2.12-.656-.479-.326-.718-.842-.718-1.546 0-.764.288-1.338.865-1.725.577-.386 1.247-.579 2.011-.579a5.01 5.01 0 0 1 1.737.306 5.62 5.62 0 0 1 1.547.865l-.573 1.006a5.078 5.078 0 0 0-1.273-.751 3.776 3.776 0 0 0-1.438-.28c-.407 0-.778.076-1.114.229-.335.153-.502.433-.502.84 0 .348.154.6.464.757.31.157.906.29 1.788.401.968.11 1.693.346 2.177.706.483.361.725.864.725 1.509 0 .797-.322 1.38-.967 1.75-.645.369-1.366.553-2.164.553z" fill="#909090"/><circle fill="#FFF" cx="198.5" cy="32.5" r="5.5"/><circle fill="#FFF" cx="379.5" cy="31.5" r="5.5"/><circle fill="#FFF" cx="565.5" cy="31.5" r="5.5"/></g></svg>