<svg width="767" height="65" viewBox="0 0 767 65" xmlns="http://www.w3.org/2000/svg"><title>Group</title><g fill="none" fill-rule="evenodd"><circle fill="#FFF" cx="33.5" cy="31.5" r="5.5"/><circle fill="#FFF" cx="736.5" cy="31.5" r="5.5"/><path d="M5.364 16.182c-1.358 0-2.455-.337-3.29-1.01-.838-.672-1.256-1.71-1.256-3.117V9.11c0-1.42.42-2.474 1.264-3.165.842-.69 1.942-1.036 3.3-1.036 1.357 0 2.45.345 3.282 1.035.83.69 1.245 1.746 1.245 3.164v2.945c0 1.406-.42 2.445-1.255 3.118-.837.672-1.934 1.01-3.29 1.01zm0-1.637c.91 0 1.59-.193 2.045-.58.454-.39.68-1.026.68-1.91V9.11c0-.874-.226-1.52-.68-1.937-.455-.418-1.137-.628-2.046-.628-.91 0-1.59.21-2.046.628-.454.418-.682 1.063-.682 1.936v2.945c0 .884.228 1.52.682 1.91.455.387 1.137.58 2.046.58zm9 1.455V6.727h-2.182V5.09h2.182v-.726c0-.982.297-1.743.89-2.282.594-.54 1.334-.81 2.22-.81.35 0 .78.05 1.29.146.51.097.915.206 1.218.327l-.364 1.528a6.67 6.67 0 0 0-.845-.255c-.31-.073-.62-.11-.937-.11-.51 0-.912.113-1.21.337-.296.225-.444.59-.444 1.1v.746h3.636v1.637h-3.636V16h-1.818zm9.91 0V6.727H22.09V5.09h2.183v-.726c0-.982.297-1.743.89-2.282.595-.54 1.334-.81 2.22-.81.35 0 .78.05 1.29.146.51.097.915.206 1.218.327l-.363 1.528a6.67 6.67 0 0 0-.845-.255c-.31-.073-.62-.11-.937-.11-.51 0-.912.113-1.21.337-.296.225-.444.59-.444 1.1v.746h3.637v1.637H26.09V16h-1.817zm12.926.09c-1.224 0-2.185-.41-2.882-1.235-.697-.825-1.045-1.8-1.045-2.928V1.455h1.818v10.49c0 .643.18 1.213.537 1.71.358.497.9.745 1.628.745.18 0 .393-.03.636-.09a3.54 3.54 0 0 0 .637-.22l.364 1.583c-.23.12-.49.22-.78.3-.292.08-.595.118-.91.118zm5.073-.09V5.09h1.818V16h-1.817zm.91-12.91c-.462 0-.835-.072-1.12-.217-.284-.146-.427-.418-.427-.818v-.128c0-.412.143-.694.428-.845.284-.152.657-.227 1.118-.227.46 0 .833.075 1.118.227.285.15.427.433.427.845v.128c0 .4-.145.672-.436.818-.29.145-.66.218-1.108.218zM48.544 16V5.09h1.82v1.82h.544a3.228 3.228 0 0 1 1.263-1.455 3.55 3.55 0 0 1 1.936-.546c1.078 0 1.935.335 2.572 1.008.636.673.954 1.58.954 2.718V16h-1.818V9c0-.8-.203-1.394-.61-1.782-.405-.388-.917-.582-1.535-.582-.703 0-1.31.18-1.818.537a8.386 8.386 0 0 0-1.49 1.372V16h-1.82zM69.4 13.6c-.327.91-.845 1.567-1.555 1.973-.71.406-1.712.61-3.01.61-1.44 0-2.562-.35-3.362-1.047-.8-.697-1.2-1.73-1.2-3.1V9.11c0-1.407.42-2.458 1.263-3.155.843-.697 1.943-1.046 3.3-1.046 1.37 0 2.467.354 3.29 1.063.826.71 1.238 1.797 1.238 3.263v1.673H62.09v1.145c0 .91.228 1.566.683 1.972.454.406 1.136.61 2.045.61.873 0 1.51-.122 1.91-.364.4-.243.702-.637.908-1.182l1.764.51zm-7.31-4.49v.435h5.455v-.272c0-.982-.227-1.697-.68-2.146-.456-.448-1.138-.672-2.047-.672-.91 0-1.59.215-2.045.645-.455.43-.682 1.1-.682 2.01zM707.364 16.182c-1.358 0-2.455-.337-3.29-1.01-.838-.672-1.256-1.71-1.256-3.117V9.11c0-1.42.42-2.474 1.264-3.165.842-.69 1.942-1.036 3.3-1.036 1.357 0 2.45.345 3.282 1.035.83.69 1.245 1.746 1.245 3.164v2.945c0 1.406-.42 2.445-1.255 3.118-.837.672-1.934 1.01-3.29 1.01zm0-1.637c.91 0 1.59-.193 2.045-.58.454-.39.68-1.026.68-1.91V9.11c0-.874-.226-1.52-.68-1.937-.455-.418-1.137-.628-2.046-.628-.91 0-1.59.21-2.046.628-.454.418-.682 1.063-.682 1.936v2.945c0 .884.228 1.52.682 1.91.455.387 1.137.58 2.046.58zm7.18 1.455V5.09h1.82v1.82h.545a3.228 3.228 0 0 1 1.263-1.455 3.55 3.55 0 0 1 1.936-.546c1.078 0 1.935.335 2.572 1.008.636.673.954 1.58.954 2.718V16h-1.818V9c0-.8-.203-1.394-.61-1.782-.405-.388-.917-.582-1.535-.582-.703 0-1.31.18-1.818.537a8.386 8.386 0 0 0-1.49 1.372V16h-1.82zm16.565.09c-1.225 0-2.186-.41-2.883-1.235-.697-.825-1.045-1.8-1.045-2.928V1.455H729v10.49c0 .643.18 1.213.536 1.71.358.497.9.745 1.628.745.18 0 .394-.03.636-.09a3.54 3.54 0 0 0 .636-.22l.364 1.583c-.23.12-.49.22-.782.3-.29.08-.594.118-.91.118zm5.072-.09V5.09H738V16h-1.818zm.91-12.91c-.462 0-.834-.072-1.12-.217-.284-.146-.427-.418-.427-.818v-.128c0-.412.143-.694.428-.845.285-.152.657-.227 1.118-.227.462 0 .834.075 1.12.227.284.15.426.433.426.845v.128c0 .4-.145.672-.436.818-.29.145-.66.218-1.11.218zM742.454 16V5.09h1.818v1.82h.545a3.228 3.228 0 0 1 1.264-1.455 3.55 3.55 0 0 1 1.936-.546c1.08 0 1.937.335 2.573 1.008.637.673.955 1.58.955 2.718V16h-1.818V9c0-.8-.203-1.394-.61-1.782-.405-.388-.917-.582-1.535-.582-.703 0-1.31.18-1.818.537a8.386 8.386 0 0 0-1.49 1.372V16h-1.82zm20.854-2.4c-.328.91-.846 1.567-1.555 1.973-.71.406-1.713.61-3.01.61-1.442 0-2.563-.35-3.363-1.047-.8-.697-1.2-1.73-1.2-3.1V9.11c0-1.407.42-2.458 1.263-3.155.843-.697 1.943-1.046 3.3-1.046 1.37 0 2.467.354 3.29 1.063.826.71 1.238 1.797 1.238 3.263v1.673H756v1.145c0 .91.227 1.566.682 1.972.454.406 1.136.61 2.045.61.873 0 1.51-.122 1.91-.364.4-.243.702-.637.908-1.182l1.764.51zM756 9.11v.435h5.455v-.272c0-.982-.228-1.697-.682-2.146-.455-.448-1.137-.672-2.046-.672-.91 0-1.59.215-2.045.645-.455.43-.682 1.1-.682 2.01z" fill="#FFF"/><path fill="#359E91" d="M39 31h692v1H39z"/><path d="M17.353 64.127c-.408 0-.89-.065-1.445-.197a5.516 5.516 0 0 1-1.635-.694v-9.418h1.272v3.818h.382c.22-.44.522-.784.904-1.03a2.39 2.39 0 0 1 1.325-.37c.746 0 1.347.253 1.8.758.454.504.68 1.22.68 2.144v2.075c0 1.043-.35 1.79-1.05 2.24-.7.45-1.443.674-2.232.674zm-.013-1.12c.535 0 1.005-.127 1.413-.382.407-.254.61-.733.61-1.438V59.15c0-.66-.137-1.11-.413-1.348-.276-.238-.647-.357-1.114-.357-.432 0-.83.11-1.196.33-.365.222-.73.557-1.095 1.007v3.742c.255.152.527.27.815.356.288.085.615.127.98.127zm9.024 1.12c-.95 0-1.72-.235-2.304-.706-.585-.47-.878-1.198-.878-2.182v-2.062c0-.992.295-1.73.884-2.214.59-.484 1.36-.726 2.31-.726s1.716.242 2.298.726c.58.483.87 1.222.87 2.214v2.062c0 .984-.29 1.712-.877 2.183-.585.472-1.353.707-2.303.707zm0-1.145c.636 0 1.113-.136 1.43-.407.32-.272.48-.717.48-1.337v-2.062c0-.61-.16-1.062-.48-1.355-.317-.292-.794-.438-1.43-.438-.637 0-1.114.146-1.432.44-.318.292-.477.743-.477 1.354v2.062c0 .62.16 1.065.477 1.337.318.27.795.407 1.432.407zm8.91 1.145c-.952 0-1.72-.235-2.305-.706-.586-.47-.88-1.198-.88-2.182v-2.062c0-.992.296-1.73.885-2.214.59-.484 1.36-.726 2.31-.726s1.717.242 2.298.726c.58.483.872 1.222.872 2.214v2.062c0 .984-.293 1.712-.88 2.183-.584.472-1.352.707-2.302.707zm0-1.145c.635 0 1.112-.136 1.43-.407.32-.272.478-.717.478-1.337v-2.062c0-.61-.16-1.062-.477-1.355-.32-.292-.796-.438-1.432-.438-.637 0-1.114.146-1.432.44-.317.292-.476.743-.476 1.354v2.062c0 .62.16 1.065.477 1.337.32.27.796.407 1.433.407zm7-2.457V64H41V53.818h1.273v5.638h.65l2.442-3.092h1.553l-2.99 3.55L46.88 64h-1.45l-2.508-3.475h-.65zm9.646 3.602a6.156 6.156 0 0 1-1.87-.286 5.265 5.265 0 0 1-1.668-.884l.573-1.005c.415.34.88.597 1.393.77.514.175 1.037.262 1.572.262.44 0 .863-.068 1.266-.204.403-.136.605-.424.605-.865 0-.365-.165-.624-.495-.777-.33-.152-.938-.284-1.82-.394-.934-.11-1.64-.33-2.12-.656-.48-.326-.72-.842-.72-1.546 0-.764.29-1.338.867-1.725.577-.386 1.247-.58 2.01-.58a5.01 5.01 0 0 1 1.738.307 5.62 5.62 0 0 1 1.546.865l-.572 1.006a5.078 5.078 0 0 0-1.273-.75 3.776 3.776 0 0 0-1.437-.28c-.408 0-.78.075-1.114.228-.336.154-.504.434-.504.84 0 .35.155.6.465.758.31.157.907.29 1.79.4.966.11 1.692.347 2.175.707.484.36.726.864.726 1.51 0 .796-.322 1.38-.966 1.75-.645.368-1.366.552-2.164.552zM182.662 62.32c-.23.636-.592 1.097-1.088 1.38-.497.285-1.2.427-2.107.427-1.01 0-1.794-.244-2.354-.732-.56-.487-.84-1.21-.84-2.17v-2.05c0-.983.295-1.72.884-2.207.59-.488 1.36-.732 2.31-.732.96 0 1.727.25 2.304.745.578.497.866 1.26.866 2.285v1.17h-5.09v.803c0 .637.16 1.097.477 1.38.318.285.795.427 1.432.427.61 0 1.056-.084 1.336-.254.28-.17.493-.445.637-.826l1.235.356zm-5.117-3.144v.306h3.82v-.19c0-.688-.16-1.19-.48-1.503-.317-.315-.794-.472-1.43-.472-.637 0-1.114.15-1.432.452-.318.3-.478.77-.478 1.406zm10.717 4.95c-.407 0-.89-.064-1.445-.196a5.516 5.516 0 0 1-1.635-.694v-9.418h1.273v3.818h.38c.222-.44.523-.784.905-1.03a2.39 2.39 0 0 1 1.324-.37c.746 0 1.347.253 1.8.758.454.504.68 1.22.68 2.144v2.075c0 1.043-.35 1.79-1.05 2.24-.7.45-1.443.674-2.232.674zm-.013-1.12c.534 0 1.005-.126 1.412-.38.407-.255.61-.734.61-1.44v-2.035c0-.66-.137-1.11-.413-1.348-.277-.238-.648-.357-1.115-.357-.432 0-.83.11-1.196.33-.366.222-.73.557-1.095 1.007v3.742c.254.152.526.27.814.356.288.085.614.127.98.127zm9.023 1.12c-.95 0-1.718-.234-2.304-.705-.586-.47-.88-1.198-.88-2.182v-2.062c0-.992.296-1.73.885-2.214.59-.484 1.36-.726 2.31-.726s1.717.242 2.298.726c.58.483.872 1.222.872 2.214v2.062c0 .984-.293 1.712-.88 2.183-.584.472-1.352.707-2.302.707zm0-1.144c.636 0 1.113-.136 1.432-.407.318-.272.477-.717.477-1.337v-2.062c0-.61-.16-1.062-.477-1.355-.32-.292-.796-.438-1.432-.438-.637 0-1.114.146-1.432.44-.317.292-.476.743-.476 1.354v2.062c0 .62.16 1.065.477 1.337.32.27.796.407 1.433.407zm8.91 1.145c-.95 0-1.72-.235-2.305-.706-.585-.47-.878-1.198-.878-2.182v-2.062c0-.992.295-1.73.885-2.214.59-.484 1.36-.726 2.31-.726s1.716.242 2.297.726c.58.483.872 1.222.872 2.214v2.062c0 .984-.293 1.712-.88 2.183-.584.472-1.352.707-2.302.707zm0-1.145c.635 0 1.112-.136 1.43-.407.32-.272.478-.717.478-1.337v-2.062c0-.61-.158-1.062-.476-1.355-.32-.292-.796-.438-1.432-.438-.637 0-1.114.146-1.432.44-.318.292-.477.743-.477 1.354v2.062c0 .62.16 1.065.477 1.337.318.27.795.407 1.432.407zm7-2.457V64h-1.274V53.818h1.272v5.638h.65l2.443-3.092h1.552l-2.99 3.55L217.788 64h-1.452l-2.507-3.475h-.648zm9.646 3.602a6.156 6.156 0 0 1-1.872-.286 5.265 5.265 0 0 1-1.667-.884l.574-1.005c.415.34.88.597 1.393.77.514.175 1.038.262 1.572.262.44 0 .862-.068 1.265-.204.403-.136.605-.424.605-.865 0-.365-.165-.624-.496-.777-.33-.152-.938-.284-1.82-.394-.934-.11-1.64-.33-2.12-.656-.48-.326-.72-.842-.72-1.546 0-.764.29-1.338.867-1.725.578-.386 1.248-.58 2.012-.58a5.01 5.01 0 0 1 1.737.307 5.62 5.62 0 0 1 1.545.865l-.572 1.006a5.078 5.078 0 0 0-1.273-.75 3.776 3.776 0 0 0-1.438-.28c-.407 0-.78.075-1.114.228-.335.154-.503.434-.503.84 0 .35.155.6.465.758.31.157.906.29 1.788.4.967.11 1.693.347 2.177.707.483.36.725.864.725 1.51 0 .796-.322 1.38-.967 1.75-.645.368-1.366.552-2.164.552zM348.545 64v-6.49h-1.527v-1.146h1.527v-.51c0-.687.208-1.22.624-1.597.415-.377.932-.566 1.552-.566.246 0 .547.035.903.103.357.068.64.144.853.23l-.254 1.068a4.67 4.67 0 0 0-.592-.177 2.852 2.852 0 0 0-.656-.077c-.356 0-.638.08-.846.236-.208.157-.312.413-.312.77v.522h2.546v1.145h-2.546V64h-1.273zm9.14-.967c.465 0 .898-.08 1.297-.236.4-.157.738-.43 1.018-.82v-1.222h-2.673c-.365 0-.657.082-.878.248-.222.165-.332.456-.332.872 0 .364.125.65.376.852.25.204.647.306 1.19.306zm-.167 1.094c-.68 0-1.283-.172-1.813-.515-.53-.344-.796-.897-.796-1.66 0-.67.203-1.197.61-1.58.407-.38.955-.572 1.642-.572H360v-1.095c0-.407-.146-.74-.44-1-.292-.257-.735-.387-1.33-.387-.593 0-1.047.094-1.36.28-.315.187-.552.564-.714 1.133l-1.08-.305c.134-.695.45-1.234.947-1.616.496-.383 1.224-.574 2.182-.574.874 0 1.604.19 2.19.567.585.377.878.96.878 1.75v3.41c0 .46.127.745.382.86.254.114.636.13 1.145.044v1.17a3.26 3.26 0 0 1-1.483-.107c-.462-.148-.715-.55-.757-1.203h-.255c-.237.4-.608.732-1.113 1a3.52 3.52 0 0 1-1.674.4zm10.933 0c-1.153 0-2.002-.252-2.545-.757-.543-.505-.814-1.215-.814-2.132v-2.062c0-.984.306-1.72.917-2.208.61-.488 1.42-.732 2.43-.732 1.002 0 1.762.215 2.28.643.517.428.81 1.087.878 1.978l-1.248.077c-.042-.62-.214-1.033-.515-1.24-.3-.21-.77-.313-1.407-.313-.66 0-1.17.136-1.527.407-.356.27-.534.733-.534 1.386v2.062c0 .62.178 1.065.534 1.337.357.27.874.407 1.553.407.63 0 1.093-.083 1.395-.248.3-.166.468-.516.502-1.05l1.248.076c-.06.815-.35 1.413-.872 1.795-.522.38-1.28.572-2.272.572zm11.94-1.807c-.23.636-.593 1.097-1.09 1.38-.495.285-1.198.427-2.105.427-1.01 0-1.795-.244-2.355-.732-.56-.487-.84-1.21-.84-2.17v-2.05c0-.983.295-1.72.885-2.207.59-.488 1.36-.732 2.31-.732.958 0 1.726.25 2.303.745.577.497.866 1.26.866 2.285v1.17h-5.09v.803c0 .637.158 1.097.476 1.38.318.285.795.427 1.432.427.61 0 1.056-.084 1.336-.254.28-.17.492-.445.637-.826l1.234.356zm-5.117-3.144v.306h3.818v-.19c0-.688-.158-1.19-.476-1.503-.32-.315-.796-.472-1.432-.472-.637 0-1.114.15-1.432.452-.318.3-.477.77-.477 1.406zm10.716 4.95c-.408 0-.89-.064-1.445-.196a5.516 5.516 0 0 1-1.636-.694v-9.418h1.272v3.818h.382c.22-.44.52-.784.903-1.03a2.39 2.39 0 0 1 1.324-.37c.748 0 1.348.253 1.802.758.454.504.68 1.22.68 2.144v2.075c0 1.043-.35 1.79-1.05 2.24-.7.45-1.444.674-2.233.674zm-.014-1.12c.535 0 1.006-.126 1.413-.38.406-.255.61-.734.61-1.44v-2.035c0-.66-.138-1.11-.414-1.348-.275-.238-.647-.357-1.113-.357-.433 0-.832.11-1.197.33-.364.222-.73.557-1.094 1.007v3.742c.254.152.526.27.814.356.29.085.616.127.98.127zm9.024 1.12c-.95 0-1.718-.234-2.304-.705-.585-.47-.878-1.198-.878-2.182v-2.062c0-.992.295-1.73.885-2.214.59-.484 1.36-.726 2.31-.726s1.716.242 2.297.726c.58.483.872 1.222.872 2.214v2.062c0 .984-.293 1.712-.878 2.183-.586.472-1.354.707-2.304.707zm0-1.144c.636 0 1.114-.136 1.432-.407.318-.272.477-.717.477-1.337v-2.062c0-.61-.16-1.062-.478-1.355-.318-.292-.796-.438-1.432-.438-.636 0-1.114.146-1.432.44-.318.292-.477.743-.477 1.354v2.062c0 .62.16 1.065.478 1.337.318.27.796.407 1.432.407zm8.91 1.145c-.95 0-1.72-.235-2.305-.706-.585-.47-.878-1.198-.878-2.182v-2.062c0-.992.295-1.73.885-2.214.59-.484 1.36-.726 2.31-.726s1.716.242 2.297.726c.58.483.87 1.222.87 2.214v2.062c0 .984-.292 1.712-.877 2.183-.586.472-1.354.707-2.304.707zm0-1.145c.635 0 1.113-.136 1.43-.407.32-.272.478-.717.478-1.337v-2.062c0-.61-.16-1.062-.477-1.355-.317-.292-.795-.438-1.43-.438-.637 0-1.115.146-1.433.44-.318.292-.477.743-.477 1.354v2.062c0 .62.16 1.065.477 1.337.318.27.796.407 1.432.407zm7-2.457V64h-1.274V53.818h1.273v5.638h.648l2.444-3.092h1.553l-2.99 3.55 2.95 4.086h-1.45l-2.507-3.475h-.65zM534.545 58.935h3.182c.688 0 1.178-.128 1.47-.382.293-.255.44-.675.44-1.26v-.79c0-.55-.147-.945-.44-1.183-.292-.238-.782-.356-1.47-.356h-3.182v3.97zm0 5.065h-1.272V53.818h4.467c1.06 0 1.854.223 2.38.668.526.446.79 1.118.79 2.018v.79c0 .805-.207 1.433-.618 1.882-.412.45-1.037.73-1.877.84l2.61 3.984h-1.452l-2.584-3.945h-2.445V64zm15.3-1.68c-.23.636-.593 1.097-1.09 1.38-.496.285-1.198.427-2.106.427-1.01 0-1.795-.244-2.355-.732-.56-.487-.84-1.21-.84-2.17v-2.05c0-.983.294-1.72.884-2.207.59-.488 1.36-.732 2.31-.732.958 0 1.726.25 2.303.745.577.497.865 1.26.865 2.285v1.17h-5.09v.803c0 .637.158 1.097.477 1.38.318.285.795.427 1.43.427.612 0 1.058-.084 1.338-.254.28-.17.492-.445.636-.826l1.234.356zm-5.118-3.144v.306h3.818v-.19c0-.688-.16-1.19-.477-1.503-.318-.315-.795-.472-1.432-.472-.636 0-1.113.15-1.43.452-.32.3-.48.77-.48 1.406zm10.41 3.857c.468 0 .9-.08 1.3-.236.398-.157.738-.43 1.018-.82v-1.222h-2.673c-.365 0-.658.082-.878.248-.22.165-.33.456-.33.872 0 .364.124.65.374.852.25.204.647.306 1.19.306zm-.164 1.094c-.68 0-1.284-.172-1.814-.515-.53-.344-.796-.897-.796-1.66 0-.67.203-1.197.61-1.58.408-.38.955-.572 1.642-.572h2.84v-1.095c0-.407-.148-.74-.44-1-.293-.257-.737-.387-1.33-.387-.594 0-1.048.094-1.362.28-.314.187-.552.564-.713 1.133l-1.08-.305c.135-.695.45-1.234.947-1.616.497-.383 1.224-.574 2.183-.574.874 0 1.604.19 2.19.567.585.377.877.96.877 1.75v3.41c0 .46.128.745.382.86.254.114.635.13 1.145.044v1.17a3.26 3.26 0 0 1-1.483-.107c-.463-.148-.715-.55-.757-1.203h-.255c-.238.4-.61.732-1.114 1a3.52 3.52 0 0 1-1.673.4zm10.372-1.21c.433 0 .832-.11 1.197-.33.365-.22.73-.555 1.094-1.005V57.84a3.373 3.373 0 0 0-.865-.363 3.626 3.626 0 0 0-.928-.12c-.662 0-1.165.154-1.508.464-.344.31-.516.762-.516 1.356v2.05c0 .66.138 1.11.414 1.342.276.234.647.35 1.113.35zm1.91-.19c-.22.44-.522.785-.904 1.03a2.39 2.39 0 0 1-1.323.37c-.746 0-1.347-.252-1.8-.757-.455-.505-.682-1.22-.682-2.145V59.15c0-.89.295-1.598.885-2.125.59-.526 1.39-.79 2.4-.79.338 0 .66.033.966.097.306.063.586.15.84.26V53.82h1.273V64h-1.274v-1.273h-.38zm5.472-4.072V64h-1.272v-7.636h1.272v1.272h.382c.135-.424.392-.763.77-1.018.377-.254.82-.382 1.33-.382.45 0 .833.126 1.15.376.32.25.546.592.682 1.024h.458c.136-.424.4-.763.79-1.018.39-.254.852-.382 1.386-.382.594 0 1.07.22 1.426.656.356.437.534 1.024.534 1.763V64h-1.272v-5.142c0-.51-.098-.872-.293-1.088-.194-.216-.474-.325-.84-.325-.364 0-.727.11-1.087.33-.36.222-.68.515-.96.88V64h-1.274v-5.142c0-.51-.098-.872-.294-1.088-.195-.216-.475-.325-.84-.325-.364 0-.727.11-1.088.33-.36.222-.68.515-.96.88zM585.455 64v-7.636h1.272V64h-1.272zm.636-9.036c-.322 0-.582-.05-.782-.153-.2-.1-.3-.292-.3-.572v-.09c0-.287.1-.485.3-.59.2-.107.46-.16.783-.16s.584.053.784.16c.2.105.3.303.3.59v.09c0 .28-.103.47-.307.573-.203.103-.462.154-.776.154zm7.84 9.1c-.856 0-1.528-.29-2.016-.866-.488-.577-.732-1.26-.732-2.05v-7.33h1.273v7.344c0 .45.125.848.375 1.196s.63.522 1.14.522c.126 0 .275-.02.445-.064.17-.042.318-.093.445-.152l.255 1.107c-.162.086-.344.156-.548.21a2.424 2.424 0 0 1-.636.084zm6.365 0c-.857 0-1.53-.29-2.018-.866-.488-.577-.732-1.26-.732-2.05v-7.33h1.273v7.344c0 .45.125.848.376 1.196.25.348.63.522 1.14.522.126 0 .274-.02.444-.064.17-.042.318-.093.446-.152l.254 1.107c-.16.086-.343.156-.547.21a2.424 2.424 0 0 1-.635.084zM705.42 64l-1.705-5.167-1.63 5.167h-1.45l-2.14-7.636h1.287l1.603 6.4 1.566-5.128h1.503l1.642 5.002 1.578-6.274h1.285L706.82 64h-1.4zm11.696-1.68c-.23.636-.59 1.097-1.088 1.38-.496.285-1.198.427-2.106.427-1.01 0-1.795-.244-2.355-.732-.56-.487-.84-1.21-.84-2.17v-2.05c0-.983.295-1.72.885-2.207.59-.488 1.36-.732 2.31-.732.96 0 1.726.25 2.303.745.577.497.866 1.26.866 2.285v1.17H712v.803c0 .637.16 1.097.477 1.38.318.285.796.427 1.432.427.61 0 1.055-.084 1.335-.254.28-.17.493-.445.637-.826l1.234.356zM712 59.176v.306h3.818v-.19c0-.688-.16-1.19-.477-1.503-.317-.315-.795-.472-1.43-.472-.637 0-1.115.15-1.433.452-.318.3-.477.77-.477 1.406zm10.716 4.95c-.407 0-.888-.064-1.444-.196a5.516 5.516 0 0 1-1.636-.694v-9.418h1.273v3.818h.38c.222-.44.523-.784.905-1.03a2.39 2.39 0 0 1 1.323-.37c.747 0 1.347.253 1.8.758.455.504.682 1.22.682 2.144v2.075c0 1.043-.35 1.79-1.05 2.24-.7.45-1.445.674-2.234.674zm-.012-1.12c.534 0 1.005-.126 1.412-.38.408-.255.61-.734.61-1.44v-2.035c0-.66-.137-1.11-.412-1.348-.276-.238-.647-.357-1.114-.357-.433 0-.832.11-1.196.33-.365.222-.73.557-1.095 1.007v3.742c.254.152.525.27.814.356.288.085.615.127.98.127zm9.125 1.12a6.156 6.156 0 0 1-1.872-.285 5.265 5.265 0 0 1-1.667-.884l.574-1.005c.415.34.88.597 1.393.77.514.175 1.038.262 1.572.262.44 0 .862-.068 1.265-.204.403-.136.605-.424.605-.865 0-.365-.165-.624-.496-.777-.33-.152-.938-.284-1.82-.394-.934-.11-1.64-.33-2.12-.656-.48-.326-.72-.842-.72-1.546 0-.764.29-1.338.867-1.725.578-.386 1.248-.58 2.012-.58a5.01 5.01 0 0 1 1.737.307 5.62 5.62 0 0 1 1.545.865l-.572 1.006a5.078 5.078 0 0 0-1.273-.75 3.776 3.776 0 0 0-1.438-.28c-.407 0-.78.075-1.114.228-.335.154-.503.434-.503.84 0 .35.155.6.465.758.31.157.906.29 1.788.4.967.11 1.693.347 2.177.707.483.36.725.864.725 1.51 0 .796-.322 1.38-.967 1.75-.645.368-1.366.552-2.164.552zm6.897-.126v-7.636H740V64h-1.273zm.637-9.036c-.323 0-.584-.05-.783-.153-.198-.1-.298-.292-.298-.572v-.09c0-.287.1-.485.3-.59.198-.107.46-.16.782-.16s.583.053.782.16c.2.105.3.303.3.59v.09c0 .28-.102.47-.306.573-.204.103-.462.154-.776.154zm8.26 9.15c-.84 0-1.472-.22-1.897-.66-.424-.442-.636-1.096-.636-1.96v-3.985h-1.526v-1.146h1.527v-2.546h1.274v2.546h2.8v1.145h-2.8v3.995c0 .5.123.868.37 1.1.245.235.567.35.966.35.187 0 .395-.02.624-.062a4.54 4.54 0 0 0 .7-.19l.254 1.12c-.288.1-.57.175-.846.222a4.84 4.84 0 0 1-.808.07zm10.22-1.794c-.23.636-.592 1.097-1.09 1.38-.495.285-1.197.427-2.105.427-1.01 0-1.795-.244-2.355-.732-.56-.487-.84-1.21-.84-2.17v-2.05c0-.983.294-1.72.884-2.207.59-.488 1.36-.732 2.31-.732.958 0 1.726.25 2.303.745.577.497.865 1.26.865 2.285v1.17h-5.09v.803c0 .637.158 1.097.477 1.38.318.285.795.427 1.43.427.612 0 1.058-.084 1.338-.254.28-.17.492-.445.636-.826l1.234.356zm-5.117-3.144v.306h3.818v-.19c0-.688-.16-1.19-.477-1.503-.318-.315-.795-.472-1.432-.472-.636 0-1.113.15-1.43.452-.32.3-.48.77-.48 1.406zm10.92 4.95a6.156 6.156 0 0 1-1.87-.285 5.265 5.265 0 0 1-1.668-.884l.572-1.005c.416.34.88.597 1.393.77.514.175 1.038.262 1.572.262.44 0 .864-.068 1.267-.204.403-.136.604-.424.604-.865 0-.365-.165-.624-.496-.777-.33-.152-.938-.284-1.82-.394-.934-.11-1.64-.33-2.12-.656-.48-.326-.718-.842-.718-1.546 0-.764.288-1.338.865-1.725.576-.386 1.246-.58 2.01-.58a5.01 5.01 0 0 1 1.737.307 5.62 5.62 0 0 1 1.547.865l-.573 1.006a5.078 5.078 0 0 0-1.272-.75 3.776 3.776 0 0 0-1.438-.28c-.407 0-.778.075-1.114.228-.335.154-.502.434-.502.84 0 .35.154.6.464.758.31.157.906.29 1.788.4.968.11 1.693.347 2.177.707.483.36.725.864.725 1.51 0 .796-.322 1.38-.967 1.75-.644.368-1.365.552-2.163.552z" fill="#909090"/><circle fill="#FFF" cx="198.5" cy="32.5" r="5.5"/><circle fill="#FFF" cx="379.5" cy="31.5" r="5.5"/><circle fill="#FFF" cx="565.5" cy="31.5" r="5.5"/></g></svg>