<svg width="843" height="580" viewBox="0 0 843 580" xmlns="http://www.w3.org/2000/svg"><title>Group</title><g fill="#359E91" fill-rule="evenodd"><path d="M25.173 97.182c-8.667 0-14.97-2.502-18.91-7.505C2.325 84.674.356 76.657.356 65.627V1.455h5.318v64.172c0 9.691 1.477 16.565 4.432 20.623 2.954 4.058 7.977 6.086 15.068 6.086 7.09 0 12.113-2.028 15.068-6.086 2.954-4.058 4.432-10.932 4.432-20.623V1.455h5.318v64.172c0 11.03-1.97 19.047-5.91 24.05-3.939 5.003-10.242 7.505-18.908 7.505zM70.7 96V25.09h5.318v9.455h.946c1.654-3.387 4.077-6.007 7.268-7.859 3.19-1.851 6.48-2.777 9.868-2.777 5.2 0 9.395 1.852 12.586 5.555 3.191 3.703 4.787 8.706 4.787 15.009V96h-5.318V45.536c0-5.436-1.123-9.572-3.369-12.409-2.245-2.836-5.377-4.254-9.395-4.254-3.31 0-6.46.827-9.455 2.482-2.994 1.654-5.633 4.333-7.918 8.036V96H70.7zm66.345 0V29.936H126.41v-4.845h10.636v-6.5c0-5.673 1.32-10.046 3.96-13.118 2.639-3.073 5.968-4.61 9.986-4.61 1.497 0 3.112.257 4.845.769 1.734.512 3.23 1.123 4.491 1.832l-1.182 4.49a23.178 23.178 0 0 0-3.781-1.595 13.355 13.355 0 0 0-4.137-.65c-2.679 0-4.825 1.005-6.44 3.014-1.616 2.009-2.423 5.259-2.423 9.75v6.618h17.727v4.845h-17.727V96h-5.319zm53.2 1.182c-6.539 0-11.581-2.127-15.127-6.382-3.545-4.255-5.318-10.282-5.318-18.082V48.845c0-7.957 1.792-14.103 5.377-18.436s8.608-6.5 15.068-6.5c6.461 0 11.464 2.167 15.01 6.5 3.545 4.333 5.318 10.479 5.318 18.436v23.873c0 7.8-1.773 13.827-5.318 18.082-3.546 4.255-8.549 6.382-15.01 6.382zm0-4.846c5.043 0 8.805-1.615 11.287-4.845 2.482-3.23 3.723-8.155 3.723-14.773V48.845c0-6.854-1.241-11.916-3.723-15.186-2.482-3.27-6.244-4.904-11.287-4.904-5.12 0-8.922 1.634-11.404 4.904-2.482 3.27-3.723 8.332-3.723 15.186v23.873c0 6.618 1.241 11.543 3.723 14.773 2.482 3.23 6.283 4.845 11.404 4.845zM230.282 96V25.09h5.318v9.455h.945c1.734-3.86 3.9-6.598 6.5-8.213 2.6-1.615 5.319-2.423 8.155-2.423 4.57 0 8.194 1.536 10.873 4.61 2.679 3.072 4.018 7.445 4.018 13.117v10.046h-5.318v-9.927c0-3.94-.828-7.091-2.482-9.455-1.655-2.364-4.215-3.545-7.682-3.545-2.836 0-5.554.866-8.154 2.6-2.6 1.733-4.885 4.609-6.855 8.627V96h-5.318zm72.318 1.064c-4.964 0-8.844-1.635-11.64-4.905-2.798-3.27-4.196-7.74-4.196-13.414V29.936h-10.637v-4.845h10.637V1.455h5.318V25.09h19.5v4.845h-19.5v47.628c0 4.885.926 8.528 2.777 10.931 1.852 2.403 4.629 3.605 8.332 3.605 1.103 0 2.364-.217 3.782-.65a22.013 22.013 0 0 0 4.254-1.832l1.182 4.727a20.812 20.812 0 0 1-4.727 2.01c-1.655.472-3.349.709-5.082.709zm43.055.118c-5.122 0-9.258-1.852-12.41-5.555-3.151-3.703-4.727-8.706-4.727-15.009V25.091h5.318v50.464c0 5.436 1.143 9.572 3.428 12.409 2.284 2.836 5.436 4.254 9.454 4.254 3.31 0 6.441-.827 9.396-2.482 2.954-1.654 5.574-4.333 7.859-8.036V25.09h5.318V96h-5.318v-9.455h-.946c-1.654 3.388-4.097 6.008-7.327 7.86-3.23 1.851-6.579 2.777-10.045 2.777zM395 96V25.09h5.318v9.455h.946c1.654-3.387 4.077-6.007 7.268-7.859 3.19-1.851 6.48-2.777 9.868-2.777 5.2 0 9.395 1.852 12.586 5.555 3.191 3.703 4.787 8.706 4.787 15.009V96h-5.318V45.536c0-5.436-1.123-9.572-3.369-12.409-2.245-2.836-5.377-4.254-9.395-4.254-3.31 0-6.46.827-9.455 2.482-2.994 1.654-5.633 4.333-7.918 8.036V96H395zm78.273-3.545c3.388 0 6.44-.926 9.159-2.778 2.718-1.851 5.22-4.51 7.504-7.977V63.264h-17.963c-3.86 0-6.914.945-9.16 2.836-2.245 1.89-3.368 5.279-3.368 10.164 0 5.2 1.123 9.198 3.369 11.995 2.245 2.797 5.731 4.196 10.459 4.196zm-.591 4.727c-5.594 0-10.026-1.812-13.296-5.437-3.27-3.624-4.904-8.548-4.904-14.772 0-5.673 1.497-10.144 4.49-13.414 2.995-3.27 7.21-4.904 12.646-4.904h18.318v-15.6c0-4.491-1.26-7.997-3.781-10.519-2.522-2.52-5.949-3.781-10.282-3.781-4.491 0-7.82.984-9.987 2.954-2.166 1.97-3.84 5.555-5.022 10.755l-4.728-1.419c1.34-6.145 3.526-10.537 6.56-13.177 3.033-2.64 7.386-3.959 13.059-3.959 5.909 0 10.636 1.714 14.181 5.141 3.546 3.427 5.319 8.095 5.319 14.005v35.218c0 5.751.768 9.533 2.304 11.345 1.536 1.812 4.314 2.246 8.332 1.3V96c-3.94.788-7.19.335-9.75-1.36-2.56-1.693-3.999-4.707-4.314-9.04H491c-1.576 3.467-4.058 6.264-7.445 8.39-3.388 2.128-7.013 3.192-10.873 3.192zm71.118-.118c-4.964 0-8.844-1.635-11.64-4.905-2.798-3.27-4.196-7.74-4.196-13.414V29.936h-10.637v-4.845h10.637V1.455h5.318V25.09h19.5v4.845h-19.5v47.628c0 4.885.926 8.528 2.777 10.931 1.852 2.403 4.629 3.605 8.332 3.605 1.103 0 2.364-.217 3.782-.65a22.013 22.013 0 0 0 4.254-1.832l1.182 4.727a20.812 20.812 0 0 1-4.727 2.01c-1.655.472-3.349.709-5.082.709zm66.336-15.01c-1.339 5.122-3.525 8.923-6.559 11.405-3.033 2.482-7.307 3.723-12.822 3.723-6.619 0-11.78-2.088-15.482-6.264-3.703-4.176-5.555-10.282-5.555-18.318V48.845c0-8.272 1.871-14.496 5.614-18.672 3.742-4.176 8.686-6.264 14.832-6.264 6.145 0 11.07 2.127 14.772 6.382 3.703 4.254 5.555 10.715 5.555 19.382v11.463h-35.455v11.582c0 6.855 1.32 11.838 3.96 14.95 2.639 3.112 6.559 4.668 11.759 4.668 4.254 0 7.386-.847 9.395-2.54 2.01-1.694 3.644-4.787 4.905-9.278l5.081 1.537zm-35.1-33.209v7.446h30.137v-6.382c0-7.327-1.26-12.685-3.782-16.073-2.521-3.388-6.264-5.081-11.227-5.081-4.964 0-8.726 1.634-11.287 4.904-2.56 3.27-3.84 8.332-3.84 15.186zm71.61 47.746c-4.964 0-8.884-1.95-11.76-5.85-2.875-3.9-4.313-9.396-4.313-16.486v-72.8h5.436v72.918c0 5.436.946 9.67 2.836 12.704 1.891 3.034 4.57 4.55 8.037 4.55.945 0 2.009-.157 3.19-.472 1.183-.316 2.207-.71 3.073-1.182l1.182 4.49c-1.024.552-2.206 1.045-3.545 1.478-1.34.433-2.718.65-4.137.65zm22.663 23.754c-1.024 0-2.068-.078-3.132-.236a44.222 44.222 0 0 1-3.604-.709l.709-4.727c1.26.315 2.403.551 3.427.709 1.024.157 2.206.236 3.546.236 2.915 0 5.239-.906 6.972-2.718 1.734-1.812 3.23-5.279 4.491-10.4l1.655-6.5h-1.418l-19.737-70.91h5.673l17.373 64.41 17.018-64.41h5.318l-21.39 78.592c-1.655 6.067-3.862 10.36-6.62 12.882-2.757 2.52-6.184 3.781-10.28 3.781z"/><path d="M28.245 250.182c-9.375 0-16.289-2.6-20.74-7.8-4.452-5.2-6.678-13.394-6.678-24.582v-63.345h5.555V217.8c0 9.849 1.674 16.88 5.023 21.095 3.348 4.216 8.962 6.323 16.84 6.323 7.88 0 13.513-2.107 16.9-6.323 3.388-4.215 5.082-11.246 5.082-21.095v-63.345h5.437V217.8c0 11.188-2.226 19.382-6.678 24.582-4.451 5.2-11.365 7.8-20.74 7.8zM77.318 249v-70.91h5.555v10.283h.945c1.891-3.625 4.629-6.441 8.214-8.45 3.585-2.01 7.347-3.014 11.286-3.014 5.752 0 10.36 1.93 13.827 5.791 3.467 3.86 5.2 9.06 5.2 15.6V249h-5.554v-49.636c0-5.673-1.241-9.987-3.723-12.941-2.482-2.955-5.968-4.432-10.459-4.432-3.703 0-7.248.926-10.636 2.777-3.388 1.852-6.421 4.708-9.1 8.568V249h-5.555zm71.61 0v-65.945H136.99v-4.964h11.936v-5.91c0-5.908 1.458-10.478 4.373-13.708 2.915-3.23 6.54-4.846 10.873-4.846 1.733 0 3.506.256 5.318.768 1.812.513 3.388 1.123 4.727 1.832l-1.182 4.728c-1.26-.71-2.639-1.261-4.136-1.655a18.035 18.035 0 0 0-4.61-.59c-2.993 0-5.396 1.043-7.208 3.13-1.812 2.089-2.718 5.496-2.718 10.224v6.027H174.1v4.964h-19.736V249h-5.437zm58.4 1.182c-7.25 0-12.823-2.187-16.723-6.56-3.9-4.372-5.85-10.616-5.85-18.731v-22.218c0-8.273 1.97-14.635 5.909-19.087 3.94-4.451 9.494-6.677 16.663-6.677 7.17 0 12.705 2.226 16.605 6.677 3.9 4.452 5.85 10.814 5.85 19.087v22.218c0 8.115-1.95 14.359-5.85 18.732-3.9 4.372-9.435 6.559-16.605 6.559zm0-4.964c5.672 0 9.907-1.654 12.704-4.963 2.797-3.31 4.195-8.43 4.195-15.364v-22.218c0-7.091-1.398-12.33-4.195-15.718-2.797-3.388-7.032-5.082-12.705-5.082-5.751 0-10.025 1.694-12.822 5.082-2.797 3.387-4.196 8.627-4.196 15.718v22.218c0 6.933 1.399 12.054 4.196 15.364 2.797 3.309 7.07 4.963 12.822 4.963zM248.435 249v-70.91h5.555v10.283h.945c2.206-4.176 4.767-7.13 7.682-8.864 2.915-1.733 5.949-2.6 9.1-2.6 5.043 0 9.002 1.615 11.877 4.846 2.876 3.23 4.314 7.8 4.314 13.709v9.218h-5.436v-9.1c0-4.097-.887-7.406-2.66-9.927-1.772-2.522-4.589-3.782-8.45-3.782-3.308 0-6.42.945-9.336 2.836-2.915 1.891-5.594 4.964-8.036 9.218V249h-5.555zm81.055 1.064c-5.436 0-9.691-1.773-12.764-5.319-3.072-3.545-4.609-8.43-4.609-14.654v-47.036h-11.936v-4.964h11.936v-23.636h5.437v23.636H339.3v4.964h-21.745v45.854c0 5.436 1.043 9.474 3.131 12.114 2.088 2.64 5.26 3.959 9.514 3.959 1.26 0 2.66-.217 4.195-.65a23.398 23.398 0 0 0 4.55-1.832l1.3 4.845a27.252 27.252 0 0 1-5.318 2.01 21.46 21.46 0 0 1-5.436.709zm45.364.118c-5.673 0-10.243-1.97-13.71-5.91-3.466-3.939-5.2-9.257-5.2-15.954v-50.227h5.555V226.9c0 5.91 1.24 10.42 3.723 13.532 2.482 3.112 5.968 4.668 10.459 4.668 3.624 0 7.11-.906 10.459-2.718 3.348-1.812 6.44-4.688 9.277-8.627V178.09h5.555V249h-5.555v-10.282h-1.063c-2.128 3.703-4.905 6.54-8.332 8.51-3.428 1.969-7.15 2.954-11.168 2.954zM422.627 249v-70.91h5.555v10.283h.945c1.891-3.625 4.629-6.441 8.214-8.45 3.585-2.01 7.347-3.014 11.286-3.014 5.752 0 10.36 1.93 13.828 5.791 3.466 3.86 5.2 9.06 5.2 15.6V249H462.1v-49.636c0-5.673-1.24-9.987-3.723-12.941-2.482-2.955-5.968-4.432-10.459-4.432-3.703 0-7.248.926-10.636 2.777-3.388 1.852-6.421 4.708-9.1 8.568V249h-5.555zm83.01-3.782c4.018 0 7.583-.926 10.695-2.777 3.112-1.852 5.929-4.59 8.45-8.214v-17.845h-20.918c-4.019 0-7.269.945-9.75 2.836-2.482 1.891-3.723 5.279-3.723 10.164 0 5.121 1.24 9.04 3.723 11.759 2.481 2.718 6.322 4.077 11.522 4.077zm-.71 4.964c-6.066 0-10.853-1.812-14.359-5.437-3.506-3.624-5.259-8.587-5.259-14.89 0-5.673 1.635-10.125 4.905-13.355 3.27-3.23 7.74-4.845 13.413-4.845h21.155v-14.773c0-4.491-1.379-8.115-4.137-10.873-2.757-2.757-6.657-4.136-11.7-4.136-5.2 0-9.001.985-11.404 2.954-2.403 1.97-4.235 5.555-5.496 10.755l-4.963-1.418c1.576-6.146 4.038-10.558 7.386-13.237 3.349-2.679 8.096-4.018 14.241-4.018 6.618 0 11.877 1.773 15.777 5.318 3.9 3.546 5.85 8.43 5.85 14.655v34.036c0 5.91.847 9.79 2.541 11.641 1.694 1.852 4.787 2.305 9.278 1.36v5.2c-4.491.787-8.076.314-10.755-1.419-2.679-1.733-4.215-4.806-4.61-9.218h-.945c-1.97 3.624-4.845 6.48-8.627 8.568-3.782 2.088-7.879 3.132-12.29 3.132zm73.091-.118c-5.436 0-9.69-1.773-12.763-5.319-3.073-3.545-4.61-8.43-4.61-14.654v-47.036H548.71v-4.964h11.936v-23.636h5.437v23.636h21.745v4.964h-21.745v45.854c0 5.436 1.044 9.474 3.132 12.114 2.088 2.64 5.259 3.959 9.513 3.959 1.26 0 2.66-.217 4.196-.65a23.398 23.398 0 0 0 4.55-1.832l1.3 4.845a27.252 27.252 0 0 1-5.318 2.01 21.46 21.46 0 0 1-5.437.709zm68.01-15.01c-1.576 5.2-4.039 9.022-7.387 11.464-3.349 2.443-8.096 3.664-14.241 3.664-7.249 0-12.882-2.147-16.9-6.441-4.018-4.294-6.027-10.617-6.027-18.968v-22.1c0-8.588 2.088-15.029 6.263-19.323 4.176-4.294 9.612-6.44 16.31-6.44 6.854 0 12.31 2.185 16.368 6.558 4.057 4.373 6.086 11.05 6.086 20.032v10.636h-39.473v10.755c0 7.09 1.438 12.251 4.314 15.482 2.876 3.23 7.229 4.845 13.059 4.845 4.964 0 8.568-.866 10.814-2.6 2.245-1.733 4.077-4.806 5.495-9.218l5.318 1.655zm-39-32.381v6.618h33.917v-5.555c0-7.563-1.418-13.078-4.254-16.545-2.836-3.467-7.052-5.2-12.646-5.2-5.672 0-9.927 1.674-12.763 5.023-2.837 3.348-4.255 8.568-4.255 15.659zm78.463 46.918c-5.436 0-9.691-2.108-12.764-6.323-3.072-4.215-4.609-10.104-4.609-17.668v-71.145h5.555v71.263c0 5.91 1.063 10.499 3.19 13.768 2.128 3.27 5.122 4.905 8.982 4.905 1.025 0 2.187-.158 3.487-.473 1.3-.315 2.462-.748 3.486-1.3l1.182 4.727a34.682 34.682 0 0 1-3.96 1.537c-1.457.473-2.973.709-4.55.709zm20.845 23.754c-1.024 0-2.127-.078-3.309-.236a55.075 55.075 0 0 1-4.018-.709l.71-4.845c1.339.315 2.56.551 3.663.709 1.103.157 2.403.236 3.9.236 3.309 0 5.929-.965 7.859-2.895 1.93-1.93 3.723-5.575 5.377-10.932l1.655-5.673h-1.418l-22.1-70.91h5.79l19.619 64.646 19.145-64.645h5.436l-23.518 77.764c-1.89 6.381-4.333 10.892-7.327 13.531-2.994 2.64-6.815 3.96-11.464 3.96z" opacity=".8"/><path d="M31.318 403.182c-10.164 0-17.707-2.718-22.632-8.155C3.762 389.591 1.3 381.28 1.3 370.091v-62.636h5.673v62.636c0 10.006 1.89 17.156 5.672 21.45 3.782 4.294 10.006 6.44 18.673 6.44 8.667 0 14.871-2.146 18.614-6.44 3.742-4.294 5.613-11.444 5.613-21.45v-62.636h5.673v62.636c0 11.188-2.462 19.5-7.386 24.936-4.924 5.437-12.429 8.155-22.514 8.155zm47.5-1.182v-70.91h5.673v10.992h1.182c1.97-3.782 4.924-6.756 8.863-8.923 3.94-2.167 8.155-3.25 12.646-3.25 6.303 0 11.326 1.99 15.068 5.968 3.742 3.98 5.614 9.396 5.614 16.25V402h-5.673v-48.69c0-5.91-1.34-10.4-4.018-13.474-2.68-3.072-6.5-4.609-11.464-4.609-4.097 0-8.017 1.005-11.759 3.014-3.742 2.009-7.229 5.023-10.46 9.04V402h-5.672zm73.518 0v-65.71h-13v-5.2h13v-5.317c0-6.146 1.596-10.893 4.787-14.241 3.19-3.349 7.15-5.023 11.877-5.023 1.812 0 3.683.236 5.614.71 1.93.472 3.644 1.063 5.14 1.772l-1.181 4.845a30.904 30.904 0 0 0-4.55-1.595 19.299 19.299 0 0 0-5.023-.65c-3.388 0-6.067 1.103-8.036 3.309-1.97 2.206-2.955 5.79-2.955 10.755v5.436h21.746v5.2h-21.746V402h-5.673zm62.6 1.182c-7.957 0-14.044-2.246-18.259-6.737-4.215-4.49-6.322-10.912-6.322-19.263v-20.8c0-8.51 2.127-15.049 6.381-19.618 4.255-4.57 10.36-6.855 18.319-6.855 7.8 0 13.807 2.285 18.022 6.855 4.215 4.57 6.323 11.109 6.323 19.618v20.8c0 8.351-2.108 14.773-6.323 19.263-4.215 4.491-10.262 6.737-18.14 6.737zm0-5.2c6.382 0 11.11-1.694 14.182-5.082 3.073-3.388 4.61-8.627 4.61-15.718v-20.8c0-7.249-1.537-12.606-4.61-16.073-3.073-3.467-7.8-5.2-14.182-5.2-6.381 0-11.128 1.733-14.24 5.2-3.113 3.467-4.669 8.824-4.669 16.073v20.8c0 7.09 1.556 12.33 4.668 15.718 3.113 3.388 7.86 5.082 14.241 5.082zM255 402v-70.91h5.673v10.992h1.182c2.6-4.334 5.495-7.446 8.686-9.337 3.19-1.89 6.559-2.836 10.104-2.836 5.437 0 9.711 1.674 12.823 5.023 3.112 3.348 4.668 8.095 4.668 14.24v8.51h-5.79v-8.273c0-4.333-.966-7.8-2.896-10.4-1.93-2.6-4.905-3.9-8.923-3.9-3.86 0-7.406 1.024-10.636 3.073-3.23 2.048-6.303 5.279-9.218 9.69V402H255zm84.79 1.064c-5.908 0-10.557-1.911-13.945-5.732-3.387-3.821-5.081-9.08-5.081-15.777V336.29h-13v-5.2h13v-23.636h5.672v23.636h23.873v5.2h-23.873v44.082c0 5.909 1.143 10.282 3.428 13.118 2.284 2.836 5.79 4.254 10.518 4.254 1.34 0 2.856-.216 4.55-.65a30.998 30.998 0 0 0 5.14-1.831l1.183 5.081a28.225 28.225 0 0 1-5.732 2.01c-2.01.472-3.92.709-5.732.709zm51.674.118c-6.225 0-11.228-2.088-15.01-6.264-3.781-4.176-5.672-9.77-5.672-16.782v-49.045h5.673v47.154c0 6.461 1.339 11.366 4.018 14.714 2.679 3.349 6.54 5.023 11.582 5.023 3.86 0 7.662-.965 11.404-2.896 3.743-1.93 7.308-5.022 10.696-9.277v-54.718h5.672V402h-5.672v-10.99h-1.064c-2.6 4.017-5.732 7.05-9.396 9.1-3.663 2.048-7.74 3.072-12.231 3.072zM442.427 402v-70.91h5.673v10.992h1.182c1.97-3.782 4.924-6.756 8.863-8.923 3.94-2.167 8.155-3.25 12.646-3.25 6.303 0 11.326 1.99 15.068 5.968 3.743 3.98 5.614 9.396 5.614 16.25V402H485.8v-48.69c0-5.91-1.34-10.4-4.018-13.474-2.679-3.072-6.5-4.609-11.464-4.609-4.097 0-8.016 1.005-11.759 3.014-3.742 2.009-7.229 5.023-10.459 9.04V402h-5.673zm89.51-3.9c4.57 0 8.627-.945 12.172-2.836 3.546-1.891 6.658-4.767 9.336-8.628v-17.254h-23.754c-4.255 0-7.721.985-10.4 2.954-2.679 1.97-4.018 5.358-4.018 10.164 0 4.964 1.34 8.805 4.018 11.523 2.679 2.718 6.894 4.077 12.645 4.077zm-.828 5.082c-6.54 0-11.68-1.812-15.423-5.437-3.742-3.624-5.613-8.587-5.613-14.89 0-5.673 1.753-10.144 5.259-13.414 3.506-3.27 8.253-4.905 14.24-4.905h23.873V350.71c0-4.49-1.477-8.214-4.431-11.168-2.955-2.955-7.347-4.432-13.178-4.432-5.751 0-9.947.965-12.586 2.896-2.64 1.93-4.668 5.495-6.086 10.695l-5.082-1.536c1.733-6.146 4.412-10.558 8.036-13.237 3.624-2.679 8.785-4.018 15.482-4.018 7.249 0 12.98 1.832 17.195 5.496 4.216 3.663 6.323 8.725 6.323 15.186v32.854c0 6.146.926 10.144 2.777 11.996 1.852 1.851 5.26 2.304 10.223 1.359v5.436c-4.885.788-8.745.316-11.582-1.418-2.836-1.733-4.49-4.845-4.963-9.336h-1.064c-2.442 3.624-5.712 6.48-9.809 8.568-4.097 2.088-8.627 3.132-13.59 3.132zm76.827-.118c-5.909 0-10.557-1.911-13.945-5.732s-5.082-9.08-5.082-15.777V336.29h-13v-5.2h13v-23.636h5.673v23.636h23.873v5.2h-23.873v44.082c0 5.909 1.142 10.282 3.427 13.118 2.285 2.836 5.791 4.254 10.518 4.254 1.34 0 2.856-.216 4.55-.65a30.998 30.998 0 0 0 5.141-1.831l1.182 5.081a28.225 28.225 0 0 1-5.732 2.01c-2.009.472-3.92.709-5.732.709zm72.446-15.128c-1.734 5.28-4.432 9.14-8.096 11.582-3.663 2.443-8.844 3.664-15.54 3.664-7.8 0-13.887-2.206-18.26-6.618-4.372-4.413-6.559-10.912-6.559-19.5v-20.682c0-8.824 2.285-15.443 6.855-19.855 4.57-4.412 10.518-6.618 17.845-6.618 7.328 0 13.217 2.246 17.668 6.736 4.452 4.491 6.678 11.346 6.678 20.564v9.927H637.6v10.046c0 7.327 1.595 12.626 4.786 15.895 3.191 3.27 7.978 4.905 14.36 4.905 5.593 0 9.631-.887 12.113-2.66 2.482-1.772 4.471-4.825 5.968-9.158l5.555 1.772zM637.6 356.382v5.79h37.7v-4.727c0-7.8-1.576-13.472-4.727-17.018-3.152-3.545-7.84-5.318-14.064-5.318s-10.932 1.733-14.123 5.2c-3.19 3.467-4.786 8.824-4.786 16.073zm82.2 46.209c-5.91 0-10.518-2.265-13.827-6.796-3.31-4.53-4.964-10.774-4.964-18.731v-69.61h5.673v69.728c0 6.303 1.182 11.207 3.545 14.713 2.364 3.507 5.673 5.26 9.928 5.26 1.103 0 2.383-.178 3.84-.532 1.458-.355 2.699-.808 3.723-1.36l1.418 4.846c-1.26.71-2.698 1.3-4.313 1.773-1.615.473-3.29.709-5.023.709zm25.79 23.754c-1.102 0-2.264-.059-3.485-.177-1.222-.118-2.66-.335-4.314-.65l.827-5.2c1.418.315 2.699.552 3.841.71 1.143.157 2.58.236 4.314.236 3.624 0 6.52-1.005 8.686-3.014 2.167-2.01 4.235-5.85 6.205-11.523L763.2 402h-1.418l-24.464-70.91h6.027l21.864 64.765 21.036-64.764h5.791l-25.645 77.054c-2.206 6.619-4.924 11.307-8.155 14.064-3.23 2.758-7.445 4.136-12.645 4.136z" opacity=".6"/><path d="M34.273 556.182c-10.794 0-18.91-2.837-24.346-8.51C4.491 542 1.773 533.53 1.773 522.265v-61.81h5.909v61.81c0 10.163 2.068 17.47 6.204 21.922 4.137 4.452 10.932 6.678 20.387 6.678 9.454 0 16.25-2.226 20.386-6.678 4.136-4.451 6.205-11.759 6.205-21.922v-61.81h5.909v61.81c0 11.266-2.718 19.736-8.155 25.409-5.436 5.672-13.551 8.509-24.345 8.509zM82.318 555v-70.91h5.91v11.82h1.181c2.206-4.02 5.476-7.19 9.81-9.515 4.333-2.324 8.981-3.486 13.945-3.486 6.854 0 12.29 2.068 16.309 6.205 4.018 4.136 6.027 9.75 6.027 16.84V555h-5.91v-47.864c0-6.145-1.457-10.813-4.372-14.004-2.915-3.191-7.09-4.787-12.527-4.787-4.491 0-8.785 1.084-12.882 3.25-4.097 2.167-7.957 5.378-11.582 9.632V555h-5.909zm79.546 0v-65.59h-14.182v-5.32h14.182v-4.726c0-6.382 1.713-11.326 5.14-14.832 3.428-3.506 7.702-5.26 12.823-5.26 1.97 0 3.98.237 6.028.71 2.048.473 3.86 1.063 5.436 1.773l-1.182 5.081c-1.497-.709-3.151-1.26-4.964-1.654a25.524 25.524 0 0 0-5.436-.591c-3.624 0-6.52 1.142-8.686 3.427-2.167 2.285-3.25 6.027-3.25 11.227v4.846h23.636v5.318h-23.636V555h-5.91zm66.681 1.182c-8.587 0-15.166-2.305-19.736-6.914s-6.854-11.247-6.854-19.913v-19.146c0-8.824 2.304-15.58 6.913-20.268 4.61-4.688 11.208-7.032 19.796-7.032 8.509 0 15.048 2.344 19.618 7.032 4.57 4.688 6.854 11.444 6.854 20.268v19.146c0 8.666-2.284 15.304-6.854 19.913-4.57 4.61-11.149 6.914-19.737 6.914zm0-5.318c7.091 0 12.311-1.753 15.66-5.26 3.348-3.506 5.022-8.922 5.022-16.25V510.21c0-7.485-1.674-13.02-5.022-16.604-3.349-3.585-8.569-5.378-15.66-5.378-7.09 0-12.31 1.793-15.659 5.378-3.348 3.584-5.022 9.12-5.022 16.604v19.146c0 7.327 1.674 12.743 5.022 16.25 3.349 3.506 8.569 5.259 15.66 5.259zM274.682 555v-70.91h5.909v11.82h1.182c2.994-4.65 6.244-7.978 9.75-9.987 3.506-2.01 7.228-3.014 11.168-3.014 5.83 0 10.4 1.753 13.709 5.26 3.31 3.505 4.964 8.45 4.964 14.831v7.682h-5.91v-7.446c0-4.49-1.024-8.115-3.072-10.872-2.049-2.758-5.279-4.137-9.691-4.137-4.255 0-8.174 1.103-11.76 3.31-3.584 2.205-7.031 5.633-10.34 10.281V555h-5.91zm92.29 1.064c-6.381 0-11.404-2.049-15.067-6.146-3.664-4.097-5.496-9.77-5.496-17.018v-43.49h-14.182v-5.32h14.182v-23.635h5.91v23.636h26v5.318h-26v42.427c0 6.382 1.26 11.11 3.781 14.182 2.521 3.073 6.382 4.61 11.582 4.61 1.497 0 3.151-.217 4.963-.65a32.706 32.706 0 0 0 5.437-1.833l1.3 5.2a36.206 36.206 0 0 1-6.264 2.01c-2.127.472-4.176.709-6.145.709zm49.864.118c-6.775 0-12.192-2.206-16.25-6.618-4.057-4.413-6.086-10.282-6.086-17.61v-47.863h5.91v45.5c0 7.012 1.417 12.31 4.254 15.895 2.836 3.585 7.051 5.378 12.645 5.378 4.018 0 8.135-1.044 12.35-3.132s8.253-5.377 12.114-9.868V484.09h5.909V555h-5.91v-11.818h-1.181c-3.073 4.412-6.56 7.682-10.46 9.809-3.9 2.127-8.331 3.19-13.295 3.19zM467.227 555v-70.91h5.91v11.82h1.181c2.206-4.02 5.476-7.19 9.81-9.515 4.333-2.324 8.981-3.486 13.945-3.486 6.854 0 12.29 2.068 16.309 6.205 4.018 4.136 6.027 9.75 6.027 16.84V555H514.5v-47.864c0-6.145-1.458-10.813-4.373-14.004-2.915-3.191-7.09-4.787-12.527-4.787-4.49 0-8.785 1.084-12.882 3.25-4.097 2.167-7.957 5.378-11.582 9.632V555h-5.909zm97.01-4.136c5.2 0 9.769-.946 13.708-2.837 3.94-1.89 7.367-4.845 10.282-8.863V522.5h-26.59c-4.492 0-8.175.985-11.05 2.955-2.876 1.97-4.314 5.357-4.314 10.163 0 4.964 1.438 8.746 4.313 11.346 2.876 2.6 7.426 3.9 13.65 3.9zm-.828 5.318c-7.012 0-12.507-1.812-16.486-5.437-3.98-3.624-5.968-8.627-5.968-15.009 0-5.672 1.87-10.124 5.613-13.354 3.743-3.23 8.765-4.846 15.068-4.846h26.591v-13c0-4.49-1.595-8.331-4.786-11.522-3.191-3.191-8.056-4.787-14.596-4.787-6.381 0-11.01.965-13.886 2.896-2.876 1.93-5.062 5.495-6.559 10.695l-5.318-1.536c1.89-6.146 4.806-10.577 8.745-13.296 3.94-2.718 9.534-4.077 16.782-4.077 7.8 0 14.005 1.891 18.614 5.673s6.913 9.06 6.913 15.836v31.673c0 6.224 1.005 10.301 3.014 12.232 2.01 1.93 5.732 2.422 11.168 1.477v5.555c-5.436.787-9.632.275-12.586-1.537-2.955-1.812-4.708-4.963-5.26-9.454h-1.181c-2.836 3.781-6.5 6.697-10.991 8.745-4.49 2.049-9.455 3.073-14.89 3.073zm83.564-.118c-6.382 0-11.405-2.049-15.068-6.146-3.664-4.097-5.496-9.77-5.496-17.018v-43.49h-14.182v-5.32h14.182v-23.635h5.91v23.636h26v5.318h-26v42.427c0 6.382 1.26 11.11 3.781 14.182 2.521 3.073 6.382 4.61 11.582 4.61 1.497 0 3.151-.217 4.963-.65a32.706 32.706 0 0 0 5.437-1.833l1.3 5.2a36.206 36.206 0 0 1-6.264 2.01c-2.127.472-4.176.709-6.145.709zm79-15.128c-1.97 5.437-4.924 9.337-8.864 11.7-3.94 2.364-9.573 3.546-16.9 3.546-8.43 0-14.99-2.265-19.677-6.796-4.688-4.53-7.032-11.247-7.032-20.15V510.21c0-9.14 2.462-15.974 7.386-20.504 4.925-4.53 11.365-6.796 19.323-6.796s14.36 2.305 19.205 6.914c4.845 4.609 7.268 11.68 7.268 21.213v9.1h-47.273v9.219c0 7.563 1.714 13.039 5.141 16.427s8.608 5.082 15.54 5.082c6.225 0 10.716-.926 13.474-2.778 2.757-1.851 4.963-4.865 6.618-9.04l5.79 1.89zm-46.564-30.727v4.964h41.364v-3.9c0-7.958-1.734-13.768-5.2-17.432-3.467-3.664-8.628-5.496-15.482-5.496-6.855 0-12.015 1.773-15.482 5.319-3.467 3.545-5.2 9.06-5.2 16.545zm90.936 45.382c-6.303 0-11.246-2.403-14.831-7.21-3.585-4.805-5.378-11.423-5.378-19.854v-68.072h5.91v68.19c0 6.619 1.3 11.819 3.9 15.6 2.6 3.782 6.184 5.673 10.754 5.673 1.182 0 2.56-.197 4.136-.59 1.576-.395 2.955-.867 4.137-1.419l1.418 5.082a29.537 29.537 0 0 1-4.668 1.832c-1.694.512-3.487.768-5.378.768zm21.855 23.754c-1.182 0-2.423-.059-3.723-.177-1.3-.118-2.856-.335-4.668-.65l.827-5.318c1.497.315 2.876.552 4.137.71 1.26.157 2.797.235 4.609.235 4.018 0 7.209-1.063 9.573-3.19 2.363-2.128 4.687-6.146 6.972-12.055l1.537-3.9h-1.419l-26.709-70.91h6.146l24.109 65 23.045-65h5.91l-27.655 76.228c-2.443 6.855-5.417 11.74-8.923 14.655-3.506 2.915-8.095 4.372-13.768 4.372z" opacity=".4"/></g></svg>