<svg height="260pt" preserveAspectRatio="xMidYMid meet" viewBox="0 0 260 260" width="260pt" xmlns="http://www.w3.org/2000/svg"><path d="m1150 2593c-14-2-61-11-105-20-536-105-953-545-1032-1088-10-66-10-284-1-360 4-33 15-87 23-120 9-33 17-67 19-75 1-8 6-24 10-35s22-55 38-98c34-86 108-214 170-292 216-272 494-435 840-493 84-14 348-7 438 12 268 57 491 177 672 362 200 205 317 435 363 719 13 79 13 328 1 390-4 17-11 55-17 85-41 208-166 442-324 612-195 207-456 345-748 395-39 6-313 11-347 6z" transform="matrix(.1 0 0 -.1 0 260)"/></svg>