<svg height="131" viewBox="0 0 643 131" width="643" xmlns="http://www.w3.org/2000/svg"><g fill="#359e91" fill-rule="evenodd"><path d="m225.4 39.0181818-7.636364-28.0727273-7.563636 28.0727273zm6.254545 22.9818182-4.872727-17.9636364h-17.963636l-4.872727 17.9636364h-5.745455l16.8-58.18181818h5.890909l16.727273 58.18181818zm-17.672727 55.272727c1.939404 0 3.793931-.472722 5.563637-1.418182 1.769705-.945459 3.236357-2.654533 4.4-5.127272v-7.709091h-9.672728c-2.084859 0-3.745448.509086-4.981818 1.527273-1.23637 1.018186-1.854545 2.83635-1.854545 5.454545 0 2.278799.521207 4.0606 1.563636 5.345455 1.042429 1.284854 2.703019 1.927272 4.981818 1.927272zm-.654545 5.454546c-3.490927 0-6.230293-1.10302-8.218182-3.309091-1.987889-2.206072-2.981818-5.199981-2.981818-8.981818s1.030292-6.775747 3.090909-8.981819c2.060616-2.2060712 4.812104-3.3090905 8.254545-3.3090905h10.472728v-7.490909c0-2.2303142-.642418-4.1090833-1.927273-5.6363637-1.284855-1.5272803-3.187866-2.2909091-5.709091-2.2909091-2.715165 0-4.690903.6181757-5.927273 1.8545455s-2.169694 3.527256-2.8 6.8727273l-4.727273-1.7454546c.630307-4.0242625 2.036353-7.0424142 4.218182-9.0545454 2.181829-2.0121313 5.212102-3.0181819 9.090909-3.0181819 3.830323 0 7.006048.9818084 9.527273 2.9454546s3.781818 4.9575556 3.781818 8.9818182v22.7636366c0 2.133344.496965 3.563632 1.490909 4.290909.993945.727276 2.678776.775761 5.054546.145454v5.6c-3.200016.484851-5.563629.13334-7.090909-1.054545-1.527281-1.187885-2.387878-3.13938-2.581818-5.854546h-1.09091c-.872731 2.084859-2.424231 3.818175-4.654545 5.2-2.230314 1.381826-4.654532 2.072728-7.272727 2.072728z"/><path d="m320.818182 38.8727273-7.054546-27.4909091-7.127272 27.4909091zm5.963636 23.1272727-4.436363-17.3090909h-17.236364l-4.436364 17.3090909h-6.545454l16.072727-58.18181818h7.490909l16 58.18181818zm-16.654545 54.836364c1.842433 0 3.599991-.424239 5.272727-1.272728s3.042419-2.387867 4.109091-4.618181v-7.709091h-9.236364c-1.939403 0-3.478782.496964-4.618182 1.490909-1.139399.993944-1.70909 2.72726-1.70909 5.2 0 2.181829.496964 3.878782 1.490909 5.090909.993944 1.212127 2.557565 1.818182 4.690909 1.818182zm-1.090909 5.890909c-3.490927 0-6.254536-1.10302-8.290909-3.309091-2.036374-2.206072-3.054546-5.224223-3.054546-9.054546 0-3.781837 1.054535-6.775746 3.163636-8.981818 2.109102-2.2060715 4.933316-3.3090907 8.472728-3.3090907h10.181818v-7.2727273c0-2.133344-.606055-3.9151444-1.818182-5.3454545-1.212127-1.4303102-3.006049-2.1454546-5.381818-2.1454546-2.56971 0-4.436358.5939335-5.6 1.7818182s-2.060603 3.3818022-2.690909 6.5818182l-5.6-1.7454546c.678791-4.1212327 2.169685-7.1999898 4.472727-9.2363636s5.466647-3.0545455 9.490909-3.0545455c4.024263 0 7.309078.9939295 9.854546 2.9818182 2.545467 1.9878887 3.818181 5.0666458 3.818181 9.2363637v21.8181815c0 2.181829.496965 3.612118 1.49091 4.290909.993944.678792 2.678776.727276 5.054545.145455v6.181818c-3.200016.484851-5.636355.181824-7.309091-.909091-1.672736-1.090914-2.654544-3.018168-2.945454-5.781818h-1.236364c-.921217 2.084859-2.496959 3.793933-4.727273 5.127273s-4.678774 2-7.345454 2z"/><path d="m415.927273 38.5090909-5.381818-25.4545454-5.454546 25.4545454zm5.018182 23.4909091-3.345455-15.7818182h-14.181818l-3.345455 15.7818182h-9.236363l13.818181-58.18181818h12.654546l13.672727 58.18181818zm-11.054546 53.745455c1.503038 0 2.921206-.315149 4.254546-.945455s2.460601-1.721204 3.381818-3.272727v-7.709091h-7.854546c-1.406067 0-2.533329.424238-3.381818 1.272727s-1.272727 2.387868-1.272727 4.618182c0 1.939404.399996 3.430298 1.2 4.472727.800004 1.04243 2.024234 1.563637 3.672727 1.563637zm-2.4 6.981818c-3.684867 0-6.569686-1.10302-8.654545-3.309091-2.084859-2.206072-3.127273-5.272708-3.127273-9.2 0-3.927293 1.11514-6.969686 3.345454-9.127273 2.230315-2.1575865 5.260587-3.2363635 9.09091-3.2363635h9.381818v-6.7636364c0-1.9394036-.509086-3.4909033-1.527273-4.6545455-1.018187-1.1636421-2.49696-1.7454545-4.436364-1.7454545-2.036373 0-3.527268.5212069-4.472727 1.5636364-.945459 1.0424294-1.684846 3.0424094-2.218182 6l-8.436363-1.7454546c.775761-4.4606284 2.533319-7.7212018 5.272727-9.7818182 2.739408-2.0606163 6.290887-3.0909091 10.654545-3.0909091 4.703054 0 8.375745 1.0181717 11.018182 3.0545455 2.642438 2.0363738 3.963637 5.3090684 3.963637 9.8181818v19.5636361c0 2.230314.533328 3.648482 1.6 4.254546 1.066672.606063 2.71514.666669 4.945454.181818v7.563636c-3.296986.630306-5.999989.496974-8.109091-.4-2.109101-.896974-3.478785-2.824227-4.109091-5.781818h-1.6c-1.212127 2.036374-2.90908 3.684842-5.090909 4.945455-2.181829 1.260612-4.678774 1.890909-7.490909 1.890909z"/><path d="m511.2 38.4363636-4.727273-24.5818181-4.872727 24.5818181zm4.581818 23.5636364-2.909091-15.1272727h-12.872727l-2.981818 15.1272727h-10.327273l12.872727-58.18181818h14.763637l12.8 58.18181818zm-9.672727 53.381818c1.357582 0 2.630297-.278785 3.818182-.836363 1.187884-.557579 2.193935-1.466661 3.018182-2.727273v-7.781818h-7.2c-1.212128 0-2.181815.412117-2.909091 1.236363-.727277.824247-1.090909 2.278778-1.090909 4.363637 0 1.842433.351511 3.260601 1.054545 4.254545s1.806053 1.490909 3.309091 1.490909zm-2.981818 7.345455c-3.781837 0-6.727262-1.115141-8.836364-3.345455-2.109101-2.230314-3.163636-5.309071-3.163636-9.236363 0-3.927293 1.151503-6.969687 3.454545-9.127273 2.303042-2.1575867 5.418162-3.2363638 9.345455-3.2363638h9.018182v-6.5454546c0-1.8909185-.460602-3.3575705-1.381819-4.4-.921216-1.0424294-2.254536-1.5636363-4-1.5636363-1.842433 0-3.199995.4969647-4.072727 1.4909091-.872732.9939443-1.551513 2.9211978-2.036364 5.7818181l-9.527272-1.8181818c.824246-4.5575985 2.678773-7.8787774 5.563636-9.9636363s6.606038-3.1272728 11.163636-3.1272728c4.94548 0 8.751502 1.0424139 11.418182 3.1272728s4 5.43028 4 10.0363636v18.690909c0 2.230314.55757 3.636361 1.672728 4.218182 1.115157.581821 2.739383.654548 4.872727.218182v8c-3.296986.727276-6.096958.690913-8.4-.109091s-3.818178-2.727258-4.545455-5.781818h-1.745454c-1.309098 1.987888-3.042414 3.599993-5.2 4.836363-2.157587 1.23637-4.690895 1.854546-7.6 1.854546z"/><path d="m607.109091 38.2181818-3.781818-22.9090909-3.927273 22.9090909zm4 23.7818182-2.4-14.1818182h-10.909091l-2.4 14.1818182h-11.854545l11.490909-58.18181818h17.890909l11.345454 58.18181818zm-6.763636 52.727273c1.115157 0 2.169692-.206059 3.163636-.618182s1.878784-1.054541 2.654545-1.927273v-7.781818h-6.4c-.921216 0-1.648482.363633-2.181818 1.090909s-.8 2.060596-.8 4c0 1.745463.290906 3.054541.872727 3.927273.581822.872731 1.478782 1.309091 2.69091 1.309091zm-3.709091 8c-3.878808 0-6.896959-1.115141-9.054546-3.345455-2.157586-2.230314-3.236363-5.333313-3.236363-9.309091 0-4.024262 1.175745-7.103019 3.527272-9.236363 2.351527-2.1333444 5.612101-3.2000004 9.781818-3.2000004h8.509091v-6.2545454c0-1.7939484-.399996-3.1272684-1.2-4-.800004-.8727317-1.951507-1.3090909-3.454545-1.3090909s-2.618178.4606014-3.345455 1.3818182c-.727276.9212167-1.333331 2.7393803-1.818181 5.4545454l-11.2-1.8181818c.921216-4.7515389 2.933317-8.1818076 6.036363-10.2909091s7.054522-3.1636364 11.854546-3.1636364c5.33336 0 9.369683 1.066656 12.109091 3.2 2.739407 2.133344 4.10909 5.599976 4.10909 10.4v17.3090914c0 2.278799.569692 3.672724 1.709091 4.181818 1.1394.509093 2.751505.593941 4.836364.254545v8.8c-3.345471.775762-6.315139.836367-8.909091.181818-2.593952-.654548-4.35151-2.581802-5.272727-5.781818h-1.890909c-1.503038 1.987889-3.321202 3.575752-5.454546 4.763637-2.133344 1.187884-4.678773 1.781818-7.636363 1.781818z"/><path d="m130.054545 39.9636364-8.218181-29.7454546-8.290909 29.7454546zm6.109091 22.0363636-5.018181-17.8909091h-18.763637l-4.945454 17.8909091h-4.581819l16.727273-58.18181818h4.654546l16.727272 58.18181818zm-17.672727 56.654545c1.987889 0 3.818174-.509085 5.490909-1.527272 1.672736-1.018187 3.16363-2.618171 4.472727-4.8v-9.890909h-10.327272c-2.230314 0-3.987873.545449-5.272728 1.636363-1.284854 1.090915-1.927272 3.018168-1.927272 5.781818 0 2.763651.606054 4.921205 1.818182 6.472728 1.212127 1.551523 3.127259 2.327272 5.745454 2.327272zm-.654545 4.072728c-3.442442 0-6.169687-1.115141-8.181819-3.345455-2.012131-2.230314-3.018181-5.260587-3.018181-9.090909 0-3.636382.969687-6.484838 2.909091-8.545454 1.939403-2.0606168 4.630285-3.0909095 8.072727-3.0909095h10.836363v-8.6545455c0-2.5212247-.715144-4.5333258-2.145454-6.0363636-1.43031-1.5030379-3.406048-2.2545455-5.927273-2.2545455-2.715165 0-4.703024.5939335-5.963636 1.7818182-1.260613 1.1878847-2.2303 3.3818022-2.909091 6.5818182l-4-1.1636364c.775761-3.9272924 2.181808-6.7878698 4.218182-8.5818182 2.036374-1.7939483 4.896951-2.6909091 8.581818-2.6909091 3.781837 0 6.848473 1.0302928 9.2 3.0909091 2.351527 2.0606164 3.527273 5.0060415 3.527273 8.8363637v21.7454546c0 3.006076.484843 4.981813 1.454545 5.927273.969702.945459 2.666655 1.127275 5.090909.545454v4.363637c-2.76365.48485-4.945446.193944-6.545454-.872728s-2.521211-2.957562-2.763637-5.672727h-.8c-.969702 2.084859-2.521201 3.793933-4.654545 5.127273s-4.460594 2-6.981818 2z"/><path d="m33.8545455 40.6909091-8.9454546-31.20000001-9.0909091 31.20000001zm6.1818181 21.3090909-5.3090909-18.3272727h-19.7818182l-5.30909086 18.3272727h-3.27272728l17.16363634-58.18181818h2.7636364l17.2363636 58.18181818zm-18.2545454 57.818182c2.0848589 0 3.963628-.569691 5.6363636-1.709091 1.6727357-1.1394 3.2121142-2.775747 4.6181818-4.909091v-11.345455h-11.0545454c-2.3757695 0-4.2545386.581813-5.6363637 1.745455-1.381825 1.163642-2.0727272 3.24847-2.0727272 6.254545 0 3.200016.6909022 5.660598 2.0727272 7.381819 1.3818251 1.72122 3.5272582 2.581818 6.4363637 2.581818zm-.3636364 2.909091c-3.4424414 0-6.1696869-1.115141-8.1818182-3.345455-2.0121312-2.230314-3.0181818-5.260587-3.0181818-9.090909 0-3.490926.9212029-6.242414 2.7636364-8.254545 1.8424334-2.012132 4.4363469-3.0181822 7.7818182-3.0181822h11.2727272v-9.6c0-2.7636502-.7757498-4.9212043-2.3272727-6.4727273-1.5515229-1.5515229-3.6605927-2.3272727-6.3272727-2.3272727-2.7636502 0-4.8121146.6060546-6.1454546 1.8181818-1.33334 1.2121273-2.3636327 3.4181659-3.0909091 6.6181819l-2.9090909-.8727273c.8242466-3.7818371 2.1696877-6.4848404 4.0363637-8.1090909 1.866676-1.6242506 4.5454371-2.4363637 8.0363636-2.4363637 3.6363818 0 6.5454436 1.0545349 8.7272727 3.1636364s3.2727273 4.9818 3.2727273 8.6181818v21.6727272c0 3.539412.4727226 5.866661 1.4181818 6.981818.9454593 1.115157 2.6545331 1.381821 5.1272728.8v3.127273c-2.4242546.484851-4.4242346.206066-6-.836364-1.5757655-1.042429-2.4606051-2.896956-2.6545455-5.563636h-.5090909c-.9697018 2.133344-2.4969593 3.854539-4.5818182 5.163636-2.0848589 1.309098-4.3151396 1.963637-6.6909091 1.963637z"/></g></svg>