<svg width="643" height="131" viewBox="0 0 643 131" xmlns="http://www.w3.org/2000/svg"><title>Artboard 1</title><g fill="#359E91" fill-rule="evenodd"><path d="M225.4 39.018l-7.636-28.073-7.564 28.073h15.2zM231.655 62l-4.873-17.964h-17.964L203.945 62H198.2L215 3.818h5.89L237.62 62h-5.963zm-17.673 55.273c1.94 0 3.794-.473 5.563-1.418 1.77-.946 3.237-2.655 4.4-5.128v-7.71h-9.672c-2.085 0-3.746.51-4.982 1.528-1.235 1.02-1.854 2.837-1.854 5.455 0 2.28.522 4.06 1.564 5.345 1.042 1.285 2.703 1.928 4.982 1.928zm-.655 5.454c-3.49 0-6.23-1.103-8.218-3.31-1.99-2.205-2.983-5.2-2.983-8.98 0-3.782 1.03-6.776 3.09-8.982 2.062-2.207 4.813-3.31 8.256-3.31h10.472v-7.49c0-2.23-.642-4.11-1.927-5.637-1.285-1.527-3.188-2.29-5.71-2.29-2.714 0-4.69.617-5.926 1.854-1.237 1.236-2.17 3.527-2.8 6.873l-4.727-1.746c.63-4.025 2.036-7.043 4.218-9.055 2.182-2.013 5.212-3.02 9.09-3.02 3.83 0 7.007.983 9.528 2.947 2.522 1.963 3.783 4.957 3.783 8.982v22.763c0 2.134.497 3.564 1.49 4.29.995.728 2.68.777 5.055.147v5.6c-3.2.484-5.563.133-7.09-1.055-1.528-1.19-2.39-3.14-2.583-5.855h-1.09c-.873 2.084-2.425 3.818-4.655 5.2a13.55 13.55 0 0 1-7.273 2.072zM320.818 38.873l-7.054-27.49-7.128 27.49h14.182zM326.782 62l-4.437-17.31H305.11L300.672 62h-6.546L310.2 3.818h7.49l16 58.182h-6.908zm-16.655 54.836c1.843 0 3.6-.424 5.273-1.272 1.673-.85 3.042-2.388 4.11-4.62v-7.708h-9.237c-1.94 0-3.48.497-4.618 1.49-1.14.995-1.71 2.73-1.71 5.2 0 2.183.497 3.88 1.49 5.092.995 1.212 2.56 1.818 4.692 1.818zm-1.09 5.89c-3.492 0-6.255-1.102-8.292-3.308-2.036-2.206-3.054-5.224-3.054-9.054 0-3.782 1.055-6.776 3.165-8.982 2.11-2.206 4.933-3.31 8.472-3.31h10.182V90.8c0-2.133-.607-3.915-1.82-5.345-1.21-1.43-3.005-2.146-5.38-2.146-2.57 0-4.437.593-5.6 1.78-1.165 1.19-2.062 3.383-2.692 6.583l-5.6-1.746c.68-4.12 2.17-7.2 4.473-9.236 2.304-2.035 5.468-3.054 9.492-3.054 4.024 0 7.31.994 9.854 2.982 2.546 1.988 3.82 5.067 3.82 9.237v21.818c0 2.182.496 3.612 1.49 4.29.993.68 2.678.728 5.054.146v6.18c-3.2.486-5.636.183-7.31-.908-1.672-1.09-2.654-3.018-2.945-5.782h-1.236c-.922 2.085-2.498 3.794-4.728 5.127-2.23 1.334-4.68 2-7.346 2zM415.927 38.51l-5.382-25.455-5.454 25.454h10.837zM420.945 62L417.6 46.218h-14.182L400.073 62h-9.237l13.82-58.182h12.653L430.98 62h-10.037zm-11.054 53.745c1.504 0 2.922-.315 4.255-.945 1.334-.63 2.46-1.72 3.382-3.273v-7.71h-7.854c-1.406 0-2.534.425-3.382 1.274-.848.85-1.272 2.39-1.272 4.62 0 1.938.4 3.43 1.2 4.472.8 1.042 2.024 1.563 3.673 1.563zm-2.4 6.982c-3.684 0-6.57-1.103-8.654-3.31-2.084-2.205-3.127-5.272-3.127-9.2 0-3.926 1.114-6.97 3.345-9.126 2.23-2.157 5.26-3.235 9.09-3.235h9.382V91.09c0-1.938-.51-3.49-1.527-4.654-1.018-1.163-2.497-1.745-4.436-1.745-2.037 0-3.528.522-4.473 1.565-.945 1.042-1.684 3.042-2.217 6l-8.437-1.746c.776-4.462 2.534-7.722 5.273-9.783 2.738-2.06 6.29-3.09 10.654-3.09 4.703 0 8.375 1.018 11.018 3.054 2.642 2.037 3.963 5.31 3.963 9.82v19.563c0 2.23.534 3.648 1.6 4.254 1.067.606 2.716.667 4.946.182v7.563c-3.296.63-6 .497-8.108-.4-2.11-.897-3.48-2.825-4.11-5.782h-1.6c-1.21 2.037-2.908 3.686-5.09 4.946-2.182 1.26-4.68 1.89-7.49 1.89zM511.2 38.436l-4.727-24.58-4.873 24.58h9.6zM515.782 62l-2.91-15.127H500L497.018 62H486.69l12.874-58.182h14.763L527.127 62h-11.345zm-9.673 53.382c1.357 0 2.63-.28 3.817-.837 1.188-.557 2.194-1.466 3.018-2.727v-7.782h-7.2c-1.212 0-2.18.412-2.91 1.237-.726.824-1.09 2.28-1.09 4.363 0 1.843.352 3.26 1.055 4.255.703.995 1.806 1.492 3.31 1.492zm-2.983 7.345c-3.782 0-6.727-1.115-8.836-3.345-2.108-2.23-3.163-5.31-3.163-9.237 0-3.927 1.152-6.97 3.455-9.127 2.303-2.157 5.418-3.236 9.345-3.236h9.018v-6.546c0-1.89-.46-3.357-1.38-4.4-.923-1.042-2.256-1.563-4-1.563-1.844 0-3.2.497-4.074 1.49-.872.995-1.55 2.922-2.035 5.782l-9.528-1.818c.825-4.557 2.68-7.88 5.564-9.963 2.886-2.085 6.607-3.128 11.165-3.128 4.945 0 8.75 1.043 11.418 3.128 2.666 2.084 4 5.43 4 10.036v18.69c0 2.23.557 3.637 1.672 4.22 1.116.58 2.74.654 4.873.217v8c-3.297.728-6.097.69-8.4-.11-2.303-.8-3.818-2.726-4.545-5.78h-1.746c-1.31 1.987-3.042 3.6-5.2 4.836-2.157 1.236-4.69 1.854-7.6 1.854zM607.11 38.218l-3.783-22.91-3.927 22.91h7.71zm4 23.782l-2.4-14.182H597.8L595.4 62h-11.855l11.49-58.182h17.892L624.273 62H611.11zm-6.765 52.727c1.116 0 2.17-.206 3.164-.618.993-.413 1.878-1.055 2.654-1.928V104.4h-6.4c-.922 0-1.65.364-2.182 1.09-.534.728-.8 2.062-.8 4 0 1.746.29 3.055.873 3.928.58.873 1.478 1.31 2.69 1.31zm-3.71 8c-3.877 0-6.896-1.115-9.053-3.345-2.158-2.23-3.237-5.333-3.237-9.31 0-4.024 1.176-7.102 3.528-9.236 2.35-2.133 5.612-3.2 9.782-3.2h8.51v-6.254c0-1.794-.4-3.127-1.2-4-.8-.873-1.953-1.31-3.456-1.31-1.504 0-2.62.46-3.346 1.383-.728.92-1.334 2.74-1.82 5.454l-11.2-1.82c.923-4.75 2.935-8.18 6.038-10.29 3.103-2.11 7.054-3.164 11.854-3.164 5.334 0 9.37 1.067 12.11 3.2 2.74 2.134 4.11 5.6 4.11 10.4v17.31c0 2.278.568 3.672 1.708 4.18 1.14.51 2.75.595 4.836.256v8.8c-3.345.776-6.315.836-8.91.182-2.593-.655-4.35-2.582-5.272-5.782h-1.89a17.377 17.377 0 0 1-5.455 4.763c-2.134 1.188-4.68 1.782-7.637 1.782zM130.055 39.964l-8.22-29.746-8.29 29.746h16.51zM136.165 62l-5.02-17.89h-18.763L107.436 62h-4.58L119.58 3.818h4.654L140.964 62h-4.8zm-17.674 56.655c1.99 0 3.82-.51 5.492-1.528 1.673-1.018 3.163-2.618 4.473-4.8v-9.89h-10.328c-2.23 0-3.988.545-5.272 1.636-1.285 1.09-1.928 3.018-1.928 5.782 0 2.763.606 4.92 1.818 6.472 1.213 1.552 3.128 2.328 5.746 2.328zm-.654 4.072c-3.442 0-6.17-1.115-8.18-3.345-2.014-2.23-3.02-5.26-3.02-9.09 0-3.637.97-6.486 2.91-8.547 1.94-2.06 4.63-3.09 8.072-3.09h10.837V90c0-2.52-.716-4.533-2.146-6.036-1.43-1.503-3.407-2.255-5.928-2.255-2.715 0-4.703.593-5.964 1.78-1.26 1.19-2.23 3.383-2.91 6.583l-4-1.164c.777-3.928 2.183-6.79 4.22-8.583 2.036-1.794 4.896-2.69 8.58-2.69 3.783 0 6.85 1.03 9.2 3.09 2.353 2.06 3.528 5.006 3.528 8.837v21.745c0 3.005.485 4.98 1.455 5.926.97.946 2.668 1.128 5.092.546v4.363c-2.764.485-4.946.194-6.546-.872-1.6-1.067-2.52-2.958-2.763-5.673h-.8c-.97 2.085-2.52 3.794-4.655 5.127-2.133 1.334-4.46 2-6.982 2zM33.855 40.69L24.91 9.49l-9.092 31.2h18.037zM40.035 62l-5.308-18.327H14.945L9.635 62h-3.27L23.526 3.818h2.764L43.528 62h-3.49zm-18.253 57.818c2.085 0 3.963-.57 5.636-1.71 1.673-1.138 3.212-2.775 4.618-4.908v-11.345H20.982c-2.376 0-4.255.58-5.637 1.745-1.38 1.164-2.072 3.248-2.072 6.255 0 3.2.69 5.66 2.072 7.38 1.382 1.723 3.528 2.583 6.437 2.583zm-.364 2.91c-3.442 0-6.17-1.116-8.182-3.346-2.012-2.23-3.018-5.26-3.018-9.09 0-3.492.92-6.244 2.764-8.256 1.842-2.012 4.436-3.018 7.782-3.018h11.272v-9.6c0-2.763-.775-4.92-2.327-6.473-1.552-1.55-3.662-2.327-6.328-2.327-2.764 0-4.812.606-6.146 1.818-1.333 1.212-2.363 3.42-3.09 6.62l-2.91-.874c.825-3.782 2.17-6.485 4.037-8.11 1.866-1.624 4.545-2.436 8.036-2.436 3.635 0 6.545 1.055 8.726 3.164 2.182 2.11 3.273 4.982 3.273 8.618v21.673c0 3.54.472 5.868 1.417 6.983.946 1.115 2.655 1.382 5.128.8V122c-2.425.485-4.425.206-6-.836-1.576-1.043-2.46-2.897-2.655-5.564h-.51c-.97 2.133-2.496 3.855-4.58 5.164-2.086 1.31-4.316 1.963-6.692 1.963z"/></g></svg>