<?xml version="1.0" encoding="UTF-8" standalone="no"?>
<svg width="643px" height="131px" viewBox="0 0 643 131" version="1.1" xmlns="http://www.w3.org/2000/svg" xmlns:xlink="http://www.w3.org/1999/xlink" xmlns:sketch="http://www.bohemiancoding.com/sketch/ns">
    <!-- Generator: Sketch 3.5.1 (25234) - http://www.bohemiancoding.com/sketch -->
    <title>Artboard 1</title>
    <desc>Created with Sketch.</desc>
    <defs></defs>
    <g id="Page-1" stroke="none" stroke-width="1" fill="none" fill-rule="evenodd" sketch:type="MSPage">
        <g id="Artboard-1" sketch:type="MSArtboardGroup" fill="#359E91">
            <path d="M225.4,39.0181818 L217.763636,10.9454545 L210.2,39.0181818 L225.4,39.0181818 Z M231.654545,62 L226.781818,44.0363636 L208.818182,44.0363636 L203.945455,62 L198.2,62 L215,3.81818182 L220.890909,3.81818182 L237.618182,62 L231.654545,62 Z M213.981818,117.272727 C215.921222,117.272727 217.775749,116.800005 219.545455,115.854545 C221.31516,114.909086 222.781812,113.200012 223.945455,110.727273 L223.945455,103.018182 L214.272727,103.018182 C212.187868,103.018182 210.527279,103.527268 209.290909,104.545455 C208.054539,105.563641 207.436364,107.381805 207.436364,110 C207.436364,112.278799 207.957571,114.0606 209,115.345455 C210.042429,116.630309 211.703019,117.272727 213.981818,117.272727 L213.981818,117.272727 Z M213.327273,122.727273 C209.836346,122.727273 207.09698,121.624253 205.109091,119.418182 C203.121202,117.21211 202.127273,114.218201 202.127273,110.436364 C202.127273,106.654527 203.157565,103.660617 205.218182,101.454545 C207.278798,99.2484738 210.030286,98.1454545 213.472727,98.1454545 L223.945455,98.1454545 L223.945455,90.6545455 C223.945455,88.4242313 223.303037,86.5454622 222.018182,85.0181818 C220.733327,83.4909015 218.830316,82.7272727 216.309091,82.7272727 C213.593926,82.7272727 211.618188,83.3454484 210.381818,84.5818182 C209.145448,85.818188 208.212124,88.1090742 207.581818,91.4545455 L202.854545,89.7090909 C203.484852,85.6848284 204.890898,82.6666767 207.072727,80.6545455 C209.254556,78.6424142 212.284829,77.6363636 216.163636,77.6363636 C219.993959,77.6363636 223.169684,78.618172 225.690909,80.5818182 C228.212134,82.5454644 229.472727,85.5393738 229.472727,89.5636364 L229.472727,112.327273 C229.472727,114.460617 229.969692,115.890905 230.963636,116.618182 C231.957581,117.345458 233.642412,117.393943 236.018182,116.763636 L236.018182,122.363636 C232.818166,122.848487 230.454553,122.496976 228.927273,121.309091 C227.399992,120.121206 226.539395,118.169711 226.345455,115.454545 L225.254545,115.454545 C224.381814,117.539404 222.830314,119.27272 220.6,120.654545 C218.369686,122.036371 215.945468,122.727273 213.327273,122.727273 L213.327273,122.727273 Z" id="Aa" sketch:type="MSShapeGroup"></path>
            <path d="M320.818182,38.8727273 L313.763636,11.3818182 L306.636364,38.8727273 L320.818182,38.8727273 Z M326.781818,62 L322.345455,44.6909091 L305.109091,44.6909091 L300.672727,62 L294.127273,62 L310.2,3.81818182 L317.690909,3.81818182 L333.690909,62 L326.781818,62 Z M310.127273,116.836364 C311.969706,116.836364 313.727264,116.412125 315.4,115.563636 C317.072736,114.715147 318.442419,113.175769 319.509091,110.945455 L319.509091,103.236364 L310.272727,103.236364 C308.333324,103.236364 306.793945,103.733328 305.654545,104.727273 C304.515146,105.721217 303.945455,107.454533 303.945455,109.927273 C303.945455,112.109102 304.442419,113.806055 305.436364,115.018182 C306.430308,116.230309 307.993929,116.836364 310.127273,116.836364 L310.127273,116.836364 Z M309.036364,122.727273 C305.545437,122.727273 302.781828,121.624253 300.745455,119.418182 C298.709081,117.21211 297.690909,114.193959 297.690909,110.363636 C297.690909,106.581799 298.745444,103.58789 300.854545,101.381818 C302.963647,99.1757465 305.787861,98.0727273 309.327273,98.0727273 L319.509091,98.0727273 L319.509091,90.8 C319.509091,88.666656 318.903036,86.8848556 317.690909,85.4545455 C316.478782,84.0242353 314.68486,83.3090909 312.309091,83.3090909 C309.739381,83.3090909 307.872733,83.9030244 306.709091,85.0909091 C305.545449,86.2787938 304.648488,88.4727113 304.018182,91.6727273 L298.418182,89.9272727 C299.096973,85.80604 300.587867,82.7272829 302.890909,80.6909091 C305.193951,78.6545353 308.357556,77.6363636 312.381818,77.6363636 C316.406081,77.6363636 319.690896,78.6302931 322.236364,80.6181818 C324.781831,82.6060705 326.054545,85.6848276 326.054545,89.8545455 L326.054545,111.672727 C326.054545,113.854556 326.55151,115.284845 327.545455,115.963636 C328.539399,116.642428 330.224231,116.690912 332.6,116.109091 L332.6,122.290909 C329.399984,122.77576 326.963645,122.472733 325.290909,121.381818 C323.618173,120.290904 322.636365,118.36365 322.345455,115.6 L321.109091,115.6 C320.187874,117.684859 318.612132,119.393933 316.381818,120.727273 C314.151504,122.060613 311.703044,122.727273 309.036364,122.727273 L309.036364,122.727273 Z" id="Aa-Copy-2" sketch:type="MSShapeGroup"></path>
            <path d="M415.927273,38.5090909 L410.545455,13.0545455 L405.090909,38.5090909 L415.927273,38.5090909 Z M420.945455,62 L417.6,46.2181818 L403.418182,46.2181818 L400.072727,62 L390.836364,62 L404.654545,3.81818182 L417.309091,3.81818182 L430.981818,62 L420.945455,62 Z M409.890909,115.745455 C411.393947,115.745455 412.812115,115.430306 414.145455,114.8 C415.478795,114.169694 416.606056,113.078796 417.527273,111.527273 L417.527273,103.818182 L409.672727,103.818182 C408.26666,103.818182 407.139398,104.24242 406.290909,105.090909 C405.44242,105.939398 405.018182,107.478777 405.018182,109.709091 C405.018182,111.648495 405.418178,113.139389 406.218182,114.181818 C407.018186,115.224248 408.242416,115.745455 409.890909,115.745455 L409.890909,115.745455 Z M407.490909,122.727273 C403.806042,122.727273 400.921223,121.624253 398.836364,119.418182 C396.751505,117.21211 395.709091,114.145474 395.709091,110.218182 C395.709091,106.290889 396.824231,103.248496 399.054545,101.090909 C401.28486,98.9333225 404.315132,97.8545455 408.145455,97.8545455 L417.527273,97.8545455 L417.527273,91.0909091 C417.527273,89.1515055 417.018187,87.6000058 416,86.4363636 C414.981813,85.2727215 413.50304,84.6909091 411.563636,84.6909091 C409.527263,84.6909091 408.036368,85.212116 407.090909,86.2545455 C406.14545,87.2969749 405.406063,89.2969549 404.872727,92.2545455 L396.436364,90.5090909 C397.212125,86.0484625 398.969683,82.7878891 401.709091,80.7272727 C404.448499,78.6666564 407.999978,77.6363636 412.363636,77.6363636 C417.06669,77.6363636 420.739381,78.6545353 423.381818,80.6909091 C426.024256,82.7272829 427.345455,85.9999775 427.345455,90.5090909 L427.345455,110.072727 C427.345455,112.303041 427.878783,113.721209 428.945455,114.327273 C430.012127,114.933336 431.660595,114.993942 433.890909,114.509091 L433.890909,122.072727 C430.593923,122.703033 427.89092,122.569701 425.781818,121.672727 C423.672717,120.775753 422.303033,118.8485 421.672727,115.890909 L420.072727,115.890909 C418.8606,117.927283 417.163647,119.575751 414.981818,120.836364 C412.799989,122.096976 410.303044,122.727273 407.490909,122.727273 L407.490909,122.727273 Z" id="Aa-Copy-3" sketch:type="MSShapeGroup"></path>
            <path d="M511.2,38.4363636 L506.472727,13.8545455 L501.6,38.4363636 L511.2,38.4363636 Z M515.781818,62 L512.872727,46.8727273 L500,46.8727273 L497.018182,62 L486.690909,62 L499.563636,3.81818182 L514.327273,3.81818182 L527.127273,62 L515.781818,62 Z M506.109091,115.381818 C507.466673,115.381818 508.739388,115.103033 509.927273,114.545455 C511.115157,113.987876 512.121208,113.078794 512.945455,111.818182 L512.945455,104.036364 L505.745455,104.036364 C504.533327,104.036364 503.56364,104.448481 502.836364,105.272727 C502.109087,106.096974 501.745455,107.551505 501.745455,109.636364 C501.745455,111.478797 502.096966,112.896965 502.8,113.890909 C503.503034,114.884853 504.606053,115.381818 506.109091,115.381818 L506.109091,115.381818 Z M503.127273,122.727273 C499.345436,122.727273 496.400011,121.612132 494.290909,119.381818 C492.181808,117.151504 491.127273,114.072747 491.127273,110.145455 C491.127273,106.218162 492.278776,103.175768 494.581818,101.018182 C496.88486,98.8605953 499.99998,97.7818182 503.927273,97.7818182 L512.945455,97.7818182 L512.945455,91.2363636 C512.945455,89.3454451 512.484853,87.8787931 511.563636,86.8363636 C510.64242,85.7939342 509.3091,85.2727273 507.563636,85.2727273 C505.721203,85.2727273 504.363641,85.769692 503.490909,86.7636364 C502.618177,87.7575807 501.939396,89.6848342 501.454545,92.5454545 L491.927273,90.7272727 C492.751519,86.1696742 494.606046,82.8484953 497.490909,80.7636364 C500.375772,78.6787775 504.096947,77.6363636 508.654545,77.6363636 C513.600025,77.6363636 517.406047,78.6787775 520.072727,80.7636364 C522.739407,82.8484953 524.072727,86.1939164 524.072727,90.8 L524.072727,109.490909 C524.072727,111.721223 524.630297,113.12727 525.745455,113.709091 C526.860612,114.290912 528.484838,114.363639 530.618182,113.927273 L530.618182,121.927273 C527.321196,122.654549 524.521224,122.618186 522.218182,121.818182 C519.91514,121.018178 518.400004,119.090924 517.672727,116.036364 L515.927273,116.036364 C514.618175,118.024252 512.884859,119.636357 510.727273,120.872727 C508.569686,122.109097 506.036378,122.727273 503.127273,122.727273 L503.127273,122.727273 Z" id="Aa-Copy-4" sketch:type="MSShapeGroup"></path>
            <path d="M607.109091,38.2181818 L603.327273,15.3090909 L599.4,38.2181818 L607.109091,38.2181818 Z M611.109091,62 L608.709091,47.8181818 L597.8,47.8181818 L595.4,62 L583.545455,62 L595.036364,3.81818182 L612.927273,3.81818182 L624.272727,62 L611.109091,62 Z M604.345455,114.727273 C605.460612,114.727273 606.515147,114.521214 607.509091,114.109091 C608.503035,113.696968 609.387875,113.05455 610.163636,112.181818 L610.163636,104.4 L603.763636,104.4 C602.84242,104.4 602.115154,104.763633 601.581818,105.490909 C601.048482,106.218185 600.781818,107.551505 600.781818,109.490909 C600.781818,111.236372 601.072724,112.54545 601.654545,113.418182 C602.236367,114.290913 603.133327,114.727273 604.345455,114.727273 L604.345455,114.727273 Z M600.636364,122.727273 C596.757556,122.727273 593.739405,121.612132 591.581818,119.381818 C589.424232,117.151504 588.345455,114.048505 588.345455,110.072727 C588.345455,106.048465 589.5212,102.969708 591.872727,100.836364 C594.224254,98.7030196 597.484828,97.6363636 601.654545,97.6363636 L610.163636,97.6363636 L610.163636,91.3818182 C610.163636,89.5878698 609.76364,88.2545498 608.963636,87.3818182 C608.163632,86.5090865 607.012129,86.0727273 605.509091,86.0727273 C604.006053,86.0727273 602.890913,86.5333287 602.163636,87.4545455 C601.43636,88.3757622 600.830305,90.1939258 600.345455,92.9090909 L589.145455,91.0909091 C590.066671,86.3393702 592.078772,82.9091015 595.181818,80.8 C598.284864,78.6908985 602.23634,77.6363636 607.036364,77.6363636 C612.369724,77.6363636 616.406047,78.7030196 619.145455,80.8363636 C621.884862,82.9697076 623.254545,86.4363396 623.254545,91.2363636 L623.254545,108.545455 C623.254545,110.824254 623.824237,112.218179 624.963636,112.727273 C626.103036,113.236366 627.715141,113.321214 629.8,112.981818 L629.8,121.781818 C626.454529,122.55758 623.484861,122.618185 620.890909,121.963636 C618.296957,121.309088 616.539399,119.381834 615.618182,116.181818 L613.727273,116.181818 C612.224235,118.169707 610.406071,119.75757 608.272727,120.945455 C606.139383,122.133339 603.593954,122.727273 600.636364,122.727273 L600.636364,122.727273 Z" id="Aa-Copy-5" sketch:type="MSShapeGroup"></path>
            <path d="M130.054545,39.9636364 L121.836364,10.2181818 L113.545455,39.9636364 L130.054545,39.9636364 Z M136.163636,62 L131.145455,44.1090909 L112.381818,44.1090909 L107.436364,62 L102.854545,62 L119.581818,3.81818182 L124.236364,3.81818182 L140.963636,62 L136.163636,62 Z M118.490909,118.654545 C120.478798,118.654545 122.309083,118.14546 123.981818,117.127273 C125.654554,116.109086 127.145448,114.509102 128.454545,112.327273 L128.454545,102.436364 L118.127273,102.436364 C115.896959,102.436364 114.1394,102.981813 112.854545,104.072727 C111.569691,105.163642 110.927273,107.090895 110.927273,109.854545 C110.927273,112.618196 111.533327,114.77575 112.745455,116.327273 C113.957582,117.878796 115.872714,118.654545 118.490909,118.654545 L118.490909,118.654545 Z M117.836364,122.727273 C114.393922,122.727273 111.666677,121.612132 109.654545,119.381818 C107.642414,117.151504 106.636364,114.121231 106.636364,110.290909 C106.636364,106.654527 107.606051,103.806071 109.545455,101.745455 C111.484858,99.6848382 114.17574,98.6545455 117.618182,98.6545455 L128.454545,98.6545455 L128.454545,90 C128.454545,87.4787753 127.739401,85.4666742 126.309091,83.9636364 C124.878781,82.4605985 122.903043,81.7090909 120.381818,81.7090909 C117.666653,81.7090909 115.678794,82.3030244 114.418182,83.4909091 C113.157569,84.6787938 112.187882,86.8727113 111.509091,90.0727273 L107.509091,88.9090909 C108.284852,84.9817985 109.690899,82.1212211 111.727273,80.3272727 C113.763647,78.5333244 116.624224,77.6363636 120.309091,77.6363636 C124.090928,77.6363636 127.157564,78.6666564 129.509091,80.7272727 C131.860618,82.7878891 133.036364,85.7333142 133.036364,89.5636364 L133.036364,111.309091 C133.036364,114.315167 133.521207,116.290904 134.490909,117.236364 C135.460611,118.181823 137.157564,118.363639 139.581818,117.781818 L139.581818,122.145455 C136.818168,122.630305 134.636372,122.339399 133.036364,121.272727 C131.436356,120.206055 130.515153,118.315165 130.272727,115.6 L129.472727,115.6 C128.503025,117.684859 126.951526,119.393933 124.818182,120.727273 C122.684838,122.060613 120.357588,122.727273 117.836364,122.727273 L117.836364,122.727273 Z" id="Aa" sketch:type="MSShapeGroup"></path>
            <path d="M33.8545455,40.6909091 L24.9090909,9.49090909 L15.8181818,40.6909091 L33.8545455,40.6909091 Z M40.0363636,62 L34.7272727,43.6727273 L14.9454545,43.6727273 L9.63636364,62 L6.36363636,62 L23.5272727,3.81818182 L26.2909091,3.81818182 L43.5272727,62 L40.0363636,62 Z M21.7818182,119.818182 C23.8666771,119.818182 25.7454462,119.248491 27.4181818,118.109091 C29.0909175,116.969691 30.630296,115.333344 32.0363636,113.2 L32.0363636,101.854545 L20.9818182,101.854545 C18.6060487,101.854545 16.7272796,102.436358 15.3454545,103.6 C13.9636295,104.763642 13.2727273,106.84847 13.2727273,109.854545 C13.2727273,113.054561 13.9636295,115.515143 15.3454545,117.236364 C16.7272796,118.957584 18.8727127,119.818182 21.7818182,119.818182 L21.7818182,119.818182 Z M21.4181818,122.727273 C17.9757404,122.727273 15.2484949,121.612132 13.2363636,119.381818 C11.2242324,117.151504 10.2181818,114.121231 10.2181818,110.290909 C10.2181818,106.799983 11.1393847,104.048495 12.9818182,102.036364 C14.8242516,100.024232 17.4181651,99.0181818 20.7636364,99.0181818 L32.0363636,99.0181818 L32.0363636,89.4181818 C32.0363636,86.6545316 31.2606138,84.4969775 29.7090909,82.9454545 C28.157568,81.3939316 26.0484982,80.6181818 23.3818182,80.6181818 C20.618168,80.6181818 18.5697036,81.2242364 17.2363636,82.4363636 C15.9030236,83.6484909 14.8727309,85.8545295 14.1454545,89.0545455 L11.2363636,88.1818182 C12.0606102,84.3999811 13.4060513,81.6969778 15.2727273,80.0727273 C17.1394033,78.4484767 19.8181644,77.6363636 23.3090909,77.6363636 C26.9454727,77.6363636 29.8545345,78.6908985 32.0363636,80.8 C34.2181927,82.9091015 35.3090909,85.7818 35.3090909,89.4181818 L35.3090909,111.090909 C35.3090909,114.630321 35.7818135,116.95757 36.7272727,118.072727 C37.672732,119.187884 39.3818058,119.454548 41.8545455,118.872727 L41.8545455,122 C39.4302909,122.484851 37.4303109,122.206066 35.8545455,121.163636 C34.27878,120.121207 33.3939404,118.26668 33.2,115.6 L32.6909091,115.6 C31.7212073,117.733344 30.1939498,119.454539 28.1090909,120.763636 C26.024232,122.072734 23.7939513,122.727273 21.4181818,122.727273 L21.4181818,122.727273 Z" id="Aa-Copy" sketch:type="MSShapeGroup"></path>
        </g>
    </g>
</svg>