<svg width="601" height="153" viewBox="0 0 601 153" xmlns="http://www.w3.org/2000/svg"><title>SVG</title><g fill-opacity=".22" fill="#000" fill-rule="evenodd"><path d="M452.436 123V12.455h65.5v18.24h-40.627v24.043h35.512v18.24H477.31v31.782h40.625V123h-65.5zm147.137-19.207c-1.843 6.356-5.712 11.377-11.608 15.062-5.895 3.684-13.127 5.527-21.694 5.527-10.132 0-18.055-2.672-23.766-8.015-5.712-5.343-8.568-12.712-8.568-22.11v-25.84c0-9.303 2.948-16.58 8.844-21.832 5.896-5.25 14.048-7.876 24.458-7.876 10.318 0 18.4 2.67 24.25 8.014 5.85 5.343 8.776 12.712 8.776 22.11v17.41H558.81v8.014c0 5.527.69 9.327 2.072 11.4 1.382 2.073 3.96 3.11 7.738 3.11 2.856 0 5.067-.738 6.633-2.212 1.566-1.474 3.086-4.19 4.56-8.152l19.76 5.39zM558.81 68.556v4.837h16.58V68.97c0-5.803-.598-9.787-1.795-11.952-1.198-2.165-3.363-3.247-6.495-3.247s-5.297 1.037-6.495 3.11c-1.197 2.073-1.796 5.965-1.796 11.676zM276.036 123h-24.872V81.545l-30.262-69.09h25.702l17.41 49.054 18.102-49.055h24.182l-30.262 69.09V123zm51.515 29.156c-3.04 0-6.378-.138-10.017-.414-3.64-.277-7.577-.69-11.815-1.244l.83-17.273c3.224.46 6.102.83 8.636 1.106 2.533.277 4.813.415 6.84.415 6.08 0 10.202-1.22 12.367-3.66 2.166-2.443 3.617-5.874 4.354-10.296l.276-1.66h-18.655L304.06 40.09h23.905l12.99 67.986 11.47-67.985h23.213l-14.51 81.943c-1.84 10.41-5.503 18.032-10.984 22.87-5.482 4.835-13.012 7.253-22.593 7.253zM64.138 140.327c-14.647 2.303-24.965 1.083-30.953-3.662-5.987-4.744-8.843-14.07-8.567-27.98-7.738-2.12-13.703-6.127-17.894-12.023C2.532 90.766.436 83.396.436 74.552v-38c0-11.33 3.34-20.243 10.02-26.737C17.132 3.32 26.598.073 38.85.073c12.345 0 21.81 3.247 28.397 9.742 6.587 6.494 9.88 15.407 9.88 26.738v38c0 10.686-3.017 19.16-9.05 25.425-6.035 6.264-14.58 9.72-25.633 10.364.368 5.803 1.934 9.488 4.698 11.054 2.763 1.566 7.646 1.474 14.647-.276l2.348 19.207zM38.85 93.207c5.344 0 8.914-1.36 10.71-4.076 1.796-2.717 2.695-8.22 2.695-16.512v-34.13c0-8.015-.9-13.38-2.695-16.1-1.796-2.716-5.366-4.075-10.71-4.075-5.434 0-9.05 1.36-10.846 4.076-1.797 2.717-2.695 8.083-2.695 16.097v34.13c0 8.292.897 13.796 2.694 16.514 1.796 2.718 5.412 4.077 10.847 4.077zm94.905 46.43v-39.66h-3.04c-1.106 4.423-3.18 7.762-6.22 10.02-3.04 2.256-7 3.385-11.882 3.385-6.725 0-11.792-2.35-15.2-7.047-3.41-4.7-5.113-11.654-5.113-20.866V56.59c0-9.397 2.833-16.49 8.498-21.28 5.666-4.79 14.118-7.186 25.357-7.186 6.54 0 12.62.967 18.24 2.9 5.62 1.936 10.363 4.654 14.232 8.154v100.458h-24.872zm-9.95-44.633c1.474 0 3.156-.46 5.044-1.382 1.888-.92 3.523-2.58 4.905-4.975v-40.21c-.922-.922-2.165-1.682-3.73-2.28-1.567-.6-3.41-.9-5.53-.9-2.762 0-4.674.853-5.733 2.558-1.06 1.704-1.59 4.72-1.59 9.05v26.67c0 4.145.623 7.093 1.866 8.843 1.244 1.75 2.833 2.626 4.767 2.626z"/><path d="M454.436 123V12.455h62.597v16.03h-41.455v26.944h36.204v16.166h-36.204v35.375h41.455V123h-62.597zm140.09-18.793c-1.935 6.45-5.666 11.423-11.193 14.924-5.528 3.502-12.298 5.252-20.313 5.252-9.58 0-17.11-2.626-22.593-7.877-5.48-5.25-8.222-12.482-8.222-21.694V68.143c0-9.212 2.787-16.42 8.36-21.626 5.574-5.205 13.29-7.807 23.146-7.807 9.674 0 17.274 2.67 22.8 8.014 5.528 5.343 8.292 12.712 8.292 22.11v16.72h-41.455v9.257c0 5.805.852 9.812 2.557 12.023 1.704 2.21 4.63 3.316 8.774 3.316 3.5 0 6.126-.784 7.877-2.35 1.75-1.566 3.316-4.376 4.698-8.43l17.272 4.837zm-41.18-35.927v5.25h20.314v-4.56c0-6.08-.76-10.34-2.28-12.78-1.52-2.442-4.122-3.663-7.807-3.663-3.685 0-6.31 1.175-7.877 3.524-1.566 2.35-2.35 6.426-2.35 12.23zM274.305 123h-21.14V81.545l-30.125-69.09h22.11l19.068 51.403 19.346-51.403h20.865l-30.125 69.09V123zm48.475 28.88c-2.672 0-5.596-.138-8.775-.415-3.178-.276-6.61-.644-10.294-1.105l.968-15.476c2.856.46 5.458.83 7.807 1.105 2.35.275 4.4.414 6.15.414 5.527 0 9.373-1.22 11.538-3.662 2.165-2.44 3.708-5.965 4.63-10.57l.275-1.66h-14.923l-17.826-80.42h20.726l14.095 69.366 12.99-69.367h20.036l-16.72 85.12c-2.026 9.397-5.55 16.19-10.57 20.383-5.02 4.19-11.723 6.287-20.106 6.287zM65.724 139.636c-13.45 2.303-23.1 1.152-28.95-3.454-5.85-4.606-8.728-13.266-8.636-25.978-8.29-1.66-14.647-5.482-19.07-11.47-4.42-5.987-6.632-13.772-6.632-23.352v-38.69c0-11.516 3.18-20.498 9.535-26.947C18.328 3.297 27.356.073 39.056.073c11.7 0 20.68 3.224 26.945 9.672 6.264 6.45 9.396 15.43 9.396 26.946v38.692c0 10.502-2.694 18.862-8.083 25.08-5.39 6.218-13.15 9.788-23.284 10.71.368 5.895 2.003 9.74 4.905 11.537 2.9 1.795 7.807 1.865 14.716.206l2.074 16.72zM39.054 96.11c5.804 0 9.788-1.567 11.953-4.7 2.165-3.13 3.248-8.935 3.248-17.41V38.073c0-8.383-1.083-14.14-3.248-17.273-2.165-3.132-6.15-4.698-11.952-4.698-5.896 0-9.95 1.566-12.16 4.698-2.21 3.132-3.317 8.89-3.317 17.273V74c0 8.475 1.106 14.28 3.317 17.41 2.21 3.133 6.264 4.7 12.16 4.7zm92.97 43.526v-39.243h-3.04c-1.198 4.237-3.363 7.462-6.495 9.672-3.133 2.21-7.048 3.317-11.746 3.317-6.633 0-11.654-2.395-15.062-7.186-3.41-4.79-5.113-11.79-5.113-21.003V56.59c0-9.305 2.763-16.398 8.29-21.28 5.527-4.883 13.45-7.325 23.767-7.325 6.08 0 11.77.876 17.066 2.626 5.297 1.75 9.788 4.192 13.472 7.325v101.7h-21.14zm-12.16-42.698c2.118 0 4.26-.622 6.425-1.865 2.164-1.244 4.075-3.386 5.734-6.426v-41.87c-1.198-1.104-2.695-1.956-4.49-2.555-1.798-.6-3.847-.898-6.15-.898-3.225 0-5.643 1.013-7.255 3.04-1.613 2.026-2.42 5.527-2.42 10.5v26.532c0 4.79.715 8.245 2.143 10.364 1.428 2.12 3.43 3.178 6.01 3.178z"/><g><path d="M459.68 123V12.455h60.662v14.647h-41.87v28.742h36.62V70.63h-36.62v37.723h41.87V123H459.68zm137.878-18.655c-1.934 6.633-5.527 11.63-10.778 14.993-5.25 3.363-11.745 5.044-19.484 5.044-9.304 0-16.604-2.603-21.9-7.807-5.298-5.205-7.947-12.368-7.947-21.488V68.004c0-9.12 2.694-16.283 8.083-21.488 5.39-5.205 12.78-7.807 22.178-7.807 9.305 0 16.63 2.67 21.972 8.014 5.343 5.343 8.014 12.712 8.014 22.11V85h-41.454v10.087c0 5.896.944 10.04 2.833 12.437 1.888 2.395 5.043 3.592 9.465 3.592 3.87 0 6.748-.83 8.636-2.487 1.89-1.66 3.478-4.56 4.768-8.706l15.614 4.42zm-41.316-36.203v5.527h22.662v-4.7c0-6.17-.876-10.593-2.626-13.265-1.75-2.67-4.652-4.007-8.705-4.007-4.054 0-6.955 1.267-8.706 3.8-1.75 2.534-2.625 6.748-2.625 12.644zM276.2 123h-18.793V81.545l-29.985-69.09h19.76l20.036 53.06 20.175-53.06h18.654L276.2 81.545V123zm48.75 28.742c-2.486 0-5.158-.138-8.014-.415a225.494 225.494 0 0 1-9.258-1.105l1.244-14.233c2.58.46 4.95.828 7.116 1.105 2.165.276 4.077.414 5.735.414 5.066 0 8.682-1.222 10.847-3.663 2.165-2.44 3.846-6.01 5.044-10.71l.276-1.657h-12.575l-18.792-81.39h18.516l15.06 70.335 13.957-70.334h17.964l-18.377 87.194c-2.21 8.843-5.666 15.13-10.364 18.86-4.7 3.732-10.825 5.598-18.38 5.598zM70.83 139.222c-12.714 2.21-21.972 1.082-27.775-3.386-5.804-4.468-8.706-12.643-8.706-24.527-8.568-1.383-15.155-5.114-19.76-11.194-4.607-6.08-6.91-14.14-6.91-24.18V36.828c0-11.7 3.063-20.75 9.19-27.154C22.994 3.274 31.723.073 43.054.073c11.33 0 20.036 3.2 26.116 9.603 6.08 6.403 9.12 15.454 9.12 27.153v39.105c0 10.41-2.532 18.7-7.6 24.872-5.066 6.172-12.297 9.81-21.694 10.917.37 6.08 2.073 10.087 5.113 12.02 3.04 1.936 7.92 2.074 14.646.416l2.073 15.062zM43.054 97.905c6.08 0 10.34-1.68 12.78-5.043C58.28 89.5 59.5 83.535 59.5 74.967v-37.17c0-8.568-1.22-14.556-3.662-17.964-2.44-3.41-6.7-5.113-12.78-5.113-6.174 0-10.48 1.704-12.92 5.113-2.443 3.408-3.663 9.396-3.663 17.963v37.17c0 8.57 1.22 14.533 3.662 17.896 2.44 3.362 6.747 5.043 12.92 5.043zm94.212 41.73v-39.104h-3.04c-1.197 4.146-3.362 7.325-6.494 9.535-3.132 2.21-7.048 3.317-11.746 3.317-6.54 0-11.538-2.44-14.992-7.324-3.455-4.882-5.182-11.93-5.182-21.142V56.59c0-9.305 2.717-16.42 8.152-21.35 5.436-4.93 12.99-7.393 22.662-7.393 5.804 0 11.262.806 16.375 2.418 5.113 1.613 9.465 3.847 13.058 6.702v102.67h-18.793zm-13.68-41.453c2.58 0 5.044-.76 7.393-2.28 2.35-1.52 4.445-3.984 6.287-7.393V45.534c-1.382-1.198-3.017-2.096-4.905-2.695-1.89-.6-4.077-.898-6.564-.898-3.685 0-6.47 1.15-8.36 3.454-1.888 2.303-2.833 6.126-2.833 11.47v26.53c0 5.25.76 9.028 2.28 11.33 1.52 2.304 3.754 3.456 6.702 3.456z"/></g><g><path d="M458.436 123V12.455h55.688V23.51H471.01v33.577h37.863V68.28H471.01v43.665h43.114V123h-55.688zm123.646-17.964c-2.027 6.817-5.32 11.746-9.88 14.786-4.56 3.04-10.34 4.56-17.342 4.56-8.567 0-15.246-2.51-20.036-7.53-4.79-5.022-7.186-12-7.186-20.936v-28.19c0-9.12 2.395-16.235 7.186-21.348 4.79-5.113 11.423-7.67 19.898-7.67s15.085 2.673 19.83 8.016c4.743 5.343 7.115 12.712 7.115 22.11v15.06h-41.454v12.16c0 6.265 1.22 10.733 3.662 13.404 2.44 2.672 6.195 4.007 11.26 4.007 4.7 0 8.177-.944 10.434-2.832 2.256-1.89 3.937-4.952 5.043-9.19l11.47 3.593zm-41.87-37.31v6.358h28.88V69.11c0-6.634-1.174-11.54-3.523-14.717-2.35-3.178-6.012-4.768-10.986-4.768-4.883 0-8.5 1.497-10.848 4.49-2.35 2.995-3.523 7.532-3.523 13.612zM268.738 123h-12.574V81.545l-29.71-69.09h13.68l22.8 57.07 22.11-57.07h13.265l-29.572 69.09V123zm41.15 28.327c-1.84 0-3.822-.138-5.94-.414-2.12-.277-4.33-.6-6.633-.968l1.658-11.33c2.026.46 3.892.83 5.596 1.105 1.703.276 3.246.415 4.628.415 4.146 0 7.3-1.198 9.466-3.593 2.164-2.395 3.984-6.126 5.458-11.193l.276-1.52h-6.494l-21.142-83.74h13.127l16.995 72.823L343.33 40.09h12.712l-22.11 92.445c-2.58 7.093-5.85 11.998-9.81 14.716-3.96 2.718-8.706 4.077-14.233 4.077zM68.895 137.978c-10.687 2.027-18.862.99-24.528-3.11-5.665-4.098-8.59-11.076-8.774-20.933-9.49-.645-16.72-4.077-21.695-10.295-4.974-6.218-7.462-14.947-7.462-26.185v-40.21c0-12.07 2.787-21.28 8.36-27.638C20.37 3.25 28.36.073 38.77.073c10.41 0 18.356 3.178 23.837 9.534 5.482 6.357 8.222 15.57 8.222 27.637v40.21c0 10.134-2.028 18.24-6.08 24.32-4.054 6.08-9.95 9.904-17.688 11.47.368 6.172 2.21 10.41 5.527 12.712 3.315 2.303 8.198 2.672 14.646 1.106l1.66 10.916zm-30.262-35.236c6.91 0 11.906-2.004 14.992-6.01 3.087-4.008 4.63-10.48 4.63-19.416V37.244c0-9.213-1.543-15.868-4.63-19.968-3.086-4.1-8.083-6.15-14.992-6.15-6.91 0-11.907 2.05-14.993 6.15-3.086 4.1-4.63 10.755-4.63 19.968v40.072c0 8.936 1.544 15.408 4.63 19.415 3.086 4.008 8.084 6.012 14.993 6.012zm88.823 36.894v-38.414h-3.04c-1.38 3.87-3.684 6.863-6.91 8.982-3.223 2.118-7.092 3.178-11.606 3.178-6.264 0-11.147-2.533-14.647-7.6s-5.25-12.16-5.25-21.28V56.59c0-9.12 2.555-16.237 7.668-21.35 5.114-5.113 11.815-7.67 20.106-7.67 4.975 0 9.788.646 14.44 1.935 4.653 1.29 8.59 3.087 11.815 5.39v104.74h-12.574zm-17.41-38.138c3.684 0 6.932-1.036 9.74-3.11 2.81-2.072 5.367-5.365 7.67-9.88V42.772a17.405 17.405 0 0 0-6.15-3.177c-2.256-.645-4.812-.968-7.668-.968-4.514 0-8.153 1.45-10.916 4.353-2.764 2.902-4.146 7.53-4.146 13.887v26.393c0 6.357.922 10.986 2.764 13.887 1.842 2.902 4.744 4.353 8.705 4.353z"/></g><g><path d="M459.404 123V12.455h54.167v9.672h-43.388v35.375h38.138v9.81h-38.138v46.015h43.39V123h-54.168zm121.987-17.687c-2.026 6.91-5.227 11.814-9.603 14.716-4.376 2.9-9.972 4.352-16.79 4.352-8.29 0-14.76-2.487-19.413-7.462-4.653-4.975-6.98-11.884-6.98-20.727V67.59c0-9.03 2.304-16.1 6.91-21.212 4.607-5.113 11.01-7.67 19.208-7.67 8.2 0 14.6 2.673 19.207 8.016 4.605 5.343 6.908 12.712 6.908 22.11V83.48h-41.454v12.99c0 6.355 1.29 10.938 3.87 13.748 2.578 2.81 6.493 4.215 11.744 4.215 4.975 0 8.66-.99 11.055-2.97 2.395-1.982 4.1-5.137 5.112-9.467l10.226 3.317zM539.385 67.59v6.632h30.676V69.11c0-6.726-1.267-11.792-3.8-15.2-2.533-3.41-6.425-5.114-11.676-5.114-5.067 0-8.867 1.59-11.4 4.768-2.534 3.178-3.8 7.853-3.8 14.025zM271.91 123h-10.78V81.545l-29.57-69.09h11.884l23.49 58.59 22.8-58.59h11.608l-29.433 69.09V123zm41.426 28.19c-1.75 0-3.57-.14-5.458-.415-1.888-.277-3.8-.6-5.734-.968l1.796-10.087c1.75.46 3.432.83 5.044 1.105 1.612.277 3.063.415 4.352.415 3.87 0 6.863-1.175 8.982-3.524 2.12-2.35 4.007-6.15 5.666-11.4l.276-1.52h-4.698L301.73 40.09h11.468l17.687 73.79 17.135-73.79h11.193l-23.353 94.517c-2.58 6.357-5.735 10.71-9.465 13.058-3.73 2.35-8.084 3.524-13.06 3.524zM74.724 137.564c-3.5.737-6.68 1.06-9.535.967-5.897.093-11.078-1.542-15.546-4.905-4.468-3.362-6.932-9.557-7.393-18.585-9.672-.368-17.065-3.708-22.177-10.018-5.113-6.31-7.67-15.315-7.67-27.015V37.382c0-12.16 2.695-21.418 8.084-27.775C25.877 3.25 33.637.073 43.77.073c10.134 0 17.872 3.178 23.215 9.534C72.33 15.964 75 25.222 75 37.382v40.625c0 10.042-1.888 18.08-5.665 24.113-3.777 6.034-9.26 9.926-16.444 11.676.554 6.265 2.143 10.387 4.768 12.368 2.626 1.98 5.597 2.97 8.913 2.97 2.028 0 4.192-.276 6.495-.83l1.66 9.26zm-31.09-32.888c7.184 0 12.412-2.118 15.682-6.356 3.27-4.238 4.906-10.916 4.906-20.036V36.967c0-9.396-1.635-16.282-4.906-20.658-3.27-4.377-8.498-6.565-15.683-6.565-7.094 0-12.275 2.188-15.546 6.564-3.27 4.375-4.905 11.26-4.905 20.657v41.317c0 9.12 1.635 15.798 4.905 20.036 3.27 4.238 8.452 6.356 15.546 6.356zm89.79 34.96v-38.138h-3.04c-1.474 3.685-3.823 6.587-7.048 8.706-3.224 2.118-7.047 3.178-11.47 3.178-6.17 0-11.03-2.557-14.577-7.67-3.548-5.112-5.32-12.228-5.32-21.348V56.59c0-9.12 2.532-16.26 7.6-21.42 5.066-5.158 11.468-7.737 19.206-7.737 4.79 0 9.443.575 13.957 1.727 4.514 1.152 8.337 2.787 11.47 4.905v105.57h-10.78zm-18.517-36.894c4.054 0 7.53-1.152 10.433-3.455 2.902-2.303 5.596-5.895 8.084-10.778V41.664c-2.027-1.566-4.192-2.694-6.495-3.385-2.304-.69-4.975-1.036-8.015-1.036-4.7 0-8.568 1.59-11.608 4.767-3.04 3.18-4.56 8.13-4.56 14.855v26.393c0 6.725.945 11.653 2.833 14.786 1.888 3.132 4.998 4.698 9.327 4.698z"/></g><g><path d="M460.37 123V12.455h52.095v7.876h-43.39v38.277h38.278v7.877h-38.277v48.64h43.39V123H460.37zm119.363-16.996c-1.75 6.356-4.606 11.008-8.568 13.956-3.96 2.948-9.304 4.422-16.03 4.422-8.013 0-14.277-2.464-18.79-7.393-4.515-4.93-6.772-12-6.772-21.212V67.865c0-9.488 2.257-16.72 6.77-21.694 4.515-4.974 10.64-7.46 18.38-7.46 7.737 0 13.84 2.555 18.308 7.668 4.47 5.113 6.703 12.598 6.703 22.455v14.094h-41.455v12.99c0 7.277 1.405 12.55 4.215 15.82 2.81 3.272 7.07 4.907 12.782 4.907 4.974 0 8.613-.968 10.916-2.902 2.304-1.935 4.1-5.343 5.39-10.226l8.153 2.488zm-41.455-38.14v7.74h32.75V69.11c0-7.74-1.36-13.45-4.077-17.135-2.717-3.685-6.793-5.528-12.228-5.528-5.527 0-9.65 1.75-12.367 5.25-2.718 3.502-4.077 8.89-4.077 16.168zM270.804 123h-8.706V81.545l-29.71-69.09h9.674l24.734 59.418 24.182-59.418h9.397l-29.57 69.09V123zm42.118 28.465a32.76 32.76 0 0 1-4.63-.345c-1.61-.23-3.34-.53-5.18-.898l1.243-7.877a87.44 87.44 0 0 0 4.56.9c1.38.23 2.855.344 4.42.344 3.686 0 6.565-1.106 8.638-3.317 2.072-2.21 3.846-6.126 5.32-11.746l1.243-5.25h-3.592L302.696 40.09h9.26l18.93 74.343L349.4 40.09h8.843L334.34 132.26c-2.21 7.094-5.067 12.068-8.567 14.924s-7.784 4.283-12.85 4.283zM74.447 138.255c-10.41 2.58-18.4 1.75-23.974-2.488-5.574-4.237-8.452-11.607-8.637-22.11-9.58-.367-16.72-3.66-21.418-9.88-4.698-6.217-7.047-15.452-7.047-27.704V38.21c0-12.896 2.51-22.477 7.532-28.74C25.922 3.204 33.545.072 43.772.072c10.132 0 17.686 3.132 22.66 9.396 4.975 6.263 7.463 15.844 7.463 28.74v37.863c0 11.515-1.958 20.312-5.873 26.392-3.915 6.08-9.88 9.673-17.895 10.78.277 8.382 2.326 13.863 6.15 16.442 3.822 2.58 9.42 2.856 16.788.83l1.382 7.738zm-30.814-32.473c7.646 0 13.15-2.326 16.512-6.978 3.363-4.653 5.044-12.275 5.044-22.87V38.212c0-10.777-1.682-18.515-5.045-23.214-3.362-4.698-8.866-7.047-16.512-7.047-7.646 0-13.15 2.348-16.513 7.046-3.362 4.7-5.044 12.437-5.044 23.215v37.725c0 10.594 1.682 18.216 5.044 22.87 3.362 4.65 8.867 6.977 16.513 6.977zm90.758 33.854v-38.552h-1.934c-1.934 3.96-4.49 7-7.67 9.12-3.177 2.118-6.885 3.178-11.122 3.178-6.54 0-11.63-2.44-15.27-7.324-3.638-4.882-5.458-11.745-5.458-20.59V56.59c0-9.027 2.326-16.097 6.98-21.21 4.65-5.113 10.984-7.67 19-7.67 4.697 0 9.142.692 13.333 2.074 4.19 1.382 7.806 3.132 10.846 5.25v104.604h-8.705zm-18.654-34.407c3.685 0 6.98-.99 9.88-2.972 2.902-1.98 5.827-5.228 8.775-9.742V39.87a26.806 26.806 0 0 0-7.254-3.386c-2.625-.783-5.412-1.175-8.36-1.175-5.527 0-9.764 1.795-12.712 5.388-2.948 3.593-4.422 8.982-4.422 16.167v27.222c0 7.186 1.15 12.506 3.454 15.96 2.303 3.455 5.85 5.182 10.64 5.182z"/></g></g></svg>