<svg height="153" viewBox="0 0 601 153" width="601" xmlns="http://www.w3.org/2000/svg"><g fill-opacity=".22" fill-rule="evenodd"><path d="m452.436364 123v-110.5454545h65.498181v18.24h-40.625454v24.0436363h35.512727v18.24h-35.512727v31.7818182h40.625454v18.24zm147.136363-19.207273c-1.842433 6.356396-5.711485 11.376952-11.607272 15.061818-5.895787 3.684867-13.12723 5.527273-21.694546 5.527273-10.133384 0-18.055729-2.671488-23.767272-8.014545-5.711544-5.343057-8.567273-12.712681-8.567273-22.1090912v-25.84c0-9.3042889 2.947849-16.5817919 8.843636-21.8327273 5.895787-5.2509353 14.048433-7.8763636 24.458182-7.8763636 10.317627 0 18.401183 2.6714884 24.250909 8.0145455 5.849726 5.343057 8.774546 12.7126803 8.774546 22.1090909v17.4109091h-41.454546v8.0145454c0 5.5273004.690902 9.3272622 2.072727 11.4000002 1.381825 2.072737 3.961194 3.109091 7.738182 3.109091 2.855772 0 5.066659-.736963 6.632727-2.210909 1.566069-1.473947 3.086054-4.191496 4.56-8.1527276zm-40.763636-35.2363634v4.8363637h16.581818v-4.4218182c0-5.8036654-.598782-9.787868-1.796363-11.9527273-1.197582-2.1648593-3.362409-3.2472727-6.494546-3.2472727s-5.296964 1.0363533-6.494545 3.1090909c-1.197582 2.0727376-1.796364 5.9648199-1.796364 11.6763636z"/><path d="m276.036364 123h-24.872728v-41.4545455l-30.261818-69.090909h25.701818l17.410909 49.0545454 18.101819-49.0545454h24.181818l-30.261818 69.090909zm51.514545 29.156364c-3.040015 0-6.379375-.138181-10.018182-.414546-3.638806-.276365-7.576948-.690906-11.814545-1.243636l.829091-17.272727c3.224258.460608 6.103018.829089 8.636364 1.105454s4.813323.414546 6.84.414546c6.08003 0 10.202413-1.220594 12.367272-3.661819 2.16486-2.441224 3.615754-5.872705 4.352728-10.294545l.276363-1.658182h-18.654545l-16.305455-79.0399999h23.905455l12.989091 67.9854549 11.469091-67.9854549h23.214545l-14.509091 81.9418179c-1.842433 10.409749-5.504215 18.032703-10.985454 22.869091-5.48124 4.836388-13.012074 7.254546-22.592728 7.254546z"/><path d="m64.1381818 140.327273c-14.6473459 2.303042-24.9648185 1.082448-30.9527273-3.661818-5.9879087-4.744267-8.8436377-14.071446-8.5672727-27.981819-7.7382205-2.118798-13.7030093-6.126031-17.89454544-12.0218178-4.19153611-5.8957871-6.28727272-13.2654103-6.28727272-22.1090909v-38c0-11.3309658 3.33936054-20.2436039 10.01818186-26.73818185 6.6788212-6.49457792 16.1441811-9.74181818 28.3963636-9.74181818 12.3443041 0 21.809664 3.24724026 28.3963636 9.74181818 6.5866996 6.49457795 9.88 15.40721605 9.88 26.73818185v38c0 10.686114-3.0169395 19.1611808-9.0509091 25.4254545-6.0339695 6.2642742-14.5781265 9.7187842-25.6327272 10.3636362.3684867 5.803666 1.9345316 9.488477 4.6981818 11.054546 2.7636502 1.566068 7.6460256 1.473948 14.6472727-.276364zm-25.2872727-47.1200003c5.343057 0 8.9127183-1.3587743 10.7090909-4.0763636 1.7963726-2.7175894 2.6945455-8.2217767 2.6945455-16.5127273v-34.1309091c0-8.0145855-.8981729-13.3805924-2.6945455-16.0981818-1.7963726-2.7175893-5.3660339-4.0763636-10.7090909-4.0763636-5.4351787 0-9.0509001 1.3587743-10.8472727 4.0763636-1.7963727 2.7175894-2.6945455 8.0835963-2.6945455 16.0981818v34.1309091c0 8.2909506.8981728 13.7951379 2.6945455 16.5127273 1.7963726 2.7175893 5.412094 4.0763636 10.8472727 4.0763636zm94.9036369 46.4290913v-39.6581822h-3.04c-1.10546 4.4218402-3.178167 7.7612012-6.218182 10.0181822s-7.001188 3.385454-11.883637 3.385454c-6.724882 0-11.791498-2.349067-15.1999995-7.047273-3.4085019-4.698205-5.1127273-11.6532868-5.1127273-20.8654541v-28.88c0-9.3964106 2.8326989-16.489673 8.4981818-21.28 5.665483-4.790327 14.11752-7.1854545 25.356364-7.1854545 6.540638 0 12.620578.967263 18.24 2.9018181 5.619422 1.9345552 10.363617 4.6521038 14.232727 8.1527273v100.4581822zm-9.949091-44.6327276c1.473946 0 3.155142-.4606015 5.043636-1.3818182s3.52363-2.579382 4.905455-4.9745455v-40.2109091c-.921217-.9212167-2.164841-1.6812091-3.730909-2.28-1.566069-.5987908-3.408475-.8981818-5.527273-.8981818-2.76365 0-4.675146.8521127-5.734546 2.5563637-1.059399 1.7042509-1.589091 4.7211904-1.589091 9.050909v26.669091c0 4.1454752.621812 7.0933245 1.865455 8.8436363s2.832718 2.6254546 4.767273 2.6254546z"/><g transform="translate(2)"><path d="m452.436364 123v-110.5454545h62.596363v16.0290909h-41.454545v26.9454545h36.203636v16.1672727h-36.203636v35.3745454h41.454545v16.029091zm140.089091-18.792727c-1.934555 6.448517-5.665427 11.423013-11.192728 14.923636-5.5273 3.500624-12.298141 5.250909-20.312727 5.250909-9.580654 0-17.111488-2.625428-22.592727-7.876363-5.48124-5.250936-8.221818-12.482379-8.221818-21.6945459v-26.6690909c0-9.2121673 2.786639-16.4205801 8.36-21.6254546s13.288435-7.8072727 23.145454-7.8072727c9.672776 0 17.2727 2.6714884 22.8 8.0145455 5.527301 5.343057 8.290909 12.7126803 8.290909 22.1090909v16.72h-41.454545v9.2581818c0 5.8036649.852113 9.8108979 2.556364 12.0218179 1.70425 2.21092 4.62907 3.316364 8.774545 3.316364 3.500624 0 6.126052-.783023 7.876364-2.349091 1.750311-1.566068 3.316356-4.375737 4.698181-8.4290909zm-41.178182-35.927273v5.2509091h20.312727v-4.56c0-6.0800304-.759992-10.3405939-2.28-12.7818182-1.520007-2.4412243-4.122406-3.6618182-7.807273-3.6618182-3.684866 0-6.310295 1.1745337-7.876363 3.5236364-1.566069 2.3491026-2.349091 6.4254255-2.349091 12.2290909z"/><path d="m272.305455 123h-21.141819v-41.4545455l-30.123636-69.090909h22.109091l19.069091 51.4036363 19.345454-51.4036363h20.865455l-30.123636 69.090909zm48.474545 28.88c-2.671528 0-5.596348-.13818-8.774545-.414545-3.178198-.276365-6.609679-.644847-10.294546-1.105455l.967273-15.476364c2.855772.460609 5.45817.82909 7.807273 1.105455 2.349102.276365 4.398779.414545 6.149091.414545 5.5273 0 9.373322-1.220593 11.538181-3.661818 2.16486-2.441224 3.707875-5.964825 4.629091-10.570909l.276364-1.658182h-14.923636l-17.825455-80.4218179h20.727273l14.094545 69.3672729 12.989091-69.3672729h20.036364l-16.72 85.1199999c-2.026677 9.396411-5.550278 16.190282-10.570909 20.381818s-11.722383 6.287273-20.105455 6.287273z"/><path d="m63.7236364 139.636364c-13.4497643 2.303041-23.0993647 1.151538-28.9490909-3.454546-5.8497263-4.606083-8.7284854-13.265391-8.6363637-25.978182-8.2909505-1.65819-14.6472506-5.481182-19.06909089-11.4690905-4.42184029-5.9879088-6.63272727-13.7720734-6.63272727-23.3527273v-38.6909091c0-11.5152091 3.17815003-20.4969375 9.53454545-26.94545455 6.35639541-6.4485171 15.38418391-9.67272728 27.08363641-9.67272728 11.6994524 0 20.6811808 3.22421018 26.9454545 9.67272728 6.2642737 6.44851705 9.3963636 15.43024545 9.3963636 26.94545455v38.6909091c0 10.5018707-2.6945185 18.8617871-8.0836363 25.0799998-5.3891179 6.218213-13.1502524 9.787874-23.2836364 10.709091.3684867 5.895787 2.0036219 9.741809 4.9054546 11.538182 2.9018326 1.796373 7.8072381 1.865463 14.7163636.207273zm-26.6690909-43.5272731c5.8036653 0 9.7878679-1.5660449 11.9527272-4.6981818s3.2472728-8.9357152 3.2472728-17.4109091v-35.9272727c0-8.3830722-1.0824135-14.1405904-3.2472728-17.2727273s-6.1490619-4.6981818-11.9527272-4.6981818c-5.8957871 0-9.9490799 1.5660449-12.16 4.6981818-2.2109202 3.1321369-3.3163637 8.8896551-3.3163637 17.2727273v35.9272727c0 8.4751939 1.1054435 14.2787722 3.3163637 17.4109091 2.2109201 3.1321369 6.2642129 4.6981818 12.16 4.6981818zm92.9690915 43.5272731v-39.243637h-3.04c-1.197582 4.237597-3.362409 7.461807-6.494546 9.672728-3.132137 2.21092-7.047249 3.316363-11.745454 3.316363-6.632761 0-11.6533167-2.395127-15.0618186-7.185454s-5.1127273-11.7914695-5.1127273-21.0036367v-28.6036364c0-9.3042889 2.7636087-16.3975513 8.2909091-21.28 5.5273008-4.8824486 13.4496458-7.3236364 23.7672728-7.3236364 6.08003 0 11.768458.8751428 17.065454 2.6254546 5.296997 1.7503118 9.787861 4.1914995 13.472728 7.3236364v101.7018185zm-12.16-42.6981822c2.118798 0 4.260595-.6218119 6.425454-1.8654545s4.076355-3.3854394 5.734546-6.4254546v-41.8690909c-1.197582-1.1054601-2.694537-1.9575727-4.49091-2.5563636-1.796372-.5987909-3.846049-.8981818-6.14909-.8981818-3.224259 0-5.642417 1.0133232-7.254546 3.04s-2.418182 5.5272478-2.418182 10.5018181v26.5309091c0 4.790327.713933 8.2448379 2.141818 10.3636364 1.427886 2.1187985 3.431503 3.1781818 6.01091 3.1781818z"/></g><g transform="translate(7)"><path d="m452.68 123v-110.5454545h60.661818v14.6472727h-41.869091v28.7418182h36.618182v14.7854545h-36.618182v37.7236361h41.869091v14.647273zm137.878182-18.654545c-1.934555 6.63276-5.527246 11.630286-10.778182 14.992727-5.250935 3.362441-11.745416 5.043636-19.483636 5.043636-9.304289 0-16.604822-2.602398-21.901818-7.807273-5.296997-5.204874-7.945455-12.367227-7.945455-21.4872723v-27.0836363c0-9.1200456 2.694519-16.2823983 8.083636-21.4872728 5.389118-5.2048745 12.781772-7.8072727 22.178182-7.8072727 9.304289 0 16.627852 2.6714884 21.970909 8.0145455 5.343057 5.343057 8.014546 12.7126803 8.014546 22.1090909v16.1672727h-41.454546v10.0872727c0 5.8957873.944233 10.0412003 2.832728 12.4363633 1.888494 2.395164 5.043614 3.592728 9.465454 3.592728 3.86911 0 6.74787-.829083 8.636364-2.487273s3.477569-4.559979 4.767273-8.7054546zm-41.316364-36.2036368v5.5272727h22.661819v-4.6981818c0-6.1721521-.875143-10.593926-2.625455-13.2654546-1.750312-2.6715285-4.652101-4.0072727-8.705455-4.0072727-4.053353 0-6.955142 1.266654-8.705454 3.8s-2.625455 6.7478493-2.625455 12.6436364z"/><path d="m269.2 123h-18.792727v-41.4545455l-29.985455-69.090909h19.76l20.036364 53.0618181 20.174545-53.0618181h18.654546l-29.847273 69.090909zm48.750909 28.741818c-2.487285 0-5.158773-.13818-8.014545-.414545s-5.941802-.644846-9.258182-1.105455l1.243636-14.232727c2.579407.460608 4.951505.829089 7.116364 1.105454s4.076355.414546 5.734545.414546c5.066692 0 8.682414-1.220594 10.847273-3.661818 2.164859-2.441225 3.846055-6.010886 5.043637-10.709091l.276363-1.658182h-12.574545l-18.792728-81.3890909h18.516364l15.061818 70.3345459 13.956364-70.3345459h17.963636l-18.378182 87.1927269c-2.21092 8.843681-5.665431 15.130891-10.363636 18.861819-4.698205 3.730927-10.824205 5.596363-18.378182 5.596363z"/><path d="m63.8290909 139.221818c-12.7127908 2.21092-21.9708801 1.082447-27.7745454-3.385454-5.8036654-4.467901-8.7054546-12.643577-8.7054546-24.527273-8.5673156-1.381825-15.1539164-5.112697-19.75999999-11.192727-4.60608364-6.0800308-6.90909091-14.1405562-6.90909091-24.1818185v-39.1054546c0-11.6994524 3.06299967-20.750271 9.18909091-27.15272726 6.12609119-6.40245626 14.85448879-9.60363637 26.18545459-9.60363637 11.3309657 0 20.0363332 3.20118011 26.1163636 9.60363637s9.12 15.45327486 9.12 27.15272726v39.1054546c0 10.409749-2.533308 18.7005752-7.6 24.8727275-5.066692 6.172152-12.2981348 9.810903-21.6945455 10.916363.3684867 6.080031 2.0727121 10.087263 5.1127273 12.021819 3.0400152 1.934555 7.9223906 2.072735 14.6472727.414545zm-27.7745454-41.3163635c6.0800304 0 10.3405938-1.6811953 12.7818181-5.0436363 2.4412244-3.3624411 3.6618182-9.3272299 3.6618182-17.8945455v-37.1709091c0-8.5673155-1.2205938-14.5551344-3.6618182-17.9636363-2.4412243-3.4085019-6.7017877-5.1127273-12.7818181-5.1127273-6.1721521 0-10.4787757 1.7042254-12.92 5.1127273-2.4412244 3.4085019-3.6618182 9.3963208-3.6618182 17.9636363v37.1709091c0 8.5673156 1.2205938 14.5321044 3.6618182 17.8945455 2.4412243 3.362441 6.7478479 5.0436363 12.92 5.0436363zm94.2127275 41.7309095v-39.105455h-3.04c-1.197582 4.145475-3.362409 7.323625-6.494546 9.534546-3.132136 2.21092-7.047249 3.316363-11.745454 3.316363-6.540639 0-11.5381646-2.441188-14.9927274-7.323636-3.4545627-4.882449-5.1818181-11.9296511-5.1818181-21.1418184v-28.3272727c0-9.3042889 2.7175485-16.4205814 8.1527272-21.3490909 5.4351783-4.9285095 12.9890423-7.3927273 22.6618183-7.3927273 5.803665 0 11.261793.8060526 16.374545 2.4181818 5.112753 1.6121293 9.465437 3.8460464 13.058182 6.7018182v102.6690913zm-13.68-41.4545458c2.579407 0 5.043625-.7599924 7.392727-2.28 2.349103-1.5200076 4.444839-3.9842254 6.287273-7.3927273v-42.9745454c-1.381825-1.1975818-3.01696-2.0957546-4.905455-2.6945455-1.888494-.5987909-4.076351-.8981818-6.563636-.8981818-3.684867 0-6.471506 1.1515036-8.36 3.4545454-1.888494 2.3030419-2.832727 6.1260339-2.832727 11.4690909v26.5309091c0 5.2509354.759992 9.0278673 2.28 11.3309091 1.520007 2.3030418 3.753924 3.4545455 6.701818 3.4545455z"/></g><g transform="translate(6)"><path d="m452.436364 123v-110.5454545h55.687272v11.0545454h-43.112727v33.5781818h37.861818v11.1927273h-37.861818v43.665455h43.112727v11.054545zm123.645454-17.963636c-2.026676 6.817003-5.319977 11.745439-9.88 14.785454-4.560022 3.040015-10.340571 4.56-17.341818 4.56-8.567315 0-15.246036-2.510278-20.036363-7.530909s-7.185455-11.998743-7.185455-20.9345454v-28.1890909c0-9.1200456 2.395128-16.236338 7.185455-21.3490909 4.790327-5.1127528 11.422987-7.6690909 19.898181-7.6690909s15.084825 2.6714884 19.829091 8.0145455c4.744266 5.343057 7.116364 12.7126803 7.116364 22.1090909v15.0618182h-41.454546v12.16c0 6.2642735 1.220594 10.7321075 3.661819 13.4036365 2.441224 2.671528 6.195126 4.007273 11.261818 4.007273 4.698205 0 8.175746-.944233 10.432727-2.832728 2.256981-1.888494 3.938176-4.951494 5.043636-9.189091zm-41.869091-37.3090913v6.3563637h28.88v-4.9745455c0-6.6327604-1.174533-11.5381659-3.523636-14.7163636s-6.010884-4.7672728-10.985454-4.7672728c-4.882449 0-8.498171 1.4969548-10.847273 4.4909091-2.349103 2.9939544-3.523637 7.5308787-3.523637 13.6109091z"/><path d="m262.738182 123h-12.574546v-41.4545455l-29.709091-69.090909h13.68l22.8 57.0690909 22.109091-57.0690909h13.265455l-29.570909 69.090909zm41.150909 28.327273c-1.842433 0-3.82302-.138181-5.941818-.414546-2.118799-.276365-4.329686-.598786-6.632727-.967272l1.658181-11.33091c2.026677.460609 3.892113.82909 5.596364 1.105455s3.247266.414545 4.629091.414545c4.145475 0 7.300595-1.197563 9.465455-3.592727 2.164859-2.395163 3.984235-6.126035 5.458181-11.192727l.276364-1.52h-6.494545l-21.141819-83.7381819h13.127273l16.996364 72.8218179 16.443636-72.8218179h12.712727l-22.109091 92.4436359c-2.579406 7.093369-5.849677 11.998775-9.810909 14.716364s-8.705427 4.076364-14.232727 4.076364z"/><path d="m62.8945455 137.978182c-10.6861141 2.026677-18.8617899.990323-24.5272728-3.109091-5.6654828-4.099415-8.5903021-11.077527-8.7745454-20.934546-9.4885323-.644851-16.7199752-4.076332-21.69454548-10.294545-4.97457033-6.2182129-7.46181818-14.9466105-7.46181818-26.1854545v-40.2109091c0-12.0679392 2.7866388-21.2799683 8.36-27.63636367 5.57336116-6.35639542 13.56479646-9.53454546 23.97454546-9.53454546s18.3551241 3.17815004 23.8363636 9.53454546c5.4812396 6.35639537 8.2218182 15.56842447 8.2218182 27.63636367v40.2109091c0 10.133384-2.0266464 18.2399696-6.08 24.3199995-4.0533536 6.080031-9.9490522 9.903023-17.6872727 11.469091.3684867 6.172152 2.2108925 10.409686 5.5272727 12.712728 3.3163802 2.303041 8.1987556 2.671523 14.6472727 1.105454zm-30.2618182-35.236364c6.9091254 0 11.9066512-2.003616 14.9927272-6.0109089 3.0860761-4.0072928 4.629091-10.4787432 4.629091-19.4145455v-40.0727272c0-9.2121673-1.5430149-15.8678583-4.629091-19.9672728-3.086076-4.0994144-8.0836018-6.1490909-14.9927272-6.1490909-6.9091255 0-11.9066513 2.0496765-14.9927273 6.1490909-3.086076 4.0994145-4.6290909 10.7551055-4.6290909 19.9672728v40.0727272c0 8.9358023 1.5430149 15.4072527 4.6290909 19.4145455 3.086076 4.0072929 8.0836018 6.0109089 14.9927273 6.0109089zm88.8236367 36.894546v-38.414546h-3.04c-1.381825 3.86911-3.684833 6.86302-6.909091 8.981818-3.224259 2.118799-7.093311 3.178182-11.6072728 3.178182-6.2642738 0-11.1466492-2.533308-14.6472727-7.6-3.5006236-5.066692-5.2509091-12.1599542-5.2509091-21.2799998v-27.9127273c0-9.1200456 2.556338-16.2363381 7.6690909-21.3490909 5.1127528-5.1127528 11.814504-7.6690909 20.1054547-7.6690909 4.97457 0 9.787855.644842 14.44 1.9345454 4.652144 1.2897035 8.590287 3.0860491 11.814545 5.389091v104.7418185zm-17.410909-38.138182c3.684867 0 6.932107-1.036353 9.741818-3.1090911 2.809711-2.0727376 5.366049-5.366038 7.669091-9.88v-45.7381818c-1.842434-1.4739468-3.89211-2.5333301-6.149091-3.1781818s-4.813319-.9672728-7.669091-.9672728c-4.513962 0-8.1527134 1.4508946-10.9163636 4.3527273s-4.1454546 7.5308773-4.1454546 13.8872727v26.3927273c0 6.3563954.9212029 10.9854401 2.7636364 13.8872727 1.8424334 2.9018325 4.7442228 4.3527275 8.7054548 4.3527275z"/></g><g transform="translate(12)"><path d="m447.403636 123v-110.5454545h54.167273v9.6727272h-43.389091v35.3745455h38.138182v9.8109091h-38.138182v46.0145457h43.389091v9.672727zm121.987273-17.687273c-2.026677 6.909126-5.227857 11.814531-9.603636 14.716364-4.37578 2.901833-9.972087 4.352727-16.789091 4.352727-8.290951 0-14.762401-2.487248-19.414545-7.461818-4.652145-4.97457-6.978182-11.883592-6.978182-20.7272727v-28.6036364c0-9.0279239 2.303007-16.0981562 6.909091-21.2109091 4.606083-5.1127528 11.008443-7.6690909 19.207272-7.6690909s14.601189 2.6714884 19.207273 8.0145455c4.606084 5.343057 6.909091 12.7126803 6.909091 22.1090909v14.6472727h-41.454545v12.9890909c0 6.3563951 1.289684 10.9393801 3.86909 13.7490911 2.579407 2.809711 6.49452 4.214545 11.745455 4.214545 4.97457 0 8.659382-.990293 11.054545-2.970909 2.395164-1.980616 4.099389-5.135736 5.112728-9.465454zm-42.007272-37.7236361v6.6327273h30.676363v-5.1127273c0-6.7248821-1.266654-11.7914981-3.8-15.2s-6.425428-5.1127273-11.676363-5.1127273c-5.066692 0-8.866654 1.5890751-11.4 4.7672728s-3.8 7.8533024-3.8 14.0254545z"/><path d="m259.909091 123h-10.778182v-41.4545455l-29.570909-69.090909h11.883636l23.490909 58.5890909 22.8-58.5890909h11.607273l-29.432727 69.090909zm41.427273 28.189091c-1.750312 0-3.569688-.138181-5.458182-.414546s-3.79999-.598786-5.734545-.967272l1.796363-10.087273c1.750312.460608 3.431507.82909 5.043637 1.105455 1.612129.276365 3.063023.414545 4.352727.414545 3.86911 0 6.86302-1.174534 8.981818-3.523636 2.118798-2.349103 4.007264-6.149065 5.665455-11.4l.276363-1.52h-4.698182l-21.832727-84.7054549h11.469091l17.687273 73.7890909 17.134545-73.7890909h11.192727l-23.352727 94.5163639c-2.579407 6.356395-5.734527 10.709079-9.465454 13.058182-3.730928 2.349102-8.083612 3.523636-13.058182 3.523636z"/><path d="m62.7236364 137.563636c-3.5006236.736974-6.6787736 1.059395-9.5345455.967273-5.895787.092122-11.0775534-1.543013-15.5454545-4.905454-4.4679012-3.362442-6.9321189-9.557531-7.3927273-18.585455-9.6727756-.368487-17.065429-3.707847-22.17818183-10.018182-5.11275283-6.3103344-7.66909091-15.3150928-7.66909091-27.0145453v-40.6254545c0-12.1600608 2.69451851-21.4181501 8.08363637-27.77454547 5.38911787-6.35639542 13.15025237-9.53454546 23.28363637-9.53454546s17.8714884 3.17815004 23.2145454 9.53454546c5.3430571 6.35639537 8.0145455 15.61448467 8.0145455 27.77454547v40.6254545c0 10.0412624-1.888466 18.0787577-5.6654545 24.1127273-3.7769886 6.03397-9.2581459 9.926052-16.4436364 11.676364.55273 6.264273 2.141805 10.386656 4.7672727 12.367272s5.5963471 2.970909 8.9127273 2.970909c2.0266768 0 4.1915036-.27636 6.4945454-.82909zm-31.0909091-32.887272c7.1854904 0 12.413317-2.118767 15.6836363-6.356364 3.2703194-4.2375969 4.9054546-10.916318 4.9054546-20.0363636v-41.3163637c0-9.3964106-1.6351352-16.2824023-4.9054546-20.6581818-3.2703193-4.3757794-8.4981459-6.56363635-15.6836363-6.56363635-7.0933688 0-12.2751352 2.18785695-15.5454546 6.56363635-3.2703194 4.3757795-4.9054545 11.2617712-4.9054545 20.6581818v41.3163637c0 9.1200456 1.6351351 15.7987667 4.9054545 20.0363636 3.2703194 4.237597 8.4520858 6.356364 15.5454546 6.356364zm89.7909097 34.96v-38.138182h-3.04c-1.473947 3.684867-3.823015 6.586656-7.047273 8.705454-3.224259 2.118799-7.047251 3.178182-11.4690911 3.178182-6.1721521 0-11.0314974-2.556338-14.5781818-7.669091s-5.32-12.229045-5.32-21.3490906v-27.7745455c0-9.1200456 2.533308-16.2593681 7.6-21.4181818s11.4690522-7.7381818 19.2072729-7.7381818c4.790327 0 9.442401.5757518 13.956363 1.7272727s8.336954 2.7866561 11.469091 4.9054545v105.5709095zm-18.516364-36.894546c4.053354 0 7.530894-1.151503 10.432727-3.4545453 2.901833-2.3030418 5.596351-5.8957331 8.083637-10.7781818v-46.8436364c-2.026677-1.5660684-4.191504-2.694542-6.494546-3.3854545s-4.97453-1.0363636-8.014545-1.0363636c-4.698206 0-8.5672579 1.589075-11.6072731 4.7672727s-4.56 8.1296633-4.56 14.8545454v26.3927273c0 6.7248821.944233 11.6533177 2.8327273 14.7854546 1.8884943 3.1321366 4.9975541 4.6981816 9.3272728 4.6981816z"/></g><g transform="translate(13)"><path d="m447.370909 123v-110.5454545h52.094546v7.8763636h-43.389091v38.2763636h38.276363v7.8763637h-38.276363v48.6399996h43.389091v7.876364zm119.361818-16.996364c-1.750311 6.356396-4.60604 11.00847-8.567272 13.956364s-9.304209 4.421818-16.029091 4.421818c-8.014586 0-14.278765-2.464218-18.792727-7.392727-4.513962-4.92851-6.77091-11.998742-6.77091-21.2109092v-27.9127273c0-9.4885322 2.256948-16.7199751 6.77091-21.6945454s10.639961-7.4618182 18.378181-7.4618182c7.738221 0 13.84119 2.5563381 18.309091 7.6690909 4.467901 5.1127529 6.701818 12.5975265 6.701818 22.4545455v14.0945454h-41.454545v12.9890909c0 7.2776124 1.404834 12.5514984 4.214545 15.8218184 2.809711 3.270319 7.070275 4.905454 12.781819 4.905454 4.97457 0 8.613321-.967263 10.916363-2.901818s4.099388-5.343006 5.389091-10.225454zm-41.454545-38.1381815v7.7381819h32.749091v-6.4945455c0-7.7382205-1.358774-13.4496785-4.076364-17.1345454-2.717589-3.684867-6.793912-5.5272728-12.229091-5.5272728-5.5273 0-9.649683 1.7502856-12.367272 5.2509091-2.71759 3.5006236-4.076364 8.8896606-4.076364 16.1672727z"/><path d="m257.803636 123h-8.705454v-41.4545455l-29.709091-69.090909h9.672727l24.734546 59.4181818 24.181818-59.4181818h9.396363l-29.570909 69.090909zm42.118182 28.465455c-1.473946 0-3.016961-.115151-4.629091-.345455-1.612129-.230304-3.339384-.529695-5.181818-.898182l1.243637-7.876363c1.65819.368486 3.178175.667877 4.56.898181 1.381825.230305 2.855749.345455 4.421818.345455 3.684867 0 6.563626-1.105444 8.636363-3.316364 2.072738-2.21092 3.846054-6.126032 5.32-11.745454l1.243637-5.250909h-3.592727l-22.247273-83.1854549h9.258182l18.930909 74.3418179 18.516363-74.3418179h8.843637l-23.905455 92.1672729c-2.21092 7.093369-5.066649 12.067864-8.567273 14.923636-3.500623 2.855772-7.784217 4.283637-12.850909 4.283637z"/><path d="m61.4472727 138.254545c-10.409749 2.579407-18.4011842 1.750325-23.9745454-2.487272s-8.4521203-11.60722-8.6363637-22.109091c-9.5806539-.368487-16.7199765-3.661787-21.41818178-9.88-4.69820531-6.2182131-7.04727273-15.4532723-7.04727273-27.7054547v-37.8618182c0-12.8970342 2.51027793-22.4775444 7.53090909-28.74181819 5.02063112-6.26427375 12.64358522-9.39636364 22.86909092-9.39636364 10.133384 0 17.6872478 3.13208989 22.6618182 9.39636364 4.9745703 6.26427379 7.4618182 15.84478399 7.4618182 28.74181819v37.8618182c0 11.5152091-1.9575562 20.3126968-5.8727273 26.3927277-3.9151711 6.08003-9.8799599 9.672721-17.8945455 10.778181.276365 8.383073 2.3260415 13.86423 6.1490909 16.443637 3.8230495 2.579407 9.4193571 2.855767 16.7890909.829091zm-30.8145454-32.472727c7.6460988 0 13.1502862-2.326037 16.5127272-6.9781816 3.3624411-4.6521445 5.0436364-12.2750986 5.0436364-22.8690909v-37.7236364c0-10.7782357-1.6811953-18.5163402-5.0436364-23.2145455-3.362441-4.6982053-8.8666284-7.04727269-16.5127272-7.04727269-7.6460989 0-13.1502862 2.34906739-16.5127273 7.04727269s-5.04363636 12.4363098-5.04363636 23.2145455v37.7236364c0 10.5939923 1.68119526 18.2169464 5.04363636 22.8690909 3.3624411 4.6521446 8.8666284 6.9781816 16.5127273 6.9781816zm90.7581817 33.854546v-38.552728h-1.934545c-1.934555 3.961232-4.490893 7.001202-7.669091 9.12-3.178198 2.118799-6.88604 3.178182-11.123636 3.178182-6.5406392 0-11.6302853-2.441188-15.2690914-7.323636-3.638806-4.882449-5.4581818-11.7454105-5.4581818-20.5890911v-28.88c0-9.0279239 2.3260374-16.0981562 6.9781818-21.2109091 4.6521445-5.1127528 10.9854145-7.6690909 19.0000004-7.6690909 4.698205 0 9.143009.6909022 13.334545 2.0727273s7.807258 3.1321106 10.847273 5.2509091v104.6036367zm-18.654545-34.407273c3.684867 0 6.978167-.990293 9.88-2.970909s5.826652-5.2278564 8.774545-9.7418184v-52.6472727c-2.21092-1.4739468-4.629078-2.6024203-7.254545-3.3854545-2.625468-.7830343-5.412107-1.1745455-8.36-1.1745455-5.527301 0-9.7648339 1.7963457-12.7127274 5.3890909-2.9478936 3.5927453-4.4218182 8.9817823-4.4218182 16.1672727v27.2218182c0 7.1854905 1.1515036 12.5054373 3.4545454 15.9600003 2.3030418 3.454562 5.849673 5.181818 10.6400002 5.181818z"/></g></g></svg>