<?xml version="1.0" encoding="UTF-8" standalone="no"?>
<svg width="601px" height="153px" viewBox="0 0 601 153" version="1.1" xmlns="http://www.w3.org/2000/svg" xmlns:xlink="http://www.w3.org/1999/xlink" xmlns:sketch="http://www.bohemiancoding.com/sketch/ns">
    <!-- Generator: Sketch 3.5.1 (25234) - http://www.bohemiancoding.com/sketch -->
    <title>SVG</title>
    <desc>Created with Sketch.</desc>
    <defs></defs>
    <g id="Page-1" stroke="none" stroke-width="1" fill="none" fill-rule="evenodd" sketch:type="MSPage">
        <g id="Artboard-1" sketch:type="MSArtboardGroup" transform="translate(-2.000000, -6.000000)" fill-opacity="0.22" fill="#000000">
            <g id="SVG" sketch:type="MSLayerGroup" transform="translate(2.000000, 6.000000)">
                <g id="Black" sketch:type="MSShapeGroup">
                    <path d="M452.436364,123 L452.436364,12.4545455 L517.934545,12.4545455 L517.934545,30.6945455 L477.309091,30.6945455 L477.309091,54.7381818 L512.821818,54.7381818 L512.821818,72.9781818 L477.309091,72.9781818 L477.309091,104.76 L517.934545,104.76 L517.934545,123 L452.436364,123 Z M599.572727,103.792727 C597.730294,110.149123 593.861242,115.169679 587.965455,118.854545 C582.069668,122.539412 574.838225,124.381818 566.270909,124.381818 C556.137525,124.381818 548.21518,121.71033 542.503637,116.367273 C536.792093,111.024216 533.936364,103.654592 533.936364,94.2581818 L533.936364,68.4181818 C533.936364,59.1138929 536.884213,51.8363899 542.78,46.5854545 C548.675787,41.3345192 556.828433,38.7090909 567.238182,38.7090909 C577.555809,38.7090909 585.639365,41.3805793 591.489091,46.7236364 C597.338817,52.0666934 600.263637,59.4363167 600.263637,68.8327273 L600.263637,86.2436364 L558.809091,86.2436364 L558.809091,94.2581818 C558.809091,99.7854822 559.499993,103.585444 560.881818,105.658182 C562.263643,107.730919 564.843012,108.767273 568.62,108.767273 C571.475772,108.767273 573.686659,108.03031 575.252727,106.556364 C576.818796,105.082417 578.338781,102.364868 579.812727,98.4036364 L599.572727,103.792727 Z M558.809091,68.5563636 L558.809091,73.3927273 L575.390909,73.3927273 L575.390909,68.9709091 C575.390909,63.1672437 574.792127,59.1830411 573.594546,57.0181818 C572.396964,54.8533225 570.232137,53.7709091 567.1,53.7709091 C563.967863,53.7709091 561.803036,54.8072624 560.605455,56.88 C559.407873,58.9527376 558.809091,62.8448199 558.809091,68.5563636 L558.809091,68.5563636 Z" id="Ee"></path>
                    <path d="M276.036364,123 L251.163636,123 L251.163636,81.5454545 L220.901818,12.4545455 L246.603636,12.4545455 L264.014545,61.5090909 L282.116364,12.4545455 L306.298182,12.4545455 L276.036364,81.5454545 L276.036364,123 Z M327.550909,152.156364 C324.510894,152.156364 321.171534,152.018183 317.532727,151.741818 C313.893921,151.465453 309.955779,151.050912 305.718182,150.498182 L306.547273,133.225455 C309.771531,133.686063 312.650291,134.054544 315.183637,134.330909 C317.716983,134.607274 319.99696,134.745455 322.023637,134.745455 C328.103667,134.745455 332.22605,133.524861 334.390909,131.083636 C336.555769,128.642412 338.006663,125.210931 338.743637,120.789091 L339.02,119.130909 L320.365455,119.130909 L304.06,40.0909091 L327.965455,40.0909091 L340.954546,108.076364 L352.423637,40.0909091 L375.638182,40.0909091 L361.129091,122.032727 C359.286658,132.442476 355.624876,140.06543 350.143637,144.901818 C344.662397,149.738206 337.131563,152.156364 327.550909,152.156364 L327.550909,152.156364 Z" id="Yy"></path>
                    <path d="M64.1381818,140.327273 C49.4908359,142.630315 39.1733633,141.409721 33.1854545,136.665455 C27.1975458,131.921188 24.3418168,122.594009 24.6181818,108.683636 C16.8799613,106.564838 10.9151725,102.557605 6.72363636,96.6618182 C2.53210025,90.7660311 0.436363636,83.3964079 0.436363636,74.5527273 L0.436363636,36.5527273 C0.436363636,25.2217615 3.77572418,16.3091234 10.4545455,9.81454545 C17.1333667,3.31996753 26.5987266,0.0727272727 38.8509091,0.0727272727 C51.1952132,0.0727272727 60.6605731,3.31996753 67.2472727,9.81454545 C73.8339723,16.3091234 77.1272727,25.2217615 77.1272727,36.5527273 L77.1272727,74.5527273 C77.1272727,85.2388413 74.1103332,93.7139081 68.0763636,99.9781818 C62.0423941,106.242456 53.4982371,109.696966 42.4436364,110.341818 C42.8121231,116.145484 44.378168,119.830295 47.1418182,121.396364 C49.9054684,122.962432 54.7878438,122.870312 61.7890909,121.12 L64.1381818,140.327273 Z M38.8509091,93.2072727 C44.1939661,93.2072727 47.7636274,91.8484984 49.56,89.1309091 C51.3563726,86.4133197 52.2545455,80.9091324 52.2545455,72.6181818 L52.2545455,38.4872727 C52.2545455,30.4726872 51.3563726,25.1066803 49.56,22.3890909 C47.7636274,19.6715016 44.1939661,18.3127273 38.8509091,18.3127273 C33.4157304,18.3127273 29.800009,19.6715016 28.0036364,22.3890909 C26.2072637,25.1066803 25.3090909,30.4726872 25.3090909,38.4872727 L25.3090909,72.6181818 C25.3090909,80.9091324 26.2072637,86.4133197 28.0036364,89.1309091 C29.800009,91.8484984 33.4157304,93.2072727 38.8509091,93.2072727 L38.8509091,93.2072727 Z M133.754546,139.636364 L133.754546,99.9781818 L130.714546,99.9781818 C129.609086,104.400022 127.536379,107.739383 124.496364,109.996364 C121.456349,112.253345 117.495176,113.381818 112.612727,113.381818 C105.887845,113.381818 100.821229,111.032751 97.4127275,106.334545 C94.0042256,101.63634 92.3000002,94.6812582 92.3000002,85.4690909 L92.3000002,56.5890909 C92.3000002,47.1926803 95.1326991,40.0994179 100.798182,35.3090909 C106.463665,30.5187639 114.915702,28.1236364 126.154546,28.1236364 C132.695184,28.1236364 138.775124,29.0908994 144.394546,31.0254545 C150.013968,32.9600097 154.758163,35.6775583 158.627273,39.1781818 L158.627273,139.636364 L133.754546,139.636364 Z M123.805455,95.0036364 C125.279401,95.0036364 126.960597,94.5430349 128.849091,93.6218182 C130.737585,92.7006015 132.372721,91.0424362 133.754546,88.6472727 L133.754546,48.4363636 C132.833329,47.5151469 131.589705,46.7551545 130.023637,46.1563636 C128.457568,45.5575728 126.615162,45.2581818 124.496364,45.2581818 C121.732714,45.2581818 119.821218,46.1102945 118.761818,47.8145455 C117.702419,49.5187964 117.172727,52.5357359 117.172727,56.8654545 L117.172727,83.5345455 C117.172727,87.6800207 117.794539,90.62787 119.038182,92.3781818 C120.281825,94.1284936 121.8709,95.0036364 123.805455,95.0036364 L123.805455,95.0036364 Z" id="Qq"></path>
                </g>
                <g id="Bold" transform="translate(2.000000, 0.000000)" sketch:type="MSShapeGroup">
                    <path d="M452.436364,123 L452.436364,12.4545455 L515.032727,12.4545455 L515.032727,28.4836364 L473.578182,28.4836364 L473.578182,55.4290909 L509.781818,55.4290909 L509.781818,71.5963636 L473.578182,71.5963636 L473.578182,106.970909 L515.032727,106.970909 L515.032727,123 L452.436364,123 Z M592.525455,104.207273 C590.5909,110.65579 586.860028,115.630286 581.332727,119.130909 C575.805427,122.631533 569.034586,124.381818 561.02,124.381818 C551.439346,124.381818 543.908512,121.75639 538.427273,116.505455 C532.946033,111.254519 530.205455,104.023076 530.205455,94.8109091 L530.205455,68.1418182 C530.205455,58.9296509 532.992094,51.7212381 538.565455,46.5163636 C544.138816,41.3114891 551.85389,38.7090909 561.710909,38.7090909 C571.383685,38.7090909 578.983609,41.3805793 584.510909,46.7236364 C590.03821,52.0666934 592.801818,59.4363167 592.801818,68.8327273 L592.801818,85.5527273 L551.347273,85.5527273 L551.347273,94.8109091 C551.347273,100.614574 552.199386,104.621807 553.903637,106.832727 C555.607887,109.043647 558.532707,110.149091 562.678182,110.149091 C566.178806,110.149091 568.804234,109.366068 570.554546,107.8 C572.304857,106.233932 573.870902,103.424263 575.252727,99.3709091 L592.525455,104.207273 Z M551.347273,68.28 L551.347273,73.5309091 L571.66,73.5309091 L571.66,68.9709091 C571.66,62.8908787 570.900008,58.6303152 569.38,56.1890909 C567.859993,53.7478666 565.257594,52.5272727 561.572727,52.5272727 C557.887861,52.5272727 555.262432,53.7018064 553.696364,56.0509091 C552.130295,58.4000117 551.347273,62.4763346 551.347273,68.28 L551.347273,68.28 Z" id="Ee"></path>
                    <path d="M272.305455,123 L251.163636,123 L251.163636,81.5454545 L221.04,12.4545455 L243.149091,12.4545455 L262.218182,63.8581818 L281.563636,12.4545455 L302.429091,12.4545455 L272.305455,81.5454545 L272.305455,123 Z M320.78,151.88 C318.108472,151.88 315.183652,151.74182 312.005455,151.465455 C308.827257,151.18909 305.395776,150.820608 301.710909,150.36 L302.678182,134.883636 C305.533954,135.344245 308.136352,135.712726 310.485455,135.989091 C312.834557,136.265456 314.884234,136.403636 316.634546,136.403636 C322.161846,136.403636 326.007868,135.183043 328.172727,132.741818 C330.337587,130.300594 331.880602,126.776993 332.801818,122.170909 L333.078182,120.512727 L318.154546,120.512727 L300.329091,40.0909091 L321.056364,40.0909091 L335.150909,109.458182 L348.14,40.0909091 L368.176364,40.0909091 L351.456364,125.210909 C349.429687,134.60732 345.906086,141.401191 340.885455,145.592727 C335.864824,149.784263 329.163072,151.88 320.78,151.88 L320.78,151.88 Z" id="Yy"></path>
                    <path d="M63.7236364,139.636364 C50.2738721,141.939405 40.6242717,140.787902 34.7745455,136.181818 C28.9248192,131.575735 26.0460601,122.916427 26.1381818,110.203636 C17.8472313,108.545446 11.4909312,104.722454 7.06909091,98.7345455 C2.64725062,92.7466367 0.436363636,84.9624721 0.436363636,75.3818182 L0.436363636,36.6909091 C0.436363636,25.1757 3.61451367,16.1939716 9.97090909,9.74545455 C16.3273045,3.29693745 25.355093,0.0727272727 37.0545455,0.0727272727 C48.7539979,0.0727272727 57.7357263,3.29693745 64,9.74545455 C70.2642737,16.1939716 73.3963636,25.1757 73.3963636,36.6909091 L73.3963636,75.3818182 C73.3963636,85.8836889 70.7018451,94.2436053 65.3127273,100.461818 C59.9236094,106.680031 52.1624749,110.249692 42.0290909,111.170909 C42.3975776,117.066696 44.0327128,120.912718 46.9345455,122.709091 C49.8363781,124.505464 54.7417836,124.574554 61.6509091,122.916364 L63.7236364,139.636364 Z M37.0545455,96.1090909 C42.8582108,96.1090909 46.8424134,94.543046 49.0072727,91.4109091 C51.172132,88.2787722 52.2545455,82.4751939 52.2545455,74 L52.2545455,38.0727273 C52.2545455,29.6896551 51.172132,23.9321369 49.0072727,20.8 C46.8424134,17.6678631 42.8582108,16.1018182 37.0545455,16.1018182 C31.1587584,16.1018182 27.1054656,17.6678631 24.8945455,20.8 C22.6836253,23.9321369 21.5781818,29.6896551 21.5781818,38.0727273 L21.5781818,74 C21.5781818,82.4751939 22.6836253,88.2787722 24.8945455,91.4109091 C27.1054656,94.543046 31.1587584,96.1090909 37.0545455,96.1090909 L37.0545455,96.1090909 Z M130.023637,139.636364 L130.023637,100.392727 L126.983637,100.392727 C125.786055,104.630324 123.621228,107.854534 120.489091,110.065455 C117.356954,112.276375 113.441842,113.381818 108.743637,113.381818 C102.110876,113.381818 97.0903203,110.986691 93.6818184,106.196364 C90.2733165,101.406037 88.5690911,94.4048945 88.5690911,85.1927273 L88.5690911,56.5890909 C88.5690911,47.284802 91.3326998,40.1915396 96.8600002,35.3090909 C102.387301,30.4266423 110.309646,27.9854545 120.627273,27.9854545 C126.707303,27.9854545 132.395731,28.8605973 137.692727,30.6109091 C142.989724,32.3612209 147.480588,34.8024086 151.165455,37.9345455 L151.165455,139.636364 L130.023637,139.636364 Z M117.863637,96.9381818 C119.982435,96.9381818 122.124232,96.3163699 124.289091,95.0727273 C126.45395,93.8290847 128.365446,91.6872879 130.023637,88.6472727 L130.023637,46.7781818 C128.826055,45.6727217 127.3291,44.8206091 125.532727,44.2218182 C123.736355,43.6230273 121.686678,43.3236364 119.383637,43.3236364 C116.159378,43.3236364 113.74122,44.3369596 112.129091,46.3636364 C110.516962,48.3903132 109.710909,51.8908842 109.710909,56.8654545 L109.710909,83.3963636 C109.710909,88.1866906 110.424842,91.6412015 111.852727,93.76 C113.280613,95.8787985 115.28423,96.9381818 117.863637,96.9381818 L117.863637,96.9381818 Z" id="Qq"></path>
                </g>
                <g id="Medium" transform="translate(7.000000, 0.000000)" sketch:type="MSShapeGroup">
                    <path d="M452.68,123 L452.68,12.4545455 L513.341818,12.4545455 L513.341818,27.1018182 L471.472727,27.1018182 L471.472727,55.8436364 L508.090909,55.8436364 L508.090909,70.6290909 L471.472727,70.6290909 L471.472727,108.352727 L513.341818,108.352727 L513.341818,123 L452.68,123 Z M590.558182,104.345455 C588.623627,110.978215 585.030936,115.975741 579.78,119.338182 C574.529065,122.700623 568.034584,124.381818 560.296364,124.381818 C550.992075,124.381818 543.691542,121.77942 538.394546,116.574545 C533.097549,111.369671 530.449091,104.207318 530.449091,95.0872727 L530.449091,68.0036364 C530.449091,58.8835908 533.14361,51.7212381 538.532727,46.5163636 C543.921845,41.3114891 551.314499,38.7090909 560.710909,38.7090909 C570.015198,38.7090909 577.338761,41.3805793 582.681818,46.7236364 C588.024875,52.0666934 590.696364,59.4363167 590.696364,68.8327273 L590.696364,85 L549.241818,85 L549.241818,95.0872727 C549.241818,100.98306 550.186051,105.128473 552.074546,107.523636 C553.96304,109.9188 557.11816,111.116364 561.54,111.116364 C565.40911,111.116364 568.28787,110.287281 570.176364,108.629091 C572.064858,106.970901 573.653933,104.069112 574.943637,99.9236364 L590.558182,104.345455 Z M549.241818,68.1418182 L549.241818,73.6690909 L571.903637,73.6690909 L571.903637,68.9709091 C571.903637,62.798757 571.028494,58.3769831 569.278182,55.7054545 C567.52787,53.033926 564.626081,51.6981818 560.572727,51.6981818 C556.519374,51.6981818 553.617585,52.9648358 551.867273,55.4981818 C550.116961,58.0315278 549.241818,62.2460311 549.241818,68.1418182 L549.241818,68.1418182 Z" id="Ee"></path>
                    <path d="M269.2,123 L250.407273,123 L250.407273,81.5454545 L220.421818,12.4545455 L240.181818,12.4545455 L260.218182,65.5163636 L280.392727,12.4545455 L299.047273,12.4545455 L269.2,81.5454545 L269.2,123 Z M317.950909,151.741818 C315.463624,151.741818 312.792136,151.603638 309.936364,151.327273 C307.080592,151.050908 303.994562,150.682427 300.678182,150.221818 L301.921818,135.989091 C304.501225,136.449699 306.873323,136.81818 309.038182,137.094545 C311.203041,137.37091 313.114537,137.509091 314.772727,137.509091 C319.839419,137.509091 323.455141,136.288497 325.62,133.847273 C327.784859,131.406048 329.466055,127.836387 330.663637,123.138182 L330.94,121.48 L318.365455,121.48 L299.572727,40.0909091 L318.089091,40.0909091 L333.150909,110.425455 L347.107273,40.0909091 L365.070909,40.0909091 L346.692727,127.283636 C344.481807,136.127317 341.027296,142.414527 336.329091,146.145455 C331.630886,149.876382 325.504886,151.741818 317.950909,151.741818 L317.950909,151.741818 Z" id="Yy"></path>
                    <path d="M63.8290909,139.221818 C51.1163001,141.432738 41.8582108,140.304265 36.0545455,135.836364 C30.2508801,131.368463 27.3490909,123.192787 27.3490909,111.309091 C18.7817753,109.927266 12.1951745,106.196394 7.58909091,100.116364 C2.98300727,94.0363332 0.68,85.9758078 0.68,75.9345455 L0.68,36.8290909 C0.68,25.1296385 3.74299967,16.0788199 9.86909091,9.67636364 C15.9951821,3.27390738 24.7235797,0.0727272727 36.0545455,0.0727272727 C47.3855112,0.0727272727 56.0908787,3.27390738 62.1709091,9.67636364 C68.2509395,16.0788199 71.2909091,25.1296385 71.2909091,36.8290909 L71.2909091,75.9345455 C71.2909091,86.3442945 68.7576011,94.6351207 63.6909091,100.807273 C58.6242171,106.979425 51.3927743,110.618176 41.9963636,111.723636 C42.3648503,117.803667 44.0690757,121.810899 47.1090909,123.745455 C50.1491061,125.68001 55.0314815,125.81819 61.7563636,124.16 L63.8290909,139.221818 Z M36.0545455,97.9054545 C42.1345759,97.9054545 46.3951393,96.2242592 48.8363636,92.8618182 C51.277588,89.4993771 52.4981818,83.5345883 52.4981818,74.9672727 L52.4981818,37.7963636 C52.4981818,29.2290481 51.277588,23.2412292 48.8363636,19.8327273 C46.3951393,16.4242254 42.1345759,14.72 36.0545455,14.72 C29.8823934,14.72 25.5757698,16.4242254 23.1345455,19.8327273 C20.6933211,23.2412292 19.4727273,29.2290481 19.4727273,37.7963636 L19.4727273,74.9672727 C19.4727273,83.5345883 20.6933211,89.4993771 23.1345455,92.8618182 C25.5757698,96.2242592 29.8823934,97.9054545 36.0545455,97.9054545 L36.0545455,97.9054545 Z M130.267273,139.636364 L130.267273,100.530909 L127.227273,100.530909 C126.029691,104.676384 123.864864,107.854534 120.732727,110.065455 C117.600591,112.276375 113.685478,113.381818 108.987273,113.381818 C102.446634,113.381818 97.4491084,110.94063 93.9945456,106.058182 C90.5399829,101.175733 88.8127275,94.1285309 88.8127275,84.9163636 L88.8127275,56.5890909 C88.8127275,47.284802 91.530276,40.1685095 96.9654547,35.24 C102.400633,30.3114905 109.954497,27.8472727 119.627273,27.8472727 C125.430938,27.8472727 130.889066,28.6533253 136.001818,30.2654545 C141.114571,31.8775838 145.467255,34.1115009 149.06,36.9672727 L149.06,139.636364 L130.267273,139.636364 Z M116.587273,98.1818182 C119.16668,98.1818182 121.630898,97.4218258 123.98,95.9018182 C126.329103,94.3818106 128.424839,91.9175928 130.267273,88.5090909 L130.267273,45.5345455 C128.885448,44.3369637 127.250313,43.4387909 125.361818,42.84 C123.473324,42.2412091 121.285467,41.9418182 118.798182,41.9418182 C115.113315,41.9418182 112.326676,43.0933218 110.438182,45.3963636 C108.549688,47.6994055 107.605455,51.5223975 107.605455,56.8654545 L107.605455,83.3963636 C107.605455,88.647299 108.365447,92.4242309 109.885455,94.7272727 C111.405462,97.0303145 113.639379,98.1818182 116.587273,98.1818182 L116.587273,98.1818182 Z" id="Qq"></path>
                </g>
                <g id="Regular" transform="translate(6.000000, 0.000000)" sketch:type="MSShapeGroup">
                    <path d="M452.436364,123 L452.436364,12.4545455 L508.123636,12.4545455 L508.123636,23.5090909 L465.010909,23.5090909 L465.010909,57.0872727 L502.872727,57.0872727 L502.872727,68.28 L465.010909,68.28 L465.010909,111.945455 L508.123636,111.945455 L508.123636,123 L452.436364,123 Z M576.081818,105.036364 C574.055142,111.853367 570.761841,116.781803 566.201818,119.821818 C561.641796,122.861833 555.861247,124.381818 548.86,124.381818 C540.292685,124.381818 533.613964,121.87154 528.823637,116.850909 C524.03331,111.830278 521.638182,104.852166 521.638182,95.9163636 L521.638182,67.7272727 C521.638182,58.6072271 524.03331,51.4909347 528.823637,46.3781818 C533.613964,41.265429 540.246624,38.7090909 548.721818,38.7090909 C557.197012,38.7090909 563.806643,41.3805793 568.550909,46.7236364 C573.295175,52.0666934 575.667273,59.4363167 575.667273,68.8327273 L575.667273,83.8945455 L534.212727,83.8945455 L534.212727,96.0545455 C534.212727,102.318819 535.433321,106.786653 537.874546,109.458182 C540.31577,112.12971 544.069672,113.465455 549.136364,113.465455 C553.834569,113.465455 557.31211,112.521222 559.569091,110.632727 C561.826072,108.744233 563.507267,105.681233 564.612727,101.443636 L576.081818,105.036364 Z M534.212727,67.7272727 L534.212727,74.0836364 L563.092727,74.0836364 L563.092727,69.1090909 C563.092727,62.4763305 561.918194,57.570925 559.569091,54.3927273 C557.219988,51.2145296 553.558207,49.6254545 548.583637,49.6254545 C543.701188,49.6254545 540.085466,51.1224093 537.736364,54.1163636 C535.387261,57.110318 534.212727,61.6472423 534.212727,67.7272727 L534.212727,67.7272727 Z" id="Ee"></path>
                    <path d="M262.738182,123 L250.163636,123 L250.163636,81.5454545 L220.454545,12.4545455 L234.134545,12.4545455 L256.934545,69.5236364 L279.043636,12.4545455 L292.309091,12.4545455 L262.738182,81.5454545 L262.738182,123 Z M303.889091,151.327273 C302.046658,151.327273 300.066071,151.189092 297.947273,150.912727 C295.828474,150.636362 293.617587,150.313941 291.314546,149.945455 L292.972727,138.614545 C294.999404,139.075154 296.86484,139.443635 298.569091,139.72 C300.273342,139.996365 301.816357,140.134545 303.198182,140.134545 C307.343657,140.134545 310.498777,138.936982 312.663637,136.541818 C314.828496,134.146655 316.647872,130.415783 318.121818,125.349091 L318.398182,123.829091 L311.903637,123.829091 L290.761818,40.0909091 L303.889091,40.0909091 L320.885455,112.912727 L337.329091,40.0909091 L350.041818,40.0909091 L327.932727,132.534545 C325.353321,139.627914 322.08305,144.53332 318.121818,147.250909 C314.160586,149.968498 309.416391,151.327273 303.889091,151.327273 L303.889091,151.327273 Z" id="Yy"></path>
                    <path d="M62.8945455,137.978182 C52.2084314,140.004859 44.0327556,138.968505 38.3672727,134.869091 C32.7017899,130.769676 29.7769706,123.791564 29.5927273,113.934545 C20.104195,113.289694 12.8727521,109.858213 7.89818182,103.64 C2.92361149,97.4217871 0.436363636,88.6933895 0.436363636,77.4545455 L0.436363636,37.2436364 C0.436363636,25.1756972 3.22300244,15.9636681 8.79636364,9.60727273 C14.3697248,3.25087731 22.3611601,0.0727272727 32.7709091,0.0727272727 C43.1806581,0.0727272727 51.1260332,3.25087731 56.6072727,9.60727273 C62.0885123,15.9636681 64.8290909,25.1756972 64.8290909,37.2436364 L64.8290909,77.4545455 C64.8290909,87.5879295 62.8024445,95.6945151 58.7490909,101.774545 C54.6957373,107.854576 48.8000387,111.677568 41.0618182,113.243636 C41.4303049,119.415788 43.2727107,123.653322 46.5890909,125.956364 C49.9054711,128.259405 54.7878465,128.627887 61.2363636,127.061818 L62.8945455,137.978182 Z M32.6327273,102.741818 C39.5418527,102.741818 44.5393785,100.738202 47.6254545,96.7309091 C50.7115306,92.7236163 52.2545455,86.2521659 52.2545455,77.3163636 L52.2545455,37.2436364 C52.2545455,28.0314691 50.7115306,21.3757781 47.6254545,17.2763636 C44.5393785,13.1769492 39.5418527,11.1272727 32.6327273,11.1272727 C25.7236018,11.1272727 20.726076,13.1769492 17.64,17.2763636 C14.553924,21.3757781 13.0109091,28.0314691 13.0109091,37.2436364 L13.0109091,77.3163636 C13.0109091,86.2521659 14.553924,92.7236163 17.64,96.7309091 C20.726076,100.738202 25.7236018,102.741818 32.6327273,102.741818 L32.6327273,102.741818 Z M121.456364,139.636364 L121.456364,101.221818 L118.416364,101.221818 C117.034539,105.090928 114.731531,108.084838 111.507273,110.203636 C108.283014,112.322435 104.413962,113.381818 99.9000002,113.381818 C93.6357264,113.381818 88.753351,110.84851 85.2527275,105.781818 C81.7521039,100.715126 80.0018184,93.6218638 80.0018184,84.5018182 L80.0018184,56.5890909 C80.0018184,47.4690453 82.5581564,40.3527528 87.6709093,35.24 C92.7836621,30.1272472 99.4854133,27.5709091 107.776364,27.5709091 C112.750934,27.5709091 117.564219,28.2157511 122.216364,29.5054545 C126.868508,30.795158 130.806651,32.5915036 134.030909,34.8945455 L134.030909,139.636364 L121.456364,139.636364 Z M104.045455,101.498182 C107.730322,101.498182 110.977562,100.461829 113.787273,98.3890909 C116.596984,96.3163533 119.153322,93.0230529 121.456364,88.5090909 L121.456364,42.7709091 C119.61393,41.2969623 117.564254,40.237579 115.307273,39.5927273 C113.050292,38.9478756 110.493954,38.6254545 107.638182,38.6254545 C103.12422,38.6254545 99.4854686,40.0763491 96.7218184,42.9781818 C93.9581682,45.8800145 92.5763638,50.5090591 92.5763638,56.8654545 L92.5763638,83.2581818 C92.5763638,89.6145772 93.4975667,94.2436219 95.3400002,97.1454545 C97.1824336,100.047287 100.084223,101.498182 104.045455,101.498182 L104.045455,101.498182 Z" id="Qq"></path>
                </g>
                <g id="Light" transform="translate(12.000000, 0.000000)" sketch:type="MSShapeGroup">
                    <path d="M447.403636,123 L447.403636,12.4545455 L501.570909,12.4545455 L501.570909,22.1272727 L458.181818,22.1272727 L458.181818,57.5018182 L496.32,57.5018182 L496.32,67.3127273 L458.181818,67.3127273 L458.181818,113.327273 L501.570909,113.327273 L501.570909,123 L447.403636,123 Z M569.390909,105.312727 C567.364232,112.221853 564.163052,117.127258 559.787273,120.029091 C555.411493,122.930924 549.815186,124.381818 542.998182,124.381818 C534.707231,124.381818 528.235781,121.89457 523.583637,116.92 C518.931492,111.94543 516.605455,105.036408 516.605455,96.1927273 L516.605455,67.5890909 C516.605455,58.561167 518.908462,51.4909347 523.514546,46.3781818 C528.120629,41.265429 534.522989,38.7090909 542.721818,38.7090909 C550.920647,38.7090909 557.323007,41.3805793 561.929091,46.7236364 C566.535175,52.0666934 568.838182,59.4363167 568.838182,68.8327273 L568.838182,83.48 L527.383637,83.48 L527.383637,96.4690909 C527.383637,102.825486 528.673321,107.408471 531.252727,110.218182 C533.832134,113.027893 537.747247,114.432727 542.998182,114.432727 C547.972752,114.432727 551.657564,113.442434 554.052727,111.461818 C556.447891,109.481202 558.152116,106.326082 559.165455,101.996364 L569.390909,105.312727 Z M527.383637,67.5890909 L527.383637,74.2218182 L558.06,74.2218182 L558.06,69.1090909 C558.06,62.3842088 556.793346,57.3175928 554.26,53.9090909 C551.726654,50.500589 547.834572,48.7963636 542.583637,48.7963636 C537.516945,48.7963636 533.716983,50.3854387 531.183637,53.5636364 C528.650291,56.7418341 527.383637,61.4169388 527.383637,67.5890909 L527.383637,67.5890909 Z" id="Ee"></path>
                    <path d="M259.909091,123 L249.130909,123 L249.130909,81.5454545 L219.56,12.4545455 L231.443636,12.4545455 L254.934545,71.0436364 L277.734545,12.4545455 L289.341818,12.4545455 L259.909091,81.5454545 L259.909091,123 Z M301.336364,151.189091 C299.586052,151.189091 297.766676,151.05091 295.878182,150.774545 C293.989688,150.49818 292.078192,150.175759 290.143637,149.807273 L291.94,139.72 C293.690312,140.180608 295.371507,140.54909 296.983637,140.825455 C298.595766,141.10182 300.04666,141.24 301.336364,141.24 C305.205474,141.24 308.199384,140.065466 310.318182,137.716364 C312.43698,135.367261 314.325446,131.567299 315.983637,126.316364 L316.26,124.796364 L311.561818,124.796364 L289.729091,40.0909091 L301.198182,40.0909091 L318.885455,113.88 L336.02,40.0909091 L347.212727,40.0909091 L323.86,134.607273 C321.280593,140.963668 318.125473,145.316352 314.394546,147.665455 C310.663618,150.014557 306.310934,151.189091 301.336364,151.189091 L301.336364,151.189091 Z" id="Yy"></path>
                    <path d="M62.7236364,137.563636 C59.2230128,138.30061 56.0448628,138.623031 53.1890909,138.530909 C47.2933039,138.623031 42.1115375,136.987896 37.6436364,133.625455 C33.1757352,130.263013 30.7115175,124.067924 30.2509091,115.04 C20.5781335,114.671513 13.1854801,111.332153 8.07272727,105.021818 C2.95997444,98.7114836 0.403636364,89.7067252 0.403636364,78.0072727 L0.403636364,37.3818182 C0.403636364,25.2217574 3.09815487,15.9636681 8.48727273,9.60727273 C13.8763906,3.25087731 21.6375251,0.0727272727 31.7709091,0.0727272727 C41.9042931,0.0727272727 49.6423975,3.25087731 54.9854545,9.60727273 C60.3285116,15.9636681 63,25.2217574 63,37.3818182 L63,78.0072727 C63,88.0485351 61.111534,96.0860304 57.3345455,102.12 C53.5575569,108.15397 48.0763996,112.046052 40.8909091,113.796364 C41.4436391,120.060637 43.0327141,124.18302 45.6581818,126.163636 C48.2836495,128.144252 51.2545289,129.134545 54.5709091,129.134545 C56.5975859,129.134545 58.7624127,128.858185 61.0654545,128.305455 L62.7236364,137.563636 Z M31.6327273,104.676364 C38.8182177,104.676364 44.0460443,102.557597 47.3163636,98.32 C50.586683,94.0824031 52.2218182,87.403682 52.2218182,78.2836364 L52.2218182,36.9672727 C52.2218182,27.5708621 50.586683,20.6848704 47.3163636,16.3090909 C44.0460443,11.9333115 38.8182177,9.74545455 31.6327273,9.74545455 C24.5393585,9.74545455 19.3575921,11.9333115 16.0872727,16.3090909 C12.8169533,20.6848704 11.1818182,27.5708621 11.1818182,36.9672727 L11.1818182,78.2836364 C11.1818182,87.403682 12.8169533,94.0824031 16.0872727,98.32 C19.3575921,102.557597 24.5393585,104.676364 31.6327273,104.676364 L31.6327273,104.676364 Z M121.423637,139.636364 L121.423637,101.498182 L118.383637,101.498182 C116.90969,105.183049 114.560622,108.084838 111.336364,110.203636 C108.112105,112.322435 104.289113,113.381818 99.8672729,113.381818 C93.6951208,113.381818 88.8357755,110.82548 85.2890911,105.712727 C81.7424067,100.599974 79.9690911,93.483682 79.9690911,84.3636364 L79.9690911,56.5890909 C79.9690911,47.4690453 82.5023991,40.3297228 87.5690911,35.1709091 C92.6357831,30.0120954 99.0381433,27.4327273 106.776364,27.4327273 C111.566691,27.4327273 116.218765,28.0084791 120.732727,29.16 C125.246689,30.3115209 129.069681,31.9466561 132.201818,34.0654545 L132.201818,139.636364 L121.423637,139.636364 Z M102.907273,102.741818 C106.960627,102.741818 110.438167,101.590315 113.34,99.2872727 C116.241833,96.9842309 118.936351,93.3915396 121.423637,88.5090909 L121.423637,41.6654545 C119.39696,40.0993861 117.232133,38.9709125 114.929091,38.28 C112.626049,37.5890875 109.954561,37.2436364 106.914546,37.2436364 C102.21634,37.2436364 98.3472881,38.8327114 95.3072729,42.0109091 C92.2672577,45.1891068 90.7472729,50.1405724 90.7472729,56.8654545 L90.7472729,83.2581818 C90.7472729,89.9830639 91.6915059,94.9114995 93.5800002,98.0436364 C95.4684945,101.175773 98.5775543,102.741818 102.907273,102.741818 L102.907273,102.741818 Z" id="Qq"></path>
                </g>
                <g id="Extra-Light" transform="translate(13.000000, 0.000000)" sketch:type="MSShapeGroup">
                    <path d="M447.370909,123 L447.370909,12.4545455 L499.465455,12.4545455 L499.465455,20.3309091 L456.076364,20.3309091 L456.076364,58.6072727 L494.352727,58.6072727 L494.352727,66.4836364 L456.076364,66.4836364 L456.076364,115.123636 L499.465455,115.123636 L499.465455,123 L447.370909,123 Z M566.732727,106.003636 C564.982416,112.360032 562.126687,117.012106 558.165455,119.96 C554.204223,122.907894 548.861246,124.381818 542.136364,124.381818 C534.121778,124.381818 527.857599,121.9176 523.343637,116.989091 C518.829675,112.060581 516.572727,104.990349 516.572727,95.7781818 L516.572727,67.8654545 C516.572727,58.3769223 518.829675,51.1454794 523.343637,46.1709091 C527.857599,41.1963388 533.983598,38.7090909 541.721818,38.7090909 C549.460039,38.7090909 555.563008,41.265429 560.030909,46.3781818 C564.49881,51.4909347 566.732727,58.9757083 566.732727,68.8327273 L566.732727,82.9272727 L525.278182,82.9272727 L525.278182,95.9163636 C525.278182,103.193976 526.683016,108.467862 529.492727,111.738182 C532.302438,115.008501 536.563002,116.643636 542.274546,116.643636 C547.249116,116.643636 550.887867,115.676373 553.190909,113.741818 C555.493951,111.807263 557.290297,108.398812 558.58,103.516364 L566.732727,106.003636 Z M525.278182,67.8654545 L525.278182,75.6036364 L558.027273,75.6036364 L558.027273,69.1090909 C558.027273,61.3708704 556.668499,55.6594124 553.950909,51.9745455 C551.23332,48.2896785 547.156997,46.4472727 541.721818,46.4472727 C536.194518,46.4472727 532.072135,48.1975583 529.354546,51.6981818 C526.636956,55.1988054 525.278182,60.5878424 525.278182,67.8654545 L525.278182,67.8654545 Z" id="Ee"></path>
                    <path d="M257.803636,123 L249.098182,123 L249.098182,81.5454545 L219.389091,12.4545455 L229.061818,12.4545455 L253.796364,71.8727273 L277.978182,12.4545455 L287.374545,12.4545455 L257.803636,81.5454545 L257.803636,123 Z M299.921818,151.465455 C298.447872,151.465455 296.904857,151.350304 295.292727,151.12 C293.680598,150.889696 291.953343,150.590305 290.110909,150.221818 L291.354546,142.345455 C293.012736,142.713941 294.532721,143.013332 295.914546,143.243636 C297.296371,143.473941 298.770295,143.589091 300.336364,143.589091 C304.021231,143.589091 306.89999,142.483647 308.972727,140.272727 C311.045465,138.061807 312.818781,134.146695 314.292727,128.527273 L315.536364,123.276364 L311.943637,123.276364 L289.696364,40.0909091 L298.954546,40.0909091 L317.885455,114.432727 L336.401818,40.0909091 L345.245455,40.0909091 L321.34,132.258182 C319.12908,139.351551 316.273351,144.326046 312.772727,147.181818 C309.272104,150.03759 304.98851,151.465455 299.921818,151.465455 L299.921818,151.465455 Z" id="Yy"></path>
                    <path d="M61.4472727,138.254545 C51.0375237,140.833952 43.0460885,140.00487 37.4727273,135.767273 C31.8993661,131.529676 29.020607,124.160053 28.8363636,113.658182 C19.2557097,113.289695 12.1163871,109.996395 7.41818182,103.778182 C2.71997651,97.5599689 0.370909091,88.3249097 0.370909091,76.0727273 L0.370909091,38.2109091 C0.370909091,25.3138749 2.88118702,15.7333647 7.90181818,9.46909091 C12.9224493,3.20481716 20.5454034,0.0727272727 30.7709091,0.0727272727 C40.9042931,0.0727272727 48.4581569,3.20481716 53.4327273,9.46909091 C58.4072976,15.7333647 60.8945455,25.3138749 60.8945455,38.2109091 L60.8945455,76.0727273 C60.8945455,87.5879364 58.9369893,96.3854241 55.0218182,102.465455 C51.1066471,108.545485 45.1418583,112.138176 37.1272727,113.243636 C37.4036377,121.626709 39.4533142,127.107866 43.2763636,129.687273 C47.0994131,132.26668 52.6957207,132.54304 60.0654545,130.516364 L61.4472727,138.254545 Z M30.6327273,105.781818 C38.2788261,105.781818 43.7830135,103.455781 47.1454545,98.8036364 C50.5078956,94.1514919 52.1890909,86.5285378 52.1890909,75.9345455 L52.1890909,38.2109091 C52.1890909,27.4326734 50.5078956,19.6945689 47.1454545,14.9963636 C43.7830135,10.2981583 38.2788261,7.94909091 30.6327273,7.94909091 C22.9866284,7.94909091 17.4824411,10.2981583 14.12,14.9963636 C10.7575589,19.6945689 9.07636364,27.4326734 9.07636364,38.2109091 L9.07636364,75.9345455 C9.07636364,86.5285378 10.7575589,94.1514919 14.12,98.8036364 C17.4824411,103.455781 22.9866284,105.781818 30.6327273,105.781818 L30.6327273,105.781818 Z M121.390909,139.636364 L121.390909,101.083636 L119.456364,101.083636 C117.521809,105.044868 114.965471,108.084838 111.787273,110.203636 C108.609075,112.322435 104.901233,113.381818 100.663637,113.381818 C94.1229978,113.381818 89.0333517,110.94063 85.3945456,106.058182 C81.7557396,101.175733 79.9363638,94.3127715 79.9363638,85.4690909 L79.9363638,56.5890909 C79.9363638,47.561167 82.2624012,40.4909347 86.9145456,35.3781818 C91.5666901,30.265429 97.8999601,27.7090909 105.914546,27.7090909 C110.612751,27.7090909 115.057555,28.3999931 119.249091,29.7818182 C123.440627,31.1636433 127.056349,32.9139288 130.096364,35.0327273 L130.096364,139.636364 L121.390909,139.636364 Z M102.736364,105.229091 C106.421231,105.229091 109.714531,104.238798 112.616364,102.258182 C115.518197,100.277566 118.443016,97.0303256 121.390909,92.5163636 L121.390909,39.8690909 C119.179989,38.3951441 116.761831,37.2666706 114.136364,36.4836364 C111.510896,35.7006021 108.724257,35.3090909 105.776364,35.3090909 C100.249063,35.3090909 96.0115301,37.1054366 93.0636366,40.6981818 C90.115743,44.2909271 88.6418184,49.6799641 88.6418184,56.8654545 L88.6418184,84.0872727 C88.6418184,91.2727632 89.793322,96.59271 92.0963638,100.047273 C94.3994056,103.501835 97.9460368,105.229091 102.736364,105.229091 L102.736364,105.229091 Z" id="Qq"></path>
                </g>
            </g>
        </g>
    </g>
</svg>