<svg height="37" viewBox="0 0 764 37" width="764" xmlns="http://www.w3.org/2000/svg"><g fill="none" fill-rule="evenodd"><g fill="#fff"><circle cx="33.5" cy="31.5" r="5.5"/><circle cx="736.5" cy="31.5" r="5.5"/><path d="m5.36363636 16.1818182c-1.35758254 0-2.45454127-.3363603-3.29090909-1.0090909-.83636782-.6727307-1.25454545-1.7121142-1.25454545-3.1181818v-2.94545459c0-1.41818891.42120791-2.47272382 1.26363636-3.16363636.84242846-.69091255 1.94241746-1.03636364 3.3-1.03636364 1.35758255 0 2.451511.34545109 3.28181818 1.03636364.83030719.69091254 1.24545455 1.74544745 1.24545455 3.16363636v2.94545459c0 1.4060676-.41817764 2.4454511-1.25454546 3.1181818-.83636781.6727306-1.93332654 1.0090909-3.29090909 1.0090909zm0-1.6363637c.90909546 0 1.59090682-.1939374 2.04545455-.5818181.45454773-.3878808.68181818-1.024238.68181818-1.9090909v-2.94545459c0-.87273164-.22727045-1.51817973-.68181818-1.93636364s-1.13635909-.62727272-2.04545455-.62727272c-.90909545 0-1.59090681.20908881-2.04545454.62727272s-.68181818 1.063632-.68181818 1.93636364v2.94545459c0 .8848529.22727045 1.5212101.68181818 1.9090909.45454773.3878807 1.13635909.5818181 2.04545454.5818181zm9.00000004 1.4545455v-9.27272727h-2.1818182v-1.63636364h2.1818182v-.72727273c0-.98182309.2969667-1.74242154.8909091-2.28181818.5939423-.53939663 1.3333289-.80909091 2.2181818-.80909091.3515169 0 .7818156.04848437 1.2909091.14545455.5090934.09697018.91515.20606 1.2181818.32727273l-.3636364 1.52727272c-.2545467-.09697018-.5363621-.18181782-.8454545-.25454545-.3090925-.07272764-.6212106-.10909091-.9363637-.10909091-.5090934 0-.9121197.11212009-1.2090909.33636364-.2969712.22424354-.4454545.59090654-.4454545 1.1v.74545454h3.6363636v1.63636364h-3.6363636v9.27272727zm9.9090909 0v-9.27272727h-2.1818182v-1.63636364h2.1818182v-.72727273c0-.98182309.2969667-1.74242154.8909091-2.28181818.5939423-.53939663 1.3333289-.80909091 2.2181818-.80909091.3515169 0 .7818156.04848437 1.2909091.14545455.5090934.09697018.91515.20606 1.2181818.32727273l-.3636364 1.52727272c-.2545467-.09697018-.5363621-.18181782-.8454545-.25454545-.3090925-.07272764-.6212106-.10909091-.9363637-.10909091-.5090934 0-.9121197.11212009-1.2090909.33636364-.2969711.22424354-.4454545.59090654-.4454545 1.1v.74545454h3.6363636v1.63636364h-3.6363636v9.27272727zm12.9272727.0909091c-1.2242485 0-2.184845-.4121171-2.8818182-1.2363636-.6969732-.8242466-1.0454545-1.7999944-1.0454545-2.9272728v-10.47272725h1.8181818v10.49090905c0 .6424275.1787861 1.2121188.5363636 1.709091.3575776.4969721.8999964.7454545 1.6272728.7454545.181819 0 .3939381-.0303027.6363636-.0909091.2424254-.0606064.4545445-.1333329.6363636-.2181818l.3636364 1.5818182c-.2303042.1212127-.4909076.2212117-.7818182.3-.2909105.0787882-.5939378.1181818-.9090909.1181818zm5.0727273-.0909091v-10.90909091h1.8181818v10.90909091zm.9090909-12.90909091c-.4606084 0-.8333319-.07272654-1.1181818-.21818182-.2848499-.14545527-.4272728-.41817982-.4272728-.81818182v-.12727272c0-.41212328.1424229-.69393864.4272728-.84545455s.6575734-.22727272 1.1181818-.22727272c.4606083 0 .8333319.07575681 1.1181818.22727272s.4272727.43333127.4272727.84545455v.12727272c0 .400002-.1454531.67272655-.4363636.81818182-.2909106.14545528-.6606038.21818182-1.1090909.21818182zm5.3636363 12.90909091v-10.90909091h1.8181819v1.81818182h.5454545c.266668-.60606364.6878759-1.09090727 1.2636364-1.45454546.5757604-.36363818 1.2212085-.54545454 1.9363636-.54545454 1.0787933 0 1.9363605.33636027 2.5727273 1.00909091.6363668.67273063.9545454 1.57878218.9545454 2.71818182v7.36363636h-1.8181818v-7c0-.800004-.2030283-1.39393745-.6090909-1.78181818s-.9181787-.58181818-1.5363636-.58181818c-.7030338 0-1.3090884.17878609-1.8181818.53636363-.5090935.35757755-1.0060582.81514873-1.4909091 1.37272728v7.45454545zm20.8545455-2.4c-.3272744.9090955-.845451 1.5666646-1.5545455 1.9727273-.7090944.4060626-1.7121147.6090909-3.0090909.6090909-1.4424314 0-2.5636323-.3484814-3.3636363-1.0454546-.800004-.6969731-1.2-1.7302961-1.2-3.1v-2.92727269c0-1.40606764.4212079-2.45757227 1.2636363-3.15454546.8424285-.69697318 1.9424175-1.04545454 3.3-1.04545454 1.3697039 0 2.4666626.35454191 3.2909091 1.06363636.8242466.70909446 1.2363637 1.79696237 1.2363637 3.26363637v1.67272726h-7.2727273v1.1454546c0 .9090954.2272704 1.5666646.6818182 1.9727272.4545477.4060627 1.1363591.6090909 2.0454545.6090909.8727317 0 1.5090889-.1212109 1.9090909-.3636363.400002-.2424255.7030293-.6363609.9090909-1.1818182zm-7.3090909-4.49090909v.43636364h5.4545454v-.27272728c0-.98182309-.2272704-1.69696745-.6818181-2.14545454-.4545478-.44848709-1.1363591-.67272728-2.0454546-.67272728-.9090954 0-1.5909068.21514937-2.0454545.64545455-.4545478.43030518-.6818182 1.09999545-.6818182 2.00909091z"/><path d="m707.363636 16.1818182c-1.357582 0-2.454541-.3363603-3.290909-1.0090909-.836368-.6727307-1.254545-1.7121142-1.254545-3.1181818v-2.94545459c0-1.41818891.421208-2.47272382 1.263636-3.16363636.842429-.69091255 1.942418-1.03636364 3.3-1.03636364 1.357583 0 2.451511.34545109 3.281818 1.03636364.830308.69091254 1.245455 1.74544745 1.245455 3.16363636v2.94545459c0 1.4060676-.418178 2.4454511-1.254546 3.1181818-.836367.6727306-1.933326 1.0090909-3.290909 1.0090909zm0-1.6363637c.909096 0 1.590907-.1939374 2.045455-.5818181.454548-.3878808.681818-1.024238.681818-1.9090909v-2.94545459c0-.87273164-.22727-1.51817973-.681818-1.93636364s-1.136359-.62727272-2.045455-.62727272c-.909095 0-1.590906.20908881-2.045454.62727272s-.681818 1.063632-.681818 1.93636364v2.94545459c0 .8848529.22727 1.5212101.681818 1.9090909.454548.3878807 1.136359.5818181 2.045454.5818181zm7.181819 1.4545455v-10.90909091h1.818181v1.81818182h.545455c.266668-.60606364.687876-1.09090727 1.263636-1.45454546.575761-.36363818 1.221209-.54545454 1.936364-.54545454 1.078793 0 1.93636.33636027 2.572727 1.00909091.636367.67273063.954546 1.57878218.954546 2.71818182v7.36363636h-1.818182v-7c0-.800004-.203028-1.39393745-.609091-1.78181818s-.918179-.58181818-1.536364-.58181818c-.703034 0-1.309088.17878609-1.818182.53636363-.509093.35757755-1.006058.81514873-1.490909 1.37272728v7.45454545zm16.563636.0909091c-1.224249 0-2.184845-.4121171-2.881818-1.2363636-.696973-.8242466-1.045455-1.7999944-1.045455-2.9272728v-10.47272725h1.818182v10.49090905c0 .6424275.178786 1.2121188.536364 1.709091.357577.4969721.899996.7454545 1.627272.7454545.181819 0 .393939-.0303027.636364-.0909091s.454545-.1333329.636364-.2181818l.363636 1.5818182c-.230304.1212127-.490908.2212117-.781818.3-.290911.0787882-.593938.1181818-.909091.1181818zm5.072727-.0909091v-10.90909091h1.818182v10.90909091zm.909091-12.90909091c-.460608 0-.833332-.07272654-1.118182-.21818182-.28485-.14545527-.427272-.41817982-.427272-.81818182v-.12727272c0-.41212328.142422-.69393864.427272-.84545455s.657574-.22727272 1.118182-.22727272.833332.07575681 1.118182.22727272.427273.43333127.427273.84545455v.12727272c0 .400002-.145453.67272655-.436364.81818182-.290911.14545528-.660604.21818182-1.109091.21818182zm5.363636 12.90909091v-10.90909091h1.818182v1.81818182h.545455c.266668-.60606364.687876-1.09090727 1.263636-1.45454546.575761-.36363818 1.221209-.54545454 1.936364-.54545454 1.078793 0 1.93636.33636027 2.572727 1.00909091.636367.67273063.954546 1.57878218.954546 2.71818182v7.36363636h-1.818182v-7c0-.800004-.203029-1.39393745-.609091-1.78181818-.406063-.38788073-.918179-.58181818-1.536364-.58181818-.703034 0-1.309088.17878609-1.818182.53636363-.509093.35757755-1.006058.81514873-1.490909 1.37272728v7.45454545zm20.854546-2.4c-.327274.9090955-.845451 1.5666646-1.554546 1.9727273-.709094.4060626-1.712114.6090909-3.00909.6090909-1.442432 0-2.563633-.3484814-3.363637-1.0454546-.800004-.6969731-1.2-1.7302961-1.2-3.1v-2.92727269c0-1.40606764.421208-2.45757227 1.263637-3.15454546.842428-.69697318 1.942417-1.04545454 3.3-1.04545454 1.369703 0 2.466662.35454191 3.290909 1.06363636.824246.70909446 1.236363 1.79696237 1.236363 3.26363637v1.67272726h-7.272727v1.1454546c0 .9090954.22727 1.5666646.681818 1.9727272.454548.4060627 1.136359.6090909 2.045455.6090909.872731 0 1.509089-.1212109 1.909091-.3636363.400002-.2424255.703029-.6363609.909091-1.1818182zm-7.309091-4.49090909v.43636364h5.454545v-.27272728c0-.98182309-.22727-1.69696745-.681818-2.14545454-.454547-.44848709-1.136359-.67272728-2.045454-.67272728-.909096 0-1.590907.21514937-2.045455.64545455s-.681818 1.09999545-.681818 2.00909091z"/></g><path d="m39 31h692v1h-692z" fill="#359e91"/></g></svg>