<svg width="764" height="37" viewBox="0 0 764 37" xmlns="http://www.w3.org/2000/svg"><title>Group</title><g fill="none" fill-rule="evenodd"><circle fill="#FFF" cx="33.5" cy="31.5" r="5.5"/><circle fill="#FFF" cx="736.5" cy="31.5" r="5.5"/><path d="M5.364 16.182c-1.358 0-2.455-.337-3.29-1.01-.838-.672-1.256-1.71-1.256-3.117V9.11c0-1.42.42-2.474 1.264-3.165.842-.69 1.942-1.036 3.3-1.036 1.357 0 2.45.345 3.282 1.035.83.69 1.245 1.746 1.245 3.164v2.945c0 1.406-.42 2.445-1.255 3.118-.837.672-1.934 1.01-3.29 1.01zm0-1.637c.91 0 1.59-.193 2.045-.58.454-.39.68-1.026.68-1.91V9.11c0-.874-.226-1.52-.68-1.937-.455-.418-1.137-.628-2.046-.628-.91 0-1.59.21-2.046.628-.454.418-.682 1.063-.682 1.936v2.945c0 .884.228 1.52.682 1.91.455.387 1.137.58 2.046.58zm9 1.455V6.727h-2.182V5.09h2.182v-.726c0-.982.297-1.743.89-2.282.594-.54 1.334-.81 2.22-.81.35 0 .78.05 1.29.146.51.097.915.206 1.218.327l-.364 1.528a6.67 6.67 0 0 0-.845-.255c-.31-.073-.62-.11-.937-.11-.51 0-.912.113-1.21.337-.296.225-.444.59-.444 1.1v.746h3.636v1.637h-3.636V16h-1.818zm9.91 0V6.727H22.09V5.09h2.183v-.726c0-.982.297-1.743.89-2.282.595-.54 1.334-.81 2.22-.81.35 0 .78.05 1.29.146.51.097.915.206 1.218.327l-.363 1.528a6.67 6.67 0 0 0-.845-.255c-.31-.073-.62-.11-.937-.11-.51 0-.912.113-1.21.337-.296.225-.444.59-.444 1.1v.746h3.637v1.637H26.09V16h-1.817zm12.926.09c-1.224 0-2.185-.41-2.882-1.235-.697-.825-1.045-1.8-1.045-2.928V1.455h1.818v10.49c0 .643.18 1.213.537 1.71.358.497.9.745 1.628.745.18 0 .393-.03.636-.09a3.54 3.54 0 0 0 .637-.22l.364 1.583c-.23.12-.49.22-.78.3-.292.08-.595.118-.91.118zm5.073-.09V5.09h1.818V16h-1.817zm.91-12.91c-.462 0-.835-.072-1.12-.217-.284-.146-.427-.418-.427-.818v-.128c0-.412.143-.694.428-.845.284-.152.657-.227 1.118-.227.46 0 .833.075 1.118.227.285.15.427.433.427.845v.128c0 .4-.145.672-.436.818-.29.145-.66.218-1.108.218zM48.544 16V5.09h1.82v1.82h.544a3.228 3.228 0 0 1 1.263-1.455 3.55 3.55 0 0 1 1.936-.546c1.078 0 1.935.335 2.572 1.008.636.673.954 1.58.954 2.718V16h-1.818V9c0-.8-.203-1.394-.61-1.782-.405-.388-.917-.582-1.535-.582-.703 0-1.31.18-1.818.537a8.386 8.386 0 0 0-1.49 1.372V16h-1.82zM69.4 13.6c-.327.91-.845 1.567-1.555 1.973-.71.406-1.712.61-3.01.61-1.44 0-2.562-.35-3.362-1.047-.8-.697-1.2-1.73-1.2-3.1V9.11c0-1.407.42-2.458 1.263-3.155.843-.697 1.943-1.046 3.3-1.046 1.37 0 2.467.354 3.29 1.063.826.71 1.238 1.797 1.238 3.263v1.673H62.09v1.145c0 .91.228 1.566.683 1.972.454.406 1.136.61 2.045.61.873 0 1.51-.122 1.91-.364.4-.243.702-.637.908-1.182l1.764.51zm-7.31-4.49v.435h5.455v-.272c0-.982-.227-1.697-.68-2.146-.456-.448-1.138-.672-2.047-.672-.91 0-1.59.215-2.045.645-.455.43-.682 1.1-.682 2.01zM707.364 16.182c-1.358 0-2.455-.337-3.29-1.01-.838-.672-1.256-1.71-1.256-3.117V9.11c0-1.42.42-2.474 1.264-3.165.842-.69 1.942-1.036 3.3-1.036 1.357 0 2.45.345 3.282 1.035.83.69 1.245 1.746 1.245 3.164v2.945c0 1.406-.42 2.445-1.255 3.118-.837.672-1.934 1.01-3.29 1.01zm0-1.637c.91 0 1.59-.193 2.045-.58.454-.39.68-1.026.68-1.91V9.11c0-.874-.226-1.52-.68-1.937-.455-.418-1.137-.628-2.046-.628-.91 0-1.59.21-2.046.628-.454.418-.682 1.063-.682 1.936v2.945c0 .884.228 1.52.682 1.91.455.387 1.137.58 2.046.58zm7.18 1.455V5.09h1.82v1.82h.545a3.228 3.228 0 0 1 1.263-1.455 3.55 3.55 0 0 1 1.936-.546c1.078 0 1.935.335 2.572 1.008.636.673.954 1.58.954 2.718V16h-1.818V9c0-.8-.203-1.394-.61-1.782-.405-.388-.917-.582-1.535-.582-.703 0-1.31.18-1.818.537a8.386 8.386 0 0 0-1.49 1.372V16h-1.82zm16.565.09c-1.225 0-2.186-.41-2.883-1.235-.697-.825-1.045-1.8-1.045-2.928V1.455H729v10.49c0 .643.18 1.213.536 1.71.358.497.9.745 1.628.745.18 0 .394-.03.636-.09a3.54 3.54 0 0 0 .636-.22l.364 1.583c-.23.12-.49.22-.782.3-.29.08-.594.118-.91.118zm5.072-.09V5.09H738V16h-1.818zm.91-12.91c-.462 0-.834-.072-1.12-.217-.284-.146-.427-.418-.427-.818v-.128c0-.412.143-.694.428-.845.285-.152.657-.227 1.118-.227.462 0 .834.075 1.12.227.284.15.426.433.426.845v.128c0 .4-.145.672-.436.818-.29.145-.66.218-1.11.218zM742.454 16V5.09h1.818v1.82h.545a3.228 3.228 0 0 1 1.264-1.455 3.55 3.55 0 0 1 1.936-.546c1.08 0 1.937.335 2.573 1.008.637.673.955 1.58.955 2.718V16h-1.818V9c0-.8-.203-1.394-.61-1.782-.405-.388-.917-.582-1.535-.582-.703 0-1.31.18-1.818.537a8.386 8.386 0 0 0-1.49 1.372V16h-1.82zm20.854-2.4c-.328.91-.846 1.567-1.555 1.973-.71.406-1.713.61-3.01.61-1.442 0-2.563-.35-3.363-1.047-.8-.697-1.2-1.73-1.2-3.1V9.11c0-1.407.42-2.458 1.263-3.155.843-.697 1.943-1.046 3.3-1.046 1.37 0 2.467.354 3.29 1.063.826.71 1.238 1.797 1.238 3.263v1.673H756v1.145c0 .91.227 1.566.682 1.972.454.406 1.136.61 2.045.61.873 0 1.51-.122 1.91-.364.4-.243.702-.637.908-1.182l1.764.51zM756 9.11v.435h5.455v-.272c0-.982-.228-1.697-.682-2.146-.455-.448-1.137-.672-2.046-.672-.91 0-1.59.215-2.045.645-.455.43-.682 1.1-.682 2.01z" fill="#FFF"/><path fill="#359E91" d="M39 31h692v1H39z"/></g></svg>