<svg height="159" viewBox="0 0 1241 159" width="1241" xmlns="http://www.w3.org/2000/svg"><path d="m918.114 530.9c-1.356 37.516-1.13 92.886 0 126.108.226 3.39 2.26 4.52 5.424 3.164 4.294-1.808 6.102-2.712 8.588-4.52 2.034-1.356 3.616-2.938 3.39-7.458-1.582-33.9-1.13-79.326.226-118.424 2.712-.226 5.65-.452 8.588-.678 5.876-.452 8.588-.452 11.752-6.328 3.39-6.328.452-6.328-2.712-6.102-18.758 1.582-36.386 3.842-48.138 4.972-2.938.226-4.068 1.356-4.746 2.712-.678 1.582-1.582 3.164-1.808 4.52-.452 2.034 0 3.39 3.616 3.164 5.424-.226 10.622-.678 15.82-1.13zm75.032 83.62c-4.746 1.356-9.492 2.938-14.012 4.52-.226-28.702.226-60.568 1.356-91.304.226-4.294-2.486-4.746-5.65-3.39-2.712 1.13-4.972 2.486-8.362 4.746s-3.842 4.972-4.068 8.814c-1.356 37.742.226 83.168 1.13 118.424 0 3.39 2.26 4.294 4.972 3.164 4.068-1.808 6.102-3.164 8.362-4.52s3.164-2.938 2.938-7.458c-.226-5.65-.226-11.3-.452-17.176 4.52-1.356 9.04-2.712 14.012-4.068 0 10.848.226 21.47.452 31.414 0 3.164 2.034 4.294 4.972 2.938 4.068-1.808 5.876-3.164 8.362-4.52s3.39-2.712 3.164-7.458c-1.13-35.256 0-90.174 2.034-130.176.226-4.068-1.356-5.424-4.746-4.294-2.712.904-6.102 2.26-9.266 4.068-3.39 1.808-3.842 4.52-4.068 8.362-.904 28.928-1.356 59.438-1.13 87.914zm43.392 5.198c0-27.798.678-58.76 1.808-88.818 4.52-.678 8.362-1.356 12.882-1.808 3.616-.452 8.814-2.034 11.3-8.362 2.712-6.78-1.13-6.78-3.842-6.102-12.656 3.164-23.052 4.746-32.996 6.78-4.972.904-5.198 4.972-5.424 9.04-1.356 40.228-.904 88.14.452 124.978.226 3.616 2.034 5.424 6.554 4.294 7.684-1.808 16.498-3.164 23.278-4.746 4.294-1.13 7.91-2.26 10.396-8.588s-.452-5.876-3.616-5.198c-7.458 1.808-13.108 3.39-20.34 5.198-.226-4.746-.226-9.944-.452-15.142 3.842-.678 7.458-1.356 11.074-2.26 4.068-.904 7.91-2.712 10.396-8.588 2.712-6.78-.678-6.328-3.842-5.424-5.424 1.582-11.752 3.164-17.628 4.746zm84.298-39.55c3.164 24.408 10.17 59.664 14.69 69.834 2.034 4.294 5.65 4.972 9.04 3.39s6.554-3.616 8.814-6.102 4.068-4.52 4.068-9.492c.452-35.03 1.808-88.14 3.616-110.74.452-5.876 0-12.882-4.746-16.498-5.198-4.068-6.554-.226-6.554 2.712-.452 16.724-.904 75.032-1.356 106.898 0 3.842-1.808 4.746-2.938-.226-5.424-25.538-8.588-65.992-10.396-100.57-.226-3.164-1.582-5.65-5.65-4.52-4.52 1.13-8.362 2.938-11.752 4.52-3.164 1.582-5.198 4.068-5.424 11.978-.678 31.866-.904 101.022-1.582 127.238 0 2.938 1.13 7.006 6.328 2.938 4.746-3.616 5.65-10.622 5.198-16.724-.904-13.56-1.582-39.776-1.356-64.636zm65.54 39.55c0-27.798.678-58.76 1.808-88.818 4.52-.678 8.362-1.356 12.882-1.808 3.616-.452 8.814-2.034 11.3-8.362 2.712-6.78-1.13-6.78-3.842-6.102-12.656 3.164-23.052 4.746-32.996 6.78-4.972.904-5.198 4.972-5.424 9.04-1.356 40.228-.904 88.14.452 124.978.226 3.616 2.034 5.424 6.554 4.294 7.684-1.808 16.498-3.164 23.278-4.746 4.294-1.13 7.91-2.26 10.396-8.588s-.452-5.876-3.616-5.198c-7.458 1.808-13.108 3.39-20.34 5.198-.226-4.746-.226-9.944-.452-15.142 3.842-.678 7.458-1.356 11.074-2.26 4.068-.904 7.91-2.712 10.396-8.588 2.712-6.78-.678-6.328-3.842-5.424-5.424 1.582-11.752 3.164-17.628 4.746zm89.044-13.786c-2.26-19.662-5.198-42.714-7.458-62.376-1.13-9.266-5.65-8.136-11.3-5.198-4.972 2.712-6.328 5.198-7.006 12.204-1.582 14.238-3.39 38.646-6.554 61.246-3.616-27.12-7.006-57.856-9.492-87.01-.452-4.294-3.164-4.294-6.102-2.486-2.26 1.356-5.424 2.938-8.136 5.198-3.164 2.486-3.616 4.068-3.164 7.91 3.842 37.516 9.944 82.038 15.82 116.39.678 3.39 1.808 4.294 5.424 3.39s5.198-1.582 7.91-3.39c2.26-1.582 3.164-4.068 3.39-8.362 1.13-15.368 4.068-40.454 6.328-57.178 2.712 24.182 5.424 47.912 7.684 67.8.452 4.294 2.486 4.746 5.198 4.294 2.938-.452 4.52-.904 7.91-2.26 3.164-1.356 5.198-2.712 5.65-9.718 2.938-41.584 9.944-94.468 12.882-115.26.904-6.102-.904-13.108-4.746-16.95s-6.102-1.582-6.328 2.712c-1.356 23.278-3.842 54.014-7.91 89.044zm120.91 0c-2.26-19.662-5.198-42.714-7.458-62.376-1.13-9.266-5.65-8.136-11.3-5.198-4.972 2.712-6.328 5.198-7.006 12.204-1.582 14.238-3.39 38.646-6.554 61.246-3.616-27.12-7.006-57.856-9.492-87.01-.452-4.294-3.164-4.294-6.102-2.486-2.26 1.356-5.424 2.938-8.136 5.198-3.164 2.486-3.616 4.068-3.164 7.91 3.842 37.516 9.944 82.038 15.82 116.39.678 3.39 1.808 4.294 5.424 3.39s5.198-1.582 7.91-3.39c2.26-1.582 3.164-4.068 3.39-8.362 1.13-15.368 4.068-40.454 6.328-57.178 2.712 24.182 5.424 47.912 7.684 67.8.452 4.294 2.486 4.746 5.198 4.294 2.938-.452 4.52-.904 7.91-2.26 3.164-1.356 5.198-2.712 5.65-9.718 2.938-41.584 9.944-94.468 12.882-115.26.904-6.102-.904-13.108-4.746-16.95s-6.102-1.582-6.328 2.712c-1.356 23.278-3.842 54.014-7.91 89.044zm40.68 13.786c0-27.798.678-58.76 1.808-88.818 4.52-.678 8.362-1.356 12.882-1.808 3.616-.452 8.814-2.034 11.3-8.362 2.712-6.78-1.13-6.78-3.842-6.102-12.656 3.164-23.052 4.746-32.996 6.78-4.972.904-5.198 4.972-5.424 9.04-1.356 40.228-.904 88.14.452 124.978.226 3.616 2.034 5.424 6.554 4.294 7.684-1.808 16.498-3.164 23.278-4.746 4.294-1.13 7.91-2.26 10.396-8.588s-.452-5.876-3.616-5.198c-7.458 1.808-13.108 3.39-20.34 5.198-.226-4.746-.226-9.944-.452-15.142 3.842-.678 7.458-1.356 11.074-2.26 4.068-.904 7.91-2.712 10.396-8.588 2.712-6.78-.678-6.328-3.842-5.424-5.424 1.582-11.752 3.164-17.628 4.746zm32.996-94.468c-.452 37.064-.226 89.27 2.26 130.628.226 4.294 2.26 6.102 6.78 4.52 14.012-5.198 37.516-19.662 37.516-33.9 0-10.17-9.944-20.566-17.402-26.442 10.848-10.17 18.306-19.21 18.306-33.222 0-14.69-12.882-37.29-29.38-53.11-2.938-2.712-5.424-3.842-9.718-2.486-3.39 1.13-7.006 3.842-8.814 4.746-2.26 1.13-4.746 4.068-2.034 6.78.904.904 1.582 1.582 2.486 2.486zm17.176 75.484c0-17.402.226-35.934.678-54.24 10.622 14.916 15.368 27.12 14.916 32.318-.678 7.91-8.136 15.368-15.594 21.922zm.226 9.944c7.232 6.554 14.69 14.464 14.916 20.34.226 5.198-2.712 10.622-13.786 16.498-.452-11.3-.904-23.73-1.13-36.838zm92.66-79.778c-1.356 37.516-1.13 92.886 0 126.108.226 3.39 2.26 4.52 5.424 3.164 4.294-1.808 6.102-2.712 8.588-4.52 2.034-1.356 3.616-2.938 3.39-7.458-1.582-33.9-1.13-79.326.226-118.424 2.712-.226 5.65-.452 8.588-.678 5.876-.452 8.588-.452 11.752-6.328 3.39-6.328.452-6.328-2.712-6.102-18.758 1.582-36.386 3.842-48.138 4.972-2.938.226-4.068 1.356-4.746 2.712-.678 1.582-1.582 3.164-1.808 4.52-.452 2.034 0 3.39 3.616 3.164 5.424-.226 10.622-.678 15.82-1.13zm60.342 78.422c.226 19.888-.226 39.776.226 49.494.226 3.39 2.486 4.294 4.972 3.164 3.39-1.582 6.328-2.938 8.588-4.972 1.808-1.808 3.39-3.164 3.39-8.136-.226-14.012-1.356-26.442-1.356-44.296 6.328-28.024 12.882-52.658 18.306-74.128 1.582-5.876 2.26-12.656-1.808-17.176-4.294-4.972-5.876-1.356-6.554 1.582-3.39 14.69-9.492 44.522-15.142 71.416-5.198-20.114-9.944-39.55-14.69-61.02-.904-4.068-3.616-4.068-6.554-1.808-2.034 1.582-4.068 3.842-6.78 6.328-2.938 2.712-2.486 6.102-1.808 9.944 3.616 17.176 11.978 44.522 19.21 69.608zm41.584-79.1c-1.582 37.516-1.13 91.078-.452 127.69 0 3.164 2.034 4.068 4.972 3.164 4.068-1.356 6.328-2.26 8.362-3.616 2.486-1.582 3.39-2.712 3.164-7.458-.226-8.814-.226-18.08-.452-28.25 16.498-12.656 35.256-27.798 35.482-46.104.226-15.594-14.238-40.228-31.866-56.726-3.842-3.616-8.136-4.52-12.656-2.938-3.39 1.13-6.78 3.164-9.04 4.52-2.034 1.356-3.616 3.616-.678 6.554 1.13 1.13 2.034 2.034 3.164 3.164zm15.82 80.23c0-19.436.678-40.454 1.356-61.02 12.204 15.368 17.854 27.572 17.854 33.9 0 7.91-10.17 19.21-19.21 27.12zm82.49-86.558c-3.39-8.136-9.266-8.588-19.888-4.972-11.074 3.842-15.142 9.04-17.628 17.176-4.972 16.046-6.328 40.906-6.328 56.952 0 22.6 1.356 52.884 11.526 64.636 3.164 3.842 7.006 3.164 11.074 1.808 7.91-2.712 12.656-5.65 18.532-11.978 6.554-7.232 11.526-21.696 11.526-52.884 0-31.414-3.616-58.534-8.814-70.738zm-24.86 66.67c.226-31.64 3.842-58.76 7.684-60.342s7.684 23.504 8.362 58.082c.678 35.708-.904 57.856-6.554 59.89-4.52 1.582-9.718-25.764-9.492-57.63zm77.744 30.284c-2.486 12.204-8.362 23.956-12.204 24.634-5.65 1.13-8.588-24.408-8.136-55.596.452-31.414 5.198-61.472 9.04-62.828s6.102 33.448 4.972 68.026c-.226 4.972 2.034 5.65 5.876 4.294 3.164-1.13 4.972-2.486 7.232-3.842 1.808-1.13 4.068-3.39 4.294-7.91 2.034-29.606 0-53.562-4.746-66.67-3.164-8.362-9.492-8.814-20.114-4.972-10.848 3.842-15.142 8.362-17.854 16.95-5.198 16.95-6.78 43.844-7.006 59.438-.452 22.374 0 54.24 9.718 64.41 3.39 3.39 8.136 2.712 11.978.904 15.142-7.006 30.962-24.634 35.708-51.076.904-4.52-1.13-5.198-4.52-4.068-11.526 3.39-16.724 4.52-21.47 5.65-2.486.678-4.746 1.808-5.424 4.068-.678 2.486-1.356 4.294-2.486 7.006-1.13 2.486-.904 4.52 3.39 4.068 3.842-.452 6.78-.904 11.752-2.486zm41.81 6.102c6.102 7.006 11.3 14.012 16.724 20.34 3.616 4.294 8.814 8.136 14.464 7.458 6.78-.678 5.424-3.842 2.486-6.78-5.65-5.876-18.758-18.758-28.702-29.606 13.108-10.17 30.51-24.86 30.284-41.81-.226-15.368-14.012-40.228-31.866-56.726-3.616-3.39-8.136-4.294-12.656-2.938-3.39 1.13-6.78 3.39-8.814 4.746-2.26 1.356-3.616 3.616-.678 6.554 1.13 1.13 2.034 2.034 3.164 3.164-1.808 37.516-1.356 90.4-.678 127.012 0 3.39 2.26 4.52 5.198 3.39 4.068-1.582 6.102-2.26 8.362-3.842s3.39-2.938 3.164-7.458c-.226-7.458-.452-15.368-.452-23.504zm1.582-76.162c11.978 15.142 17.628 27.12 17.628 33.448 0 8.362-10.396 19.436-19.21 27.346.226-19.436.678-40.454 1.582-60.794zm70.06 74.128c.904 9.944 2.034 19.888 2.938 29.606.452 4.52 2.712 4.746 5.198 3.616 3.616-1.808 5.876-3.164 8.588-5.424 3.164-2.486 3.842-5.424 3.39-9.266-4.294-34.578-9.04-88.366-12.43-124.3-.226-3.39-2.712-4.972-5.876-4.068-4.52 1.356-7.458 2.712-11.074 4.294-4.972 2.26-4.746 5.65-5.424 11.074-4.52 35.708-14.464 101.248-18.758 131.532-.452 2.938 0 7.006 5.65 3.842 4.972-2.938 7.006-9.718 7.458-15.594.452-6.102 1.13-12.882 1.808-19.888 6.102-1.808 12.204-3.616 18.532-5.424zm-17.176-5.65c2.712-23.504 6.78-49.946 10.396-71.19 1.808 19.21 3.616 42.714 5.876 66.218-5.65 1.582-11.074 3.39-16.272 4.972zm43.844-89.044c-1.582 37.516-1.13 91.078-.452 127.69 0 3.164 2.034 4.068 4.972 3.164 4.068-1.356 6.328-2.26 8.362-3.616 2.486-1.582 3.39-2.712 3.164-7.458-.226-8.814-.226-18.08-.452-28.25 16.498-12.656 35.256-27.798 35.482-46.104.226-15.594-14.238-40.228-31.866-56.726-3.842-3.616-8.136-4.52-12.656-2.938-3.39 1.13-6.78 3.164-9.04 4.52-2.034 1.356-3.616 3.616-.678 6.554 1.13 1.13 2.034 2.034 3.164 3.164zm15.82 80.23c0-19.436.678-40.454 1.356-61.02 12.204 15.368 17.854 27.572 17.854 33.9 0 7.91-10.17 19.21-19.21 27.12zm70.964 4.068c-4.746 1.356-9.492 2.938-14.012 4.52-.226-28.702.226-60.568 1.356-91.304.226-4.294-2.486-4.746-5.65-3.39-2.712 1.13-4.972 2.486-8.362 4.746s-3.842 4.972-4.068 8.814c-1.356 37.742.226 83.168 1.13 118.424 0 3.39 2.26 4.294 4.972 3.164 4.068-1.808 6.102-3.164 8.362-4.52s3.164-2.938 2.938-7.458c-.226-5.65-.226-11.3-.452-17.176 4.52-1.356 9.04-2.712 14.012-4.068 0 10.848.226 21.47.452 31.414 0 3.164 2.034 4.294 4.972 2.938 4.068-1.808 5.876-3.164 8.362-4.52s3.39-2.712 3.164-7.458c-1.13-35.256 0-90.174 2.034-130.176.226-4.068-1.356-5.424-4.746-4.294-2.712.904-6.102 2.26-9.266 4.068-3.39 1.808-3.842 4.52-4.068 8.362-.904 28.928-1.356 59.438-1.13 87.914zm42.94-5.198c.226 19.888-.226 39.776.226 49.494.226 3.39 2.486 4.294 4.972 3.164 3.39-1.582 6.328-2.938 8.588-4.972 1.808-1.808 3.39-3.164 3.39-8.136-.226-14.012-1.356-26.442-1.356-44.296 6.328-28.024 12.882-52.658 18.306-74.128 1.582-5.876 2.26-12.656-1.808-17.176-4.294-4.972-5.876-1.356-6.554 1.582-3.39 14.69-9.492 44.522-15.142 71.416-5.198-20.114-9.944-39.55-14.69-61.02-.904-4.068-3.616-4.068-6.554-1.808-2.034 1.582-4.068 3.842-6.78 6.328-2.938 2.712-2.486 6.102-1.808 9.944 3.616 17.176 11.978 44.522 19.21 69.608z" fill="#fff" fill-rule="evenodd" transform="translate(-898 -508)"/></svg>