<svg width="843" height="580" viewBox="0 0 843 580" xmlns="http://www.w3.org/2000/svg"><title>Group</title><g fill="#359E91" fill-rule="evenodd"><path d="M25.173 97.182c-8.667 0-14.97-2.502-18.91-7.505-3.94-5.003-5.908-13.02-5.908-24.05V1.455h5.318v64.172c0 9.69 1.477 16.565 4.432 20.623 2.954 4.058 7.977 6.086 15.068 6.086 7.09 0 12.113-2.028 15.068-6.086s4.433-10.932 4.433-20.623V1.455h5.318v64.172c0 11.03-1.97 19.047-5.908 24.05-3.94 5.003-10.243 7.505-18.91 7.505zM70.7 96V25.09h5.318v9.455h.946c1.654-3.387 4.077-6.007 7.268-7.86 3.19-1.85 6.48-2.776 9.868-2.776 5.2 0 9.395 1.85 12.586 5.554 3.19 3.703 4.787 8.706 4.787 15.01V96h-5.318V45.536c0-5.436-1.123-9.572-3.37-12.41-2.244-2.835-5.376-4.253-9.394-4.253-3.308 0-6.46.827-9.454 2.482-2.994 1.654-5.633 4.333-7.918 8.036V96H70.7zm66.345 0V29.936H126.41V25.09h10.635v-6.5c0-5.672 1.32-10.045 3.96-13.117 2.64-3.073 5.968-4.61 9.986-4.61 1.498 0 3.113.257 4.846.77 1.734.51 3.23 1.122 4.49 1.83l-1.18 4.492a23.178 23.178 0 0 0-3.782-1.596 13.355 13.355 0 0 0-4.137-.65c-2.68 0-4.825 1.004-6.44 3.013-1.616 2.01-2.423 5.26-2.423 9.75v6.618h17.727v4.846h-17.726V96h-5.32zm53.2 1.182c-6.54 0-11.58-2.127-15.127-6.382-3.545-4.255-5.318-10.282-5.318-18.082V48.845c0-7.957 1.792-14.103 5.377-18.436 3.585-4.334 8.608-6.5 15.068-6.5 6.46 0 11.464 2.166 15.01 6.5 3.545 4.332 5.318 10.478 5.318 18.435v23.873c0 7.8-1.773 13.827-5.318 18.082-3.546 4.255-8.55 6.382-15.01 6.382zm0-4.846c5.043 0 8.805-1.615 11.287-4.845 2.482-3.23 3.723-8.154 3.723-14.772V48.845c0-6.854-1.24-11.916-3.723-15.186-2.482-3.27-6.244-4.905-11.287-4.905-5.12 0-8.922 1.634-11.404 4.904-2.48 3.27-3.722 8.33-3.722 15.185v23.873c0 6.618 1.24 11.543 3.723 14.773 2.483 3.23 6.284 4.846 11.405 4.846zM230.282 96V25.09h5.318v9.455h.945c1.734-3.86 3.9-6.598 6.5-8.213 2.6-1.615 5.32-2.423 8.155-2.423 4.57 0 8.194 1.535 10.873 4.608 2.68 3.073 4.018 7.446 4.018 13.118v10.046h-5.317v-9.927c0-3.94-.828-7.09-2.482-9.455-1.654-2.364-4.214-3.545-7.68-3.545-2.837 0-5.555.866-8.155 2.6-2.6 1.733-4.885 4.61-6.855 8.627V96h-5.318zm72.318 1.064c-4.964 0-8.844-1.635-11.64-4.905-2.798-3.27-4.196-7.742-4.196-13.415v-48.81h-10.637v-4.844h10.637V1.456h5.318V25.09h19.5v4.846h-19.5v47.628c0 4.885.926 8.528 2.777 10.93 1.85 2.404 4.628 3.606 8.33 3.606 1.104 0 2.365-.217 3.783-.65a22.013 22.013 0 0 0 4.254-1.832l1.182 4.727a20.812 20.812 0 0 1-4.728 2.01c-1.655.472-3.35.71-5.082.71zm43.055.118c-5.122 0-9.258-1.852-12.41-5.555-3.15-3.703-4.727-8.706-4.727-15.01V25.092h5.318v50.465c0 5.436 1.143 9.572 3.428 12.41 2.284 2.835 5.436 4.253 9.454 4.253 3.31 0 6.44-.827 9.396-2.482 2.954-1.654 5.574-4.333 7.86-8.036V25.09h5.317V96h-5.317v-9.455h-.946c-1.654 3.388-4.097 6.008-7.327 7.86-3.23 1.85-6.58 2.777-10.045 2.777zM395 96V25.09h5.318v9.455h.946c1.654-3.387 4.077-6.007 7.268-7.86 3.19-1.85 6.48-2.776 9.868-2.776 5.2 0 9.395 1.85 12.586 5.554 3.19 3.703 4.787 8.706 4.787 15.01V96h-5.318V45.536c0-5.436-1.123-9.572-3.37-12.41-2.244-2.835-5.376-4.253-9.394-4.253-3.308 0-6.46.827-9.454 2.482-2.994 1.654-5.633 4.333-7.918 8.036V96H395zm78.273-3.545c3.388 0 6.44-.926 9.16-2.778 2.717-1.85 5.22-4.51 7.503-7.977V63.264h-17.963c-3.86 0-6.914.945-9.16 2.836-2.245 1.89-3.368 5.28-3.368 10.164 0 5.2 1.123 9.198 3.37 11.995 2.244 2.796 5.73 4.195 10.458 4.195zm-.59 4.727c-5.595 0-10.027-1.812-13.297-5.437-3.27-3.624-4.904-8.548-4.904-14.772 0-5.673 1.497-10.144 4.49-13.414 2.995-3.27 7.21-4.905 12.646-4.905h18.318v-15.6c0-4.49-1.26-7.997-3.78-10.52-2.523-2.52-5.95-3.78-10.283-3.78-4.49 0-7.82.984-9.987 2.954-2.166 1.97-3.84 5.554-5.022 10.754l-4.728-1.42c1.34-6.144 3.526-10.536 6.56-13.176 3.033-2.64 7.386-3.96 13.06-3.96 5.908 0 10.635 1.715 14.18 5.142 3.546 3.427 5.32 8.095 5.32 14.005v35.218c0 5.75.767 9.533 2.303 11.345 1.535 1.812 4.313 2.246 8.33 1.3V96c-3.94.788-7.188.335-9.75-1.36-2.56-1.693-3.998-4.707-4.313-9.04H491c-1.576 3.467-4.058 6.264-7.445 8.39-3.388 2.128-7.013 3.192-10.873 3.192zm71.117-.118c-4.964 0-8.844-1.635-11.64-4.905-2.798-3.27-4.196-7.742-4.196-13.415v-48.81h-10.637v-4.844h10.637V1.456h5.318V25.09h19.5v4.846h-19.5v47.628c0 4.885.926 8.528 2.777 10.93 1.85 2.404 4.628 3.606 8.33 3.606 1.104 0 2.365-.217 3.783-.65a22.013 22.013 0 0 0 4.254-1.832l1.182 4.727a20.812 20.812 0 0 1-4.728 2.01c-1.655.472-3.35.71-5.082.71zm66.336-15.01c-1.34 5.122-3.525 8.923-6.56 11.405-3.032 2.48-7.306 3.722-12.82 3.722-6.62 0-11.78-2.088-15.483-6.264-3.703-4.176-5.555-10.282-5.555-18.318V48.845c0-8.272 1.87-14.496 5.614-18.672 3.742-4.176 8.686-6.264 14.832-6.264 6.145 0 11.07 2.126 14.772 6.38 3.703 4.255 5.555 10.716 5.555 19.383v11.463h-35.454v11.582c0 6.855 1.32 11.838 3.96 14.95 2.64 3.112 6.56 4.668 11.76 4.668 4.253 0 7.385-.847 9.394-2.54 2.01-1.694 3.644-4.787 4.905-9.278l5.08 1.537zm-35.1-33.21v7.447h30.137v-6.38c0-7.328-1.26-12.686-3.782-16.074-2.52-3.388-6.263-5.08-11.226-5.08-4.964 0-8.726 1.633-11.287 4.903-2.56 3.27-3.84 8.33-3.84 15.185zm71.61 47.747c-4.964 0-8.884-1.95-11.76-5.85-2.875-3.9-4.313-9.395-4.313-16.485v-72.8h5.436v72.918c0 5.436.945 9.67 2.835 12.704 1.89 3.034 4.57 4.55 8.037 4.55.945 0 2.01-.157 3.19-.472 1.183-.316 2.207-.71 3.073-1.182l1.182 4.49c-1.024.552-2.206 1.045-3.545 1.478-1.34.434-2.718.65-4.137.65zm22.663 23.755c-1.025 0-2.07-.078-3.133-.236a44.222 44.222 0 0 1-3.604-.71l.71-4.727c1.26.315 2.402.55 3.426.71 1.023.156 2.205.235 3.545.235 2.915 0 5.24-.906 6.972-2.718 1.734-1.812 3.23-5.28 4.49-10.4l1.656-6.5h-1.418l-19.737-70.91h5.673l17.374 64.41 17.018-64.41h5.318l-21.39 78.592c-1.655 6.067-3.862 10.36-6.62 12.882-2.757 2.52-6.184 3.78-10.28 3.78z"/><path d="M28.245 250.182c-9.375 0-16.29-2.6-20.74-7.8-4.452-5.2-6.678-13.394-6.678-24.582v-63.345h5.555V217.8c0 9.85 1.674 16.88 5.023 21.095 3.348 4.216 8.962 6.323 16.84 6.323 7.88 0 13.513-2.107 16.9-6.323 3.388-4.215 5.082-11.246 5.082-21.095v-63.345h5.437V217.8c0 11.188-2.226 19.382-6.678 24.582-4.45 5.2-11.365 7.8-20.74 7.8zM77.318 249v-70.91h5.555v10.283h.945c1.89-3.625 4.63-6.44 8.214-8.45 3.585-2.01 7.347-3.014 11.286-3.014 5.752 0 10.36 1.93 13.827 5.79 3.467 3.86 5.2 9.06 5.2 15.6V249h-5.554v-49.636c0-5.673-1.24-9.987-3.722-12.94-2.482-2.956-5.968-4.433-10.46-4.433-3.702 0-7.247.927-10.635 2.778-3.388 1.852-6.42 4.708-9.1 8.568V249h-5.555zm71.61 0v-65.945H136.99v-4.964h11.937v-5.908c0-5.91 1.458-10.48 4.373-13.71 2.915-3.23 6.54-4.845 10.873-4.845 1.733 0 3.506.256 5.318.768 1.813.513 3.39 1.123 4.728 1.832l-1.182 4.728c-1.26-.71-2.64-1.26-4.136-1.655a18.035 18.035 0 0 0-4.61-.59c-2.993 0-5.396 1.043-7.208 3.13-1.812 2.09-2.718 5.496-2.718 10.224v6.027H174.1v4.965h-19.736V249h-5.437zm58.4 1.182c-7.25 0-12.823-2.187-16.723-6.56-3.9-4.372-5.85-10.616-5.85-18.73v-22.22c0-8.272 1.97-14.634 5.91-19.086 3.938-4.45 9.493-6.677 16.662-6.677 7.17 0 12.705 2.225 16.605 6.676 3.9 4.452 5.85 10.814 5.85 19.087v22.218c0 8.116-1.95 14.36-5.85 18.733-3.9 4.372-9.435 6.56-16.605 6.56zm0-4.964c5.672 0 9.907-1.654 12.704-4.963 2.797-3.31 4.195-8.43 4.195-15.364v-22.217c0-7.09-1.398-12.33-4.195-15.718-2.797-3.388-7.032-5.082-12.705-5.082-5.75 0-10.025 1.694-12.822 5.082-2.797 3.387-4.196 8.627-4.196 15.718v22.218c0 6.934 1.398 12.055 4.195 15.365 2.797 3.31 7.07 4.963 12.822 4.963zM248.435 249v-70.91h5.555v10.283h.946c2.206-4.176 4.767-7.13 7.682-8.864 2.915-1.734 5.95-2.6 9.1-2.6 5.043 0 9.002 1.614 11.877 4.845 2.876 3.23 4.314 7.8 4.314 13.71v9.217h-5.437v-9.1c0-4.097-.887-7.406-2.66-9.927-1.772-2.522-4.59-3.782-8.45-3.782-3.308 0-6.42.945-9.336 2.836-2.915 1.89-5.594 4.963-8.036 9.217V249h-5.554zm81.055 1.064c-5.435 0-9.69-1.773-12.763-5.32-3.072-3.544-4.61-8.43-4.61-14.653v-47.035h-11.935v-4.964h11.936v-23.635h5.437v23.636H339.3v4.965h-21.745v45.854c0 5.435 1.043 9.473 3.13 12.113 2.09 2.64 5.26 3.96 9.515 3.96 1.26 0 2.66-.218 4.195-.65a23.398 23.398 0 0 0 4.55-1.833l1.3 4.845a27.252 27.252 0 0 1-5.318 2.01 21.46 21.46 0 0 1-5.436.71zm45.365.118c-5.673 0-10.243-1.97-13.71-5.91-3.466-3.94-5.2-9.257-5.2-15.954V178.09h5.555v48.81c0 5.91 1.24 10.42 3.723 13.532 2.482 3.112 5.968 4.668 10.46 4.668 3.623 0 7.11-.906 10.458-2.718 3.35-1.812 6.442-4.688 9.278-8.627V178.09h5.555V249h-5.555v-10.282h-1.063c-2.128 3.703-4.905 6.54-8.332 8.51-3.428 1.97-7.15 2.954-11.168 2.954zM422.627 249v-70.91h5.555v10.283h.945c1.89-3.625 4.63-6.44 8.214-8.45 3.586-2.01 7.348-3.014 11.287-3.014 5.752 0 10.36 1.93 13.828 5.79 3.466 3.86 5.2 9.06 5.2 15.6V249H462.1v-49.636c0-5.673-1.24-9.987-3.723-12.94-2.482-2.956-5.968-4.433-10.46-4.433-3.702 0-7.247.927-10.635 2.778-3.388 1.852-6.42 4.708-9.1 8.568V249h-5.555zm83.01-3.782c4.018 0 7.583-.926 10.695-2.777 3.112-1.85 5.93-4.588 8.45-8.213v-17.845h-20.918c-4.02 0-7.27.945-9.75 2.836-2.482 1.89-3.723 5.28-3.723 10.164 0 5.12 1.242 9.04 3.724 11.76 2.48 2.717 6.322 4.076 11.522 4.076zm-.71 4.964c-6.066 0-10.853-1.812-14.36-5.437-3.505-3.624-5.258-8.587-5.258-14.89 0-5.673 1.634-10.125 4.904-13.355 3.27-3.23 7.74-4.845 13.413-4.845h21.155v-14.773c0-4.49-1.38-8.115-4.137-10.873-2.757-2.758-6.657-4.137-11.7-4.137-5.2 0-9 .985-11.404 2.954-2.402 1.97-4.234 5.555-5.495 10.755l-4.963-1.418c1.576-6.146 4.038-10.558 7.386-13.237 3.35-2.68 8.096-4.018 14.24-4.018 6.62 0 11.878 1.772 15.778 5.317 3.9 3.546 5.85 8.43 5.85 14.655v34.036c0 5.91.847 9.79 2.54 11.64 1.695 1.853 4.788 2.306 9.28 1.36v5.2c-4.492.788-8.077.315-10.756-1.418-2.68-1.733-4.215-4.806-4.61-9.218h-.945c-1.97 3.624-4.845 6.48-8.627 8.568-3.782 2.088-7.88 3.132-12.29 3.132zm73.09-.118c-5.435 0-9.69-1.773-12.762-5.32-3.073-3.544-4.61-8.43-4.61-14.653v-47.035H548.71v-4.964h11.935v-23.635h5.437v23.636h21.745v4.965h-21.745v45.854c0 5.435 1.044 9.473 3.132 12.113 2.088 2.64 5.26 3.96 9.513 3.96 1.26 0 2.66-.218 4.196-.65a23.398 23.398 0 0 0 4.55-1.833l1.3 4.845a27.252 27.252 0 0 1-5.318 2.01 21.46 21.46 0 0 1-5.437.71zm68.01-15.01c-1.575 5.2-4.038 9.022-7.386 11.464-3.348 2.443-8.095 3.664-14.24 3.664-7.25 0-12.882-2.147-16.9-6.44-4.018-4.295-6.027-10.618-6.027-18.97v-22.1c0-8.587 2.088-15.028 6.263-19.322 4.176-4.294 9.612-6.44 16.31-6.44 6.854 0 12.31 2.185 16.368 6.558 4.057 4.373 6.086 11.05 6.086 20.032v10.636h-39.473v10.755c0 7.092 1.438 12.252 4.314 15.483 2.877 3.23 7.23 4.845 13.06 4.845 4.964 0 8.568-.866 10.814-2.6 2.245-1.733 4.077-4.806 5.495-9.218l5.317 1.655zm-39-32.38v6.617h33.918v-5.554c0-7.563-1.418-13.078-4.254-16.545-2.835-3.466-7.05-5.2-12.645-5.2-5.672 0-9.927 1.675-12.763 5.024-2.837 3.348-4.255 8.568-4.255 15.66zm78.464 46.917c-5.435 0-9.69-2.107-12.763-6.322-3.072-4.215-4.61-10.104-4.61-17.668v-71.145h5.556v71.263c0 5.91 1.063 10.5 3.19 13.768 2.128 3.27 5.122 4.905 8.982 4.905 1.025 0 2.187-.157 3.487-.472 1.3-.315 2.462-.748 3.486-1.3l1.182 4.727a34.682 34.682 0 0 1-3.96 1.537c-1.457.473-2.973.71-4.55.71zm20.846 23.755c-1.024 0-2.127-.078-3.31-.236a55.075 55.075 0 0 1-4.017-.71l.708-4.845c1.34.315 2.56.55 3.664.71 1.103.156 2.403.235 3.9.235 3.31 0 5.93-.965 7.86-2.895 1.93-1.93 3.722-5.575 5.376-10.932l1.655-5.673h-1.418l-22.1-70.91h5.79l19.62 64.646 19.144-64.645h5.435l-23.518 77.765c-1.89 6.38-4.333 10.892-7.327 13.53-2.994 2.64-6.815 3.96-11.464 3.96z" opacity=".8"/><path d="M31.318 403.182c-10.164 0-17.707-2.718-22.632-8.155C3.762 389.59 1.3 381.28 1.3 370.09v-62.635h5.673v62.636c0 10.007 1.89 17.157 5.672 21.45 3.782 4.295 10.006 6.442 18.673 6.442 8.667 0 14.87-2.147 18.614-6.44 3.742-4.295 5.613-11.445 5.613-21.45v-62.637h5.673v62.636c0 11.19-2.462 19.5-7.386 24.937-4.924 5.437-12.43 8.155-22.514 8.155zm47.5-1.182v-70.91h5.673v10.992h1.183c1.97-3.782 4.924-6.756 8.863-8.923 3.94-2.168 8.155-3.25 12.646-3.25 6.303 0 11.326 1.988 15.068 5.967 3.742 3.98 5.614 9.396 5.614 16.25V402h-5.673v-48.69c0-5.91-1.338-10.4-4.017-13.474-2.68-3.072-6.5-4.61-11.464-4.61-4.098 0-8.018 1.006-11.76 3.015-3.742 2.01-7.23 5.024-10.46 9.042V402H78.82zm73.518 0v-65.71h-13v-5.2h13v-5.317c0-6.146 1.596-10.893 4.787-14.24 3.19-3.35 7.15-5.024 11.877-5.024 1.812 0 3.683.235 5.614.708 1.93.473 3.644 1.064 5.14 1.773l-1.18 4.846a30.904 30.904 0 0 0-4.55-1.595 19.3 19.3 0 0 0-5.024-.65c-3.388 0-6.067 1.104-8.036 3.31-1.97 2.206-2.955 5.79-2.955 10.755v5.436h21.745v5.2H158.01V402h-5.674zm62.6 1.182c-7.957 0-14.044-2.246-18.26-6.737-4.214-4.49-6.32-10.912-6.32-19.263v-20.8c0-8.51 2.126-15.05 6.38-19.618 4.255-4.57 10.36-6.855 18.32-6.855 7.8 0 13.806 2.284 18.02 6.854 4.216 4.57 6.324 11.11 6.324 19.618v20.8c0 8.35-2.108 14.773-6.323 19.263-4.215 4.49-10.262 6.737-18.14 6.737zm0-5.2c6.382 0 11.11-1.694 14.182-5.082 3.073-3.388 4.61-8.627 4.61-15.718v-20.8c0-7.25-1.537-12.606-4.61-16.073-3.073-3.468-7.8-5.2-14.182-5.2-6.38 0-11.128 1.732-14.24 5.2-3.113 3.466-4.67 8.823-4.67 16.072v20.8c0 7.09 1.557 12.33 4.67 15.718 3.112 3.388 7.86 5.082 14.24 5.082zM255 402v-70.91h5.673v10.992h1.182c2.6-4.334 5.495-7.446 8.686-9.337 3.192-1.89 6.56-2.836 10.105-2.836 5.437 0 9.71 1.673 12.823 5.022 3.112 3.348 4.668 8.095 4.668 14.24v8.51h-5.79v-8.273c0-4.334-.966-7.8-2.896-10.4-1.93-2.6-4.905-3.9-8.923-3.9-3.86 0-7.406 1.023-10.636 3.072-3.23 2.048-6.302 5.28-9.217 9.69V402H255zm84.79 1.064c-5.908 0-10.557-1.91-13.945-5.732-3.387-3.82-5.08-9.08-5.08-15.777V336.29h-13v-5.2h13v-23.635h5.67v23.636h23.874v5.2h-23.874v44.083c0 5.91 1.143 10.282 3.428 13.118 2.284 2.837 5.79 4.255 10.518 4.255 1.34 0 2.856-.216 4.55-.65a30.998 30.998 0 0 0 5.14-1.83l1.183 5.08a28.225 28.225 0 0 1-5.732 2.01c-2.01.472-3.92.71-5.732.71zm51.674.118c-6.225 0-11.228-2.088-15.01-6.264-3.78-4.176-5.672-9.77-5.672-16.782V331.09h5.673v47.155c0 6.46 1.34 11.366 4.018 14.714 2.68 3.348 6.54 5.022 11.582 5.022 3.86 0 7.662-.965 11.404-2.896 3.742-1.93 7.307-5.022 10.695-9.277v-54.72h5.672V402h-5.672v-10.99h-1.064c-2.6 4.017-5.73 7.05-9.395 9.1-3.663 2.048-7.74 3.072-12.23 3.072zM442.427 402v-70.91h5.673v10.992h1.182c1.97-3.782 4.924-6.756 8.863-8.923 3.94-2.168 8.155-3.25 12.646-3.25 6.304 0 11.327 1.988 15.07 5.967 3.742 3.98 5.613 9.396 5.613 16.25V402H485.8v-48.69c0-5.91-1.34-10.4-4.018-13.474-2.68-3.072-6.5-4.61-11.464-4.61-4.097 0-8.016 1.006-11.76 3.015-3.74 2.01-7.228 5.024-10.458 9.042V402h-5.673zm89.51-3.9c4.57 0 8.627-.945 12.172-2.836 3.545-1.89 6.657-4.767 9.335-8.628v-17.254H529.69c-4.254 0-7.72.985-10.4 2.954-2.678 1.97-4.017 5.358-4.017 10.164 0 4.964 1.34 8.805 4.018 11.523 2.68 2.718 6.895 4.077 12.646 4.077zm-.828 5.082c-6.54 0-11.68-1.812-15.424-5.437-3.742-3.624-5.613-8.587-5.613-14.89 0-5.673 1.753-10.144 5.26-13.414 3.505-3.27 8.252-4.904 14.24-4.904h23.872V350.71c0-4.492-1.477-8.215-4.43-11.17-2.956-2.954-7.348-4.43-13.18-4.43-5.75 0-9.946.964-12.585 2.895-2.64 1.93-4.668 5.495-6.086 10.695l-5.082-1.536c1.733-6.146 4.412-10.558 8.036-13.237 3.624-2.68 8.785-4.018 15.482-4.018 7.25 0 12.98 1.83 17.195 5.495 4.216 3.663 6.323 8.725 6.323 15.186v32.855c0 6.146.926 10.144 2.777 11.996 1.852 1.852 5.26 2.305 10.223 1.36v5.436c-4.885.788-8.745.316-11.582-1.418-2.836-1.733-4.49-4.845-4.963-9.336h-1.064c-2.443 3.624-5.713 6.48-9.81 8.568-4.097 2.088-8.627 3.132-13.59 3.132zm76.826-.118c-5.91 0-10.557-1.91-13.945-5.732-3.387-3.82-5.08-9.08-5.08-15.777V336.29h-13v-5.2h13v-23.635h5.672v23.636h23.873v5.2h-23.873v44.083c0 5.91 1.142 10.282 3.427 13.118 2.284 2.837 5.79 4.255 10.517 4.255 1.34 0 2.856-.216 4.55-.65a30.998 30.998 0 0 0 5.14-1.83l1.183 5.08a28.225 28.225 0 0 1-5.732 2.01c-2.01.472-3.92.71-5.732.71zm72.446-15.128c-1.734 5.28-4.432 9.14-8.096 11.582-3.663 2.443-8.844 3.664-15.54 3.664-7.8 0-13.887-2.206-18.26-6.618-4.372-4.413-6.56-10.912-6.56-19.5v-20.682c0-8.824 2.286-15.443 6.856-19.855 4.57-4.412 10.518-6.618 17.845-6.618 7.328 0 13.217 2.245 17.668 6.735 4.452 4.49 6.678 11.346 6.678 20.564v9.926H637.6v10.046c0 7.327 1.595 12.626 4.786 15.895 3.19 3.27 7.978 4.905 14.36 4.905 5.593 0 9.63-.887 12.113-2.66 2.48-1.772 4.47-4.825 5.967-9.158l5.555 1.772zM637.6 356.382v5.79h37.7v-4.727c0-7.8-1.576-13.472-4.727-17.018-3.152-3.545-7.84-5.318-14.064-5.318-6.225 0-10.933 1.732-14.124 5.2-3.19 3.466-4.786 8.823-4.786 16.072zm82.2 46.21c-5.91 0-10.518-2.266-13.827-6.797-3.31-4.53-4.964-10.774-4.964-18.73v-69.61h5.672v69.727c0 6.303 1.182 11.207 3.545 14.713 2.364 3.507 5.673 5.26 9.928 5.26 1.103 0 2.383-.178 3.84-.532 1.458-.355 2.7-.808 3.723-1.36l1.418 4.846c-1.26.708-2.698 1.3-4.313 1.772-1.615.473-3.29.71-5.023.71zm25.79 23.753c-1.102 0-2.264-.06-3.485-.177-1.222-.118-2.66-.335-4.314-.65l.828-5.2c1.418.315 2.7.552 3.84.71 1.144.157 2.58.236 4.315.236 3.624 0 6.52-1.005 8.686-3.014 2.166-2.01 4.234-5.85 6.204-11.523L763.2 402h-1.418l-24.464-70.91h6.027l21.864 64.765 21.035-64.764h5.79l-25.644 77.055c-2.205 6.62-4.923 11.307-8.154 14.064-3.23 2.757-7.445 4.135-12.645 4.135z" opacity=".6"/><path d="M34.273 556.182c-10.794 0-18.91-2.837-24.346-8.51C4.49 542 1.773 533.53 1.773 522.265v-61.81h5.91v61.81c0 10.163 2.067 17.47 6.203 21.922 4.137 4.452 10.932 6.678 20.387 6.678 9.454 0 16.25-2.226 20.386-6.678 4.135-4.45 6.204-11.76 6.204-21.922v-61.81h5.91v61.81c0 11.266-2.72 19.736-8.156 25.41-5.436 5.67-13.55 8.508-24.345 8.508zM82.318 555v-70.91h5.91v11.82h1.18c2.207-4.02 5.477-7.19 9.81-9.515 4.334-2.324 8.982-3.486 13.946-3.486 6.854 0 12.29 2.067 16.31 6.204 4.017 4.136 6.026 9.75 6.026 16.84V555h-5.91v-47.864c0-6.145-1.457-10.813-4.372-14.004-2.915-3.19-7.09-4.787-12.527-4.787-4.49 0-8.784 1.084-12.88 3.25-4.098 2.167-7.958 5.378-11.583 9.632V555h-5.91zm79.546 0v-65.59h-14.182v-5.32h14.182v-4.726c0-6.382 1.713-11.326 5.14-14.832 3.428-3.506 7.702-5.26 12.823-5.26 1.97 0 3.98.237 6.028.71 2.048.473 3.86 1.063 5.436 1.773l-1.18 5.08c-1.498-.708-3.152-1.26-4.965-1.653a25.524 25.524 0 0 0-5.436-.59c-3.625 0-6.52 1.14-8.687 3.426-2.167 2.285-3.25 6.027-3.25 11.227v4.846h23.636v5.32h-23.637V555h-5.91zm66.68 1.182c-8.586 0-15.165-2.305-19.735-6.914-4.57-4.61-6.855-11.247-6.855-19.913V510.21c0-8.825 2.304-15.58 6.913-20.27 4.61-4.687 11.208-7.03 19.796-7.03 8.51 0 15.048 2.343 19.618 7.03 4.57 4.69 6.854 11.445 6.854 20.27v19.145c0 8.666-2.284 15.304-6.854 19.913-4.57 4.61-11.15 6.914-19.737 6.914zm0-5.318c7.092 0 12.312-1.753 15.66-5.26 3.35-3.506 5.023-8.922 5.023-16.25V510.21c0-7.486-1.674-13.02-5.022-16.605-3.35-3.585-8.57-5.378-15.66-5.378s-12.31 1.793-15.66 5.378c-3.347 3.584-5.02 9.12-5.02 16.604v19.145c0 7.327 1.673 12.743 5.02 16.25 3.35 3.506 8.57 5.26 15.66 5.26zM274.683 555v-70.91h5.91v11.82h1.18c2.995-4.65 6.245-7.978 9.75-9.987 3.507-2.01 7.23-3.014 11.17-3.014 5.83 0 10.4 1.752 13.708 5.258 3.31 3.506 4.964 8.45 4.964 14.832v7.682h-5.91v-7.446c0-4.49-1.024-8.115-3.072-10.872-2.05-2.758-5.28-4.137-9.69-4.137-4.256 0-8.175 1.103-11.76 3.31-3.585 2.205-7.032 5.633-10.34 10.28V555h-5.91zm92.29 1.064c-6.38 0-11.404-2.05-15.067-6.146-3.664-4.097-5.496-9.77-5.496-17.018v-43.49h-14.183v-5.32h14.182v-23.635h5.908v23.636h26v5.32h-26v42.426c0 6.382 1.26 11.11 3.782 14.182 2.52 3.073 6.382 4.61 11.582 4.61 1.497 0 3.15-.217 4.963-.65a32.706 32.706 0 0 0 5.437-1.833l1.3 5.2a36.206 36.206 0 0 1-6.264 2.01c-2.127.472-4.176.71-6.145.71zm49.864.118c-6.775 0-12.192-2.206-16.25-6.618-4.057-4.413-6.086-10.282-6.086-17.61v-47.863h5.91v45.5c0 7.013 1.417 12.31 4.254 15.896 2.836 3.585 7.05 5.378 12.645 5.378 4.017 0 8.134-1.044 12.35-3.132 4.214-2.088 8.252-5.377 12.113-9.868V484.09h5.91V555h-5.91v-11.818h-1.182c-3.072 4.412-6.558 7.682-10.458 9.81-3.9 2.126-8.332 3.19-13.296 3.19zm50.39-1.182v-70.91h5.91v11.82h1.182c2.206-4.02 5.476-7.19 9.81-9.515 4.333-2.324 8.98-3.486 13.945-3.486 6.854 0 12.29 2.067 16.31 6.204 4.017 4.136 6.026 9.75 6.026 16.84V555h-5.91v-47.864c0-6.145-1.458-10.813-4.373-14.004-2.915-3.19-7.09-4.787-12.527-4.787-4.49 0-8.785 1.084-12.882 3.25-4.097 2.167-7.957 5.378-11.582 9.632V555h-5.91zm97.01-4.136c5.2 0 9.77-.946 13.71-2.837 3.94-1.89 7.366-4.845 10.28-8.863V522.5h-26.59c-4.49 0-8.174.985-11.05 2.955-2.875 1.97-4.313 5.357-4.313 10.163 0 4.964 1.438 8.746 4.313 11.346 2.876 2.6 7.426 3.9 13.65 3.9zm-.827 5.318c-7.013 0-12.508-1.812-16.487-5.437-3.98-3.624-5.968-8.627-5.968-15.01 0-5.67 1.87-10.123 5.613-13.353 3.743-3.23 8.765-4.846 15.068-4.846h26.59v-13c0-4.49-1.594-8.33-4.785-11.522-3.19-3.19-8.055-4.787-14.595-4.787-6.38 0-11.01.965-13.886 2.896-2.877 1.93-5.063 5.495-6.56 10.695l-5.318-1.536c1.89-6.146 4.806-10.577 8.745-13.296 3.94-2.718 9.534-4.077 16.782-4.077 7.8 0 14.004 1.89 18.613 5.672 4.61 3.782 6.913 9.06 6.913 15.836v31.673c0 6.225 1.005 10.302 3.014 12.233 2.01 1.93 5.732 2.422 11.168 1.477v5.555c-5.436.787-9.632.275-12.586-1.537-2.955-1.812-4.708-4.963-5.26-9.454h-1.18c-2.837 3.78-6.5 6.697-10.992 8.745-4.49 2.048-9.455 3.072-14.89 3.072zm83.563-.118c-6.382 0-11.405-2.05-15.068-6.146-3.664-4.097-5.496-9.77-5.496-17.018v-43.49h-14.183v-5.32h14.182v-23.635h5.908v23.636h26v5.32h-26v42.426c0 6.382 1.26 11.11 3.782 14.182 2.52 3.073 6.382 4.61 11.582 4.61 1.497 0 3.15-.217 4.963-.65a32.706 32.706 0 0 0 5.437-1.833l1.3 5.2a36.206 36.206 0 0 1-6.264 2.01c-2.127.472-4.176.71-6.145.71zm79-15.128c-1.97 5.437-4.924 9.337-8.864 11.7-3.94 2.364-9.574 3.546-16.9 3.546-8.43 0-14.99-2.265-19.678-6.796-4.688-4.53-7.032-11.247-7.032-20.15V510.21c0-9.14 2.462-15.975 7.386-20.505 4.925-4.53 11.365-6.796 19.323-6.796 7.957 0 14.358 2.304 19.204 6.913 4.845 4.61 7.268 11.68 7.268 21.213v9.1H679.41v9.22c0 7.562 1.713 13.038 5.14 16.426 3.427 3.388 8.608 5.082 15.54 5.082 6.225 0 10.716-.926 13.474-2.778 2.757-1.85 4.963-4.865 6.618-9.04l5.79 1.89zM679.41 510.21v4.963h41.363v-3.9c0-7.958-1.734-13.768-5.2-17.432-3.467-3.663-8.628-5.495-15.482-5.495-6.854 0-12.014 1.773-15.48 5.32-3.468 3.544-5.2 9.06-5.2 16.544zm90.935 45.38c-6.303 0-11.246-2.402-14.83-7.208-3.586-4.806-5.38-11.424-5.38-19.855v-68.072h5.91v68.19c0 6.62 1.3 11.82 3.9 15.6 2.6 3.782 6.185 5.673 10.755 5.673 1.182 0 2.56-.197 4.136-.59 1.576-.395 2.955-.867 4.137-1.42l1.418 5.083a29.537 29.537 0 0 1-4.667 1.833c-1.694.512-3.487.768-5.378.768zm21.855 23.755c-1.182 0-2.423-.06-3.723-.177-1.3-.118-2.856-.335-4.668-.65l.826-5.318c1.497.315 2.876.552 4.137.71 1.26.157 2.797.235 4.61.235 4.017 0 7.208-1.063 9.572-3.19 2.363-2.128 4.687-6.146 6.972-12.055l1.537-3.9h-1.42l-26.708-70.91h6.146l24.11 65 23.044-65h5.91L814.89 560.32c-2.442 6.855-5.416 11.74-8.922 14.655-3.506 2.915-8.095 4.372-13.768 4.372z" opacity=".4"/></g></svg>