<svg height="580" viewBox="0 0 843 580" width="843" xmlns="http://www.w3.org/2000/svg"><g fill="#359e91" fill-rule="evenodd"><path d="m25.1727273 97.1818182c-8.66671 0-14.9696773-2.5014902-18.90909094-7.5045455-3.93941363-5.0030553-5.9090909-13.0196418-5.9090909-24.05v-64.17272725h5.31818181v64.17272725c0 9.6909576 1.47725796 16.5651313 4.43181823 20.6227273 2.9545602 4.057596 7.9772372 6.0863636 15.0681818 6.0863636 7.0909445 0 12.1136216-2.0287676 15.0681818-6.0863636s4.4318182-10.9317697 4.4318182-20.6227273v-64.17272725h5.3181818v64.17272725c0 11.0303582-1.9696773 19.0469447-5.9090909 24.05-3.9394137 5.0030553-10.2423809 7.5045455-18.9090909 7.5045455zm45.5272727-1.1818182v-70.9090909h5.3181818v9.4545454h.9454546c1.6545537-3.3878957 4.0772567-6.0075665 7.2681818-7.8590909 3.190925-1.8515244 6.4802861-2.7772727 9.8681818-2.7772727 5.200026 0 9.395439 1.8514966 12.586364 5.5545455 3.190925 3.7030488 4.786363 8.7060291 4.786363 15.0090909v51.5272727h-5.318182v-50.4636364c0-5.4363908-1.122716-9.5727131-3.368181-12.4090909-2.245466-2.8363778-5.377253-4.2545454-9.3954549-4.2545454-3.3091075 0-6.4605911.8272644-9.4545455 2.4818182-2.9939543 1.6545537-5.6333219 4.3333148-7.9181818 8.0363636v56.6090909zm66.345455 0v-66.0636364h-10.636364v-4.8454545h10.636364v-6.5c0-5.6727556 1.319683-10.04543919 3.95909-13.11818183 2.639408-3.07274263 5.968162-4.60909091 9.986364-4.60909091 1.496977 0 3.112113.25605805 4.845455.76818182s3.230296 1.12272373 4.490909 1.83181818l-1.181818 4.49090909c-1.181825-.63030618-2.442418-1.16211904-3.781819-1.59545454-1.3394-.4333355-2.718174-.65-4.136363-.65-2.678802 0-4.82575 1.00453541-6.440909 3.01363636-1.61516 2.00910093-2.422728 5.25906843-2.422728 9.75000003v6.6181818h17.727273v4.8454545h-17.727273v66.0636364zm53.2 1.1818182c-6.539427 0-11.581801-2.1272515-15.127273-6.3818182s-5.318182-10.2817792-5.318182-18.0818182v-23.8727273c0-7.9576155 1.792406-14.1030086 5.377273-18.4363636 3.584866-4.333355 8.607543-6.5 15.068182-6.5 6.460638 0 11.463618 2.166645 15.00909 6.5 3.545473 4.333355 5.318182 10.4787481 5.318182 18.4363636v23.8727273c0 7.800039-1.772709 13.8272515-5.318182 18.0818182-3.545472 4.2545667-8.548452 6.3818182-15.00909 6.3818182zm0-4.8454546c5.042449 0 8.804533-1.6151353 11.286363-4.8454545 2.481831-3.2303192 3.722727-8.1545124 3.722727-14.7727273v-23.8727273c0-6.8545797-1.240896-11.9166503-3.722727-15.1863636-2.48183-3.2697133-6.243914-4.9045454-11.286363-4.9045454-5.121238 0-8.922715 1.6348321-11.404546 4.9045454-2.48183 3.2697133-3.722727 8.3317839-3.722727 15.1863636v23.8727273c0 6.6182149 1.240897 11.5424081 3.722727 14.7727273 2.481831 3.2303192 6.283308 4.8454545 11.404546 4.8454545zm40.036363 3.6636364v-70.9090909h5.318182v9.4545454h.945455c1.733342-3.8606253 3.899987-6.5984767 6.5-8.2136363s5.318167-2.4227273 8.154545-2.4227273c4.56972 0 8.193926 1.5363483 10.872727 4.6090909 2.678802 3.0727427 4.018182 7.4454262 4.018182 13.1181818v10.0454546h-5.318182v-9.9272727c0-3.9394137-.827264-7.0908973-2.481818-9.4545455s-4.215134-3.5454545-7.681818-3.5454545c-2.836378 0-5.554533.866658-8.154546 2.6s-4.884838 4.6090708-6.854545 8.6272727v56.0181818zm72.318182 1.0636364c-4.963661 0-8.843925-1.6348322-11.640909-4.9045455s-4.195455-7.7408807-4.195455-13.4136364v-48.8090909h-10.636363v-4.8454545h10.636363v-23.63636365h5.318182v23.63636365h19.5v4.8454545h-19.5v47.6272728c0 4.8848729.925749 8.5287758 2.777273 10.9318181 1.851524 2.4030424 4.628769 3.6045455 8.331818 3.6045455 1.103036 0 2.363629-.2166645 3.781818-.65s2.836357-1.0439355 4.254546-1.8318182l1.181818 4.7272727c-1.496977.866671-3.072719 1.5363613-4.727273 2.009091-1.654554.4727296-3.348476.7090909-5.081818.7090909zm43.054545.1181818c-5.121237 0-9.25756-1.8514967-12.40909-5.5545455-3.151531-3.7030488-4.727273-8.7060291-4.727273-15.0090909v-51.5272727h5.318182v50.4636364c0 5.4363908 1.142412 9.572713 3.427272 12.4090909 2.28486 2.8363778 5.436344 4.2545454 9.454546 4.2545454 3.309107 0 6.440894-.8272644 9.395454-2.4818182 2.954561-1.6545537 5.574231-4.3333148 7.859091-8.0363636v-56.6090909h5.318182v70.9090909h-5.318182v-9.4545455h-.945454c-1.654554 3.3878958-4.096954 6.0075665-7.327273 7.859091-3.230319 1.8515244-6.578771 2.7772727-10.045455 2.7772727zm49.345455-1.1818182v-70.9090909h5.318182v9.4545454h.945454c1.654554-3.3878957 4.077257-6.0075665 7.268182-7.8590909s6.480286-2.7772727 9.868182-2.7772727c5.200026 0 9.395439 1.8514966 12.586364 5.5545455 3.190925 3.7030488 4.786363 8.7060291 4.786363 15.0090909v51.5272727h-5.318182v-50.4636364c0-5.4363908-1.122716-9.5727131-3.368181-12.4090909-2.245466-2.8363778-5.377253-4.2545454-9.395455-4.2545454-3.309107 0-6.460591.8272644-9.454545 2.4818182-2.993955 1.6545537-5.633322 4.3333148-7.918182 8.0363636v56.6090909zm78.272727-3.5454545c3.387896 0 6.440896-.9257484 9.159091-2.7772728 2.718196-1.8515244 5.219686-4.5105887 7.504546-7.9772727v-18.4363636h-17.963637c-3.860625 0-6.913625.9454451-9.159091 2.8363636-2.245465 1.8909185-3.368181 5.2787635-3.368181 10.1636364 0 5.200026 1.122716 9.1984708 3.368181 11.9954545 2.245466 2.7969837 5.731795 4.1954546 10.459091 4.1954546zm-.590909 4.7272727c-5.593967 0-10.025741-1.8121031-13.295454-5.4363637-3.269714-3.6242605-4.904546-8.5484537-4.904546-14.7727272 0-5.6727557 1.496955-10.1439231 4.490909-13.4136364 2.993955-3.2697133 7.209064-4.9045454 12.645455-4.9045454h18.318182v-15.6c0-4.4909316-1.260594-7.9969571-3.781819-10.5181819-2.521224-2.5212247-5.948463-3.7818181-10.281818-3.7818181-4.490931 0-7.819686.9848386-9.986363 2.9545454-2.166678 1.9697068-3.840904 5.5545195-5.022728 10.7545455l-4.727272-1.4181819c1.3394-6.1454852 3.525742-10.5378655 6.559091-13.1772727 3.033348-2.6394071 7.386335-3.9590909 13.05909-3.9590909 5.909121 0 10.636346 1.7136192 14.181819 5.1409091 3.545472 3.4272899 5.318181 8.095425 5.318181 14.0045455v35.2181818c0 5.7515439.768175 9.5333242 2.304546 11.3454545s4.313616 2.2454593 8.331818 1.3v5.0818182c-3.939414.7878827-7.189381.334857-9.75-1.3590909s-3.998483-4.7075541-4.313636-9.0409091h-.827273c-1.575765 3.466684-4.057559 6.2636257-7.445455 8.3909091-3.387895 2.1272834-7.012101 3.1909091-10.872727 3.1909091zm71.118182-.1181818c-4.963661 0-8.843925-1.6348322-11.640909-4.9045455s-4.195455-7.7408807-4.195455-13.4136364v-48.8090909h-10.636363v-4.8454545h10.636363v-23.63636365h5.318182v23.63636365h19.5v4.8454545h-19.5v47.6272728c0 4.8848729.925748 8.5287758 2.777273 10.9318181 1.851524 2.4030424 4.628769 3.6045455 8.331818 3.6045455 1.103036 0 2.363629-.2166645 3.781818-.65s2.836357-1.0439355 4.254546-1.8318182l1.181818 4.7272727c-1.496977.866671-3.072719 1.5363613-4.727273 2.009091-1.654554.4727296-3.348476.7090909-5.081818.7090909zm66.336364-15.0090909c-1.339401 5.1212377-3.525743 8.9227148-6.559091 11.4045454-3.033349 2.4818306-7.307548 3.7227273-12.822728 3.7227273-6.618214 0-11.778769-2.0878579-15.481818-6.2636364-3.703049-4.1757784-5.554545-10.281778-5.554545-18.3181818v-23.7545455c0-8.2727686 1.871193-14.4969488 5.613636-18.6727272 3.742443-4.1757785 8.686333-6.2636364 14.831818-6.2636364 6.145486 0 11.069679 2.1272515 14.772728 6.3818182 3.703048 4.2545667 5.554545 10.7151082 5.554545 19.3818182v11.4636363h-35.454545v11.5818182c0 6.8545797 1.319683 11.8378632 3.959091 14.95 2.639407 3.1121368 6.559064 4.6681818 11.75909 4.6681818 4.254567 0 7.386354-.8469612 9.395455-2.5409091 2.009101-1.6939478 3.643933-4.7863411 4.904545-9.2772727zm-35.1-33.209091v7.4454546h30.136363v-6.3818182c0-7.3273094-1.260593-12.6848315-3.781818-16.0727273-2.521225-3.3878957-6.263611-5.0818181-11.227273-5.0818181-4.963661 0-8.725744 1.6348321-11.286363 4.9045454s-3.840909 8.3317839-3.840909 15.1863636zm71.609091 47.7454546c-4.963662 0-8.883319-1.9499805-11.759091-5.85s-4.313637-9.3954191-4.313637-16.4863636v-72.80000005h5.436364v72.91818185c0 5.4363908.945445 9.6711969 2.836364 12.7045454 1.890918 3.0333485 4.569679 4.55 8.036363 4.55.945459 0 2.009085-.1575742 3.190909-.4727272 1.181824-.3151531 2.206057-.7090886 3.072728-1.1818182l1.181818 4.4909091c-1.024248.5515179-2.206054 1.0439372-3.545455 1.4772727-1.3394.4333355-2.718175.65-4.136363.65zm22.663636 23.7545459c-1.024248 0-2.068177-.078788-3.131818-.236364-1.063642-.157577-2.265145-.393938-3.604546-.709091l.709091-4.727273c1.260613.315153 2.403025.551515 3.427273.709091 1.024247.157577 2.206054.236364 3.545454.236364 2.915167 0 5.239386-.906052 6.972728-2.718182s3.230296-5.278762 4.490909-10.4l1.654545-6.5h-1.418182l-19.736363-70.9090909h5.672727l17.372727 64.4090909 17.018182-64.4090909h5.318182l-21.390909 78.5909089c-1.654554 6.066697-3.860592 10.360594-6.618182 12.881818-2.757589 2.521225-6.184828 3.781819-10.281818 3.781819z"/><path d="m28.2454545 250.181818c-9.3758044 0-16.2893716-2.599974-20.74090905-7.8-4.4515374-5.200026-6.67727272-13.393883-6.67727272-24.581818v-63.345455h5.55454545v63.345455c0 9.848534 1.67422568 16.880282 5.02272732 21.095455 3.3485015 4.215172 8.9620818 6.322727 16.840909 6.322727 7.8788273 0 13.5121043-2.107555 16.9-6.322727 3.3878958-4.215173 5.0818182-11.246921 5.0818182-21.095455v-63.345455h5.4363637v63.345455c0 11.187935-2.2257354 19.381792-6.6772728 24.581818s-11.3651046 7.8-20.7409091 7.8zm49.0727273-1.181818v-70.909091h5.5545455v10.281818h.9454545c1.8909186-3.62426 4.62877-6.440899 8.2136364-8.45s7.34695-3.013636 11.2863638-3.013636c5.751544 0 10.360589 1.930284 13.827273 5.790909s5.2 9.060573 5.2 15.6v50.7h-5.554546v-49.636364c0-5.672755-1.240897-9.986349-3.722727-12.940909-2.481831-2.95456-5.96816-4.431818-10.459091-4.431818-3.7030489 0-7.248468.925748-10.6363637 2.777273-3.3878958 1.851524-6.4211988 4.707556-9.1 8.568182v55.663636zm71.6090912 0v-65.945455h-11.936364v-4.963636h11.936364v-5.909091c0-5.90912 1.457561-10.478772 4.372727-13.709091s6.539372-4.845454 10.872727-4.845454c1.733342 0 3.506052.256058 5.318182.768182 1.81213.512123 3.387872 1.122723 4.727273 1.831818l-1.181818 4.727272c-1.260613-.709094-2.639387-1.260604-4.136364-1.654545s-3.033325-.590909-4.609091-.590909c-2.993954 0-5.396961 1.043929-7.209091 3.131818s-2.718182 5.495431-2.718182 10.222727v6.027273h19.736364v4.963636h-19.736364v65.945455zm58.4 1.181818c-7.248521 0-12.822708-2.186342-16.722728-6.559091-3.900019-4.372749-5.85-10.616626-5.85-18.731818v-22.218182c0-8.272768 1.969678-14.634826 5.909091-19.086363 3.939414-4.451538 9.493904-6.677273 16.663637-6.677273s12.704526 2.225735 16.604545 6.677273c3.90002 4.451537 5.85 10.813595 5.85 19.086363v22.218182c0 8.115192-1.94998 14.359069-5.85 18.731818-3.900019 4.372749-9.434812 6.559091-16.604545 6.559091zm0-4.963636c5.672755 0 9.907562-1.654529 12.704545-4.963637 2.796984-3.309107 4.195455-8.430268 4.195455-15.363636v-22.218182c0-7.090944-1.398471-12.330286-4.195455-15.718182-2.796983-3.387895-7.03179-5.081818-12.704545-5.081818-5.751544 0-10.025744 1.693923-12.822728 5.081818-2.796983 3.387896-4.195454 8.627238-4.195454 15.718182v22.218182c0 6.933368 1.398471 12.054529 4.195454 15.363636 2.796984 3.309108 7.071184 4.963637 12.822728 4.963637zm41.109091 3.781818v-70.909091h5.554545v10.281818h.945455c2.206071-4.175778 4.766652-7.130294 7.681818-8.863636s5.948469-2.6 9.1-2.6c5.042449 0 9.001501 1.615135 11.877273 4.845454 2.875772 3.23032 4.313636 7.799971 4.313636 13.709091v9.218182h-5.436364v-9.1c0-4.09699-.886354-7.406048-2.659091-9.927273-1.772736-2.521224-4.589374-3.781818-8.45-3.781818-3.309107 0-6.421197.945445-9.336363 2.836364-2.915166 1.890918-5.593927 4.963615-8.036364 9.218182v55.072727zm81.054545 1.063636c-5.436391 0-9.690894-1.772709-12.763636-5.318181-3.072743-3.545473-4.609091-8.430272-4.609091-14.654546v-47.036364h-11.936364v-4.963636h11.936364v-23.636364h5.436363v23.636364h21.745455v4.963636h-21.745455v45.854546c0 5.436391 1.043929 9.474229 3.131819 12.113636 2.087889 2.639407 5.259069 3.959091 9.513636 3.959091 1.260612 0 2.659083-.216664 4.195455-.65 1.536371-.433335 3.053022-1.043935 4.55-1.831818l1.3 4.845455c-1.733342.866671-3.506052 1.536361-5.318182 2.00909-1.812131.47273-3.624234.709091-5.436364.709091zm45.363636.118182c-5.672755 0-10.242406-1.969677-13.70909-5.909091-3.466684-3.939413-5.2-9.257542-5.2-15.954545v-50.227273h5.554545v48.809091c0 5.90912 1.240897 10.419681 3.722727 13.531818 2.481831 3.112137 5.96816 4.668182 10.459091 4.668182 3.624261 0 7.110589-.906052 10.459091-2.718182s6.440895-4.687859 9.277273-8.627273v-55.663636h5.554545v70.909091h-5.554545v-10.281818h-1.063637c-2.127283 3.703049-4.904528 6.539384-8.331818 8.509091s-7.14998 2.954545-11.168182 2.954545zm47.772728-1.181818v-70.909091h5.554545v10.281818h.945455c1.890918-3.62426 4.62877-6.440899 8.213636-8.45 3.584867-2.009101 7.34695-3.013636 11.286364-3.013636 5.751544 0 10.360588 1.930284 13.827272 5.790909s5.2 9.060573 5.2 15.6v50.7h-5.554545v-49.636364c0-5.672755-1.240897-9.986349-3.722727-12.940909-2.481831-2.95456-5.96816-4.431818-10.459091-4.431818-3.703049 0-7.248468.925748-10.636364 2.777273-3.387896 1.851524-6.421199 4.707556-9.1 8.568182v55.663636zm83.009091-3.781818c4.018202 0 7.583317-.925748 10.695454-2.777273 3.112137-1.851524 5.928775-4.589376 8.45-8.213636v-17.845455h-20.918182c-4.018202 0-7.268169.945445-9.75 2.836364-2.48183 1.890918-3.722727 5.278763-3.722727 10.163636 0 5.121238 1.240897 9.040896 3.722727 11.759091 2.481831 2.718196 6.322702 4.077273 11.522728 4.077273zm-.709091 4.963636c-6.066697 0-10.853013-1.812103-14.359091-5.436363-3.506078-3.624261-5.259091-8.587848-5.259091-14.89091 0-5.672755 1.634832-10.124226 4.904545-13.354545 3.269714-3.230319 7.740881-4.845455 13.413637-4.845455h21.154545v-14.772727c0-4.490931-1.378774-8.115138-4.136363-10.872727-2.75759-2.75759-6.657551-4.136364-11.7-4.136364-5.200026 0-9.001504.984839-11.404546 2.954546s-4.234842 5.554519-5.495454 10.754545l-4.963637-1.418182c1.575766-6.145485 4.037862-10.557562 7.386364-13.236363 3.348501-2.678802 8.095424-4.018182 14.240909-4.018182 6.618215 0 11.877253 1.772709 15.777273 5.318182 3.900019 3.545472 5.85 8.430272 5.85 14.654545v34.036364c0 5.90912.846961 9.789385 2.540909 11.640909s4.786341 2.30455 9.277272 1.359091v5.2c-4.490931.787883-8.075744.31516-10.754545-1.418182s-4.21515-4.806039-4.609091-9.218182h-.945454c-1.969707 3.624261-4.845436 6.480293-8.627273 8.568182s-7.878766 3.131818-12.290909 3.131818zm73.090909-.118182c-5.436391 0-9.690894-1.772709-12.763637-5.318181-3.072742-3.545473-4.60909-8.430272-4.60909-14.654546v-47.036364h-11.936364v-4.963636h11.936364v-23.636364h5.436363v23.636364h21.745455v4.963636h-21.745455v45.854546c0 5.436391 1.043929 9.474229 3.131818 12.113636 2.08789 2.639407 5.25907 3.959091 9.513637 3.959091 1.260612 0 2.659083-.216664 4.195454-.65 1.536372-.433335 3.053023-1.043935 4.55-1.831818l1.3 4.845455c-1.733342.866671-3.506051 1.536361-5.318182 2.00909-1.81213.47273-3.624233.709091-5.436363.709091zm68.009091-15.009091c-1.575766 5.200026-4.037862 9.0212-7.386364 11.463637-3.348502 2.442436-8.095424 3.663636-14.240909 3.663636-7.248521 0-12.881798-2.146948-16.9-6.440909s-6.027273-10.616625-6.027273-18.968182v-22.1c0-8.587921 2.087858-15.028766 6.263637-19.322727 4.175778-4.293961 9.612087-6.440909 16.309091-6.440909 6.854579 0 12.310585 2.186342 16.368181 6.559091s6.086364 11.049955 6.086364 20.031818v10.636364h-39.472727v10.754545c0 7.090945 1.437864 12.251499 4.313636 15.481818s7.228759 4.845455 13.059091 4.845455c4.963661 0 8.568171-.866658 10.813636-2.6 2.245466-1.733342 4.077266-4.806039 5.495455-9.218182zm-39-32.381818v6.618182h33.918182v-5.554545c0-7.563675-1.418168-13.078771-4.254546-16.545455s-7.051487-5.2-12.645454-5.2c-5.672756 0-9.927259 1.674226-12.763637 5.022727-2.836378 3.348502-4.254545 8.568147-4.254545 15.659091zm78.463636 46.918182c-5.436391 0-9.690894-2.107555-12.763636-6.322727-3.072743-4.215173-4.609091-10.104508-4.609091-17.668182v-71.145455h5.554545v71.263637c0 5.90912 1.063626 10.498468 3.190909 13.768182 2.127284 3.269713 5.121193 4.904545 8.981819 4.904545 1.024247 0 2.186357-.157574 3.486363-.472727 1.300007-.315153 2.462116-.748482 3.486364-1.3l1.181818 4.727273c-1.181824.551517-2.501508 1.063634-3.959091 1.536363-1.457583.47273-2.974234.709091-4.55.709091zm20.845455 23.754546c-1.024248 0-2.127267-.078788-3.309091-.236364-1.181824-.157577-2.521205-.393938-4.018182-.709091l.709091-4.845455c1.3394.315154 2.5606.551515 3.663636.709091 1.103036.157577 2.403023.236364 3.9.236364 3.309108 0 5.928778-.965142 7.859091-2.895455 1.930313-1.930312 3.722719-5.574215 5.377273-10.931818l1.654545-5.672727h-1.418182l-22.1-70.909091h5.79091l19.618181 64.645455 19.145455-64.645455h5.436364l-23.518182 77.763636c-1.890919 6.381851-4.333319 10.892412-7.327273 13.531819s-6.815128 3.959091-11.463636 3.959091z" opacity=".8"/><path d="m31.3181818 403.181818c-10.1636872 0-17.7075511-2.718154-22.63181816-8.154545-4.92426705-5.436391-7.38636364-13.748429-7.38636364-24.936364v-62.636364h5.67272727v62.636364c0 10.006111 1.89089018 17.156039 5.67272723 21.45 3.7818371 4.293961 10.0060173 6.440909 18.6727273 6.440909s14.8711934-2.146948 18.6136364-6.440909c3.7424429-4.293961 5.6136363-11.443889 5.6136363-21.45v-62.636364h5.6727273v62.636364c0 11.187935-2.4620966 19.499973-7.3863636 24.936364-4.9242671 5.436391-12.4287375 8.154545-22.5136364 8.154545zm47.5-1.181818v-70.909091h5.6727273v10.990909h1.1818182c1.9697068-3.781837 4.9242227-6.75605 8.8636363-8.922727 3.9394137-2.166678 8.1545234-3.25 12.6454544-3.25 6.303062 0 11.325739 1.989374 15.068182 5.968182 3.742443 3.978807 5.613636 9.39542 5.613636 16.25v49.872727h-5.672727v-48.690909c0-5.909121-1.33938-10.399985-4.018182-13.472727-2.678801-3.072743-6.499975-4.609091-11.463636-4.609091-4.09699 0-8.016648 1.004535-11.759091 3.013636s-7.2287717 5.022707-10.4590909 9.040909v54.718182zm73.5181822 0v-65.709091h-13v-5.2h13v-5.318182c0-6.145485 1.595438-10.892407 4.786363-14.240909 3.190925-3.348501 7.149977-5.022727 11.877273-5.022727 1.81213 0 3.683324.236361 5.613636.709091 1.930313.472729 3.643932 1.063633 5.140909 1.772727l-1.181818 4.845455c-1.418189-.630307-2.93484-1.162119-4.55-1.595455-1.615159-.433335-3.289385-.65-5.022727-.65-3.387896 0-6.066657 1.103019-8.036364 3.309091-1.969706 2.206072-2.954545 5.790884-2.954545 10.754545v5.436364h21.745454v5.2h-21.745454v65.709091zm62.6 1.181818c-7.957616 0-14.043919-2.245432-18.259091-6.736363-4.215173-4.490932-6.322728-10.91208-6.322728-19.263637v-20.8c0-8.509133 2.127252-15.048462 6.381819-19.618182 4.254566-4.569719 10.360566-6.854545 18.318181-6.854545 7.800039 0 13.807555 2.284826 18.022728 6.854545 4.215172 4.56972 6.322727 11.109049 6.322727 19.618182v20.8c0 8.351557-2.107555 14.772705-6.322727 19.263637-4.215173 4.490931-10.262082 6.736363-18.140909 6.736363zm0-5.2c6.38185 0 11.109075-1.693922 14.181818-5.081818 3.072742-3.387896 4.609091-8.627237 4.609091-15.718182v-20.8c0-7.248521-1.536349-12.606043-4.609091-16.072727-3.072743-3.466684-7.799968-5.2-14.181818-5.2s-11.128773 1.733316-14.240909 5.2c-3.112137 3.466684-4.668182 8.824206-4.668182 16.072727v20.8c0 7.090945 1.556045 12.330286 4.668182 15.718182 3.112136 3.387896 7.859059 5.081818 14.240909 5.081818zm40.063636 4.018182v-70.909091h5.672727v10.990909h1.181818c2.600013-4.333355 5.495439-7.445445 8.686364-9.336363 3.190925-1.890919 6.559073-2.836364 10.104546-2.836364 5.43639 0 9.71059 1.674226 12.822727 5.022727 3.112137 3.348502 4.668182 8.095424 4.668182 14.240909v8.509091h-5.790909v-8.272727c0-4.333355-.965142-7.799987-2.895455-10.4s-4.904525-3.9-8.922727-3.9c-3.860626 0-7.406045 1.024232-10.636364 3.072727s-6.303016 5.278766-9.218182 9.690909v54.127273zm84.790909 1.063636c-5.90912 0-10.557559-1.910587-13.945454-5.731818-3.387896-3.821231-5.081819-9.080269-5.081819-15.777273v-45.263636h-13v-5.2h13v-23.636364h5.672728v23.636364h23.872727v5.2h-23.872727v44.081818c0 5.909121 1.142412 10.281804 3.427272 13.118182s5.790886 4.254546 10.518182 4.254546c1.339401 0 2.856052-.216665 4.55-.65 1.693948-.433336 3.407567-1.043936 5.140909-1.831819l1.181818 5.081819c-1.81213.866671-3.722717 1.536361-5.731818 2.00909-2.009101.47273-3.919688.709091-5.731818.709091zm51.672727.118182c-6.224273 0-11.227253-2.087858-15.009091-6.263636-3.781837-4.175779-5.672727-9.769662-5.672727-16.781818v-49.045455h5.672727v47.154546c0 6.460638 1.339381 11.365134 4.018182 14.713636 2.678802 3.348501 6.539369 5.022727 11.581818 5.022727 3.860626 0 7.662103-.965142 11.404546-2.895454 3.742443-1.930313 7.307559-5.022706 10.695454-9.277273v-54.718182h5.672728v70.909091h-5.672728v-10.990909h-1.063636c-2.600013 4.018202-5.7318 7.051505-9.395454 9.1-3.663655 2.048495-7.740887 3.072727-12.231819 3.072727zm50.963637-1.181818v-70.909091h5.672727v10.990909h1.181818c1.969707-3.781837 4.924223-6.75605 8.863637-8.922727 3.939413-2.166678 8.154523-3.25 12.645454-3.25 6.303062 0 11.325739 1.989374 15.068182 5.968182 3.742443 3.978807 5.613636 9.39542 5.613636 16.25v49.872727h-5.672727v-48.690909c0-5.909121-1.339381-10.399985-4.018182-13.472727-2.678801-3.072743-6.499975-4.609091-11.463636-4.609091-4.09699 0-8.016648 1.004535-11.759091 3.013636s-7.228772 5.022707-10.459091 9.040909v54.718182zm89.509091-3.9c4.569719 0 8.627255-.945445 12.172727-2.836364 3.545472-1.890918 6.657562-4.766647 9.336364-8.627272v-17.254546h-23.754546c-4.254567 0-7.721199.984839-10.4 2.954546-2.678801 1.969706-4.018182 5.357551-4.018182 10.163636 0 4.963661 1.339381 8.804532 4.018182 11.522727 2.678801 2.718196 6.893911 4.077273 12.645455 4.077273zm-.827273 5.081818c-6.539427 0-11.680284-1.812103-15.422727-5.436363-3.742443-3.624261-5.613637-8.587848-5.613637-14.89091 0-5.672755 1.753013-10.143923 5.259091-13.413636s8.253001-4.904545 14.240909-4.904545h23.872728v-13.827273c0-4.490932-1.477258-8.213622-4.431819-11.168182-2.95456-2.95456-7.34694-4.431818-13.177272-4.431818-5.751544 0-9.946957.965142-12.586364 2.895454-2.639407 1.930313-4.668175 5.495429-6.086364 10.695455l-5.081818-1.536364c1.733342-6.145485 4.412103-10.557562 8.036364-13.236363 3.62426-2.678802 8.784815-4.018182 15.481818-4.018182 7.248521 0 12.980282 1.8318 17.195455 5.495454 4.215172 3.663655 6.322727 8.725726 6.322727 15.186364v32.854546c0 6.145485.925748 10.14393 2.777273 11.995454 1.851524 1.851525 5.259066 2.30455 10.222727 1.359091v5.436364c-4.884873.787882-8.745441.31516-11.581818-1.418182-2.836378-1.733342-4.490907-4.845432-4.963637-9.336364h-1.063636c-2.442437 3.624261-5.712101 6.480293-9.809091 8.568182s-8.627248 3.131818-13.590909 3.131818zm76.827273-.118182c-5.909121 0-10.557559-1.910587-13.945455-5.731818s-5.081818-9.080269-5.081818-15.777273v-45.263636h-13v-5.2h13v-23.636364h5.672727v23.636364h23.872727v5.2h-23.872727v44.081818c0 5.909121 1.142413 10.281804 3.427273 13.118182s5.790885 4.254546 10.518182 4.254546c1.3394 0 2.856052-.216665 4.55-.65 1.693948-.433336 3.407567-1.043936 5.140909-1.831819l1.181818 5.081819c-1.81213.866671-3.722717 1.536361-5.731818 2.00909-2.009101.47273-3.919688.709091-5.731818.709091zm72.445454-15.127272c-1.733342 5.278814-4.4318 9.139381-8.095454 11.581818-3.663655 2.442436-8.843906 3.663636-15.540909 3.663636-7.800039 0-13.886342-2.206038-18.259091-6.618182-4.37275-4.412143-6.559091-10.912078-6.559091-19.5v-20.681818c0-8.824286 2.284825-15.442402 6.854545-19.854545 4.56972-4.412144 10.518145-6.618182 17.845455-6.618182 7.327309 0 13.216644 2.245432 17.668182 6.736364 4.451537 4.490931 6.677272 11.345408 6.677272 20.563636v9.927273h-43.372727v10.045454c0 7.32731 1.595439 12.625741 4.786364 15.895455 3.190925 3.269713 7.97724 4.904545 14.359091 4.904545 5.593967 0 9.631805-.886355 12.113636-2.659091 2.48183-1.772736 4.471205-4.825736 5.968182-9.159091zm-42.781818-31.554546v5.790909h37.7v-4.727272c0-7.800039-1.575742-13.47271-4.727273-17.018182-3.151531-3.545473-7.839363-5.318182-14.063636-5.318182-6.224274 0-10.931802 1.733316-14.122727 5.2s-4.786364 8.824206-4.786364 16.072727zm82.2 46.209091c-5.90912 0-10.518165-2.265129-13.827273-6.795454-3.309107-4.530326-4.963636-10.774203-4.963636-18.731819v-69.609091h5.672727v69.727273c0 6.303062 1.181807 11.207558 3.545455 14.713637 2.363648 3.506078 5.672706 5.25909 9.927272 5.25909 1.103036 0 2.383326-.17727 3.84091-.531818 1.457583-.354547 2.698479-.807573 3.722727-1.359091l1.418182 4.845455c-1.260613.709094-2.698477 1.299998-4.313637 1.772727-1.615159.47273-3.289385.709091-5.022727.709091zm25.790909 23.754546c-1.103036 0-2.265145-.059091-3.486364-.177273-1.221218-.118183-2.659082-.334847-4.313636-.65l.827273-5.2c1.418189.315153 2.698479.551514 3.840909.709091 1.14243.157576 2.580294.236363 4.313636.236363 3.624261 0 6.519686-1.004535 8.686364-3.013636 2.166677-2.009101 4.234839-5.849972 6.204545-11.522727l1.536364-4.727273h-1.418182l-24.463636-70.909091h6.027273l21.863636 64.763636 21.036364-64.763636h5.790909l-25.645455 77.054546c-2.206072 6.618214-4.924226 11.306046-8.154545 14.063636-3.23032 2.757589-7.445429 4.136364-12.645455 4.136364z" opacity=".6"/><path d="m34.2727273 556.181818c-10.7939934 0-18.9090638-2.836335-24.34545457-8.509091-5.43639082-5.672755-8.15454546-14.142368-8.15454546-25.409091v-61.809091h5.90909091v61.809091c0 10.163688 2.06816114 17.47119 6.20454542 21.922728 4.1363844 4.451537 10.9317709 6.677272 20.3863637 6.677272 9.4545927 0 16.2499793-2.225735 20.3863636-6.677272 4.1363843-4.451538 6.2045455-11.75904 6.2045455-21.922728v-61.809091h5.9090909v61.809091c0 11.266723-2.7181547 19.736336-8.1545455 25.409091-5.4363908 5.672756-13.5514612 8.509091-24.3454545 8.509091zm48.0454545-1.181818v-70.909091h5.9090909v11.818182h1.1818182c2.2060716-4.018202 5.4757359-7.189382 9.8090909-9.513636 4.3333552-2.324254 8.9817932-3.486364 13.9454542-3.486364 6.85458 0 12.290889 2.068161 16.309091 6.204545 4.018202 4.136385 6.027273 9.749965 6.027273 16.840909v49.045455h-5.909091v-47.863636c0-6.145486-1.457561-10.813621-4.372727-14.004546s-7.090882-4.786363-12.527273-4.786363c-4.490931 0-8.784828 1.083322-12.8818181 3.25-4.0969902 2.166677-7.9575576 5.377251-11.5818182 9.631818v53.772727zm79.5454542 0v-65.590909h-14.181818v-5.318182h14.181818v-4.727273c0-6.38185 1.71362-11.32574 5.140909-14.831818 3.42729-3.506078 7.70149-5.259091 12.822728-5.259091 1.969707 0 3.978777.236362 6.027272.709091 2.048496.47273 3.860599 1.063633 5.436364 1.772727l-1.181818 5.081819c-1.496977-.709095-3.151506-1.260604-4.963636-1.654546-1.812131-.393941-3.624234-.590909-5.436364-.590909-3.624261 0-6.519686 1.142413-8.686364 3.427273-2.166677 2.28486-3.25 6.027247-3.25 11.227273v4.845454h23.636364v5.318182h-23.636364v65.590909zm66.681819 1.181818c-8.587922 0-15.166644-2.304522-19.736364-6.913636s-6.854546-11.246927-6.854546-19.913637v-19.145454c0-8.824287 2.304523-15.58028 6.913637-20.268182s11.207533-7.031818 19.795454-7.031818c8.509134 0 15.048462 2.343916 19.618182 7.031818s6.854546 11.443895 6.854546 20.268182v19.145454c0 8.66671-2.284826 15.304523-6.854546 19.913637s-11.148442 6.913636-19.736363 6.913636zm0-5.318182c7.090944 0 12.310589-1.753012 15.65909-5.259091 3.348502-3.506078 5.022728-8.92269 5.022728-16.25v-19.145454c0-7.484886-1.674226-13.019679-5.022728-16.604546-3.348501-3.584866-8.568146-5.377272-15.65909-5.377272-7.090945 0-12.31059 1.792406-15.659091 5.377272-3.348502 3.584867-5.022728 9.11966-5.022728 16.604546v19.145454c0 7.32731 1.674226 12.743922 5.022728 16.25 3.348501 3.506079 8.568146 5.259091 15.659091 5.259091zm46.136363 4.136364v-70.909091h5.909091v11.818182h1.181818c2.993955-4.648508 6.243922-7.977263 9.75-9.986364s7.228768-3.013636 11.168182-3.013636c5.830332 0 10.399984 1.753013 13.709091 5.259091s4.963636 8.449968 4.963636 14.831818v7.681818h-5.909091v-7.445454c0-4.490932-1.024232-8.115138-3.072727-10.872728-2.048495-2.757589-5.278766-4.136363-9.690909-4.136363-4.254567 0-8.174224 1.103019-11.759091 3.309091-3.584866 2.206071-7.031801 5.63331-10.340909 10.281818v53.181818zm92.290909 1.063636c-6.38185 0-11.404527-2.048464-15.068182-6.145454-3.663654-4.09699-5.495454-9.769661-5.495454-17.018182v-43.490909h-14.181818v-5.318182h14.181818v-23.636364h5.909091v23.636364h26v5.318182h-26v42.427273c0 6.38185 1.260593 11.109075 3.781818 14.181818 2.521225 3.072742 6.381792 4.609091 11.581818 4.609091 1.496977 0 3.151506-.216665 4.963637-.65 1.81213-.433336 3.624233-1.043936 5.436363-1.831818l1.3 5.2c-2.048495.866671-4.136353 1.536361-6.263636 2.00909-2.127284.47273-4.175748.709091-6.145455.709091zm49.863637.118182c-6.775792 0-12.192404-2.206038-16.25-6.618182-4.057596-4.412143-6.086364-10.281781-6.086364-17.609091v-47.863636h5.909091v45.5c0 7.012156 1.418168 12.310588 4.254545 15.895455 2.836378 3.584866 7.051488 5.377272 12.645455 5.377272 4.018202 0 8.134827-1.043929 12.35-3.131818 4.215172-2.087889 8.253011-5.37725 12.113636-9.868182v-53.772727h5.909091v70.909091h-5.909091v-11.818182h-1.181818c-3.072743 4.412143-6.559071 7.681808-10.459091 9.809091-3.900019 2.127283-8.331793 3.190909-13.295454 3.190909zm50.390909-1.181818v-70.909091h5.909091v11.818182h1.181818c2.206071-4.018202 5.475736-7.189382 9.809091-9.513636s8.981793-3.486364 13.945454-3.486364c6.85458 0 12.290889 2.068161 16.309091 6.204545 4.018202 4.136385 6.027273 9.749965 6.027273 16.840909v49.045455h-5.909091v-47.863636c0-6.145486-1.457561-10.813621-4.372727-14.004546s-7.090882-4.786363-12.527273-4.786363c-4.490932 0-8.784828 1.083322-12.881818 3.25-4.09699 2.166677-7.957558 5.377251-11.581818 9.631818v53.772727zm97.009091-4.136364c5.200026 0 9.769677-.945445 13.709091-2.836363 3.939413-1.890919 7.366652-4.845435 10.281818-8.863637v-16.663636h-26.590909c-4.490932 0-8.174228.984839-11.05 2.954545-2.875772 1.969707-4.313637 5.357552-4.313637 10.163637 0 4.963661 1.437865 8.745441 4.313637 11.345454s7.425726 3.9 13.65 3.9zm-.827273 5.318182c-7.012156 0-12.507556-1.812103-16.486364-5.436363-3.978808-3.624261-5.968182-8.627241-5.968182-15.009091 0-5.672756 1.871194-10.124227 5.613637-13.354546s8.76512-4.845454 15.068182-4.845454h26.590909v-13c0-4.490932-1.595439-8.331803-4.786364-11.522728s-8.056028-4.786363-14.595454-4.786363c-6.381851 0-11.010592.965142-13.886364 2.895454-2.875772 1.930313-5.062114 5.495429-6.559091 10.695455l-5.318182-1.536364c1.890919-6.145485 4.806041-10.577259 8.745455-13.295454 3.939413-2.718196 9.533297-4.077273 16.781818-4.077273 7.800039 0 14.004522 1.89089 18.613636 5.672727s6.913637 9.060572 6.913637 15.836364v31.672727c0 6.224274 1.004535 10.301506 3.013636 12.231818 2.009101 1.930313 5.731791 2.422732 11.168182 1.477273v5.554545c-5.436391.787883-9.631804.275767-12.586364-1.536363s-4.707573-4.963614-5.259091-9.454546h-1.181818c-2.836378 3.781837-6.499977 6.69696-10.990909 8.745455s-9.454518 3.072727-14.890909 3.072727zm83.563636-.118182c-6.38185 0-11.404527-2.048464-15.068182-6.145454-3.663654-4.09699-5.495454-9.769661-5.495454-17.018182v-43.490909h-14.181818v-5.318182h14.181818v-23.636364h5.909091v23.636364h26v5.318182h-26v42.427273c0 6.38185 1.260593 11.109075 3.781818 14.181818 2.521225 3.072742 6.381792 4.609091 11.581818 4.609091 1.496977 0 3.151506-.216665 4.963637-.65 1.81213-.433336 3.624233-1.043936 5.436363-1.831818l1.3 5.2c-2.048495.866671-4.136353 1.536361-6.263636 2.00909-2.127284.47273-4.175748.709091-6.145455.709091zm79-15.127272c-1.969707 5.43639-4.924222 9.336351-8.863636 11.7-3.939414 2.363648-9.572691 3.545454-16.9 3.545454-8.430345 0-14.989371-2.265129-19.677273-6.795454-4.687902-4.530326-7.031818-11.246926-7.031818-20.15v-19.027273c0-9.13944 2.462097-15.97422 7.386364-20.504546 4.924267-4.530325 11.365111-6.795454 19.322727-6.795454 7.957615 0 14.359067 2.304522 19.204545 6.913636 4.845479 4.609114 7.268182 11.680256 7.268182 21.213637v9.1h-47.272727v9.218181c0 7.563675 1.713619 13.039377 5.140909 16.427273s8.607541 5.081818 15.540909 5.081818c6.224274 0 10.715138-.925748 13.472727-2.777272 2.75759-1.851525 4.963628-4.865131 6.618182-9.040909zm-46.563636-30.727273v4.963636h41.363636v-3.9c0-7.957615-1.733316-13.768163-5.2-17.431818s-8.627238-5.495454-15.481818-5.495454-12.015134 1.772709-15.481818 5.318181c-3.466684 3.545473-5.2 9.060569-5.2 16.545455zm90.936364 45.381818c-6.303062 0-11.246952-2.403006-14.831819-7.209091-3.584866-4.806084-5.377272-11.4242-5.377272-19.854545v-68.072728h5.909091v68.19091c0 6.618214 1.299987 11.818162 3.9 15.6 2.600013 3.781837 6.184825 5.672727 10.754545 5.672727 1.181824 0 2.560598-.196968 4.136364-.590909 1.575765-.393942 2.954539-.866664 4.136363-1.418182l1.418182 5.081818c-1.418189.709095-2.974234 1.319695-4.668182 1.831818-1.693948.512124-3.486354.768182-5.377272.768182zm21.854545 23.754546c-1.181824 0-2.422721-.059091-3.722727-.177273-1.300007-.118183-2.856052-.334847-4.668182-.65l.827273-5.318182c1.496977.315153 2.875751.551514 4.136363.709091 1.260613.157576 2.796961.236364 4.609091.236364 4.018202 0 7.209079-1.063626 9.572727-3.19091 2.363649-2.127283 4.687868-6.145425 6.972728-12.054545l1.536363-3.9h-1.418181l-26.709091-70.909091h6.145454l24.109091 65 23.045455-65h5.909091l-27.654546 76.227273c-2.442436 6.85458-5.416649 11.739379-8.922727 14.654545s-8.095426 4.372728-13.768182 4.372728z" opacity=".4"/></g></svg>