<?xml version="1.0" encoding="utf-8"?>
<!-- Generator: Adobe Illustrator 15.1.0, SVG Export Plug-In  -->
<!DOCTYPE svg PUBLIC "-//W3C//DTD SVG 1.1//EN" "http://www.w3.org/Graphics/SVG/1.1/DTD/svg11.dtd" [
	<!ENTITY ns_flows "http://ns.adobe.com/Flows/1.0/">
]>
<svg version="1.1"
	 xmlns="http://www.w3.org/2000/svg" xmlns:xlink="http://www.w3.org/1999/xlink" xmlns:a="http://ns.adobe.com/AdobeSVGViewerExtensions/3.0/"
	 x="0px" y="0px" width="64px" height="81px" viewBox="-0.624 -0.719 64 81"
	 overflow="visible" enable-background="new -0.624 -0.719 64 81" xml:space="preserve">
<defs>
</defs>
<path fill="#575757" d="M52.658,17.848c0,0,3.771,6.356,4.341,9.97c0.572,3.615-0.664,8.56-0.476,9.225
	c0.191,0.666,5.343,7.834,5.838,9.068c0.167,0.414-4.041,4.678-4.126,4.817c-0.284,0.475,0.732,4.225,0.572,4.564
	c-0.159,0.342-1.522,0.76-1.522,0.76s0.663,0.376,0.95,0.698c0.303,0.339,0.226,0.634,0.063,0.793
	c-0.316,0.315-1.839,1.204-1.964,1.554c-0.129,0.349,0.445,5.77-0.664,7.196c-1.111,1.428-9.45,0.063-11.13,2.313
	c-1.679,2.251-6.657,10.652-6.657,10.652s-4.973-7.986-13.975-12.126C14.906,63.196,8.4,60.439,8.4,60.439s0.728-3.646-0.19-6.658
	C7.292,50.77,2.123,39.325,2.123,39.325l-0.57,0.761L0.982,34.57l-0.19-4.944L0,30.149c0,0,1.267-7.784,1.553-9.464
	c0.286-1.68,2.663-6.847,2.663-6.847l-0.982,0.095l4.026-5.421L6.182,8.417c0,0,5.374-4.184,7.085-5.183
	C14.979,2.235,21.542,0,21.542,0l-0.208,0.713l11.161-0.191l-0.318,0.571c0,0,13.884,3.377,15.027,3.804
	c1.142,0.428,4.597,2.14,4.597,2.14l-0.682,0.729l3.087,2.431l-0.71,0.121l2.101,2.256l-3.145,0.709c0,0,1.092,0.952,1.854,2.092
	c0.76,1.142,1.569,3.33,1.569,3.33s-0.795-0.467-1.682-0.722C53.307,17.73,52.658,17.848,52.658,17.848z"/>
<path fill="#575757" d="M56.52,38.344c0,0,6.247,7.573,6.342,8.046c0.095,0.474-0.01,1.016-0.379,1.988
	c-0.307,0.812-0.951,1.583-1.23,1.798c-0.615,0.474-3.407,0.663-3.407,0.663L56.52,38.344z"/>
</svg>
