<?xml version="1.0" standalone="no"?>
<!DOCTYPE svg PUBLIC "-//W3C//DTD SVG 20010904//EN"
 "http://www.w3.org/TR/2001/REC-SVG-20010904/DTD/svg10.dtd">
<svg version="1.0" xmlns="http://www.w3.org/2000/svg"
 width="700.000000pt" height="700.000000pt" viewBox="0 0 700.000000 700.000000"
 preserveAspectRatio="xMidYMid meet">
<metadata>
Created by potrace 1.14, written by Peter Selinger 2001-2017
</metadata>
<g transform="translate(0.000000,700.000000) scale(0.100000,-0.100000)"
fill="#000000" stroke="none">
<path d="M3437 6790 c-20 -6 -54 -19 -75 -29 -21 -11 -693 -676 -1579 -1563
-1210 -1210 -1547 -1553 -1562 -1588 -26 -56 -27 -157 -5 -226 15 -45 138
-170 1558 -1592 1706 -1708 1592 -1602 1725 -1602 137 0 15 -113 1727 1601
1420 1422 1543 1548 1558 1593 24 74 21 170 -8 231 -35 72 -3089 3125 -3156
3154 -56 24 -133 33 -183 21z"/>
</g>
</svg>
