<?xml version="1.0" standalone="no"?>
<!DOCTYPE svg PUBLIC "-//W3C//DTD SVG 20010904//EN"
 "http://www.w3.org/TR/2001/REC-SVG-20010904/DTD/svg10.dtd">
<svg version="1.0" xmlns="http://www.w3.org/2000/svg"
 width="700.000000pt" height="700.000000pt" viewBox="0 0 700.000000 700.000000"
 preserveAspectRatio="xMidYMid meet">
<metadata>
Created by potrace 1.14, written by Peter Selinger 2001-2017
</metadata>
<g transform="translate(0.000000,700.000000) scale(0.100000,-0.100000)"
fill="#000000" stroke="none">
<path d="M3426 6965 c-32 -11 -372 -346 -1704 -1677 -915 -915 -1671 -1676
-1680 -1693 -23 -42 -22 -159 2 -205 10 -19 759 -777 1664 -1683 1216 -1217
1659 -1655 1694 -1673 56 -28 139 -32 196 -9 52 22 3346 3313 3373 3370 27 59
25 144 -5 203 -37 71 -3303 3333 -3366 3361 -52 24 -118 26 -174 6z"/>
</g>
</svg>
