<svg width="1155" height="559" viewBox="0 0 1155 559" fill="none" xmlns="http://www.w3.org/2000/svg">
<g clip-path="url(#clip0_490_4529)">
<path d="M152.02 -279.643C413.163 -279.643 521.563 -334 829.515 -334C1024.14 -334 1167.03 -299.056 1196.59 -195.002C1216.3 -120.456 1253.26 -95.6077 1369.05 -52.899C1524.26 4.56367 1677 37.9542 1677 108.618C1677 176.175 1563.67 209.565 1445.42 238.297C1337.02 265.475 1218.77 298.865 1186.74 374.965C1139.93 486.007 900.96 559 440.263 559C85.5018 559 -37.6791 521.727 -335.777 517.844C-670.829 513.962 -838.355 468.923 -838.355 371.082C-838.355 299.642 -761.983 277.899 -761.983 197.141C-761.983 75.2269 -964 46.4957 -964 -118.127C-964 -253.242 -742.274 -327.011 -454.031 -327.011C-266.796 -327.011 -86.9515 -279.643 152.02 -279.643Z" fill="white" fill-opacity="0.13"/>
</g>
<defs>
<clipPath id="clip0_490_4529">
<rect width="1155" height="559" fill="white"/>
</clipPath>
</defs>
</svg>
