<svg width="156" height="99" viewBox="0 0 156 99" xmlns="http://www.w3.org/2000/svg"><title>Artboard 1</title><g fill="none" fill-rule="evenodd"><path d="M124.35 72.58L78 97.4l-8.83-16.448C62.153 85.658 53.704 88.4 44.6 88.4 20.2 88.4.5 68.7.5 44.3c0-3.082.318-6.091.924-8.997C4.186 52.218 16.416 66.792 33.9 71.6 50.1 76 66.6 71 77.7 59.9l4.1 21 42.55-8.32zm.012-.003L146.6 88.4 155 .3l-21.618 9.883L144.7 68.6l-20.338 3.977zm-46.59-57.331C69.697 6.03 57.84.2 44.6.2 30.31.2 17.575 7.048 9.51 17.632L72.9 35.1l-3.6-18.2 8.472-1.654z" fill="#000"/><path d="M28.9 54.2c-.2.1-.4.3-.7.5-.3.2-.7.4-1.2.7-.5.2-1.1.4-1.8.6-.7.2-1.5.2-2.3.2-1.2 0-2.2-.2-3.2-.5-.9-.4-1.7-.9-2.4-1.5s-1.2-1.4-1.5-2.3c-.3-.9-.5-1.9-.5-3 0-1 .2-1.9.5-2.8.3-.9.8-1.7 1.4-2.3.6-.7 1.4-1.2 2.2-1.6.9-.4 1.9-.6 3-.6s2.1.2 2.9.6c.8.4 1.6.9 2.1 1.6.6.7 1 1.5 1.3 2.5.3 1 .4 2 .4 3.2v.7h-9.8c0 .7.3 1.4 1 1.9.6.6 1.5.8 2.6.8s2-.2 2.7-.5c.7-.3 1.2-.6 1.5-.8l1.8 2.6zm-3.7-6.8c0-.3-.1-.6-.2-.9-.1-.3-.3-.6-.5-.8-.2-.3-.5-.5-.9-.6-.4-.2-.8-.2-1.3-.2s-.9.1-1.3.2c-.4.2-.7.4-.9.6-.2.3-.4.5-.6.8-.1.3-.2.6-.2.9h5.9zM30.9 41.9H35l.1 1.5c.5-.5 1-1 1.8-1.3.7-.3 1.5-.5 2.3-.5 1.6 0 2.8.5 3.8 1.4.9.9 1.4 2.3 1.4 4.2v8.5h-4.2v-7.9c0-.8-.2-1.4-.6-1.8-.4-.5-.9-.7-1.6-.7-.5 0-.9.1-1.2.2-.4.2-.6.4-.9.7-.2.3-.4.6-.5 1-.1.4-.2.7-.2 1.2v7.4H31V41.9h-.1zM56 54.3c-.4.5-1 .9-1.7 1.3-.7.3-1.4.5-2.3.5-.8 0-1.6-.2-2.4-.5-.7-.3-1.4-.8-1.9-1.4-.5-.6-1-1.4-1.3-2.2-.3-.9-.5-1.9-.5-2.9 0-1.2.2-2.3.7-3.2.4-.9 1-1.7 1.7-2.3.7-.6 1.5-1.1 2.3-1.4.9-.3 1.7-.5 2.5-.5.7 0 1.2 0 1.6.1.4.1.8.2 1.1.3v-6H60v19.6h-3.9l-.1-1.4zm-.1-8.6c-.3-.2-.6-.3-1-.4-.3-.1-.8-.1-1.3-.1-1.1 0-1.9.4-2.5 1.1-.6.7-.9 1.7-.9 2.8 0 1 .2 1.8.7 2.5.5.6 1.2 1 2.2 1 .5 0 .9-.1 1.2-.2.3-.2.6-.4.9-.7.2-.3.4-.6.5-1 .1-.4.1-.8.1-1.1v-3.9h.1zM63.7 51.4c.4.4 1 .8 1.8 1 .7.3 1.4.4 2.1.4.6 0 1.1-.1 1.6-.2.4-.2.6-.5.6-.9 0-.2 0-.3-.1-.5-.1-.1-.3-.3-.5-.4-.2-.1-.6-.3-1-.4-.4-.1-1-.3-1.6-.5-.5-.1-1.1-.3-1.6-.5s-1-.5-1.4-.8c-.4-.3-.7-.7-1-1.2-.2-.5-.4-1-.4-1.6 0-.6.1-1.2.4-1.7.3-.5.7-1 1.2-1.4.5-.4 1.1-.7 1.8-.9.7-.2 1.5-.3 2.3-.3 1.2 0 2.2.1 3.1.4.9.3 1.7.6 2.4 1.2l-1.8 2.8c-.4-.3-1-.6-1.5-.8-.6-.2-1.2-.4-2-.4-.6 0-1.1.1-1.4.3-.3.2-.4.4-.4.7 0 .5.3.8.9 1 .6.2 1.4.5 2.5.7 1.4.4 2.4.9 3.1 1.6.6.7 1 1.6 1 2.7 0 .8-.2 1.4-.5 2-.3.5-.8 1-1.4 1.4-.6.4-1.2.6-2 .8-.7.2-1.5.3-2.2.3-1.2 0-2.4-.2-3.5-.5s-2-.8-2.7-1.5l2.2-2.8zM75.7 36.1h4.2v19.6h-4.2V36.1zM95.4 54.2c-.2.1-.4.3-.7.5-.3.2-.7.4-1.2.7-.5.2-1.1.4-1.8.6-.7.2-1.5.2-2.3.2-1.2 0-2.2-.2-3.2-.5-.9-.4-1.7-.9-2.4-1.5s-1.2-1.4-1.5-2.3c-.3-.9-.5-1.9-.5-3 0-1 .2-1.9.5-2.8.3-.9.8-1.7 1.4-2.3.6-.7 1.3-1.2 2.2-1.6.9-.4 1.9-.6 3-.6s2.1.2 2.9.6c.8.4 1.5.9 2.1 1.6.6.7 1 1.5 1.3 2.5.3 1 .4 2 .4 3.2v.7h-9.8c0 .7.3 1.4 1 1.9.6.6 1.5.8 2.6.8s2-.2 2.7-.5c.7-.3 1.2-.6 1.5-.8l1.8 2.6zm-3.7-6.8c0-.3-.1-.6-.2-.9-.1-.3-.3-.6-.5-.8-.2-.3-.5-.5-.9-.6-.4-.2-.8-.2-1.3-.2s-.9.1-1.3.2c-.4.2-.7.4-.9.6-.2.3-.4.5-.6.8-.1.3-.2.6-.2.9h5.9zM97.5 41.9h4.2v13.8h-4.2V41.9zM106.4 57.5c.5.3 1.1.6 1.7.8.6.2 1.3.3 2 .3 1 0 1.7-.3 2.3-.8.5-.5.8-1.3.8-2.3v-1c-.9.8-2.1 1.1-3.5 1.1-1 0-1.9-.2-2.6-.5-.8-.3-1.4-.8-2-1.4-.5-.6-.9-1.3-1.2-2.1-.3-.8-.4-1.7-.4-2.6 0-1.1.2-2.1.6-3 .4-.9.9-1.7 1.6-2.3.7-.7 1.5-1.2 2.5-1.5 1-.4 2-.5 3.2-.5 1.1 0 2.2.1 3.2.3 1 .2 2 .4 2.8.7v12.6c0 2.3-.6 3.9-1.9 5-1.3 1.1-3 1.6-5.1 1.6-1.2 0-2.3-.1-3.2-.4-.9-.2-1.8-.6-2.5-1.1l1.7-2.9zm6.9-12.1c-.3-.1-.5-.2-.8-.2-.3 0-.6-.1-1.1-.1-.6 0-1.1.1-1.6.3-.4.2-.8.5-1.1.8-.3.3-.5.7-.7 1.2-.1.5-.2.9-.2 1.5 0 1 .2 1.8.7 2.4.5.6 1.2.9 2.1.9.9 0 1.5-.2 2-.6.5-.4.7-1.1.7-2v-4.2zM119.6 36.1h4.2v7.1c.5-.5 1-.9 1.8-1.2.7-.3 1.5-.4 2.3-.4 1.6 0 2.9.5 3.8 1.4.9.9 1.4 2.3 1.4 4.2v8.5h-4.2v-7.9c0-.8-.2-1.4-.6-1.9-.4-.5-1-.7-1.6-.7-.4 0-.9.1-1.2.2-.4.2-.6.4-.9.7-.2.3-.4.6-.5 1-.1.4-.2.7-.2 1.2v7.4h-4.2V36.1h-.1z" fill="#201F1F"/><path fill="#000" d="M97.5 36.1h4.2v4.2h-4.2z"/></g></svg>