<?xml version="1.0" encoding="utf-8"?>
<!-- Generator: Adobe Illustrator 15.1.0, SVG Export Plug-In  -->
<!DOCTYPE svg PUBLIC "-//W3C//DTD SVG 1.1//EN" "http://www.w3.org/Graphics/SVG/1.1/DTD/svg11.dtd" [
	<!ENTITY ns_flows "http://ns.adobe.com/Flows/1.0/">
]>
<svg version="1.1"
	 xmlns="http://www.w3.org/2000/svg" xmlns:xlink="http://www.w3.org/1999/xlink" xmlns:a="http://ns.adobe.com/AdobeSVGViewerExtensions/3.0/"
	 x="0px" y="0px" width="1000px" height="200px" viewBox="-1 -17.267 1000 200"
	 overflow="visible" enable-background="new -1 -17.267 1000 200" xml:space="preserve">
<defs>
</defs>
<polyline fill="#CDCCCC" stroke="#4E4E4E" stroke-width="0.4" stroke-miterlimit="10" points="480.962,134.929 457.868,133.302 
	459.388,125.12 456.765,120.175 466.258,121.421 476.193,117.63 483.554,118.464 "/>
<ellipse transform="matrix(0.183 0.9831 -0.9831 0.183 497.9817 -345.9249)" fill="#CDCCCC" stroke="#4E4E4E" stroke-width="0.4" stroke-miterlimit="10" cx="457.12" cy="126.653" rx="6.681" ry="4.82"/>
<polygon fill="#CDCCCC" points="457.458,120.442 459.58,120.778 465.134,121.671 462.048,132.876 458.761,133.058 455.412,132.304 
	"/>
<path fill="#4E4E4E" d="M470.023,125.185c-4.122-0.198-8.16-1.201-12.3-0.774c-0.286,0.029-0.479,0.37-0.076,0.328
	c4.084-0.42,8.085,0.587,12.151,0.782C470.024,125.531,470.416,125.204,470.023,125.185L470.023,125.185z"/>
<path fill="#4E4E4E" d="M462.897,128.649c-2.429-1.318-4.939-1.82-7.677-1.396c-0.315,0.049-0.444,0.482-0.052,0.422
	c2.597-0.401,4.981,0.06,7.281,1.31C462.671,129.104,463.18,128.804,462.897,128.649L462.897,128.649z"/>
<path fill="#4E4E4E" d="M457.345,125.397c-1.067-0.115-2.134-0.217-3.208-0.23c-0.338-0.006-0.438,0.437-0.047,0.44
	c1.025,0.015,2.041,0.117,3.06,0.228C457.443,125.866,457.736,125.439,457.345,125.397L457.345,125.397z"/>
<path fill="#4E4E4E" d="M460.471,121.568c-1.489-0.246-2.963-0.067-4.365,0.479c-0.384,0.15-0.022,0.248,0.207,0.158
	c1.229-0.48,2.487-0.598,3.787-0.383C460.238,121.847,460.773,121.618,460.471,121.568L460.471,121.568z"/>
<path fill="#4E4E4E" d="M477.188,133.613c-6.199-2.226-12.858-1.587-19.324-1.657c-0.186-0.002-0.627,0.275-0.238,0.279
	c6.391,0.07,12.966-0.568,19.095,1.63C476.87,133.919,477.396,133.688,477.188,133.613L477.188,133.613z"/>
<path fill="#4E4E4E" d="M461.008,129.309c-2.804,0.489-5.545,0.342-8.177-0.785c-0.098-0.042-0.453,0.108-0.312,0.168
	c2.705,1.158,5.553,1.297,8.428,0.795C461.114,129.458,461.277,129.261,461.008,129.309L461.008,129.309z"/>
<path fill="#676767" d="M457.85,123.063c-1.099-0.155-2.165,0.082-3.098,0.686c-0.438,0.283,0.243,0.344,0.471,0.195
	c0.668-0.432,1.354-0.6,2.146-0.488C457.592,123.487,458.277,123.124,457.85,123.063L457.85,123.063z"/>
<path fill="#4E4E4E" d="M454.196,130.911c0.766-0.06,1.522-0.167,2.272-0.334c0.238-0.053,0.176-0.273-0.06-0.221
	c-0.715,0.159-1.438,0.258-2.168,0.314C454.041,130.687,453.93,130.932,454.196,130.911L454.196,130.911z"/>
<polyline fill="#CDCCCC" stroke="#4E4E4E" stroke-width="0.3" stroke-miterlimit="10" points="492.816,142.343 457.345,155.277 
	461.659,146.329 458.66,138.798 455.246,137.048 463.184,135.654 475.725,133.376 483.03,132.089 "/>
<polyline fill="#CDCCCC" stroke="#4E4E4E" stroke-width="0.4" stroke-miterlimit="10" points="516.76,130.688 542.76,129.831 
	539.264,138.12 540.248,142.864 532.83,142.536 523.361,147.376 515.954,147.337 "/>
<polyline fill="#CDCCCC" stroke="#4E4E4E" stroke-width="0.5" stroke-miterlimit="10" points="512.386,132.906 540.742,145.733 
	537.166,154.091 533.832,157.761 535.217,163.097 524.771,157.173 514.738,150.773 506.084,145.282 "/>
<ellipse transform="matrix(0.2994 -0.9541 0.9541 0.2994 249.191 611.9852)" fill="#CDCCCC" stroke="#4E4E4E" stroke-width="0.4" stroke-miterlimit="10" cx="541.335" cy="136.303" rx="6.702" ry="4.821"/>
<ellipse transform="matrix(-0.0527 -0.9986 0.9986 -0.0527 334.611 609.5916)" fill="#CDCCCC" stroke="#4E4E4E" stroke-width="0.5" stroke-miterlimit="10" cx="456.437" cy="146.089" rx="9.3" ry="6.422"/>
<path opacity="0.5" fill="none" stroke="#676767" stroke-width="0.5" stroke-miterlimit="10" enable-background="new    " d="
	M460.249,143.994c-0.946-3.026-3.41-4.948-5.502-4.295c-2.095,0.655-3.023,3.64-2.078,6.666c0.948,3.027,3.413,4.95,5.504,4.298
	C460.266,150.005,461.195,147.022,460.249,143.994z"/>
<path fill="#4E4E4E" d="M475.926,130.938c-4.779-0.738-9.122-2.007-13.99-1.332c-0.183,0.024-0.322,0.244-0.055,0.207
	c4.812-0.667,9.104,0.604,13.808,1.33C475.806,131.16,476.144,130.972,475.926,130.938L475.926,130.938z"/>
<path fill="#4E4E4E" d="M468.08,130.921c-2.215-0.535-4.437-0.688-6.706-0.506c-0.17,0.014-0.627,0.297-0.242,0.267
	c2.196-0.175,4.335-0.034,6.479,0.483C467.757,131.201,468.271,130.968,468.08,130.921L468.08,130.921z"/>
<path fill="#4E4E4E" d="M473.445,124.354c-4.97-0.147-9.882-0.756-14.794-1.495c-0.303-0.046-0.583,0.391-0.193,0.447
	c4.962,0.746,9.924,1.353,14.944,1.503C473.745,124.818,473.835,124.365,473.445,124.354L473.445,124.354z"/>
<path fill="#676767" d="M469.844,128.341c-1.186,0.01-2.288-0.31-3.261-0.991c-0.18-0.126-0.844,0.184-0.728,0.266
	c1.034,0.726,2.229,1.058,3.488,1.048C469.509,128.661,470.225,128.339,469.844,128.341L469.844,128.341z"/>
<ellipse transform="matrix(-0.4457 -0.8952 0.8952 -0.4457 529.1487 619.2668)" opacity="0.6" fill="none" stroke="#818181" stroke-width="0.5" stroke-miterlimit="10" enable-background="new    " cx="456.29" cy="145.817" rx="2.396" ry="1.657"/>
<ellipse transform="matrix(0.2994 -0.9541 0.9541 0.2994 229.7149 621.6644)" fill="#CDCCCC" stroke="#4E4E4E" stroke-width="0.5" stroke-miterlimit="10" cx="538.171" cy="154.411" rx="9.097" ry="6.28"/>
<path fill="#CDCCCC" stroke="#4E4E4E" stroke-miterlimit="10" d="M503.979,147.035c3.574-2.222,22.74-23.229,25.341-28.155
	c2.6-4.928,2.709-13.914,2.815-18.842c0.107-4.929-0.867-8.447-0.867-8.447l-10.395,10.613c0,0,3.734-6.445,4.223-12.779
	c0.486-6.335-0.106-11.262-0.106-11.262l-9.963,11.264c0,0,4.113-13.156,4.331-17.868c0.217-4.712-3.683-16.782-3.683-16.782
	l-5.198,9.315c0,0,1.139-11.215,1.139-14.301c0-3.087-1.95-11.208-1.95-11.208l-6.984,11.43c0,0-0.975-22.15-7.959-30.597
	c-6.984-8.447-16.568-18.518-16.568-18.518s-3.086,7.31-1.787,13.319c1.3,6.01,7.635,14.944,9.422,20.792
	c1.786,5.847,1.461,20.466,1.461,20.466l-12.831-10.558c0,0-3.249,8.771-2.274,14.619c0.976,5.848,4.062,20.305,4.062,20.305
	L463.697,68.64c0,0,1.949,17.048,2.762,21.921c0.812,4.874,6.119,11.864,6.119,11.864l-16.354-15.926c0,0-1.785,8.123-0.648,12.508
	c1.137,4.387,6.172,10.564,6.172,10.564l3.033,3.682l-7.095-3.688c0,0-0.161,7.797,1.949,9.909
	c2.111,2.11,14.457,10.888,14.457,10.888s20.792,15.273,23.392,16.895C500.08,148.876,500.406,149.255,503.979,147.035z"/>
<path fill="none" stroke="#818181" stroke-width="0.7" stroke-miterlimit="10" d="M514.484,130.034c0,0,8.797-8.339,10.504-16.461
	c1.709-8.121,1.84-10.504,1.84-10.504l-11.909,12.128"/>
<path fill="none" stroke="#818181" stroke-width="0.7" stroke-miterlimit="10" d="M516.975,98.745c0,0,1.73-2.109,2.354-3.147
	c0.625-1.038,0.73-5.036,0.73-5.036l-4.602,3.636"/>
<path fill="none" stroke="#818181" stroke-width="0.7" stroke-miterlimit="10" d="M513.727,125.919
	c0.339-0.562,3.936-4.58,6.28-8.229c1.993-3.101,2.815-5.955,2.815-5.955l-8.445,7.472"/>
<path fill="none" stroke="#818181" stroke-width="0.7" stroke-miterlimit="10" d="M515.892,103.511c0,0,4.818-4.666,5.632-8.32
	c0.812-3.655,0.974-9.584,0.974-9.584l-9.203,8.809"/>
<path fill="none" stroke="#818181" stroke-width="0.7" stroke-miterlimit="10" d="M513.889,84.55c0,0,4.006-8.582,3.248-13.399
	s-2.029-10.802-2.029-10.802L510.151,73.1l-2.925,5.441"/>
<polyline fill="none" stroke="#818181" stroke-width="0.7" stroke-miterlimit="10" points="515.594,73.342 514.538,67.252 
	511.031,77.507 "/>
<path fill="none" stroke="#818181" stroke-width="0.6" stroke-miterlimit="10" d="M505.928,68.214l1.734-20.792
	c0,0-2.754,2.969-4.641,6.891c-1.886,3.923-2.13,5.953-2.13,5.953"/>
<path fill="none" stroke="#818181" stroke-width="0.6" stroke-miterlimit="10" d="M504.414,66.699l1.299-12.741
	c0,0-2.709,2.573-3.033,5.74c-0.323,3.168,0.082,3.817,0.082,3.817"/>
<path fill="none" stroke="#818181" stroke-width="0.6" stroke-miterlimit="10" d="M497.699,49.807c0,0,1.301-17.76-4.332-24.907
	c-5.631-7.147-10.613-11.263-10.613-11.263l6.443,21.696L491.2,53.92"/>
<path fill="none" stroke="#818181" stroke-width="0.6" stroke-miterlimit="10" d="M494.016,28.996
	c-2.92-3.707-6.93-7.688-6.93-7.688l4.209,15.177"/>
<path fill="none" stroke="#818181" stroke-width="0.6" stroke-miterlimit="10" d="M496.295,50.006
	c-0.348-0.671,0.209-12.256-0.65-14.836c-0.975-2.924-3.697-5.079-3.697-5.079l2.18,18.832"/>
<path fill="none" stroke="#818181" stroke-width="0.7" stroke-miterlimit="10" d="M481.67,120.179
	c-1.462-8.771,2.491-28.807,2.491-28.807s12.182,14.944,14.295,19.817c2.111,4.873,0.486,15.756,0.486,15.756"/>
<path fill="none" stroke="#818181" stroke-width="0.7" stroke-miterlimit="10" d="M487.085,122.398
	c-1.462-8.771-0.162-21.279-0.162-21.279s3.952,5.74,5.469,8.988c1.517,3.249,2.814,10.829,2.814,10.829"/>
<path fill="none" stroke="#818181" stroke-width="0.7" stroke-miterlimit="10" d="M489.792,121.261
	c-1.462-8.771-0.865-9.963-0.865-9.963l3.683,9.963"/>
<path fill="none" stroke="#818181" stroke-width="0.7" stroke-miterlimit="10" d="M485.354,125.378l-6.064-6.065
	c0,0-0.325,2.384,0.108,4.44c0.435,2.057,2.814,4.765,2.814,4.765"/>
<path fill="none" stroke="#818181" stroke-width="0.7" stroke-miterlimit="10" d="M500.949,128.626c0,0,0.432-3.681,1.84-5.09
	c1.408-1.408,6.822-5.197,6.822-5.197s0.647,9.529-0.759,12.67c-1.407,3.142-3.573,5.522-3.573,5.522"/>
<path fill="none" stroke="#818181" stroke-width="0.7" stroke-miterlimit="10" d="M501.598,131.009l5.523-6.281
	c0,0,0.217,1.625-0.324,3.574c-0.543,1.949-2.059,4.873-2.059,4.873"/>
<path fill="none" stroke="#818181" stroke-width="0.7" stroke-miterlimit="10" d="M473.551,126.243c0,0-4.115-2.164-5.847-3.682
	c-1.732-1.516-2.49-3.898-2.49-3.898l6.063,1.516c0,0-3.466-2.924-6.063-7.473c-2.6-4.548-5.198-14.293-5.198-14.293l15.053,12.021"
	/>
<path fill="none" stroke="#818181" stroke-width="0.7" stroke-miterlimit="10" d="M471.712,116.822c0,0-3.249-3.683-4.549-5.415
	s-0.759-4.873-0.759-4.873l7.905,7.039"/>
<path fill="none" stroke="#818181" stroke-width="0.7" stroke-miterlimit="10" d="M475.176,99.279c0,0-1.949-0.974-4.007-6.063
	c-2.057-5.09-2.706-14.943-2.706-14.943l11.045,9.854"/>
<path fill="none" stroke="#818181" stroke-width="0.7" stroke-miterlimit="10" d="M475.61,95.38l-3.033-8.986
	c0,0,3.897,2.599,4.874,4.331c0.975,1.731,0.648,3.466,0.648,3.466"/>
<path fill="none" stroke="#818181" stroke-width="0.7" stroke-miterlimit="10" d="M491.42,86.825c0,0-0.217-4.116,0.434-8.446
	c0.65-4.332,4.332-10.829,4.332-10.829c5.847,16.458,6.716,17.326,7.257,20.574c0.539,3.25-2.06,11.588-2.06,11.588"/>
<path fill="none" stroke="#818181" stroke-width="0.7" stroke-miterlimit="10" d="M500.193,94.839c0,0,0.106-5.741-0.22-9.855
	c-0.323-4.114-4.223-8.555-4.223-8.555l-1.299,13.645"/>
<path fill="none" stroke="#818181" stroke-width="0.7" stroke-miterlimit="10" d="M479.941,75.887c0,0-2.814-6.065-3.356-9.964
	s0.325-11.695,0.325-11.695s9.42,8.771,10.504,11.695c1.083,2.924,2.273,12.021,2.273,12.021"/>
<path fill="none" stroke="#818181" stroke-width="0.7" stroke-miterlimit="10" d="M481.783,74.154l-3.031-11.912
	c0,0,3.573,1.3,4.33,3.465c0.759,2.165,2.491,7.473,2.491,7.473"/>
<path fill="#676767" d="M468.12,145.968c4.314-1.448,8.515-3.541,12.634-5.627"/>
<path fill="#4E4E4E" d="M468.257,146.07c4.402-1.522,8.572-3.565,12.722-5.665c0.46-0.232-0.257-0.229-0.451-0.129
	c-4.094,2.07-8.204,4.087-12.545,5.589C467.462,146.046,467.952,146.175,468.257,146.07L468.257,146.07z"/>
<path fill="#676767" d="M467.295,141.13c4.764-0.657,9.51-1.639,14.261-2.539"/>
<path fill="#4E4E4E" d="M467.238,141.327c4.783-0.686,9.517-1.635,14.261-2.539c0.348-0.066,0.649-0.494,0.115-0.394
	c-4.744,0.905-9.479,1.854-14.262,2.54C466.997,140.986,466.7,141.403,467.238,141.327L467.238,141.327z"/>
<path fill="#676767" d="M462.517,136.909c7.54-0.479,10.861-0.734,18.383-1.535"/>
<path fill="#4E4E4E" d="M462.352,137.072c6.142-0.394,12.264-0.889,18.383-1.536c0.207-0.021,0.839-0.38,0.331-0.326
	c-6.12,0.647-12.241,1.145-18.383,1.537C462.471,136.759,461.84,137.104,462.352,137.072L462.352,137.072z"/>
<path fill="#676767" d="M463.483,152.147c7.714-3.333,15.419-6.829,23.312-9.848"/>
<path fill="#4E4E4E" d="M463.636,152.308c7.741-3.355,15.442-6.801,23.312-9.848c0.504-0.195,0.043-0.455-0.307-0.32
	c-7.869,3.048-15.57,6.492-23.312,9.848C462.835,152.202,463.289,152.458,463.636,152.308L463.636,152.308z"/>
<path fill="#676767" d="M466.376,148.417c0.646-0.115,1.367-0.315,2.007-0.512"/>
<path fill="#4E4E4E" d="M466.301,148.546c0.714-0.136,1.415-0.324,2.11-0.535c0.057-0.018,0.387-0.101,0.357-0.209
	c-0.027-0.106-0.357-0.021-0.415-0.002c-0.627,0.188-1.258,0.365-1.902,0.486C466.156,148.343,465.757,148.649,466.301,148.546
	L466.301,148.546z"/>
<path fill="#676767" d="M480.224,142.646c2.067-0.922,4.048-1.921,5.938-3.079"/>
<path fill="#4E4E4E" d="M480.449,142.708c2.062-0.93,4.075-1.949,6.011-3.121c0.333-0.201-0.448-0.127-0.596-0.037
	c-1.89,1.143-3.854,2.133-5.866,3.037C479.532,142.796,480.257,142.794,480.449,142.708L480.449,142.708z"/>
<path fill="#676767" d="M483.918,139.13c0.812-0.082,0.895,0.244,1.624,0"/>
<path fill="#4E4E4E" d="M483.877,139.384c0.61-0.043,1.116,0.164,1.729-0.02c0.466-0.14,0.344-0.611-0.126-0.473
	c-0.489,0.146-1.012-0.055-1.521-0.02C483.546,138.903,483.346,139.421,483.877,139.384L483.877,139.384z"/>
<path fill="#676767" d="M462.799,139.171c4.137-0.217,8.291-0.109,12.41-0.651"/>
<path fill="#4E4E4E" d="M462.639,139.351c4.174-0.195,8.353-0.164,12.506-0.662c0.339-0.04,0.671-0.405,0.13-0.34
	c-4.091,0.49-8.205,0.449-12.314,0.643C462.727,139.003,462.123,139.376,462.639,139.351L462.639,139.351z"/>
<path fill="#676767" d="M465.753,144.302c2.079-0.678,4.153-1.438,6.151-2.111"/>
<path fill="#4E4E4E" d="M465.797,144.466c2.093-0.688,4.166-1.438,6.252-2.146c0.518-0.175,0.037-0.372-0.29-0.262
	c-2.02,0.685-4.023,1.411-6.05,2.079C465.264,144.285,465.343,144.616,465.797,144.466L465.797,144.466z"/>
<path fill="#676767" d="M464.392,143.154c1.204-0.307,2.407-0.614,3.615-0.842"/>
<path fill="#4E4E4E" d="M464.42,143.259c1.166-0.297,2.331-0.59,3.512-0.818c0.294-0.057,0.695-0.361,0.151-0.256
	c-1.25,0.24-2.485,0.551-3.719,0.865C463.914,143.165,463.972,143.374,464.42,143.259L464.42,143.259z"/>
<path fill="#676767" d="M470.113,146.757c3.415-0.019,6.395-2.125,9.77-2.873"/>
<path fill="#4E4E4E" d="M469.949,146.925c3.553-0.149,6.578-2.067,9.969-2.906c0.457-0.112,0.381-0.383-0.072-0.27
	c-3.236,0.799-6.184,2.694-9.569,2.838C470.056,146.598,469.435,146.947,469.949,146.925L469.949,146.925z"/>
<path fill="#676767" d="M472.136,137.298c3.495-0.021,6.988-0.125,10.369-0.791"/>
<path fill="#4E4E4E" d="M471.989,137.529c3.512-0.028,7.005-0.157,10.467-0.795c0.375-0.067,0.628-0.553,0.099-0.455
	c-3.398,0.625-6.821,0.759-10.271,0.787C471.979,137.068,471.467,137.534,471.989,137.529L471.989,137.529z"/>
<path fill="#676767" d="M486.842,144.489c1.381-0.324,2.682-0.895,3.898-1.625"/>
<path fill="#4E4E4E" d="M486.888,144.659c1.448-0.357,2.805-0.943,4.087-1.701c0.448-0.264-0.242-0.32-0.469-0.188
	c-1.168,0.688-2.39,1.223-3.709,1.549C486.334,144.435,486.428,144.772,486.888,144.659L486.888,144.659z"/>
<path fill="#676767" d="M483.188,143.027c1.625-0.894,3.168-1.462,4.872-1.868"/>
<path fill="#4E4E4E" d="M483.415,143.098c1.491-0.804,3.04-1.392,4.683-1.798c0.458-0.111,0.378-0.396-0.075-0.282
	c-1.773,0.437-3.454,1.073-5.063,1.938C482.505,143.202,483.213,143.206,483.415,143.098L483.415,143.098z"/>
<path fill="#676767" d="M463.573,147.671c0.969-0.133,2.011-0.432,2.971-0.727"/>
<path fill="#4E4E4E" d="M463.539,147.956c1.048-0.156,2.063-0.436,3.076-0.744c0.47-0.144,0.332-0.68-0.145-0.535
	c-0.94,0.289-1.89,0.563-2.864,0.709C463.181,147.449,463.015,148.034,463.539,147.956L463.539,147.956z"/>
<path fill="#676767" d="M473.131,142.494c2.069-0.753,4.159-1.446,6.229-2.2c0.502-0.183,0.051-0.531-0.326-0.395
	c-2.069,0.753-4.159,1.447-6.229,2.2C472.303,142.282,472.754,142.632,473.131,142.494L473.131,142.494z"/>
<path opacity="0.5" fill="none" stroke="#818181" stroke-width="0.5" stroke-miterlimit="10" enable-background="new    " d="
	M539.137,156.677c1.002-0.864,1.33-2.125,0.736-2.818c-0.6-0.693-1.896-0.557-2.898,0.309c-1.004,0.862-1.332,2.125-0.735,2.818
	C536.836,157.681,538.135,157.54,539.137,156.677z"/>
<ellipse transform="matrix(0.5765 -0.8171 0.8171 0.5765 101.5029 505.3846)" opacity="0.5" fill="none" stroke="#676767" stroke-width="0.5" stroke-miterlimit="10" enable-background="new    " cx="538.281" cy="154.775" rx="5.743" ry="3.97"/>
<path fill="#676767" d="M515.24,140.104c6.173,1.082,12.129,2.924,18.084,4.44"/>
<path fill="#4E4E4E" d="M514.996,140.284c6.092,1.122,12.022,2.879,18.015,4.426c0.202,0.053,0.894-0.264,0.627-0.332
	c-6.037-1.559-12.016-3.324-18.152-4.455C515.286,139.886,514.583,140.208,514.996,140.284L514.996,140.284z"/>
<path fill="#4E4E4E" d="M527.576,156.085c-2.194-0.455-4.032-1.512-5.476-3.229c-0.127-0.15-0.854,0.113-0.727,0.268
	c1.464,1.742,3.35,2.81,5.568,3.271C527.13,156.432,527.805,156.132,527.576,156.085L527.576,156.085z"/>
<path fill="#4E4E4E" d="M518.939,149.82c3.501,1.49,7.301,1.788,10.899,2.947c0.245,0.079,0.907-0.282,0.474-0.423
	c-3.553-1.144-7.305-1.43-10.759-2.899C519.322,149.347,518.616,149.683,518.939,149.82L518.939,149.82z"/>
<path fill="#4E4E4E" d="M526.489,154.31c1.017,0.312,1.989,0.729,2.96,1.16c0.268,0.119,0.962-0.252,0.604-0.411
	c-1.019-0.453-2.04-0.894-3.105-1.222C526.658,153.749,526.035,154.171,526.489,154.31L526.489,154.31z"/>
<path fill="#4E4E4E" d="M514.119,144.348c1.448,0.751,3.005,1.186,4.594,1.532c0.176,0.037,0.844-0.246,0.637-0.291
	c-1.556-0.34-3.08-0.765-4.502-1.5C514.651,143.987,514.04,144.308,514.119,144.348L514.119,144.348z"/>
<path fill="#4E4E4E" d="M519.045,144.823c3.258,1.363,6.471,2.842,10.029,3.158c0.209,0.02,0.901-0.342,0.483-0.379
	c-3.513-0.312-6.679-1.78-9.891-3.123C519.464,144.394,518.755,144.702,519.045,144.823L519.045,144.823z"/>
<path fill="#4E4E4E" d="M508.064,144.497c2.913,2.883,6.882,4.323,9.745,7.256c0.248,0.254,0.979-0.062,0.707-0.342
	c-2.867-2.938-6.833-4.375-9.746-7.256C508.52,143.906,507.789,144.226,508.064,144.497L508.064,144.497z"/>
<path fill="#4E4E4E" d="M516.128,137.484c2.591,1.376,5.308,2.448,8.085,3.386c0.269,0.09,0.908-0.3,0.465-0.449
	c-2.729-0.92-5.395-1.979-7.939-3.33C516.494,136.96,515.789,137.304,516.128,137.484L516.128,137.484z"/>
<path fill="#4E4E4E" d="M529.448,145.826c1.022,0.659,2.16,1.083,3.319,1.437c0.275,0.085,0.912-0.319,0.464-0.456
	c-1.112-0.339-2.193-0.747-3.177-1.38C529.817,145.272,529.113,145.61,529.448,145.826L529.448,145.826z"/>
<path fill="#4E4E4E" d="M526.515,141.241c1.55,0.451,3.062,0.995,4.548,1.624c0.188,0.08,0.896-0.213,0.627-0.325
	c-1.485-0.63-2.998-1.175-4.548-1.625C526.945,140.857,526.252,141.165,526.515,141.241L526.515,141.241z"/>
<path fill="#4E4E4E" d="M514.027,142.038c2.844,0.334,5.64,0.861,8.377,1.713c0.226,0.07,0.924-0.268,0.617-0.363
	c-2.784-0.864-5.623-1.416-8.519-1.754C514.273,141.606,513.597,141.988,514.027,142.038L514.027,142.038z"/>
<path fill="#4E4E4E" d="M523.765,144.386c0.27,0.244,0.548,0.396,0.89,0.518c0.314,0.111,0.908-0.342,0.451-0.504
	c-0.237-0.084-0.443-0.177-0.632-0.348C524.226,143.825,523.497,144.142,523.765,144.386L523.765,144.386z"/>
<path fill="#676767" d="M519.469,148.042c3.859,0.405,7.465,1.883,11.263,2.599c0.172,0.032,0.827-0.245,0.641-0.281
	c-3.798-0.715-7.402-2.19-11.262-2.599C519.936,147.742,519.292,148.022,519.469,148.042L519.469,148.042z"/>
<path fill="#676767" d="M510.848,142.806c0.728,2.783,2.784,4.552,5.559,5.154c0.376,0.082,0.781-0.442,0.27-0.555
	c-2.558-0.558-4.393-2.271-5.054-4.808C511.528,142.245,510.756,142.451,510.848,142.806L510.848,142.806z"/>
<path fill="#676767" d="M527.638,144.962c2.081-0.174,4.021,0.182,5.812,1.278c0.203,0.125,0.92-0.176,0.617-0.36
	c-1.945-1.193-4.068-1.512-6.317-1.321C527.379,144.587,527.101,145.007,527.638,144.962L527.638,144.962z"/>
<polygon fill="#CDCCCC" points="540.582,142.648 538.74,142.54 533.922,142.242 535.52,130.413 540.77,130.013 541.49,130.003 "/>
<path fill="#4E4E4E" d="M520.721,133.062c6.395,0.251,12.866,0.83,19.151-0.678c0.468-0.111,0.363-0.482-0.1-0.371
	c-6.143,1.473-12.505,0.867-18.747,0.623C520.741,132.626,520.198,133.042,520.721,133.062L520.721,133.062z"/>
<path fill="#4E4E4E" d="M524.093,136.083c3.191-0.183,6.374-0.007,9.564,0.106c0.268,0.01,0.598-0.39,0.205-0.401
	c-3.239-0.117-6.473-0.295-9.713-0.109C523.83,135.696,523.696,136.104,524.093,136.083L524.093,136.083z"/>
<path fill="#4E4E4E" d="M532.165,140.884c2.267,0.295,4.499,0.203,6.743-0.223c0.244-0.047,0.502-0.328,0.098-0.252
	c-2.157,0.409-4.294,0.494-6.472,0.211C532.391,140.603,531.859,140.845,532.165,140.884L532.165,140.884z"/>
<path fill="#4E4E4E" d="M528.739,139.186c4.123-0.247,8.241,0.313,12.313-0.558c0.355-0.076,0.271-0.373-0.08-0.299
	c-4.009,0.856-8.1,0.283-12.157,0.527C528.526,138.874,528.338,139.21,528.739,139.186L528.739,139.186z"/>
<path fill="#4E4E4E" d="M531.523,134.52c0.975,0.11,1.948,0.218,2.924,0.325c0.181,0.021,0.682-0.277,0.354-0.312
	c-0.975-0.107-1.948-0.216-2.924-0.324C531.698,134.187,531.197,134.483,531.523,134.52L531.523,134.52z"/>
<path fill="#4E4E4E" d="M535.433,134.992c2.562,1.05,5.119,1.259,7.801,0.544c0.357-0.096,0.252-0.49-0.105-0.396
	c-2.543,0.678-4.935,0.457-7.36-0.536C535.523,134.503,535.091,134.853,535.433,134.992L535.433,134.992z"/>
<path fill="#4E4E4E" d="M541.225,137.552c1.074,0,2.146-0.014,3.215-0.114c0.274-0.024,0.486-0.339,0.084-0.302
	c-1.021,0.098-2.044,0.104-3.067,0.104C541.25,137.241,540.834,137.552,541.225,137.552L541.225,137.552z"/>
<path fill="#4E4E4E" d="M538.629,141.792c1.519,0.084,2.955-0.244,4.299-0.945c0.347-0.182-0.167-0.288-0.362-0.187
	c-1.162,0.606-2.406,0.862-3.714,0.789C538.622,141.437,538.236,141.77,538.629,141.792L538.629,141.792z"/>
<path fill="#4E4E4E" d="M523.767,137.917c4.956-0.385,9.906-0.314,14.869-0.108c0.262,0.011,0.603-0.374,0.209-0.392
	c-5.015-0.207-10.01-0.277-15.018,0.109C523.515,137.55,523.369,137.947,523.767,137.917L523.767,137.917z"/>
<path fill="#4E4E4E" d="M516.848,134.487c3.469,0.917,6.884,0.094,10.401,0.123c0.182,0.002,0.629-0.271,0.24-0.273
	c-3.432-0.028-6.784,0.799-10.173-0.098C517.166,134.199,516.646,134.435,516.848,134.487L516.848,134.487z"/>
<path fill="#4E4E4E" d="M520.639,131.566c6.437,1.538,12.992,0.206,19.461-0.426c0.261-0.025,0.499-0.306,0.095-0.267
	c-6.339,0.619-12.774,1.948-19.086,0.439C520.954,131.278,520.438,131.519,520.639,131.566L520.639,131.566z"/>
<path fill="#4E4E4E" d="M537.273,134.227c2.705-0.777,5.402-0.935,8.119-0.108c0.235,0.072,0.686-0.27,0.339-0.375
	c-2.85-0.865-5.718-0.709-8.561,0.108C536.819,133.954,536.918,134.329,537.273,134.227L537.273,134.227z"/>
<path fill="#676767" d="M541.229,132.033c1.151-0.134,2.247,0.064,3.267,0.623c0.198,0.108,0.83-0.209,0.727-0.266
	c-1.134-0.622-2.38-0.823-3.659-0.677C541.359,131.738,540.722,132.091,541.229,132.033L541.229,132.033z"/>
<path fill="#676767" d="M540.984,139.954c1.135,0.037,2.207-0.293,3.092-1.014c0.318-0.262-0.452-0.18-0.603-0.057
	c-0.589,0.479-1.229,0.744-1.998,0.72c-0.188-0.007-0.392,0.036-0.547,0.146C540.812,139.833,540.827,139.948,540.984,139.954
	L540.984,139.954z"/>
<path fill="#4E4E4E" d="M461.456,126.2c1.57,0.551,3.146,0.997,4.798,0.584c0.227-0.057,0.196-0.162-0.028-0.107
	c-1.507,0.377-2.994-0.108-4.404-0.604C461.714,126.034,461.433,126.191,461.456,126.2L461.456,126.2z"/>
<path fill="#4E4E4E" d="M465.032,131.63c1.209,0.056,2.418,0.104,3.629,0.108c0.083,0.001,0.44-0.16,0.25-0.16
	c-1.211-0.005-2.42-0.055-3.629-0.108C465.198,131.464,464.838,131.62,465.032,131.63L465.032,131.63z"/>
<path fill="#4E4E4E" d="M468.305,133.315c0.805,0.257,1.616,0.384,2.459,0.393c0.134,0.002,0.416-0.197,0.155-0.201
	c-0.793-0.008-1.549-0.125-2.304-0.366C468.507,133.104,468.157,133.269,468.305,133.315L468.305,133.315z"/>
<path fill="#4E4E4E" d="M458.425,130.314c0.56,0.055,1.117,0.103,1.679,0.106c0.156,0.002,0.407-0.232,0.146-0.235
	c-0.562-0.007-1.12-0.054-1.679-0.106C458.411,130.062,458.164,130.29,458.425,130.314L458.425,130.314z"/>
<polygon opacity="0.1" fill="#010101" enable-background="new    " points="502.029,147.468 524.809,120.979 530.137,103.949 
	530.418,96.007 518.7,104.329 526.016,82.674 514.638,91.661 519.956,59.689 513.556,67.56 515.26,43.859 507.738,53.405 
	506.619,23.565 496.818,12.721 492.688,3.521 488.216,16.174 494.111,37.295 492.834,56.558 482.352,44.384 477.736,58.042 
	479.655,79.401 466.65,65.021 470.879,97.567 459.325,80.736 456.082,89.474 459.198,102.619 461.703,106.462 457.027,102.505 
	456.871,111.081 468.61,123.64 489.477,142.648 "/>
<path fill="#4E4E4E" d="M452.786,123.027c0.763-0.047,1.522-0.05,2.286,0c0.092,0.006,0.446-0.16,0.246-0.174
	c-0.791-0.052-1.579-0.05-2.37,0C452.835,122.86,452.528,123.044,452.786,123.027L452.786,123.027z"/>
<path fill="#4E4E4E" d="M455.693,124.728c0.41-0.24,0.845-0.376,1.314-0.438c0.185-0.023,0.323-0.242,0.055-0.207
	c-0.571,0.074-1.109,0.243-1.607,0.535C455.229,124.751,455.571,124.798,455.693,124.728L455.693,124.728z"/>
<path fill="#4E4E4E" d="M452.252,126.579c3.284-0.068,6.537,0.315,9.682-0.842c0.252-0.093,0.023-0.244-0.157-0.178
	c-3.039,1.117-6.214,0.717-9.378,0.783C452.243,126.345,451.991,126.585,452.252,126.579L452.252,126.579z"/>
<path fill="#4E4E4E" d="M462.135,127.151c1.226,0.855,2.609,1.312,4.042,1.689c0.127,0.033,0.456-0.155,0.235-0.215
	c-1.41-0.371-2.768-0.824-3.97-1.666C462.335,126.886,461.979,127.042,462.135,127.151L462.135,127.151z"/>
<path fill="#4E4E4E" d="M452.911,122.831c1.592,0.411,3.184,0.317,4.747-0.171c0.228-0.071,0.178-0.27-0.053-0.196
	c-1.479,0.461-2.954,0.545-4.458,0.153C453.022,122.585,452.691,122.772,452.911,122.831L452.911,122.831z"/>
<path fill="#4E4E4E" d="M454.827,120.716c1.046,0.66,2.176,0.813,3.377,0.556c0.24-0.054,0.173-0.287-0.063-0.236
	c-1.076,0.232-2.08,0.062-3.012-0.526C455,120.427,454.652,120.606,454.827,120.716L454.827,120.716z"/>
<path fill="#4E4E4E" d="M454.474,121.878c0.729,0.51,1.504,0.608,2.312,0.217c0.242-0.117,0.018-0.229-0.149-0.147
	c-0.652,0.317-1.235,0.179-1.802-0.218C454.726,121.653,454.375,121.808,454.474,121.878L454.474,121.878z"/>
<path fill="#4E4E4E" d="M452.364,89.554c0.171,0,0.4-0.26,0.14-0.26C452.333,89.294,452.103,89.554,452.364,89.554L452.364,89.554z"
	/>
<polygon fill="#CDCCCC" points="458.445,131.768 461.267,131.567 466.307,131.61 464.632,132.524 461.249,133.352 457.998,133.193 
	"/>
<rect y="133.052" fill="#E8E8E8" width="448" height="1.625"/>
<rect x="552" y="133.052" fill="#E8E8E8" width="448" height="1.625"/>
<rect y="128.29" fill="#E8E8E8" width="448" height="1.625"/>
<rect x="552" y="128.29" fill="#E8E8E8" width="448" height="1.625"/>
</svg>
