<svg height="110" viewBox="0 0 506 110" width="506" xmlns="http://www.w3.org/2000/svg"><path d="m67.4 138c20.4 0 29.85-12 29.85-28.35 0-10.35-6.3-19.65-14.7-22.35v-.75c4.65-2.4 12.9-9.6 12.9-22.5 0-13.05-9-25.5-30.15-25.5h-28.8v99.45zm-2.85-40.35c5.85 0 8.7 3.75 8.7 9.45 0 5.25-2.85 9-8.25 9h-4.65v-18.45zm-4.2-36.9h3.9c5.4 0 7.95 3 7.95 8.55 0 5.4-2.7 8.7-8.7 8.7h-3.15zm48.75 77.25h24v-99.45h-24zm-.15-105.9h24.3v-3.75h-24.3zm63.75 105.9v-37.35h4.2c6 0 8.1 3.3 8.1 9.9v27.45h24v-28.05c0-14.25-7.35-20.4-14.25-22.35v-.6c6.3-3.6 13.2-10.95 13.2-22.2 0-12.9-7.2-26.25-30.3-26.25h-28.95v99.45zm0-78.15h3.9c5.4 0 7.95 3 7.95 9s-2.4 10.2-8.4 10.2h-3.45zm48.45 78.15h22.8c24.15 0 36.75-7.65 36.75-36.45v-26.55c0-28.8-12.6-36.45-36.75-36.45h-22.8zm35.4-33.3c0 6.75-2.55 9.15-8.1 9.15h-3.3v-51.15h3.3c5.55 0 8.1 2.25 8.1 9.15zm73.65 33.3h17.25l12.75-56.7h.9v56.7h22.5v-99.45h-30.3l-14.1 52.65h-.9l-13.95-52.65h-30.3v99.45h22.5v-56.7h.9zm62.1 0h23.85l3.45-18.45h18.75l3.45 18.45h24.6l-22.8-99.45h-27.9zm37.35-69.45 4.95 30.15h-10.95l5.1-30.15zm87.45 69.45h24.3v-99.45h-22.2v46.35h-.9l-17.85-46.35h-25.35v99.45h22.35v-51.3h.9z" fill="#57b78c" fill-rule="evenodd" transform="translate(-36 -28)"/></svg>