<svg width="40" height="40" viewBox="0 0 40 40" fill="none" xmlns="http://www.w3.org/2000/svg">
<g clip-path="url(#clip0_458_8377)">
<rect width="40" height="40" rx="6" fill="white"/>
<path d="M22.489 9.18021C22.2811 8.82012 21.9875 8.52224 21.6367 8.31545C21.2859 8.10867 20.8898 8 20.4869 8C20.084 8 19.688 8.10867 19.3372 8.31545C18.9864 8.52224 18.6928 8.82012 18.4849 9.18021L15.1914 15.066C17.7075 16.3767 19.8512 18.3513 21.4097 20.7938C22.9682 23.2362 23.8873 26.0616 24.0757 28.9893H21.7633C21.5752 26.4797 20.7624 24.0648 19.4052 21.9837C18.048 19.9026 16.1935 18.2273 14.0252 17.1237L10.977 22.623C12.196 23.1934 13.2579 24.0744 14.0652 25.1851C14.8724 26.2957 15.3992 27.6003 15.5969 28.9788H10.2863C10.2233 28.9742 10.1625 28.9532 10.1092 28.9179C10.0559 28.8826 10.0119 28.834 9.98106 28.7765C9.95027 28.7189 9.93369 28.6543 9.9328 28.5885C9.93192 28.5226 9.94677 28.4575 9.976 28.3991L11.4475 25.7879C10.949 25.3538 10.3792 25.0177 9.76578 24.7956L8.30926 27.4068C8.15763 27.6782 8.0592 27.9783 8.01967 28.2897C7.98014 28.6012 8.00032 28.9177 8.07902 29.2209C8.15772 29.5241 8.29338 29.8079 8.47812 30.056C8.66285 30.304 8.89299 30.5113 9.15514 30.6657C9.50055 30.8688 9.88987 30.9766 10.2863 30.9791H17.5589C17.694 29.24 17.3963 27.494 16.6948 25.9102C15.9933 24.3264 14.9117 22.9584 13.5547 21.9389L14.7109 19.8498C16.4234 21.0771 17.7996 22.7491 18.7037 24.7008C19.6078 26.6525 20.0085 28.8164 19.8663 30.9791H26.0277C26.1712 27.703 25.4881 24.4449 24.0468 21.5306C22.6055 18.6162 20.4563 16.1476 17.8142 14.3714L20.1516 10.1934C20.2037 10.1023 20.2881 10.0364 20.3866 10.01C20.485 9.9836 20.5894 9.99882 20.6771 10.0524C20.9424 10.2038 30.8327 28.2111 31.0179 28.42C31.0505 28.4811 31.0671 28.55 31.066 28.6199C31.0649 28.6898 31.0462 28.7581 31.0116 28.818C30.9771 28.8779 30.928 28.9272 30.8693 28.9609C30.8107 28.9947 30.7445 29.0117 30.6776 29.0102H28.2951C28.3251 29.6752 28.3251 30.3384 28.2951 30.9999H30.6876C30.9914 31.002 31.2926 30.9412 31.5737 30.821C31.8548 30.7008 32.1103 30.5236 32.3253 30.2997C32.5404 30.0758 32.7108 29.8096 32.8266 29.5166C32.9424 29.2235 33.0013 28.9094 33 28.5924C33.0003 28.1737 32.8931 27.7625 32.6897 27.4016L22.489 9.18021Z" fill="#372C58"/>
</g>
<defs>
<clipPath id="clip0_458_8377">
<rect width="40" height="40" fill="white"/>
</clipPath>
</defs>
</svg>
