<svg width="40" height="40" viewBox="0 0 40 40" fill="none" xmlns="http://www.w3.org/2000/svg">
<g clip-path="url(#clip0_461_4373)">
<rect width="40" height="40" rx="6" fill="white"/>
<path d="M27.546 22.842V9.309H23.876V10.215C22.6394 9.42017 21.2 8.99836 19.73 9C15.468 9 12 12.484 12 16.767C12 21.05 15.468 24.534 19.731 24.534C21.1834 24.5362 22.6064 24.1252 23.834 23.349C23.834 23.468 23.828 23.575 23.828 23.647C23.828 25.898 22.002 27.733 19.761 27.733C18.999 27.7313 18.253 27.5142 17.609 27.107L15.794 30.3C16.9908 31.03 18.3651 31.4175 19.767 31.42C24.03 31.42 27.546 27.935 27.546 23.652C27.546 23.486 27.557 22.997 27.546 22.842ZM19.731 20.852C17.491 20.852 15.664 19.018 15.664 16.767C15.664 14.515 17.49 12.681 19.731 12.681C21.972 12.681 23.798 14.515 23.798 16.767C23.798 19.018 21.972 20.853 19.731 20.853V20.852Z" fill="#F35D49"/>
</g>
<defs>
<clipPath id="clip0_461_4373">
<rect width="40" height="40" fill="white"/>
</clipPath>
</defs>
</svg>
