<svg xmlns="http://www.w3.org/2000/svg" viewBox="0 0 362.61569 388.51709" class="logo-footer"><path d="M156.584 239l-88.299 64.752c-10.593 7.063-18.837 11.773-29.43 11.773C17.66 315.525 0 296.688 0 275.494c0-17.66 14.13-30.612 27.081-36.495l103.603-44.74L27.08 148.343C12.954 142.457 0 129.507 0 111.846c0-21.19 18.837-38.85 40.031-38.85 10.597 0 17.66 3.533 28.254 11.773l88.299 64.751L144.81 44.742C141.28 20.018 157.766 0 181.308 0c23.548 0 40.03 18.837 36.497 43.561l-11.773 105.96 88.298-64.752c10.598-8.24 18.838-11.773 29.436-11.773 21.19 0 38.85 17.66 38.85 38.85 0 18.837-12.95 30.611-27.077 36.498l-103.607 45.914L335.54 239c14.128 5.883 27.077 18.834 27.077 37.675 0 21.19-18.836 38.85-40.028 38.85-9.42 0-17.66-4.71-28.257-11.773L206.03 239l11.774 104.78c3.533 24.723-12.95 44.738-36.497 44.738-23.543 0-40.028-18.838-36.497-43.561l11.773-105.957z"/></svg>