<svg xmlns="http://www.w3.org/2000/svg" viewBox="0 0 362.61569 388.51709" class="logo-footer"><path d="M156.584 239l-88.3 64.752c-10.592 7.063-18.836 11.773-29.43 11.773C17.662 315.525 0 296.688 0 275.495c0-17.662 14.13-30.613 27.08-36.496l103.604-44.742L27.08 148.344C12.955 142.457 0 129.507 0 111.846c0-21.19 18.837-38.85 40.03-38.85 10.598 0 17.662 3.533 28.255 11.773l88.3 64.75L144.81 44.742C141.28 20.018 157.766 0 181.308 0c23.548 0 40.03 18.837 36.497 43.56l-11.773 105.96 88.298-64.75c10.598-8.24 18.838-11.774 29.436-11.774 21.19 0 38.85 17.66 38.85 38.85 0 18.837-12.95 30.61-27.077 36.498L231.93 194.258l103.607 44.74c14.126 5.884 27.076 18.835 27.076 37.676 0 21.19-18.836 38.85-40.028 38.85-9.42 0-17.66-4.71-28.257-11.773L206.033 239l11.773 104.78c3.533 24.722-12.95 44.737-36.497 44.737-23.543 0-40.028-18.838-36.497-43.56L156.585 239z"/></svg>