<svg width="1504" height="816" viewBox="0 0 1504 816" fill="none" xmlns="http://www.w3.org/2000/svg">
<rect width="1504" height="816" fill="#F9F5F2"/>
<path d="M940.871 342.184C930.031 342.183 919.433 345.411 910.419 351.459C901.405 357.507 894.38 366.104 890.231 376.162C886.083 386.221 884.998 397.289 887.113 407.967C889.228 418.644 894.449 428.452 902.115 436.15C909.782 443.848 919.549 449.089 930.181 451.212C940.814 453.335 951.834 452.243 961.849 448.075C971.864 443.907 980.423 436.85 986.444 427.796C992.465 418.742 995.677 408.099 995.674 397.212C995.655 382.622 989.875 368.635 979.601 358.319C969.328 348.003 955.399 342.2 940.871 342.184ZM940.871 426.158C935.173 426.158 929.603 424.461 924.865 421.282C920.127 418.103 916.434 413.584 914.253 408.297C912.071 403.01 911.5 397.193 912.611 391.58C913.722 385.967 916.465 380.811 920.494 376.764C924.523 372.716 929.656 369.96 935.244 368.842C940.833 367.724 946.626 368.296 951.891 370.485C957.156 372.673 961.657 376.381 964.824 381.138C967.991 385.896 969.682 391.489 969.684 397.212C969.678 404.885 966.641 412.243 961.239 417.669C955.837 423.096 948.512 426.149 940.871 426.158ZM779.505 386.088L769.931 381.283C765.781 379.231 763.182 377.613 762.133 376.43C761.134 375.381 760.57 373.99 760.556 372.538C760.556 370.683 761.38 369.127 763.043 367.876C764.706 366.624 766.998 366.001 769.931 366.001C775.3 366.001 781.266 369.27 787.829 375.807L804.002 359.564C800.055 354.171 794.893 349.792 788.939 346.786C782.984 343.779 776.406 342.23 769.741 342.265C759.85 342.265 751.731 345.196 745.386 351.057C739.041 356.919 735.867 363.982 735.864 372.248C735.864 385.065 744.286 395.735 761.129 404.258L769.931 408.678C777.511 412.522 781.301 416.463 781.301 420.501C781.301 422.68 780.249 424.602 778.146 426.267C776.042 427.933 773.268 428.765 769.822 428.765C766.629 428.765 762.976 427.655 758.864 425.435C754.768 423.231 751.082 420.334 747.968 416.871L732.036 434.322C741.091 446.239 753.213 452.197 768.401 452.197C779.821 452.197 788.93 449.09 795.726 442.877C802.523 436.663 805.92 428.909 805.916 419.616C805.916 412.638 804.034 406.551 800.269 401.356C796.505 396.16 789.583 391.071 779.505 386.088ZM616.827 344.363H590.833L590.918 353.75C582.499 345.186 572.129 342.184 561.461 342.184C546.925 342.184 532.984 347.983 522.706 358.305C512.428 368.628 506.653 382.628 506.653 397.226C506.653 411.824 512.428 425.824 522.706 436.147C532.984 446.469 546.925 452.268 561.461 452.268C574.076 452.268 584.873 446.654 590.435 439.513C590.435 439.946 590.397 445.136 590.383 445.698C590.278 449.247 589.767 454.933 586.436 460.742C584.484 464.055 581.891 466.942 578.81 469.233C575.729 471.524 572.223 473.172 568.497 474.079C564.772 474.987 560.903 475.136 557.119 474.518C553.336 473.9 549.714 472.528 546.467 470.481L533.538 493.08C542.031 498.254 551.774 500.992 561.707 500.997C576.09 500.997 594.026 495.288 606.746 477.584C617.324 462.873 616.827 448.976 616.827 435.521V344.363ZM561.461 426.158C555.762 426.158 550.192 424.461 545.454 421.282C540.716 418.103 537.023 413.584 534.842 408.297C532.661 403.01 532.09 397.193 533.201 391.58C534.311 385.967 537.055 380.811 541.083 376.764C545.112 372.716 550.245 369.96 555.834 368.842C561.422 367.724 567.215 368.296 572.48 370.485C577.745 372.673 582.246 376.381 585.413 381.138C588.58 385.896 590.272 391.489 590.274 397.212C590.269 404.886 587.232 412.244 581.829 417.671C576.427 423.098 569.102 426.15 561.461 426.158ZM720.458 344.363H694.331V396.698C694.383 404.111 694.374 416.952 688.93 422.456C686.32 425.092 683.478 427.452 677.447 427.452C671.416 427.452 668.55 425.073 665.944 422.456C660.501 416.952 660.515 404.111 660.567 396.698V344.363H634.46V396.512C634.388 407.251 634.256 427.247 647.364 440.498C655.058 448.272 664.22 452.216 677.466 452.216C690.712 452.216 699.879 448.272 707.572 440.498C720.681 427.247 720.548 407.251 720.477 396.512L720.458 344.363Z" fill="#E26751"/>
<path d="M855.593 425.844C852.613 425.439 849.681 423.303 848.013 419.402C846.871 416.728 846.459 413.217 846.459 408.892V366.81H877.162V344.282H846.459V315.022H820.403V406.77C820.403 415.767 821.123 426.672 827.036 436.744C832.081 445.308 840.968 452.23 855.555 452.23C873.24 452.23 885.965 439.384 885.965 439.384L870.331 420.077C870.331 420.077 863.466 426.914 855.593 425.844Z" fill="#E26751"/>
</svg>
