<svg width="1504" height="816" viewBox="0 0 1504 816" fill="none" xmlns="http://www.w3.org/2000/svg">
<rect width="1504" height="816" fill="#E26751"/>
<path d="M941.872 342.184C931.032 342.183 920.434 345.41 911.42 351.459C902.406 357.507 895.381 366.104 891.232 376.162C887.084 386.22 885.999 397.288 888.114 407.966C890.229 418.644 895.45 428.452 903.116 436.15C910.783 443.848 920.55 449.089 931.182 451.212C941.815 453.334 952.835 452.243 962.85 448.075C972.865 443.906 981.424 436.849 987.445 427.796C993.466 418.742 996.678 408.099 996.675 397.212C996.656 382.621 990.876 368.634 980.602 358.318C970.329 348.002 956.4 342.2 941.872 342.184ZM941.872 426.158C936.174 426.158 930.604 424.461 925.866 421.282C921.128 418.102 917.435 413.584 915.253 408.297C913.072 403.01 912.501 397.192 913.612 391.579C914.723 385.966 917.466 380.81 921.495 376.763C925.524 372.716 930.657 369.959 936.245 368.842C941.834 367.724 947.627 368.296 952.892 370.484C958.157 372.673 962.658 376.381 965.825 381.138C968.992 385.895 970.683 391.489 970.685 397.212C970.679 404.885 967.642 412.242 962.24 417.669C956.838 423.096 949.513 426.149 941.872 426.158ZM780.506 386.088L770.932 381.283C766.782 379.23 764.183 377.613 763.134 376.43C762.135 375.381 761.571 373.989 761.557 372.538C761.557 370.682 762.381 369.127 764.044 367.875C765.706 366.624 767.999 366.001 770.932 366.001C776.301 366.001 782.267 369.269 788.83 375.806L805.003 359.564C801.056 354.171 795.894 349.792 789.94 346.785C783.985 343.779 777.407 342.23 770.742 342.264C760.851 342.264 752.732 345.195 746.387 351.057C740.042 356.918 736.868 363.982 736.865 372.248C736.865 385.065 745.287 395.735 762.13 404.258L770.932 408.678C778.512 412.522 782.302 416.463 782.302 420.501C782.302 422.68 781.25 424.602 779.147 426.267C777.043 427.932 774.269 428.765 770.823 428.765C767.63 428.765 763.977 427.655 759.865 425.434C755.769 423.231 752.083 420.334 748.969 416.87L733.037 434.322C742.092 446.238 754.213 452.197 769.402 452.197C780.822 452.197 789.931 449.09 796.727 442.876C803.524 436.663 806.92 428.909 806.917 419.616C806.917 412.638 805.035 406.551 801.27 401.356C797.506 396.16 790.584 391.071 780.506 386.088ZM617.828 344.363H591.834L591.919 353.75C583.5 345.186 573.13 342.184 562.462 342.184C547.926 342.184 533.985 347.983 523.707 358.305C513.429 368.627 507.654 382.628 507.654 397.226C507.654 411.824 513.429 425.824 523.707 436.146C533.985 446.469 547.926 452.268 562.462 452.268C575.077 452.268 585.874 446.654 591.436 439.513C591.436 439.945 591.398 445.136 591.384 445.698C591.279 449.247 590.768 454.932 587.437 460.742C585.485 464.055 582.892 466.942 579.811 469.233C576.73 471.524 573.224 473.171 569.498 474.079C565.773 474.987 561.904 475.136 558.12 474.518C554.337 473.9 550.715 472.527 547.468 470.481L534.539 493.08C543.032 498.253 552.775 500.991 562.708 500.997C577.091 500.997 595.027 495.287 607.747 477.584C618.325 462.873 617.828 448.976 617.828 435.521V344.363ZM562.462 426.158C556.763 426.158 551.193 424.461 546.455 421.282C541.717 418.102 538.024 413.584 535.843 408.297C533.662 403.01 533.09 397.192 534.201 391.579C535.312 385.966 538.056 380.81 542.084 376.763C546.113 372.716 551.246 369.959 556.835 368.842C562.423 367.724 568.216 368.296 573.481 370.484C578.746 372.673 583.247 376.381 586.414 381.138C589.581 385.895 591.273 391.489 591.275 397.212C591.27 404.885 588.233 412.243 582.83 417.671C577.428 423.098 570.103 426.15 562.462 426.158ZM721.459 344.363H695.332V396.698C695.384 404.11 695.375 416.951 689.931 422.456C687.321 425.092 684.479 427.452 678.448 427.452C672.417 427.452 669.551 425.073 666.945 422.456C661.502 416.951 661.516 404.11 661.568 396.698V344.363H635.461V396.512C635.389 407.25 635.257 427.247 648.365 440.497C656.059 448.271 665.221 452.216 678.467 452.216C691.713 452.216 700.88 448.271 708.573 440.497C721.682 427.247 721.549 407.25 721.478 396.512L721.459 344.363Z" fill="white"/>
<path d="M856.594 425.844C853.614 425.44 850.682 423.304 849.014 419.402C847.872 416.728 847.46 413.217 847.46 408.893V366.81H878.163V344.283H847.46V315.022H821.404V406.771C821.404 415.767 822.124 426.672 828.037 436.744C833.082 445.308 841.969 452.231 856.556 452.231C874.241 452.231 886.965 439.385 886.965 439.385L871.332 420.078C871.332 420.078 864.467 426.915 856.594 425.844Z" fill="white"/>
</svg>
