<svg width="1504" height="816" viewBox="0 0 1504 816" fill="none" xmlns="http://www.w3.org/2000/svg">
<rect width="1504" height="816" fill="#F9F5F2"/>
<rect x="246.233" y="132" width="1012" height="27" fill="#E9E1DC"/>
<rect x="266.638" y="189.369" width="50.2751" height="28.2629" rx="3.5" fill="#FBFAFA" stroke="#DCDCDC"/>
<rect x="266.638" y="275" width="50.2751" height="28.2629" rx="3.5" fill="#FBFAFA" stroke="#DCDCDC"/>
<rect x="266.638" y="365.369" width="50.2751" height="28.2629" rx="3.5" fill="#FBFAFA" stroke="#DCDCDC"/>
<rect x="266.638" y="449.15" width="50.2751" height="28.2629" rx="3.5" fill="#FBFAFA" stroke="#DCDCDC"/>
<rect x="266.638" y="538.869" width="50.2751" height="28.2629" rx="3.5" fill="#FBFAFA" stroke="#DCDCDC"/>
<rect x="266.638" y="626.369" width="50.2751" height="28.2629" rx="3.5" fill="#FBFAFA" stroke="#DCDCDC"/>
<path d="M397.593 640.4C397.593 637.216 395.129 634.8 392.025 634.8H388.489V646H392.025C395.129 646 397.593 643.584 397.593 640.4ZM396.121 640.4C396.121 642.8 394.377 644.672 391.993 644.672H389.913V636.128H391.993C394.377 636.128 396.121 638 396.121 640.4ZM403.112 646.176C404.68 646.176 405.864 645.36 406.504 644.192L405.384 643.616C404.888 644.384 404.296 644.944 403.128 644.944C401.784 644.944 400.616 643.92 400.52 642.544H406.776C406.776 642.544 406.792 642.352 406.792 642.048C406.792 639.84 405.208 638.048 403.016 638.048C400.808 638.048 399.144 639.792 399.144 642.112C399.144 644.48 400.808 646.176 403.112 646.176ZM400.552 641.408C400.68 640.352 401.72 639.248 402.984 639.248C404.264 639.248 405.256 640.176 405.4 641.408H400.552ZM410.291 646V639.456H412.467V638.224H410.291V637.52C410.291 636.304 410.947 635.872 411.811 635.872C412.211 635.872 412.515 635.936 412.755 636.032V634.8C412.515 634.704 412.147 634.608 411.587 634.608C410.051 634.608 408.915 635.568 408.915 637.552V638.224H407.715V639.456H408.915V646H410.291ZM419.784 638.224V639.408C419.208 638.544 418.168 638.048 417.032 638.048C414.824 638.048 413.128 639.824 413.128 642.112C413.128 644.416 414.824 646.176 417.032 646.176C418.168 646.176 419.224 645.616 419.784 644.752V646H421.144V638.224H419.784ZM419.864 642.112C419.864 643.68 418.712 644.912 417.192 644.912C415.672 644.912 414.52 643.68 414.52 642.112C414.52 640.544 415.672 639.312 417.192 639.312C418.712 639.312 419.864 640.544 419.864 642.112ZM429.16 642.288C429.16 643.872 428.296 644.896 426.984 644.896C425.672 644.896 424.968 644.016 424.968 642.624V638.224H423.592V642.784C423.592 644.848 424.728 646.176 426.696 646.176C427.864 646.176 428.68 645.648 429.16 644.88V646H430.536V638.224H429.16V642.288ZM433.094 634.8V646H434.47V634.8H433.094ZM437.336 635.888V638.224H436.136V639.456H437.336V643.76C437.336 645.264 438.216 646.176 439.688 646.176C440.216 646.176 440.616 646.08 440.888 645.936V644.656C440.648 644.816 440.312 644.896 440.008 644.896C439.112 644.896 438.712 644.48 438.712 643.568V639.456H440.888V638.224H438.712V635.888H437.336ZM448.001 649.328V644.832C448.577 645.68 449.617 646.176 450.753 646.176C452.961 646.176 454.657 644.4 454.657 642.112C454.657 639.808 452.961 638.048 450.753 638.048C449.617 638.048 448.561 638.608 448.001 639.456V638.224H446.641V649.328H448.001ZM453.265 642.112C453.265 643.68 452.113 644.912 450.593 644.912C449.073 644.912 447.921 643.68 447.921 642.112C447.921 640.544 449.073 639.312 450.593 639.312C452.113 639.312 453.265 640.544 453.265 642.112ZM462.831 638.224V639.408C462.255 638.544 461.215 638.048 460.079 638.048C457.871 638.048 456.175 639.824 456.175 642.112C456.175 644.416 457.871 646.176 460.079 646.176C461.215 646.176 462.271 645.616 462.831 644.752V646H464.191V638.224H462.831ZM462.911 642.112C462.911 643.68 461.759 644.912 460.239 644.912C458.719 644.912 457.567 643.68 457.567 642.112C457.567 640.544 458.719 639.312 460.239 639.312C461.759 639.312 462.911 640.544 462.911 642.112ZM470.815 638.128C470.815 638.128 470.671 638.096 470.479 638.096C469.455 638.096 468.447 638.704 468.095 639.6V638.224H466.751V646H468.111V642.304C468.111 640.624 468.991 639.472 470.431 639.472C470.671 639.472 470.815 639.504 470.815 639.504V638.128ZM478.3 638.224V639.408C477.724 638.544 476.684 638.048 475.548 638.048C473.34 638.048 471.644 639.824 471.644 642.112C471.644 644.416 473.34 646.176 475.548 646.176C476.684 646.176 477.74 645.616 478.3 644.752V646H479.66V638.224H478.3ZM478.38 642.112C478.38 643.68 477.228 644.912 475.708 644.912C474.188 644.912 473.036 643.68 473.036 642.112C473.036 640.544 474.188 639.312 475.708 639.312C477.228 639.312 478.38 640.544 478.38 642.112ZM488.139 644.512V645.584C488.139 647.232 487.163 648.272 485.643 648.272C484.555 648.272 483.627 647.728 483.083 646.736L481.995 647.504C482.715 648.8 484.027 649.52 485.643 649.52C487.979 649.52 489.499 647.968 489.499 645.552V638.224H488.139V639.392C487.579 638.544 486.555 638.048 485.451 638.048C483.323 638.048 481.659 639.776 481.659 642C481.659 644.224 483.323 645.92 485.451 645.92C486.555 645.92 487.595 645.36 488.139 644.512ZM488.219 642C488.219 643.504 487.099 644.688 485.627 644.688C484.155 644.688 483.051 643.504 483.051 642C483.051 640.496 484.155 639.312 485.627 639.312C487.099 639.312 488.219 640.496 488.219 642ZM496.127 638.128C496.127 638.128 495.983 638.096 495.791 638.096C494.767 638.096 493.759 638.704 493.407 639.6V638.224H492.063V646H493.423V642.304C493.423 640.624 494.303 639.472 495.743 639.472C495.983 639.472 496.127 639.504 496.127 639.504V638.128ZM503.612 638.224V639.408C503.036 638.544 501.996 638.048 500.86 638.048C498.652 638.048 496.956 639.824 496.956 642.112C496.956 644.416 498.652 646.176 500.86 646.176C501.996 646.176 503.052 645.616 503.612 644.752V646H504.972V638.224H503.612ZM503.692 642.112C503.692 643.68 502.54 644.912 501.02 644.912C499.5 644.912 498.348 643.68 498.348 642.112C498.348 640.544 499.5 639.312 501.02 639.312C502.54 639.312 503.692 640.544 503.692 642.112ZM508.892 649.328V644.832C509.468 645.68 510.508 646.176 511.644 646.176C513.852 646.176 515.548 644.4 515.548 642.112C515.548 639.808 513.852 638.048 511.644 638.048C510.508 638.048 509.452 638.608 508.892 639.456V638.224H507.532V649.328H508.892ZM514.156 642.112C514.156 643.68 513.004 644.912 511.484 644.912C509.964 644.912 508.812 643.68 508.812 642.112C508.812 640.544 509.964 639.312 511.484 639.312C513.004 639.312 514.156 640.544 514.156 642.112ZM518.924 641.936C518.924 640.352 519.788 639.328 521.116 639.328C522.444 639.328 523.164 640.208 523.164 641.6V646H524.54V641.44C524.54 639.376 523.388 638.048 521.404 638.048C520.236 638.048 519.404 638.576 518.924 639.344V634.8H517.548V646H518.924V641.936ZM531.211 635.888V638.224H530.011V639.456H531.211V643.76C531.211 645.264 532.091 646.176 533.563 646.176C534.091 646.176 534.491 646.08 534.763 645.936V644.656C534.523 644.816 534.187 644.896 533.883 644.896C532.987 644.896 532.587 644.48 532.587 643.568V639.456H534.763V638.224H532.587V635.888H531.211ZM539.924 646.176C541.492 646.176 542.676 645.36 543.316 644.192L542.196 643.616C541.7 644.384 541.108 644.944 539.94 644.944C538.596 644.944 537.428 643.92 537.332 642.544H543.588C543.588 642.544 543.604 642.352 543.604 642.048C543.604 639.84 542.02 638.048 539.828 638.048C537.62 638.048 535.956 639.792 535.956 642.112C535.956 644.48 537.62 646.176 539.924 646.176ZM537.364 641.408C537.492 640.352 538.532 639.248 539.796 639.248C541.076 639.248 542.068 640.176 542.212 641.408H537.364ZM550.005 646H551.621L548.725 642L551.493 638.224H549.925L547.909 641.04L545.909 638.224H544.309L547.077 642.032L544.181 646H545.733L547.877 642.992L550.005 646ZM553.492 635.888V638.224H552.292V639.456H553.492V643.76C553.492 645.264 554.372 646.176 555.844 646.176C556.372 646.176 556.772 646.08 557.044 645.936V644.656C556.804 644.816 556.468 644.896 556.164 644.896C555.268 644.896 554.868 644.48 554.868 643.568V639.456H557.044V638.224H554.868V635.888H553.492Z" fill="#525257"/>
<path d="M388.525 559H390.685V553.546H396.589V559H398.749V546.4H396.589V551.494H390.685V546.4H388.525V559ZM408.31 556.12C407.806 556.894 407.212 557.452 406.06 557.452C404.746 557.452 403.612 556.498 403.522 555.22H410.308C410.308 555.166 410.326 554.932 410.326 554.59C410.326 551.962 408.508 549.964 405.934 549.964C403.378 549.964 401.452 551.944 401.452 554.59C401.452 557.308 403.36 559.216 406.042 559.216C407.896 559.216 409.282 558.316 410.02 556.93L408.31 556.12ZM403.54 553.708C403.666 552.7 404.674 551.674 405.898 551.674C407.158 551.674 408.13 552.538 408.256 553.708H403.54ZM419.561 550.18V551.386C418.913 550.468 417.797 549.964 416.573 549.964C414.143 549.964 412.271 551.98 412.271 554.59C412.271 557.2 414.143 559.216 416.573 559.216C417.797 559.216 418.913 558.64 419.561 557.722V559H421.613V550.18H419.561ZM414.359 554.59C414.359 553.06 415.511 551.854 417.005 551.854C418.499 551.854 419.651 553.06 419.651 554.59C419.651 556.12 418.499 557.326 417.005 557.326C415.511 557.326 414.359 556.12 414.359 554.59ZM433.504 559V546.4H431.434V551.386C430.786 550.486 429.67 549.964 428.446 549.964C426.016 549.964 424.144 551.998 424.144 554.59C424.144 557.218 426.016 559.216 428.446 559.216C429.67 559.216 430.786 558.64 431.434 557.74V559H433.504ZM426.232 554.59C426.232 553.06 427.384 551.854 428.878 551.854C430.372 551.854 431.524 553.06 431.524 554.59C431.524 556.12 430.372 557.326 428.878 557.326C427.384 557.326 426.232 556.12 426.232 554.59ZM438.681 559V550.18H436.593V559H438.681ZM438.915 547.606C438.915 546.904 438.357 546.31 437.619 546.31C436.917 546.31 436.341 546.886 436.341 547.606C436.341 548.308 436.917 548.884 437.619 548.884C438.357 548.884 438.915 548.29 438.915 547.606ZM443.857 554.356C443.857 552.844 444.685 551.89 445.927 551.89C447.187 551.89 447.889 552.718 447.889 554.086V559H449.977V553.69C449.977 551.404 448.699 549.964 446.557 549.964C445.315 549.964 444.397 550.522 443.857 551.35V550.18H441.769V559H443.857V554.356ZM459.508 557.488V558.478C459.508 560.188 458.536 561.232 456.952 561.232C455.836 561.232 454.882 560.674 454.342 559.684L452.686 560.728C453.442 562.186 454.99 563.05 456.952 563.05C459.832 563.05 461.56 561.196 461.56 558.46V550.18H459.508V551.368C458.914 550.504 457.834 549.964 456.61 549.964C454.216 549.964 452.38 551.926 452.38 554.464C452.38 557.002 454.216 558.91 456.61 558.91C457.816 558.91 458.914 558.334 459.508 557.488ZM459.598 554.464C459.598 555.94 458.482 557.11 457.042 557.11C455.602 557.11 454.486 555.94 454.486 554.464C454.486 553.006 455.602 551.836 457.042 551.836C458.482 551.836 459.598 553.006 459.598 554.464ZM471.962 549.64C471.962 548.398 472.646 547.912 473.546 547.912C473.978 547.912 474.32 548.02 474.59 548.164V546.328C474.284 546.184 473.834 546.076 473.24 546.076C471.242 546.076 469.874 547.318 469.874 549.658V550.18H468.56V551.944H469.874V559H471.962V551.944H474.338V550.18H471.962V549.64ZM478.587 559V550.18H476.499V559H478.587ZM478.821 547.606C478.821 546.904 478.263 546.31 477.525 546.31C476.823 546.31 476.247 546.886 476.247 547.606C476.247 548.308 476.823 548.884 477.525 548.884C478.263 548.884 478.821 548.29 478.821 547.606ZM484.267 559H486.103L489.739 550.18H487.579L485.203 556.3L482.845 550.18H480.631L484.267 559ZM497.773 556.12C497.269 556.894 496.675 557.452 495.523 557.452C494.209 557.452 493.075 556.498 492.985 555.22H499.771C499.771 555.166 499.789 554.932 499.789 554.59C499.789 551.962 497.971 549.964 495.397 549.964C492.841 549.964 490.915 551.944 490.915 554.59C490.915 557.308 492.823 559.216 495.505 559.216C497.359 559.216 498.745 558.316 499.483 556.93L497.773 556.12ZM493.003 553.708C493.129 552.7 494.137 551.674 495.361 551.674C496.621 551.674 497.593 552.538 497.719 553.708H493.003Z" fill="#222525"/>
<path d="M388.771 471H391.291V464.637H398.179V471H400.699V456.3H398.179V462.243H391.291V456.3H388.771V471ZM411.271 467.64C410.683 468.543 409.99 469.194 408.646 469.194C407.113 469.194 405.79 468.081 405.685 466.59H413.602C413.602 466.527 413.623 466.254 413.623 465.855C413.623 462.789 411.502 460.458 408.499 460.458C405.517 460.458 403.27 462.768 403.27 465.855C403.27 469.026 405.496 471.252 408.625 471.252C410.788 471.252 412.405 470.202 413.266 468.585L411.271 467.64ZM405.706 464.826C405.853 463.65 407.029 462.453 408.457 462.453C409.927 462.453 411.061 463.461 411.208 464.826H405.706ZM423.813 460.71V462.117C423.057 461.046 421.755 460.458 420.327 460.458C417.492 460.458 415.308 462.81 415.308 465.855C415.308 468.9 417.492 471.252 420.327 471.252C421.755 471.252 423.057 470.58 423.813 469.509V471H426.207V460.71H423.813ZM417.744 465.855C417.744 464.07 419.088 462.663 420.831 462.663C422.574 462.663 423.918 464.07 423.918 465.855C423.918 467.64 422.574 469.047 420.831 469.047C419.088 469.047 417.744 467.64 417.744 465.855ZM439.496 471V456.3H437.081V462.117C436.325 461.067 435.023 460.458 433.595 460.458C430.76 460.458 428.576 462.831 428.576 465.855C428.576 468.921 430.76 471.252 433.595 471.252C435.023 471.252 436.325 470.58 437.081 469.53V471H439.496ZM431.012 465.855C431.012 464.07 432.356 462.663 434.099 462.663C435.842 462.663 437.186 464.07 437.186 465.855C437.186 467.64 435.842 469.047 434.099 469.047C432.356 469.047 431.012 467.64 431.012 465.855ZM444.953 471V460.71H442.517V471H444.953ZM445.226 457.707C445.226 456.888 444.575 456.195 443.714 456.195C442.895 456.195 442.223 456.867 442.223 457.707C442.223 458.526 442.895 459.198 443.714 459.198C444.575 459.198 445.226 458.505 445.226 457.707ZM450.408 465.582C450.408 463.818 451.374 462.705 452.823 462.705C454.293 462.705 455.112 463.671 455.112 465.267V471H457.548V464.805C457.548 462.138 456.057 460.458 453.558 460.458C452.109 460.458 451.038 461.109 450.408 462.075V460.71H447.972V471H450.408V465.582ZM468.085 469.236V470.391C468.085 472.386 466.951 473.604 465.103 473.604C463.801 473.604 462.688 472.953 462.058 471.798L460.126 473.016C461.008 474.717 462.814 475.725 465.103 475.725C468.463 475.725 470.479 473.562 470.479 470.37V460.71H468.085V462.096C467.392 461.088 466.132 460.458 464.704 460.458C461.911 460.458 459.769 462.747 459.769 465.708C459.769 468.669 461.911 470.895 464.704 470.895C466.111 470.895 467.392 470.223 468.085 469.236ZM468.19 465.708C468.19 467.43 466.888 468.795 465.208 468.795C463.528 468.795 462.226 467.43 462.226 465.708C462.226 464.007 463.528 462.642 465.208 462.642C466.888 462.642 468.19 464.007 468.19 465.708ZM481.448 460.08C481.448 458.631 482.246 458.064 483.296 458.064C483.8 458.064 484.199 458.19 484.514 458.358V456.216C484.157 456.048 483.632 455.922 482.939 455.922C480.608 455.922 479.012 457.371 479.012 460.101V460.71H477.479V462.768H479.012V471H481.448V462.768H484.22V460.71H481.448V460.08ZM490.433 460.458C487.283 460.458 484.952 462.831 484.952 465.855C484.952 468.879 487.283 471.252 490.433 471.252C493.583 471.252 495.914 468.879 495.914 465.855C495.914 462.831 493.583 460.458 490.433 460.458ZM490.433 462.684C492.155 462.684 493.499 464.091 493.499 465.855C493.499 467.619 492.155 469.026 490.433 469.026C488.711 469.026 487.367 467.619 487.367 465.855C487.367 464.091 488.711 462.684 490.433 462.684ZM505.126 466.128C505.126 467.892 504.181 469.005 502.732 469.005C501.325 469.005 500.506 468.039 500.506 466.443V460.71H498.07V466.905C498.07 469.572 499.561 471.252 501.997 471.252C503.425 471.252 504.496 470.601 505.126 469.635V471H507.562V460.71H505.126V466.128ZM516.504 460.563C516.483 460.542 516.273 460.5 516.042 460.5C514.698 460.5 513.48 461.277 512.976 462.474V460.71H510.582V471H512.997V466.464C512.997 464.343 514.089 462.957 515.874 462.957C516.189 462.957 516.42 462.999 516.504 463.041V460.563Z" fill="#222525"/>
<path d="M389.017 386H391.897V378.728H399.769V386H402.649V369.2H399.769V375.992H391.897V369.2H389.017V386ZM414.731 382.16C414.059 383.192 413.267 383.936 411.731 383.936C409.979 383.936 408.467 382.664 408.347 380.96H417.395C417.395 380.888 417.419 380.576 417.419 380.12C417.419 376.616 414.995 373.952 411.563 373.952C408.155 373.952 405.587 376.592 405.587 380.12C405.587 383.744 408.131 386.288 411.707 386.288C414.179 386.288 416.027 385.088 417.011 383.24L414.731 382.16ZM408.371 378.944C408.539 377.6 409.883 376.232 411.515 376.232C413.195 376.232 414.491 377.384 414.659 378.944H408.371ZM429.065 374.24V375.848C428.201 374.624 426.713 373.952 425.081 373.952C421.841 373.952 419.345 376.64 419.345 380.12C419.345 383.6 421.841 386.288 425.081 386.288C426.713 386.288 428.201 385.52 429.065 384.296V386H431.801V374.24H429.065ZM422.129 380.12C422.129 378.08 423.665 376.472 425.657 376.472C427.649 376.472 429.185 378.08 429.185 380.12C429.185 382.16 427.649 383.768 425.657 383.768C423.665 383.768 422.129 382.16 422.129 380.12ZM446.989 386V369.2H444.229V375.848C443.365 374.648 441.877 373.952 440.245 373.952C437.005 373.952 434.509 376.664 434.509 380.12C434.509 383.624 437.005 386.288 440.245 386.288C441.877 386.288 443.365 385.52 444.229 384.32V386H446.989ZM437.293 380.12C437.293 378.08 438.829 376.472 440.821 376.472C442.813 376.472 444.349 378.08 444.349 380.12C444.349 382.16 442.813 383.768 440.821 383.768C438.829 383.768 437.293 382.16 437.293 380.12ZM453.225 386V374.24H450.441V386H453.225ZM453.537 370.808C453.537 369.872 452.793 369.08 451.809 369.08C450.873 369.08 450.105 369.848 450.105 370.808C450.105 371.744 450.873 372.512 451.809 372.512C452.793 372.512 453.537 371.72 453.537 370.808ZM459.459 379.808C459.459 377.792 460.563 376.52 462.219 376.52C463.899 376.52 464.835 377.624 464.835 379.448V386H467.619V378.92C467.619 375.872 465.915 373.952 463.059 373.952C461.403 373.952 460.179 374.696 459.459 375.8V374.24H456.675V386H459.459V379.808ZM479.661 383.984V385.304C479.661 387.584 478.365 388.976 476.253 388.976C474.765 388.976 473.493 388.232 472.773 386.912L470.565 388.304C471.573 390.248 473.637 391.4 476.253 391.4C480.093 391.4 482.397 388.928 482.397 385.28V374.24H479.661V375.824C478.869 374.672 477.429 373.952 475.797 373.952C472.605 373.952 470.157 376.568 470.157 379.952C470.157 383.336 472.605 385.88 475.797 385.88C477.405 385.88 478.869 385.112 479.661 383.984ZM479.781 379.952C479.781 381.92 478.293 383.48 476.373 383.48C474.453 383.48 472.965 381.92 472.965 379.952C472.965 378.008 474.453 376.448 476.373 376.448C478.293 376.448 479.781 378.008 479.781 379.952ZM492.101 370.76V374.24H490.349V376.592H492.101V382.376C492.101 384.824 493.517 386.288 495.869 386.288C496.829 386.288 497.525 386.096 497.981 385.856V383.384C497.621 383.624 497.117 383.744 496.685 383.744C495.437 383.744 494.861 383.168 494.861 381.872V376.592H497.981V374.24H494.861V370.76H492.101ZM503.217 379.808C503.217 377.792 504.321 376.52 505.977 376.52C507.657 376.52 508.593 377.624 508.593 379.448V386H511.377V378.92C511.377 375.872 509.673 373.952 506.817 373.952C505.161 373.952 503.937 374.696 503.217 375.8V369.2H500.433V386H503.217V379.808ZM521.451 374.072C521.427 374.048 521.187 374 520.923 374C519.387 374 517.995 374.888 517.419 376.256V374.24H514.683V386H517.443V380.816C517.443 378.392 518.691 376.808 520.731 376.808C521.091 376.808 521.355 376.856 521.451 376.904V374.072ZM531.778 382.16C531.106 383.192 530.314 383.936 528.778 383.936C527.026 383.936 525.514 382.664 525.394 380.96H534.442C534.442 380.888 534.466 380.576 534.466 380.12C534.466 376.616 532.042 373.952 528.61 373.952C525.202 373.952 522.634 376.592 522.634 380.12C522.634 383.744 525.178 386.288 528.754 386.288C531.226 386.288 533.074 385.088 534.058 383.24L531.778 382.16ZM525.418 378.944C525.586 377.6 526.93 376.232 528.562 376.232C530.242 376.232 531.538 377.384 531.706 378.944H525.418ZM545.536 382.16C544.864 383.192 544.072 383.936 542.536 383.936C540.784 383.936 539.272 382.664 539.152 380.96H548.2C548.2 380.888 548.224 380.576 548.224 380.12C548.224 376.616 545.8 373.952 542.368 373.952C538.96 373.952 536.392 376.592 536.392 380.12C536.392 383.744 538.936 386.288 542.512 386.288C544.984 386.288 546.832 385.088 547.816 383.24L545.536 382.16ZM539.176 378.944C539.344 377.6 540.688 376.232 542.32 376.232C544 376.232 545.296 377.384 545.464 378.944H539.176ZM565.494 374.24V375.848C564.63 374.624 563.142 373.952 561.51 373.952C558.27 373.952 555.774 376.64 555.774 380.12C555.774 383.6 558.27 386.288 561.51 386.288C563.142 386.288 564.63 385.52 565.494 384.296V386H568.23V374.24H565.494ZM558.558 380.12C558.558 378.08 560.094 376.472 562.086 376.472C564.078 376.472 565.614 378.08 565.614 380.12C565.614 382.16 564.078 383.768 562.086 383.768C560.094 383.768 558.558 382.16 558.558 380.12ZM574.491 379.808C574.491 377.792 575.595 376.52 577.251 376.52C578.931 376.52 579.867 377.624 579.867 379.448V386H582.651V378.92C582.651 375.872 580.947 373.952 578.091 373.952C576.435 373.952 575.211 374.696 574.491 375.8V374.24H571.707V386H574.491V379.808ZM597.669 386V369.2H594.909V375.848C594.045 374.648 592.557 373.952 590.925 373.952C587.685 373.952 585.189 376.664 585.189 380.12C585.189 383.624 587.685 386.288 590.925 386.288C592.557 386.288 594.045 385.52 594.909 384.32V386H597.669ZM587.973 380.12C587.973 378.08 589.509 376.472 591.501 376.472C593.493 376.472 595.029 378.08 595.029 380.12C595.029 382.16 593.493 383.768 591.501 383.768C589.509 383.768 587.973 382.16 587.973 380.12ZM605.807 383.288C606.479 385.112 608.183 386.288 610.367 386.288C612.671 386.288 614.687 384.896 614.687 382.496C614.687 380.936 613.799 379.784 611.591 379.064L610.199 378.608C609.335 378.32 608.879 377.912 608.879 377.336C608.879 376.664 609.503 376.256 610.295 376.256C611.183 376.256 611.903 376.88 612.335 377.816L614.567 376.616C613.823 374.984 612.215 373.952 610.295 373.952C608.063 373.952 606.239 375.344 606.239 377.552C606.239 379.184 607.199 380.312 609.239 380.96L610.655 381.416C611.567 381.704 611.999 382.064 611.999 382.688C611.999 383.504 611.279 383.912 610.415 383.912C609.359 383.912 608.471 383.192 608.063 382.112L605.807 383.288ZM625.072 380.432C625.072 382.448 623.992 383.72 622.336 383.72C620.728 383.72 619.792 382.616 619.792 380.792V374.24H617.008V381.32C617.008 384.368 618.712 386.288 621.496 386.288C623.128 386.288 624.352 385.544 625.072 384.44V386H627.856V374.24H625.072V380.432ZM634.068 386V384.392C634.932 385.592 636.42 386.288 638.052 386.288C641.292 386.288 643.788 383.576 643.788 380.12C643.788 376.616 641.292 373.952 638.052 373.952C636.42 373.952 634.932 374.72 634.068 375.92V369.2H631.308V386H634.068ZM641.004 380.12C641.004 382.16 639.468 383.768 637.476 383.768C635.484 383.768 633.948 382.16 633.948 380.12C633.948 378.08 635.484 376.472 637.476 376.472C639.468 376.472 641.004 378.08 641.004 380.12ZM645.369 383.288C646.041 385.112 647.745 386.288 649.929 386.288C652.233 386.288 654.249 384.896 654.249 382.496C654.249 380.936 653.361 379.784 651.153 379.064L649.761 378.608C648.897 378.32 648.441 377.912 648.441 377.336C648.441 376.664 649.065 376.256 649.857 376.256C650.745 376.256 651.465 376.88 651.897 377.816L654.129 376.616C653.385 374.984 651.777 373.952 649.857 373.952C647.625 373.952 645.801 375.344 645.801 377.552C645.801 379.184 646.761 380.312 648.801 380.96L650.217 381.416C651.129 381.704 651.561 382.064 651.561 382.688C651.561 383.504 650.841 383.912 649.977 383.912C648.921 383.912 648.033 383.192 647.625 382.112L645.369 383.288ZM665.208 382.16C664.536 383.192 663.744 383.936 662.208 383.936C660.456 383.936 658.944 382.664 658.824 380.96H667.872C667.872 380.888 667.896 380.576 667.896 380.12C667.896 376.616 665.472 373.952 662.04 373.952C658.632 373.952 656.064 376.592 656.064 380.12C656.064 383.744 658.608 386.288 662.184 386.288C664.656 386.288 666.504 385.088 667.488 383.24L665.208 382.16ZM658.848 378.944C659.016 377.6 660.36 376.232 661.992 376.232C663.672 376.232 664.968 377.384 665.136 378.944H658.848ZM669.821 380.12C669.821 383.696 672.365 386.288 676.013 386.288C677.141 386.288 678.245 386 679.229 385.448V382.688C678.389 383.264 677.381 383.744 676.277 383.744C674.165 383.744 672.629 382.16 672.629 380.12C672.629 378.056 674.189 376.496 676.277 376.496C677.309 376.496 678.269 376.856 679.181 377.552V374.792C678.269 374.24 677.165 373.952 676.037 373.952C672.389 373.952 669.821 376.616 669.821 380.12ZM682.648 370.76V374.24H680.896V376.592H682.648V382.376C682.648 384.824 684.064 386.288 686.416 386.288C687.376 386.288 688.072 386.096 688.528 385.856V383.384C688.168 383.624 687.664 383.744 687.232 383.744C685.984 383.744 685.408 383.168 685.408 381.872V376.592H688.528V374.24H685.408V370.76H682.648ZM693.928 386V374.24H691.144V386H693.928ZM694.24 370.808C694.24 369.872 693.496 369.08 692.512 369.08C691.576 369.08 690.808 369.848 690.808 370.808C690.808 371.744 691.576 372.512 692.512 372.512C693.496 372.512 694.24 371.72 694.24 370.808ZM702.874 373.952C699.274 373.952 696.61 376.664 696.61 380.12C696.61 383.576 699.274 386.288 702.874 386.288C706.474 386.288 709.138 383.576 709.138 380.12C709.138 376.664 706.474 373.952 702.874 373.952ZM702.874 376.496C704.842 376.496 706.378 378.104 706.378 380.12C706.378 382.136 704.842 383.744 702.874 383.744C700.906 383.744 699.37 382.136 699.37 380.12C699.37 378.104 700.906 376.496 702.874 376.496ZM714.6 379.808C714.6 377.792 715.704 376.52 717.36 376.52C719.04 376.52 719.976 377.624 719.976 379.448V386H722.76V378.92C722.76 375.872 721.056 373.952 718.2 373.952C716.544 373.952 715.32 374.696 714.6 375.8V374.24H711.816V386H714.6V379.808ZM724.963 383.288C725.635 385.112 727.339 386.288 729.523 386.288C731.827 386.288 733.843 384.896 733.843 382.496C733.843 380.936 732.955 379.784 730.747 379.064L729.355 378.608C728.491 378.32 728.035 377.912 728.035 377.336C728.035 376.664 728.659 376.256 729.451 376.256C730.339 376.256 731.059 376.88 731.491 377.816L733.723 376.616C732.979 374.984 731.371 373.952 729.451 373.952C727.219 373.952 725.395 375.344 725.395 377.552C725.395 379.184 726.355 380.312 728.395 380.96L729.811 381.416C730.723 381.704 731.155 382.064 731.155 382.688C731.155 383.504 730.435 383.912 729.571 383.912C728.515 383.912 727.627 383.192 727.219 382.112L724.963 383.288Z" fill="#222525"/>
<path d="M389.263 296H392.503V287.819H401.359V296H404.599V277.1H401.359V284.741H392.503V277.1H389.263V296ZM418.191 291.68C417.435 292.841 416.544 293.678 414.816 293.678C412.845 293.678 411.144 292.247 411.009 290.33H421.188C421.188 290.249 421.215 289.898 421.215 289.385C421.215 285.443 418.488 282.446 414.627 282.446C410.793 282.446 407.904 285.416 407.904 289.385C407.904 293.462 410.766 296.324 414.789 296.324C417.57 296.324 419.649 294.974 420.756 292.895L418.191 291.68ZM411.036 288.062C411.225 286.55 412.737 285.011 414.573 285.011C416.463 285.011 417.921 286.307 418.11 288.062H411.036ZM434.317 282.77V284.579C433.345 283.202 431.671 282.446 429.835 282.446C426.19 282.446 423.382 285.47 423.382 289.385C423.382 293.3 426.19 296.324 429.835 296.324C431.671 296.324 433.345 295.46 434.317 294.083V296H437.395V282.77H434.317ZM426.514 289.385C426.514 287.09 428.242 285.281 430.483 285.281C432.724 285.281 434.452 287.09 434.452 289.385C434.452 291.68 432.724 293.489 430.483 293.489C428.242 293.489 426.514 291.68 426.514 289.385ZM454.481 296V277.1H451.376V284.579C450.404 283.229 448.73 282.446 446.894 282.446C443.249 282.446 440.441 285.497 440.441 289.385C440.441 293.327 443.249 296.324 446.894 296.324C448.73 296.324 450.404 295.46 451.376 294.11V296H454.481ZM443.573 289.385C443.573 287.09 445.301 285.281 447.542 285.281C449.783 285.281 451.511 287.09 451.511 289.385C451.511 291.68 449.783 293.489 447.542 293.489C445.301 293.489 443.573 291.68 443.573 289.385ZM461.497 296V282.77H458.365V296H461.497ZM461.848 278.909C461.848 277.856 461.011 276.965 459.904 276.965C458.851 276.965 457.987 277.829 457.987 278.909C457.987 279.962 458.851 280.826 459.904 280.826C461.011 280.826 461.848 279.935 461.848 278.909ZM468.511 289.034C468.511 286.766 469.753 285.335 471.616 285.335C473.506 285.335 474.559 286.577 474.559 288.629V296H477.691V288.035C477.691 284.606 475.774 282.446 472.561 282.446C470.698 282.446 469.321 283.283 468.511 284.525V282.77H465.379V296H468.511V289.034ZM491.238 293.732V295.217C491.238 297.782 489.78 299.348 487.404 299.348C485.73 299.348 484.299 298.511 483.489 297.026L481.005 298.592C482.139 300.779 484.461 302.075 487.404 302.075C491.724 302.075 494.316 299.294 494.316 295.19V282.77H491.238V284.552C490.347 283.256 488.727 282.446 486.891 282.446C483.3 282.446 480.546 285.389 480.546 289.196C480.546 293.003 483.3 295.865 486.891 295.865C488.7 295.865 490.347 295.001 491.238 293.732ZM491.373 289.196C491.373 291.41 489.699 293.165 487.539 293.165C485.379 293.165 483.705 291.41 483.705 289.196C483.705 287.009 485.379 285.254 487.539 285.254C489.699 285.254 491.373 287.009 491.373 289.196ZM505.233 278.855V282.77H503.262V285.416H505.233V291.923C505.233 294.677 506.826 296.324 509.472 296.324C510.552 296.324 511.335 296.108 511.848 295.838V293.057C511.443 293.327 510.876 293.462 510.39 293.462C508.986 293.462 508.338 292.814 508.338 291.356V285.416H511.848V282.77H508.338V278.855H505.233ZM529.477 296L534.283 282.77H531.151L528.127 291.734L525.022 282.77H522.727L519.622 291.734L516.598 282.77H513.385L518.191 296H520.702L523.834 287.063L526.939 296H529.477ZM542.595 282.446C538.545 282.446 535.548 285.497 535.548 289.385C535.548 293.273 538.545 296.324 542.595 296.324C546.645 296.324 549.642 293.273 549.642 289.385C549.642 285.497 546.645 282.446 542.595 282.446ZM542.595 285.308C544.809 285.308 546.537 287.117 546.537 289.385C546.537 291.653 544.809 293.462 542.595 293.462C540.381 293.462 538.653 291.653 538.653 289.385C538.653 287.117 540.381 285.308 542.595 285.308ZM569.185 282.77V284.579C568.213 283.202 566.539 282.446 564.703 282.446C561.058 282.446 558.25 285.47 558.25 289.385C558.25 293.3 561.058 296.324 564.703 296.324C566.539 296.324 568.213 295.46 569.185 294.083V296H572.263V282.77H569.185ZM561.382 289.385C561.382 287.09 563.11 285.281 565.351 285.281C567.592 285.281 569.32 287.09 569.32 289.385C569.32 291.68 567.592 293.489 565.351 293.489C563.11 293.489 561.382 291.68 561.382 289.385ZM579.305 289.034C579.305 286.766 580.547 285.335 582.41 285.335C584.3 285.335 585.353 286.577 585.353 288.629V296H588.485V288.035C588.485 284.606 586.568 282.446 583.355 282.446C581.492 282.446 580.115 283.283 579.305 284.525V282.77H576.173V296H579.305V289.034ZM605.381 296V277.1H602.276V284.579C601.304 283.229 599.63 282.446 597.794 282.446C594.149 282.446 591.341 285.497 591.341 289.385C591.341 293.327 594.149 296.324 597.794 296.324C599.63 296.324 601.304 295.46 602.276 294.11V296H605.381ZM594.473 289.385C594.473 287.09 596.201 285.281 598.442 285.281C600.683 285.281 602.411 287.09 602.411 289.385C602.411 291.68 600.683 293.489 598.442 293.489C596.201 293.489 594.473 291.68 594.473 289.385ZM619.477 281.96C619.477 280.097 620.503 279.368 621.853 279.368C622.501 279.368 623.014 279.53 623.419 279.746V276.992C622.96 276.776 622.285 276.614 621.394 276.614C618.397 276.614 616.345 278.477 616.345 281.987V282.77H614.374V285.416H616.345V296H619.477V285.416H623.041V282.77H619.477V281.96ZM625.533 277.1V296H628.665V277.1H625.533ZM638.73 282.446C634.68 282.446 631.683 285.497 631.683 289.385C631.683 293.273 634.68 296.324 638.73 296.324C642.78 296.324 645.777 293.273 645.777 289.385C645.777 285.497 642.78 282.446 638.73 282.446ZM638.73 285.308C640.944 285.308 642.672 287.117 642.672 289.385C642.672 291.653 640.944 293.462 638.73 293.462C636.516 293.462 634.788 291.653 634.788 289.385C634.788 287.117 636.516 285.308 638.73 285.308ZM663.132 296L667.938 282.77H664.806L661.782 291.734L658.677 282.77H656.382L653.277 291.734L650.253 282.77H647.04L651.846 296H654.357L657.489 287.063L660.594 296H663.132ZM675.603 292.949C676.359 295.001 678.276 296.324 680.733 296.324C683.325 296.324 685.593 294.758 685.593 292.058C685.593 290.303 684.594 289.007 682.11 288.197L680.544 287.684C679.572 287.36 679.059 286.901 679.059 286.253C679.059 285.497 679.761 285.038 680.652 285.038C681.651 285.038 682.461 285.74 682.947 286.793L685.458 285.443C684.621 283.607 682.812 282.446 680.652 282.446C678.141 282.446 676.089 284.012 676.089 286.496C676.089 288.332 677.169 289.601 679.464 290.33L681.057 290.843C682.083 291.167 682.569 291.572 682.569 292.274C682.569 293.192 681.759 293.651 680.787 293.651C679.599 293.651 678.6 292.841 678.141 291.626L675.603 292.949ZM697.276 289.736C697.276 292.004 696.061 293.435 694.198 293.435C692.389 293.435 691.336 292.193 691.336 290.141V282.77H688.204V290.735C688.204 294.164 690.121 296.324 693.253 296.324C695.089 296.324 696.466 295.487 697.276 294.245V296H700.408V282.77H697.276V289.736ZM707.397 296V294.191C708.369 295.541 710.043 296.324 711.879 296.324C715.524 296.324 718.332 293.273 718.332 289.385C718.332 285.443 715.524 282.446 711.879 282.446C710.043 282.446 708.369 283.31 707.397 284.66V277.1H704.292V296H707.397ZM715.2 289.385C715.2 291.68 713.472 293.489 711.231 293.489C708.99 293.489 707.262 291.68 707.262 289.385C707.262 287.09 708.99 285.281 711.231 285.281C713.472 285.281 715.2 287.09 715.2 289.385ZM721.655 278.855V282.77H719.684V285.416H721.655V291.923C721.655 294.677 723.248 296.324 725.894 296.324C726.974 296.324 727.757 296.108 728.27 295.838V293.057C727.865 293.327 727.298 293.462 726.812 293.462C725.408 293.462 724.76 292.814 724.76 291.356V285.416H728.27V282.77H724.76V278.855H721.655ZM734.345 296V282.77H731.213V296H734.345ZM734.696 278.909C734.696 277.856 733.859 276.965 732.752 276.965C731.699 276.965 730.835 277.829 730.835 278.909C730.835 279.962 731.699 280.826 732.752 280.826C733.859 280.826 734.696 279.935 734.696 278.909ZM738.793 278.855V282.77H736.822V285.416H738.793V291.923C738.793 294.677 740.386 296.324 743.032 296.324C744.112 296.324 744.895 296.108 745.408 295.838V293.057C745.003 293.327 744.436 293.462 743.95 293.462C742.546 293.462 741.898 292.814 741.898 291.356V285.416H745.408V282.77H741.898V278.855H738.793ZM748.167 277.1V296H751.299V277.1H748.167ZM764.603 291.68C763.847 292.841 762.956 293.678 761.228 293.678C759.257 293.678 757.556 292.247 757.421 290.33H767.6C767.6 290.249 767.627 289.898 767.627 289.385C767.627 285.443 764.9 282.446 761.039 282.446C757.205 282.446 754.316 285.416 754.316 289.385C754.316 293.462 757.178 296.324 761.201 296.324C763.982 296.324 766.061 294.974 767.168 292.895L764.603 291.68ZM757.448 288.062C757.637 286.55 759.149 285.011 760.985 285.011C762.875 285.011 764.333 286.307 764.522 288.062H757.448Z" fill="#222525"/>
<path d="M389.673 215H393.513V205.304H404.009V215H407.849V192.6H404.009V201.656H393.513V192.6H389.673V215ZM423.958 209.88C423.062 211.256 422.006 212.248 419.958 212.248C417.622 212.248 415.606 210.552 415.446 208.28H427.51C427.51 208.184 427.542 207.768 427.542 207.16C427.542 202.488 424.31 198.936 419.734 198.936C415.19 198.936 411.766 202.456 411.766 207.16C411.766 211.992 415.158 215.384 419.926 215.384C423.222 215.384 425.686 213.784 426.998 211.32L423.958 209.88ZM415.478 205.592C415.702 203.8 417.494 201.976 419.67 201.976C421.91 201.976 423.638 203.512 423.862 205.592H415.478ZM443.07 199.32V201.464C441.918 199.832 439.934 198.936 437.758 198.936C433.438 198.936 430.11 202.52 430.11 207.16C430.11 211.8 433.438 215.384 437.758 215.384C439.934 215.384 441.918 214.36 443.07 212.728V215H446.718V199.32H443.07ZM433.822 207.16C433.822 204.44 435.87 202.296 438.526 202.296C441.182 202.296 443.23 204.44 443.23 207.16C443.23 209.88 441.182 212.024 438.526 212.024C435.87 212.024 433.822 209.88 433.822 207.16ZM466.969 215V192.6H463.289V201.464C462.137 199.864 460.153 198.936 457.977 198.936C453.657 198.936 450.329 202.552 450.329 207.16C450.329 211.832 453.657 215.384 457.977 215.384C460.153 215.384 462.137 214.36 463.289 212.76V215H466.969ZM454.041 207.16C454.041 204.44 456.089 202.296 458.745 202.296C461.401 202.296 463.449 204.44 463.449 207.16C463.449 209.88 461.401 212.024 458.745 212.024C456.089 212.024 454.041 209.88 454.041 207.16ZM475.284 215V199.32H471.572V215H475.284ZM475.7 194.744C475.7 193.496 474.708 192.44 473.396 192.44C472.148 192.44 471.124 193.464 471.124 194.744C471.124 195.992 472.148 197.016 473.396 197.016C474.708 197.016 475.7 195.96 475.7 194.744ZM483.596 206.744C483.596 204.056 485.068 202.36 487.276 202.36C489.516 202.36 490.764 203.832 490.764 206.264V215H494.476V205.56C494.476 201.496 492.204 198.936 488.396 198.936C486.188 198.936 484.556 199.928 483.596 201.4V199.32H479.884V215H483.596V206.744ZM510.532 212.312V214.072C510.532 217.112 508.804 218.968 505.988 218.968C504.004 218.968 502.308 217.976 501.348 216.216L498.404 218.072C499.748 220.664 502.5 222.2 505.988 222.2C511.108 222.2 514.18 218.904 514.18 214.04V199.32H510.532V201.432C509.476 199.896 507.556 198.936 505.38 198.936C501.124 198.936 497.86 202.424 497.86 206.936C497.86 211.448 501.124 214.84 505.38 214.84C507.524 214.84 509.476 213.816 510.532 212.312ZM510.692 206.936C510.692 209.56 508.708 211.64 506.148 211.64C503.588 211.64 501.604 209.56 501.604 206.936C501.604 204.344 503.588 202.264 506.148 202.264C508.708 202.264 510.692 204.344 510.692 206.936ZM533.775 198.936C528.975 198.936 525.423 202.552 525.423 207.16C525.423 211.768 528.975 215.384 533.775 215.384C538.575 215.384 542.127 211.768 542.127 207.16C542.127 202.552 538.575 198.936 533.775 198.936ZM533.775 202.328C536.399 202.328 538.447 204.472 538.447 207.16C538.447 209.848 536.399 211.992 533.775 211.992C531.151 211.992 529.103 209.848 529.103 207.16C529.103 204.472 531.151 202.328 533.775 202.328ZM549.409 206.744C549.409 204.056 550.881 202.36 553.089 202.36C555.329 202.36 556.577 203.832 556.577 206.264V215H560.289V205.56C560.289 201.496 558.017 198.936 554.209 198.936C552.001 198.936 550.369 199.928 549.409 201.4V199.32H545.697V215H549.409V206.744ZM575.865 209.88C574.969 211.256 573.913 212.248 571.865 212.248C569.529 212.248 567.513 210.552 567.353 208.28H579.417C579.417 208.184 579.449 207.768 579.449 207.16C579.449 202.488 576.217 198.936 571.641 198.936C567.097 198.936 563.673 202.456 563.673 207.16C563.673 211.992 567.065 215.384 571.833 215.384C575.129 215.384 577.593 213.784 578.905 211.32L575.865 209.88ZM567.385 205.592C567.609 203.8 569.401 201.976 571.577 201.976C573.817 201.976 575.545 203.512 575.769 205.592H567.385Z" fill="#222525"/>
<path d="M389.103 151.5H394.731V149.974H390.783V147.202H394.395V145.718H390.783V143.226H394.703V141.7H389.103V151.5ZM401.047 151.5H402.923L400.375 147.972L402.825 144.64H400.991L399.437 146.838L397.897 144.64H396.035L398.471 148.014L395.923 151.5H397.729L399.395 149.148L401.047 151.5ZM409.169 144.64V145.578C408.665 144.864 407.797 144.472 406.845 144.472C404.955 144.472 403.499 146.04 403.499 148.07C403.499 150.1 404.955 151.668 406.845 151.668C407.797 151.668 408.665 151.22 409.169 150.506V151.5H410.765V144.64H409.169ZM405.123 148.07C405.123 146.88 406.019 145.942 407.181 145.942C408.343 145.942 409.239 146.88 409.239 148.07C409.239 149.26 408.343 150.198 407.181 150.198C406.019 150.198 405.123 149.26 405.123 148.07ZM414.697 147.86C414.697 146.698 415.285 145.956 416.167 145.956C417.021 145.956 417.483 146.6 417.483 147.65V151.5H419.107V147.79C419.121 146.67 419.709 145.956 420.577 145.956C421.431 145.956 421.893 146.586 421.893 147.594V151.5H423.517V147.286C423.517 145.578 422.607 144.472 421.025 144.472C419.877 144.472 419.135 145.088 418.743 145.746C418.365 144.948 417.637 144.472 416.657 144.472C415.733 144.472 415.061 144.892 414.697 145.55V144.64H413.073V151.5H414.697V147.86ZM425.726 144.64V154.412H427.336V150.562C427.84 151.262 428.708 151.668 429.66 151.668C431.55 151.668 433.006 150.086 433.006 148.07C433.006 146.026 431.55 144.472 429.66 144.472C428.708 144.472 427.84 144.92 427.336 145.62V144.64H425.726ZM431.382 148.07C431.382 149.26 430.486 150.198 429.324 150.198C428.162 150.198 427.266 149.26 427.266 148.07C427.266 146.88 428.162 145.942 429.324 145.942C430.486 145.942 431.382 146.88 431.382 148.07ZM434.851 141.7V151.5H436.475V141.7H434.851ZM443.654 149.26C443.262 149.862 442.8 150.296 441.904 150.296C440.882 150.296 440 149.554 439.93 148.56H445.208C445.208 148.518 445.222 148.336 445.222 148.07C445.222 146.026 443.808 144.472 441.806 144.472C439.818 144.472 438.32 146.012 438.32 148.07C438.32 150.184 439.804 151.668 441.89 151.668C443.332 151.668 444.41 150.968 444.984 149.89L443.654 149.26ZM439.944 147.384C440.042 146.6 440.826 145.802 441.778 145.802C442.758 145.802 443.514 146.474 443.612 147.384H439.944Z" fill="#6C6C72"/>
<path d="M271.855 151.5H273.535V147.258H278.127V151.5H279.807V141.7H278.127V145.662H273.535V141.7H271.855V151.5ZM281.507 143.254H284.223V151.5H285.917V143.254H288.633V141.7H281.507V143.254ZM299.257 141.7L295.813 149.134L292.369 141.7H290.325V151.5H291.963V144.542L295.225 151.5H296.331L299.607 144.528V151.5H301.245V141.7H299.257ZM303.826 141.7V151.5H308.95V149.932H305.506V141.7H303.826Z" fill="#6C6C72"/>
<path d="M287.873 637.16V648.328H289.713V643.928C290.289 644.728 291.281 645.192 292.369 645.192C294.529 645.192 296.193 643.384 296.193 641.08C296.193 638.744 294.529 636.968 292.369 636.968C291.281 636.968 290.289 637.48 289.713 638.28V637.16H287.873ZM294.337 641.08C294.337 642.44 293.313 643.512 291.985 643.512C290.657 643.512 289.633 642.44 289.633 641.08C289.633 639.72 290.657 638.648 291.985 638.648C293.313 638.648 294.337 639.72 294.337 641.08Z" fill="#3B3C41"/>
<path d="M284.44 555.372C284.44 554.028 285.176 553.18 286.28 553.18C287.4 553.18 288.024 553.916 288.024 555.132V559.5H289.88V554.78C289.88 552.748 288.744 551.468 286.84 551.468C285.736 551.468 284.92 551.964 284.44 552.7V548.3H282.584V559.5H284.44V555.372ZM293.588 554.732C294.036 554.108 294.676 553.676 295.524 553.676C296.724 553.676 297.652 554.588 297.652 555.804C297.652 556.988 296.74 557.948 295.556 557.948C294.34 557.948 293.572 557.18 293.46 556.172H291.604C291.636 558.236 293.252 559.692 295.572 559.692C297.812 559.692 299.556 557.98 299.556 555.708C299.556 553.708 298.052 552.06 295.956 552.06C295.108 552.06 294.244 552.364 293.764 552.844L294.132 550.188H298.772V548.508H292.676L291.876 554.38L293.588 554.732Z" fill="#3B3C41"/>
<path d="M284.721 464.653C284.721 463.309 285.457 462.461 286.561 462.461C287.681 462.461 288.305 463.197 288.305 464.413V468.781H290.161V464.061C290.161 462.029 289.025 460.749 287.121 460.749C286.017 460.749 285.201 461.245 284.721 461.981V457.581H282.865V468.781H284.721V464.653ZM291.597 466.365H297.085V468.781H298.925V466.365H300.461V464.765H298.925V457.805H296.685L291.597 465.021V466.365ZM293.693 464.765L297.085 459.965V464.765H293.693Z" fill="#3B3C41"/>
<path d="M284.494 381.872C284.494 380.528 285.23 379.68 286.334 379.68C287.454 379.68 288.078 380.416 288.078 381.632V386H289.934V381.28C289.934 379.248 288.798 377.968 286.894 377.968C285.79 377.968 284.974 378.464 284.494 379.2V374.8H282.638V386H284.494V381.872ZM295.482 379.504H294.938V381.024H295.482C296.666 381.024 297.562 381.696 297.562 382.704C297.562 383.776 296.746 384.448 295.626 384.448C294.458 384.448 293.61 383.584 293.53 382.448H291.69C291.722 384.752 293.242 386.192 295.578 386.192C297.818 386.192 299.466 384.8 299.466 382.8C299.466 381.568 298.746 380.576 297.562 380.144C298.474 379.648 298.986 378.816 298.986 377.792C299.002 376.096 297.546 374.816 295.53 374.816C293.45 374.816 291.962 376.192 291.93 378.336H293.754C293.786 377.296 294.474 376.544 295.498 376.544C296.442 376.544 297.114 377.168 297.114 378C297.114 378.8 296.362 379.504 295.482 379.504Z" fill="#3B3C41"/>
<path d="M284.588 290.503C284.588 289.159 285.324 288.311 286.428 288.311C287.548 288.311 288.172 289.047 288.172 290.263V294.631H290.028V289.911C290.028 287.879 288.892 286.599 286.988 286.599C285.884 286.599 285.068 287.095 284.588 287.831V283.431H282.732V294.631H284.588V290.503ZM295.512 283.447C293.272 283.447 291.784 285.047 291.784 287.383H293.64C293.656 286.167 294.376 285.223 295.512 285.223C296.536 285.223 297.336 285.991 297.336 287.015C297.336 287.735 296.952 288.407 296.024 289.255L291.736 293.111V294.631H299.352V292.919H294.44L297.064 290.615C298.6 289.255 299.24 288.231 299.24 286.903C299.24 284.887 297.656 283.447 295.512 283.447Z" fill="#3B3C41"/>
<path d="M284.666 204.872C284.666 203.528 285.402 202.68 286.506 202.68C287.626 202.68 288.25 203.416 288.25 204.632V209H290.106V204.28C290.106 202.248 288.97 200.968 287.066 200.968C285.962 200.968 285.146 201.464 284.666 202.2V197.8H282.81V209H284.666V204.872ZM295.558 209V198.008H291.734V199.768H293.67V209H295.558Z" fill="#3B3C41"/>
<path d="M899.233 648.276V637.284H895.841V638.628H897.825V648.276H899.233ZM909.391 644.564C909.391 642.5 907.807 640.836 905.679 640.836C905.087 640.836 904.607 641.012 904.287 641.236L906.991 637.284H905.295L902.671 641.252C901.775 642.596 901.439 643.62 901.439 644.548C901.439 646.772 903.135 648.452 905.423 648.452C907.647 648.452 909.391 646.74 909.391 644.564ZM907.967 644.628C907.967 646.004 906.831 647.124 905.407 647.124C903.967 647.124 902.863 646.004 902.863 644.612C902.863 643.188 903.983 642.116 905.423 642.116C906.831 642.116 907.967 643.188 907.967 644.628ZM916.837 636.036H915.461L909.573 649.876H910.949L916.837 636.036ZM920.944 637.108C918.816 637.108 917.392 638.676 917.392 640.884H918.768C918.784 639.556 919.632 638.436 920.944 638.436C922.128 638.436 923.072 639.332 923.072 640.516C923.072 641.332 922.672 642.084 921.696 643.012L917.312 647.124V648.276H924.64V646.964H919.392L922.496 644.068C923.888 642.756 924.496 641.732 924.496 640.452C924.496 638.5 922.976 637.108 920.944 637.108ZM925.571 645.7H931.235V648.276H932.627V645.7H934.163V644.452H932.627V637.3H931.027L925.571 644.628V645.7ZM927.235 644.452L931.235 639.108V644.452H927.235ZM937.248 651.604V647.108C937.824 647.956 938.864 648.452 940 648.452C942.208 648.452 943.904 646.676 943.904 644.388C943.904 642.084 942.208 640.324 940 640.324C938.864 640.324 937.808 640.884 937.248 641.732V640.5H935.888V651.604H937.248ZM942.512 644.388C942.512 645.956 941.36 647.188 939.84 647.188C938.32 647.188 937.168 645.956 937.168 644.388C937.168 642.82 938.32 641.588 939.84 641.588C941.36 641.588 942.512 642.82 942.512 644.388ZM950.252 648.276H951.868L948.972 644.276L951.74 640.5H950.172L948.156 643.316L946.156 640.5H944.556L947.324 644.308L944.428 648.276H945.98L948.124 645.268L950.252 648.276Z" fill="#3B3C41"/>
<path d="M899.233 560V549.008H895.841V550.352H897.825V560H899.233ZM905.119 548.832C903.327 548.832 901.759 549.968 901.759 551.728C901.759 552.928 902.511 553.792 903.343 554.096C902.431 554.416 901.327 555.328 901.327 556.88C901.327 558.928 903.151 560.176 905.119 560.176C907.087 560.176 908.911 558.928 908.911 556.88C908.911 555.328 907.807 554.416 906.895 554.096C907.727 553.792 908.479 552.928 908.479 551.728C908.479 549.968 906.911 548.832 905.119 548.832ZM907.503 556.816C907.503 558.048 906.399 558.864 905.119 558.864C903.839 558.864 902.735 558.048 902.735 556.816C902.735 555.6 903.807 554.784 905.119 554.784C906.431 554.784 907.503 555.6 907.503 556.816ZM905.119 550.128C906.159 550.128 907.103 550.8 907.103 551.824C907.103 552.848 906.159 553.52 905.119 553.52C904.079 553.52 903.135 552.848 903.135 551.824C903.135 550.8 904.079 550.128 905.119 550.128ZM916.337 547.76H914.961L909.073 561.6H910.449L916.337 547.76ZM920.444 548.832C918.316 548.832 916.892 550.4 916.892 552.608H918.268C918.284 551.28 919.132 550.16 920.444 550.16C921.628 550.16 922.572 551.056 922.572 552.24C922.572 553.056 922.172 553.808 921.196 554.736L916.812 558.848V560H924.14V558.688H918.892L921.996 555.792C923.388 554.48 923.996 553.456 923.996 552.176C923.996 550.224 922.476 548.832 920.444 548.832ZM932.413 550.096V549.024H925.293V550.336H930.765L926.269 560H927.821L932.413 550.096ZM935.53 563.328V558.832C936.106 559.68 937.146 560.176 938.282 560.176C940.49 560.176 942.186 558.4 942.186 556.112C942.186 553.808 940.49 552.048 938.282 552.048C937.146 552.048 936.09 552.608 935.53 553.456V552.224H934.17V563.328H935.53ZM940.794 556.112C940.794 557.68 939.642 558.912 938.122 558.912C936.602 558.912 935.45 557.68 935.45 556.112C935.45 554.544 936.602 553.312 938.122 553.312C939.642 553.312 940.794 554.544 940.794 556.112ZM948.533 560H950.149L947.253 556L950.021 552.224H948.453L946.437 555.04L944.437 552.224H942.837L945.605 556.032L942.709 560H944.261L946.405 556.992L948.533 560Z" fill="#3B3C41"/>
<path d="M899.569 459.832C897.441 459.832 896.017 461.4 896.017 463.608H897.393C897.409 462.28 898.257 461.16 899.569 461.16C900.753 461.16 901.697 462.056 901.697 463.24C901.697 464.056 901.297 464.808 900.321 465.736L895.937 469.848V471H903.265V469.688H898.017L901.121 466.792C902.513 465.48 903.121 464.456 903.121 463.176C903.121 461.224 901.601 459.832 899.569 459.832ZM907.937 471V460.008H904.545V461.352H906.529V471H907.937ZM916.494 458.76H915.118L909.23 472.6H910.606L916.494 458.76ZM920.601 459.832C918.473 459.832 917.049 461.4 917.049 463.608H918.425C918.441 462.28 919.289 461.16 920.601 461.16C921.785 461.16 922.729 462.056 922.729 463.24C922.729 464.056 922.329 464.808 921.353 465.736L916.969 469.848V471H924.297V469.688H919.049L922.153 466.792C923.545 465.48 924.153 464.456 924.153 463.176C924.153 461.224 922.633 459.832 920.601 459.832ZM932.57 461.096V460.024H925.45V461.336H930.922L926.426 471H927.978L932.57 461.096ZM935.686 474.328V469.832C936.262 470.68 937.302 471.176 938.438 471.176C940.646 471.176 942.342 469.4 942.342 467.112C942.342 464.808 940.646 463.048 938.438 463.048C937.302 463.048 936.246 463.608 935.686 464.456V463.224H934.326V474.328H935.686ZM940.95 467.112C940.95 468.68 939.798 469.912 938.278 469.912C936.758 469.912 935.606 468.68 935.606 467.112C935.606 465.544 936.758 464.312 938.278 464.312C939.798 464.312 940.95 465.544 940.95 467.112ZM948.689 471H950.305L947.409 467L950.177 463.224H948.609L946.593 466.04L944.593 463.224H942.993L945.761 467.032L942.865 471H944.417L946.561 467.992L948.689 471Z" fill="#3B3C41"/>
<path d="M899.569 372.332C897.441 372.332 896.017 373.9 896.017 376.108H897.393C897.409 374.78 898.257 373.66 899.569 373.66C900.753 373.66 901.697 374.556 901.697 375.74C901.697 376.556 901.297 377.308 900.321 378.236L895.937 382.348V383.5H903.265V382.188H898.017L901.121 379.292C902.513 377.98 903.121 376.956 903.121 375.676C903.121 373.724 901.601 372.332 899.569 372.332ZM904.196 380.924H909.86V383.5H911.252V380.924H912.788V379.676H911.252V372.524H909.652L904.196 379.852V380.924ZM905.86 379.676L909.86 374.332V379.676H905.86ZM920.337 371.26H918.961L913.073 385.1H914.449L920.337 371.26ZM924.401 377.1H923.793V378.348H924.401C925.729 378.348 926.769 379.164 926.769 380.332C926.769 381.532 925.761 382.348 924.449 382.348C923.089 382.348 922.177 381.388 922.081 380.076H920.689C920.721 382.236 922.209 383.676 924.449 383.676C926.593 383.676 928.193 382.3 928.193 380.348C928.193 379.1 927.409 378.044 926.193 377.644C927.169 377.18 927.729 376.284 927.729 375.244C927.729 373.58 926.353 372.332 924.417 372.332C922.433 372.332 920.993 373.676 920.961 375.724H922.337C922.369 374.524 923.201 373.644 924.385 373.644C925.489 373.644 926.337 374.38 926.337 375.372C926.337 376.284 925.409 377.1 924.401 377.1ZM933.163 372.332C931.035 372.332 929.611 373.9 929.611 376.108H930.987C931.003 374.78 931.851 373.66 933.163 373.66C934.347 373.66 935.291 374.556 935.291 375.74C935.291 376.556 934.891 377.308 933.915 378.236L929.531 382.348V383.5H936.859V382.188H931.611L934.715 379.292C936.107 377.98 936.715 376.956 936.715 375.676C936.715 373.724 935.195 372.332 933.163 372.332ZM940.17 386.828V382.332C940.746 383.18 941.786 383.676 942.922 383.676C945.13 383.676 946.826 381.9 946.826 379.612C946.826 377.308 945.13 375.548 942.922 375.548C941.786 375.548 940.73 376.108 940.17 376.956V375.724H938.81V386.828H940.17ZM945.434 379.612C945.434 381.18 944.282 382.412 942.762 382.412C941.242 382.412 940.09 381.18 940.09 379.612C940.09 378.044 941.242 376.812 942.762 376.812C944.282 376.812 945.434 378.044 945.434 379.612ZM953.174 383.5H954.79L951.894 379.5L954.662 375.724H953.094L951.078 378.54L949.078 375.724H947.478L950.246 379.532L947.35 383.5H948.902L951.046 380.492L953.174 383.5Z" fill="#3B3C41"/>
<path d="M899.569 283.832C897.441 283.832 896.017 285.4 896.017 287.608H897.393C897.409 286.28 898.257 285.16 899.569 285.16C900.753 285.16 901.697 286.056 901.697 287.24C901.697 288.056 901.297 288.808 900.321 289.736L895.937 293.848V295H903.265V293.688H898.017L901.121 290.792C902.513 289.48 903.121 288.456 903.121 287.176C903.121 285.224 901.601 283.832 899.569 283.832ZM911.538 285.096V284.024H904.418V285.336H909.89L905.394 295H906.946L911.538 285.096ZM917.681 282.76H916.305L910.417 296.6H911.793L917.681 282.76ZM921.744 288.6H921.136V289.848H921.744C923.072 289.848 924.112 290.664 924.112 291.832C924.112 293.032 923.104 293.848 921.792 293.848C920.432 293.848 919.52 292.888 919.424 291.576H918.032C918.064 293.736 919.552 295.176 921.792 295.176C923.936 295.176 925.536 293.8 925.536 291.848C925.536 290.6 924.752 289.544 923.536 289.144C924.512 288.68 925.072 287.784 925.072 286.744C925.072 285.08 923.696 283.832 921.76 283.832C919.776 283.832 918.336 285.176 918.304 287.224H919.68C919.712 286.024 920.544 285.144 921.728 285.144C922.832 285.144 923.68 285.88 923.68 286.872C923.68 287.784 922.752 288.6 921.744 288.6ZM934.875 291.288C934.875 289.224 933.291 287.56 931.163 287.56C930.571 287.56 930.091 287.736 929.771 287.96L932.475 284.008H930.779L928.155 287.976C927.259 289.32 926.923 290.344 926.923 291.272C926.923 293.496 928.619 295.176 930.907 295.176C933.131 295.176 934.875 293.464 934.875 291.288ZM933.451 291.352C933.451 292.728 932.315 293.848 930.891 293.848C929.451 293.848 928.347 292.728 928.347 291.336C928.347 289.912 929.467 288.84 930.907 288.84C932.315 288.84 933.451 289.912 933.451 291.352ZM938.17 298.328V293.832C938.746 294.68 939.786 295.176 940.922 295.176C943.13 295.176 944.826 293.4 944.826 291.112C944.826 288.808 943.13 287.048 940.922 287.048C939.786 287.048 938.73 287.608 938.17 288.456V287.224H936.81V298.328H938.17ZM943.434 291.112C943.434 292.68 942.282 293.912 940.762 293.912C939.242 293.912 938.09 292.68 938.09 291.112C938.09 289.544 939.242 288.312 940.762 288.312C942.282 288.312 943.434 289.544 943.434 291.112ZM951.174 295H952.79L949.894 291L952.662 287.224H951.094L949.078 290.04L947.078 287.224H945.478L948.246 291.032L945.35 295H946.902L949.046 291.992L951.174 295Z" fill="#3B3C41"/>
<path d="M899.697 204.6H899.089V205.848H899.697C901.025 205.848 902.065 206.664 902.065 207.832C902.065 209.032 901.057 209.848 899.745 209.848C898.385 209.848 897.473 208.888 897.377 207.576H895.985C896.017 209.736 897.505 211.176 899.745 211.176C901.889 211.176 903.489 209.8 903.489 207.848C903.489 206.6 902.705 205.544 901.489 205.144C902.465 204.68 903.025 203.784 903.025 202.744C903.025 201.08 901.649 199.832 899.713 199.832C897.729 199.832 896.289 201.176 896.257 203.224H897.633C897.665 202.024 898.497 201.144 899.681 201.144C900.785 201.144 901.633 201.88 901.633 202.872C901.633 203.784 900.705 204.6 899.697 204.6ZM908.46 199.832C906.332 199.832 904.908 201.4 904.908 203.608H906.284C906.3 202.28 907.148 201.16 908.46 201.16C909.644 201.16 910.588 202.056 910.588 203.24C910.588 204.056 910.188 204.808 909.212 205.736L904.828 209.848V211H912.156V209.688H906.908L910.012 206.792C911.404 205.48 912.012 204.456 912.012 203.176C912.012 201.224 910.492 199.832 908.46 199.832ZM919.931 198.76H918.555L912.667 212.6H914.043L919.931 198.76ZM919.149 208.424H924.813V211H926.205V208.424H927.741V207.176H926.205V200.024H924.605L919.149 207.352V208.424ZM920.813 207.176L924.813 201.832V207.176H920.813ZM933.436 211.176C936.428 211.176 937.868 208.472 937.868 205.512C937.868 202.536 936.428 199.832 933.436 199.832C930.444 199.832 929.004 202.536 929.004 205.512C929.004 208.472 930.444 211.176 933.436 211.176ZM933.436 209.848C931.356 209.848 930.428 207.752 930.428 205.512C930.428 203.272 931.356 201.16 933.436 201.16C935.516 201.16 936.444 203.272 936.444 205.512C936.444 207.752 935.516 209.848 933.436 209.848ZM941.405 214.328V209.832C941.981 210.68 943.021 211.176 944.157 211.176C946.365 211.176 948.061 209.4 948.061 207.112C948.061 204.808 946.365 203.048 944.157 203.048C943.021 203.048 941.965 203.608 941.405 204.456V203.224H940.045V214.328H941.405ZM946.669 207.112C946.669 208.68 945.517 209.912 943.997 209.912C942.477 209.912 941.325 208.68 941.325 207.112C941.325 205.544 942.477 204.312 943.997 204.312C945.517 204.312 946.669 205.544 946.669 207.112ZM954.408 211H956.024L953.128 207L955.896 203.224H954.328L952.312 206.04L950.312 203.224H948.712L951.48 207.032L948.584 211H950.136L952.28 207.992L954.408 211Z" fill="#3B3C41"/>
<path d="M899.061 147.244H902.603V145.718H899.061V143.226H902.855V141.7H897.381V151.5H899.061V147.244ZM907.714 144.472C905.614 144.472 904.06 146.054 904.06 148.07C904.06 150.086 905.614 151.668 907.714 151.668C909.814 151.668 911.368 150.086 911.368 148.07C911.368 146.054 909.814 144.472 907.714 144.472ZM907.714 145.956C908.862 145.956 909.758 146.894 909.758 148.07C909.758 149.246 908.862 150.184 907.714 150.184C906.566 150.184 905.67 149.246 905.67 148.07C905.67 146.894 906.566 145.956 907.714 145.956ZM914.834 147.888C914.834 146.712 915.478 145.97 916.444 145.97C917.424 145.97 917.97 146.614 917.97 147.678V151.5H919.594V147.37C919.594 145.592 918.6 144.472 916.934 144.472C915.968 144.472 915.254 144.906 914.834 145.55V144.64H913.21V151.5H914.834V147.888ZM922.028 142.61V144.64H921.006V146.012H922.028V149.386C922.028 150.814 922.854 151.668 924.226 151.668C924.786 151.668 925.192 151.556 925.458 151.416V149.974C925.248 150.114 924.954 150.184 924.702 150.184C923.974 150.184 923.638 149.848 923.638 149.092V146.012H925.458V144.64H923.638V142.61H922.028ZM930.182 149.918C930.574 150.982 931.568 151.668 932.842 151.668C934.186 151.668 935.362 150.856 935.362 149.456C935.362 148.546 934.844 147.874 933.556 147.454L932.744 147.188C932.24 147.02 931.974 146.782 931.974 146.446C931.974 146.054 932.338 145.816 932.8 145.816C933.318 145.816 933.738 146.18 933.99 146.726L935.292 146.026C934.858 145.074 933.92 144.472 932.8 144.472C931.498 144.472 930.434 145.284 930.434 146.572C930.434 147.524 930.994 148.182 932.184 148.56L933.01 148.826C933.542 148.994 933.794 149.204 933.794 149.568C933.794 150.044 933.374 150.282 932.87 150.282C932.254 150.282 931.736 149.862 931.498 149.232L930.182 149.918ZM938.704 151.5V144.64H937.08V151.5H938.704ZM938.886 142.638C938.886 142.092 938.452 141.63 937.878 141.63C937.332 141.63 936.884 142.078 936.884 142.638C936.884 143.184 937.332 143.632 937.878 143.632C938.452 143.632 938.886 143.17 938.886 142.638ZM946.134 144.64H940.59V145.998H943.992L940.366 150.492V151.5H946.19V150.142H942.48L946.134 145.62V144.64ZM952.561 149.26C952.169 149.862 951.707 150.296 950.811 150.296C949.789 150.296 948.907 149.554 948.837 148.56H954.115C954.115 148.518 954.129 148.336 954.129 148.07C954.129 146.026 952.715 144.472 950.713 144.472C948.725 144.472 947.227 146.012 947.227 148.07C947.227 150.184 948.711 151.668 950.797 151.668C952.239 151.668 953.317 150.968 953.891 149.89L952.561 149.26ZM948.851 147.384C948.949 146.6 949.733 145.802 950.685 145.802C951.665 145.802 952.421 146.474 952.519 147.384H948.851ZM965.099 140.79H963.489L958.337 152.9H959.947L965.099 140.79ZM970.181 141.7V151.5H975.305V149.932H971.861V141.7H970.181ZM978.507 151.5V144.64H976.883V151.5H978.507ZM978.689 142.638C978.689 142.092 978.255 141.63 977.681 141.63C977.135 141.63 976.687 142.078 976.687 142.638C976.687 143.184 977.135 143.632 977.681 143.632C978.255 143.632 978.689 143.17 978.689 142.638ZM982.424 147.888C982.424 146.712 983.068 145.97 984.034 145.97C985.014 145.97 985.56 146.614 985.56 147.678V151.5H987.184V147.37C987.184 145.592 986.19 144.472 984.524 144.472C983.558 144.472 982.844 144.906 982.424 145.55V144.64H980.8V151.5H982.424V147.888ZM994.279 149.26C993.887 149.862 993.425 150.296 992.529 150.296C991.507 150.296 990.625 149.554 990.555 148.56H995.833C995.833 148.518 995.847 148.336 995.847 148.07C995.847 146.026 994.433 144.472 992.431 144.472C990.443 144.472 988.945 146.012 988.945 148.07C988.945 150.184 990.429 151.668 992.515 151.668C993.957 151.668 995.035 150.968 995.609 149.89L994.279 149.26ZM990.569 147.384C990.667 146.6 991.451 145.802 992.403 145.802C993.383 145.802 994.139 146.474 994.237 147.384H990.569ZM1002.88 147.888C1002.88 146.712 1003.53 145.97 1004.49 145.97C1005.47 145.97 1006.02 146.614 1006.02 147.678V151.5H1007.64V147.37C1007.64 145.592 1006.65 144.472 1004.98 144.472C1004.02 144.472 1003.3 144.906 1002.88 145.55V141.7H1001.26V151.5H1002.88V147.888ZM1014.74 149.26C1014.35 149.862 1013.88 150.296 1012.99 150.296C1011.97 150.296 1011.08 149.554 1011.01 148.56H1016.29C1016.29 148.518 1016.31 148.336 1016.31 148.07C1016.31 146.026 1014.89 144.472 1012.89 144.472C1010.9 144.472 1009.4 146.012 1009.4 148.07C1009.4 150.184 1010.89 151.668 1012.97 151.668C1014.42 151.668 1015.49 150.968 1016.07 149.89L1014.74 149.26ZM1011.03 147.384C1011.13 146.6 1011.91 145.802 1012.86 145.802C1013.84 145.802 1014.6 146.474 1014.7 147.384H1011.03ZM1019.71 151.5V144.64H1018.09V151.5H1019.71ZM1019.89 142.638C1019.89 142.092 1019.46 141.63 1018.89 141.63C1018.34 141.63 1017.89 142.078 1017.89 142.638C1017.89 143.184 1018.34 143.632 1018.89 143.632C1019.46 143.632 1019.89 143.17 1019.89 142.638ZM1027.1 150.324V151.094C1027.1 152.424 1026.35 153.236 1025.11 153.236C1024.25 153.236 1023.5 152.802 1023.08 152.032L1021.8 152.844C1022.38 153.978 1023.59 154.65 1025.11 154.65C1027.35 154.65 1028.7 153.208 1028.7 151.08V144.64H1027.1V145.564C1026.64 144.892 1025.8 144.472 1024.85 144.472C1022.99 144.472 1021.56 145.998 1021.56 147.972C1021.56 149.946 1022.99 151.43 1024.85 151.43C1025.79 151.43 1026.64 150.982 1027.1 150.324ZM1027.17 147.972C1027.17 149.12 1026.3 150.03 1025.18 150.03C1024.06 150.03 1023.2 149.12 1023.2 147.972C1023.2 146.838 1024.06 145.928 1025.18 145.928C1026.3 145.928 1027.17 146.838 1027.17 147.972ZM1032.62 147.888C1032.62 146.712 1033.26 145.97 1034.23 145.97C1035.21 145.97 1035.75 146.614 1035.75 147.678V151.5H1037.38V147.37C1037.38 145.592 1036.38 144.472 1034.72 144.472C1033.75 144.472 1033.04 144.906 1032.62 145.55V141.7H1030.99V151.5H1032.62V147.888ZM1039.81 142.61V144.64H1038.79V146.012H1039.81V149.386C1039.81 150.814 1040.64 151.668 1042.01 151.668C1042.57 151.668 1042.98 151.556 1043.24 151.416V149.974C1043.03 150.114 1042.74 150.184 1042.49 150.184C1041.76 150.184 1041.42 149.848 1041.42 149.092V146.012H1043.24V144.64H1041.42V142.61H1039.81Z" fill="#6C6C72"/>
<path d="M1133.85 643.524H1134.94L1138.36 648.276H1140.04L1136.52 643.46C1138.15 643.172 1139.3 642.036 1139.3 640.308C1139.3 638.244 1137.82 637.076 1135.7 637.076H1132.42V648.276H1133.85V643.524ZM1133.85 638.388H1135.69C1136.97 638.388 1137.86 639.06 1137.86 640.308C1137.86 641.54 1136.97 642.26 1135.69 642.26H1133.85V638.388ZM1144.59 648.452C1146.16 648.452 1147.35 647.636 1147.99 646.468L1146.87 645.892C1146.37 646.66 1145.78 647.22 1144.61 647.22C1143.27 647.22 1142.1 646.196 1142 644.82H1148.26C1148.26 644.82 1148.27 644.628 1148.27 644.324C1148.27 642.116 1146.69 640.324 1144.5 640.324C1142.29 640.324 1140.63 642.068 1140.63 644.388C1140.63 646.756 1142.29 648.452 1144.59 648.452ZM1142.03 643.684C1142.16 642.628 1143.2 641.524 1144.47 641.524C1145.75 641.524 1146.74 642.452 1146.88 643.684H1142.03ZM1156.2 646.788V647.86C1156.2 649.508 1155.22 650.548 1153.7 650.548C1152.62 650.548 1151.69 650.004 1151.14 649.012L1150.06 649.78C1150.78 651.076 1152.09 651.796 1153.7 651.796C1156.04 651.796 1157.56 650.244 1157.56 647.828V640.5H1156.2V641.668C1155.64 640.82 1154.62 640.324 1153.51 640.324C1151.38 640.324 1149.72 642.052 1149.72 644.276C1149.72 646.5 1151.38 648.196 1153.51 648.196C1154.62 648.196 1155.66 647.636 1156.2 646.788ZM1156.28 644.276C1156.28 645.78 1155.16 646.964 1153.69 646.964C1152.22 646.964 1151.11 645.78 1151.11 644.276C1151.11 642.772 1152.22 641.588 1153.69 641.588C1155.16 641.588 1156.28 642.772 1156.28 644.276ZM1165.58 644.564C1165.58 646.148 1164.72 647.172 1163.4 647.172C1162.09 647.172 1161.39 646.292 1161.39 644.9V640.5H1160.01V645.06C1160.01 647.124 1161.15 648.452 1163.12 648.452C1164.28 648.452 1165.1 647.924 1165.58 647.156V648.276H1166.96V640.5H1165.58V644.564ZM1169.51 637.076V648.276H1170.89V637.076H1169.51ZM1179.55 640.5V641.684C1178.97 640.82 1177.93 640.324 1176.8 640.324C1174.59 640.324 1172.89 642.1 1172.89 644.388C1172.89 646.692 1174.59 648.452 1176.8 648.452C1177.93 648.452 1178.99 647.892 1179.55 647.028V648.276H1180.91V640.5H1179.55ZM1179.63 644.388C1179.63 645.956 1178.48 647.188 1176.96 647.188C1175.44 647.188 1174.28 645.956 1174.28 644.388C1174.28 642.82 1175.44 641.588 1176.96 641.588C1178.48 641.588 1179.63 642.82 1179.63 644.388ZM1187.53 640.404C1187.53 640.404 1187.39 640.372 1187.2 640.372C1186.17 640.372 1185.16 640.98 1184.81 641.876V640.5H1183.47V648.276H1184.83V644.58C1184.83 642.9 1185.71 641.748 1187.15 641.748C1187.39 641.748 1187.53 641.78 1187.53 641.78V640.404Z" fill="#3B3C41"/>
<path d="M1142.86 548.8L1138.5 558L1134.15 548.8H1132.42V560H1133.82V551.28L1137.99 560H1138.97L1143.14 551.28V560H1144.54V548.8H1142.86ZM1150.66 560.176C1152.22 560.176 1153.41 559.36 1154.05 558.192L1152.93 557.616C1152.43 558.384 1151.84 558.944 1150.67 558.944C1149.33 558.944 1148.16 557.92 1148.06 556.544H1154.32C1154.32 556.544 1154.34 556.352 1154.34 556.048C1154.34 553.84 1152.75 552.048 1150.56 552.048C1148.35 552.048 1146.69 553.792 1146.69 556.112C1146.69 558.48 1148.35 560.176 1150.66 560.176ZM1148.1 555.408C1148.22 554.352 1149.26 553.248 1150.53 553.248C1151.81 553.248 1152.8 554.176 1152.94 555.408H1148.1ZM1162.44 548.8V553.392C1161.86 552.544 1160.82 552.048 1159.69 552.048C1157.48 552.048 1155.78 553.824 1155.78 556.112C1155.78 558.416 1157.48 560.176 1159.69 560.176C1160.82 560.176 1161.88 559.616 1162.44 558.768V560H1163.8V548.8H1162.44ZM1162.52 556.112C1162.52 557.68 1161.37 558.912 1159.85 558.912C1158.33 558.912 1157.17 557.68 1157.17 556.112C1157.17 554.544 1158.33 553.312 1159.85 553.312C1161.37 553.312 1162.52 554.544 1162.52 556.112ZM1167.97 549.92C1167.97 549.408 1167.56 548.992 1167.05 548.992C1166.53 548.992 1166.12 549.408 1166.12 549.92C1166.12 550.432 1166.53 550.848 1167.05 550.848C1167.56 550.848 1167.97 550.432 1167.97 549.92ZM1166.36 552.224V560H1167.73V552.224H1166.36ZM1175.75 556.288C1175.75 557.872 1174.89 558.896 1173.58 558.896C1172.26 558.896 1171.56 558.016 1171.56 556.624V552.224H1170.18V556.784C1170.18 558.848 1171.32 560.176 1173.29 560.176C1174.46 560.176 1175.27 559.648 1175.75 558.88V560H1177.13V552.224H1175.75V556.288ZM1181.06 555.92C1181.06 554.336 1181.85 553.312 1183.05 553.312C1184.2 553.312 1184.81 554.192 1184.81 555.584V560H1186.18V555.92C1186.18 554.336 1186.97 553.312 1188.17 553.312C1189.33 553.312 1189.93 554.176 1189.93 555.552V560H1191.3V555.312C1191.3 553.312 1190.23 552.048 1188.44 552.048C1186.97 552.048 1186.17 552.912 1185.78 553.568C1185.32 552.624 1184.49 552.048 1183.33 552.048C1182.26 552.048 1181.48 552.544 1181.05 553.344V552.224H1179.69V560H1181.06V555.92Z" fill="#3B3C41"/>
<path d="M1142.86 460.8L1138.5 470L1134.15 460.8H1132.42V472H1133.82V463.28L1137.99 472H1138.97L1143.14 463.28V472H1144.54V460.8H1142.86ZM1150.66 472.176C1152.22 472.176 1153.41 471.36 1154.05 470.192L1152.93 469.616C1152.43 470.384 1151.84 470.944 1150.67 470.944C1149.33 470.944 1148.16 469.92 1148.06 468.544H1154.32C1154.32 468.544 1154.34 468.352 1154.34 468.048C1154.34 465.84 1152.75 464.048 1150.56 464.048C1148.35 464.048 1146.69 465.792 1146.69 468.112C1146.69 470.48 1148.35 472.176 1150.66 472.176ZM1148.1 467.408C1148.22 466.352 1149.26 465.248 1150.53 465.248C1151.81 465.248 1152.8 466.176 1152.94 467.408H1148.1ZM1162.44 460.8V465.392C1161.86 464.544 1160.82 464.048 1159.69 464.048C1157.48 464.048 1155.78 465.824 1155.78 468.112C1155.78 470.416 1157.48 472.176 1159.69 472.176C1160.82 472.176 1161.88 471.616 1162.44 470.768V472H1163.8V460.8H1162.44ZM1162.52 468.112C1162.52 469.68 1161.37 470.912 1159.85 470.912C1158.33 470.912 1157.17 469.68 1157.17 468.112C1157.17 466.544 1158.33 465.312 1159.85 465.312C1161.37 465.312 1162.52 466.544 1162.52 468.112ZM1167.97 461.92C1167.97 461.408 1167.56 460.992 1167.05 460.992C1166.53 460.992 1166.12 461.408 1166.12 461.92C1166.12 462.432 1166.53 462.848 1167.05 462.848C1167.56 462.848 1167.97 462.432 1167.97 461.92ZM1166.36 464.224V472H1167.73V464.224H1166.36ZM1175.75 468.288C1175.75 469.872 1174.89 470.896 1173.58 470.896C1172.26 470.896 1171.56 470.016 1171.56 468.624V464.224H1170.18V468.784C1170.18 470.848 1171.32 472.176 1173.29 472.176C1174.46 472.176 1175.27 471.648 1175.75 470.88V472H1177.13V464.224H1175.75V468.288ZM1181.06 467.92C1181.06 466.336 1181.85 465.312 1183.05 465.312C1184.2 465.312 1184.81 466.192 1184.81 467.584V472H1186.18V467.92C1186.18 466.336 1186.97 465.312 1188.17 465.312C1189.33 465.312 1189.93 466.176 1189.93 467.552V472H1191.3V467.312C1191.3 465.312 1190.23 464.048 1188.44 464.048C1186.97 464.048 1186.17 464.912 1185.78 465.568C1185.32 464.624 1184.49 464.048 1183.33 464.048C1182.26 464.048 1181.48 464.544 1181.05 465.344V464.224H1179.69V472H1181.06V467.92Z" fill="#3B3C41"/>
<path d="M1142.86 371.3L1138.5 380.5L1134.15 371.3H1132.42V382.5H1133.82V373.78L1137.99 382.5H1138.97L1143.14 373.78V382.5H1144.54V371.3H1142.86ZM1150.66 382.676C1152.22 382.676 1153.41 381.86 1154.05 380.692L1152.93 380.116C1152.43 380.884 1151.84 381.444 1150.67 381.444C1149.33 381.444 1148.16 380.42 1148.06 379.044H1154.32C1154.32 379.044 1154.34 378.852 1154.34 378.548C1154.34 376.34 1152.75 374.548 1150.56 374.548C1148.35 374.548 1146.69 376.292 1146.69 378.612C1146.69 380.98 1148.35 382.676 1150.66 382.676ZM1148.1 377.908C1148.22 376.852 1149.26 375.748 1150.53 375.748C1151.81 375.748 1152.8 376.676 1152.94 377.908H1148.1ZM1162.44 371.3V375.892C1161.86 375.044 1160.82 374.548 1159.69 374.548C1157.48 374.548 1155.78 376.324 1155.78 378.612C1155.78 380.916 1157.48 382.676 1159.69 382.676C1160.82 382.676 1161.88 382.116 1162.44 381.268V382.5H1163.8V371.3H1162.44ZM1162.52 378.612C1162.52 380.18 1161.37 381.412 1159.85 381.412C1158.33 381.412 1157.17 380.18 1157.17 378.612C1157.17 377.044 1158.33 375.812 1159.85 375.812C1161.37 375.812 1162.52 377.044 1162.52 378.612ZM1167.97 372.42C1167.97 371.908 1167.56 371.492 1167.05 371.492C1166.53 371.492 1166.12 371.908 1166.12 372.42C1166.12 372.932 1166.53 373.348 1167.05 373.348C1167.56 373.348 1167.97 372.932 1167.97 372.42ZM1166.36 374.724V382.5H1167.73V374.724H1166.36ZM1175.75 378.788C1175.75 380.372 1174.89 381.396 1173.58 381.396C1172.26 381.396 1171.56 380.516 1171.56 379.124V374.724H1170.18V379.284C1170.18 381.348 1171.32 382.676 1173.29 382.676C1174.46 382.676 1175.27 382.148 1175.75 381.38V382.5H1177.13V374.724H1175.75V378.788ZM1181.06 378.42C1181.06 376.836 1181.85 375.812 1183.05 375.812C1184.2 375.812 1184.81 376.692 1184.81 378.084V382.5H1186.18V378.42C1186.18 376.836 1186.97 375.812 1188.17 375.812C1189.33 375.812 1189.93 376.676 1189.93 378.052V382.5H1191.3V377.812C1191.3 375.812 1190.23 374.548 1188.44 374.548C1186.97 374.548 1186.17 375.412 1185.78 376.068C1185.32 375.124 1184.49 374.548 1183.33 374.548C1182.26 374.548 1181.48 375.044 1181.05 375.844V374.724H1179.69V382.5H1181.06V378.42Z" fill="#3B3C41"/>
<path d="M1142.86 284.8L1138.5 294L1134.15 284.8H1132.42V296H1133.82V287.28L1137.99 296H1138.97L1143.14 287.28V296H1144.54V284.8H1142.86ZM1150.66 296.176C1152.22 296.176 1153.41 295.36 1154.05 294.192L1152.93 293.616C1152.43 294.384 1151.84 294.944 1150.67 294.944C1149.33 294.944 1148.16 293.92 1148.06 292.544H1154.32C1154.32 292.544 1154.34 292.352 1154.34 292.048C1154.34 289.84 1152.75 288.048 1150.56 288.048C1148.35 288.048 1146.69 289.792 1146.69 292.112C1146.69 294.48 1148.35 296.176 1150.66 296.176ZM1148.1 291.408C1148.22 290.352 1149.26 289.248 1150.53 289.248C1151.81 289.248 1152.8 290.176 1152.94 291.408H1148.1ZM1162.44 284.8V289.392C1161.86 288.544 1160.82 288.048 1159.69 288.048C1157.48 288.048 1155.78 289.824 1155.78 292.112C1155.78 294.416 1157.48 296.176 1159.69 296.176C1160.82 296.176 1161.88 295.616 1162.44 294.768V296H1163.8V284.8H1162.44ZM1162.52 292.112C1162.52 293.68 1161.37 294.912 1159.85 294.912C1158.33 294.912 1157.17 293.68 1157.17 292.112C1157.17 290.544 1158.33 289.312 1159.85 289.312C1161.37 289.312 1162.52 290.544 1162.52 292.112ZM1167.97 285.92C1167.97 285.408 1167.56 284.992 1167.05 284.992C1166.53 284.992 1166.12 285.408 1166.12 285.92C1166.12 286.432 1166.53 286.848 1167.05 286.848C1167.56 286.848 1167.97 286.432 1167.97 285.92ZM1166.36 288.224V296H1167.73V288.224H1166.36ZM1175.75 292.288C1175.75 293.872 1174.89 294.896 1173.58 294.896C1172.26 294.896 1171.56 294.016 1171.56 292.624V288.224H1170.18V292.784C1170.18 294.848 1171.32 296.176 1173.29 296.176C1174.46 296.176 1175.27 295.648 1175.75 294.88V296H1177.13V288.224H1175.75V292.288ZM1181.06 291.92C1181.06 290.336 1181.85 289.312 1183.05 289.312C1184.2 289.312 1184.81 290.192 1184.81 291.584V296H1186.18V291.92C1186.18 290.336 1186.97 289.312 1188.17 289.312C1189.33 289.312 1189.93 290.176 1189.93 291.552V296H1191.3V291.312C1191.3 289.312 1190.23 288.048 1188.44 288.048C1186.97 288.048 1186.17 288.912 1185.78 289.568C1185.32 288.624 1184.49 288.048 1183.33 288.048C1182.26 288.048 1181.48 288.544 1181.05 289.344V288.224H1179.69V296H1181.06V291.92Z" fill="#3B3C41"/>
<path d="M1142.86 199.8L1138.5 209L1134.15 199.8H1132.42V211H1133.82V202.28L1137.99 211H1138.97L1143.14 202.28V211H1144.54V199.8H1142.86ZM1150.66 211.176C1152.22 211.176 1153.41 210.36 1154.05 209.192L1152.93 208.616C1152.43 209.384 1151.84 209.944 1150.67 209.944C1149.33 209.944 1148.16 208.92 1148.06 207.544H1154.32C1154.32 207.544 1154.34 207.352 1154.34 207.048C1154.34 204.84 1152.75 203.048 1150.56 203.048C1148.35 203.048 1146.69 204.792 1146.69 207.112C1146.69 209.48 1148.35 211.176 1150.66 211.176ZM1148.1 206.408C1148.22 205.352 1149.26 204.248 1150.53 204.248C1151.81 204.248 1152.8 205.176 1152.94 206.408H1148.1ZM1162.44 199.8V204.392C1161.86 203.544 1160.82 203.048 1159.69 203.048C1157.48 203.048 1155.78 204.824 1155.78 207.112C1155.78 209.416 1157.48 211.176 1159.69 211.176C1160.82 211.176 1161.88 210.616 1162.44 209.768V211H1163.8V199.8H1162.44ZM1162.52 207.112C1162.52 208.68 1161.37 209.912 1159.85 209.912C1158.33 209.912 1157.17 208.68 1157.17 207.112C1157.17 205.544 1158.33 204.312 1159.85 204.312C1161.37 204.312 1162.52 205.544 1162.52 207.112ZM1167.97 200.92C1167.97 200.408 1167.56 199.992 1167.05 199.992C1166.53 199.992 1166.12 200.408 1166.12 200.92C1166.12 201.432 1166.53 201.848 1167.05 201.848C1167.56 201.848 1167.97 201.432 1167.97 200.92ZM1166.36 203.224V211H1167.73V203.224H1166.36ZM1175.75 207.288C1175.75 208.872 1174.89 209.896 1173.58 209.896C1172.26 209.896 1171.56 209.016 1171.56 207.624V203.224H1170.18V207.784C1170.18 209.848 1171.32 211.176 1173.29 211.176C1174.46 211.176 1175.27 210.648 1175.75 209.88V211H1177.13V203.224H1175.75V207.288ZM1181.06 206.92C1181.06 205.336 1181.85 204.312 1183.05 204.312C1184.2 204.312 1184.81 205.192 1184.81 206.584V211H1186.18V206.92C1186.18 205.336 1186.97 204.312 1188.17 204.312C1189.33 204.312 1189.93 205.176 1189.93 206.552V211H1191.3V206.312C1191.3 204.312 1190.23 203.048 1188.44 203.048C1186.97 203.048 1186.17 203.912 1185.78 204.568C1185.32 203.624 1184.49 203.048 1183.33 203.048C1182.26 203.048 1181.48 203.544 1181.05 204.344V203.224H1179.69V211H1181.06V206.92Z" fill="#3B3C41"/>
<path d="M1133.81 147.244H1137.35V145.718H1133.81V143.226H1137.61V141.7H1132.13V151.5H1133.81V147.244ZM1142.46 144.472C1140.36 144.472 1138.81 146.054 1138.81 148.07C1138.81 150.086 1140.36 151.668 1142.46 151.668C1144.56 151.668 1146.12 150.086 1146.12 148.07C1146.12 146.054 1144.56 144.472 1142.46 144.472ZM1142.46 145.956C1143.61 145.956 1144.51 146.894 1144.51 148.07C1144.51 149.246 1143.61 150.184 1142.46 150.184C1141.32 150.184 1140.42 149.246 1140.42 148.07C1140.42 146.894 1141.32 145.956 1142.46 145.956ZM1149.58 147.888C1149.58 146.712 1150.23 145.97 1151.19 145.97C1152.17 145.97 1152.72 146.614 1152.72 147.678V151.5H1154.34V147.37C1154.34 145.592 1153.35 144.472 1151.68 144.472C1150.72 144.472 1150 144.906 1149.58 145.55V144.64H1147.96V151.5H1149.58V147.888ZM1156.78 142.61V144.64H1155.76V146.012H1156.78V149.386C1156.78 150.814 1157.6 151.668 1158.98 151.668C1159.54 151.668 1159.94 151.556 1160.21 151.416V149.974C1160 150.114 1159.7 150.184 1159.45 150.184C1158.72 150.184 1158.39 149.848 1158.39 149.092V146.012H1160.21V144.64H1158.39V142.61H1156.78ZM1173.12 151.5L1175.61 144.64H1173.99L1172.42 149.288L1170.81 144.64H1169.62L1168.01 149.288L1166.44 144.64H1164.78L1167.27 151.5H1168.57L1170.2 146.866L1171.81 151.5H1173.12ZM1181.88 149.26C1181.49 149.862 1181.03 150.296 1180.13 150.296C1179.11 150.296 1178.23 149.554 1178.16 148.56H1183.44C1183.44 148.518 1183.45 148.336 1183.45 148.07C1183.45 146.026 1182.04 144.472 1180.04 144.472C1178.05 144.472 1176.55 146.012 1176.55 148.07C1176.55 150.184 1178.03 151.668 1180.12 151.668C1181.56 151.668 1182.64 150.968 1183.21 149.89L1181.88 149.26ZM1178.17 147.384C1178.27 146.6 1179.06 145.802 1180.01 145.802C1180.99 145.802 1181.74 146.474 1181.84 147.384H1178.17ZM1186.86 151.5V144.64H1185.24V151.5H1186.86ZM1187.04 142.638C1187.04 142.092 1186.61 141.63 1186.03 141.63C1185.49 141.63 1185.04 142.078 1185.04 142.638C1185.04 143.184 1185.49 143.632 1186.03 143.632C1186.61 143.632 1187.04 143.17 1187.04 142.638ZM1194.25 150.324V151.094C1194.25 152.424 1193.49 153.236 1192.26 153.236C1191.39 153.236 1190.65 152.802 1190.23 152.032L1188.94 152.844C1189.53 153.978 1190.73 154.65 1192.26 154.65C1194.5 154.65 1195.84 153.208 1195.84 151.08V144.64H1194.25V145.564C1193.79 144.892 1192.95 144.472 1191.99 144.472C1190.13 144.472 1188.7 145.998 1188.7 147.972C1188.7 149.946 1190.13 151.43 1191.99 151.43C1192.93 151.43 1193.79 150.982 1194.25 150.324ZM1194.32 147.972C1194.32 149.12 1193.45 150.03 1192.33 150.03C1191.21 150.03 1190.34 149.12 1190.34 147.972C1190.34 146.838 1191.21 145.928 1192.33 145.928C1193.45 145.928 1194.32 146.838 1194.32 147.972ZM1199.77 147.888C1199.77 146.712 1200.41 145.97 1201.38 145.97C1202.36 145.97 1202.9 146.614 1202.9 147.678V151.5H1204.53V147.37C1204.53 145.592 1203.53 144.472 1201.87 144.472C1200.9 144.472 1200.19 144.906 1199.77 145.55V141.7H1198.14V151.5H1199.77V147.888ZM1206.96 142.61V144.64H1205.94V146.012H1206.96V149.386C1206.96 150.814 1207.79 151.668 1209.16 151.668C1209.72 151.668 1210.12 151.556 1210.39 151.416V149.974C1210.18 150.114 1209.89 150.184 1209.63 150.184C1208.91 150.184 1208.57 149.848 1208.57 149.092V146.012H1210.39V144.64H1208.57V142.61H1206.96Z" fill="#6C6C72"/>
<line x1="246" y1="243.517" x2="1258.23" y2="243.517" stroke="#E1DAD5"/>
<line x1="246" y1="331.517" x2="1258.23" y2="331.517" stroke="#E1DAD5"/>
<line x1="246" y1="419.517" x2="1258.23" y2="419.517" stroke="#E1DAD5"/>
<line x1="246" y1="507.517" x2="1258.23" y2="507.517" stroke="#E1DAD5"/>
<line x1="246" y1="595.517" x2="1258.23" y2="595.517" stroke="#E1DAD5"/>
<line x1="246" y1="683.517" x2="1258.23" y2="683.517" stroke="#E1DAD5"/>
<rect x="555.233" y="264" width="228" height="42" fill="#F9F5F2"/>
<rect x="551.233" y="356" width="228" height="42" fill="#F9F5F2"/>
</svg>
