<svg xmlns="http://www.w3.org/2000/svg" xmlns:xlink="http://www.w3.org/1999/xlink" width="100" height="100" viewBox="0 0 100 100"><rect width="100%" height="100%" fill="#FFFFFF"></rect><g transform="translate(50 50) scale(0.69 0.69) rotate(0) translate(-50 -50)" style="fill:#000000"><svg fill="#000000" xmlns="http://www.w3.org/2000/svg" xmlns:xlink="http://www.w3.org/1999/xlink" version="1.1" x="0px" y="0px" viewBox="0 0 100 100" style="enable-background:new 0 0 100 100;" xml:space="preserve"><polygon points="50,54.5 50,54.5 50,54.5 "></polygon><polygon points="50,54.5 50,54.5 50,54.5 "></polygon><polygon points="50,54.5 50,54.5 50,54.5 "></polygon><polygon points="50,54.5 50,54.5 50,54.5 "></polygon><path d="M95,39.9l-34.6,0.3L50,7.2l-10.4,33L5,39.9L33.1,60L22.2,92.8L50,72.3l27.8,20.5L66.9,60L95,39.9z M74,87.6L50,69.8V54.5  L26,87.6l9.4-28.3L50,54.5L11.1,41.9L41,42.1l9,12.4V13.6l9,28.5l-9,12.4l38.9-12.6L64.6,59.3L50,54.5L74,87.6z"></path></svg></g></svg>