<svg width="40" height="40" viewBox="0 0 40 40" fill="none" xmlns="http://www.w3.org/2000/svg">
<g clip-path="url(#clip0_458_8420)">
<rect width="40" height="40" rx="6" fill="white"/>
<g clip-path="url(#clip1_458_8420)">
<path d="M18.7814 23.6092L12.645 28.109C11.909 28.5996 11.3357 28.9269 10.5998 28.9269C9.12717 28.9269 7.8999 27.6176 7.8999 26.1471C7.8999 24.9178 8.88186 24.0178 9.78181 23.6092L16.9814 20.5L9.78181 17.3088C8.80333 16.9002 7.8999 16.0002 7.8999 14.773C7.8999 13.3004 9.20918 12.0731 10.6797 12.0731C11.4163 12.0731 11.907 12.3184 12.6429 12.891L18.7793 17.3908L17.9634 10.1092C17.7181 8.38989 18.8634 7 20.4999 7C22.1365 7 23.2797 8.30928 23.0365 10.0272L22.2158 17.3908L28.3521 12.891C29.0909 12.3184 29.6635 12.0731 30.4001 12.0731C31.1142 12.0794 31.7973 12.3659 32.3022 12.8709C32.8072 13.3758 33.0936 14.0589 33.1 14.773C33.1 16.0822 32.2 16.9002 31.2181 17.3095L24.0178 20.5L31.2181 23.6092C32.2 24.0178 33.1 24.9178 33.1 26.227C33.1 27.6996 31.7907 28.9269 30.3202 28.9269C29.6656 28.9269 29.0929 28.5996 28.3563 28.109L22.2158 23.6092L23.0337 30.8908C23.279 32.6087 22.1338 34 20.4972 34C18.8606 34 17.7174 32.6907 17.9606 30.9728L18.7814 23.6092Z" fill="#FF791A"/>
</g>
</g>
<defs>
<clipPath id="clip0_458_8420">
<rect width="40" height="40" fill="white"/>
</clipPath>
<clipPath id="clip1_458_8420">
<rect width="27" height="27" fill="white" transform="translate(7 7)"/>
</clipPath>
</defs>
</svg>
