<?xml version="1.0" standalone="no"?>
<!DOCTYPE svg PUBLIC "-//W3C//DTD SVG 20010904//EN"
 "http://www.w3.org/TR/2001/REC-SVG-20010904/DTD/svg10.dtd">
<svg version="1.0" xmlns="http://www.w3.org/2000/svg"
 width="359.000000pt" height="359.000000pt" viewBox="0 0 359.000000 359.000000"
 preserveAspectRatio="xMidYMid meet">
<metadata>
Created by potrace 1.14, written by Peter Selinger 2001-2017
</metadata>
<g transform="translate(0.000000,359.000000) scale(0.100000,-0.100000)"
fill="#000000" stroke="none">
<path d="M1744 3566 c-12 -6 -404 -394 -872 -862 -894 -894 -873 -871 -857
-944 5 -22 223 -246 858 -881 480 -481 865 -857 882 -864 26 -11 43 -12 90 -6
16 2 1715 1703 1729 1731 11 22 13 47 7 96 -2 19 -1712 1725 -1739 1735 -31
12 -72 10 -98 -5z"/>
</g>
</svg>
