<svg xmlns="http://www.w3.org/2000/svg" viewBox="0 0 362.61569 388.51709" class="logo-footer">
        <path d="M156.584,238.9995l-88.2989,64.752c-10.5932,7.06342-18.8369,11.77341-29.4306,11.77341
          C17.6606,315.5249,0,296.68799,0,275.49371c0-17.66022,14.1308-30.61142,27.081-36.49422l103.60259-44.7412L27.081,148.34419
          C12.9541,142.457,0,129.50681,0,111.8462c0-21.1904,18.8369-38.8506,40.0312-38.8506c10.5972,0,17.6607,3.5332,28.2539,11.7734
          l88.2989,64.7515L144.8105,44.7417C141.2802,20.0176,157.7646,0,181.3076,0c23.54829,0,40.03079,18.8369,36.4975,43.561
          l-11.77341,105.95949l88.29881-64.7515c10.59769-8.2402,18.83789-11.7734,29.43561-11.7734
          c21.18939,0,38.84958,17.6602,38.84958,38.8506c0,18.83691-12.94919,30.6108-27.0762,36.49799L231.9321,194.2583l103.60739,44.7412
          c14.12701,5.8828,27.0762,18.834,27.0762,37.67479c0,21.1904-18.83591,38.85062-40.02731,38.85062
          c-9.41998,0-17.66019-4.70999-28.25787-11.77341l-88.29881-64.752l11.77341,104.77931
          c3.53329,24.7236-12.9492,44.73828-36.4975,44.73828c-23.543,0-40.0274-18.83789-36.4971-43.56149L156.584,238.9995z"></path>
      </svg>