<?xml version="1.0" encoding="UTF-8" standalone="no"?>
<svg width="20px" height="19px" viewBox="0 0 20 19" version="1.1" xmlns="http://www.w3.org/2000/svg" xmlns:xlink="http://www.w3.org/1999/xlink" xmlns:sketch="http://www.bohemiancoding.com/sketch/ns">
    <title>Slice 1</title>
    <description>Created with Sketch (http://www.bohemiancoding.com/sketch)</description>
    <defs></defs>
    <g id="Page-1" stroke="none" stroke-width="1" fill="none" fill-rule="evenodd" sketch:type="MSPage">
        <path d="M9.74463651,0.334478084 C4.56713035,0.334478084 0.36825,4.53278277 0.36825,9.71201592 C0.36825,13.855057 3.05486566,17.369475 6.78112731,18.6094514 C7.25029204,18.6958008 7.42126372,18.4062427 7.42126372,18.1575566 C7.42126372,17.935351 7.41320445,17.3452972 7.40859915,16.5629722 C4.80027356,17.1294238 4.24994046,15.3057259 4.24994046,15.3057259 C3.82337474,14.2223295 3.20856747,13.9339228 3.20856747,13.9339228 C2.35716303,13.3525039 3.27304164,13.3640171 3.27304164,13.3640171 C4.2142494,13.4302183 4.70931892,14.330554 4.70931892,14.330554 C5.54575615,15.7633773 6.90431903,15.3494762 7.43853359,15.109425 C7.5237316,14.5038284 7.7660854,14.0905029 8.03376834,13.8562084 C5.95159803,13.6196112 3.76235455,12.8148354 3.76235455,9.22155169 C3.76235455,8.19802423 4.12790007,7.36043568 4.72774012,6.70533205 C4.63102886,6.46815921 4.30923367,5.51428689 4.81984607,4.22365215 C4.81984607,4.22365215 5.60677635,3.97151209 7.39823723,5.18500809 C8.14602248,4.97661836 8.94849563,4.87299916 9.74578783,4.86896952 C10.5425044,4.87299916 11.3444019,4.97661836 12.0933384,5.18500809 C13.883648,3.97151209 14.6694269,4.22365215 14.6694269,4.22365215 C15.1811907,5.51428689 14.8593955,6.46815921 14.7632599,6.70533205 C15.3642513,7.36043568 15.7269185,8.19802423 15.7269185,9.22155169 C15.7269185,12.824046 13.534221,13.6167329 11.4457184,13.8487247 C11.7819052,14.1382829 12.0818252,14.7104911 12.0818252,15.5854977 C12.0818252,16.8387144 12.0703119,17.850153 12.0703119,18.1575566 C12.0703119,18.4085453 12.2395566,18.7004061 12.7150536,18.6088758 C16.438437,17.366021 19.12275,13.8539057 19.12275,9.71201592 C19.12275,4.53278277 14.9238696,0.334478084 9.74463651,0.334478084" id="Fill-4" fill="#161614" sketch:type="MSShapeGroup"></path>
        <path d="" id="Path-2" stroke="#979797" sketch:type="MSShapeGroup"></path>
    </g>
</svg>