<?xml version="1.0" encoding="utf-8"?>
<!-- Generator: Adobe Illustrator 15.1.0, SVG Export Plug-In  -->
<!DOCTYPE svg PUBLIC "-//W3C//DTD SVG 1.1//EN" "http://www.w3.org/Graphics/SVG/1.1/DTD/svg11.dtd" [
	<!ENTITY ns_flows "http://ns.adobe.com/Flows/1.0/">
]>
<svg version="1.1"
	 xmlns="http://www.w3.org/2000/svg" xmlns:xlink="http://www.w3.org/1999/xlink" xmlns:a="http://ns.adobe.com/AdobeSVGViewerExtensions/3.0/"
	 x="0px" y="0px" width="450px" height="600px" viewBox="8.565 10.833 450 600"
	 overflow="visible" enable-background="new 8.565 10.833 450 600" xml:space="preserve">
<defs>
</defs>
<rect fill="#C87070" width="467.311" height="618.575"/>
<polyline fill="#CECCCC" stroke="#4F4F4F" stroke-width="2" stroke-miterlimit="10" points="183.273,484.311 110.881,479.21 
	115.645,453.563 107.422,438.062 137.18,441.968 168.325,430.084 191.397,432.697 "/>
<ellipse transform="matrix(0.183 0.9831 -0.9831 0.183 539.3036 267.7858)" fill="#CECCCC" stroke="#4F4F4F" stroke-width="2" stroke-miterlimit="10" cx="108.536" cy="458.37" rx="20.943" ry="15.109"/>
<polygon fill="#CECCCC" points="109.595,438.9 116.247,439.952 133.657,442.751 123.983,477.876 113.679,478.445 103.182,476.082 
	"/>
<path fill="#4F4F4F" d="M148.984,453.766c-12.921-0.621-25.58-3.766-38.556-2.428c-0.897,0.092-1.5,1.159-0.239,1.029
	c12.802-1.317,25.344,1.839,38.091,2.451C148.987,454.853,150.215,453.827,148.984,453.766L148.984,453.766z"/>
<path fill="#4F4F4F" d="M126.646,464.627c-7.614-4.133-15.484-5.707-24.064-4.378c-0.989,0.153-1.393,1.512-0.162,1.323
	c8.14-1.259,15.615,0.187,22.824,4.104C125.936,466.05,127.531,465.11,126.646,464.627L126.646,464.627z"/>
<path fill="#4F4F4F" d="M109.24,454.434c-3.346-0.362-6.689-0.681-10.056-0.723c-1.059-0.02-1.371,1.368-0.147,1.38
	c3.214,0.046,6.398,0.368,9.591,0.713C109.549,455.902,110.468,454.563,109.24,454.434L109.24,454.434z"/>
<path fill="#4F4F4F" d="M119.039,442.43c-4.668-0.771-9.288-0.211-13.684,1.503c-1.203,0.471-0.071,0.777,0.649,0.496
	c3.854-1.506,7.797-1.873,11.871-1.2C118.311,443.303,119.988,442.585,119.039,442.43L119.039,442.43z"/>
<path fill="#4F4F4F" d="M171.441,480.187c-19.432-6.977-40.307-4.974-60.576-5.195c-0.581-0.005-1.965,0.863-0.747,0.876
	c20.033,0.22,40.644-1.781,59.856,5.109C170.446,481.146,172.096,480.422,171.441,480.187L171.441,480.187z"/>
<path fill="#4F4F4F" d="M120.723,466.693c-8.789,1.533-17.381,1.071-25.631-2.462c-0.306-0.132-1.42,0.34-0.979,0.527
	c8.479,3.63,17.406,4.064,26.418,2.491C121.056,467.161,121.568,466.543,120.723,466.693L120.723,466.693z"/>
<path fill="#676868" d="M110.823,447.117c-3.444-0.487-6.787,0.257-9.71,2.147c-1.371,0.889,0.762,1.078,1.476,0.613
	c2.094-1.354,4.246-1.88,6.729-1.531C110.015,448.445,112.164,447.306,110.823,447.117L110.823,447.117z"/>
<path fill="#4F4F4F" d="M99.371,471.717c2.4-0.187,4.773-0.524,7.124-1.047c0.747-0.165,0.551-0.858-0.187-0.692
	c-2.241,0.499-4.509,0.809-6.796,0.986C98.884,471.013,98.535,471.78,99.371,471.717L99.371,471.717z"/>
<polyline fill="#CECCCC" stroke="#4F4F4F" stroke-width="2" stroke-miterlimit="10" points="220.433,507.551 109.24,548.098 
	122.765,520.047 113.364,496.438 102.662,490.953 127.543,486.585 166.855,479.442 189.756,475.408 "/>
<polyline fill="#CECCCC" stroke="#4F4F4F" stroke-width="2" stroke-miterlimit="10" points="295.488,471.019 376.991,468.331 
	366.031,494.314 369.117,509.186 345.863,508.157 316.181,523.328 292.962,523.206 "/>
<polyline fill="#CECCCC" stroke="#4F4F4F" stroke-width="2" stroke-miterlimit="10" points="281.777,477.971 370.666,518.18 
	359.455,544.378 349.004,555.882 353.345,572.607 320.602,554.039 289.151,533.979 262.023,516.766 "/>
<ellipse transform="matrix(0.2994 -0.9541 0.9541 0.2994 -205.2184 697.7459)" fill="#CECCCC" stroke="#4F4F4F" stroke-width="2" stroke-miterlimit="10" cx="372.523" cy="488.617" rx="21.009" ry="15.112"/>
<path fill="#CECCCC" stroke="#4F4F4F" stroke-width="2" stroke-miterlimit="10" d="M104.856,490.182
	c11.103-0.588,20.792,11.97,21.64,28.05c0.848,16.078-7.463,29.587-18.566,30.174c-11.103,0.582-20.792-11.975-21.64-28.052
	C85.442,504.275,93.753,490.767,104.856,490.182z"/>
<path opacity="0.5" fill="none" stroke="#676868" stroke-width="2" stroke-miterlimit="10" enable-background="new    " d="
	M118.344,512.728c-2.966-9.486-10.689-15.512-17.247-13.463c-6.566,2.053-9.478,11.409-6.514,20.896
	c2.972,9.49,10.699,15.518,17.253,13.473C118.396,531.569,121.311,522.22,118.344,512.728z"/>
<path fill="#4F4F4F" d="M167.486,471.799c-14.982-2.314-28.595-6.291-43.855-4.175c-0.572,0.076-1.01,0.765-0.171,0.648
	c15.085-2.091,28.537,1.895,43.283,4.169C167.109,472.497,168.169,471.906,167.486,471.799L167.486,471.799z"/>
<path fill="#4F4F4F" d="M142.893,471.747c-6.943-1.678-13.907-2.155-21.022-1.586c-0.533,0.043-1.965,0.931-0.759,0.836
	c6.884-0.549,13.588-0.107,20.308,1.515C141.879,472.626,143.492,471.895,142.893,471.747L142.893,471.747z"/>
<path fill="#4F4F4F" d="M159.71,451.16c-15.579-0.462-30.977-2.369-46.374-4.687c-0.949-0.145-1.828,1.225-0.607,1.401
	c15.554,2.34,31.108,4.24,46.846,4.712C160.65,452.617,160.932,451.197,159.71,451.16L159.71,451.16z"/>
<path fill="#676868" d="M148.421,463.659c-3.717,0.03-7.173-0.971-10.222-3.107c-0.563-0.395-2.645,0.575-2.281,0.833
	c3.242,2.274,6.989,3.314,10.935,3.284C147.371,464.664,149.614,463.653,148.421,463.659L148.421,463.659z"/>
<path opacity="0.6" fill="none" stroke="#828282" stroke-width="2" stroke-miterlimit="10" enable-background="new    " d="
	M102.585,511.721c2.568-1.28,6.15,0.694,7.999,4.407c1.849,3.714,1.264,7.761-1.304,9.038c-2.565,1.278-6.147-0.692-7.996-4.409
	C99.435,517.048,100.017,513.001,102.585,511.721z"/>
<path fill="#CECCCC" stroke="#4F4F4F" stroke-width="2" stroke-miterlimit="10" d="M371.143,518.173
	c10.374,3.258,14.96,18.077,10.246,33.104c-4.715,15.024-16.947,24.569-27.321,21.312c-10.378-3.257-14.964-18.076-10.25-33.104
	C348.533,524.461,360.768,514.92,371.143,518.173z"/>
<path fill="#CECCCC" stroke="#4F4F4F" stroke-width="2" stroke-miterlimit="10" d="M255.422,522.261
	c11.205-6.965,71.284-72.814,79.437-88.259c8.148-15.446,8.491-43.616,8.825-59.062c0.336-15.45-2.719-26.479-2.719-26.479
	l-32.584,33.269c0,0,11.706-20.204,13.237-40.059c1.524-19.861-0.334-35.304-0.334-35.304l-31.23,35.309
	c0,0,12.895-41.24,13.576-56.01c0.68-14.772-11.544-52.607-11.544-52.607l-16.294,29.2c0,0,3.569-35.155,3.569-44.829
	c0-9.676-6.113-35.134-6.113-35.134l-21.895,35.829c0,0-3.055-69.433-24.949-95.911c-21.894-26.479-51.937-58.048-51.937-58.048
	s-9.674,22.915-5.603,41.75c4.075,18.84,23.933,46.844,29.535,65.176c5.599,18.33,4.58,64.156,4.58,64.156l-40.222-33.097
	c0,0-10.184,27.495-7.129,45.825c3.058,18.332,12.731,63.651,12.731,63.651l-39.208-35.112c0,0,6.11,53.44,8.657,68.715
	c2.547,15.279,19.182,37.191,19.182,37.191l-51.263-49.923c0,0-5.596,25.463-2.033,39.209c3.563,13.75,19.348,33.115,19.348,33.115
	l9.508,11.541l-22.24-11.56c0,0-0.505,24.441,6.11,31.062c6.618,6.615,45.318,34.13,45.318,34.13s65.177,47.878,73.325,52.959
	C243.203,528.03,244.225,529.218,255.422,522.261z"/>
<path fill="none" stroke="#828282" stroke-width="2" stroke-miterlimit="10" d="M288.355,468.968c0,0,27.576-26.14,32.927-51.601
	c5.356-25.456,5.768-32.926,5.768-32.926l-37.332,38.017"/>
<path fill="none" stroke="#828282" stroke-width="2" stroke-miterlimit="10" d="M296.162,370.886c0,0,5.424-6.611,7.38-9.866
	c1.959-3.254,2.29-15.787,2.29-15.787l-14.424,11.397"/>
<path fill="none" stroke="#828282" stroke-width="2" stroke-miterlimit="10" d="M285.98,456.067
	c1.062-1.761,12.336-14.356,19.686-25.797c6.249-9.719,8.827-18.667,8.827-18.667l-26.474,23.421"/>
<path fill="none" stroke="#828282" stroke-width="2" stroke-miterlimit="10" d="M292.767,385.824c0,0,15.104-14.626,17.654-26.082
	c2.543-11.458,3.052-30.042,3.052-30.042l-28.849,27.611"/>
<path fill="none" stroke="#828282" stroke-width="2" stroke-miterlimit="10" d="M286.489,326.388c0,0,12.557-26.9,10.181-42.003
	s-6.361-33.86-6.361-33.86l-15.536,39.97l-9.168,17.055"/>
<polyline fill="none" stroke="#828282" stroke-width="2" stroke-miterlimit="10" points="291.833,291.256 288.524,272.166 
	277.531,304.312 "/>
<path fill="none" stroke="#828282" stroke-width="2" stroke-miterlimit="10" d="M261.533,275.181l5.438-65.176
	c0,0-8.634,9.308-14.548,21.602c-5.911,12.297-6.676,18.661-6.676,18.661"/>
<path fill="none" stroke="#828282" stroke-width="2" stroke-miterlimit="10" d="M256.788,270.432l4.071-39.938
	c0,0-8.491,8.065-9.508,17.992c-1.013,9.93,0.257,11.966,0.257,11.966"/>
<path fill="none" stroke="#828282" stroke-width="2" stroke-miterlimit="10" d="M235.739,217.479c0,0,4.078-55.673-13.579-78.077
	c-17.651-22.403-33.27-35.307-33.27-35.307l20.198,68.011l6.279,58.267"/>
<path fill="none" stroke="#828282" stroke-width="2" stroke-miterlimit="10" d="M224.192,152.242
	c-9.153-11.62-21.723-24.099-21.723-24.099l13.194,47.575"/>
<path fill="none" stroke="#828282" stroke-width="2" stroke-miterlimit="10" d="M231.337,218.104
	c-1.09-2.103,0.656-38.418-2.039-46.506c-3.056-9.166-11.59-15.921-11.59-15.921l6.833,59.033"/>
<path fill="none" stroke="#828282" stroke-width="2" stroke-miterlimit="10" d="M185.492,438.074
	c-4.583-27.496,7.809-90.3,7.809-90.3s38.186,46.845,44.811,62.121c6.618,15.274,1.524,49.389,1.524,49.389"/>
<path fill="none" stroke="#828282" stroke-width="2" stroke-miterlimit="10" d="M202.466,445.031
	c-4.582-27.492-0.508-66.703-0.508-66.703s12.389,17.993,17.143,28.175c4.754,10.185,8.822,33.945,8.822,33.945"/>
<path fill="none" stroke="#828282" stroke-width="2" stroke-miterlimit="10" d="M210.952,441.465
	c-4.582-27.496-2.712-31.229-2.712-31.229l11.543,31.229"/>
<path fill="none" stroke="#828282" stroke-width="2" stroke-miterlimit="10" d="M197.039,454.372l-19.01-19.014
	c0,0-1.02,7.473,0.34,13.919c1.362,6.447,8.822,14.937,8.822,14.937"/>
<path fill="none" stroke="#828282" stroke-width="2" stroke-miterlimit="10" d="M245.927,464.554c0,0,1.353-11.538,5.767-15.956
	c4.414-4.414,21.386-16.292,21.386-16.292s2.03,29.872-2.379,39.717c-4.411,9.848-11.2,17.312-11.2,17.312"/>
<path fill="none" stroke="#828282" stroke-width="2" stroke-miterlimit="10" d="M247.958,472.022l17.314-19.69
	c0,0,0.681,5.095-1.016,11.205c-1.701,6.109-6.453,15.275-6.453,15.275"/>
<path fill="none" stroke="#828282" stroke-width="2" stroke-miterlimit="10" d="M160.041,457.084c0,0-12.9-6.783-18.328-11.541
	c-5.43-4.752-7.806-12.221-7.806-12.221l19.007,4.752c0,0-10.864-9.166-19.007-23.425c-8.149-14.256-16.294-44.805-16.294-44.805
	l47.186,37.681"/>
<path fill="none" stroke="#828282" stroke-width="2" stroke-miterlimit="10" d="M154.277,427.552c0,0-10.185-11.543-14.259-16.974
	c-4.075-5.431-2.378-15.276-2.378-15.276l24.78,22.065"/>
<path fill="none" stroke="#828282" stroke-width="2" stroke-miterlimit="10" d="M165.135,372.56c0,0-6.111-3.051-12.56-19.006
	c-6.447-15.955-8.483-46.843-8.483-46.843l34.623,30.888"/>
<path fill="none" stroke="#828282" stroke-width="2" stroke-miterlimit="10" d="M166.497,360.337l-9.508-28.17
	c0,0,12.218,8.146,15.279,13.577c3.055,5.428,2.033,10.864,2.033,10.864"/>
<path fill="none" stroke="#828282" stroke-width="2" stroke-miterlimit="10" d="M216.055,333.521c0,0-0.68-12.9,1.359-26.476
	c2.039-13.58,13.58-33.946,13.58-33.946c18.328,51.593,21.051,54.311,22.748,64.492c1.689,10.188-6.455,36.324-6.455,36.324"/>
<path fill="none" stroke="#828282" stroke-width="2" stroke-miterlimit="10" d="M243.558,358.642c0,0,0.333-17.997-0.689-30.895
	c-1.013-12.896-13.237-26.817-13.237-26.817l-4.071,42.772"/>
<path fill="none" stroke="#828282" stroke-width="2" stroke-miterlimit="10" d="M180.074,299.233c0,0-8.823-19.012-10.521-31.234
	c-1.699-12.222,1.019-36.66,1.019-36.66S200.1,258.834,203.498,268c3.395,9.167,7.126,37.682,7.126,37.682"/>
<path fill="none" stroke="#828282" stroke-width="2" stroke-miterlimit="10" d="M185.847,293.801l-9.502-37.34
	c0,0,11.201,4.076,13.574,10.863c2.378,6.787,7.809,23.424,7.809,23.424"/>
<path fill="#676868" d="M143.018,518.914c13.524-4.54,26.691-11.1,39.603-17.639"/>
<path fill="#4F4F4F" d="M143.446,519.235c13.8-4.771,26.872-11.177,39.878-17.758c1.442-0.729-0.805-0.716-1.414-0.404
	c-12.833,6.49-25.718,12.812-39.325,17.52C140.955,519.159,142.491,519.562,143.446,519.235L143.446,519.235z"/>
<path fill="#676868" d="M140.431,503.748c14.933-2.06,29.81-5.136,44.703-7.958"/>
<path fill="#4F4F4F" d="M140.253,504.367c14.994-2.149,29.832-5.125,44.703-7.958c1.09-0.209,2.036-1.55,0.361-1.234
	c-14.871,2.838-29.715,5.812-44.706,7.962C139.497,503.3,138.567,504.606,140.253,504.367L140.253,504.367z"/>
<path fill="#676868" d="M125.452,490.519c23.636-1.5,34.047-2.302,57.625-4.812"/>
<path fill="#4F4F4F" d="M124.935,491.029c19.252-1.233,38.443-2.786,57.625-4.815c0.649-0.063,2.629-1.19,1.038-1.022
	c-19.185,2.03-38.373,3.588-57.625,4.819C125.309,490.048,123.331,491.131,124.935,491.029L124.935,491.029z"/>
<path fill="#676868" d="M128.483,538.286c24.181-10.448,48.333-21.407,73.074-30.869"/>
<path fill="#4F4F4F" d="M128.96,538.787c24.266-10.518,48.407-21.317,73.078-30.869c1.58-0.612,0.135-1.426-0.961-1.004
	c-24.668,9.555-48.809,20.352-73.075,30.869C126.45,538.457,127.874,539.259,128.96,538.787L128.96,538.787z"/>
<path fill="#676868" d="M137.55,526.592c2.023-0.361,4.286-0.988,6.291-1.604"/>
<path fill="#4F4F4F" d="M137.314,526.996c2.238-0.425,4.436-1.017,6.616-1.678c0.177-0.056,1.212-0.315,1.12-0.655
	c-0.086-0.333-1.12-0.063-1.301-0.006c-1.965,0.591-3.942,1.146-5.963,1.525C136.862,526.359,135.609,527.32,137.314,526.996
	L137.314,526.996z"/>
<path fill="#676868" d="M180.958,508.504c6.48-2.89,12.689-6.022,18.615-9.652"/>
<path fill="#4F4F4F" d="M181.666,508.695c6.465-2.914,12.774-6.109,18.842-9.783c1.044-0.63-1.405-0.397-1.867-0.116
	c-5.924,3.582-12.083,6.687-18.389,9.521C178.791,508.972,181.063,508.965,181.666,508.695L181.666,508.695z"/>
<path fill="#676868" d="M192.539,497.479c2.547-0.257,2.804,0.766,5.091,0"/>
<path fill="#4F4F4F" d="M192.41,498.275c1.914-0.134,3.499,0.515,5.421-0.061c1.46-0.438,1.078-1.917-0.395-1.482
	c-1.533,0.459-3.171-0.171-4.766-0.062C191.373,496.77,190.746,498.392,192.41,498.275L192.41,498.275z"/>
<path fill="#676868" d="M126.337,497.608c12.968-0.681,25.99-0.343,38.902-2.042"/>
<path fill="#4F4F4F" d="M125.835,498.171c13.083-0.611,26.183-0.514,39.202-2.075c1.062-0.125,2.104-1.27,0.407-1.065
	c-12.823,1.537-25.72,1.408-38.602,2.016C126.111,497.082,124.218,498.251,125.835,498.171L125.835,498.171z"/>
<path fill="#676868" d="M135.597,513.692c6.517-2.125,13.019-4.51,19.283-6.619"/>
<path fill="#4F4F4F" d="M135.735,514.206c6.56-2.155,13.059-4.506,19.598-6.726c1.622-0.548,0.116-1.166-0.909-0.82
	c-6.331,2.146-12.612,4.424-18.964,6.518C134.063,513.64,134.312,514.677,135.735,514.206L135.735,514.206z"/>
<path fill="#676868" d="M131.33,510.095c3.774-0.961,7.546-1.925,11.333-2.639"/>
<path fill="#4F4F4F" d="M131.418,510.423c3.655-0.931,7.308-1.849,11.008-2.566c0.921-0.178,2.18-1.133,0.475-0.802
	c-3.918,0.753-7.791,1.727-11.657,2.712C129.833,510.129,130.014,510.783,131.418,510.423L131.418,510.423z"/>
<path fill="#676868" d="M149.265,521.388c10.706-0.058,20.045-6.661,30.625-9.006"/>
<path fill="#4F4F4F" d="M148.751,521.914c11.137-0.468,20.62-6.48,31.249-9.11c1.433-0.352,1.193-1.199-0.227-0.844
	c-10.146,2.504-19.384,8.445-29.997,8.896C149.085,520.889,147.138,521.984,148.751,521.914L148.751,521.914z"/>
<path fill="#676868" d="M155.605,491.736c10.956-0.067,21.906-0.391,32.504-2.479"/>
<path fill="#4F4F4F" d="M155.146,492.462c11.008-0.089,21.958-0.492,32.81-2.491c1.176-0.212,1.969-1.732,0.31-1.427
	c-10.653,1.959-21.382,2.378-32.195,2.468C155.112,491.017,153.508,492.478,155.146,492.462L155.146,492.462z"/>
<path fill="#676868" d="M201.704,514.279c4.329-1.017,8.407-2.804,12.221-5.094"/>
<path fill="#4F4F4F" d="M201.848,514.812c4.54-1.12,8.792-2.957,12.812-5.333c1.405-0.826-0.76-1.004-1.469-0.587
	c-3.662,2.154-7.491,3.832-11.627,4.854C200.112,514.108,200.406,515.167,201.848,514.812L201.848,514.812z"/>
<path fill="#676868" d="M190.25,509.697c5.093-2.801,9.931-4.583,15.272-5.856"/>
<path fill="#4F4F4F" d="M190.963,509.918c4.674-2.521,9.529-4.363,14.678-5.637c1.436-0.349,1.185-1.24-0.236-0.885
	c-5.559,1.368-10.828,3.364-15.873,6.076C188.109,510.245,190.329,510.257,190.963,509.918L190.963,509.918z"/>
<path fill="#676868" d="M128.765,524.253c3.037-0.416,6.303-1.353,9.312-2.277"/>
<path fill="#4F4F4F" d="M128.657,525.146c3.285-0.489,6.469-1.365,9.643-2.332c1.472-0.45,1.041-2.13-0.453-1.678
	c-2.949,0.906-5.924,1.766-8.979,2.223C127.534,523.559,127.014,525.392,128.657,525.146L128.657,525.146z"/>
<path fill="#676868" d="M158.725,508.025c6.487-2.36,13.038-4.534,19.528-6.896c1.573-0.573,0.159-1.665-1.022-1.237
	c-6.487,2.36-13.038,4.537-19.527,6.897C156.129,507.36,157.543,508.458,158.725,508.025L158.725,508.025z"/>
<path opacity="0.5" fill="none" stroke="#828282" stroke-width="2" stroke-miterlimit="10" enable-background="new    " d="
	M365.633,552.484c3.141-2.71,4.169-6.662,2.308-8.836c-1.879-2.173-5.945-1.745-9.086,0.968c-3.146,2.703-4.176,6.661-2.305,8.835
	C358.42,555.631,362.492,555.189,365.633,552.484z"/>
<ellipse transform="matrix(0.5765 -0.8171 0.8171 0.5765 -292.8531 528.0419)" opacity="0.5" fill="none" stroke="#676868" stroke-width="2" stroke-miterlimit="10" enable-background="new    " cx="362.951" cy="546.523" rx="18.002" ry="12.444"/>
<path fill="#676868" d="M290.725,500.531c19.35,3.393,38.021,9.166,56.688,13.92"/>
<path fill="#4F4F4F" d="M289.958,501.098c19.097,3.518,37.688,9.024,56.471,13.874c0.635,0.166,2.802-0.826,1.966-1.041
	c-18.925-4.886-37.666-10.42-56.902-13.966C290.868,499.849,288.665,500.858,289.958,501.098L289.958,501.098z"/>
<path fill="#4F4F4F" d="M329.394,550.629c-6.878-1.427-12.64-4.738-17.165-10.12c-0.397-0.472-2.678,0.355-2.277,0.838
	c4.589,5.462,10.501,8.808,17.455,10.253C327.995,551.716,330.11,550.776,329.394,550.629L329.394,550.629z"/>
<path fill="#4F4F4F" d="M302.321,530.991c10.975,4.671,22.886,5.604,34.166,9.238c0.769,0.248,2.844-0.885,1.484-1.325
	c-11.136-3.585-22.897-4.482-33.725-9.089C303.52,529.506,301.307,530.56,302.321,530.991L302.321,530.991z"/>
<path fill="#4F4F4F" d="M325.988,545.063c3.186,0.979,6.234,2.283,9.277,3.636c0.839,0.374,3.016-0.789,1.896-1.287
	c-3.193-1.421-6.395-2.802-9.734-3.831C326.517,543.306,324.563,544.628,325.988,545.063L325.988,545.063z"/>
<path fill="#4F4F4F" d="M287.209,513.836c4.541,2.354,9.42,3.716,14.4,4.803c0.551,0.116,2.646-0.771,1.996-0.912
	c-4.877-1.065-9.655-2.397-14.111-4.702C288.878,512.707,286.962,513.71,287.209,513.836L287.209,513.836z"/>
<path fill="#4F4F4F" d="M302.651,515.326c10.213,4.273,20.284,8.909,31.439,9.899c0.654,0.062,2.824-1.07,1.515-1.187
	c-11.011-0.98-20.935-5.581-31.004-9.79C303.964,513.98,301.742,514.947,302.651,515.326L302.651,515.326z"/>
<path fill="#4F4F4F" d="M268.231,514.304c9.132,9.037,21.572,13.553,30.548,22.746c0.777,0.795,3.07-0.197,2.216-1.071
	c-8.987-9.209-21.419-13.715-30.551-22.746C269.658,512.452,267.368,513.453,268.231,514.304L268.231,514.304z"/>
<path fill="#4F4F4F" d="M293.507,492.321c8.122,4.313,16.638,7.674,25.344,10.614c0.842,0.281,2.847-0.94,1.458-1.409
	c-8.555-2.884-16.91-6.202-24.888-10.439C294.656,490.678,292.445,491.755,293.507,492.321L293.507,492.321z"/>
<path fill="#4F4F4F" d="M335.263,518.471c3.204,2.066,6.771,3.395,10.404,4.502c0.863,0.268,2.859-1.001,1.454-1.429
	c-3.486-1.062-6.876-2.342-9.959-4.326C336.419,516.734,334.213,517.794,335.263,518.471L335.263,518.471z"/>
<path fill="#4F4F4F" d="M326.067,504.098c4.857,1.415,9.6,3.12,14.256,5.092c0.588,0.25,2.807-0.668,1.965-1.02
	c-4.655-1.976-9.397-3.684-14.256-5.094C327.417,502.896,325.244,503.859,326.067,504.098L326.067,504.098z"/>
<path fill="#4F4F4F" d="M286.923,506.596c8.913,1.048,17.678,2.7,26.259,5.369c0.707,0.222,2.896-0.839,1.935-1.138
	c-8.728-2.71-17.627-4.439-26.704-5.498C287.694,505.243,285.573,506.44,286.923,506.596L286.923,506.596z"/>
<path fill="#4F4F4F" d="M317.446,513.955c0.846,0.766,1.718,1.24,2.789,1.622c0.985,0.35,2.848-1.071,1.414-1.579
	c-0.744-0.264-1.39-0.554-1.98-1.09C318.891,512.198,316.607,513.189,317.446,513.955L317.446,513.955z"/>
<path fill="#676868" d="M303.979,525.416c12.099,1.271,23.4,5.902,35.307,8.146c0.538,0.102,2.592-0.769,2.008-0.882
	c-11.906-2.24-23.204-6.866-35.303-8.146C305.443,524.477,303.425,525.355,303.979,525.416L303.979,525.416z"/>
<path fill="#676868" d="M276.955,509.002c2.281,8.725,8.729,14.269,17.426,16.157c1.178,0.257,2.448-1.387,0.844-1.738
	c-8.017-1.748-13.769-7.121-15.841-15.07C279.089,507.245,276.667,507.891,276.955,509.002L276.955,509.002z"/>
<path fill="#676868" d="M329.586,515.762c6.524-0.545,12.606,0.568,18.221,4.007c0.638,0.392,2.884-0.551,1.936-1.13
	c-6.099-3.74-12.754-4.739-19.804-4.142C328.776,514.586,327.903,515.902,329.586,515.762L329.586,515.762z"/>
<polygon fill="#CECCCC" points="370.164,508.509 364.389,508.17 349.286,507.235 354.294,470.155 370.75,468.9 373.01,468.869 "/>
<path fill="#4F4F4F" d="M307.905,478.458c20.044,0.786,40.331,2.601,60.033-2.125c1.466-0.35,1.139-1.513-0.312-1.164
	c-19.255,4.616-39.198,2.719-58.766,1.954C307.968,477.092,306.267,478.396,307.905,478.458L307.905,478.458z"/>
<path fill="#4F4F4F" d="M318.474,487.929c10.004-0.572,19.981-0.021,29.981,0.334c0.839,0.03,1.874-1.223,0.644-1.259
	c-10.154-0.366-20.29-0.924-30.447-0.343C317.651,486.717,317.231,487.995,318.474,487.929L318.474,487.929z"/>
<path fill="#4F4F4F" d="M343.779,502.978c7.105,0.925,14.104,0.637,21.138-0.698c0.766-0.147,1.573-1.028,0.307-0.789
	c-6.763,1.282-13.461,1.549-20.287,0.661C344.486,502.097,342.821,502.854,343.779,502.978L343.779,502.978z"/>
<path fill="#4F4F4F" d="M333.041,497.654c12.924-0.774,25.833,0.982,38.599-1.748c1.114-0.239,0.848-1.17-0.252-0.938
	c-12.565,2.686-25.389,0.888-38.108,1.653C332.373,496.678,331.782,497.73,333.041,497.654L333.041,497.654z"/>
<path fill="#4F4F4F" d="M341.767,483.027c3.055,0.346,6.107,0.684,9.166,1.02c0.566,0.064,2.137-0.869,1.11-0.979
	c-3.055-0.336-6.106-0.677-9.165-1.017C342.316,481.983,340.745,482.914,341.767,483.027L341.767,483.027z"/>
<path fill="#4F4F4F" d="M354.022,484.51c8.032,3.29,16.047,3.944,24.453,1.704c1.12-0.299,0.789-1.536-0.331-1.24
	c-7.972,2.125-15.468,1.434-23.072-1.68C354.306,482.976,352.951,484.071,354.022,484.51L354.022,484.51z"/>
<path fill="#4F4F4F" d="M372.177,492.532c3.368,0,6.726-0.042,10.077-0.358c0.861-0.075,1.525-1.062,0.264-0.945
	c-3.202,0.307-6.406,0.328-9.615,0.328C372.257,491.559,370.953,492.532,372.177,492.532L372.177,492.532z"/>
<path fill="#4F4F4F" d="M364.042,505.825c4.759,0.263,9.263-0.766,13.475-2.964c1.087-0.569-0.523-0.903-1.136-0.585
	c-3.643,1.901-7.543,2.703-11.642,2.474C364.02,504.71,362.81,505.755,364.042,505.825L364.042,505.825z"/>
<path fill="#4F4F4F" d="M317.453,493.678c15.535-1.206,31.052-0.985,46.609-0.34c0.821,0.034,1.89-1.173,0.656-1.228
	c-15.72-0.648-31.379-0.87-47.076,0.343C316.663,492.527,316.206,493.772,317.453,493.678L317.453,493.678z"/>
<path fill="#4F4F4F" d="M295.764,482.927c10.872,2.874,21.578,0.294,32.604,0.385c0.568,0.007,1.972-0.851,0.753-0.856
	c-10.758-0.089-21.267,2.505-31.889-0.306C296.761,482.022,295.132,482.762,295.764,482.927L295.764,482.927z"/>
<path fill="#4F4F4F" d="M307.648,473.771c20.176,4.821,40.726,0.646,61.003-1.335c0.817-0.079,1.564-0.958,0.297-0.835
	c-19.87,1.939-40.044,6.106-59.828,1.377C308.636,472.867,307.016,473.621,307.648,473.771L307.648,473.771z"/>
<path fill="#4F4F4F" d="M359.792,482.109c8.479-2.437,16.935-2.931,25.45-0.34c0.738,0.227,2.149-0.845,1.062-1.175
	c-8.933-2.714-17.924-2.224-26.835,0.339C358.369,481.256,358.677,482.431,359.792,482.109L359.792,482.109z"/>
<path fill="#676868" d="M372.19,475.233c3.608-0.42,7.043,0.203,10.24,1.953c0.621,0.341,2.602-0.654,2.277-0.832
	c-3.554-1.95-7.46-2.58-11.471-2.121C372.601,474.309,370.601,475.415,372.19,475.233L372.19,475.233z"/>
<path fill="#676868" d="M371.424,500.063c3.558,0.116,6.919-0.918,9.692-3.178c0.997-0.82-1.418-0.563-1.889-0.178
	c-1.847,1.5-3.852,2.332-6.264,2.256c-0.587-0.021-1.228,0.113-1.714,0.456C370.886,499.684,370.932,500.045,371.424,500.063
	L371.424,500.063z"/>
<path fill="#4F4F4F" d="M122.128,456.948c4.922,1.728,9.86,3.126,15.04,1.831c0.709-0.178,0.615-0.508-0.089-0.336
	c-4.724,1.182-9.386-0.34-13.806-1.896C122.936,456.429,122.054,456.922,122.128,456.948L122.128,456.948z"/>
<path fill="#4F4F4F" d="M133.338,473.97c3.789,0.174,7.579,0.327,11.375,0.339c0.26,0.004,1.381-0.501,0.784-0.501
	c-3.796-0.016-7.585-0.172-11.375-0.34C133.859,473.449,132.729,473.939,133.338,473.97L133.338,473.97z"/>
<path fill="#4F4F4F" d="M143.596,479.253c2.522,0.806,5.066,1.203,7.708,1.23c0.419,0.006,1.304-0.618,0.487-0.631
	c-2.485-0.023-4.855-0.391-7.222-1.147C144.23,478.592,143.134,479.106,143.596,479.253L143.596,479.253z"/>
<path fill="#4F4F4F" d="M112.626,469.846c1.754,0.172,3.502,0.321,5.262,0.334c0.49,0.007,1.277-0.729,0.459-0.737
	c-1.763-0.022-3.511-0.169-5.262-0.334C112.583,469.056,111.809,469.77,112.626,469.846L112.626,469.846z"/>
<polygon opacity="0.15" fill="#020202" enable-background="new    " points="249.313,523.616 320.718,440.584 337.421,387.199 
	338.302,362.303 301.571,388.39 324.501,320.511 288.836,348.68 305.507,248.458 285.444,273.129 290.786,198.836 267.208,228.76 
	263.701,135.22 232.977,101.227 220.029,72.389 206.011,112.052 224.492,178.26 220.488,238.641 187.629,200.481 173.162,243.293 
	179.177,310.249 138.411,265.169 151.666,367.194 115.448,314.435 105.282,341.822 115.05,383.029 122.902,395.075 108.245,382.671 
	107.755,409.555 144.554,448.922 209.963,508.509 "/>
<path fill="#4F4F4F" d="M94.951,447.003c2.39-0.146,4.772-0.156,7.166,0c0.288,0.018,1.399-0.501,0.771-0.545
	c-2.479-0.162-4.95-0.156-7.43,0C95.104,446.479,94.143,447.056,94.951,447.003L94.951,447.003z"/>
<path fill="#4F4F4F" d="M104.063,452.332c1.286-0.753,2.648-1.179,4.121-1.37c0.579-0.074,1.013-0.76,0.171-0.649
	c-1.791,0.232-3.478,0.762-5.039,1.677C102.606,452.406,103.681,452.554,104.063,452.332L104.063,452.332z"/>
<path fill="#4F4F4F" d="M93.275,458.138c10.295-0.215,20.493,0.988,30.35-2.64c0.79-0.291,0.073-0.766-0.493-0.558
	c-9.526,3.503-19.479,2.247-29.396,2.455C93.248,457.402,92.458,458.155,93.275,458.138L93.275,458.138z"/>
<path fill="#4F4F4F" d="M124.255,459.931c3.842,2.682,8.18,4.114,12.67,5.296c0.398,0.104,1.429-0.487,0.738-0.673
	c-4.42-1.164-8.676-2.584-12.444-5.224C124.883,459.098,123.766,459.588,124.255,459.931L124.255,459.931z"/>
<path fill="#4F4F4F" d="M95.342,446.388c4.99,1.289,9.98,0.995,14.881-0.535c0.713-0.224,0.557-0.846-0.166-0.615
	c-4.634,1.444-9.26,1.708-13.974,0.48C95.691,445.617,94.653,446.204,95.342,446.388L95.342,446.388z"/>
<path fill="#4F4F4F" d="M101.348,439.757c3.279,2.07,6.82,2.551,10.585,1.741c0.753-0.167,0.542-0.898-0.199-0.74
	c-3.373,0.729-6.521,0.196-9.441-1.649C101.89,438.852,100.8,439.414,101.348,439.757L101.348,439.757z"/>
<path fill="#4F4F4F" d="M100.24,443.399c2.287,1.599,4.714,1.908,7.246,0.681c0.759-0.368,0.055-0.716-0.468-0.463
	c-2.045,0.995-3.873,0.56-5.648-0.683C101.03,442.696,99.931,443.18,100.24,443.399L100.24,443.399z"/>
<path fill="#4F4F4F" d="M93.628,342.074c0.536,0,1.255-0.814,0.438-0.814C93.53,341.26,92.808,342.074,93.628,342.074
	L93.628,342.074z"/>
<polygon fill="#CECCCC" points="112.69,474.4 121.534,473.774 137.333,473.908 132.083,476.773 121.479,479.367 111.288,478.871 "/>
</svg>
