<?xml version="1.0" encoding="utf-8"?>
<!-- Generator: Adobe Illustrator 15.1.0, SVG Export Plug-In . SVG Version: 6.00 Build 0)  -->
<!DOCTYPE svg PUBLIC "-//W3C//DTD SVG 1.1//EN" "http://www.w3.org/Graphics/SVG/1.1/DTD/svg11.dtd">
<svg version="1.1" id="Layer_1" xmlns="http://www.w3.org/2000/svg" xmlns:xlink="http://www.w3.org/1999/xlink" x="0px" y="0px"
	 width="155px" height="155px" viewBox="0 0 155 155" enable-background="new 0 0 155 155" xml:space="preserve">
<g>
	<polyline fill="#CDCCCC" stroke="#4E4E4E" stroke-width="0.4" stroke-miterlimit="10" points="61.192,125.045 40.349,123.577 
		41.721,116.192 39.354,111.73 47.921,112.854 56.887,109.432 63.531,110.186 	"/>
	<path fill="#CDCCCC" stroke="#4E4E4E" stroke-width="0.4" stroke-miterlimit="10" d="M35.389,118.392
		c0.607,3.271,3.016,5.568,5.38,5.131c2.363-0.439,3.783-3.45,3.173-6.724c-0.609-3.276-3.018-5.572-5.381-5.133
		S34.777,115.115,35.389,118.392z"/>
	<polygon fill="#CDCCCC" points="39.979,111.971 41.894,112.273 46.907,113.079 44.122,123.191 41.154,123.356 38.131,122.676 	"/>
	<g opacity="0.4">
		<g>
			<path fill="#4E4E4E" d="M51.33,116.234c-3.723-0.18-7.368-1.084-11.106-0.699c-0.286,0.029-0.479,0.37-0.077,0.328
				c3.684-0.378,7.292,0.53,10.96,0.707C51.331,116.581,51.722,116.253,51.33,116.234L51.33,116.234z"/>
		</g>
	</g>
	<g opacity="0.4">
		<g>
			<path fill="#4E4E4E" d="M44.919,119.398c-2.194-1.192-4.471-1.614-6.938-1.231c-0.261,0.04-0.493,0.346-0.089,0.283
				c2.347-0.364,4.488,0.083,6.561,1.208C44.6,119.739,45.137,119.517,44.919,119.398L44.919,119.398z"/>
		</g>
	</g>
	<g opacity="0.5">
		<g>
			<path fill="#4E4E4E" d="M39.97,116.502c-0.962-0.104-1.923-0.197-2.892-0.211c-0.188-0.003-0.627,0.277-0.237,0.283
				c0.926,0.014,1.844,0.105,2.764,0.205C39.758,116.796,40.282,116.535,39.97,116.502L39.97,116.502z"/>
		</g>
	</g>
	<g opacity="0.5">
		<g>
			<path fill="#4E4E4E" d="M42.709,112.952c-1.357-0.225-2.691-0.07-3.971,0.43c-0.379,0.148-0.03,0.317,0.224,0.219
				c1.098-0.429,2.227-0.54,3.389-0.348C42.523,113.281,43.033,113.006,42.709,112.952L42.709,112.952z"/>
		</g>
	</g>
	<g opacity="0.4">
		<g>
			<path fill="#4E4E4E" d="M57.809,123.846c-5.599-2.009-11.613-1.433-17.453-1.497c-0.185-0.002-0.627,0.275-0.238,0.279
				c5.764,0.063,11.695-0.514,17.223,1.47C57.49,124.151,58.017,123.921,57.809,123.846L57.809,123.846z"/>
		</g>
	</g>
	<g opacity="0.4">
		<g>
			<path fill="#4E4E4E" d="M43.186,119.963c-2.526,0.442-4.996,0.309-7.368-0.707c-0.098-0.042-0.453,0.108-0.312,0.168
				c2.445,1.047,5.02,1.171,7.618,0.717C43.292,120.111,43.455,119.916,43.186,119.963L43.186,119.963z"/>
		</g>
	</g>
	<g opacity="0.4">
		<g>
			<path fill="#676767" d="M40.436,114.372c-1.047-0.147-2.092,0.099-2.98,0.67c-0.313,0.202,0.459,0.083,0.586,0.002
				c0.556-0.358,1.098-0.48,1.755-0.389c0.177,0.025,0.378-0.032,0.539-0.104C40.383,114.53,40.611,114.396,40.436,114.372
				L40.436,114.372z"/>
		</g>
	</g>
	<g opacity="0.4">
		<g>
			<path fill="#4E4E4E" d="M37.033,121.431c0.693-0.054,1.378-0.151,2.057-0.303c0.238-0.054,0.176-0.273-0.06-0.221
				c-0.644,0.144-1.293,0.232-1.951,0.283C36.877,121.206,36.767,121.451,37.033,121.431L37.033,121.431z"/>
		</g>
	</g>
	<polyline fill="#CDCCCC" stroke="#4E4E4E" stroke-width="0.3" stroke-miterlimit="10" points="71.89,131.736 39.876,143.41 
		43.77,135.335 41.063,128.538 37.982,126.957 45.146,125.7 56.465,123.645 63.058,122.481 	"/>
	<polyline fill="#CDCCCC" stroke="#4E4E4E" stroke-width="0.4" stroke-miterlimit="10" points="93.5,121.219 116.966,120.442 
		113.81,127.925 114.699,132.207 108.004,131.911 99.459,136.278 92.772,136.244 	"/>
	<polyline fill="#CDCCCC" stroke="#4E4E4E" stroke-width="0.5" stroke-miterlimit="10" points="89.552,123.219 115.145,134.796 
		111.916,142.341 108.908,145.652 110.158,150.468 100.731,145.121 91.675,139.346 83.865,134.39 	"/>
	
		<ellipse transform="matrix(0.9542 0.2993 -0.2993 0.9542 43.0988 -28.8353)" fill="#CDCCCC" stroke="#4E4E4E" stroke-width="0.4" stroke-miterlimit="10" cx="115.691" cy="126.292" rx="4.351" ry="6.049"/>
	
		<ellipse transform="matrix(0.9986 -0.0527 0.0527 0.9986 -7.0602 2.244)" fill="#CDCCCC" stroke="#4E4E4E" stroke-width="0.5" stroke-miterlimit="10" cx="39.06" cy="135.123" rx="5.796" ry="8.394"/>
	
		<ellipse transform="matrix(0.9544 -0.2985 0.2985 0.9544 -38.3031 17.7851)" opacity="0.5" fill="none" stroke="#676767" stroke-width="0.5" stroke-miterlimit="10" cx="39.077" cy="134.296" rx="3.584" ry="5.182"/>
	<g opacity="0.4">
		<g>
			<path fill="#4E4E4E" d="M56.658,121.433c-4.318-0.667-8.239-1.812-12.636-1.202c-0.183,0.025-0.323,0.244-0.055,0.207
				c4.339-0.602,8.209,0.545,12.452,1.2C56.538,121.655,56.875,121.467,56.658,121.433L56.658,121.433z"/>
		</g>
	</g>
	<g opacity="0.4">
		<g>
			<path fill="#4E4E4E" d="M49.587,121.416c-2.002-0.484-4.011-0.622-6.063-0.458c-0.17,0.014-0.627,0.297-0.242,0.266
				c1.978-0.157,3.905-0.03,5.835,0.437C49.265,121.696,49.779,121.463,49.587,121.416L49.587,121.416z"/>
		</g>
	</g>
	<g opacity="0.5">
		<g>
			<path fill="#4E4E4E" d="M54.499,115.535c-4.485-0.134-8.92-0.677-13.354-1.345c-0.192-0.028-0.685,0.276-0.352,0.326
				c4.477,0.674,8.955,1.226,13.484,1.36C54.504,115.884,54.891,115.547,54.499,115.535L54.499,115.535z"/>
		</g>
	</g>
	<g opacity="0.4">
		<g>
			<path fill="#676767" d="M51.182,119.085c-1.067,0.008-2.057-0.279-2.932-0.894c-0.18-0.126-0.844,0.184-0.728,0.266
				c0.937,0.657,2.02,0.958,3.159,0.948C50.847,119.404,51.562,119.081,51.182,119.085L51.182,119.085z"/>
		</g>
	</g>
	<path opacity="0.6" fill="none" stroke="#818181" stroke-width="0.5" stroke-miterlimit="10" d="M40.257,134.213
		c-0.532-1.066-1.562-1.637-2.301-1.27c-0.74,0.369-0.908,1.533-0.376,2.603c0.532,1.07,1.562,1.638,2.301,1.272
		C40.622,136.448,40.79,135.283,40.257,134.213z"/>
	
		<ellipse transform="matrix(0.9541 0.2994 -0.2994 0.9541 47.8686 -27.2421)" fill="#CDCCCC" stroke="#4E4E4E" stroke-width="0.5" stroke-miterlimit="10" cx="112.849" cy="142.616" rx="5.67" ry="8.209"/>
	<path fill="#CDCCCC" stroke="#4E4E4E" stroke-miterlimit="10" d="M81.965,135.972c3.225-2.005,20.524-20.964,22.87-25.411
		c2.346-4.448,2.444-12.559,2.541-17.006c0.098-4.447-0.781-7.624-0.781-7.624l-9.383,9.579c0,0,3.371-5.816,3.812-11.534
		c0.439-5.718-0.098-10.164-0.098-10.164l-8.992,10.166c0,0,3.714-11.875,3.909-16.127c0.196-4.253-3.322-15.146-3.322-15.146
		l-4.691,8.407c0,0,1.026-10.122,1.026-12.907c0-2.785-1.759-10.115-1.759-10.115l-6.305,10.316c0,0-0.879-19.991-7.183-27.615
		S58.655,4.078,58.655,4.078s-2.785,6.597-1.612,12.021c1.172,5.424,6.89,13.488,8.503,18.765
		c1.612,5.277,1.319,18.472,1.319,18.472l-11.581-9.529c0,0-2.932,7.917-2.052,13.194c0.879,5.278,3.665,18.326,3.665,18.326
		L45.607,65.217c0,0,1.759,15.386,2.493,19.784c0.733,4.398,5.523,10.708,5.523,10.708L38.864,81.336c0,0-1.612,7.331-0.586,11.289
		c1.026,3.958,5.571,9.535,5.571,9.535l2.737,3.322l-6.402-3.329c0,0-0.146,7.038,1.759,8.943
		c1.906,1.906,13.048,9.827,13.048,9.827s18.765,13.785,21.11,15.247C78.446,137.632,78.74,137.976,81.965,135.972z"/>
	<path fill="none" stroke="#818181" stroke-width="0.7" stroke-miterlimit="10" d="M91.446,120.627c0,0,7.939-7.525,9.48-14.855
		c1.542-7.33,1.661-9.48,1.661-9.48l-10.75,10.946"/>
	<path fill="none" stroke="#818181" stroke-width="0.7" stroke-miterlimit="10" d="M93.693,92.389c0,0,1.562-1.905,2.126-2.843
		c0.563-0.937,0.659-4.545,0.659-4.545l-4.152,3.282"/>
	<path fill="none" stroke="#818181" stroke-width="0.7" stroke-miterlimit="10" d="M90.763,116.913
		c0.305-0.507,3.55-4.134,5.667-7.428c1.799-2.798,2.542-5.375,2.542-5.375l-7.622,6.743"/>
	<path fill="none" stroke="#818181" stroke-width="0.7" stroke-miterlimit="10" d="M92.717,96.69c0,0,4.349-4.212,5.081-7.511
		c0.733-3.299,0.88-8.649,0.88-8.649l-8.307,7.95"/>
	<path fill="none" stroke="#818181" stroke-width="0.7" stroke-miterlimit="10" d="M90.907,79.577c0,0,3.616-7.746,2.933-12.094
		c-0.684-4.349-1.833-9.749-1.833-9.749l-4.472,11.508l-2.638,4.911"/>
	<polyline fill="none" stroke="#818181" stroke-width="0.7" stroke-miterlimit="10" points="92.447,69.462 91.494,63.964 
		88.329,73.221 	"/>
	<path fill="none" stroke="#818181" stroke-width="0.6" stroke-miterlimit="10" d="M83.725,64.833l1.564-18.765
		c0,0-2.485,2.679-4.188,6.219s-1.922,5.373-1.922,5.373"/>
	<path fill="none" stroke="#818181" stroke-width="0.6" stroke-miterlimit="10" d="M82.356,63.466l1.173-11.5
		c0,0-2.443,2.322-2.737,5.181c-0.293,2.859,0.073,3.445,0.073,3.445"/>
	<path fill="none" stroke="#818181" stroke-width="0.6" stroke-miterlimit="10" d="M76.296,48.219c0,0,1.174-16.029-3.909-22.479
		c-5.083-6.451-9.578-10.165-9.578-10.165l5.815,19.582l1.808,16.775"/>
	<path fill="none" stroke="#818181" stroke-width="0.6" stroke-miterlimit="10" d="M72.973,29.437
		c-2.635-3.345-6.255-6.938-6.255-6.938l3.798,13.697"/>
	<path fill="none" stroke="#818181" stroke-width="0.6" stroke-miterlimit="10" d="M75.029,48.401
		c-0.312-0.606,0.19-11.062-0.586-13.391c-0.879-2.639-3.337-4.583-3.337-4.583l1.969,16.997"/>
	<path fill="none" stroke="#818181" stroke-width="0.7" stroke-miterlimit="10" d="M61.831,111.732
		c-1.319-7.916,2.249-25.997,2.249-25.997s10.995,13.486,12.901,17.885c1.906,4.398,0.439,14.221,0.439,14.221"/>
	<path fill="none" stroke="#818181" stroke-width="0.7" stroke-miterlimit="10" d="M66.718,113.735
		c-1.319-7.916-0.146-19.204-0.146-19.204s3.566,5.18,4.935,8.112c1.369,2.932,2.542,9.772,2.542,9.772"/>
	<path fill="none" stroke="#818181" stroke-width="0.7" stroke-miterlimit="10" d="M69.162,112.709
		c-1.319-7.916-0.781-8.991-0.781-8.991l3.323,8.991"/>
	<path fill="none" stroke="#818181" stroke-width="0.7" stroke-miterlimit="10" d="M65.155,116.424l-5.474-5.474
		c0,0-0.294,2.151,0.097,4.008c0.392,1.856,2.542,4.3,2.542,4.3"/>
	<path fill="none" stroke="#818181" stroke-width="0.7" stroke-miterlimit="10" d="M79.23,119.356c0,0,0.389-3.321,1.661-4.594
		c1.271-1.271,6.156-4.691,6.156-4.691s0.587,8.602-0.684,11.436c-1.271,2.835-3.226,4.984-3.226,4.984"/>
	<path fill="none" stroke="#818181" stroke-width="0.7" stroke-miterlimit="10" d="M79.816,121.507l4.984-5.668
		c0,0,0.196,1.466-0.293,3.225c-0.489,1.76-1.857,4.398-1.857,4.398"/>
	<path fill="none" stroke="#818181" stroke-width="0.7" stroke-miterlimit="10" d="M54.503,117.206c0,0-3.714-1.954-5.277-3.322
		c-1.563-1.369-2.248-3.519-2.248-3.519l5.472,1.367c0,0-3.126-2.639-5.472-6.743c-2.346-4.105-4.691-12.901-4.691-12.901
		l13.584,10.849"/>
	<path fill="none" stroke="#818181" stroke-width="0.7" stroke-miterlimit="10" d="M52.843,108.703c0,0-2.932-3.323-4.105-4.887
		c-1.173-1.563-0.685-4.398-0.685-4.398l7.135,6.354"/>
	<path fill="none" stroke="#818181" stroke-width="0.7" stroke-miterlimit="10" d="M55.969,92.87c0,0-1.759-0.878-3.616-5.473
		c-1.856-4.594-2.442-13.487-2.442-13.487l9.969,8.894"/>
	<path fill="none" stroke="#818181" stroke-width="0.7" stroke-miterlimit="10" d="M56.361,89.352l-2.738-8.111
		c0,0,3.519,2.346,4.399,3.91c0.879,1.562,0.586,3.127,0.586,3.127"/>
	<path fill="none" stroke="#818181" stroke-width="0.7" stroke-miterlimit="10" d="M70.63,81.63c0,0-0.195-3.714,0.391-7.624
		c0.587-3.909,3.909-9.773,3.909-9.773c5.278,14.854,6.061,15.638,6.549,18.569c0.487,2.933-1.858,10.458-1.858,10.458"/>
	<path fill="none" stroke="#818181" stroke-width="0.7" stroke-miterlimit="10" d="M78.547,88.862c0,0,0.098-5.181-0.195-8.895
		c-0.293-3.713-3.812-7.72-3.812-7.72l-1.173,12.315"/>
	<path fill="none" stroke="#818181" stroke-width="0.7" stroke-miterlimit="10" d="M60.271,71.758c0,0-2.541-5.474-3.029-8.992
		c-0.489-3.518,0.293-10.555,0.293-10.555s8.501,7.917,9.48,10.555c0.978,2.639,2.052,10.849,2.052,10.849"/>
	<path fill="none" stroke="#818181" stroke-width="0.7" stroke-miterlimit="10" d="M61.932,70.194l-2.736-10.75
		c0,0,3.225,1.172,3.909,3.127c0.684,1.954,2.248,6.743,2.248,6.743"/>
	<path opacity="0.5" fill="#676767" stroke="#4E4E4E" stroke-width="0.6" stroke-miterlimit="10" d="M46.842,134.198"/>
	<g opacity="0.5">
		<path fill="#676767" d="M49.601,135.009c3.895-1.308,7.685-3.195,11.402-5.079"/>
		<g>
			<path fill="#4E4E4E" d="M49.742,135.126c3.977-1.376,7.742-3.223,11.49-5.119c0.461-0.233-0.249-0.261-0.459-0.154
				c-3.691,1.867-7.399,3.685-11.314,5.039C48.941,135.07,49.426,135.235,49.742,135.126L49.742,135.126z"/>
		</g>
	</g>
	<g opacity="0.5">
		<path fill="#676767" d="M48.857,130.643c4.3-0.594,8.583-1.479,12.871-2.292"/>
		<g>
			<path fill="#4E4E4E" d="M48.816,130.901c4.352-0.623,8.66-1.487,12.976-2.312c0.485-0.093,0.345-0.569-0.128-0.479
				c-4.247,0.811-8.485,1.66-12.766,2.272C48.492,130.442,48.288,130.977,48.816,130.901L48.816,130.901z"/>
		</g>
	</g>
	<g opacity="0.5">
		<path fill="#676767" d="M44.545,126.833c6.804-0.433,9.802-0.663,16.59-1.388"/>
		<g>
			<path fill="#4E4E4E" d="M44.389,127.03c5.575-0.356,11.132-0.808,16.688-1.396c0.356-0.038,0.658-0.437,0.118-0.379
				c-5.49,0.581-10.983,1.027-16.493,1.38C44.448,126.652,43.872,127.063,44.389,127.03L44.389,127.03z"/>
		</g>
	</g>
	<g opacity="0.5">
		<path fill="#676767" d="M45.417,140.586c6.961-3.009,13.916-6.164,21.039-8.889"/>
		<g>
			<path fill="#4E4E4E" d="M45.642,140.646c6.956-3.017,13.877-6.112,20.95-8.852c0.512-0.198,0.028-0.31-0.272-0.193
				c-7.132,2.763-14.111,5.884-21.127,8.926C44.723,140.73,45.45,140.728,45.642,140.646L45.642,140.646z"/>
		</g>
	</g>
	<g opacity="0.5">
		<path fill="#676767" d="M48.028,137.219c0.582-0.104,1.234-0.285,1.811-0.462"/>
		<g>
			<path fill="#4E4E4E" d="M47.966,137.398c0.648-0.123,1.284-0.293,1.916-0.484c0.45-0.136,0.371-0.453-0.085-0.314
				c-0.562,0.17-1.128,0.33-1.707,0.439c-0.137,0.026-0.392,0.081-0.446,0.237C47.592,137.429,47.897,137.411,47.966,137.398
				L47.966,137.398z"/>
		</g>
	</g>
	<g opacity="0.5">
		<path fill="#676767" d="M60.525,132.011c1.866-0.833,3.653-1.733,5.359-2.779"/>
		<g>
			<path fill="#4E4E4E" d="M60.69,132.213c1.869-0.841,3.691-1.767,5.445-2.828c0.448-0.271-0.208-0.484-0.5-0.307
				c-1.698,1.027-3.465,1.916-5.274,2.73C59.875,132.027,60.312,132.383,60.69,132.213L60.69,132.213z"/>
		</g>
	</g>
	<g opacity="0.5">
		<path fill="#676767" d="M63.86,128.836c0.733-0.073,0.806,0.22,1.466,0"/>
		<g>
			<path fill="#4E4E4E" d="M63.694,128.996c0.302-0.021,0.576,0.052,0.872,0.083c0.265,0.026,0.542-0.045,0.793-0.118
				c0.068-0.021,0.386-0.105,0.353-0.229c-0.032-0.121-0.352-0.041-0.419-0.021c-0.382,0.111-0.862-0.062-1.267-0.035
				C63.819,128.689,63.183,129.029,63.694,128.996L63.694,128.996z"/>
		</g>
	</g>
	<g opacity="0.5">
		<path fill="#676767" d="M44.799,128.873c3.733-0.195,7.483-0.099,11.2-0.588"/>
		<g>
			<path fill="#4E4E4E" d="M44.77,129.174c3.737-0.175,7.479-0.142,11.2-0.588c0.441-0.053,0.583-0.665,0.059-0.602
				c-3.72,0.445-7.462,0.413-11.2,0.588C44.377,128.593,44.245,129.198,44.77,129.174L44.77,129.174z"/>
		</g>
	</g>
	<g opacity="0.5">
		<path fill="#676767" d="M47.466,133.506c1.875-0.613,3.749-1.299,5.551-1.907"/>
		<g>
			<path fill="#4E4E4E" d="M47.602,133.601c1.858-0.612,3.698-1.278,5.551-1.907c0.521-0.177,0.028-0.291-0.271-0.189
				c-1.853,0.629-3.692,1.295-5.551,1.907C46.807,133.583,47.302,133.699,47.602,133.601L47.602,133.601z"/>
		</g>
	</g>
	<g opacity="0.5">
		<path fill="#676767" d="M46.237,132.469c1.086-0.277,2.173-0.556,3.263-0.76"/>
		<g>
			<path fill="#4E4E4E" d="M46.287,132.654c1.048-0.267,2.096-0.534,3.159-0.738c0.357-0.068,0.642-0.517,0.109-0.414
				c-1.133,0.218-2.25,0.496-3.368,0.781C45.722,132.401,45.824,132.772,46.287,132.654L46.287,132.654z"/>
		</g>
	</g>
	<g opacity="0.5">
		<path fill="#676767" d="M51.4,135.721c3.082-0.017,5.771-1.918,8.818-2.593"/>
		<g>
			<path fill="#4E4E4E" d="M51.245,135.923c3.219-0.138,5.947-1.862,9.019-2.621c0.464-0.115,0.368-0.461-0.093-0.348
				c-2.914,0.721-5.571,2.435-8.617,2.564C51.293,135.53,50.726,135.945,51.245,135.923L51.245,135.923z"/>
		</g>
	</g>
	<g opacity="0.5">
		<path fill="#676767" d="M53.226,127.183c3.155-0.02,6.307-0.112,9.358-0.713"/>
		<g>
			<path fill="#4E4E4E" d="M53.192,127.469c3.179-0.026,6.332-0.155,9.464-0.731c0.491-0.09,0.335-0.624-0.144-0.535
				c-3.06,0.562-6.149,0.669-9.253,0.694C52.816,126.9,52.667,127.473,53.192,127.469L53.192,127.469z"/>
		</g>
	</g>
	<g>
		<path fill="#676767" d="M66.499,133.674c1.247-0.294,2.419-0.807,3.519-1.467"/>
		<g>
			<path fill="#4E4E4E" d="M66.544,133.844c1.313-0.325,2.543-0.856,3.708-1.543c0.448-0.264-0.242-0.321-0.469-0.188
				c-1.049,0.618-2.146,1.098-3.33,1.391C65.99,133.619,66.084,133.957,66.544,133.844L66.544,133.844z"/>
		</g>
	</g>
	<g opacity="0.5">
		<path fill="#676767" d="M63.2,132.354c1.466-0.806,2.859-1.319,4.397-1.685"/>
		<g>
			<path fill="#4E4E4E" d="M63.433,132.443c1.34-0.721,2.731-1.247,4.208-1.609c0.463-0.113,0.371-0.442-0.088-0.33
				c-1.607,0.395-3.129,0.976-4.586,1.76C62.51,132.51,63.21,132.563,63.433,132.443L63.433,132.443z"/>
		</g>
	</g>
	<g opacity="0.5">
		<path fill="#676767" d="M45.497,136.545c0.875-0.12,1.815-0.39,2.682-0.655"/>
		<g>
			<path fill="#4E4E4E" d="M45.454,136.798c0.949-0.141,1.87-0.395,2.787-0.675c0.464-0.141,0.344-0.61-0.125-0.467
				c-0.847,0.258-1.699,0.506-2.577,0.636C45.138,136.352,44.925,136.876,45.454,136.798L45.454,136.798z"/>
		</g>
	</g>
	<g opacity="0.5">
		<g>
			<path fill="#676767" d="M54.12,131.816c1.868-0.68,3.754-1.306,5.621-1.984c0.514-0.188,0.035-0.36-0.285-0.244
				c-1.868,0.68-3.754,1.306-5.621,1.984C53.321,131.76,53.8,131.933,54.12,131.816L54.12,131.816z"/>
		</g>
	</g>
	<path opacity="0.5" fill="none" stroke="#818181" stroke-width="0.5" stroke-miterlimit="10" d="M113.696,144.674
		c0.903-0.781,1.201-1.919,0.665-2.544c-0.543-0.627-1.712-0.502-2.616,0.278c-0.907,0.778-1.203,1.918-0.665,2.543
		C111.619,145.579,112.792,145.452,113.696,144.674z"/>
	
		<ellipse transform="matrix(0.817 0.5766 -0.5766 0.817 103.0967 -38.9443)" opacity="0.5" fill="none" stroke="#676767" stroke-width="0.5" stroke-miterlimit="10" cx="112.909" cy="142.966" rx="3.583" ry="5.183"/>
	<g opacity="0.5">
		<path fill="#676767" d="M92.129,129.715c5.571,0.978,10.945,2.639,16.321,4.008"/>
		<g>
			<path fill="#4E4E4E" d="M91.885,129.896c5.496,1.014,10.847,2.598,16.252,3.993c0.202,0.053,0.893-0.264,0.627-0.332
				c-5.451-1.407-10.849-3.001-16.391-4.022C92.175,129.497,91.472,129.819,91.885,129.896L91.885,129.896z"/>
		</g>
	</g>
	<g opacity="0.5">
		<g>
			<path fill="#4E4E4E" d="M103.207,144.041c-1.948-0.404-3.575-1.329-4.858-2.855c-0.202-0.24-0.941,0.051-0.713,0.322
				c1.342,1.596,3.077,2.586,5.112,3.008C103.04,144.576,103.665,144.136,103.207,144.041L103.207,144.041z"/>
		</g>
	</g>
	<g opacity="0.5">
		<g>
			<path fill="#4E4E4E" d="M95.38,138.444c3.153,1.343,6.578,1.611,9.821,2.656c0.169,0.054,0.852-0.222,0.637-0.291
				c-3.213-1.034-6.604-1.292-9.729-2.623C95.901,138.098,95.315,138.417,95.38,138.444L95.38,138.444z"/>
		</g>
	</g>
	<g opacity="0.5">
		<g>
			<path fill="#4E4E4E" d="M102.176,142.49c0.939,0.29,1.84,0.676,2.737,1.075c0.193,0.087,0.903-0.21,0.625-0.334
				c-0.897-0.399-1.797-0.786-2.737-1.075C102.599,142.094,101.902,142.406,102.176,142.49L102.176,142.49z"/>
		</g>
	</g>
	<g opacity="0.5">
		<g>
			<path fill="#4E4E4E" d="M91.081,133.562c1.31,0.679,2.716,1.073,4.15,1.388c0.183,0.039,0.856-0.254,0.635-0.303
				c-1.402-0.307-2.776-0.686-4.057-1.349C91.607,133.193,90.984,133.512,91.081,133.562L91.081,133.562z"/>
		</g>
	</g>
	<g opacity="0.5">
		<g>
			<path fill="#4E4E4E" d="M95.62,134.084c2.95,1.233,5.859,2.568,9.081,2.854c0.383,0.034,0.788-0.522,0.266-0.568
				c-3.161-0.281-6.011-1.604-8.901-2.813C95.734,133.419,95.165,133.894,95.62,134.084L95.62,134.084z"/>
		</g>
	</g>
	<g opacity="0.5">
		<g>
			<path fill="#4E4E4E" d="M85.609,133.666c2.629,2.601,6.209,3.899,8.795,6.549c0.158,0.161,0.88-0.119,0.725-0.279
				c-2.587-2.648-6.166-3.948-8.795-6.549C86.172,133.228,85.453,133.511,85.609,133.666L85.609,133.666z"/>
		</g>
	</g>
	<g opacity="0.5">
		<g>
			<path fill="#4E4E4E" d="M92.895,127.352c2.317,1.231,4.746,2.193,7.231,3.031c0.219,0.074,0.92-0.255,0.619-0.355
				c-2.484-0.838-4.913-1.8-7.231-3.031C93.309,126.887,92.593,127.191,92.895,127.352L92.895,127.352z"/>
		</g>
	</g>
	<g opacity="0.5">
		<g>
			<path fill="#4E4E4E" d="M104.927,134.92c0.928,0.598,1.955,0.986,3.007,1.307c0.324,0.099,0.912-0.372,0.447-0.514
				c-0.999-0.304-1.975-0.665-2.856-1.234C105.243,134.298,104.562,134.684,104.927,134.92L104.927,134.92z"/>
		</g>
	</g>
	<g opacity="0.5">
		<g>
			<path fill="#4E4E4E" d="M102.355,130.824c1.374,0.399,2.716,0.88,4.033,1.437c0.257,0.109,0.955-0.254,0.607-0.4
				c-1.364-0.577-2.754-1.08-4.178-1.493C102.541,130.286,101.905,130.694,102.355,130.824L102.355,130.824z"/>
		</g>
	</g>
	<g opacity="0.5">
		<g>
			<path fill="#4E4E4E" d="M91.007,131.47c2.566,0.3,5.085,0.778,7.555,1.547c0.212,0.066,0.91-0.257,0.623-0.346
				c-2.515-0.782-5.08-1.277-7.693-1.582C91.278,131.064,90.587,131.421,91.007,131.47L91.007,131.47z"/>
		</g>
	</g>
	<g opacity="0.5">
		<g>
			<path fill="#4E4E4E" d="M99.787,133.595c0.246,0.226,0.501,0.362,0.814,0.474c0.308,0.108,0.909-0.335,0.453-0.496
				c-0.21-0.074-0.392-0.156-0.557-0.308C100.255,133.042,99.525,133.354,99.787,133.595L99.787,133.595z"/>
		</g>
	</g>
	<g opacity="0.5">
		<g>
			<path fill="#676767" d="M96.089,136.988c3.452,0.364,6.68,1.693,10.077,2.333c0.268,0.051,0.915-0.363,0.465-0.447
				c-3.456-0.65-6.737-1.987-10.251-2.358C96.061,136.482,95.566,136.933,96.089,136.988L96.089,136.988z"/>
		</g>
	</g>
	<g opacity="0.5">
		<g>
			<path fill="#676767" d="M88.126,132.164c0.658,2.524,2.527,4.127,5.041,4.675c0.382,0.083,0.779-0.453,0.268-0.564
				c-2.298-0.5-3.941-2.039-4.535-4.317C88.806,131.598,88.032,131.804,88.126,132.164L88.126,132.164z"/>
		</g>
	</g>
	<g opacity="0.5">
		<g>
			<path fill="#676767" d="M103.337,134.213c1.86-0.157,3.601,0.122,5.208,1.107c0.303,0.186,0.973-0.226,0.592-0.459
				c-1.766-1.082-3.69-1.411-5.737-1.238C102.957,133.66,102.812,134.257,103.337,134.213L103.337,134.213z"/>
		</g>
	</g>
	<polygon fill="#CDCCCC" points="115,132.012 113.339,131.914 108.989,131.645 110.432,120.969 115.17,120.607 115.82,120.6 	"/>
	<g opacity="0.5">
		<g>
			<path fill="#4E4E4E" d="M97.06,123.38c5.777,0.227,11.625,0.748,17.305-0.613c0.468-0.111,0.363-0.482-0.1-0.371
				c-5.536,1.326-11.272,0.78-16.9,0.559C97.08,122.943,96.537,123.359,97.06,123.38L97.06,123.38z"/>
		</g>
	</g>
	<g opacity="0.5">
		<g>
			<path fill="#4E4E4E" d="M100.115,126.106c2.878-0.165,5.748-0.006,8.625,0.096c0.268,0.01,0.598-0.389,0.205-0.402
				c-2.927-0.104-5.846-0.265-8.773-0.098C99.853,125.721,99.719,126.129,100.115,126.106L100.115,126.106z"/>
		</g>
	</g>
	<g opacity="0.5">
		<g>
			<path fill="#4E4E4E" d="M107.387,130.434c2.05,0.267,4.069,0.183,6.099-0.202c0.244-0.047,0.502-0.328,0.098-0.252
				c-1.942,0.369-3.866,0.445-5.827,0.19C107.612,130.151,107.081,130.394,107.387,130.434L107.387,130.434z"/>
		</g>
	</g>
	<g opacity="0.5">
		<g>
			<path fill="#4E4E4E" d="M104.309,128.902c3.725-0.223,7.442,0.282,11.122-0.503c0.355-0.076,0.27-0.373-0.08-0.299
				c-3.615,0.771-7.306,0.254-10.966,0.474C104.096,128.591,103.907,128.927,104.309,128.902L104.309,128.902z"/>
		</g>
	</g>
	<g opacity="0.5">
		<g>
			<path fill="#4E4E4E" d="M106.807,124.691c0.88,0.099,1.759,0.196,2.639,0.293c0.181,0.021,0.682-0.277,0.355-0.312
				c-0.88-0.098-1.76-0.194-2.639-0.293C106.981,124.358,106.48,124.655,106.807,124.691L106.807,124.691z"/>
		</g>
	</g>
	<g opacity="0.5">
		<g>
			<path fill="#4E4E4E" d="M110.336,125.121c2.319,0.951,4.635,1.137,7.062,0.491c0.358-0.096,0.252-0.491-0.105-0.396
				c-2.289,0.61-4.439,0.411-6.622-0.483C110.427,124.632,109.994,124.981,110.336,125.121L110.336,125.121z"/>
		</g>
	</g>
	<g opacity="0.5">
		<g>
			<path fill="#4E4E4E" d="M115.568,127.428c0.972,0,1.939-0.012,2.907-0.104c0.275-0.025,0.487-0.339,0.084-0.301
				c-0.919,0.087-1.839,0.093-2.761,0.094C115.594,127.117,115.178,127.428,115.568,127.428L115.568,127.428z"/>
		</g>
	</g>
	<g opacity="0.5">
		<g>
			<path fill="#4E4E4E" d="M113.227,131.255c1.348,0.076,2.647-0.203,3.844-0.826c0.355-0.186,0.028-0.39-0.232-0.254
				c-1.066,0.556-2.188,0.806-3.389,0.738C113.22,130.9,112.834,131.233,113.227,131.255L113.227,131.255z"/>
		</g>
	</g>
	<g opacity="0.5">
		<g>
			<path fill="#4E4E4E" d="M99.82,127.761c4.471-0.347,8.937-0.284,13.413-0.099c0.261,0.011,0.602-0.374,0.209-0.391
				c-4.528-0.188-9.039-0.251-13.562,0.099C99.568,127.395,99.423,127.791,99.82,127.761L99.82,127.761z"/>
		</g>
	</g>
	<g opacity="0.5">
		<g>
			<path fill="#4E4E4E" d="M93.556,124.659c3.136,0.829,6.22,0.086,9.4,0.111c0.182,0.002,0.629-0.271,0.24-0.273
				c-3.092-0.025-6.117,0.721-9.17-0.086C93.875,124.371,93.356,124.606,93.556,124.659L93.556,124.659z"/>
		</g>
	</g>
	<g opacity="0.5">
		<g>
			<path fill="#4E4E4E" d="M96.978,122.022c5.815,1.39,11.738,0.187,17.584-0.384c0.26-0.025,0.499-0.306,0.094-0.266
				c-5.716,0.558-11.519,1.758-17.209,0.397C97.293,121.734,96.776,121.975,96.978,122.022L96.978,122.022z"/>
		</g>
	</g>
	<g opacity="0.5">
		<g>
			<path fill="#4E4E4E" d="M112.02,124.429c2.436-0.698,4.862-0.84,7.307-0.097c0.235,0.072,0.685-0.27,0.338-0.375
				c-2.577-0.784-5.174-0.642-7.746,0.097C111.565,124.154,111.664,124.531,112.02,124.429L112.02,124.429z"/>
		</g>
	</g>
	<g opacity="0.5">
		<g>
			<path fill="#676767" d="M115.567,122.447c1.033-0.119,2.015,0.06,2.928,0.56c0.199,0.108,0.831-0.209,0.729-0.266
				c-1.03-0.564-2.162-0.745-3.324-0.612C115.698,122.152,115.061,122.505,115.567,122.447L115.567,122.447z"/>
		</g>
	</g>
	<g opacity="0.5">
		<g>
			<path fill="#676767" d="M115.341,129.598c1.043,0.033,2.028-0.269,2.843-0.93c0.319-0.26-0.452-0.178-0.602-0.057
				c-0.52,0.422-1.07,0.658-1.749,0.637c-0.188-0.006-0.392,0.036-0.547,0.146C115.169,129.478,115.184,129.593,115.341,129.598
				L115.341,129.598z"/>
		</g>
	</g>
	<g opacity="0.4">
		<g>
			<path fill="#4E4E4E" d="M43.569,117.174c1.424,0.5,2.851,0.9,4.35,0.526c0.226-0.057,0.196-0.163-0.028-0.107
				c-1.352,0.337-2.692-0.104-3.956-0.548C43.827,117.008,43.546,117.165,43.569,117.174L43.569,117.174z"/>
		</g>
	</g>
	<g opacity="0.4">
		<g>
			<path fill="#4E4E4E" d="M46.862,122.142c1.107,0.051,2.215,0.098,3.324,0.101c0.227,0.001,0.292-0.297,0.03-0.297
				c-1.076-0.004-2.15-0.049-3.225-0.099C46.796,121.838,46.601,122.129,46.862,122.142L46.862,122.142z"/>
		</g>
	</g>
	<g opacity="0.4">
		<g>
			<path fill="#4E4E4E" d="M49.792,123.622c0.718,0.229,1.44,0.341,2.193,0.35c0.158,0.002,0.407-0.235,0.146-0.238
				c-0.724-0.008-1.417-0.116-2.106-0.336C49.89,123.354,49.57,123.552,49.792,123.622L49.792,123.622z"/>
		</g>
	</g>
	<g opacity="0.5">
		<g>
			<path fill="#4E4E4E" d="M40.844,120.893c0.504,0.049,1.008,0.092,1.515,0.097c0.156,0.002,0.407-0.233,0.146-0.236
				c-0.507-0.005-1.01-0.048-1.515-0.097C40.83,120.641,40.583,120.867,40.844,120.893L40.844,120.893z"/>
		</g>
	</g>
	<polygon opacity="0.15" fill="#010101" points="80.206,136.362 100.765,112.455 105.573,97.085 105.827,89.917 95.251,97.428 
		101.854,77.884 91.585,85.994 96.385,57.139 90.607,64.243 92.146,42.852 85.358,51.468 84.347,24.536 75.502,14.75 71.774,6.446 
		67.739,17.866 73.06,36.929 71.907,54.313 62.447,43.327 58.28,55.651 60.012,74.93 48.274,61.951 52.092,91.325 41.664,76.135 
		38.736,84.02 41.549,95.885 43.81,99.354 39.589,95.782 39.448,103.521 50.043,114.855 68.876,132.012 	"/>
	<g opacity="0.5">
		<g>
			<path fill="#4E4E4E" d="M35.753,114.312c0.687-0.042,1.372-0.045,2.06,0c0.092,0.006,0.447-0.16,0.246-0.174
				c-0.715-0.047-1.428-0.044-2.144,0C35.803,114.146,35.496,114.328,35.753,114.312L35.753,114.312z"/>
		</g>
	</g>
	<g opacity="0.5">
		<g>
			<path fill="#4E4E4E" d="M38.397,115.844c0.368-0.214,0.752-0.335,1.173-0.391c0.184-0.024,0.323-0.243,0.055-0.207
				c-0.522,0.069-1.01,0.224-1.466,0.488C37.933,115.865,38.275,115.914,38.397,115.844L38.397,115.844z"/>
		</g>
	</g>
	<g opacity="0.5">
		<g>
			<path fill="#4E4E4E" d="M35.273,117.521c2.969-0.062,5.909,0.284,8.753-0.763c0.252-0.093,0.023-0.245-0.158-0.178
				c-2.736,1.007-5.599,0.646-8.449,0.704C35.265,117.287,35.012,117.525,35.273,117.521L35.273,117.521z"/>
		</g>
	</g>
	<g opacity="0.4">
		<g>
			<path fill="#4E4E4E" d="M44.185,118.034c1.106,0.773,2.357,1.187,3.651,1.528c0.127,0.034,0.456-0.156,0.235-0.215
				c-1.271-0.336-2.494-0.745-3.58-1.505C44.384,117.769,44.028,117.924,44.185,118.034L44.185,118.034z"/>
		</g>
	</g>
	<g opacity="0.5">
		<g>
			<path fill="#4E4E4E" d="M35.863,114.137c1.441,0.373,2.883,0.287,4.298-0.154c0.228-0.071,0.178-0.27-0.053-0.197
				c-1.329,0.415-2.656,0.489-4.009,0.139C35.975,113.892,35.644,114.079,35.863,114.137L35.863,114.137z"/>
		</g>
	</g>
	<g opacity="0.4">
		<g>
			<path fill="#4E4E4E" d="M37.589,112.229c0.949,0.6,1.976,0.736,3.066,0.502c0.24-0.053,0.173-0.287-0.063-0.236
				c-0.966,0.209-1.865,0.054-2.701-0.475C37.763,111.938,37.415,112.118,37.589,112.229L37.589,112.229z"/>
		</g>
	</g>
	<g opacity="0.4">
		<g>
			<path fill="#4E4E4E" d="M37.268,113.273c0.667,0.465,1.374,0.55,2.111,0.195c0.243-0.117,0.018-0.229-0.149-0.148
				c-0.589,0.284-1.094,0.159-1.603-0.195C37.519,113.05,37.169,113.205,37.268,113.273L37.268,113.273z"/>
		</g>
	</g>
	<g>
		<g>
			<path fill="#4E4E4E" d="M35.374,84.105c0.171,0,0.401-0.26,0.14-0.26C35.343,83.846,35.113,84.105,35.374,84.105L35.374,84.105z"
				/>
		</g>
	</g>
	<polygon fill="#CDCCCC" points="40.869,122.191 43.416,122.012 47.965,122.05 46.453,122.874 43.4,123.621 40.466,123.479 	"/>
</g>
</svg>
