<?xml version="1.0" encoding="utf-8"?>
<!-- Generator: Adobe Illustrator 15.1.0, SVG Export Plug-In . SVG Version: 6.00 Build 0)  -->
<!DOCTYPE svg PUBLIC "-//W3C//DTD SVG 1.1//EN" "http://www.w3.org/Graphics/SVG/1.1/DTD/svg11.dtd">
<svg version="1.1" id="Layer_1" xmlns="http://www.w3.org/2000/svg" xmlns:xlink="http://www.w3.org/1999/xlink" x="0px" y="0px"
	 width="1000px" height="200px" viewBox="0 0 1000 200" enable-background="new 0 0 1000 200" xml:space="preserve">
<g>
	<polyline fill="#CDCCCC" stroke="#4E4E4E" stroke-width="0.4" stroke-miterlimit="10" points="481.962,152.195 458.868,150.568 
		460.388,142.387 457.765,137.442 467.258,138.688 477.193,134.896 484.554,135.73 	"/>
	
		<ellipse transform="matrix(-0.9831 0.183 -0.183 -0.9831 934.8304 201.594)" fill="#CDCCCC" stroke="#4E4E4E" stroke-width="0.4" stroke-miterlimit="10" cx="458.111" cy="143.941" rx="4.82" ry="6.681"/>
	<polygon fill="#CDCCCC" points="458.458,137.709 460.58,138.045 466.134,138.937 463.048,150.142 459.761,150.324 456.412,149.57 	
		"/>
	<g opacity="0.4">
		<g>
			<path fill="#4E4E4E" d="M471.023,142.451c-4.122-0.198-8.16-1.201-12.299-0.774c-0.286,0.029-0.479,0.37-0.077,0.328
				c4.084-0.42,8.085,0.587,12.152,0.782C471.024,142.798,471.416,142.47,471.023,142.451L471.023,142.451z"/>
		</g>
	</g>
	<g opacity="0.4">
		<g>
			<path fill="#4E4E4E" d="M463.897,145.916c-2.428-1.319-4.939-1.82-7.676-1.396c-0.316,0.049-0.445,0.482-0.052,0.422
				c2.597-0.402,4.981,0.059,7.281,1.309C463.671,146.37,464.18,146.07,463.897,145.916L463.897,145.916z"/>
		</g>
	</g>
	<g opacity="0.5">
		<g>
			<path fill="#4E4E4E" d="M458.345,142.664c-1.068-0.115-2.134-0.217-3.208-0.231c-0.338-0.005-0.438,0.437-0.047,0.441
				c1.025,0.014,2.041,0.117,3.059,0.228C458.443,143.133,458.736,142.706,458.345,142.664L458.345,142.664z"/>
		</g>
	</g>
	<g opacity="0.5">
		<g>
			<path fill="#4E4E4E" d="M461.471,138.835c-1.49-0.246-2.963-0.067-4.366,0.48c-0.383,0.15-0.022,0.248,0.207,0.158
				c1.23-0.481,2.488-0.598,3.788-0.383C461.238,139.113,461.773,138.885,461.471,138.835L461.471,138.835z"/>
		</g>
	</g>
	<g opacity="0.4">
		<g>
			<path fill="#4E4E4E" d="M478.188,150.88c-6.2-2.225-12.859-1.587-19.325-1.657c-0.185-0.002-0.627,0.275-0.238,0.279
				c6.391,0.07,12.966-0.569,19.095,1.63C477.87,151.186,478.396,150.955,478.188,150.88L478.188,150.88z"/>
		</g>
	</g>
	<g opacity="0.4">
		<g>
			<path fill="#4E4E4E" d="M462.008,146.575c-2.804,0.49-5.545,0.342-8.177-0.785c-0.098-0.042-0.453,0.108-0.312,0.168
				c2.705,1.158,5.552,1.297,8.427,0.795C462.114,146.724,462.277,146.528,462.008,146.575L462.008,146.575z"/>
		</g>
	</g>
	<g opacity="0.4">
		<g>
			<path fill="#676767" d="M458.85,140.33c-1.099-0.155-2.165,0.082-3.098,0.686c-0.438,0.283,0.243,0.343,0.471,0.195
				c0.668-0.432,1.354-0.6,2.146-0.488C458.592,140.754,459.277,140.391,458.85,140.33L458.85,140.33z"/>
		</g>
	</g>
	<g opacity="0.4">
		<g>
			<path fill="#4E4E4E" d="M455.196,148.178c0.766-0.06,1.523-0.167,2.273-0.334c0.238-0.053,0.176-0.273-0.06-0.221
				c-0.715,0.159-1.438,0.258-2.168,0.314C455.041,147.953,454.93,148.198,455.196,148.178L455.196,148.178z"/>
		</g>
	</g>
	<polyline fill="#CDCCCC" stroke="#4E4E4E" stroke-width="0.3" stroke-miterlimit="10" points="493.816,159.609 458.345,172.544 
		462.659,163.596 459.66,156.065 456.246,154.314 464.184,152.921 476.725,150.643 484.03,149.355 	"/>
	<polyline fill="#CDCCCC" stroke="#4E4E4E" stroke-width="0.4" stroke-miterlimit="10" points="517.76,147.955 543.76,147.097 
		540.264,155.387 541.248,160.131 533.83,159.803 524.361,164.642 516.954,164.604 	"/>
	<polyline fill="#CDCCCC" stroke="#4E4E4E" stroke-width="0.5" stroke-miterlimit="10" points="513.386,150.173 541.742,163 
		538.166,171.358 534.832,175.028 536.217,180.363 525.771,174.439 515.738,168.04 507.084,162.549 	"/>
	
		<ellipse transform="matrix(0.9541 0.2994 -0.2994 0.9541 70.8611 -155.3365)" fill="#CDCCCC" stroke="#4E4E4E" stroke-width="0.4" stroke-miterlimit="10" cx="542.348" cy="153.576" rx="4.821" ry="6.702"/>
	
		<ellipse transform="matrix(0.9986 -0.0527 0.0527 0.9986 -7.9721 24.3297)" fill="#CDCCCC" stroke="#4E4E4E" stroke-width="0.5" stroke-miterlimit="10" cx="457.44" cy="163.361" rx="6.422" ry="9.3"/>
	<path opacity="0.5" fill="none" stroke="#676767" stroke-width="0.5" stroke-miterlimit="10" d="M461.249,161.261
		c-0.946-3.026-3.41-4.949-5.502-4.295c-2.095,0.655-3.023,3.639-2.078,6.666c0.948,3.027,3.413,4.95,5.504,4.297
		C461.266,167.272,462.195,164.289,461.249,161.261z"/>
	<g opacity="0.4">
		<g>
			<path fill="#4E4E4E" d="M476.926,148.204c-4.78-0.738-9.122-2.007-13.99-1.332c-0.183,0.025-0.323,0.244-0.055,0.207
				c4.812-0.667,9.103,0.604,13.807,1.33C476.806,148.427,477.144,148.238,476.926,148.204L476.926,148.204z"/>
		</g>
	</g>
	<g opacity="0.4">
		<g>
			<path fill="#4E4E4E" d="M469.08,148.188c-2.215-0.536-4.436-0.688-6.706-0.506c-0.17,0.014-0.627,0.297-0.242,0.266
				c2.196-0.175,4.335-0.034,6.478,0.484C468.757,148.468,469.271,148.234,469.08,148.188L469.08,148.188z"/>
		</g>
	</g>
	<g opacity="0.5">
		<g>
			<path fill="#4E4E4E" d="M474.445,141.62c-4.969-0.147-9.882-0.756-14.794-1.495c-0.302-0.046-0.583,0.39-0.193,0.447
				c4.962,0.747,9.924,1.353,14.944,1.503C474.745,142.085,474.835,141.632,474.445,141.62L474.445,141.62z"/>
		</g>
	</g>
	<g opacity="0.4">
		<g>
			<path fill="#676767" d="M470.844,145.608c-1.186,0.009-2.288-0.31-3.261-0.992c-0.18-0.126-0.844,0.184-0.728,0.266
				c1.035,0.726,2.23,1.057,3.489,1.047C470.509,145.928,471.225,145.605,470.844,145.608L470.844,145.608z"/>
		</g>
	</g>
	
		<ellipse transform="matrix(0.8952 -0.4457 0.4457 0.8952 -24.7599 220.8953)" opacity="0.6" fill="none" stroke="#818181" stroke-width="0.5" stroke-miterlimit="10" cx="457.283" cy="163.092" rx="1.657" ry="2.396"/>
	
		<ellipse transform="matrix(0.9541 0.2994 -0.2994 0.9541 76.1182 -153.5436)" fill="#CDCCCC" stroke="#4E4E4E" stroke-width="0.5" stroke-miterlimit="10" cx="539.198" cy="171.665" rx="6.281" ry="9.097"/>
	<path fill="#CDCCCC" stroke="#4E4E4E" stroke-miterlimit="10" d="M504.979,164.302c3.574-2.222,22.74-23.229,25.34-28.156
		c2.6-4.927,2.709-13.914,2.816-18.842s-0.867-8.447-0.867-8.447l-10.395,10.613c0,0,3.734-6.444,4.223-12.779
		c0.486-6.335-0.107-11.262-0.107-11.262l-9.963,11.264c0,0,4.114-13.156,4.331-17.868s-3.682-16.782-3.682-16.782l-5.198,9.315
		c0,0,1.138-11.215,1.138-14.301c0-3.087-1.95-11.208-1.95-11.208l-6.984,11.43c0,0-0.975-22.15-7.959-30.597
		c-6.985-8.447-16.569-18.518-16.569-18.518s-3.086,7.31-1.787,13.319c1.3,6.01,7.635,14.944,9.422,20.792
		c1.786,5.847,1.461,20.466,1.461,20.466l-12.831-10.558c0,0-3.249,8.771-2.274,14.619s4.061,20.305,4.061,20.305l-12.508-11.201
		c0,0,1.949,17.048,2.762,21.921c0.812,4.874,6.119,11.864,6.119,11.864l-16.353-15.925c0,0-1.786,8.122-0.649,12.508
		s6.172,10.564,6.172,10.564l3.033,3.682l-7.094-3.688c0,0-0.162,7.797,1.949,9.909c2.111,2.111,14.457,10.888,14.457,10.888
		s20.792,15.274,23.391,16.894C501.08,166.142,501.406,166.522,504.979,164.302z"/>
	<path fill="none" stroke="#818181" stroke-width="0.7" stroke-miterlimit="10" d="M515.484,147.301c0,0,8.797-8.339,10.504-16.461
		c1.709-8.121,1.84-10.504,1.84-10.504l-11.909,12.128"/>
	<path fill="none" stroke="#818181" stroke-width="0.7" stroke-miterlimit="10" d="M517.975,116.012c0,0,1.73-2.11,2.354-3.148
		c0.625-1.038,0.731-5.036,0.731-5.036l-4.602,3.636"/>
	<path fill="none" stroke="#818181" stroke-width="0.7" stroke-miterlimit="10" d="M514.727,143.186
		c0.338-0.562,3.935-4.58,6.28-8.23c1.993-3.1,2.815-5.955,2.815-5.955l-8.445,7.472"/>
	<path fill="none" stroke="#818181" stroke-width="0.7" stroke-miterlimit="10" d="M516.892,120.778c0,0,4.818-4.667,5.631-8.321
		c0.812-3.655,0.974-9.584,0.974-9.584l-9.203,8.809"/>
	<path fill="none" stroke="#818181" stroke-width="0.7" stroke-miterlimit="10" d="M514.889,101.817c0,0,4.006-8.582,3.248-13.4
		s-2.03-10.802-2.03-10.802l-4.956,12.751l-2.924,5.441"/>
	<polyline fill="none" stroke="#818181" stroke-width="0.7" stroke-miterlimit="10" points="516.594,90.609 515.538,84.519 
		512.031,94.774 	"/>
	<path fill="none" stroke="#818181" stroke-width="0.6" stroke-miterlimit="10" d="M506.928,85.481l1.734-20.792
		c0,0-2.754,2.969-4.641,6.891c-1.885,3.923-2.129,5.953-2.129,5.953"/>
	<path fill="none" stroke="#818181" stroke-width="0.6" stroke-miterlimit="10" d="M505.414,83.966l1.299-12.741
		c0,0-2.709,2.573-3.033,5.74c-0.324,3.168,0.082,3.817,0.082,3.817"/>
	<path fill="none" stroke="#818181" stroke-width="0.6" stroke-miterlimit="10" d="M498.699,67.073c0,0,1.301-17.76-4.332-24.907
		c-5.631-7.147-10.613-11.263-10.613-11.263l6.443,21.696l2.003,18.588"/>
	<path fill="none" stroke="#818181" stroke-width="0.6" stroke-miterlimit="10" d="M495.016,46.262
		c-2.92-3.707-6.93-7.688-6.93-7.688l4.209,15.177"/>
	<path fill="none" stroke="#818181" stroke-width="0.6" stroke-miterlimit="10" d="M497.295,67.273
		c-0.348-0.671,0.209-12.256-0.65-14.836c-0.975-2.924-3.698-5.079-3.698-5.079l2.18,18.832"/>
	<path fill="none" stroke="#818181" stroke-width="0.7" stroke-miterlimit="10" d="M482.67,137.445
		c-1.462-8.771,2.491-28.806,2.491-28.806s12.182,14.944,14.295,19.817c2.111,4.873,0.486,15.756,0.486,15.756"/>
	<path fill="none" stroke="#818181" stroke-width="0.7" stroke-miterlimit="10" d="M488.085,139.665
		c-1.462-8.771-0.162-21.279-0.162-21.279s3.952,5.74,5.469,8.988c1.516,3.249,2.814,10.829,2.814,10.829"/>
	<path fill="none" stroke="#818181" stroke-width="0.7" stroke-miterlimit="10" d="M490.792,138.527
		c-1.462-8.771-0.865-9.963-0.865-9.963l3.682,9.963"/>
	<path fill="none" stroke="#818181" stroke-width="0.7" stroke-miterlimit="10" d="M486.354,142.644l-6.065-6.065
		c0,0-0.325,2.384,0.108,4.44c0.435,2.057,2.815,4.765,2.815,4.765"/>
	<path fill="none" stroke="#818181" stroke-width="0.7" stroke-miterlimit="10" d="M501.949,145.893c0,0,0.432-3.681,1.84-5.09
		c1.408-1.408,6.822-5.197,6.822-5.197s0.648,9.529-0.758,12.67c-1.408,3.141-3.574,5.522-3.574,5.522"/>
	<path fill="none" stroke="#818181" stroke-width="0.7" stroke-miterlimit="10" d="M502.598,148.275l5.523-6.281
		c0,0,0.217,1.625-0.324,3.574c-0.543,1.949-2.059,4.873-2.059,4.873"/>
	<path fill="none" stroke="#818181" stroke-width="0.7" stroke-miterlimit="10" d="M474.551,143.51c0,0-4.115-2.165-5.847-3.682
		c-1.732-1.516-2.49-3.898-2.49-3.898l6.063,1.516c0,0-3.465-2.924-6.063-7.473c-2.6-4.548-5.198-14.293-5.198-14.293l15.052,12.02"
		/>
	<path fill="none" stroke="#818181" stroke-width="0.7" stroke-miterlimit="10" d="M472.712,134.089c0,0-3.249-3.683-4.549-5.415
		s-0.759-4.873-0.759-4.873l7.906,7.039"/>
	<path fill="none" stroke="#818181" stroke-width="0.7" stroke-miterlimit="10" d="M476.176,116.546c0,0-1.949-0.974-4.007-6.063
		c-2.057-5.091-2.706-14.944-2.706-14.944l11.045,9.854"/>
	<path fill="none" stroke="#818181" stroke-width="0.7" stroke-miterlimit="10" d="M476.61,112.647l-3.033-8.987
		c0,0,3.898,2.599,4.874,4.331c0.975,1.732,0.649,3.466,0.649,3.466"/>
	<path fill="none" stroke="#818181" stroke-width="0.7" stroke-miterlimit="10" d="M492.42,104.092c0,0-0.217-4.116,0.434-8.446
		c0.65-4.332,4.332-10.829,4.332-10.829c5.846,16.459,6.715,17.326,7.256,20.574c0.539,3.249-2.059,11.588-2.059,11.588"/>
	<path fill="none" stroke="#818181" stroke-width="0.7" stroke-miterlimit="10" d="M501.193,112.105c0,0,0.107-5.741-0.219-9.855
		c-0.324-4.114-4.223-8.555-4.223-8.555l-1.299,13.645"/>
	<path fill="none" stroke="#818181" stroke-width="0.7" stroke-miterlimit="10" d="M480.941,93.154c0,0-2.814-6.065-3.356-9.964
		s0.325-11.695,0.325-11.695s9.42,8.771,10.504,11.695c1.083,2.924,2.273,12.021,2.273,12.021"/>
	<path fill="none" stroke="#818181" stroke-width="0.7" stroke-miterlimit="10" d="M482.783,91.421l-3.031-11.912
		c0,0,3.573,1.3,4.33,3.465c0.759,2.165,2.491,7.473,2.491,7.473"/>
	<path opacity="0.5" fill="#676767" stroke="#4E4E4E" stroke-width="0.6" stroke-miterlimit="10" d="M466.062,162.337"/>
	<g opacity="0.5">
		<path fill="#676767" d="M469.12,163.234c4.315-1.448,8.515-3.54,12.634-5.627"/>
		<g>
			<path fill="#4E4E4E" d="M469.257,163.337c4.402-1.522,8.572-3.565,12.722-5.665c0.459-0.232-0.257-0.228-0.452-0.129
				c-4.093,2.07-8.204,4.087-12.545,5.589C468.462,163.312,468.952,163.442,469.257,163.337L469.257,163.337z"/>
		</g>
	</g>
	<g opacity="0.5">
		<path fill="#676767" d="M468.295,158.397c4.764-0.658,9.51-1.639,14.261-2.54"/>
		<g>
			<path fill="#4E4E4E" d="M468.238,158.594c4.783-0.686,9.517-1.635,14.261-2.54c0.348-0.066,0.649-0.494,0.115-0.393
				c-4.744,0.905-9.479,1.855-14.261,2.54C467.997,158.253,467.7,158.67,468.238,158.594L468.238,158.594z"/>
		</g>
	</g>
	<g opacity="0.5">
		<path fill="#676767" d="M463.517,154.176c7.54-0.479,10.861-0.734,18.382-1.536"/>
		<g>
			<path fill="#4E4E4E" d="M463.352,154.339c6.141-0.393,12.263-0.889,18.382-1.536c0.207-0.021,0.839-0.38,0.331-0.326
				c-6.12,0.647-12.241,1.144-18.382,1.536C463.471,154.026,462.84,154.371,463.352,154.339L463.352,154.339z"/>
		</g>
	</g>
	<g opacity="0.5">
		<path fill="#676767" d="M464.483,169.414c7.714-3.333,15.419-6.829,23.312-9.848"/>
		<g>
			<path fill="#4E4E4E" d="M464.636,169.574c7.741-3.355,15.442-6.8,23.312-9.848c0.504-0.195,0.043-0.455-0.306-0.32
				c-7.87,3.048-15.571,6.492-23.312,9.848C463.835,169.469,464.289,169.725,464.636,169.574L464.636,169.574z"/>
		</g>
	</g>
	<g opacity="0.5">
		<path fill="#676767" d="M467.376,165.684c0.645-0.116,1.367-0.316,2.007-0.512"/>
		<g>
			<path fill="#4E4E4E" d="M467.301,165.813c0.714-0.136,1.415-0.325,2.11-0.536c0.057-0.017,0.387-0.1,0.358-0.209
				c-0.028-0.106-0.358-0.02-0.415-0.002c-0.627,0.189-1.258,0.366-1.903,0.487C467.156,165.61,466.757,165.916,467.301,165.813
				L467.301,165.813z"/>
		</g>
	</g>
	<g opacity="0.5">
		<path fill="#676767" d="M481.224,159.913c2.067-0.922,4.047-1.921,5.938-3.079"/>
		<g>
			<path fill="#4E4E4E" d="M481.449,159.974c2.063-0.929,4.075-1.949,6.011-3.121c0.333-0.201-0.448-0.127-0.596-0.037
				c-1.889,1.143-3.854,2.133-5.866,3.037C480.532,160.062,481.257,160.06,481.449,159.974L481.449,159.974z"/>
		</g>
	</g>
	<g opacity="0.5">
		<path fill="#676767" d="M484.918,156.396c0.812-0.081,0.894,0.244,1.624,0"/>
		<g>
			<path fill="#4E4E4E" d="M484.877,156.65c0.61-0.043,1.116,0.164,1.729-0.019c0.466-0.14,0.344-0.612-0.126-0.473
				c-0.489,0.146-1.011-0.055-1.52-0.019C484.546,156.17,484.346,156.688,484.877,156.65L484.877,156.65z"/>
		</g>
	</g>
	<g opacity="0.5">
		<path fill="#676767" d="M463.799,156.438c4.137-0.217,8.291-0.11,12.41-0.652"/>
		<g>
			<path fill="#4E4E4E" d="M463.639,156.617c4.173-0.195,8.352-0.164,12.506-0.662c0.338-0.04,0.67-0.405,0.129-0.34
				c-4.09,0.49-8.205,0.45-12.314,0.643C463.727,156.269,463.123,156.642,463.639,156.617L463.639,156.617z"/>
		</g>
	</g>
	<g opacity="0.5">
		<path fill="#676767" d="M466.753,161.569c2.079-0.679,4.153-1.439,6.151-2.112"/>
		<g>
			<path fill="#4E4E4E" d="M466.797,161.733c2.093-0.688,4.166-1.438,6.252-2.146c0.517-0.175,0.037-0.372-0.29-0.262
				c-2.02,0.685-4.024,1.412-6.05,2.079C466.264,161.552,466.343,161.883,466.797,161.733L466.797,161.733z"/>
		</g>
	</g>
	<g opacity="0.5">
		<path fill="#676767" d="M465.392,160.421c1.204-0.307,2.407-0.615,3.615-0.842"/>
		<g>
			<path fill="#4E4E4E" d="M465.42,160.525c1.166-0.297,2.331-0.59,3.512-0.818c0.294-0.057,0.695-0.361,0.151-0.256
				c-1.25,0.24-2.485,0.551-3.719,0.865C464.914,160.431,464.972,160.64,465.42,160.525L465.42,160.525z"/>
		</g>
	</g>
	<g opacity="0.5">
		<path fill="#676767" d="M471.113,164.023c3.415-0.018,6.395-2.125,9.77-2.873"/>
		<g>
			<path fill="#4E4E4E" d="M470.949,164.192c3.553-0.15,6.578-2.068,9.969-2.907c0.457-0.112,0.381-0.382-0.072-0.27
				c-3.237,0.8-6.184,2.695-9.57,2.839C471.056,163.864,470.435,164.214,470.949,164.192L470.949,164.192z"/>
		</g>
	</g>
	<g opacity="0.5">
		<path fill="#676767" d="M473.136,154.564c3.495-0.021,6.988-0.125,10.369-0.791"/>
		<g>
			<path fill="#4E4E4E" d="M472.989,154.796c3.512-0.028,7.005-0.157,10.467-0.795c0.375-0.068,0.628-0.553,0.099-0.455
				c-3.399,0.625-6.822,0.759-10.271,0.787C472.979,154.335,472.467,154.801,472.989,154.796L472.989,154.796z"/>
		</g>
	</g>
	<g>
		<path fill="#676767" d="M487.842,161.756c1.381-0.325,2.681-0.894,3.898-1.625"/>
		<g>
			<path fill="#4E4E4E" d="M487.888,161.926c1.448-0.358,2.804-0.944,4.087-1.701c0.448-0.264-0.243-0.321-0.469-0.188
				c-1.168,0.688-2.39,1.223-3.709,1.549C487.334,161.701,487.428,162.039,487.888,161.926L487.888,161.926z"/>
		</g>
	</g>
	<g opacity="0.5">
		<path fill="#676767" d="M484.187,160.294c1.625-0.894,3.168-1.462,4.873-1.868"/>
		<g>
			<path fill="#4E4E4E" d="M484.415,160.364c1.491-0.803,3.04-1.392,4.683-1.797c0.458-0.112,0.378-0.396-0.076-0.283
				c-1.773,0.437-3.454,1.073-5.063,1.939C483.505,160.469,484.213,160.473,484.415,160.364L484.415,160.364z"/>
		</g>
	</g>
	<g opacity="0.5">
		<path fill="#676767" d="M464.573,164.938c0.969-0.134,2.011-0.432,2.971-0.727"/>
		<g>
			<path fill="#4E4E4E" d="M464.539,165.223c1.048-0.156,2.064-0.436,3.076-0.744c0.47-0.144,0.332-0.68-0.144-0.535
				c-0.941,0.288-1.89,0.563-2.865,0.709C464.181,164.716,464.015,165.301,464.539,165.223L464.539,165.223z"/>
		</g>
	</g>
	<g opacity="0.5">
		<g>
			<path fill="#676767" d="M474.131,159.761c2.069-0.753,4.159-1.447,6.229-2.2c0.502-0.183,0.051-0.532-0.326-0.395
				c-2.069,0.753-4.159,1.447-6.229,2.2C473.303,159.549,473.754,159.898,474.131,159.761L474.131,159.761z"/>
		</g>
	</g>
	<path opacity="0.5" fill="none" stroke="#818181" stroke-width="0.5" stroke-miterlimit="10" d="M540.137,173.943
		c1.002-0.864,1.33-2.125,0.736-2.818c-0.6-0.694-1.896-0.556-2.898,0.309c-1.004,0.862-1.332,2.125-0.736,2.818
		C537.836,174.947,539.135,174.807,540.137,173.943z"/>
	
		<ellipse transform="matrix(0.8171 0.5765 -0.5765 0.8171 197.8371 -279.4286)" opacity="0.5" fill="none" stroke="#676767" stroke-width="0.5" stroke-miterlimit="10" cx="539.264" cy="172.053" rx="3.97" ry="5.743"/>
	<g opacity="0.5">
		<path fill="#676767" d="M516.24,157.37c6.173,1.082,12.129,2.924,18.084,4.44"/>
		<g>
			<path fill="#4E4E4E" d="M515.996,157.551c6.092,1.122,12.023,2.879,18.015,4.426c0.202,0.053,0.893-0.264,0.627-0.332
				c-6.037-1.559-12.016-3.324-18.153-4.455C516.286,157.152,515.583,157.475,515.996,157.551L515.996,157.551z"/>
		</g>
	</g>
	<g opacity="0.5">
		<g>
			<path fill="#4E4E4E" d="M528.576,173.352c-2.194-0.455-4.032-1.512-5.475-3.229c-0.127-0.151-0.855,0.114-0.727,0.268
				c1.464,1.742,3.35,2.809,5.568,3.27C528.13,173.698,528.805,173.399,528.576,173.352L528.576,173.352z"/>
		</g>
	</g>
	<g opacity="0.5">
		<g>
			<path fill="#4E4E4E" d="M519.939,167.087c3.501,1.49,7.301,1.788,10.9,2.947c0.245,0.079,0.907-0.282,0.473-0.422
				c-3.552-1.144-7.304-1.43-10.758-2.9C520.322,166.613,519.616,166.949,519.939,167.087L519.939,167.087z"/>
		</g>
	</g>
	<g opacity="0.5">
		<g>
			<path fill="#4E4E4E" d="M527.489,171.576c1.017,0.312,1.989,0.729,2.96,1.161c0.268,0.118,0.962-0.253,0.605-0.412
				c-1.019-0.453-2.04-0.894-3.106-1.222C527.658,171.015,527.035,171.437,527.489,171.576L527.489,171.576z"/>
		</g>
	</g>
	<g opacity="0.5">
		<g>
			<path fill="#4E4E4E" d="M515.119,161.614c1.448,0.751,3.005,1.186,4.594,1.532c0.176,0.038,0.844-0.246,0.637-0.291
				c-1.556-0.34-3.081-0.764-4.502-1.499C515.651,161.254,515.04,161.574,515.119,161.614L515.119,161.614z"/>
		</g>
	</g>
	<g opacity="0.5">
		<g>
			<path fill="#4E4E4E" d="M520.045,162.09c3.258,1.363,6.471,2.842,10.029,3.158c0.209,0.019,0.902-0.342,0.484-0.379
				c-3.513-0.312-6.679-1.78-9.891-3.123C520.464,161.66,519.755,161.969,520.045,162.09L520.045,162.09z"/>
		</g>
	</g>
	<g opacity="0.5">
		<g>
			<path fill="#4E4E4E" d="M509.064,161.764c2.914,2.882,6.882,4.323,9.746,7.256c0.248,0.254,0.979-0.063,0.707-0.342
				c-2.868-2.938-6.833-4.375-9.746-7.256C509.52,161.173,508.789,161.492,509.064,161.764L509.064,161.764z"/>
		</g>
	</g>
	<g opacity="0.5">
		<g>
			<path fill="#4E4E4E" d="M517.128,154.751c2.591,1.376,5.308,2.448,8.085,3.386c0.268,0.09,0.908-0.3,0.465-0.449
				c-2.729-0.921-5.395-1.979-7.94-3.331C517.494,154.227,516.789,154.571,517.128,154.751L517.128,154.751z"/>
		</g>
	</g>
	<g opacity="0.5">
		<g>
			<path fill="#4E4E4E" d="M530.448,163.093c1.023,0.659,2.16,1.083,3.32,1.437c0.275,0.084,0.912-0.32,0.463-0.457
				c-1.112-0.339-2.193-0.747-3.176-1.38C530.817,162.539,530.113,162.877,530.448,163.093L530.448,163.093z"/>
		</g>
	</g>
	<g opacity="0.5">
		<g>
			<path fill="#4E4E4E" d="M527.515,158.508c1.549,0.451,3.062,0.995,4.547,1.624c0.188,0.08,0.896-0.213,0.627-0.326
				c-1.485-0.629-2.998-1.174-4.547-1.624C527.945,158.124,527.252,158.432,527.515,158.508L527.515,158.508z"/>
		</g>
	</g>
	<g opacity="0.5">
		<g>
			<path fill="#4E4E4E" d="M515.027,159.305c2.844,0.333,5.64,0.861,8.377,1.713c0.226,0.07,0.924-0.268,0.617-0.363
				c-2.784-0.865-5.623-1.416-8.518-1.754C515.273,158.873,514.597,159.255,515.027,159.305L515.027,159.305z"/>
		</g>
	</g>
	<g opacity="0.5">
		<g>
			<path fill="#4E4E4E" d="M524.765,161.652c0.269,0.245,0.547,0.396,0.889,0.518c0.315,0.111,0.909-0.342,0.451-0.504
				c-0.237-0.084-0.443-0.177-0.631-0.348C525.226,161.092,524.497,161.408,524.765,161.652L524.765,161.652z"/>
		</g>
	</g>
	<g opacity="0.5">
		<g>
			<path fill="#676767" d="M520.469,165.308c3.859,0.406,7.465,1.884,11.262,2.599c0.172,0.032,0.828-0.245,0.641-0.281
				c-3.798-0.715-7.402-2.191-11.262-2.599C520.936,165.009,520.292,165.289,520.469,165.308L520.469,165.308z"/>
		</g>
	</g>
	<g opacity="0.5">
		<g>
			<path fill="#676767" d="M511.848,160.072c0.727,2.784,2.784,4.552,5.558,5.155c0.376,0.082,0.781-0.443,0.27-0.555
				c-2.558-0.558-4.393-2.271-5.054-4.808C512.528,159.512,511.756,159.718,511.848,160.072L511.848,160.072z"/>
		</g>
	</g>
	<g opacity="0.5">
		<g>
			<path fill="#676767" d="M528.638,162.229c2.081-0.175,4.021,0.181,5.812,1.278c0.203,0.125,0.92-0.176,0.617-0.361
				c-1.945-1.193-4.068-1.511-6.317-1.321C528.379,161.854,528.101,162.274,528.638,162.229L528.638,162.229z"/>
		</g>
	</g>
	<polygon fill="#CDCCCC" points="541.582,159.915 539.74,159.807 534.922,159.509 536.52,147.679 541.77,147.279 542.49,147.27 	"/>
	<g opacity="0.5">
		<g>
			<path fill="#4E4E4E" d="M521.721,150.328c6.394,0.251,12.866,0.83,19.151-0.678c0.468-0.111,0.363-0.482-0.1-0.371
				c-6.142,1.473-12.504,0.868-18.747,0.623C521.741,149.892,521.198,150.308,521.721,150.328L521.721,150.328z"/>
		</g>
	</g>
	<g opacity="0.5">
		<g>
			<path fill="#4E4E4E" d="M525.093,153.349c3.191-0.182,6.374-0.006,9.564,0.107c0.268,0.01,0.598-0.389,0.205-0.402
				c-3.239-0.116-6.472-0.294-9.713-0.109C524.83,152.963,524.696,153.371,525.093,153.349L525.093,153.349z"/>
		</g>
	</g>
	<g opacity="0.5">
		<g>
			<path fill="#4E4E4E" d="M533.165,158.151c2.267,0.294,4.499,0.203,6.743-0.223c0.244-0.047,0.502-0.328,0.098-0.252
				c-2.157,0.409-4.294,0.494-6.472,0.211C533.391,157.869,532.859,158.111,533.165,158.151L533.165,158.151z"/>
		</g>
	</g>
	<g opacity="0.5">
		<g>
			<path fill="#4E4E4E" d="M529.739,156.452c4.123-0.247,8.241,0.313,12.314-0.557c0.355-0.076,0.27-0.373-0.08-0.299
				c-4.009,0.856-8.1,0.283-12.158,0.527C529.526,156.141,529.338,156.477,529.739,156.452L529.739,156.452z"/>
		</g>
	</g>
	<g opacity="0.5">
		<g>
			<path fill="#4E4E4E" d="M532.523,151.786c0.975,0.11,1.949,0.218,2.924,0.325c0.181,0.021,0.682-0.277,0.355-0.312
				c-0.975-0.107-1.949-0.216-2.924-0.325C532.698,151.453,532.197,151.75,532.523,151.786L532.523,151.786z"/>
		</g>
	</g>
	<g opacity="0.5">
		<g>
			<path fill="#4E4E4E" d="M536.433,152.259c2.562,1.05,5.119,1.258,7.8,0.544c0.358-0.096,0.252-0.491-0.105-0.396
				c-2.543,0.678-4.935,0.457-7.36-0.536C536.523,151.77,536.091,152.119,536.433,152.259L536.433,152.259z"/>
		</g>
	</g>
	<g opacity="0.5">
		<g>
			<path fill="#4E4E4E" d="M542.225,154.818c1.074,0,2.145-0.013,3.214-0.114c0.275-0.025,0.487-0.339,0.084-0.301
				c-1.021,0.097-2.043,0.104-3.067,0.104C542.25,154.508,541.834,154.818,542.225,154.818L542.225,154.818z"/>
		</g>
	</g>
	<g opacity="0.5">
		<g>
			<path fill="#4E4E4E" d="M539.629,159.058c1.518,0.085,2.955-0.244,4.299-0.945c0.346-0.181-0.167-0.288-0.363-0.186
				c-1.162,0.606-2.406,0.862-3.713,0.789C539.622,158.703,539.236,159.036,539.629,159.058L539.629,159.058z"/>
		</g>
	</g>
	<g opacity="0.5">
		<g>
			<path fill="#4E4E4E" d="M524.767,155.184c4.956-0.385,9.906-0.315,14.869-0.109c0.261,0.011,0.602-0.374,0.209-0.391
				c-5.015-0.208-10.01-0.278-15.018,0.109C524.515,154.817,524.369,155.214,524.767,155.184L524.767,155.184z"/>
		</g>
	</g>
	<g opacity="0.5">
		<g>
			<path fill="#4E4E4E" d="M517.848,151.754c3.468,0.917,6.883,0.094,10.401,0.123c0.182,0.002,0.629-0.271,0.24-0.273
				c-3.431-0.029-6.784,0.798-10.173-0.098C518.166,151.466,517.647,151.701,517.848,151.754L517.848,151.754z"/>
		</g>
	</g>
	<g opacity="0.5">
		<g>
			<path fill="#4E4E4E" d="M521.639,148.833c6.436,1.538,12.992,0.206,19.461-0.426c0.26-0.025,0.499-0.306,0.094-0.266
				c-6.339,0.619-12.774,1.948-19.086,0.439C521.954,148.545,521.438,148.785,521.639,148.833L521.639,148.833z"/>
		</g>
	</g>
	<g opacity="0.5">
		<g>
			<path fill="#4E4E4E" d="M538.273,151.493c2.706-0.777,5.403-0.934,8.12-0.108c0.235,0.072,0.685-0.27,0.338-0.375
				c-2.849-0.866-5.717-0.709-8.56,0.108C537.819,151.22,537.918,151.596,538.273,151.493L538.273,151.493z"/>
		</g>
	</g>
	<g opacity="0.5">
		<g>
			<path fill="#676767" d="M542.229,149.3c1.151-0.134,2.247,0.064,3.266,0.623c0.198,0.108,0.83-0.209,0.727-0.266
				c-1.134-0.622-2.38-0.823-3.66-0.676C542.359,149.005,541.722,149.358,542.229,149.3L542.229,149.3z"/>
		</g>
	</g>
	<g opacity="0.5">
		<g>
			<path fill="#676767" d="M541.984,157.22c1.135,0.038,2.207-0.292,3.092-1.013c0.319-0.261-0.452-0.179-0.602-0.057
				c-0.589,0.479-1.229,0.745-1.998,0.72c-0.188-0.007-0.392,0.036-0.547,0.146C541.812,157.1,541.827,157.215,541.984,157.22
				L541.984,157.22z"/>
		</g>
	</g>
	<g opacity="0.4">
		<g>
			<path fill="#4E4E4E" d="M462.456,143.467c1.57,0.551,3.146,0.997,4.798,0.584c0.226-0.057,0.196-0.163-0.028-0.107
				c-1.507,0.377-2.995-0.109-4.405-0.605C462.714,143.301,462.433,143.458,462.456,143.467L462.456,143.467z"/>
		</g>
	</g>
	<g opacity="0.4">
		<g>
			<path fill="#4E4E4E" d="M466.032,148.896c1.209,0.056,2.418,0.105,3.629,0.109c0.083,0.001,0.441-0.16,0.25-0.16
				c-1.211-0.005-2.42-0.055-3.629-0.109C466.198,148.731,465.838,148.887,466.032,148.896L466.032,148.896z"/>
		</g>
	</g>
	<g opacity="0.4">
		<g>
			<path fill="#4E4E4E" d="M469.305,150.582c0.804,0.257,1.616,0.384,2.459,0.393c0.133,0.001,0.416-0.198,0.155-0.201
				c-0.793-0.009-1.549-0.126-2.304-0.367C469.507,150.371,469.157,150.535,469.305,150.582L469.305,150.582z"/>
		</g>
	</g>
	<g opacity="0.5">
		<g>
			<path fill="#4E4E4E" d="M459.425,147.581c0.559,0.055,1.117,0.102,1.679,0.107c0.156,0.002,0.407-0.233,0.146-0.236
				c-0.562-0.006-1.12-0.053-1.679-0.107C459.411,147.329,459.164,147.556,459.425,147.581L459.425,147.581z"/>
		</g>
	</g>
	<polygon opacity="0.15" fill="#010101" points="503.029,164.735 525.809,138.246 531.137,121.216 531.418,113.274 519.7,121.596 
		527.016,99.941 515.638,108.928 520.956,76.956 514.556,84.826 516.26,61.126 508.738,70.672 507.619,40.832 497.818,29.988 
		493.688,20.788 489.216,33.441 495.111,54.562 493.834,73.824 483.352,61.651 478.736,75.308 480.655,96.668 467.65,82.287 
		471.879,114.834 460.325,98.003 457.082,106.74 460.198,119.886 462.703,123.729 458.027,119.772 457.871,128.347 469.61,140.906 
		490.477,159.915 	"/>
	<g opacity="0.5">
		<g>
			<path fill="#4E4E4E" d="M453.786,140.294c0.763-0.047,1.523-0.05,2.286,0c0.092,0.006,0.447-0.16,0.246-0.174
				c-0.791-0.052-1.579-0.049-2.37,0C453.835,140.127,453.528,140.31,453.786,140.294L453.786,140.294z"/>
		</g>
	</g>
	<g opacity="0.5">
		<g>
			<path fill="#4E4E4E" d="M456.693,141.994c0.411-0.24,0.845-0.376,1.315-0.438c0.184-0.023,0.323-0.242,0.055-0.207
				c-0.572,0.075-1.11,0.244-1.608,0.536C456.229,142.017,456.571,142.065,456.693,141.994L456.693,141.994z"/>
		</g>
	</g>
	<g opacity="0.5">
		<g>
			<path fill="#4E4E4E" d="M453.252,143.846c3.284-0.068,6.537,0.315,9.682-0.842c0.252-0.093,0.023-0.244-0.158-0.178
				c-3.039,1.118-6.214,0.717-9.378,0.783C453.243,143.612,452.991,143.852,453.252,143.846L453.252,143.846z"/>
		</g>
	</g>
	<g opacity="0.4">
		<g>
			<path fill="#4E4E4E" d="M463.135,144.418c1.225,0.856,2.609,1.312,4.042,1.69c0.127,0.033,0.456-0.156,0.235-0.215
				c-1.41-0.372-2.767-0.824-3.97-1.667C463.335,144.152,462.979,144.308,463.135,144.418L463.135,144.418z"/>
		</g>
	</g>
	<g opacity="0.5">
		<g>
			<path fill="#4E4E4E" d="M453.911,140.097c1.592,0.412,3.184,0.318,4.747-0.17c0.228-0.071,0.178-0.27-0.053-0.197
				c-1.478,0.462-2.954,0.545-4.458,0.154C454.022,139.852,453.691,140.039,453.911,140.097L453.911,140.097z"/>
		</g>
	</g>
	<g opacity="0.4">
		<g>
			<path fill="#4E4E4E" d="M455.827,137.983c1.046,0.66,2.176,0.813,3.377,0.555c0.24-0.053,0.173-0.287-0.063-0.236
				c-1.077,0.232-2.08,0.062-3.012-0.527C456,137.693,455.652,137.873,455.827,137.983L455.827,137.983z"/>
		</g>
	</g>
	<g opacity="0.4">
		<g>
			<path fill="#4E4E4E" d="M455.474,139.144c0.729,0.511,1.504,0.609,2.311,0.218c0.242-0.118,0.018-0.229-0.149-0.148
				c-0.653,0.317-1.236,0.179-1.802-0.218C455.726,138.92,455.375,139.074,455.474,139.144L455.474,139.144z"/>
		</g>
	</g>
	<g>
		<g>
			<path fill="#4E4E4E" d="M453.364,106.82c0.171,0,0.401-0.26,0.14-0.26C453.333,106.561,453.103,106.82,453.364,106.82
				L453.364,106.82z"/>
		</g>
	</g>
	<polygon fill="#CDCCCC" points="459.445,149.034 462.267,148.834 467.307,148.877 465.632,149.791 462.249,150.618 458.998,150.46 
			"/>
</g>
<g>
	<rect x="1" y="150.319" fill="#E8E8E8" width="448" height="1.625"/>
	<rect x="553" y="150.319" fill="#E8E8E8" width="448" height="1.625"/>
</g>
<g>
	<rect x="1" y="145.556" fill="#E8E8E8" width="448" height="1.625"/>
	<rect x="553" y="145.556" fill="#E8E8E8" width="448" height="1.625"/>
</g>
</svg>
