<?xml version="1.0" encoding="utf-8"?>
<!-- Generator: Adobe Illustrator 15.1.0, SVG Export Plug-In . SVG Version: 6.00 Build 0)  -->
<!DOCTYPE svg PUBLIC "-//W3C//DTD SVG 1.1//EN" "http://www.w3.org/Graphics/SVG/1.1/DTD/svg11.dtd">
<svg version="1.1" id="Layer_1" xmlns="http://www.w3.org/2000/svg" xmlns:xlink="http://www.w3.org/1999/xlink" x="0px" y="0px"
	 width="25px" height="25px" viewBox="0 0 25 25" enable-background="new 0 0 25 25" xml:space="preserve">
<g>
	<path fill="#CFCECE" d="M15.354,12.871c-0.106-0.11-0.379-0.062-0.537,0.099c-0.138,0.134-0.39,0.392-0.636,0.635
		c-0.245,0.245-0.5,0.498-0.636,0.633c-0.161,0.162-0.209,0.429-0.099,0.543c0.501,0.501,1.458,1.139,2.371,2.052
		c2.308,2.312,5.192,5.513,6.031,6.349c0.112,0.11,0.379,0.062,0.537-0.099c0.117-0.113,0.369-0.367,0.638-0.634
		c0.268-0.272,0.519-0.521,0.636-0.638c0.161-0.158,0.209-0.429,0.097-0.539c-0.836-0.838-4.037-3.723-6.35-6.029
		C16.497,14.33,15.858,13.375,15.354,12.871z"/>
	<path fill="#CFCECE" d="M13.48,3.318c-2.832-2.831-7.421-2.831-10.252,0c-2.83,2.831-2.83,7.42,0,10.252
		c2.831,2.829,7.42,2.829,10.252,0C16.312,10.737,16.312,6.149,13.48,3.318z M12.128,12.218c-2.084,2.086-5.464,2.086-7.549,0
		c-2.086-2.084-2.086-5.465,0-7.549c2.085-2.084,5.465-2.084,7.549,0C14.214,6.753,14.214,10.134,12.128,12.218z"/>
</g>
</svg>
