<svg width="20" height="19" viewBox="0 0 20 19" xmlns="http://www.w3.org/2000/svg"><title>Slice 1</title><path d="M9.745.334A9.378 9.378 0 0 0 6.78 18.61c.47.087.64-.203.64-.45 0-.225-.007-.815-.01-1.597-2.61.566-3.16-1.257-3.16-1.257-.427-1.084-1.04-1.372-1.04-1.372-.853-.58.063-.57.063-.57.94.066 1.436.967 1.436.967.836 1.433 2.194 1.02 2.73.78.084-.606.326-1.02.594-1.254-2.082-.236-4.272-1.04-4.272-4.634 0-1.024.366-1.862.966-2.517-.097-.237-.42-1.19.092-2.48 0 0 .787-.253 2.578.96a8.982 8.982 0 0 1 2.348-.316c.797.003 1.598.107 2.347.315 1.79-1.213 2.576-.96 2.576-.96.51 1.29.19 2.243.093 2.48.6.655.964 1.493.964 2.517 0 3.602-2.193 4.395-4.28 4.627.335.288.635.86.635 1.735 0 1.254-.012 2.265-.012 2.573 0 .25.17.542.645.45A9.378 9.378 0 0 0 9.745.335" fill="#161614" fill-rule="evenodd"/></svg>