<svg width="20" height="19" viewBox="0 0 20 19" xmlns="http://www.w3.org/2000/svg"><title>Slice 1</title><path d="M9.745.334A9.378 9.378 0 1 0 6.78 18.61c.47.087.64-.203.64-.451 0-.223-.008-.813-.012-1.595-2.609.566-3.16-1.257-3.16-1.257-.426-1.084-1.04-1.372-1.04-1.372-.852-.581.064-.57.064-.57.941.066 1.436.967 1.436.967.837 1.432 2.195 1.018 2.73.778.085-.605.327-1.018.595-1.253-2.082-.236-4.272-1.041-4.272-4.634 0-1.024.366-1.862.966-2.517-.097-.237-.419-1.19.092-2.481 0 0 .787-.252 2.578.961a8.982 8.982 0 0 1 2.348-.316 8.992 8.992 0 0 1 2.347.316c1.79-1.213 2.576-.961 2.576-.961.512 1.29.19 2.244.094 2.481.601.655.964 1.493.964 2.517 0 3.602-2.193 4.395-4.281 4.627.336.29.636.861.636 1.736 0 1.254-.012 2.265-.012 2.573 0 .25.17.542.645.45A9.378 9.378 0 0 0 9.745.335" fill="#161614" fill-rule="evenodd"/></svg>