<?xml version="1.0" encoding="UTF-8" standalone="no"?>
<svg width="372px" height="61px" viewBox="0 0 372 61" version="1.1" xmlns="http://www.w3.org/2000/svg" xmlns:xlink="http://www.w3.org/1999/xlink" xmlns:sketch="http://www.bohemiancoding.com/sketch/ns">
    <!-- Generator: Sketch 3.3.3 (12072) - http://www.bohemiancoding.com/sketch -->
    <title>Artboard 1</title>
    <desc>Created with Sketch.</desc>
    <defs></defs>
    <g id="Page-1" stroke="none" stroke-width="1" fill="none" fill-rule="evenodd" sketch:type="MSPage">
        <g id="Artboard-1" sketch:type="MSArtboardGroup" fill="#000000">
            <g id="youthwork" sketch:type="MSLayerGroup">
                <g id="Rectangle-1-+-Type-something" sketch:type="MSShapeGroup">
                    <path d="M0,0 L57,0 L57,57 L0,57 L0,0 L0,0 Z M13.395,13.1575 C15.39,16.15 18.6675,21.28 20.6625,24.51 L25.65,32.3475 L25.65,35.1025 C25.65,38.19 25.555,44.27 25.3175,46.55 L31.8725,46.55 C31.7775,45.22 31.73,41.515 31.73,39.71 L31.73,32.1575 L44.2225,13.0625 L37.3825,13.0625 C35.6725,15.96 33.25,20.14 31.3975,23.0375 L28.785,27.17 L20.0925,12.7775 L13.395,13.1575 L13.395,13.1575 Z" id="Rectangle-1"></path>
                    <path d="M82,41.05 C75.55,41.05 70.8,36 70.8,27.75 C70.8,20.6 75.35,14.55 82.15,14.55 C88.55,14.55 93.35,19.6 93.35,27.85 C93.35,35 88.8,41.05 82,41.05 L82,41.05 Z M81.6,46.25 C92.4,46.25 99.75,37.8 99.75,26.9 C99.75,17.35 92.85,9.35 82.55,9.35 C71.75,9.35 64.4,17.8 64.4,28.7 C64.4,38.25 71.3,46.25 81.6,46.25 L81.6,46.25 Z M136.25,9.95 C134.55,10.15 131.2,10.2 129.2,10.2 C129.5,12.6 129.6,19.05 129.6,22.25 L129.6,32.35 C129.6,37.65 126.65,40.8 121.45,40.8 C116.2,40.8 112.9,38.25 112.9,31.4 L112.9,17.35 C112.9,15.4 112.95,11.4 113.1,9.95 C111.45,10.15 108.15,10.2 106.15,10.2 C106.4,12.6 106.5,19.05 106.5,22.25 L106.5,33.05 C106.5,41.35 112.3,46.25 120.6,46.25 C125.55,46.25 129.25,44.8 131.95,42.1 C134.65,39.5 136,36.25 136,30.5 L136,17.35 C136,15.4 136.05,11.4 136.25,9.95 L136.25,9.95 Z M171.5,9.9 C166.8,10.05 162.15,10.15 156.55,10.15 C151.05,10.15 146.55,10.05 141.95,9.9 C141.95,11.8 141.9,13.9 141.75,15.55 C145.45,15.5 148.9,15.45 153.25,15.45 C153.35,18.15 153.35,21.4 153.35,23.45 L153.35,33.3 C153.35,36.55 153.25,42.95 153,45.35 L159.95,45.35 C159.8,43.95 159.75,40.05 159.75,38.15 L159.75,18.65 C159.75,17.8 159.75,16.5 159.8,15.45 C164.15,15.45 167.4,15.5 171.1,15.55 C171.15,13.4 171.25,11.7 171.5,9.9 L171.5,9.9 Z M207.4,45.35 C207.3,43.95 207.25,40.05 207.25,38.15 L207.25,17.35 C207.25,15.4 207.3,11.4 207.4,9.95 C205.8,10.15 202.45,10.2 200.45,10.2 C200.75,12.6 200.85,19.05 200.85,22.25 L200.85,24.65 L184.15,24.65 L184.15,17.35 C184.15,15.4 184.2,11.4 184.35,9.95 C182.7,10.15 179.35,10.2 177.4,10.2 C177.65,12.6 177.75,19.05 177.75,22.25 L177.75,33.3 C177.75,36.55 177.65,42.95 177.4,45.35 L184.35,45.35 C184.2,43.95 184.15,40.05 184.15,38.15 L184.15,29.7 L200.85,29.7 L200.85,33.5 C200.85,36.75 200.75,42.95 200.45,45.35 L207.4,45.35 Z M262.35,10.25 L255.55,10.25 L252.8,19.15 L247.9,34.7 L239.05,9.5 L236.05,9.9 C235.4,11.75 233.5,16.95 232.9,18.85 L227.3,34.75 L219.2,9.9 L212.35,10.3 C213.55,13.3 215,17.35 216.1,20.5 L225.25,46.1 L228.35,46.1 C229.65,42.4 231,39.2 231.95,36.5 L237.4,21.55 L246.4,46.15 L249.45,45.8 C250.4,42.9 251.4,40.1 252.95,35.85 L262.35,10.25 Z M282.3,41.05 C275.85,41.05 271.1,36 271.1,27.75 C271.1,20.6 275.65,14.55 282.45,14.55 C288.85,14.55 293.65,19.6 293.65,27.85 C293.65,35 289.1,41.05 282.3,41.05 L282.3,41.05 Z M281.9,46.25 C292.7,46.25 300.05,37.8 300.05,26.9 C300.05,17.35 293.15,9.35 282.85,9.35 C272.05,9.35 264.7,17.8 264.7,28.7 C264.7,38.25 271.6,46.25 281.9,46.25 L281.9,46.25 Z M334.2,45.05 C333.1,43.6 330.7,40.3 329.45,38.5 L324.05,30.65 C328.65,28.45 331.1,25.25 331.2,20.35 C331.35,14.55 326.25,9.85 316.9,9.95 C314.6,10 308.7,10.2 306.9,10.2 C307.15,12.6 307.25,19.05 307.25,22.25 L307.25,33.3 C307.25,36.55 307.15,42.95 306.9,45.35 L313.8,45.35 C313.7,43.95 313.65,40.05 313.65,38.15 L313.65,32.25 L318.45,32.25 L326.85,45.75 L334.2,45.05 Z M313.6,27.4 L313.6,15.3 C314.8,15.2 316.1,15.15 317.5,15.15 C322.6,15.15 324.85,17.4 324.85,21.25 C324.85,24.65 322.35,27.4 318.15,27.4 L313.6,27.4 Z M361,45.8 L368.65,45.3 C366.2,42.55 362.6,38.5 360.25,35.8 L352.55,26.95 L367.95,10.1 L360.15,10.1 C357.6,13.1 354.55,16.75 352.2,19.45 L346.3,26.3 L346.3,17.35 C346.3,15.4 346.35,11.4 346.5,9.95 C344.85,10.15 341.5,10.2 339.55,10.2 C339.8,12.6 339.9,19.05 339.9,22.25 L339.9,33.3 C339.9,36.55 339.8,42.95 339.55,45.35 L346.5,45.35 C346.35,43.95 346.3,40.05 346.3,38.15 L346.3,28.55 L361,45.8 Z" id="OUTHWORK"></path>
                </g>
            </g>
        </g>
    </g>
</svg>