<svg height="65" viewBox="0 0 767 65" width="767" xmlns="http://www.w3.org/2000/svg"><g fill="none" fill-rule="evenodd"><g fill="#fff"><circle cx="33.5" cy="31.5" r="5.5"/><circle cx="736.5" cy="31.5" r="5.5"/><path d="m5.36363636 16.1818182c-1.35758254 0-2.45454127-.3363603-3.29090909-1.0090909-.83636782-.6727307-1.25454545-1.7121142-1.25454545-3.1181818v-2.94545459c0-1.41818891.42120791-2.47272382 1.26363636-3.16363636.84242846-.69091255 1.94241746-1.03636364 3.3-1.03636364 1.35758255 0 2.451511.34545109 3.28181818 1.03636364.83030719.69091254 1.24545455 1.74544745 1.24545455 3.16363636v2.94545459c0 1.4060676-.41817764 2.4454511-1.25454546 3.1181818-.83636781.6727306-1.93332654 1.0090909-3.29090909 1.0090909zm0-1.6363637c.90909546 0 1.59090682-.1939374 2.04545455-.5818181.45454773-.3878808.68181818-1.024238.68181818-1.9090909v-2.94545459c0-.87273164-.22727045-1.51817973-.68181818-1.93636364s-1.13635909-.62727272-2.04545455-.62727272c-.90909545 0-1.59090681.20908881-2.04545454.62727272s-.68181818 1.063632-.68181818 1.93636364v2.94545459c0 .8848529.22727045 1.5212101.68181818 1.9090909.45454773.3878807 1.13635909.5818181 2.04545454.5818181zm9.00000004 1.4545455v-9.27272727h-2.1818182v-1.63636364h2.1818182v-.72727273c0-.98182309.2969667-1.74242154.8909091-2.28181818.5939423-.53939663 1.3333289-.80909091 2.2181818-.80909091.3515169 0 .7818156.04848437 1.2909091.14545455.5090934.09697018.91515.20606 1.2181818.32727273l-.3636364 1.52727272c-.2545467-.09697018-.5363621-.18181782-.8454545-.25454545-.3090925-.07272764-.6212106-.10909091-.9363637-.10909091-.5090934 0-.9121197.11212009-1.2090909.33636364-.2969712.22424354-.4454545.59090654-.4454545 1.1v.74545454h3.6363636v1.63636364h-3.6363636v9.27272727zm9.9090909 0v-9.27272727h-2.1818182v-1.63636364h2.1818182v-.72727273c0-.98182309.2969667-1.74242154.8909091-2.28181818.5939423-.53939663 1.3333289-.80909091 2.2181818-.80909091.3515169 0 .7818156.04848437 1.2909091.14545455.5090934.09697018.91515.20606 1.2181818.32727273l-.3636364 1.52727272c-.2545467-.09697018-.5363621-.18181782-.8454545-.25454545-.3090925-.07272764-.6212106-.10909091-.9363637-.10909091-.5090934 0-.9121197.11212009-1.2090909.33636364-.2969711.22424354-.4454545.59090654-.4454545 1.1v.74545454h3.6363636v1.63636364h-3.6363636v9.27272727zm12.9272727.0909091c-1.2242485 0-2.184845-.4121171-2.8818182-1.2363636-.6969732-.8242466-1.0454545-1.7999944-1.0454545-2.9272728v-10.47272725h1.8181818v10.49090905c0 .6424275.1787861 1.2121188.5363636 1.709091.3575776.4969721.8999964.7454545 1.6272728.7454545.181819 0 .3939381-.0303027.6363636-.0909091.2424254-.0606064.4545445-.1333329.6363636-.2181818l.3636364 1.5818182c-.2303042.1212127-.4909076.2212117-.7818182.3-.2909105.0787882-.5939378.1181818-.9090909.1181818zm5.0727273-.0909091v-10.90909091h1.8181818v10.90909091zm.9090909-12.90909091c-.4606084 0-.8333319-.07272654-1.1181818-.21818182-.2848499-.14545527-.4272728-.41817982-.4272728-.81818182v-.12727272c0-.41212328.1424229-.69393864.4272728-.84545455s.6575734-.22727272 1.1181818-.22727272c.4606083 0 .8333319.07575681 1.1181818.22727272s.4272727.43333127.4272727.84545455v.12727272c0 .400002-.1454531.67272655-.4363636.81818182-.2909106.14545528-.6606038.21818182-1.1090909.21818182zm5.3636363 12.90909091v-10.90909091h1.8181819v1.81818182h.5454545c.266668-.60606364.6878759-1.09090727 1.2636364-1.45454546.5757604-.36363818 1.2212085-.54545454 1.9363636-.54545454 1.0787933 0 1.9363605.33636027 2.5727273 1.00909091.6363668.67273063.9545454 1.57878218.9545454 2.71818182v7.36363636h-1.8181818v-7c0-.800004-.2030283-1.39393745-.6090909-1.78181818s-.9181787-.58181818-1.5363636-.58181818c-.7030338 0-1.3090884.17878609-1.8181818.53636363-.5090935.35757755-1.0060582.81514873-1.4909091 1.37272728v7.45454545zm20.8545455-2.4c-.3272744.9090955-.845451 1.5666646-1.5545455 1.9727273-.7090944.4060626-1.7121147.6090909-3.0090909.6090909-1.4424314 0-2.5636323-.3484814-3.3636363-1.0454546-.800004-.6969731-1.2-1.7302961-1.2-3.1v-2.92727269c0-1.40606764.4212079-2.45757227 1.2636363-3.15454546.8424285-.69697318 1.9424175-1.04545454 3.3-1.04545454 1.3697039 0 2.4666626.35454191 3.2909091 1.06363636.8242466.70909446 1.2363637 1.79696237 1.2363637 3.26363637v1.67272726h-7.2727273v1.1454546c0 .9090954.2272704 1.5666646.6818182 1.9727272.4545477.4060627 1.1363591.6090909 2.0454545.6090909.8727317 0 1.5090889-.1212109 1.9090909-.3636363.400002-.2424255.7030293-.6363609.9090909-1.1818182zm-7.3090909-4.49090909v.43636364h5.4545454v-.27272728c0-.98182309-.2272704-1.69696745-.6818181-2.14545454-.4545478-.44848709-1.1363591-.67272728-2.0454546-.67272728-.9090954 0-1.5909068.21514937-2.0454545.64545455-.4545478.43030518-.6818182 1.09999545-.6818182 2.00909091z"/><path d="m707.363636 16.1818182c-1.357582 0-2.454541-.3363603-3.290909-1.0090909-.836368-.6727307-1.254545-1.7121142-1.254545-3.1181818v-2.94545459c0-1.41818891.421208-2.47272382 1.263636-3.16363636.842429-.69091255 1.942418-1.03636364 3.3-1.03636364 1.357583 0 2.451511.34545109 3.281818 1.03636364.830308.69091254 1.245455 1.74544745 1.245455 3.16363636v2.94545459c0 1.4060676-.418178 2.4454511-1.254546 3.1181818-.836367.6727306-1.933326 1.0090909-3.290909 1.0090909zm0-1.6363637c.909096 0 1.590907-.1939374 2.045455-.5818181.454548-.3878808.681818-1.024238.681818-1.9090909v-2.94545459c0-.87273164-.22727-1.51817973-.681818-1.93636364s-1.136359-.62727272-2.045455-.62727272c-.909095 0-1.590906.20908881-2.045454.62727272s-.681818 1.063632-.681818 1.93636364v2.94545459c0 .8848529.22727 1.5212101.681818 1.9090909.454548.3878807 1.136359.5818181 2.045454.5818181zm7.181819 1.4545455v-10.90909091h1.818181v1.81818182h.545455c.266668-.60606364.687876-1.09090727 1.263636-1.45454546.575761-.36363818 1.221209-.54545454 1.936364-.54545454 1.078793 0 1.93636.33636027 2.572727 1.00909091.636367.67273063.954546 1.57878218.954546 2.71818182v7.36363636h-1.818182v-7c0-.800004-.203028-1.39393745-.609091-1.78181818s-.918179-.58181818-1.536364-.58181818c-.703034 0-1.309088.17878609-1.818182.53636363-.509093.35757755-1.006058.81514873-1.490909 1.37272728v7.45454545zm16.563636.0909091c-1.224249 0-2.184845-.4121171-2.881818-1.2363636-.696973-.8242466-1.045455-1.7999944-1.045455-2.9272728v-10.47272725h1.818182v10.49090905c0 .6424275.178786 1.2121188.536364 1.709091.357577.4969721.899996.7454545 1.627272.7454545.181819 0 .393939-.0303027.636364-.0909091s.454545-.1333329.636364-.2181818l.363636 1.5818182c-.230304.1212127-.490908.2212117-.781818.3-.290911.0787882-.593938.1181818-.909091.1181818zm5.072727-.0909091v-10.90909091h1.818182v10.90909091zm.909091-12.90909091c-.460608 0-.833332-.07272654-1.118182-.21818182-.28485-.14545527-.427272-.41817982-.427272-.81818182v-.12727272c0-.41212328.142422-.69393864.427272-.84545455s.657574-.22727272 1.118182-.22727272.833332.07575681 1.118182.22727272.427273.43333127.427273.84545455v.12727272c0 .400002-.145453.67272655-.436364.81818182-.290911.14545528-.660604.21818182-1.109091.21818182zm5.363636 12.90909091v-10.90909091h1.818182v1.81818182h.545455c.266668-.60606364.687876-1.09090727 1.263636-1.45454546.575761-.36363818 1.221209-.54545454 1.936364-.54545454 1.078793 0 1.93636.33636027 2.572727 1.00909091.636367.67273063.954546 1.57878218.954546 2.71818182v7.36363636h-1.818182v-7c0-.800004-.203029-1.39393745-.609091-1.78181818-.406063-.38788073-.918179-.58181818-1.536364-.58181818-.703034 0-1.309088.17878609-1.818182.53636363-.509093.35757755-1.006058.81514873-1.490909 1.37272728v7.45454545zm20.854546-2.4c-.327274.9090955-.845451 1.5666646-1.554546 1.9727273-.709094.4060626-1.712114.6090909-3.00909.6090909-1.442432 0-2.563633-.3484814-3.363637-1.0454546-.800004-.6969731-1.2-1.7302961-1.2-3.1v-2.92727269c0-1.40606764.421208-2.45757227 1.263637-3.15454546.842428-.69697318 1.942417-1.04545454 3.3-1.04545454 1.369703 0 2.466662.35454191 3.290909 1.06363636.824246.70909446 1.236363 1.79696237 1.236363 3.26363637v1.67272726h-7.272727v1.1454546c0 .9090954.22727 1.5666646.681818 1.9727272.454548.4060627 1.136359.6090909 2.045455.6090909.872731 0 1.509089-.1212109 1.909091-.3636363.400002-.2424255.703029-.6363609.909091-1.1818182zm-7.309091-4.49090909v.43636364h5.454545v-.27272728c0-.98182309-.22727-1.69696745-.681818-2.14545454-.454547-.44848709-1.136359-.67272728-2.045454-.67272728-.909096 0-1.590907.21514937-2.045455.64545455s-.681818 1.09999545-.681818 2.00909091z"/></g><path d="m39 31h692v1h-692z" fill="#359e91"/><g fill="#909090"><path d="m17.3527273 64.1272727c-.4072748 0-.8887851-.0657569-1.4445455-.1972727-.5557603-.1315158-1.1009064-.3627256-1.6354545-.6936364v-9.4181818h1.2727272v3.8181818h.3818182c.2206072-.4412143.5218163-.7848472.9036364-1.0309091.3818201-.2460618.8230278-.3690909 1.3236364-.3690909.7466704 0 1.3469674.2524218 1.800909.7572728.4539417.504851.6809091 1.2196923.6809091 2.1445454v2.0745455c0 1.0436416-.3499965 1.7903008-1.05 2.24s-1.4445415.6745454-2.2336363.6745454zm-.0127273-1.12c.5345481 0 1.0054525-.1272714 1.4127273-.3818182.4072747-.2545467.6109091-.7339358.6109091-1.4381818v-2.0363636c0-.6618215-.1378774-1.111514-.4136364-1.3490909-.275759-.237577-.6469674-.3563637-1.1136364-.3563637-.4327294 0-.8315133.110302-1.1963636.3309091-.3648503.2206072-.7296951.5557554-1.0945455 1.0054546v3.7418182c.2545468.152728.5260592.2715147.8145455.3563636s.6151497.1272727.98.1272727zm9.0236364 1.12c-.9503078 0-1.7181789-.2354522-2.3036364-.7063636-.5854575-.4709115-.8781818-1.1984799-.8781818-2.1827273v-2.0618182c0-.9927322.2948455-1.7309066.8845454-2.2145454.5897-.4836388 1.3596923-.7254546 2.31-.7254546.9503078 0 1.7160577.2418158 2.2972728.7254546.581215.4836388.8718181 1.2218132.8718181 2.2145454v2.0618182c0 .9842474-.2927243 1.7118158-.8781818 2.1827273-.5854574.4709114-1.3533286.7063636-2.3036363.7063636zm0-1.1454545c.6363668 0 1.1136347-.1357562 1.4318181-.4072727.3181835-.2715166.4772728-.7169666.4772728-1.3363637v-2.0618182c0-.6109121-.1590893-1.0627258-.4772728-1.3554545-.3181834-.2927287-.7954513-.4390909-1.4318181-.4390909-.6363669 0-1.1136348.1463622-1.4318182.4390909s-.4772727.7445424-.4772727 1.3554545v2.0618182c0 .6193971.1590893 1.0648471.4772727 1.3363637.3181834.2715165.7954513.4072727 1.4318182.4072727zm8.9090909 1.1454545c-.9503078 0-1.7181789-.2354522-2.3036364-.7063636-.5854575-.4709115-.8781818-1.1984799-.8781818-2.1827273v-2.0618182c0-.9927322.2948455-1.7309066.8845454-2.2145454.5897-.4836388 1.3596923-.7254546 2.31-.7254546.9503078 0 1.7160577.2418158 2.2972728.7254546.581215.4836388.8718182 1.2218132.8718182 2.2145454v2.0618182c0 .9842474-.2927244 1.7118158-.8781819 2.1827273-.5854574.4709114-1.3533285.7063636-2.3036363.7063636zm0-1.1454545c.6363668 0 1.1136347-.1357562 1.4318182-.4072727.3181834-.2715166.4772727-.7169666.4772727-1.3363637v-2.0618182c0-.6109121-.1590893-1.0627258-.4772727-1.3554545-.3181835-.2927287-.7954514-.4390909-1.4318182-.4390909s-1.1136348.1463622-1.4318182.4390909-.4772727.7445424-.4772727 1.3554545v2.0618182c0 .6193971.1590893 1.0648471.4772727 1.3363637.3181834.2715165.7954514.4072727 1.4318182.4072727zm7-2.4563637v3.4745455h-1.2727273v-10.1818182h1.2727273v5.6381818h.6490909l2.4436363-3.0927272h1.5527273l-2.9909091 3.5509091 2.9527273 4.0854545h-1.4509091l-2.5072727-3.4745455zm9.6472727 3.6018182c-.6448517 0-1.2684818-.0954536-1.8709091-.2863636-.6024272-.1909101-1.1581793-.4857556-1.6672727-.8845455l.5727273-1.0054545c.4157596.3393956.8803004.5960597 1.3936363.77s1.0372701.2609091 1.5718182.2609091c.4412143 0 .8633313-.0678781 1.2663636-.2036364.4030324-.1357582.6045455-.4242402.6045455-.8654545 0-.3648503-.1654529-.6236356-.4963636-.7763637-.3309108-.152728-.9375714-.2842418-1.82-.3945454-.933338-.1103036-1.6396946-.3287863-2.119091-.6554546-.4793963-.3266683-.7190909-.8421177-.7190909-1.5463636 0-.7636402.288482-1.3384829.8654546-1.7245455.5769726-.3860625 1.2472689-.5790909 2.0109091-.5790909.6024272 0 1.1815123.1018172 1.7372727.3054546s1.0712097.4921193 1.5463636.8654545l-.5727272 1.0054546c-.390305-.313941-.8145432-.5642415-1.2727273-.7509091s-.9375733-.28-1.4381818-.28c-.4072748 0-.7784832.0763629-1.1136364.2290909s-.5027273.4327252-.5027273.84c0 .3478805.154847.6003022.4645455.7572727s.9057532.2906055 1.7881818.4009091c.9672776.1103036 1.6927249.3457558 2.1763636.7063636.4836388.3606079.7254546.8633302.7254546 1.5081819 0 .7975797-.322421 1.3809072-.9672727 1.75-.6448517.3690927-1.3660567.5536363-2.1636364.5536363z"/><path d="m182.661818 62.32c-.229092.6363668-.591816 1.0966652-1.088182 1.3809091-.496366.2842438-1.19848.4263636-2.106363.4263636-1.009702 0-1.794543-.2439369-2.354546-.7318182-.560003-.4878812-.84-1.2112073-.84-2.17v-2.0490909c0-.9842473.294846-1.7203006.884546-2.2081818s1.359692-.7318182 2.31-.7318182c.958792 0 1.726664.2481794 2.303636.7445455.576973.4963661.865455 1.2578736.865455 2.2845454v1.1709091h-5.090909v.8018182c0 .6363668.159089 1.0966653.477272 1.3809091.318184.2842439.795452.4263636 1.431818.4263636.610913 0 1.056363-.0848476 1.336364-.2545454s.492121-.4454526.636364-.8272727zm-5.116363-3.1436364v.3054546h3.818181v-.1909091c0-.6872762-.159089-1.1878772-.477272-1.5018182-.318184-.313941-.795452-.4709091-1.431819-.4709091-.636366 0-1.113634.1506046-1.431818.4518182-.318183.3012136-.477272.7699968-.477272 1.4063636zm10.716363 4.9509091c-.407275 0-.888785-.0657569-1.444545-.1972727-.555761-.1315158-1.100907-.3627256-1.635455-.6936364v-9.4181818h1.272727v3.8181818h.381819c.220607-.4412143.521816-.7848472.903636-1.0309091.38182-.2460618.823028-.3690909 1.323636-.3690909.746671 0 1.346968.2524218 1.800909.7572728.453942.504851.68091 1.2196923.68091 2.1445454v2.0745455c0 1.0436416-.349997 1.7903008-1.05 2.24-.700004.4496992-1.444542.6745454-2.233637.6745454zm-.012727-1.12c.534548 0 1.005452-.1272714 1.412727-.3818182.407275-.2545467.610909-.7339358.610909-1.4381818v-2.0363636c0-.6618215-.137877-1.111514-.413636-1.3490909-.275759-.237577-.646967-.3563637-1.113636-.3563637-.43273 0-.831514.110302-1.196364.3309091-.36485.2206072-.729695.5557554-1.094546 1.0054546v3.7418182c.254547.152728.52606.2715147.814546.3563636s.61515.1272727.98.1272727zm9.023636 1.12c-.950308 0-1.718179-.2354522-2.303636-.7063636-.585458-.4709115-.878182-1.1984799-.878182-2.1827273v-2.0618182c0-.9927322.294846-1.7309066.884546-2.2145454.589699-.4836388 1.359692-.7254546 2.31-.7254546.950307 0 1.716057.2418158 2.297272.7254546s.871818 1.2218132.871818 2.2145454v2.0618182c0 .9842474-.292724 1.7118158-.878181 2.1827273-.585458.4709114-1.353329.7063636-2.303637.7063636zm0-1.1454545c.636367 0 1.113635-.1357562 1.431818-.4072727.318184-.2715166.477273-.7169666.477273-1.3363637v-2.0618182c0-.6109121-.159089-1.0627258-.477273-1.3554545-.318183-.2927287-.795451-.4390909-1.431818-.4390909s-1.113635.1463622-1.431818.4390909-.477273.7445424-.477273 1.3554545v2.0618182c0 .6193971.15909 1.0648471.477273 1.3363637.318183.2715165.795451.4072727 1.431818.4072727zm8.909091 1.1454545c-.950308 0-1.718179-.2354522-2.303636-.7063636-.585458-.4709115-.878182-1.1984799-.878182-2.1827273v-2.0618182c0-.9927322.294846-1.7309066.884545-2.2145454.5897-.4836388 1.359693-.7254546 2.31-.7254546.950308 0 1.716058.2418158 2.297273.7254546s.871818 1.2218132.871818 2.2145454v2.0618182c0 .9842474-.292724 1.7118158-.878181 2.1827273-.585458.4709114-1.353329.7063636-2.303637.7063636zm0-1.1454545c.636367 0 1.113635-.1357562 1.431818-.4072727.318184-.2715166.477273-.7169666.477273-1.3363637v-2.0618182c0-.6109121-.159089-1.0627258-.477273-1.3554545-.318183-.2927287-.795451-.4390909-1.431818-.4390909s-1.113635.1463622-1.431818.4390909-.477273.7445424-.477273 1.3554545v2.0618182c0 .6193971.15909 1.0648471.477273 1.3363637.318183.2715165.795451.4072727 1.431818.4072727zm7-2.4563637v3.4745455h-1.272727v-10.1818182h1.272727v5.6381818h.649091l2.443636-3.0927272h1.552728l-2.990909 3.5509091 2.952727 4.0854545h-1.450909l-2.507273-3.4745455zm9.647273 3.6018182c-.644852 0-1.268482-.0954536-1.870909-.2863636-.602427-.1909101-1.158179-.4857556-1.667273-.8845455l.572727-1.0054545c.41576.3393956.880301.5960597 1.393637.77s1.03727.2609091 1.571818.2609091c.441214 0 .863331-.0678781 1.266364-.2036364.403032-.1357582.604545-.4242402.604545-.8654545 0-.3648503-.165453-.6236356-.496364-.7763637-.33091-.152728-.937571-.2842418-1.82-.3945454-.933338-.1103036-1.639694-.3287863-2.119091-.6554546-.479396-.3266683-.71909-.8421177-.71909-1.5463636 0-.7636402.288482-1.3384829.865454-1.7245455.576973-.3860625 1.247269-.5790909 2.010909-.5790909.602427 0 1.181513.1018172 1.737273.3054546s1.07121.4921193 1.546364.8654545l-.572728 1.0054546c-.390305-.313941-.814543-.5642415-1.272727-.7509091s-.937573-.28-1.438182-.28c-.407275 0-.778483.0763629-1.113636.2290909s-.502727.4327252-.502727.84c0 .3478805.154846.6003022.464545.7572727s.905753.2906055 1.788182.4009091c.967277.1103036 1.692725.3457558 2.176363.7063636.483639.3606079.725455.8633302.725455 1.5081819 0 .7975797-.322421 1.3809072-.967273 1.75-.644851.3690927-1.366056.5536363-2.163636.5536363z"/><path d="m348.545455 64v-6.4909091h-1.527273v-1.1454545h1.527273v-.5090909c0-.6872762.207876-1.2196951.623636-1.5972728.41576-.3775776.93333-.5663636 1.552727-.5663636.246062 0 .547271.033939.903637.1018182.356365.0678791.640605.144242.852727.2290909l-.254546 1.0690909c-.178182-.0678791-.375453-.1272725-.591818-.1781818-.216365-.0509094-.434847-.0763637-.655454-.0763637-.356366 0-.638484.0784841-.846364.2354546s-.311818.4136346-.311818.77v.5218182h2.545454v1.1454545h-2.545454v6.4909091zm9.138181-.9672727c.466669 0 .899392-.0784841 1.298182-.2354546s.738181-.4306041 1.018182-.8209091v-1.2218181h-2.672727c-.364851 0-.657575.0827264-.878182.2481818-.220607.1654553-.330909.4560585-.330909.8718182 0 .3648503.12515.6490898.375454.8527272.250305.2036374.646967.3054546 1.19.3054546zm-.165454 1.0945454c-.678791 0-1.283331-.1718164-1.813637-.5154545-.530305-.3436381-.795454-.8972689-.795454-1.6609091 0-.6703064.203634-1.1963617.610909-1.5781818s.954542-.5727273 1.641818-.5727273h2.838182v-1.0945455c0-.4072747-.146362-.7403017-.439091-.9990909-.292729-.2587891-.736058-.3881818-1.33-.3881818s-1.047877.0933324-1.361818.28-.551514.5642396-.712727 1.1327273l-1.081819-.3054546c.135759-.695761.451816-1.2345435.948182-1.6163636s1.223935-.5727273 2.182728-.5727273c.873943 0 1.603633.188786 2.18909.5663637.585458.3775776.878182.9609051.878182 1.75v3.4109091c0 .4581841.127272.7445448.381818.8590909.254547.114546.636362.1293943 1.145455.0445454v1.1709091c-.526063.076364-1.020301.0403038-1.482727-.1081818-.462427-.1484856-.714849-.5493907-.757273-1.2027273h-.254545c-.237577.3987899-.608786.7318169-1.113637.9990909-.504851.2672741-1.062724.4009091-1.673636.4009091zm10.932727 0c-1.153945 0-2.002421-.2524217-2.545454-.7572727s-.814546-1.21545-.814546-2.1318182v-2.0618182c0-.9842473.305452-1.7203006.916364-2.2081818s1.421207-.7318182 2.430909-.7318182c1.001217 0 1.760603.2142403 2.278182.6427273.517578.428487.810302 1.0881774.878181 1.9790909l-1.247272.0763637c-.042425-.6193971-.214241-1.0330293-.515455-1.2409091-.301213-.2078799-.769997-.3118182-1.406363-.3118182-.661822 0-1.170908.1357562-1.527273.4072727-.356366.2715165-.534546.7339361-.534546 1.3872727v2.0618182c0 .6193971.17818 1.0648471.534546 1.3363637.356365.2715165.873936.4072727 1.552727.4072727.627882 0 1.092423-.0827265 1.393636-.2481818.301214-.1654554.468788-.5154519.502728-1.05l1.247272.0763636c-.059394.8145495-.349997 1.4127254-.871818 1.7945455-.521821.38182-1.279086.5727272-2.271818.5727272zm11.938182-1.8072727c-.229092.6363668-.591816 1.0966652-1.088182 1.3809091-.496366.2842438-1.19848.4263636-2.106364.4263636-1.009702 0-1.794542-.2439369-2.354545-.7318182-.560003-.4878812-.84-1.2112073-.84-2.17v-2.0490909c0-.9842473.294846-1.7203006.884545-2.2081818.5897-.4878812 1.359693-.7318182 2.31-.7318182.958793 0 1.726664.2481794 2.303637.7445455.576972.4963661.865454 1.2578736.865454 2.2845454v1.1709091h-5.090909v.8018182c0 .6363668.15909 1.0966653.477273 1.3809091.318183.2842439.795451.4263636 1.431818.4263636.610912 0 1.056362-.0848476 1.336364-.2545454.280001-.1696978.49212-.4454526.636363-.8272727zm-5.116364-3.1436364v.3054546h3.818182v-.1909091c0-.6872762-.159089-1.1878772-.477273-1.5018182-.318183-.313941-.795451-.4709091-1.431818-.4709091s-1.113635.1506046-1.431818.4518182-.477273.7699968-.477273 1.4063636zm10.716364 4.9509091c-.407275 0-.888785-.0657569-1.444546-.1972727-.55576-.1315158-1.100906-.3627256-1.635454-.6936364v-9.4181818h1.272727v3.8181818h.381818c.220608-.4412143.521817-.7848472.903637-1.0309091.38182-.2460618.823028-.3690909 1.323636-.3690909.74667 0 1.346968.2524218 1.800909.7572728.453942.504851.680909 1.2196923.680909 2.1445454v2.0745455c0 1.0436416-.349996 1.7903008-1.05 2.24-.700003.4496992-1.444541.6745454-2.233636.6745454zm-.012727-1.12c.534548 0 1.005452-.1272714 1.412727-.3818182.407275-.2545467.610909-.7339358.610909-1.4381818v-2.0363636c0-.6618215-.137877-1.111514-.413636-1.3490909-.275759-.237577-.646968-.3563637-1.113637-.3563637-.432729 0-.831513.110302-1.196363.3309091-.364851.2206072-.729696.5557554-1.094546 1.0054546v3.7418182c.254547.152728.526059.2715147.814546.3563636.288486.0848489.615149.1272727.98.1272727zm9.023636 1.12c-.950308 0-1.718179-.2354522-2.303636-.7063636-.585458-.4709115-.878182-1.1984799-.878182-2.1827273v-2.0618182c0-.9927322.294845-1.7309066.884545-2.2145454s1.359692-.7254546 2.31-.7254546 1.716058.2418158 2.297273.7254546.871818 1.2218132.871818 2.2145454v2.0618182c0 .9842474-.292724 1.7118158-.878182 2.1827273-.585457.4709114-1.353328.7063636-2.303636.7063636zm0-1.1454545c.636367 0 1.113635-.1357562 1.431818-.4072727.318184-.2715166.477273-.7169666.477273-1.3363637v-2.0618182c0-.6109121-.159089-1.0627258-.477273-1.3554545-.318183-.2927287-.795451-.4390909-1.431818-.4390909s-1.113635.1463622-1.431818.4390909c-.318184.2927287-.477273.7445424-.477273 1.3554545v2.0618182c0 .6193971.159089 1.0648471.477273 1.3363637.318183.2715165.795451.4072727 1.431818.4072727zm8.909091 1.1454545c-.950308 0-1.718179-.2354522-2.303636-.7063636-.585458-.4709115-.878182-1.1984799-.878182-2.1827273v-2.0618182c0-.9927322.294845-1.7309066.884545-2.2145454s1.359692-.7254546 2.31-.7254546 1.716058.2418158 2.297273.7254546.871818 1.2218132.871818 2.2145454v2.0618182c0 .9842474-.292724 1.7118158-.878182 2.1827273-.585457.4709114-1.353328.7063636-2.303636.7063636zm0-1.1454545c.636367 0 1.113635-.1357562 1.431818-.4072727.318183-.2715166.477273-.7169666.477273-1.3363637v-2.0618182c0-.6109121-.15909-1.0627258-.477273-1.3554545s-.795451-.4390909-1.431818-.4390909-1.113635.1463622-1.431818.4390909c-.318184.2927287-.477273.7445424-.477273 1.3554545v2.0618182c0 .6193971.159089 1.0648471.477273 1.3363637.318183.2715165.795451.4072727 1.431818.4072727zm7-2.4563637v3.4745455h-1.272727v-10.1818182h1.272727v5.6381818h.649091l2.443636-3.0927272h1.552727l-2.990909 3.5509091 2.952728 4.0854545h-1.450909l-2.507273-3.4745455z"/><path d="m534.545455 58.9345455h3.181818c.687276 0 1.177271-.1272715 1.47-.3818182.292728-.2545468.439091-.6745426.439091-1.26v-.7890909c0-.5515179-.146363-.9460595-.439091-1.1836364-.292729-.2375769-.782724-.3563636-1.47-.3563636h-3.181818zm0 5.0654545h-1.272728v-10.1818182h4.467273c1.060611 0 1.853937.2227251 2.38.6681818.526063.4454568.789091 1.1178743.789091 2.0172728v.7890909c0 .8060646-.205756 1.4339371-.617273 1.8836363-.411517.4496993-1.037268.7296965-1.877273.84l2.609091 3.9836364h-1.450909l-2.583636-3.9454545h-2.443636zm15.298181-1.68c-.229092.6363668-.591815 1.0966652-1.088181 1.3809091-.496367.2842438-1.198481.4263636-2.106364.4263636-1.009702 0-1.794543-.2439369-2.354546-.7318182-.560002-.4878812-.84-1.2112073-.84-2.17v-2.0490909c0-.9842473.294846-1.7203006.884546-2.2081818s1.359692-.7318182 2.31-.7318182c.958793 0 1.726664.2481794 2.303636.7445455.576973.4963661.865455 1.2578736.865455 2.2845454v1.1709091h-5.090909v.8018182c0 .6363668.159089 1.0966653.477272 1.3809091.318184.2842439.795452.4263636 1.431819.4263636.610912 0 1.056362-.0848476 1.336363-.2545454.280002-.1696978.492121-.4454526.636364-.8272727zm-5.116363-3.1436364v.3054546h3.818182v-.1909091c0-.6872762-.15909-1.1878772-.477273-1.5018182-.318184-.313941-.795452-.4709091-1.431818-.4709091-.636367 0-1.113635.1506046-1.431819.4518182-.318183.3012136-.477272.7699968-.477272 1.4063636zm10.410909 3.8563637c.466669 0 .899392-.0784841 1.298182-.2354546s.73818-.4306041 1.018181-.8209091v-1.2218181h-2.672727c-.36485 0-.657574.0827264-.878182.2481818-.220607.1654553-.330909.4560585-.330909.8718182 0 .3648503.125151.6490898.375455.8527272s.646967.3054546 1.19.3054546zm-.165455 1.0945454c-.678791 0-1.28333-.1718164-1.813636-.5154545s-.795455-.8972689-.795455-1.6609091c0-.6703064.203635-1.1963617.610909-1.5781818.407275-.3818201.954542-.5727273 1.641819-.5727273h2.838181v-1.0945455c0-.4072747-.146362-.7403017-.43909-.9990909-.292729-.2587891-.736058-.3881818-1.33-.3881818-.593943 0-1.047878.0933324-1.361819.28s-.551514.5642396-.712727 1.1327273l-1.081818-.3054546c.135758-.695761.451816-1.2345435.948182-1.6163636s1.223934-.5727273 2.182727-.5727273c.873944 0 1.603633.188786 2.189091.5663637.585457.3775776.878182.9609051.878182 1.75v3.4109091c0 .4581841.127271.7445448.381818.8590909.254547.114546.636361.1293943 1.145454.0445454v1.1709091c-.526063.076364-1.0203.0403038-1.482727-.1081818-.462426-.1484856-.714848-.5493907-.757273-1.2027273h-.254545c-.237577.3987899-.608785.7318169-1.113636.9990909-.504851.2672741-1.062725.4009091-1.673637.4009091zm10.372728-1.2090909c.432729 0 .831513-.1103019 1.196363-.3309091.36485-.2206071.729695-.5557553 1.094546-1.0054545v-3.7418182c-.271517-.1612129-.559999-.2821208-.865455-.3627273-.305456-.0806064-.61515-.1209091-.929091-.1209091-.661821 0-1.164544.154847-1.508182.4645455s-.515454.7615122-.515454 1.3554545v2.0490909c0 .6618215.137877 1.1093928.413636 1.3427273s.646968.35 1.113637.35zm1.90909-.1909091c-.220607.4412144-.521816.7848473-.903636 1.0309091-.38182.2460619-.823028.3690909-1.323636.3690909-.746671 0-1.346968-.2524217-1.800909-.7572727-.453942-.504851-.680909-1.2196923-.680909-2.1445455v-2.0745454c0-.8909136.294845-1.5993913.884545-2.1254546.5897-.5260632 1.389389-.7890909 2.399091-.7890909.339396 0 .661817.0318179.967273.0954546s.585453.1506055.84.2609091v-2.7745455h1.272727v10.1818182h-1.272727v-1.2727273zm5.472728-4.0727272v5.3454545h-1.272728v-7.6363636h1.272728v1.2727272h.381818c.135758-.4242445.392422-.7636351.77-1.0181818s.820906-.3818182 1.33-.3818182c.449699 0 .833635.1251503 1.151818.3754546.318184.2503043.545151.591816.680909 1.0245454h.458182c.135758-.4242445.398786-.7636351.789091-1.0181818s.852725-.3818182 1.387273-.3818182c.593942 0 1.069089.2184827 1.425454.6554546.356366.4369719.534546 1.0245417.534546 1.7627273v5.3454545h-1.272728v-5.1418182c0-.5090934-.097574-.8718171-.292727-1.0881818-.195152-.2163647-.47515-.3245455-.84-.3245455s-.727574.110302-1.088182.3309091c-.360608.2206072-.680907.5133315-.960909.8781819v5.3454545h-1.272727v-5.1418182c0-.5090934-.097575-.8718171-.292727-1.0881818-.195153-.2163647-.47515-.3245455-.84-.3245455-.364851 0-.727574.110302-1.088182.3309091-.360608.2206072-.680908.5133315-.960909.8781819zm12.727272 5.3454545v-7.6363636h1.272728v7.6363636zm.636364-9.0363636c-.322426 0-.583332-.0509086-.782727-.1527273s-.299091-.2927259-.299091-.5727273v-.0890909c0-.2884863.099696-.485757.299091-.5918182.199395-.1060611.460301-.1590909.782727-.1590909s.583332.0530298.782727.1590909c.199395.1060612.299091.3033319.299091.5918182v.0890909c0 .2800014-.101817.4709086-.305454.5727273-.203638.1018187-.462423.1527273-.776364.1527273zm7.84 9.1c-.856974 0-1.529391-.288482-2.017273-.8654546-.487881-.5769726-.731818-1.259996-.731818-2.0490909v-7.3309091h1.272727v7.3436364c0 .4496992.125151.8484831.375455 1.1963636s.629997.5218182 1.139091.5218182c.127273 0 .275757-.0212119.445454-.0636364.169698-.0424244.318182-.093333.445455-.1527272l.254545 1.1072727c-.161212.0848489-.343635.1548482-.547272.21-.203638.0551518-.415757.0827273-.636364.0827273zm6.363636 0c-.856974 0-1.529391-.288482-2.017272-.8654546-.487882-.5769726-.731818-1.259996-.731818-2.0490909v-7.3309091h1.272727v7.3436364c0 .4496992.12515.8484831.375454 1.1963636.250305.3478805.629998.5218182 1.139091.5218182.127274 0 .275757-.0212119.445455-.0636364.169698-.0424244.318181-.093333.445454-.1527272l.254546 1.1072727c-.161213.0848489-.343636.1548482-.547273.21s-.415756.0827273-.636364.0827273z"/><path d="m705.42 64-1.705455-5.1672727-1.62909 5.1672727h-1.45091l-2.138181-7.6363636h1.285454l1.603637 6.4018181 1.565454-5.1290909h1.501818l1.641818 5.0018182 1.578182-6.2745454h1.285455l-2.138182 7.6363636zm11.696364-1.68c-.229092.6363668-.591816 1.0966652-1.088182 1.3809091-.496366.2842438-1.19848.4263636-2.106364.4263636-1.009702 0-1.794542-.2439369-2.354545-.7318182-.560003-.4878812-.84-1.2112073-.84-2.17v-2.0490909c0-.9842473.294845-1.7203006.884545-2.2081818s1.359692-.7318182 2.31-.7318182c.958793 0 1.726664.2481794 2.303637.7445455.576972.4963661.865454 1.2578736.865454 2.2845454v1.1709091h-5.090909v.8018182c0 .6363668.159089 1.0966653.477273 1.3809091.318183.2842439.795451.4263636 1.431818.4263636.610912 0 1.056362-.0848476 1.336364-.2545454.280001-.1696978.49212-.4454526.636363-.8272727zm-5.116364-3.1436364v.3054546h3.818182v-.1909091c0-.6872762-.159089-1.1878772-.477273-1.5018182-.318183-.313941-.795451-.4709091-1.431818-.4709091s-1.113635.1506046-1.431818.4518182c-.318184.3012136-.477273.7699968-.477273 1.4063636zm10.716364 4.9509091c-.407275 0-.888785-.0657569-1.444546-.1972727-.55576-.1315158-1.100906-.3627256-1.635454-.6936364v-9.4181818h1.272727v3.8181818h.381818c.220607-.4412143.521816-.7848472.903636-1.0309091.381821-.2460618.823028-.3690909 1.323637-.3690909.74667 0 1.346967.2524218 1.800909.7572728s.680909 1.2196923.680909 2.1445454v2.0745455c0 1.0436416-.349996 1.7903008-1.05 2.24s-1.444542.6745454-2.233636.6745454zm-.012728-1.12c.534548 0 1.005453-.1272714 1.412728-.3818182.407274-.2545467.610909-.7339358.610909-1.4381818v-2.0363636c0-.6618215-.137878-1.111514-.413637-1.3490909-.275759-.237577-.646967-.3563637-1.113636-.3563637-.432729 0-.831513.110302-1.196364.3309091-.36485.2206072-.729695.5557554-1.094545 1.0054546v3.7418182c.254547.152728.526059.2715147.814545.3563636.288487.0848489.61515.1272727.98.1272727zm9.125455 1.12c-.644852 0-1.268482-.0954536-1.870909-.2863636-.602427-.1909101-1.158179-.4857556-1.667273-.8845455l.572727-1.0054545c.41576.3393956.880301.5960597 1.393637.77s1.03727.2609091 1.571818.2609091c.441214 0 .863331-.0678781 1.266364-.2036364.403032-.1357582.604545-.4242402.604545-.8654545 0-.3648503-.165453-.6236356-.496364-.7763637-.33091-.152728-.937571-.2842418-1.82-.3945454-.933338-.1103036-1.639694-.3287863-2.119091-.6554546-.479396-.3266683-.71909-.8421177-.71909-1.5463636 0-.7636402.288482-1.3384829.865454-1.7245455.576973-.3860625 1.247269-.5790909 2.010909-.5790909.602427 0 1.181513.1018172 1.737273.3054546s1.07121.4921193 1.546364.8654545l-.572728 1.0054546c-.390305-.313941-.814543-.5642415-1.272727-.7509091s-.937573-.28-1.438182-.28c-.407275 0-.778483.0763629-1.113636.2290909s-.502727.4327252-.502727.84c0 .3478805.154846.6003022.464545.7572727s.905753.2906055 1.788182.4009091c.967277.1103036 1.692725.3457558 2.176363.7063636.483639.3606079.725455.8633302.725455 1.5081819 0 .7975797-.322421 1.3809072-.967273 1.75-.644851.3690927-1.366056.5536363-2.163636.5536363zm6.898182-.1272727v-7.6363636h1.272727v7.6363636zm.636363-9.0363636c-.322425 0-.583332-.0509086-.782727-.1527273s-.299091-.2927259-.299091-.5727273v-.0890909c0-.2884863.099696-.485757.299091-.5918182.199395-.1060611.460302-.1590909.782727-.1590909.322426 0 .583333.0530298.782728.1590909.199395.1060612.299091.3033319.299091.5918182v.0890909c0 .2800014-.101818.4709086-.305455.5727273s-.462423.1527273-.776364.1527273zm8.26 9.1509091c-.840004 0-1.472119-.2206039-1.896363-.6618182-.424245-.4412144-.636364-1.0945412-.636364-1.96v-3.9836364h-1.527273v-1.1454545h1.527273v-2.5454546h1.272727v2.5454546h2.8v1.1454545h-2.8v3.9963636c0 .5006086.123029.8675746.369091 1.1009091s.568483.35.967273.35c.186668 0 .394544-.0212119.623636-.0636363.229092-.0424245.462423-.1060602.7-.1909091l.254546 1.12c-.288486.1018187-.570605.1760604-.846364.2227273s-.54515.07-.808182.07zm10.22-1.7945455c-.229092.6363668-.591815 1.0966652-1.088181 1.3809091-.496367.2842438-1.198481.4263636-2.106364.4263636-1.009702 0-1.794543-.2439369-2.354546-.7318182-.560002-.4878812-.84-1.2112073-.84-2.17v-2.0490909c0-.9842473.294846-1.7203006.884546-2.2081818s1.359692-.7318182 2.31-.7318182c.958793 0 1.726664.2481794 2.303636.7445455.576973.4963661.865455 1.2578736.865455 2.2845454v1.1709091h-5.090909v.8018182c0 .6363668.159089 1.0966653.477272 1.3809091.318184.2842439.795452.4263636 1.431819.4263636.610912 0 1.056362-.0848476 1.336363-.2545454.280002-.1696978.492121-.4454526.636364-.8272727zm-5.116363-3.1436364v.3054546h3.818182v-.1909091c0-.6872762-.15909-1.1878772-.477273-1.5018182-.318184-.313941-.795452-.4709091-1.431818-.4709091-.636367 0-1.113635.1506046-1.431819.4518182-.318183.3012136-.477272.7699968-.477272 1.4063636zm10.92 4.9509091c-.644852 0-1.268482-.0954536-1.870909-.2863636-.602428-.1909101-1.15818-.4857556-1.667273-.8845455l.572727-1.0054545c.41576.3393956.880301.5960597 1.393637.77.513335.1739403 1.03727.2609091 1.571818.2609091.441214 0 .863331-.0678781 1.266363-.2036364.403033-.1357582.604546-.4242402.604546-.8654545 0-.3648503-.165453-.6236356-.496364-.7763637-.330911-.152728-.937571-.2842418-1.82-.3945454-.933338-.1103036-1.639694-.3287863-2.119091-.6554546-.479396-.3266683-.719091-.8421177-.719091-1.5463636 0-.7636402.288482-1.3384829.865455-1.7245455.576972-.3860625 1.247269-.5790909 2.010909-.5790909.602427 0 1.181512.1018172 1.737273.3054546.55576.2036374 1.071209.4921193 1.546363.8654545l-.572727 1.0054546c-.390305-.313941-.814543-.5642415-1.272727-.7509091s-.937573-.28-1.438182-.28c-.407275 0-.778483.0763629-1.113636.2290909-.335154.152728-.502728.4327252-.502728.84 0 .3478805.154847.6003022.464546.7572727.309698.1569705.905753.2906055 1.788182.4009091.967277.1103036 1.692724.3457558 2.176363.7063636.483639.3606079.725455.8633302.725455 1.5081819 0 .7975797-.322421 1.3809072-.967273 1.75-.644852.3690927-1.366057.5536363-2.163636.5536363z"/></g><circle cx="198.5" cy="32.5" fill="#fff" r="5.5"/><circle cx="379.5" cy="31.5" fill="#fff" r="5.5"/><circle cx="565.5" cy="31.5" fill="#fff" r="5.5"/></g></svg>