<svg viewBox="0 0 661.78 313.07" xmlns="http://www.w3.org/2000/svg"><path d="m3.48 59.44h10.52c10.17 0 19.59 6.18 19.59 18.83 0 12.81-9.31 18.93-19.54 18.93h-10.57zm7.24 31.23h3.54c6.38 0 12.1-4.15 12.1-12.4s-5.72-12.27-12.1-12.27h-3.54v24.7z" fill="#231f20"/><path d="m77.88 78.27c0 11.13-9.16 20.14-20.8 20.14s-20.8-9-20.8-20.14 9.11-20 20.8-20 20.8 8.92 20.8 20zm-34.32 0a13.51 13.51 0 1 0 13.52-13.41 13.54 13.54 0 0 0 -13.52 13.41zm10.94-21.91h-6.23v-5.36h6.23zm11.39 0h-6.23v-5.36h6.23z" fill="#a7a9ac"/><path d="m88.81 71.59v25.61h-7.24v-37.76h7.14l18.29 25.46v-25.46h7.24v37.76h-7z" fill="#231f20"/><path d="m119.23 59.44h20.65v6.38h-13.42v8.86h12.2v5.92h-12.2v10.22h13.82v6.38h-21.05z" fill="#231f20"/><path d="m152.53 83.38h-.53v13.82h-7.24v-37.76h9.82c7.74 0 13.92 3.39 13.92 12 0 5.42-3.54 9.06-8 10.78l11.77 14.98h-8.76zm-.53-17.46v11.59h2.68c4 0 6.63-2.33 6.63-5.92 0-3.39-2.33-5.67-6.58-5.67z" fill="#231f20"/><path d="m196.86 91.94v-.4l11.08-11h-25.4v-6.92h25.41l-11.08-11v-.4h8.76l14.52 14.48v.71l-14.53 14.53z" fill="#f1573a"/><g fill="#231f20"><path d="m233.76 59.44h10.53c10.17 0 19.59 6.18 19.59 18.83 0 12.81-9.31 18.93-19.54 18.93h-10.58zm7.24 31.23h3.54c6.38 0 12.1-4.15 12.1-12.4s-5.72-12.27-12.1-12.27h-3.54v24.7z"/><path d="m287.36 98.42c-11.69 0-20.8-9-20.8-20.14a19.64 19.64 0 0 1 4.76-12.86h-4v-6h6.88v3.24a21.65 21.65 0 0 1 26.37.05v-3.27h6.88v6h-4.1a19.42 19.42 0 0 1 4.81 12.86c0 11.11-9.16 20.12-20.8 20.12zm-13.52-20.15a13.51 13.51 0 1 0 13.51-13.41 13.54 13.54 0 0 0 -13.51 13.41z"/><path d="m319.09 71.59v25.61h-7.24v-37.76h7.15l18.31 25.46v-25.46h7.24v37.76h-7z"/><path d="m349.51 59.44h20.65v6.38h-13.42v8.86h12.2v5.92h-12.2v10.22h13.82v6.38h-21.05z"/><path d="m382.81 83.38h-.51v13.82h-7.24v-37.76h9.82c7.74 0 13.92 3.39 13.92 12 0 5.42-3.54 9.06-8 10.78l11.75 14.98h-8.76zm-.51-17.46v11.59h2.7c4 0 6.63-2.33 6.63-5.92 0-3.39-2.33-5.67-6.58-5.67z"/><path d="m20.94 231.79a10.93 10.93 0 0 0 -6-2.18c-3.34 0-4.61 1.62-4.61 3.29 0 2.23 1.87 3.75 5.82 7 6.28 5.26 8.45 8.5 8.45 12.45 0 6.48-5.52 10.38-12.55 10.38a22.12 22.12 0 0 1 -10.48-2.83l2.73-5.67a15.65 15.65 0 0 0 7.79 2.53c3.39 0 5.16-2.07 5.16-4.2 0-2.33-1.87-4.25-6.12-7.74-6-5-8.3-7.54-8.3-11.89 0-4.76 3.69-9.31 12-9.31a19 19 0 0 1 8.86 2.48z"/><path d="m35.62 248.75v13.41h-7.24v-37.76h10.33c8 0 14.27 2.78 14.32 12.2-.05 8.5-7.39 12.15-14.53 12.15zm0-17.87v11.49h3.59c3.95 0 6.63-2.18 6.63-5.77-.05-3.44-1.92-5.72-6.63-5.72z"/></g><path d="m76.87 255.63h-16.76l-2.48 6.53h-7.49l14.86-37.76h7.19l14.88 37.76h-7.77zm-10.94-34.32h-6.22v-5.37h6.23v5.37zm2.58 11.94-6.23 16.55h12.4zm8.81-11.94h-6.22v-5.37h6.23v5.37z" fill="#a7a9ac"/><g fill="#231f20"><path d="m91.9 230.88h-6.63v-6.48h20.5v6.48h-6.63v31.28h-7.24z"/><path d="m106.37 262.16-.15-.86 18.17-30.67h-15.89l2.73-6.23h24.35l.15.91-18.27 30.62h19.28l-2.58 6.23z"/><path d="m147 224.4v31.23h13.21v6.53h-20.43v-37.76z"/><path d="m163.41 224.4h20.65v6.38h-13.41v8.86h12.2v5.92h-12.2v10.22h13.82v6.38h-21.06z"/></g><path d="m210.58 256.89v-.4l11.08-11h-25.4v-6.88h25.41l-11.08-11v-.41h8.76l14.53 14.53v.71l-14.53 14.53h-8.76z" fill="#f1573a"/><g fill="#231f20"><path d="m264.94 231.79a10.93 10.93 0 0 0 -6-2.18c-3.34 0-4.61 1.62-4.61 3.29 0 2.23 1.87 3.75 5.82 7 6.28 5.26 8.45 8.5 8.45 12.45 0 6.48-5.52 10.38-12.55 10.38a22.12 22.12 0 0 1 -10.48-2.83l2.73-5.67a15.65 15.65 0 0 0 7.79 2.53c3.39 0 5.16-2.07 5.16-4.2 0-2.33-1.87-4.25-6.12-7.74-6-5-8.3-7.54-8.3-11.89 0-4.76 3.69-9.31 12-9.31a19 19 0 0 1 8.86 2.48z"/><path d="m279.61 248.75v13.41h-7.24v-37.76h10.33c8 0 14.27 2.78 14.32 12.2-.05 8.5-7.39 12.15-14.53 12.15zm0-17.87v11.49h3.59c3.95 0 6.63-2.18 6.63-5.77-.05-3.44-1.92-5.72-6.63-5.72z"/><path d="m320.86 255.63h-16.75l-2.48 6.53h-7.49l14.86-37.76h7.19l14.88 37.76h-7.79zm-15.34-25.26h-7v-6h7zm7 2.88-6.23 16.55h12.4zm14.17-2.88h-7.09v-6h7.09z"/><path d="m335.89 230.88h-6.63v-6.48h20.5v6.48h-6.63v31.28h-7.24z"/><path d="m350.37 262.16-.15-.86 18.17-30.67h-15.9l2.73-6.23h24.34l.15.91-18.27 30.62h19.28l-2.58 6.23z"/><path d="m391 224.4v31.23h13.21v6.53h-20.44v-37.76z"/><path d="m407.41 224.4h20.65v6.38h-13.42v8.86h12.2v5.92h-12.2v10.22h13.82v6.38h-21.05z"/><path d="m3.48 180v-37.8h11.89c8.63 0 11.63 4.3 11.63 9.72a9.76 9.76 0 0 1 -4.61 8.1 10.61 10.61 0 0 1 6.07 9.67c0 5.21-3.64 10.27-12 10.27h-13zm7.24-31.89v9.89h2.94c4.25 0 6.73-2.08 6.73-5.16 0-2.78-1.52-4.76-6.53-4.76h-3.14zm0 15.13v10.88h3.75c5.16 0 6.68-2.43 6.68-5.26 0-3.49-2.48-5.62-6.83-5.62z"/><path d="m32.38 142.2h7.24v37.8h-7.24z"/><path d="m44.63 142.2h20.65v6.38h-13.42v8.86h12.2v5.92h-12.2v10.22h13.82v6.42h-21.05z"/><path d="m77.93 166.14h-.51v13.86h-7.24v-37.8h9.82c7.74 0 13.92 3.39 13.92 12 0 5.42-3.54 9.06-8 10.78l11.75 15.02h-8.76zm-.51-17.46v11.59h2.68c4 0 6.63-2.33 6.63-5.92 0-3.39-2.33-5.67-6.58-5.67z"/><path d="m121.15 153.43-7.44 26.57h-6.93l-10.83-37.8h7.59l7.24 27.13 7.22-27.13h6.58l7.19 27.13 7.23-27.13h7.24l-10.82 37.8h-7z"/></g><path d="m163.71 181.17c-9.62 0-14.88-6.28-14.88-16.85v-22.12h7.24v23.64c0 5.77 3.69 8.76 7.64 8.76s7.69-3 7.69-8.76v-23.64h7.24v22.12c.01 10.57-5.16 16.85-14.93 16.85zm-2.58-42.06h-6.23v-5.36h6.23zm11.39 0h-6.22v-5.36h6.23v5.36z" fill="#a7a9ac"/><path d="m191.35 166.14h-.51v13.86h-7.24v-37.8h9.82c7.74 0 13.92 3.39 13.92 12 0 5.42-3.54 9.06-8 10.78l11.75 15.02h-8.76zm-.51-17.46v11.59h2.68c4 0 6.63-2.33 6.63-5.92 0-3.39-2.33-5.67-6.58-5.67z" fill="#231f20"/><path d="m230.67 149.59a10.92 10.92 0 0 0 -6-2.18c-3.34 0-4.61 1.62-4.61 3.29 0 2.23 1.87 3.75 5.82 7 6.28 5.26 8.45 8.5 8.45 12.45 0 6.48-5.52 10.38-12.55 10.38a22.12 22.12 0 0 1 -10.48-2.83l2.73-5.67a15.65 15.65 0 0 0 7.79 2.53c3.39 0 5.16-2.07 5.16-4.2 0-2.33-1.87-4.25-6.12-7.74-6-5-8.3-7.54-8.3-11.89 0-4.76 3.69-9.31 12-9.31a19 19 0 0 1 8.86 2.48z" fill="#231f20"/><path d="m241.3 148.68h-6.63v-6.48h20.5v6.48h-6.63v31.32h-7.24z" fill="#231f20"/><path d="m258.1 142.2h20.65v6.38h-13.41v8.86h12.2v5.92h-12.2v10.22h13.82v6.42h-21.06z" fill="#231f20"/><path d="m305.27 174.69v-.4l11.08-11h-25.4v-6.88h25.41l-11.08-11v-.4h8.72l14.53 14.53v.71l-14.53 14.44h-8.76z" fill="#f1573a"/><g fill="#231f20"><path d="m342.17 180v-37.8h11.89c8.66 0 11.59 4.3 11.59 9.72a9.76 9.76 0 0 1 -4.65 8.08 10.61 10.61 0 0 1 6.07 9.67c0 5.21-3.64 10.27-12 10.27h-13zm7.24-31.89v9.89h2.94c4.25 0 6.73-2.08 6.73-5.16 0-2.78-1.52-4.76-6.53-4.76h-3.15zm0 15.13v10.88h3.75c5.16 0 6.68-2.43 6.68-5.26 0-3.49-2.48-5.62-6.83-5.62h-3.61z"/><path d="m371.07 142.2h7.24v37.8h-7.24z"/><path d="m383.31 142.2h20.69v6.38h-13.45v8.86h12.2v5.92h-12.2v10.22h13.82v6.42h-21.06z"/><path d="m416.61 166.14h-.51v13.86h-7.24v-37.8h9.82c7.74 0 13.92 3.39 13.92 12 0 5.42-3.54 9.06-8 10.78l11.75 15.02h-8.75zm-.51-17.46v11.59h2.68c4 0 6.63-2.33 6.63-5.92 0-3.39-2.33-5.67-6.58-5.67z"/><path d="m459.84 153.43-7.44 26.57h-6.93l-10.84-37.8h7.59l7.24 27.13 7.24-27.13h6.58l7.19 27.13 7.24-27.13h7.24l-10.84 37.8h-7z"/><path d="m494.76 147.56h-7.24v-5.36h7.24v5.37zm7.64 33.61c-9.62 0-14.88-6.28-14.88-16.85v-15.74h7.24v17.26c0 5.77 3.69 8.76 7.64 8.76s7.69-3 7.69-8.76v-17.26h7.24v15.74c0 10.57-5.21 16.85-14.93 16.85zm14.93-33.61h-7.24v-5.36h7.24v5.37z"/><path d="m530 166.14h-.51v13.86h-7.24v-37.8h9.82c7.74 0 13.92 3.39 13.92 12 0 5.42-3.54 9.06-8 10.78l11.78 15.02h-8.77zm-.51-17.46v11.59h2.68c4 0 6.63-2.33 6.63-5.92 0-3.39-2.33-5.67-6.58-5.67z"/><path d="m569.36 149.59a10.92 10.92 0 0 0 -6-2.18c-3.34 0-4.61 1.62-4.61 3.29 0 2.23 1.87 3.75 5.82 7 6.28 5.26 8.45 8.5 8.45 12.45 0 6.48-5.52 10.38-12.55 10.38a22.12 22.12 0 0 1 -10.47-2.8l2.73-5.67a15.65 15.65 0 0 0 7.79 2.53c3.39 0 5.16-2.07 5.16-4.2 0-2.33-1.87-4.25-6.12-7.74-6-5-8.3-7.54-8.3-11.89 0-4.76 3.69-9.31 12-9.31a19 19 0 0 1 8.86 2.48z"/><path d="m580 148.68h-6.63v-6.48h20.5v6.48h-6.63v31.32h-7.24z"/><path d="m596.79 142.2h20.65v6.38h-13.44v8.86h12.2v5.92h-12.2v10.22h13.82v6.42h-21.03z"/></g><g fill="#f1573a"><path d="m191.88 50.14a3.93 3.93 0 0 0 -1.63-.38c-.83 0-1.16.34-1.16.72s.44.84 1.33 1.61c1.46 1.26 2 2 2 3 0 1.55-1.37 2.47-3.13 2.47a6.66 6.66 0 0 1 -2.12-.36v-1.66a5.11 5.11 0 0 0 2.11.49 1.06 1.06 0 0 0 1.24-.9c0-.5-.43-.95-1.4-1.75-1.43-1.21-2-1.81-2-2.84s.94-2.25 3-2.25a5.35 5.35 0 0 1 1.75.28z"/><path d="m198.21 50.14a3.93 3.93 0 0 0 -1.63-.38c-.83 0-1.16.34-1.16.72s.44.84 1.33 1.61c1.46 1.26 2 2 2 3 0 1.55-1.37 2.47-3.13 2.47a6.66 6.66 0 0 1 -2.12-.36v-1.66a5.11 5.11 0 0 0 2.11.49 1.06 1.06 0 0 0 1.24-.9c0-.5-.43-.95-1.4-1.75-1.43-1.21-2-1.81-2-2.84s.94-2.25 3-2.25a5.35 5.35 0 0 1 1.75.28z"/><path d="m206.76 52.59v.62c0 2.93-1.46 4.44-3.45 4.44s-3.43-1.51-3.43-4.44v-.62c0-3 1.48-4.46 3.43-4.46s3.45 1.5 3.45 4.46zm-1.74 0c0-2-.7-3-1.71-3s-1.7 1-1.7 3v.62c0 2 .73 3 1.7 3s1.71-.95 1.71-3v-.61z"/><path d="m207.89 57.21v-1.48a3.93 3.93 0 0 0 1.76.49c1.36 0 2.28-.64 2.28-1.54s-.89-1.46-2.1-1.46h-.62l.06-1.39h.56a1.45 1.45 0 0 0 1.62-1.22 1.28 1.28 0 0 0 -1.51-1.07 3.51 3.51 0 0 0 -1.54.32l.11-1.5a5.31 5.31 0 0 1 1.75-.24c1.66 0 2.91 1 2.91 2.25a2.43 2.43 0 0 1 -1.21 2 2.57 2.57 0 0 1 1.68 2.37c0 1.67-1.43 2.91-3.51 2.9a5.32 5.32 0 0 1 -2.24-.43z"/><path d="m207 215.22a3.93 3.93 0 0 0 -1.63-.38c-.83 0-1.16.34-1.16.72s.44.84 1.33 1.61c1.46 1.26 2 2 2 3 0 1.55-1.37 2.47-3.13 2.47a6.65 6.65 0 0 1 -2.12-.36v-1.66a5.1 5.1 0 0 0 2.11.49 1.06 1.06 0 0 0 1.24-.9c0-.5-.43-.95-1.4-1.75-1.43-1.21-2-1.81-2-2.84s.94-2.25 3-2.25a5.34 5.34 0 0 1 1.75.28z"/><path d="m213.36 215.22a3.93 3.93 0 0 0 -1.63-.38c-.83 0-1.16.34-1.16.72s.44.84 1.33 1.61c1.46 1.26 2 2 2 3 0 1.55-1.37 2.47-3.13 2.47a6.65 6.65 0 0 1 -2.12-.36v-1.66a5.1 5.1 0 0 0 2.11.49 1.06 1.06 0 0 0 1.24-.9c0-.5-.43-.95-1.4-1.75-1.43-1.21-2-1.81-2-2.84s.94-2.25 3-2.25a5.34 5.34 0 0 1 1.75.28z"/><path d="m221.91 217.67v.62c0 2.93-1.46 4.44-3.45 4.44s-3.43-1.51-3.43-4.44v-.62c0-3 1.48-4.46 3.43-4.46s3.45 1.5 3.45 4.46zm-1.74 0c0-2-.7-3-1.71-3s-1.7 1-1.7 3v.62c0 2 .73 3 1.7 3s1.71-.95 1.71-3z"/><path d="m223 222.29v-1.48a3.93 3.93 0 0 0 1.76.49c1.36 0 2.28-.64 2.28-1.54s-.89-1.46-2.1-1.46h-.62l.06-1.39h.62a1.45 1.45 0 0 0 1.62-1.22 1.28 1.28 0 0 0 -1.51-1.07 3.52 3.52 0 0 0 -1.54.32l.11-1.5a5.33 5.33 0 0 1 1.75-.24c1.66 0 2.91 1 2.91 2.25a2.43 2.43 0 0 1 -1.21 2 2.57 2.57 0 0 1 1.68 2.38c0 1.67-1.43 2.91-3.51 2.9a5.32 5.32 0 0 1 -2.3-.44z"/><path d="m299.58 131.63a3.93 3.93 0 0 0 -1.63-.38c-.83 0-1.16.34-1.16.72s.44.84 1.33 1.61c1.46 1.26 2 2 2 3 0 1.55-1.37 2.47-3.13 2.47a6.66 6.66 0 0 1 -2.12-.36v-1.66a5.11 5.11 0 0 0 2.11.49 1.06 1.06 0 0 0 1.24-.9c0-.5-.43-.95-1.4-1.75-1.43-1.21-2-1.81-2-2.84s.94-2.25 3-2.25a5.35 5.35 0 0 1 1.75.28z"/><path d="m305.9 131.63a3.93 3.93 0 0 0 -1.63-.38c-.83 0-1.16.34-1.16.72s.44.84 1.33 1.61c1.46 1.26 2 2 2 3 0 1.55-1.37 2.47-3.13 2.47a6.66 6.66 0 0 1 -2.12-.36v-1.66a5.11 5.11 0 0 0 2.11.49 1.06 1.06 0 0 0 1.24-.9c0-.5-.43-.95-1.4-1.75-1.43-1.21-2-1.81-2-2.84s.94-2.25 3-2.25a5.35 5.35 0 0 1 1.75.28z"/><path d="m314.46 134.08v.62c0 2.93-1.46 4.44-3.45 4.44s-3.43-1.51-3.43-4.44v-.62c0-3 1.48-4.46 3.43-4.46s3.45 1.49 3.45 4.46zm-1.74 0c0-2-.7-3-1.71-3s-1.7 1-1.7 3v.62c0 2 .73 3 1.7 3s1.71-.95 1.71-3z"/><path d="m315.59 138.69v-1.48a3.93 3.93 0 0 0 1.76.49c1.36 0 2.28-.64 2.28-1.54s-.89-1.46-2.1-1.46h-.62l.06-1.39h.56a1.45 1.45 0 0 0 1.62-1.22 1.28 1.28 0 0 0 -1.51-1.07 3.51 3.51 0 0 0 -1.54.32l.11-1.5a5.31 5.31 0 0 1 1.75-.24c1.66 0 2.91 1 2.91 2.25a2.43 2.43 0 0 1 -1.21 2 2.57 2.57 0 0 1 1.68 2.37c0 1.67-1.43 2.91-3.51 2.9a5.32 5.32 0 0 1 -2.24-.43z"/></g></svg>