<svg viewBox="0 0 1359.25 326.02" xmlns="http://www.w3.org/2000/svg"><path d="m0 0h1358.42v326.02h-1358.42z" fill="#fffbee"/><g fill="#fdee91"><circle cx="894.72" cy="220.39" r="31.74"/><circle cx="1287.54" cy="220.39" r="31.74"/><circle cx="1036.26" cy="125.8" r="31.74"/></g><path d="m119.18 237.24h-70.33v-13l20.49-5.28v-93.35l-20.49-11.88v-15l44.31-2.73 4.15 37.65c13.58-24.39 34.88-38.78 57.32-38.78 20.49 0 37.08 11.06 37.08 37.65v86.11l19.67 5.53v13h-70v-12.93l20.49-5.28v-81.4c0-15-3.33-18.86-13.83-19.11-27.15-.57-48.71 23.82-48.71 60.09v40.17l19.92 5.53-.06 13z"/><path d="m293.41 240.25c-33.81 0-65.05-23.82-65.05-64 0-48.71 36.58-81.71 75.3-81.71 31.55 0 53.74 30.17 53.74 66.18a59.24 59.24 0 0 1 -.57 10h-96.67c1.95 30.73 20.49 45.13 45.13 45.13 11.88 0 26.84-4.71 37.08-16.59l10.5 8.86c-12.39 21.88-34.57 32.13-59.46 32.13zm-33-85.54 63.42-1.13c-2.51-32.93-21.31-42.93-33.81-42.93a16.94 16.94 0 0 0 -9.43 2.77c-9.05 5.58-17.92 20.24-20.18 41.29z"/><path d="m452.36 294h-73.36v-12.77l21.31-5.85v-150l-20.49-11.63v-15l44.06-3 5 40.16c10.24-23.57 29.92-41 49.59-41 29.35 0 54.81 28.53 54.81 68.95 0 44.88-31.3 76.18-70.9 76.18-12.76 0-24.39-2.51-32.43-5.85v41l22.44 6.1.06 12.7zm47.08-119.61c0-38-13-57.32-26.59-57.32-21.06 0-42.93 28.22-42.93 77.56v12.76c8 9.43 24.39 14.71 35.45 14.71 24.63-.1 34.07-18.36 34.07-47.72z"/><path d="m556.76 174.64c0-47.08 31.87-79.51 74.79-79.51 31.3 0 65.37 25 65.37 66.18 0 48.21-32.93 79.19-75 79.19-35.56.07-65.16-29.28-65.16-65.86zm33.19-11.38c0 36 19.11 59 42.36 59 15.52 0 31-10.81 31-46.51 0-38-16.09-62.6-41.55-62.6-17.36.02-31.81 16.36-31.81 50.11z"/><path d="m755 240.25c-23.57 0-35.2-13.26-28-38.21l25.77-86.11h-31.84l5.28-16.34 29.6-7.23 23-37.4h21.87l-12.75 43.18h40.73l-5.28 17.72h-40.38l-27.15 92.2c-2.51 8.3-.57 10.81 6.91 10.81 13.26 0 26.59-4.4 36.83-8.86l5.85 11.88c-10.85 7.87-29.64 18.36-50.44 18.36z"/><path d="m840 210.9 24.67-85.9-22.12-11.38 4.4-15 55.94-3-35.2 121.87a132.28 132.28 0 0 0 33.5-8.61c3.58 22.44-20.74 31-34.32 31-21.87.12-31.8-11.82-26.87-28.98zm78.41-161.15c0 14.14-12.44 25.2-25 25.2-10.24 0-18.54-6.35-18.54-18 0-14.14 13.26-25 25.77-25 10.29.05 17.77 7.3 17.77 17.8z"/><path d="m919.8 211.47c-.25-11.06 8.61-18.29 19.36-21.62 7.48 22.12 24.39 34.63 42.93 34.63 10.5 0 19.36-6.91 19.36-18.86 0-16.34-22.69-25-36.83-35.7-11.06-8.3-19.11-17.16-19.11-30.17 0-28.22 29.1-45.44 62-45.44 24.64 0 39 10 39.35 19.92s-8 18-20.24 21.62c-9.11-16.91-24.39-25.46-37.65-25.46a16 16 0 0 0 -15.78 16.09c0 15.78 22.44 24.64 34.32 33.25 13.58 9.43 24.07 19.11 24.07 34.63 0 30.17-33.81 45.95-62 45.95-34.83-.06-49.58-13.63-49.78-28.84z"/><path d="m1236 210.9 22.12-77.56c3.58-11.88 1.38-15.52-7.73-15.52-22.12 0-47.08 21.31-61.47 70.65l-14.14 48.71h-30.48l30.17-103.83c3.58-11.88 1.63-15.52-7.73-15.52-23 0-47.33 23.82-62.6 76.68l-12.19 42.68h-30.48l33.25-111.88-22.44-11.63 4.71-15 46.51-2.51-5 40.73c20.49-30.73 37.65-41.55 57.89-41.55 18.86 0 31.87 12.76 27.72 37.08 18.86-26.84 34.88-37.08 55.12-37.08 20.74 0 35.7 15.21 27.72 42.68l-23 79.51c17.72-2.51 26.84-5.85 34.07-8.61 3.58 22.44-20.74 31-34.32 31-21.6.07-32.7-11.87-27.7-29.03z"/><g fill="#fdee91"><path d="m118.81 92.93 42.55-43.37 35.82 49.02-40.04-14.33z"/><path d="m111.07 161.19 37.65-26.03-3.27 46.14-13.82-15.78z"/><path d="m473.1 81.11 58.71-15.84 5.97 60.53-27.22-32.68z"/><path d="m441.8 168.66 29.98-41.04 13.39 49.53-20.24-11.44z"/></g></svg>