<?xml version="1.0" encoding="UTF-8" standalone="no"?>
<svg width="1023px" height="445px" viewBox="0 0 1023 445" version="1.1" xmlns="http://www.w3.org/2000/svg" xmlns:xlink="http://www.w3.org/1999/xlink">
    <!-- Generator: Sketch 41.2 (35397) - http://www.bohemiancoding.com/sketch -->
    <title>Group</title>
    <desc>Created with Sketch.</desc>
    <defs></defs>
    <g id="Page-1" stroke="none" stroke-width="1" fill="none" fill-rule="evenodd">
        <g id="Group" fill="#000000">
            <path d="M34.5,44.1 L17.7,44.1 L26.2,11 L34.5,44.1 Z M20.8,77 L20.8,74.7 L9.7,75 L17.1,46.5 L35.1,46.5 L42.3,75 L32,74.7 L32,77 L55.9,77 L55.9,74.7 L49.4,74.9 L31.4,4.8 L25.3,4.8 L6.9,75 L0.9,74.7 L0.9,77 L20.8,77 Z M96.5,77 L96.5,74.9 C92.2,76 89.7,75.4 89.7,70.6 L89.7,40 C89.7,31.4 85.9,26.8 76.6,26.8 C65.8,26.8 61.6,31.8 61.6,43.5 L68.1,43.5 C68.1,31.8 69.8,28.8 75.9,28.8 C81.3,28.8 83.4,31.8 83.4,39.3 L83.4,41.3 C83.4,58.4 58.9,47.9 58.9,65.7 C58.9,75.7 65.3,77.7 70.5,77.7 C76.1,77.7 80.4,75.6 84,71.7 C85.2,78 90.8,78.5 96.5,77 Z M73.4,74.8 C68.4,74.8 65.3,72.7 65.3,64.9 C65.3,53.2 76.8,56.9 83.4,49.7 L83.4,63.2 C83.4,71.5 79.1,74.8 73.4,74.8 Z M114.1,36.3 L114.1,8.1 L120.9,8.1 C129.1,8.1 131.6,11 131.6,22.9 C131.6,33.8 129.1,36.3 120.9,36.3 L114.1,36.3 Z M114.1,74.9 L114.1,38.5 L122.3,38.5 C133.5,38.5 137.1,42.1 137.1,56.4 C137.1,71 133.8,74.9 122.9,74.9 L114.1,74.9 Z M99.8,77 L125.5,77 C137.6,77 144,73.8 144,56.4 C144,41.1 138,37.9 126.4,37.4 C133.7,36.7 138.6,33.6 138.6,21.9 C138.6,8.8 133.4,5.8 123.5,5.8 L99.8,5.8 L99.8,8.2 L107.3,8 L107.3,75 L99.8,74.7 L99.8,77 Z M171.6,77.7 C179.8,77.7 187.2,73.5 187.2,51.9 C187.2,31.9 181.5,26.7 173.9,26.7 C168.1,26.7 163.5,29.2 159.7,34 L159.7,1 L146.8,1 L146.8,3.3 L153.4,3.1 L153.4,77 L159.9,77 L159.6,71 C162.1,75.1 165.7,77.7 171.6,77.7 Z M170.6,75.6 C163.2,75.6 159.6,71.2 159.6,52.6 C159.6,34.9 163.7,29.6 171,29.6 C177.7,29.6 180.4,34.1 180.4,52.6 C180.4,71.1 177.6,75.6 170.6,75.6 Z M238.2,47.2 L233.7,47.2 C234.2,70.9 228.8,75.1 218.4,75.1 C208.1,75.1 201.9,70.5 201.9,41 C201.9,12.3 208,7.4 217.2,7.4 C226,7.4 230.2,13.6 229.8,32.6 L235.9,32.6 L235.9,5.8 L229.9,5.8 L229.8,13 C227.6,7.7 222.8,5.1 215.8,5.1 C204.5,5.1 194.8,10.7 194.8,41.3 C194.8,70.1 202.4,77.7 217.5,77.7 C231.6,77.7 239,69.9 238.2,47.2 Z M262,77.7 C273.2,77.7 278,70.7 277.7,56.3 L272.9,56.3 C273.2,70.6 270,75.6 263.3,75.6 C256.3,75.6 252.1,72.9 252.1,51.7 C252.1,32.7 255,28.8 261.7,28.8 C267.5,28.8 268.6,32.2 268.1,46.3 L275.7,46.3 C276,31.3 271,26.7 262.2,26.7 C253.2,26.7 245.4,31.2 245.4,52.2 C245.4,73.1 252.4,77.7 262,77.7 Z M297,74.9 L297,8.1 L307.3,8.1 C319.9,8.1 325.3,12.7 325.3,41.3 C325.3,69.8 319.9,74.9 307.3,74.9 L297,74.9 Z M282.7,77 L309.1,77 C323.3,77 332.4,72.2 332.4,41.3 C332.4,10.4 323.3,5.8 309.1,5.8 L282.7,5.8 L282.7,8.2 L290.2,8 L290.2,75 L282.7,74.7 L282.7,77 Z M355.9,74.8 C349.4,74.8 346.5,70.4 346.5,51.8 C346.5,33.4 349.3,28.9 356.3,28.9 C363.5,28.9 367.3,33.3 367.3,51.8 C367.3,69.6 362.9,74.8 355.9,74.8 Z M353,77.7 C358.6,77.7 363.6,75.2 367.3,70.3 L367.1,77 L380.2,77 L380.2,74.9 L373.5,75.1 L373.5,1 L356.9,1 L356.9,3.3 L367.1,3.1 L367.1,33.1 C364.7,29.4 361.2,26.7 355.3,26.7 C347.1,26.7 339.7,31 339.7,52.5 C339.7,72.5 345.4,77.7 353,77.7 Z M426.9,77 L426.9,52 L420.8,52 L420.9,74.9 L398,74.9 L398,40.2 L415,40.2 L415,37.6 L398,37.6 L398,8.1 L417.5,8.1 L417.4,27.2 L423.6,27.2 L423.6,5.8 L383.7,5.8 L383.7,8.2 L391.2,8 L391.2,75 L383.7,74.7 L383.7,77 L426.9,77 Z M449.6,28.8 C456.4,28.8 457.7,35 457.1,47 L440.2,47 C440.7,31.5 444.1,28.8 449.6,28.8 Z M466,58.9 L461.1,58.9 C461.1,70.9 458.3,75.8 451.2,75.8 C444,75.8 440.1,71.7 440.1,51.7 L440.1,49.1 L464.1,49.1 C465.3,30.7 459.8,26.7 449.8,26.7 C441.1,26.7 433.4,31.2 433.4,52.4 C433.4,73.1 440,77.7 450.5,77.7 C461,77.7 466,72 466,58.9 Z M498.5,77 L498.5,74.7 L485.5,75 L485.5,42.1 L502.9,42.1 L502.9,39.6 L485.5,39.6 L485.5,8.1 L504.3,8.1 L504.1,27.2 L510.5,27.2 L510.5,5.8 L471.2,5.8 L471.2,8.2 L478.7,8 L478.7,75 L471.2,74.7 L471.2,77 L498.5,77 Z M514.6,77 L538.4,77 L538.4,74.8 L527.7,75.1 L527.7,29.5 L538.4,29.6 L538.4,27.4 L527.4,27.4 C526.4,23.6 525.8,19.5 525.8,14.9 C525.8,3.9 527.5,2.4 531.5,2.4 C535.3,2.4 536.7,4.1 536.6,12.7 L543.2,12.7 C543.4,1.6 539,0.6 532.8,0.6 C525,0.6 521.4,3.8 521.4,15.9 L521.4,27.4 L514.6,27.4 L514.6,29.6 L521.4,29.5 L521.4,75.1 L514.6,74.9 L514.6,77 Z M580.1,77 L586.2,77 L586.2,50.2 L592.9,50.5 L592.9,47.8 L565.1,47.8 L565.1,50.5 L579.9,50.2 L579.9,52.3 C579.9,70.2 576.7,75.4 567.9,75.3 C557.6,75.4 551.4,70.7 551.4,41.3 C551.5,12.3 557.5,7.4 566.4,7.4 C574.8,7.4 579.5,13.8 579.6,31.9 L585.3,31.9 L585.3,5.8 L579.1,5.8 L579.3,12.9 C576.7,7.5 571.8,5.1 565.7,5.1 C554,5.1 544.3,10.6 544.3,41.6 C544.3,70 552.1,77.7 566.5,77.7 C572.9,77.7 577.2,75.4 580,71.1 L580.1,77 Z M611.8,55.3 C606.4,55.3 604.4,52.6 604.4,41.9 C604.4,31.2 606.3,28.7 611.6,28.7 C616.7,28.7 618.8,31.5 618.8,41.9 C618.8,52.6 616.8,55.3 611.8,55.3 Z M611.8,96.2 C624.4,96.2 632.2,90.4 632.2,77.6 C632.2,71.1 628.8,66.7 620.4,67.2 L608.6,67.8 C602.7,68.1 600.9,66.7 600.9,62.7 C600.9,58.6 602.9,57.1 608,57.1 L611.5,57.1 C619.1,57.1 625.2,53.7 625.2,41.7 C625.2,35.6 623.6,31.8 621,29.5 L632,29.7 L632,27.4 L620.4,27.4 L619.9,28.7 C617.6,27.2 614.7,26.7 611.6,26.7 C604.2,26.7 598,29.9 598,41.8 C598,49.8 600.7,53.9 604.7,55.8 C598.9,56.6 596.3,60 596.3,64.5 C596.3,71.5 601.1,74.5 608.3,74.2 L620,73.6 C625.5,73.3 627.2,75.1 627.2,79.6 C627.2,87.9 623,94.3 612.6,94.3 C602.1,94.3 600.6,88.9 600.6,77.7 L593.5,77.7 C593.5,90.5 599.1,96.2 611.8,96.2 Z M658.7,77 L658.7,74.7 L650,75 L650,38.6 L678.5,38.6 L678.5,75 L669.8,74.7 L669.8,77 L692.8,77 L692.8,74.7 L685.3,75 L685.3,8 L692.8,8.2 L692.8,5.8 L669.8,5.8 L669.8,8.2 L678.5,8 L678.5,36.4 L650,36.4 L650,8 L658.7,8.2 L658.7,5.8 L635.7,5.8 L635.7,8.2 L643.2,8 L643.2,75 L635.7,74.7 L635.7,77 L658.7,77 Z M696.7,77 L715.7,77 L715.7,74.9 L709.1,75 L709.1,44.6 C709.1,35.2 712.8,29.8 720,29.8 C725.8,29.8 727.6,32.6 727.6,43.4 L727.6,75 L720.8,74.9 L720.8,77 L740.4,77 L740.4,74.9 L733.9,75 L733.9,40.5 C733.9,31.1 730.9,26.7 723.3,26.7 C717.5,26.7 712.8,29 709.1,33.9 L709.1,1 L695.9,1 L695.9,3.3 L702.7,3.1 L702.7,75 L696.7,74.9 L696.7,77 Z M744.2,77 L767.4,77 L767.4,74.7 L759.2,75 L759.2,8 L767.4,8.2 L767.4,5.8 L744.2,5.8 L744.2,8.2 L752.3,8 L752.3,75 L744.2,74.7 L744.2,77 Z M782.5,17.5 C785.4,17.5 786.5,15.8 786.5,12.1 C786.5,8.4 785.4,6.7 782.5,6.7 C779.5,6.7 778.1,8.4 778.1,12.1 C778.1,15.8 779.5,17.5 782.5,17.5 Z M771.7,77 L793.5,77 L793.5,74.9 L786,75 L786,27.4 L771.8,27.4 L771.8,29.7 L779.6,29.5 L779.6,75 L771.7,74.9 L771.7,77 Z M812.8,77.7 C821.9,77.7 827.7,73.9 827.7,60.3 L827.7,8 L835.6,8.2 L835.6,5.8 L808.7,5.8 L808.7,8.2 L821,8 L821,58.7 C821,72.9 818.3,75.4 812.8,75.4 C806.4,75.4 801.8,72.7 803.3,47.2 L796.9,47.2 C795.5,72.5 802.7,77.7 812.8,77.7 Z M848.7,17.5 C851.6,17.5 852.7,15.8 852.7,12.1 C852.7,8.4 851.6,6.7 848.7,6.7 C845.7,6.7 844.3,8.4 844.3,12.1 C844.3,15.8 845.7,17.5 848.7,17.5 Z M836.3,97.9 L851.9,85.1 L851.9,27.4 L837.9,27.4 L837.9,29.7 L845.6,29.5 L845.6,87.4 L834.7,95.7 L836.3,97.9 Z M882.6,77 L882.6,74.7 L874.6,75 L874.6,40.4 L880.2,40.4 L897.9,74.9 L890.8,74.7 L890.8,77 L912.3,77 L912.3,74.7 L906.6,74.9 L886.3,37.3 L903.5,8.1 L910.5,8.2 L910.5,5.8 L890.3,5.8 L890.3,8.2 L900.3,8 L883.7,36.5 L874.6,36.5 L874.6,8 L882.6,8.2 L882.6,5.8 L860.3,5.8 L860.3,8.2 L867.8,8 L867.8,75 L860.3,74.7 L860.3,77 L882.6,77 Z M933.6,77 L933.6,74.9 L926,75 L926,51.3 L930.2,51.3 L942.9,75.1 L937.4,74.9 L937.4,77 L954.6,77 L954.6,74.9 L949.9,75.1 L935.5,49.3 L945.1,29.6 L951.3,29.7 L951.3,27.4 L932.5,27.4 L932.5,29.7 L942.3,29.5 L932.8,49.1 L926,49.1 L926,1 L912.9,1 L912.9,3.3 L919.7,3.1 L919.7,75 L913.3,74.9 L913.3,77 L933.6,77 Z M957,77 L997.2,77 L997.2,51.8 L991,51.8 L991.2,74.9 L971.3,74.9 L971.3,8 L981.7,8.2 L981.7,5.8 L957,5.8 L957,8.2 L964.5,8 L964.5,75 L957,74.7 L957,77 Z M1000.5,77 L1022.1,77 L1022.1,74.9 L1014.1,75 L1014.1,1 L1000,1 L1000,3.3 L1007.7,3.1 L1007.7,75 L1000.5,74.9 L1000.5,77 Z" id="AaBbCcDdEeFfGgHhIiJjKkLl"></path>
            <path d="M34.5,275.1 L17.7,275.1 L26.2,242 L34.5,275.1 Z M20.8,308 L20.8,305.7 L9.7,306 L17.1,277.5 L35.1,277.5 L42.3,306 L32,305.7 L32,308 L55.9,308 L55.9,305.7 L49.4,305.9 L31.4,235.8 L25.3,235.8 L6.9,306 L0.9,305.7 L0.9,308 L20.8,308 Z M96.5,308 L96.5,305.9 C92.2,307 89.7,306.4 89.7,301.6 L89.7,271 C89.7,262.4 85.9,257.8 76.6,257.8 C65.8,257.8 61.6,262.8 61.6,274.5 L68.1,274.5 C68.1,262.8 69.8,259.8 75.9,259.8 C81.3,259.8 83.4,262.8 83.4,270.3 L83.4,272.3 C83.4,289.4 58.9,278.9 58.9,296.7 C58.9,306.7 65.3,308.7 70.5,308.7 C76.1,308.7 80.4,306.6 84,302.7 C85.2,309 90.8,309.5 96.5,308 Z M73.4,305.8 C68.4,305.8 65.3,303.7 65.3,295.9 C65.3,284.2 76.8,287.9 83.4,280.7 L83.4,294.2 C83.4,302.5 79.1,305.8 73.4,305.8 Z M114.1,267.3 L114.1,239.1 L120.9,239.1 C129.1,239.1 131.6,242 131.6,253.9 C131.6,264.8 129.1,267.3 120.9,267.3 L114.1,267.3 Z M114.1,305.9 L114.1,269.5 L122.3,269.5 C133.5,269.5 137.1,273.1 137.1,287.4 C137.1,302 133.8,305.9 122.9,305.9 L114.1,305.9 Z M99.8,308 L125.5,308 C137.6,308 144,304.8 144,287.4 C144,272.1 138,268.9 126.4,268.4 C133.7,267.7 138.6,264.6 138.6,252.9 C138.6,239.8 133.4,236.8 123.5,236.8 L99.8,236.8 L99.8,239.2 L107.3,239 L107.3,306 L99.8,305.7 L99.8,308 Z M171.6,308.7 C179.8,308.7 187.2,304.5 187.2,282.9 C187.2,262.9 181.5,257.7 173.9,257.7 C168.1,257.7 163.5,260.2 159.7,265 L159.7,232 L146.8,232 L146.8,234.3 L153.4,234.1 L153.4,308 L159.9,308 L159.6,302 C162.1,306.1 165.7,308.7 171.6,308.7 Z M170.6,306.6 C163.2,306.6 159.6,302.2 159.6,283.6 C159.6,265.9 163.7,260.6 171,260.6 C177.7,260.6 180.4,265.1 180.4,283.6 C180.4,302.1 177.6,306.6 170.6,306.6 Z M238.2,278.2 L233.7,278.2 C234.2,301.9 228.8,306.1 218.4,306.1 C208.1,306.1 201.9,301.5 201.9,272 C201.9,243.3 208,238.4 217.2,238.4 C226,238.4 230.2,244.6 229.8,263.6 L235.9,263.6 L235.9,236.8 L229.9,236.8 L229.8,244 C227.6,238.7 222.8,236.1 215.8,236.1 C204.5,236.1 194.8,241.7 194.8,272.3 C194.8,301.1 202.4,308.7 217.5,308.7 C231.6,308.7 239,300.9 238.2,278.2 Z M262,308.7 C273.2,308.7 278,301.7 277.7,287.3 L272.9,287.3 C273.2,301.6 270,306.6 263.3,306.6 C256.3,306.6 252.1,303.9 252.1,282.7 C252.1,263.7 255,259.8 261.7,259.8 C267.5,259.8 268.6,263.2 268.1,277.3 L275.7,277.3 C276,262.3 271,257.7 262.2,257.7 C253.2,257.7 245.4,262.2 245.4,283.2 C245.4,304.1 252.4,308.7 262,308.7 Z M297,305.9 L297,239.1 L307.3,239.1 C319.9,239.1 325.3,243.7 325.3,272.3 C325.3,300.8 319.9,305.9 307.3,305.9 L297,305.9 Z M282.7,308 L309.1,308 C323.3,308 332.4,303.2 332.4,272.3 C332.4,241.4 323.3,236.8 309.1,236.8 L282.7,236.8 L282.7,239.2 L290.2,239 L290.2,306 L282.7,305.7 L282.7,308 Z M355.9,305.8 C349.4,305.8 346.5,301.4 346.5,282.8 C346.5,264.4 349.3,259.9 356.3,259.9 C363.5,259.9 367.3,264.3 367.3,282.8 C367.3,300.6 362.9,305.8 355.9,305.8 Z M353,308.7 C358.6,308.7 363.6,306.2 367.3,301.3 L367.1,308 L380.2,308 L380.2,305.9 L373.5,306.1 L373.5,232 L356.9,232 L356.9,234.3 L367.1,234.1 L367.1,264.1 C364.7,260.4 361.2,257.7 355.3,257.7 C347.1,257.7 339.7,262 339.7,283.5 C339.7,303.5 345.4,308.7 353,308.7 Z M426.9,308 L426.9,283 L420.8,283 L420.9,305.9 L398,305.9 L398,271.2 L415,271.2 L415,268.6 L398,268.6 L398,239.1 L417.5,239.1 L417.4,258.2 L423.6,258.2 L423.6,236.8 L383.7,236.8 L383.7,239.2 L391.2,239 L391.2,306 L383.7,305.7 L383.7,308 L426.9,308 Z M449.6,259.8 C456.4,259.8 457.7,266 457.1,278 L440.2,278 C440.7,262.5 444.1,259.8 449.6,259.8 Z M466,289.9 L461.1,289.9 C461.1,301.9 458.3,306.8 451.2,306.8 C444,306.8 440.1,302.7 440.1,282.7 L440.1,280.1 L464.1,280.1 C465.3,261.7 459.8,257.7 449.8,257.7 C441.1,257.7 433.4,262.2 433.4,283.4 C433.4,304.1 440,308.7 450.5,308.7 C461,308.7 466,303 466,289.9 Z M498.5,308 L498.5,305.7 L485.5,306 L485.5,273.1 L502.9,273.1 L502.9,270.6 L485.5,270.6 L485.5,239.1 L504.3,239.1 L504.1,258.2 L510.5,258.2 L510.5,236.8 L471.2,236.8 L471.2,239.2 L478.7,239 L478.7,306 L471.2,305.7 L471.2,308 L498.5,308 Z M514.6,308 L538.4,308 L538.4,305.8 L527.7,306.1 L527.7,260.5 L538.4,260.6 L538.4,258.4 L527.4,258.4 C526.4,254.6 525.8,250.5 525.8,245.9 C525.8,234.9 527.5,233.4 531.5,233.4 C535.3,233.4 536.7,235.1 536.6,243.7 L543.2,243.7 C543.4,232.6 539,231.6 532.8,231.6 C525,231.6 521.4,234.8 521.4,246.9 L521.4,258.4 L514.6,258.4 L514.6,260.6 L521.4,260.5 L521.4,306.1 L514.6,305.9 L514.6,308 Z M580.1,308 L586.2,308 L586.2,281.2 L592.9,281.5 L592.9,278.8 L565.1,278.8 L565.1,281.5 L579.9,281.2 L579.9,283.3 C579.9,301.2 576.7,306.4 567.9,306.3 C557.6,306.4 551.4,301.7 551.4,272.3 C551.5,243.3 557.5,238.4 566.4,238.4 C574.8,238.4 579.5,244.8 579.6,262.9 L585.3,262.9 L585.3,236.8 L579.1,236.8 L579.3,243.9 C576.7,238.5 571.8,236.1 565.7,236.1 C554,236.1 544.3,241.6 544.3,272.6 C544.3,301 552.1,308.7 566.5,308.7 C572.9,308.7 577.2,306.4 580,302.1 L580.1,308 Z M611.8,286.3 C606.4,286.3 604.4,283.6 604.4,272.9 C604.4,262.2 606.3,259.7 611.6,259.7 C616.7,259.7 618.8,262.5 618.8,272.9 C618.8,283.6 616.8,286.3 611.8,286.3 Z M611.8,327.2 C624.4,327.2 632.2,321.4 632.2,308.6 C632.2,302.1 628.8,297.7 620.4,298.2 L608.6,298.8 C602.7,299.1 600.9,297.7 600.9,293.7 C600.9,289.6 602.9,288.1 608,288.1 L611.5,288.1 C619.1,288.1 625.2,284.7 625.2,272.7 C625.2,266.6 623.6,262.8 621,260.5 L632,260.7 L632,258.4 L620.4,258.4 L619.9,259.7 C617.6,258.2 614.7,257.7 611.6,257.7 C604.2,257.7 598,260.9 598,272.8 C598,280.8 600.7,284.9 604.7,286.8 C598.9,287.6 596.3,291 596.3,295.5 C596.3,302.5 601.1,305.5 608.3,305.2 L620,304.6 C625.5,304.3 627.2,306.1 627.2,310.6 C627.2,318.9 623,325.3 612.6,325.3 C602.1,325.3 600.6,319.9 600.6,308.7 L593.5,308.7 C593.5,321.5 599.1,327.2 611.8,327.2 Z M658.7,308 L658.7,305.7 L650,306 L650,269.6 L678.5,269.6 L678.5,306 L669.8,305.7 L669.8,308 L692.8,308 L692.8,305.7 L685.3,306 L685.3,239 L692.8,239.2 L692.8,236.8 L669.8,236.8 L669.8,239.2 L678.5,239 L678.5,267.4 L650,267.4 L650,239 L658.7,239.2 L658.7,236.8 L635.7,236.8 L635.7,239.2 L643.2,239 L643.2,306 L635.7,305.7 L635.7,308 L658.7,308 Z M696.7,308 L715.7,308 L715.7,305.9 L709.1,306 L709.1,275.6 C709.1,266.2 712.8,260.8 720,260.8 C725.8,260.8 727.6,263.6 727.6,274.4 L727.6,306 L720.8,305.9 L720.8,308 L740.4,308 L740.4,305.9 L733.9,306 L733.9,271.5 C733.9,262.1 730.9,257.7 723.3,257.7 C717.5,257.7 712.8,260 709.1,264.9 L709.1,232 L695.9,232 L695.9,234.3 L702.7,234.1 L702.7,306 L696.7,305.9 L696.7,308 Z M744.2,308 L767.4,308 L767.4,305.7 L759.2,306 L759.2,239 L767.4,239.2 L767.4,236.8 L744.2,236.8 L744.2,239.2 L752.3,239 L752.3,306 L744.2,305.7 L744.2,308 Z M782.5,248.5 C785.4,248.5 786.5,246.8 786.5,243.1 C786.5,239.4 785.4,237.7 782.5,237.7 C779.5,237.7 778.1,239.4 778.1,243.1 C778.1,246.8 779.5,248.5 782.5,248.5 Z M771.7,308 L793.5,308 L793.5,305.9 L786,306 L786,258.4 L771.8,258.4 L771.8,260.7 L779.6,260.5 L779.6,306 L771.7,305.9 L771.7,308 Z M812.8,308.7 C821.9,308.7 827.7,304.9 827.7,291.3 L827.7,239 L835.6,239.2 L835.6,236.8 L808.7,236.8 L808.7,239.2 L821,239 L821,289.7 C821,303.9 818.3,306.4 812.8,306.4 C806.4,306.4 801.8,303.7 803.3,278.2 L796.9,278.2 C795.5,303.5 802.7,308.7 812.8,308.7 Z M848.7,248.5 C851.6,248.5 852.7,246.8 852.7,243.1 C852.7,239.4 851.6,237.7 848.7,237.7 C845.7,237.7 844.3,239.4 844.3,243.1 C844.3,246.8 845.7,248.5 848.7,248.5 Z M836.3,328.9 L851.9,316.1 L851.9,258.4 L837.9,258.4 L837.9,260.7 L845.6,260.5 L845.6,318.4 L834.7,326.7 L836.3,328.9 Z M882.6,308 L882.6,305.7 L874.6,306 L874.6,271.4 L880.2,271.4 L897.9,305.9 L890.8,305.7 L890.8,308 L912.3,308 L912.3,305.7 L906.6,305.9 L886.3,268.3 L903.5,239.1 L910.5,239.2 L910.5,236.8 L890.3,236.8 L890.3,239.2 L900.3,239 L883.7,267.5 L874.6,267.5 L874.6,239 L882.6,239.2 L882.6,236.8 L860.3,236.8 L860.3,239.2 L867.8,239 L867.8,306 L860.3,305.7 L860.3,308 L882.6,308 Z M933.6,308 L933.6,305.9 L926,306 L926,282.3 L930.2,282.3 L942.9,306.1 L937.4,305.9 L937.4,308 L954.6,308 L954.6,305.9 L949.9,306.1 L935.5,280.3 L945.1,260.6 L951.3,260.7 L951.3,258.4 L932.5,258.4 L932.5,260.7 L942.3,260.5 L932.8,280.1 L926,280.1 L926,232 L912.9,232 L912.9,234.3 L919.7,234.1 L919.7,306 L913.3,305.9 L913.3,308 L933.6,308 Z M957,308 L997.2,308 L997.2,282.8 L991,282.8 L991.2,305.9 L971.3,305.9 L971.3,239 L981.7,239.2 L981.7,236.8 L957,236.8 L957,239.2 L964.5,239 L964.5,306 L957,305.7 L957,308 Z M1000.5,308 L1022.1,308 L1022.1,305.9 L1014.1,306 L1014.1,232 L1000,232 L1000,234.3 L1007.7,234.1 L1007.7,306 L1000.5,305.9 L1000.5,308 Z" id="AaBbCcDdEeFfGgHhIiJjKkLl"></path>
            <path d="M34.6,157.9 L19.1,157.9 L26.9,129 L34.6,157.9 Z M22.2,191 L22.2,187.2 L11.1,187.5 L18.1,161.6 L35.5,161.6 L42.4,187.5 L32.1,187.2 L32.1,191 L61.9,191 L61.9,187.2 L55.5,187.4 L36.9,119.1 L25.7,119.1 L6.9,187.5 L0.9,187.2 L0.9,191 L22.2,191 Z M106.9,191 L106.9,187.6 C102.9,188.7 100.7,187.8 100.7,183.8 L100.7,154.1 C100.7,144.8 96.6,139.8 85.1,139.8 C72.8,139.8 67,144.8 67.1,157.6 L77.5,157.6 C77.4,145.8 78.8,143.2 83.7,143.2 C88,143.2 89.6,145.8 89.6,152.5 L89.6,155.2 C89.6,171.7 64.1,160.2 64.1,179.4 C64.1,189 70.4,191.7 76.3,191.7 C82.8,191.7 87.1,189.3 90.8,185.5 C92.5,191.9 99.2,192.7 106.9,191 Z M81.8,187.1 C77.6,187.1 75.3,184.7 75.3,177.9 C75.3,167.2 84.3,169.8 89.7,164 L89.7,176.7 C89.7,183.9 86.5,187.1 81.8,187.1 Z M130,149.8 L130,123.3 L135.4,123.3 C141.9,123.3 144,126.5 144,137.3 C144,147 141.9,149.8 135.4,149.8 L130,149.8 Z M130,187.7 L130,153.4 L136.2,153.4 C145.5,153.4 148.5,157.4 148.5,170.5 C148.5,183.6 145.8,187.7 136.9,187.7 L130,187.7 Z M109.8,191 L139.5,191 C153.9,191 161.5,187.3 161.5,170.5 C161.5,155.6 154.4,151.4 141.6,151.1 C150.6,150.5 156.3,147 156.3,135.8 C156.3,123.2 149.9,119.8 137.8,119.8 L109.8,119.8 L109.8,123.8 L117.2,123.6 L117.2,187.5 L109.8,187.2 L109.8,191 Z M192.8,191.8 C201.6,191.8 209.4,187.7 209.4,165.5 C209.4,144.9 203.5,139.8 195.3,139.8 C189,139.8 184,142 180.1,147 L180.1,115 L162.6,115 L162.6,118.7 L168.9,118.4 L168.9,191 L180.1,191 L179.8,185.6 C182.8,189.6 187.1,191.8 192.8,191.8 Z M189.3,188.1 C182.9,188.1 180,183.8 180,166.3 C180,149.4 183.2,144.6 189.5,144.6 C195.4,144.6 197.7,148.9 197.7,166.3 C197.7,183.8 195.4,188.1 189.3,188.1 Z M264.6,161.2 L257.7,161.2 C258.1,183.9 253.4,187.7 243.6,187.7 C233.7,187.7 228.8,182.8 228.8,155.2 C228.8,127.7 233.1,123 241.4,123 C249.3,123 252.4,129 252.3,146.6 L262.3,146.6 L262.3,119.8 L252.3,119.8 L252.4,125.9 C249.9,121.3 245.3,119 238.1,119 C225.7,119 215.7,125 215.7,155.2 C215.7,183.5 223.5,191.8 241.3,191.8 C257.5,191.8 265.5,184 264.6,161.2 Z M290.3,191.8 C302.5,191.8 308.6,185.1 308.3,170.3 L300.8,170.3 C301.1,184.1 298.1,188.3 292.2,188.3 C285.7,188.3 282.3,186 282.3,165.4 C282.3,146.2 284.3,143.2 289.6,143.2 C294.4,143.2 295.1,146.3 294.7,159.4 L306.3,159.4 C306.7,144.5 300.8,139.8 289.9,139.8 C280.1,139.8 270.7,143.8 270.7,165.7 C270.7,187.2 278.7,191.8 290.3,191.8 Z M332.7,187.3 L332.7,123.7 L341,123.7 C352.1,123.7 356.9,128.1 356.9,155.3 C356.9,182.4 352.1,187.3 341,187.3 L332.7,187.3 Z M312.5,191 L343.2,191 C359.5,191 370,185.9 370,155.3 C370,124.7 359.5,119.8 343.2,119.8 L312.5,119.8 L312.5,123.8 L319.9,123.6 L319.9,187.5 L312.5,187.2 L312.5,191 Z M396.2,186.9 C390.4,186.9 388,182.7 388,165.3 C388,147.9 390.3,143.5 396.4,143.5 C402.7,143.5 405.6,147.9 405.6,165.3 C405.6,182.2 402.4,186.9 396.2,186.9 Z M390.1,191.8 C396.4,191.9 401.4,189.6 405.7,184.5 L405.4,191 L423,191 L423,187.6 L416.7,187.8 L416.7,115 L394.9,115 L394.9,118.7 L405.5,118.5 L405.5,145.5 C402.6,142 398.5,139.8 392.6,139.8 C383.8,139.8 376.2,144.1 376.2,166.1 C376.2,186.7 381.9,191.8 390.1,191.8 Z M475.9,191 L475.9,164.8 L465.8,164.8 L466,187.3 L446.2,187.3 L446.2,155.2 L461.6,155.2 L461.6,151 L446.2,151 L446.2,123.7 L462.5,123.7 L462.2,142.4 L472.5,142.4 L472.5,119.8 L426,119.8 L426,123.8 L433.4,123.6 L433.4,187.5 L426,187.2 L426,191 L475.9,191 Z M500.6,143.2 C506.2,143.2 507,148.3 506.6,160.3 L493.4,160.3 C493.7,145.5 496,143.2 500.6,143.2 Z M519.6,172.3 L512.4,172.3 C512.4,184.1 509.9,188.4 503.3,188.4 C496.5,188.4 493.3,185.2 493.3,165.4 L493.3,163.8 L518.2,163.8 C519.1,144.6 513,139.8 500.9,139.8 C491.3,139.8 481.6,143.5 481.6,165.8 C481.6,187.1 489.4,191.8 501.7,191.8 C513.5,191.8 519.6,185.8 519.6,172.3 Z M556.6,191 L556.6,187.2 L544.4,187.5 L544.4,157.1 L560.5,157.1 L560.5,153 L544.4,153 L544.4,123.7 L559.7,123.7 L559.5,142.4 L569.6,142.4 L569.6,119.8 L524.2,119.8 L524.2,123.8 L531.6,123.6 L531.6,187.5 L524.2,187.2 L524.2,191 L556.6,191 Z M573.3,191 L601.5,191 L601.5,187.6 L590.8,187.8 L590.8,144.1 L601.5,144.2 L601.5,140.6 L590.1,140.6 C588.5,137.3 587.6,133 587.6,127.9 C587.6,119.1 589,117.5 592.6,117.5 C596.1,117.5 597.3,119.5 597.3,128.2 L607.1,128.2 C607.3,115.7 600.9,114.2 593.2,114.2 C585.1,114.2 579.6,117.7 579.6,129.5 L579.6,140.6 L573.3,140.6 L573.3,144.2 L579.6,144.1 L579.6,187.8 L573.3,187.6 L573.3,191 Z M645.1,191 L655.4,191 L655.4,163.9 L661.2,164.2 L661.2,160 L631.1,160 L631.1,164.2 L644.8,163.9 L644.8,166.1 C644.8,183.3 641.9,187.8 633.6,187.8 C624.5,187.8 619.6,183.4 619.6,155.4 C619.6,127.8 624,123 632.5,123 C640.4,123 644.2,129.1 644.4,145.8 L654.4,145.8 L654.4,119.8 L643.7,119.8 L644,125.3 C640.7,121 635.6,119 629.5,119 C616.5,119 606.5,124.9 606.5,155.5 C606.5,183.7 614.8,191.8 630.2,191.8 C637.3,191.8 641.9,189.3 645,185.5 L645.1,191 Z M682.8,167.7 C678.3,167.7 676.6,165.1 676.6,155.2 C676.6,145.1 678.3,142.9 682.7,142.9 C686.9,142.9 688.7,145.3 688.7,155.2 C688.7,165.1 686.9,167.7 682.8,167.7 Z M682.9,210.3 C697.7,210.3 706.1,203.2 706.1,190.4 C706.1,182.7 701.8,178.4 692.2,178.9 L678.6,179.6 C673.5,179.8 671.6,178.7 671.6,175.2 C671.6,171.7 673.5,170.4 678.4,170.4 L682.5,170.4 C691.9,170.4 698.8,166.7 698.8,155 C698.8,149.9 697.5,146.4 695.3,144.1 L705.6,144.3 L705.6,140.6 L693.9,140.6 L693.4,142.4 C690.6,140.5 686.8,139.8 682.6,139.8 C673.5,139.8 666.5,143.1 666.5,155.1 C666.5,162.5 669.2,166.6 673.4,168.7 C667.8,169.9 664.8,173.4 664.8,178.7 C664.8,186.4 669.9,189.8 677.7,189.4 L690.4,188.7 C695.4,188.5 696.9,189.9 696.9,194.3 C696.9,201.6 693.3,207.3 683.8,207.3 C673.9,207.3 672.4,202.6 672.4,192.1 L661.6,192.1 C661.6,204.8 667.3,210.3 682.9,210.3 Z M737.4,191 L737.4,187.2 L729.4,187.5 L729.4,153.4 L753.8,153.4 L753.8,187.5 L745.7,187.2 L745.7,191 L774,191 L774,187.2 L766.6,187.5 L766.6,123.6 L774,123.8 L774,119.8 L745.7,119.8 L745.7,123.8 L753.8,123.6 L753.8,149.6 L729.4,149.6 L729.4,123.6 L737.4,123.8 L737.4,119.8 L709.2,119.8 L709.2,123.8 L716.6,123.6 L716.6,187.5 L709.2,187.2 L709.2,191 L737.4,191 Z M777.5,191 L799.6,191 L799.6,187.7 L794.2,187.8 L794.2,157.8 C794.2,149.9 797.3,145 803.1,145 C808.2,145 809.5,147.9 809.5,157.2 L809.5,187.8 L803.9,187.6 L803.9,191 L826.7,191 L826.7,187.6 L820.7,187.8 L820.7,154.1 C820.7,145 818.1,139.8 809.6,139.8 C803.6,139.8 798.4,142 794.2,147 L794.2,115 L776.5,115 L776.5,118.7 L783,118.4 L783,187.8 L777.5,187.6 L777.5,191 Z M829.9,191 L859.1,191 L859.1,187.2 L850.9,187.5 L850.9,123.6 L859.1,123.8 L859.1,119.8 L829.9,119.8 L829.9,123.8 L838.1,123.6 L838.1,187.5 L829.9,187.2 L829.9,191 Z M875.5,132.1 C879.8,132.1 881.6,129.9 881.6,125.2 C881.6,120.5 879.8,118.3 875.5,118.3 C871,118.3 869,120.5 869,125.2 C869,129.9 871,132.1 875.5,132.1 Z M862.8,191 L888.1,191 L888.1,187.6 L881.2,187.8 L881.2,140.6 L863,140.6 L863,144.3 L870,144 L870,187.8 L862.8,187.6 L862.8,191 Z M909.5,191.8 C921.1,191.8 928.4,186.4 928.4,172.3 L928.4,123.6 L935.8,123.8 L935.8,119.8 L903.3,119.8 L903.3,123.8 L915.6,123.6 L915.6,171.3 C915.6,184.9 913.5,187.6 909,187.6 C903.6,187.6 900.1,184.7 901.2,161.2 L890.8,161.2 C889.5,185.5 896,191.8 909.5,191.8 Z M950.4,132.1 C954.7,132.1 956.5,129.9 956.5,125.2 C956.5,120.5 954.7,118.3 950.4,118.3 C945.9,118.3 943.9,120.5 943.9,125.2 C943.9,129.9 945.9,132.1 950.4,132.1 Z M936,212.7 L955.8,197.7 L955.8,140.6 L937.8,140.6 L937.8,144.3 L944.6,144 L944.6,200.9 L933.4,208.4 L936,212.7 Z M990.2,191 L990.2,187.2 L983,187.5 L983,155.1 L986.9,155.1 L1002.2,187.4 L996.1,187.2 L996.1,191 L1022.2,191 L1022.2,187.2 L1017.3,187.4 L997.8,148.1 L1013.1,123.6 L1020.4,123.8 L1020.4,119.8 L998,119.8 L998,123.8 L1008,123.6 L991.7,149.7 L983,149.7 L983,123.6 L990.3,123.8 L990.3,119.8 L962.8,119.8 L962.8,123.8 L970.2,123.6 L970.2,187.5 L962.8,187.2 L962.8,191 L990.2,191 Z" id="AaBbCcDdEeFfGgHhIiJjK"></path>
            <path d="M34.6,389.9 L19.1,389.9 L26.9,361 L34.6,389.9 Z M22.2,423 L22.2,419.2 L11.1,419.5 L18.1,393.6 L35.5,393.6 L42.4,419.5 L32.1,419.2 L32.1,423 L61.9,423 L61.9,419.2 L55.5,419.4 L36.9,351.1 L25.7,351.1 L6.9,419.5 L0.9,419.2 L0.9,423 L22.2,423 Z M106.9,423 L106.9,419.6 C102.9,420.7 100.7,419.8 100.7,415.8 L100.7,386.1 C100.7,376.8 96.6,371.8 85.1,371.8 C72.8,371.8 67,376.8 67.1,389.6 L77.5,389.6 C77.4,377.8 78.8,375.2 83.7,375.2 C88,375.2 89.6,377.8 89.6,384.5 L89.6,387.2 C89.6,403.7 64.1,392.2 64.1,411.4 C64.1,421 70.4,423.7 76.3,423.7 C82.8,423.7 87.1,421.3 90.8,417.5 C92.5,423.9 99.2,424.7 106.9,423 Z M81.8,419.1 C77.6,419.1 75.3,416.7 75.3,409.9 C75.3,399.2 84.3,401.8 89.7,396 L89.7,408.7 C89.7,415.9 86.5,419.1 81.8,419.1 Z M130,381.8 L130,355.3 L135.4,355.3 C141.9,355.3 144,358.5 144,369.3 C144,379 141.9,381.8 135.4,381.8 L130,381.8 Z M130,419.7 L130,385.4 L136.2,385.4 C145.5,385.4 148.5,389.4 148.5,402.5 C148.5,415.6 145.8,419.7 136.9,419.7 L130,419.7 Z M109.8,423 L139.5,423 C153.9,423 161.5,419.3 161.5,402.5 C161.5,387.6 154.4,383.4 141.6,383.1 C150.6,382.5 156.3,379 156.3,367.8 C156.3,355.2 149.9,351.8 137.8,351.8 L109.8,351.8 L109.8,355.8 L117.2,355.6 L117.2,419.5 L109.8,419.2 L109.8,423 Z M192.8,423.8 C201.6,423.8 209.4,419.7 209.4,397.5 C209.4,376.9 203.5,371.8 195.3,371.8 C189,371.8 184,374 180.1,379 L180.1,347 L162.6,347 L162.6,350.7 L168.9,350.4 L168.9,423 L180.1,423 L179.8,417.6 C182.8,421.6 187.1,423.8 192.8,423.8 Z M189.3,420.1 C182.9,420.1 180,415.8 180,398.3 C180,381.4 183.2,376.6 189.5,376.6 C195.4,376.6 197.7,380.9 197.7,398.3 C197.7,415.8 195.4,420.1 189.3,420.1 Z M264.6,393.2 L257.7,393.2 C258.1,415.9 253.4,419.7 243.6,419.7 C233.7,419.7 228.8,414.8 228.8,387.2 C228.8,359.7 233.1,355 241.4,355 C249.3,355 252.4,361 252.3,378.6 L262.3,378.6 L262.3,351.8 L252.3,351.8 L252.4,357.9 C249.9,353.3 245.3,351 238.1,351 C225.7,351 215.7,357 215.7,387.2 C215.7,415.5 223.5,423.8 241.3,423.8 C257.5,423.8 265.5,416 264.6,393.2 Z M290.3,423.8 C302.5,423.8 308.6,417.1 308.3,402.3 L300.8,402.3 C301.1,416.1 298.1,420.3 292.2,420.3 C285.7,420.3 282.3,418 282.3,397.4 C282.3,378.2 284.3,375.2 289.6,375.2 C294.4,375.2 295.1,378.3 294.7,391.4 L306.3,391.4 C306.7,376.5 300.8,371.8 289.9,371.8 C280.1,371.8 270.7,375.8 270.7,397.7 C270.7,419.2 278.7,423.8 290.3,423.8 Z M332.7,419.3 L332.7,355.7 L341,355.7 C352.1,355.7 356.9,360.1 356.9,387.3 C356.9,414.4 352.1,419.3 341,419.3 L332.7,419.3 Z M312.5,423 L343.2,423 C359.5,423 370,417.9 370,387.3 C370,356.7 359.5,351.8 343.2,351.8 L312.5,351.8 L312.5,355.8 L319.9,355.6 L319.9,419.5 L312.5,419.2 L312.5,423 Z M396.2,418.9 C390.4,418.9 388,414.7 388,397.3 C388,379.9 390.3,375.5 396.4,375.5 C402.7,375.5 405.6,379.9 405.6,397.3 C405.6,414.2 402.4,418.9 396.2,418.9 Z M390.1,423.8 C396.4,423.9 401.4,421.6 405.7,416.5 L405.4,423 L423,423 L423,419.6 L416.7,419.8 L416.7,347 L394.9,347 L394.9,350.7 L405.5,350.5 L405.5,377.5 C402.6,374 398.5,371.8 392.6,371.8 C383.8,371.8 376.2,376.1 376.2,398.1 C376.2,418.7 381.9,423.8 390.1,423.8 Z M475.9,423 L475.9,396.8 L465.8,396.8 L466,419.3 L446.2,419.3 L446.2,387.2 L461.6,387.2 L461.6,383 L446.2,383 L446.2,355.7 L462.5,355.7 L462.2,374.4 L472.5,374.4 L472.5,351.8 L426,351.8 L426,355.8 L433.4,355.6 L433.4,419.5 L426,419.2 L426,423 L475.9,423 Z M500.6,375.2 C506.2,375.2 507,380.3 506.6,392.3 L493.4,392.3 C493.7,377.5 496,375.2 500.6,375.2 Z M519.6,404.3 L512.4,404.3 C512.4,416.1 509.9,420.4 503.3,420.4 C496.5,420.4 493.3,417.2 493.3,397.4 L493.3,395.8 L518.2,395.8 C519.1,376.6 513,371.8 500.9,371.8 C491.3,371.8 481.6,375.5 481.6,397.8 C481.6,419.1 489.4,423.8 501.7,423.8 C513.5,423.8 519.6,417.8 519.6,404.3 Z M556.6,423 L556.6,419.2 L544.4,419.5 L544.4,389.1 L560.5,389.1 L560.5,385 L544.4,385 L544.4,355.7 L559.7,355.7 L559.5,374.4 L569.6,374.4 L569.6,351.8 L524.2,351.8 L524.2,355.8 L531.6,355.6 L531.6,419.5 L524.2,419.2 L524.2,423 L556.6,423 Z M573.3,423 L601.5,423 L601.5,419.6 L590.8,419.8 L590.8,376.1 L601.5,376.2 L601.5,372.6 L590.1,372.6 C588.5,369.3 587.6,365 587.6,359.9 C587.6,351.1 589,349.5 592.6,349.5 C596.1,349.5 597.3,351.5 597.3,360.2 L607.1,360.2 C607.3,347.7 600.9,346.2 593.2,346.2 C585.1,346.2 579.6,349.7 579.6,361.5 L579.6,372.6 L573.3,372.6 L573.3,376.2 L579.6,376.1 L579.6,419.8 L573.3,419.6 L573.3,423 Z M645.1,423 L655.4,423 L655.4,395.9 L661.2,396.2 L661.2,392 L631.1,392 L631.1,396.2 L644.8,395.9 L644.8,398.1 C644.8,415.3 641.9,419.8 633.6,419.8 C624.5,419.8 619.6,415.4 619.6,387.4 C619.6,359.8 624,355 632.5,355 C640.4,355 644.2,361.1 644.4,377.8 L654.4,377.8 L654.4,351.8 L643.7,351.8 L644,357.3 C640.7,353 635.6,351 629.5,351 C616.5,351 606.5,356.9 606.5,387.5 C606.5,415.7 614.8,423.8 630.2,423.8 C637.3,423.8 641.9,421.3 645,417.5 L645.1,423 Z M682.8,399.7 C678.3,399.7 676.6,397.1 676.6,387.2 C676.6,377.1 678.3,374.9 682.7,374.9 C686.9,374.9 688.7,377.3 688.7,387.2 C688.7,397.1 686.9,399.7 682.8,399.7 Z M682.9,442.3 C697.7,442.3 706.1,435.2 706.1,422.4 C706.1,414.7 701.8,410.4 692.2,410.9 L678.6,411.6 C673.5,411.8 671.6,410.7 671.6,407.2 C671.6,403.7 673.5,402.4 678.4,402.4 L682.5,402.4 C691.9,402.4 698.8,398.7 698.8,387 C698.8,381.9 697.5,378.4 695.3,376.1 L705.6,376.3 L705.6,372.6 L693.9,372.6 L693.4,374.4 C690.6,372.5 686.8,371.8 682.6,371.8 C673.5,371.8 666.5,375.1 666.5,387.1 C666.5,394.5 669.2,398.6 673.4,400.7 C667.8,401.9 664.8,405.4 664.8,410.7 C664.8,418.4 669.9,421.8 677.7,421.4 L690.4,420.7 C695.4,420.5 696.9,421.9 696.9,426.3 C696.9,433.6 693.3,439.3 683.8,439.3 C673.9,439.3 672.4,434.6 672.4,424.1 L661.6,424.1 C661.6,436.8 667.3,442.3 682.9,442.3 Z M737.4,423 L737.4,419.2 L729.4,419.5 L729.4,385.4 L753.8,385.4 L753.8,419.5 L745.7,419.2 L745.7,423 L774,423 L774,419.2 L766.6,419.5 L766.6,355.6 L774,355.8 L774,351.8 L745.7,351.8 L745.7,355.8 L753.8,355.6 L753.8,381.6 L729.4,381.6 L729.4,355.6 L737.4,355.8 L737.4,351.8 L709.2,351.8 L709.2,355.8 L716.6,355.6 L716.6,419.5 L709.2,419.2 L709.2,423 L737.4,423 Z M777.5,423 L799.6,423 L799.6,419.7 L794.2,419.8 L794.2,389.8 C794.2,381.9 797.3,377 803.1,377 C808.2,377 809.5,379.9 809.5,389.2 L809.5,419.8 L803.9,419.6 L803.9,423 L826.7,423 L826.7,419.6 L820.7,419.8 L820.7,386.1 C820.7,377 818.1,371.8 809.6,371.8 C803.6,371.8 798.4,374 794.2,379 L794.2,347 L776.5,347 L776.5,350.7 L783,350.4 L783,419.8 L777.5,419.6 L777.5,423 Z M829.9,423 L859.1,423 L859.1,419.2 L850.9,419.5 L850.9,355.6 L859.1,355.8 L859.1,351.8 L829.9,351.8 L829.9,355.8 L838.1,355.6 L838.1,419.5 L829.9,419.2 L829.9,423 Z M875.5,364.1 C879.8,364.1 881.6,361.9 881.6,357.2 C881.6,352.5 879.8,350.3 875.5,350.3 C871,350.3 869,352.5 869,357.2 C869,361.9 871,364.1 875.5,364.1 Z M862.8,423 L888.1,423 L888.1,419.6 L881.2,419.8 L881.2,372.6 L863,372.6 L863,376.3 L870,376 L870,419.8 L862.8,419.6 L862.8,423 Z M909.5,423.8 C921.1,423.8 928.4,418.4 928.4,404.3 L928.4,355.6 L935.8,355.8 L935.8,351.8 L903.3,351.8 L903.3,355.8 L915.6,355.6 L915.6,403.3 C915.6,416.9 913.5,419.6 909,419.6 C903.6,419.6 900.1,416.7 901.2,393.2 L890.8,393.2 C889.5,417.5 896,423.8 909.5,423.8 Z M950.4,364.1 C954.7,364.1 956.5,361.9 956.5,357.2 C956.5,352.5 954.7,350.3 950.4,350.3 C945.9,350.3 943.9,352.5 943.9,357.2 C943.9,361.9 945.9,364.1 950.4,364.1 Z M936,444.7 L955.8,429.7 L955.8,372.6 L937.8,372.6 L937.8,376.3 L944.6,376 L944.6,432.9 L933.4,440.4 L936,444.7 Z M990.2,423 L990.2,419.2 L983,419.5 L983,387.1 L986.9,387.1 L1002.2,419.4 L996.1,419.2 L996.1,423 L1022.2,423 L1022.2,419.2 L1017.3,419.4 L997.8,380.1 L1013.1,355.6 L1020.4,355.8 L1020.4,351.8 L998,351.8 L998,355.8 L1008,355.6 L991.7,381.7 L983,381.7 L983,355.6 L990.3,355.8 L990.3,351.8 L962.8,351.8 L962.8,355.8 L970.2,355.6 L970.2,419.5 L962.8,419.2 L962.8,423 L990.2,423 Z" id="AaBbCcDdEeFfGgHhIiJjK"></path>
        </g>
    </g>
</svg>