<svg width="1504" height="816" viewBox="0 0 1504 816" fill="none" xmlns="http://www.w3.org/2000/svg">
<rect width="1504" height="816" fill="#F9F5F2"/>
<path d="M558.988 470.84C529.732 470.84 510.964 456.856 510.964 433.488C510.964 417.112 520.348 404.968 537.092 401.288V400.92C524.396 397.24 516.484 386.568 516.484 372.216C516.484 352.16 531.94 338.36 558.988 338.36C586.036 338.36 601.492 352.16 601.492 372.216C601.492 386.568 593.58 397.24 580.884 400.92V401.288C597.628 404.968 607.012 417.112 607.012 433.488C607.012 456.856 588.244 470.84 558.988 470.84ZM532.676 431.648C532.676 444.528 542.428 452.44 558.988 452.44C575.548 452.44 585.3 444.528 585.3 431.648C585.3 419.32 576.284 411.224 558.988 411.224C541.692 411.224 532.676 419.32 532.676 431.648ZM536.356 374.976C536.356 385.648 544.084 393.56 558.988 393.56C573.892 393.56 581.62 385.648 581.62 374.976C581.62 363.752 573.156 356.576 558.988 356.576C544.82 356.576 536.356 363.752 536.356 374.976ZM674.78 470.84C644.052 470.84 625.652 451.52 625.652 418.584V390.616C625.652 357.68 644.052 338.36 674.78 338.36C705.692 338.36 723.908 357.68 723.908 390.616V418.584C723.908 451.52 705.692 470.84 674.78 470.84ZM646.628 418.952C646.628 439.56 656.38 451.52 674.78 451.52C693.364 451.52 702.932 439.56 702.932 418.952V390.248C702.932 369.64 693.364 357.68 674.78 357.68C656.38 357.68 646.628 369.64 646.628 390.248V418.952ZM747.904 469.368L851.68 340.2H872.288L768.512 469.368H747.904ZM740.728 370.56C740.728 351.424 753.792 338.544 773.296 338.544C792.984 338.544 805.864 351.424 805.864 370.56C805.864 389.696 792.984 402.576 773.296 402.576C753.792 402.576 740.728 389.696 740.728 370.56ZM757.472 370.56C757.472 380.68 763.544 387.304 773.296 387.304C783.048 387.304 789.304 380.68 789.304 370.56C789.304 360.44 783.048 353.816 773.296 353.816C763.544 353.816 757.472 360.44 757.472 370.56ZM814.144 438.64C814.144 419.504 827.208 406.624 846.712 406.624C866.4 406.624 879.28 419.504 879.28 438.64C879.28 457.776 866.4 470.656 846.712 470.656C827.208 470.656 814.144 457.776 814.144 438.64ZM830.888 438.64C830.888 448.76 836.96 455.384 846.712 455.384C856.464 455.384 862.72 448.76 862.72 438.64C862.72 428.52 856.464 421.896 846.712 421.896C837.144 421.896 830.888 428.52 830.888 438.64ZM934.354 455.2V420.424H900.866V403.68H934.354V369.088H952.018V403.68H985.506V420.424H952.018V455.2H934.354Z" fill="black"/>
</svg>
