<svg width="1504" height="947" viewBox="0 0 1504 947" fill="none" xmlns="http://www.w3.org/2000/svg">
<path d="M465.565 448.999H236.752V500.801H465.565V448.999Z" fill="#2C2233"/>
<path d="M329.429 483.103C329.279 483.103 329.152 483.051 329.047 482.947C328.942 482.842 328.89 482.715 328.89 482.566V467.983C328.89 467.819 328.942 467.685 329.047 467.58C329.152 467.476 329.279 467.423 329.429 467.423H331.161C331.371 467.423 331.521 467.476 331.611 467.58C331.716 467.67 331.783 467.737 331.813 467.782L338.289 477.817V467.983C338.289 467.819 338.334 467.685 338.424 467.58C338.529 467.476 338.664 467.423 338.829 467.423H340.718C340.883 467.423 341.018 467.476 341.123 467.58C341.228 467.685 341.28 467.819 341.28 467.983V482.543C341.28 482.708 341.228 482.842 341.123 482.947C341.018 483.051 340.89 483.103 340.74 483.103H338.986C338.777 483.103 338.627 483.051 338.537 482.947C338.447 482.842 338.379 482.775 338.334 482.745L331.88 472.934V482.566C331.88 482.715 331.828 482.842 331.723 482.947C331.618 483.051 331.483 483.103 331.318 483.103H329.429ZM349.556 483.327C347.892 483.327 346.573 482.85 345.598 481.894C344.624 480.938 344.099 479.579 344.024 477.817C344.009 477.668 344.002 477.481 344.002 477.257C344.002 477.018 344.009 476.831 344.024 476.697C344.084 475.577 344.339 474.606 344.789 473.785C345.253 472.964 345.891 472.337 346.7 471.903C347.51 471.455 348.462 471.231 349.556 471.231C350.77 471.231 351.79 471.485 352.614 471.993C353.439 472.486 354.061 473.18 354.481 474.076C354.9 474.957 355.11 475.98 355.11 477.145V477.615C355.11 477.765 355.058 477.892 354.953 477.996C354.848 478.101 354.713 478.153 354.548 478.153H347.082C347.082 478.153 347.082 478.175 347.082 478.22C347.082 478.265 347.082 478.302 347.082 478.332C347.097 478.855 347.195 479.34 347.375 479.788C347.57 480.221 347.847 480.572 348.207 480.841C348.582 481.11 349.024 481.244 349.533 481.244C349.953 481.244 350.305 481.185 350.59 481.065C350.875 480.931 351.108 480.781 351.287 480.617C351.467 480.453 351.595 480.318 351.67 480.214C351.805 480.035 351.91 479.93 351.985 479.9C352.075 479.855 352.202 479.833 352.367 479.833H354.301C354.451 479.833 354.571 479.878 354.661 479.967C354.766 480.057 354.81 480.169 354.795 480.303C354.78 480.542 354.653 480.834 354.413 481.177C354.188 481.521 353.858 481.857 353.424 482.185C352.989 482.514 352.442 482.79 351.782 483.014C351.138 483.223 350.395 483.327 349.556 483.327ZM347.082 476.271H352.052V476.204C352.052 475.622 351.955 475.114 351.76 474.681C351.565 474.248 351.28 473.905 350.905 473.651C350.53 473.397 350.081 473.27 349.556 473.27C349.031 473.27 348.582 473.397 348.207 473.651C347.832 473.905 347.547 474.248 347.352 474.681C347.172 475.114 347.082 475.622 347.082 476.204V476.271ZM360.361 483.103C360.151 483.103 359.994 483.051 359.889 482.947C359.784 482.842 359.694 482.708 359.619 482.543L356.403 472.15C356.388 472.075 356.381 472.008 356.381 471.948C356.381 471.814 356.426 471.702 356.516 471.612C356.621 471.508 356.733 471.455 356.853 471.455H358.517C358.697 471.455 358.839 471.508 358.944 471.612C359.049 471.702 359.109 471.791 359.124 471.881L361.328 479.295L363.667 471.948C363.697 471.844 363.764 471.739 363.869 471.635C363.974 471.515 364.131 471.455 364.341 471.455H365.466C365.675 471.455 365.833 471.515 365.938 471.635C366.043 471.739 366.11 471.844 366.14 471.948L368.479 479.295L370.683 471.881C370.698 471.791 370.75 471.702 370.84 471.612C370.945 471.508 371.087 471.455 371.267 471.455H372.931C373.066 471.455 373.179 471.508 373.269 471.612C373.374 471.702 373.426 471.814 373.426 471.948C373.426 472.008 373.411 472.075 373.381 472.15L370.165 482.543C370.12 482.708 370.038 482.842 369.918 482.947C369.813 483.051 369.656 483.103 369.446 483.103H367.984C367.774 483.103 367.609 483.051 367.489 482.947C367.37 482.842 367.287 482.708 367.242 482.543L364.903 475.465L362.565 482.543C362.505 482.708 362.415 482.842 362.295 482.947C362.19 483.051 362.025 483.103 361.8 483.103H360.361Z" fill="white"/>
<path d="M1267.19 448.999H1038.38V500.801H1267.19V448.999Z" fill="#2C2233"/>
<path d="M1105.67 484.139C1105.55 484.139 1105.44 484.095 1105.34 484.005C1105.25 483.915 1105.2 483.803 1105.2 483.669C1105.2 483.609 1105.22 483.542 1105.25 483.467L1110.67 469.019C1110.71 468.87 1110.79 468.743 1110.91 468.639C1111.05 468.519 1111.23 468.459 1111.45 468.459H1113.9C1114.13 468.459 1114.3 468.519 1114.42 468.639C1114.54 468.743 1114.63 468.87 1114.69 469.019L1120.11 483.467C1120.12 483.542 1120.13 483.609 1120.13 483.669C1120.13 483.803 1120.09 483.915 1120 484.005C1119.91 484.095 1119.8 484.139 1119.68 484.139H1117.73C1117.52 484.139 1117.36 484.095 1117.25 484.005C1117.16 483.9 1117.1 483.803 1117.07 483.714L1116.02 480.981H1109.34L1108.28 483.714C1108.25 483.803 1108.18 483.9 1108.08 484.005C1107.99 484.095 1107.84 484.139 1107.63 484.139H1105.67ZM1110.13 478.405H1115.23L1112.67 471.483L1110.13 478.405ZM1122.5 484.139C1122.35 484.139 1122.22 484.087 1122.12 483.983C1122.01 483.878 1121.96 483.751 1121.96 483.602V473.051C1121.96 472.887 1122.01 472.753 1122.12 472.648C1122.22 472.544 1122.35 472.491 1122.5 472.491H1124.32C1124.47 472.491 1124.6 472.544 1124.7 472.648C1124.83 472.753 1124.88 472.887 1124.88 473.051V473.97C1125.23 473.492 1125.67 473.126 1126.21 472.872C1126.77 472.618 1127.4 472.491 1128.12 472.491H1129.04C1129.21 472.491 1129.34 472.544 1129.43 472.648C1129.53 472.753 1129.58 472.88 1129.58 473.029V474.642C1129.58 474.791 1129.53 474.918 1129.43 475.023C1129.34 475.127 1129.21 475.179 1129.04 475.179H1127.29C1126.57 475.179 1126.01 475.381 1125.6 475.784C1125.21 476.187 1125.02 476.74 1125.02 477.442V483.602C1125.02 483.751 1124.97 483.878 1124.86 483.983C1124.76 484.087 1124.62 484.139 1124.46 484.139H1122.5ZM1136.24 484.363C1135.17 484.363 1134.21 484.162 1133.39 483.759C1132.58 483.355 1131.94 482.773 1131.48 482.011C1131.03 481.235 1130.78 480.302 1130.74 479.211C1130.72 478.987 1130.71 478.696 1130.71 478.338C1130.71 477.964 1130.72 477.658 1130.74 477.419C1130.78 476.329 1131.03 475.403 1131.48 474.642C1131.94 473.865 1132.58 473.275 1133.39 472.872C1134.21 472.469 1135.17 472.267 1136.24 472.267C1137.2 472.267 1138.02 472.402 1138.7 472.671C1139.37 472.939 1139.92 473.275 1140.36 473.679C1140.79 474.082 1141.12 474.507 1141.33 474.955C1141.55 475.388 1141.67 475.784 1141.69 476.143C1141.7 476.307 1141.65 476.441 1141.53 476.546C1141.42 476.635 1141.3 476.68 1141.15 476.68H1139.17C1139.02 476.68 1138.9 476.643 1138.81 476.568C1138.73 476.494 1138.66 476.382 1138.58 476.232C1138.36 475.635 1138.06 475.217 1137.68 474.978C1137.32 474.724 1136.86 474.597 1136.29 474.597C1135.54 474.597 1134.94 474.836 1134.49 475.314C1134.05 475.777 1133.82 476.516 1133.79 477.531C1133.76 478.099 1133.76 478.622 1133.79 479.099C1133.82 480.13 1134.05 480.876 1134.49 481.339C1134.94 481.802 1135.54 482.034 1136.29 482.034C1136.87 482.034 1137.35 481.914 1137.71 481.675C1138.07 481.422 1138.36 480.996 1138.58 480.399C1138.66 480.249 1138.73 480.137 1138.81 480.063C1138.9 479.988 1139.02 479.951 1139.17 479.951H1141.15C1141.3 479.951 1141.42 480.003 1141.53 480.107C1141.65 480.197 1141.7 480.324 1141.69 480.488C1141.67 480.757 1141.6 481.063 1141.46 481.407C1141.34 481.735 1141.14 482.079 1140.85 482.437C1140.58 482.78 1140.24 483.102 1139.82 483.4C1139.4 483.684 1138.89 483.915 1138.29 484.095C1137.71 484.274 1137.02 484.363 1136.24 484.363ZM1144.59 484.139C1144.44 484.139 1144.32 484.087 1144.21 483.983C1144.11 483.878 1144.05 483.751 1144.05 483.602V468.773C1144.05 468.624 1144.11 468.497 1144.21 468.392C1144.32 468.288 1144.44 468.235 1144.59 468.235H1146.59C1146.76 468.235 1146.89 468.288 1146.98 468.392C1147.08 468.497 1147.13 468.624 1147.13 468.773V473.88C1147.54 473.402 1148.03 473.014 1148.62 472.715C1149.2 472.417 1149.92 472.267 1150.78 472.267C1151.69 472.267 1152.49 472.476 1153.16 472.895C1153.85 473.298 1154.38 473.873 1154.76 474.619C1155.13 475.366 1155.32 476.262 1155.32 477.307V483.602C1155.32 483.751 1155.27 483.878 1155.16 483.983C1155.06 484.087 1154.93 484.139 1154.78 484.139H1152.76C1152.61 484.139 1152.48 484.087 1152.37 483.983C1152.27 483.878 1152.22 483.751 1152.22 483.602V477.442C1152.22 476.576 1152 475.896 1151.56 475.403C1151.15 474.911 1150.53 474.664 1149.72 474.664C1148.94 474.664 1148.31 474.911 1147.83 475.403C1147.37 475.896 1147.13 476.576 1147.13 477.442V483.602C1147.13 483.751 1147.08 483.878 1146.98 483.983C1146.89 484.087 1146.76 484.139 1146.59 484.139H1144.59ZM1158.71 484.139C1158.56 484.139 1158.44 484.087 1158.33 483.983C1158.23 483.878 1158.17 483.751 1158.17 483.602V473.029C1158.17 472.88 1158.23 472.753 1158.33 472.648C1158.44 472.544 1158.56 472.491 1158.71 472.491H1160.58C1160.74 472.491 1160.87 472.544 1160.96 472.648C1161.07 472.753 1161.12 472.88 1161.12 473.029V483.602C1161.12 483.751 1161.07 483.878 1160.96 483.983C1160.87 484.087 1160.74 484.139 1160.58 484.139H1158.71ZM1158.62 470.565C1158.46 470.565 1158.32 470.52 1158.22 470.431C1158.13 470.326 1158.08 470.192 1158.08 470.027V468.415C1158.08 468.265 1158.13 468.138 1158.22 468.034C1158.32 467.929 1158.46 467.877 1158.62 467.877H1160.67C1160.83 467.877 1160.97 467.929 1161.07 468.034C1161.18 468.138 1161.23 468.265 1161.23 468.415V470.027C1161.23 470.192 1161.18 470.326 1161.07 470.431C1160.97 470.52 1160.83 470.565 1160.67 470.565H1158.62ZM1168.24 484.139C1168 484.139 1167.82 484.087 1167.7 483.983C1167.6 483.863 1167.51 483.729 1167.43 483.579L1163.23 473.186C1163.2 473.111 1163.18 473.044 1163.18 472.984C1163.18 472.85 1163.23 472.738 1163.32 472.648C1163.42 472.544 1163.54 472.491 1163.68 472.491H1165.5C1165.68 472.491 1165.81 472.544 1165.9 472.648C1165.99 472.738 1166.05 472.827 1166.08 472.917L1169.07 480.779L1172.06 472.917C1172.09 472.827 1172.15 472.738 1172.24 472.648C1172.33 472.544 1172.47 472.491 1172.65 472.491H1174.49C1174.61 472.491 1174.72 472.544 1174.81 472.648C1174.91 472.738 1174.96 472.85 1174.96 472.984C1174.96 473.044 1174.96 473.111 1174.94 473.186L1170.71 483.579C1170.65 483.729 1170.56 483.863 1170.44 483.983C1170.32 484.087 1170.14 484.139 1169.9 484.139H1168.24ZM1181.63 484.363C1179.97 484.363 1178.65 483.886 1177.68 482.93C1176.7 481.974 1176.18 480.615 1176.1 478.853C1176.09 478.704 1176.08 478.517 1176.08 478.293C1176.08 478.054 1176.09 477.867 1176.1 477.733C1176.16 476.613 1176.42 475.642 1176.87 474.821C1177.33 474 1177.97 473.372 1178.78 472.939C1179.59 472.491 1180.54 472.267 1181.63 472.267C1182.85 472.267 1183.87 472.521 1184.69 473.029C1185.52 473.522 1186.14 474.216 1186.56 475.112C1186.98 475.993 1187.19 477.016 1187.19 478.181V478.651C1187.19 478.801 1187.14 478.928 1187.03 479.032C1186.93 479.137 1186.79 479.189 1186.63 479.189H1179.16C1179.16 479.189 1179.16 479.211 1179.16 479.256C1179.16 479.301 1179.16 479.338 1179.16 479.368C1179.18 479.891 1179.27 480.376 1179.45 480.824C1179.65 481.257 1179.93 481.608 1180.29 481.877C1180.66 482.146 1181.1 482.28 1181.61 482.28C1182.03 482.28 1182.39 482.22 1182.67 482.101C1182.95 481.967 1183.19 481.817 1183.37 481.653C1183.55 481.489 1183.67 481.354 1183.75 481.25C1183.88 481.071 1183.99 480.966 1184.06 480.936C1184.15 480.891 1184.28 480.869 1184.45 480.869H1186.38C1186.53 480.869 1186.65 480.914 1186.74 481.003C1186.84 481.093 1186.89 481.205 1186.87 481.339C1186.86 481.578 1186.73 481.87 1186.49 482.213C1186.27 482.556 1185.94 482.892 1185.5 483.221C1185.07 483.55 1184.52 483.826 1183.86 484.05C1183.22 484.259 1182.48 484.363 1181.63 484.363ZM1179.16 477.307H1184.13V477.24C1184.13 476.658 1184.03 476.15 1183.84 475.717C1183.64 475.284 1183.36 474.94 1182.98 474.687C1182.61 474.433 1182.16 474.306 1181.63 474.306C1181.11 474.306 1180.66 474.433 1180.29 474.687C1179.91 474.94 1179.63 475.284 1179.43 475.717C1179.25 476.15 1179.16 476.658 1179.16 477.24V477.307ZM1193.92 484.363C1193.14 484.363 1192.45 484.236 1191.85 483.983C1191.26 483.714 1190.78 483.34 1190.39 482.863C1190 482.385 1189.7 481.825 1189.49 481.183C1189.28 480.526 1189.16 479.809 1189.13 479.032C1189.11 478.763 1189.1 478.524 1189.1 478.315C1189.1 478.091 1189.11 477.845 1189.13 477.576C1189.16 476.83 1189.27 476.135 1189.46 475.493C1189.67 474.851 1189.97 474.291 1190.36 473.813C1190.77 473.32 1191.26 472.939 1191.85 472.671C1192.45 472.402 1193.14 472.267 1193.92 472.267C1194.73 472.267 1195.41 472.409 1195.96 472.693C1196.53 472.962 1197 473.313 1197.38 473.746V468.773C1197.38 468.624 1197.42 468.497 1197.51 468.392C1197.62 468.288 1197.75 468.235 1197.92 468.235H1199.83C1199.98 468.235 1200.11 468.288 1200.21 468.392C1200.32 468.497 1200.37 468.624 1200.37 468.773V483.602C1200.37 483.751 1200.32 483.878 1200.21 483.983C1200.11 484.087 1199.98 484.139 1199.83 484.139H1198.05C1197.89 484.139 1197.75 484.087 1197.65 483.983C1197.56 483.878 1197.51 483.751 1197.51 483.602V482.773C1197.14 483.236 1196.66 483.617 1196.08 483.915C1195.51 484.214 1194.79 484.363 1193.92 484.363ZM1194.75 481.967C1195.38 481.967 1195.88 481.825 1196.26 481.541C1196.63 481.257 1196.91 480.899 1197.09 480.466C1197.27 480.018 1197.36 479.562 1197.38 479.099C1197.39 478.831 1197.4 478.547 1197.4 478.248C1197.4 477.935 1197.39 477.643 1197.38 477.375C1197.36 476.927 1197.26 476.501 1197.07 476.098C1196.87 475.68 1196.58 475.336 1196.21 475.067C1195.84 474.799 1195.35 474.664 1194.75 474.664C1194.12 474.664 1193.62 474.806 1193.24 475.09C1192.88 475.359 1192.62 475.717 1192.46 476.165C1192.29 476.613 1192.19 477.106 1192.16 477.643C1192.15 478.091 1192.15 478.539 1192.16 478.987C1192.19 479.525 1192.29 480.018 1192.46 480.466C1192.62 480.914 1192.88 481.28 1193.24 481.563C1193.62 481.832 1194.12 481.967 1194.75 481.967Z" fill="white"/>
<path d="M866.377 448.999H637.564V500.801H866.377V448.999Z" fill="#2C2233"/>
<path d="M714.365 483.775C713.031 483.775 711.885 483.559 710.925 483.125C709.966 482.677 709.216 481.998 708.676 481.087C708.136 480.161 707.844 479.011 707.799 477.637C707.785 476.995 707.776 476.361 707.776 475.733C707.776 475.106 707.785 474.464 707.799 473.807C707.844 472.448 708.145 471.313 708.698 470.402C709.253 469.491 710.011 468.804 710.97 468.341C711.945 467.879 713.076 467.647 714.365 467.647C715.655 467.647 716.787 467.879 717.761 468.341C718.736 468.804 719.501 469.491 720.054 470.402C720.609 471.313 720.909 472.448 720.954 473.807C720.985 474.464 720.999 475.106 720.999 475.733C720.999 476.361 720.985 476.995 720.954 477.637C720.909 479.011 720.617 480.161 720.077 481.087C719.537 481.998 718.781 482.677 717.806 483.125C716.847 483.559 715.7 483.775 714.365 483.775ZM714.365 481.199C715.34 481.199 716.135 480.915 716.749 480.348C717.364 479.765 717.693 478.825 717.738 477.525C717.769 476.868 717.783 476.264 717.783 475.711C717.783 475.144 717.769 474.539 717.738 473.897C717.709 473.031 717.544 472.329 717.243 471.791C716.96 471.239 716.569 470.843 716.074 470.604C715.579 470.35 715.01 470.223 714.365 470.223C713.735 470.223 713.173 470.35 712.679 470.604C712.184 470.843 711.788 471.239 711.487 471.791C711.203 472.329 711.045 473.031 711.015 473.897C711 474.539 710.992 475.144 710.992 475.711C710.992 476.264 711 476.868 711.015 477.525C711.06 478.825 711.39 479.765 712.004 480.348C712.62 480.915 713.407 481.199 714.365 481.199ZM724.221 483.551C724.072 483.551 723.945 483.499 723.839 483.394C723.735 483.29 723.682 483.163 723.682 483.013V472.441C723.682 472.291 723.735 472.164 723.839 472.06C723.945 471.955 724.072 471.903 724.221 471.903H726.065C726.216 471.903 726.344 471.955 726.448 472.06C726.553 472.164 726.605 472.291 726.605 472.441V473.359C726.996 472.881 727.491 472.485 728.089 472.172C728.705 471.843 729.461 471.679 730.36 471.679C731.275 471.679 732.069 471.888 732.744 472.306C733.419 472.709 733.936 473.284 734.296 474.031C734.671 474.778 734.858 475.674 734.858 476.719V483.013C734.858 483.163 734.806 483.29 734.7 483.394C734.596 483.499 734.469 483.551 734.318 483.551H732.339C732.19 483.551 732.062 483.499 731.957 483.394C731.853 483.29 731.8 483.163 731.8 483.013V476.853C731.8 475.987 731.583 475.308 731.147 474.815C730.729 474.322 730.113 474.076 729.304 474.076C728.525 474.076 727.902 474.322 727.437 474.815C726.973 475.308 726.74 475.987 726.74 476.853V483.013C726.74 483.163 726.688 483.29 726.583 483.394C726.479 483.499 726.351 483.551 726.2 483.551H724.221ZM743 488.479C741.905 488.479 741.005 488.337 740.301 488.053C739.596 487.77 739.042 487.426 738.637 487.023C738.232 486.62 737.94 486.217 737.76 485.813C737.594 485.425 737.504 485.119 737.49 484.895C737.475 484.746 737.52 484.611 737.625 484.492C737.745 484.387 737.88 484.335 738.03 484.335H739.986C740.135 484.335 740.256 484.365 740.346 484.425C740.436 484.499 740.511 484.626 740.571 484.805C740.661 485 740.78 485.209 740.931 485.433C741.08 485.657 741.305 485.843 741.605 485.993C741.92 486.157 742.347 486.239 742.887 486.239C743.456 486.239 743.936 486.157 744.326 485.993C744.716 485.828 745.008 485.552 745.203 485.164C745.413 484.776 745.518 484.238 745.518 483.551V482.028C745.158 482.461 744.693 482.812 744.124 483.081C743.569 483.349 742.879 483.484 742.055 483.484C741.246 483.484 740.548 483.357 739.964 483.103C739.379 482.834 738.891 482.468 738.502 482.005C738.111 481.528 737.812 480.968 737.603 480.325C737.407 479.683 737.295 478.974 737.265 478.197C737.25 477.794 737.25 477.391 737.265 476.988C737.295 476.241 737.407 475.547 737.603 474.905C737.797 474.263 738.089 473.703 738.48 473.225C738.884 472.732 739.379 472.351 739.964 472.082C740.548 471.813 741.246 471.679 742.055 471.679C742.91 471.679 743.629 471.843 744.214 472.172C744.799 472.485 745.278 472.881 745.653 473.359V472.463C745.653 472.299 745.705 472.164 745.81 472.06C745.914 471.955 746.042 471.903 746.193 471.903H748.014C748.163 471.903 748.291 471.955 748.396 472.06C748.5 472.164 748.554 472.299 748.554 472.463L748.576 483.26C748.576 484.335 748.374 485.261 747.969 486.037C747.564 486.814 746.949 487.411 746.125 487.829C745.316 488.263 744.273 488.479 743 488.479ZM742.887 481.109C743.501 481.109 743.996 480.975 744.371 480.706C744.745 480.437 745.023 480.087 745.203 479.653C745.383 479.22 745.487 478.78 745.518 478.332C745.532 478.138 745.541 477.891 745.541 477.593C745.541 477.294 745.532 477.055 745.518 476.876C745.487 476.413 745.383 475.972 745.203 475.554C745.023 475.121 744.745 474.77 744.371 474.501C743.996 474.218 743.501 474.076 742.887 474.076C742.272 474.076 741.777 474.218 741.403 474.501C741.028 474.77 740.758 475.129 740.593 475.577C740.443 476.025 740.353 476.517 740.324 477.055C740.293 477.413 740.293 477.779 740.324 478.153C740.353 478.675 740.443 479.168 740.593 479.631C740.758 480.079 741.028 480.437 741.403 480.706C741.777 480.975 742.272 481.109 742.887 481.109ZM756.743 483.775C755.545 483.775 754.533 483.566 753.708 483.148C752.898 482.73 752.275 482.14 751.841 481.378C751.421 480.617 751.182 479.728 751.122 478.713C751.106 478.444 751.099 478.115 751.099 477.727C751.099 477.339 751.106 477.01 751.122 476.741C751.182 475.711 751.429 474.823 751.864 474.076C752.313 473.314 752.943 472.724 753.753 472.306C754.578 471.888 755.574 471.679 756.743 471.679C757.913 471.679 758.902 471.888 759.712 472.306C760.537 472.724 761.166 473.314 761.601 474.076C762.05 474.823 762.305 475.711 762.365 476.741C762.381 477.01 762.388 477.339 762.388 477.727C762.388 478.115 762.381 478.444 762.365 478.713C762.305 479.728 762.057 480.617 761.623 481.378C761.203 482.14 760.582 482.73 759.757 483.148C758.947 483.566 757.942 483.775 756.743 483.775ZM756.743 481.557C757.537 481.557 758.153 481.311 758.587 480.818C759.022 480.311 759.262 479.571 759.307 478.601C759.322 478.377 759.329 478.085 759.329 477.727C759.329 477.369 759.322 477.077 759.307 476.853C759.262 475.898 759.022 475.166 758.587 474.658C758.153 474.151 757.537 473.897 756.743 473.897C755.949 473.897 755.334 474.151 754.899 474.658C754.465 475.166 754.225 475.898 754.18 476.853C754.164 477.077 754.157 477.369 754.157 477.727C754.157 478.085 754.164 478.377 754.18 478.601C754.225 479.571 754.465 480.311 754.899 480.818C755.334 481.311 755.949 481.557 756.743 481.557ZM765.419 483.551C765.269 483.551 765.142 483.499 765.037 483.394C764.931 483.29 764.879 483.163 764.879 483.013V472.441C764.879 472.291 764.931 472.164 765.037 472.06C765.142 471.955 765.269 471.903 765.419 471.903H767.286C767.45 471.903 767.578 471.955 767.668 472.06C767.773 472.164 767.825 472.291 767.825 472.441V483.013C767.825 483.163 767.773 483.29 767.668 483.394C767.578 483.499 767.45 483.551 767.286 483.551H765.419ZM765.329 469.977C765.165 469.977 765.03 469.932 764.924 469.842C764.835 469.738 764.79 469.603 764.79 469.439V467.826C764.79 467.677 764.835 467.55 764.924 467.445C765.03 467.341 765.165 467.289 765.329 467.289H767.376C767.54 467.289 767.675 467.341 767.78 467.445C767.886 467.55 767.938 467.677 767.938 467.826V469.439C767.938 469.603 767.886 469.738 767.78 469.842C767.675 469.932 767.54 469.977 767.376 469.977H765.329ZM771.81 483.551C771.659 483.551 771.531 483.499 771.427 483.394C771.322 483.29 771.27 483.163 771.27 483.013V472.441C771.27 472.291 771.322 472.164 771.427 472.06C771.531 471.955 771.659 471.903 771.81 471.903H773.654C773.803 471.903 773.931 471.955 774.036 472.06C774.14 472.164 774.193 472.291 774.193 472.441V473.359C774.583 472.881 775.077 472.485 775.678 472.172C776.292 471.843 777.049 471.679 777.949 471.679C778.862 471.679 779.658 471.888 780.332 472.306C781.007 472.709 781.524 473.284 781.884 474.031C782.258 474.778 782.446 475.674 782.446 476.719V483.013C782.446 483.163 782.393 483.29 782.289 483.394C782.183 483.499 782.055 483.551 781.906 483.551H779.928C779.777 483.551 779.649 483.499 779.545 483.394C779.44 483.29 779.388 483.163 779.388 483.013V476.853C779.388 475.987 779.17 475.308 778.736 474.815C778.316 474.322 777.701 474.076 776.892 474.076C776.112 474.076 775.489 474.322 775.025 474.815C774.56 475.308 774.328 475.987 774.328 476.853V483.013C774.328 483.163 774.275 483.29 774.171 483.394C774.065 483.499 773.938 483.551 773.789 483.551H771.81ZM790.586 488.479C789.492 488.479 788.592 488.337 787.888 488.053C787.184 487.77 786.629 487.426 786.224 487.023C785.819 486.62 785.527 486.217 785.347 485.813C785.182 485.425 785.093 485.119 785.077 484.895C785.062 484.746 785.107 484.611 785.212 484.492C785.331 484.387 785.466 484.335 785.617 484.335H787.573C787.724 484.335 787.843 484.365 787.933 484.425C788.023 484.499 788.097 484.626 788.158 484.805C788.248 485 788.367 485.209 788.518 485.433C788.668 485.657 788.893 485.843 789.192 485.993C789.507 486.157 789.934 486.239 790.474 486.239C791.043 486.239 791.524 486.157 791.913 485.993C792.302 485.828 792.595 485.552 792.79 485.164C793 484.776 793.105 484.238 793.105 483.551V482.028C792.745 482.461 792.28 482.812 791.711 483.081C791.156 483.349 790.467 483.484 789.642 483.484C788.832 483.484 788.135 483.357 787.551 483.103C786.966 482.834 786.478 482.468 786.089 482.005C785.7 481.528 785.399 480.968 785.19 480.325C784.994 479.683 784.882 478.974 784.852 478.197C784.837 477.794 784.837 477.391 784.852 476.988C784.882 476.241 784.994 475.547 785.19 474.905C785.385 474.263 785.677 473.703 786.067 473.225C786.471 472.732 786.966 472.351 787.551 472.082C788.135 471.813 788.832 471.679 789.642 471.679C790.496 471.679 791.216 471.843 791.801 472.172C792.385 472.485 792.865 472.881 793.24 473.359V472.463C793.24 472.299 793.292 472.164 793.397 472.06C793.503 471.955 793.629 471.903 793.78 471.903H795.601C795.751 471.903 795.878 471.955 795.983 472.06C796.089 472.164 796.141 472.299 796.141 472.463L796.163 483.26C796.163 484.335 795.961 485.261 795.556 486.037C795.151 486.814 794.537 487.411 793.712 487.829C792.903 488.263 791.861 488.479 790.586 488.479ZM790.474 481.109C791.088 481.109 791.583 480.975 791.958 480.706C792.333 480.437 792.61 480.087 792.79 479.653C792.97 479.22 793.075 478.78 793.105 478.332C793.12 478.138 793.127 477.891 793.127 477.593C793.127 477.294 793.12 477.055 793.105 476.876C793.075 476.413 792.97 475.972 792.79 475.554C792.61 475.121 792.333 474.77 791.958 474.501C791.583 474.218 791.088 474.076 790.474 474.076C789.86 474.076 789.365 474.218 788.99 474.501C788.615 474.77 788.345 475.129 788.18 475.577C788.03 476.025 787.94 476.517 787.91 477.055C787.881 477.413 787.881 477.779 787.91 478.153C787.94 478.675 788.03 479.168 788.18 479.631C788.345 480.079 788.615 480.437 788.99 480.706C789.365 480.975 789.86 481.109 790.474 481.109Z" fill="white"/>
<path d="M526.352 460.815C525.565 460.815 524.884 460.72 524.311 460.529C523.737 460.339 523.26 460.092 522.877 459.79C522.506 459.476 522.225 459.14 522.034 458.782C521.843 458.412 521.742 458.048 521.73 457.69C521.73 457.589 521.764 457.511 521.832 457.455C521.91 457.388 522 457.354 522.101 457.354H523.619C523.732 457.354 523.827 457.376 523.906 457.421C523.985 457.466 524.052 457.556 524.108 457.69C524.21 457.992 524.373 458.233 524.598 458.412C524.834 458.592 525.104 458.72 525.407 458.799C525.711 458.866 526.031 458.9 526.368 458.9C527.043 458.9 527.577 458.743 527.971 458.429C528.375 458.104 528.578 457.645 528.578 457.052C528.578 456.458 528.392 456.032 528.021 455.775C527.65 455.506 527.133 455.372 526.47 455.372H524.732C524.609 455.372 524.508 455.338 524.429 455.271C524.35 455.192 524.311 455.092 524.311 454.968V454.263C524.311 454.151 524.333 454.056 524.378 453.977C524.435 453.888 524.491 453.815 524.547 453.759L527.566 450.819H522.742C522.619 450.819 522.518 450.78 522.439 450.701C522.371 450.623 522.338 450.528 522.338 450.416V449.307C522.338 449.184 522.371 449.083 522.439 449.004C522.518 448.926 522.619 448.887 522.742 448.887H529.978C530.101 448.887 530.202 448.926 530.281 449.004C530.36 449.083 530.399 449.184 530.399 449.307V450.315C530.399 450.416 530.377 450.505 530.332 450.584C530.287 450.662 530.236 450.729 530.18 450.785L527.262 453.776L527.465 453.792C528.151 453.848 528.758 454.005 529.286 454.263C529.826 454.509 530.242 454.873 530.534 455.355C530.838 455.836 530.99 456.441 530.99 457.169C530.99 457.931 530.787 458.586 530.382 459.135C529.989 459.672 529.444 460.087 528.746 460.378C528.049 460.669 527.251 460.815 526.352 460.815ZM539.952 460.815C539.367 460.815 538.85 460.72 538.4 460.529C537.962 460.328 537.596 460.048 537.304 459.689C537.012 459.331 536.787 458.911 536.63 458.429C536.472 457.936 536.382 457.399 536.36 456.816C536.348 456.615 536.343 456.436 536.343 456.279C536.343 456.111 536.348 455.926 536.36 455.724C536.382 455.164 536.467 454.644 536.613 454.162C536.77 453.68 536.995 453.26 537.287 452.902C537.591 452.532 537.962 452.247 538.4 452.045C538.85 451.844 539.367 451.743 539.952 451.743C540.559 451.743 541.071 451.849 541.487 452.062C541.914 452.264 542.268 452.527 542.549 452.852V449.122C542.549 449.01 542.583 448.915 542.65 448.836C542.729 448.758 542.83 448.719 542.954 448.719H544.388C544.5 448.719 544.596 448.758 544.674 448.836C544.753 448.915 544.792 449.01 544.792 449.122V460.244C544.792 460.356 544.753 460.451 544.674 460.529C544.596 460.608 544.5 460.647 544.388 460.647H543.055C542.932 460.647 542.83 460.608 542.752 460.529C542.684 460.451 542.65 460.356 542.65 460.244V459.622C542.369 459.969 542.01 460.255 541.571 460.479C541.144 460.703 540.604 460.815 539.952 460.815ZM540.576 459.017C541.048 459.017 541.425 458.911 541.706 458.698C541.987 458.485 542.195 458.216 542.33 457.892C542.465 457.556 542.538 457.214 542.549 456.867C542.561 456.665 542.566 456.452 542.566 456.228C542.566 455.993 542.561 455.775 542.549 455.573C542.538 455.237 542.459 454.918 542.313 454.616C542.167 454.302 541.953 454.044 541.672 453.843C541.391 453.641 541.026 453.54 540.576 453.54C540.104 453.54 539.727 453.647 539.446 453.86C539.176 454.061 538.979 454.33 538.856 454.666C538.732 455.002 538.659 455.372 538.637 455.775C538.625 456.111 538.625 456.447 538.637 456.783C538.659 457.186 538.732 457.556 538.856 457.892C538.979 458.228 539.176 458.502 539.446 458.715C539.727 458.916 540.104 459.017 540.576 459.017ZM549.586 460.815C549.002 460.815 548.473 460.703 548.001 460.479C547.529 460.244 547.152 459.936 546.871 459.555C546.601 459.163 546.466 458.726 546.466 458.244C546.466 457.46 546.781 456.839 547.411 456.38C548.052 455.909 548.895 455.596 549.941 455.439L552.251 455.103V454.75C552.251 454.28 552.133 453.916 551.897 453.658C551.661 453.4 551.256 453.272 550.683 453.272C550.278 453.272 549.946 453.356 549.688 453.524C549.44 453.68 549.255 453.893 549.131 454.162C549.041 454.308 548.912 454.38 548.743 454.38H547.411C547.287 454.38 547.191 454.347 547.124 454.28C547.068 454.212 547.04 454.123 547.04 454.011C547.051 453.832 547.124 453.613 547.259 453.356C547.394 453.098 547.607 452.852 547.9 452.616C548.192 452.37 548.569 452.163 549.03 451.995C549.491 451.827 550.047 451.743 550.699 451.743C551.408 451.743 552.004 451.832 552.487 452.012C552.982 452.18 553.375 452.409 553.668 452.7C553.96 452.992 554.174 453.333 554.309 453.725C554.444 454.117 554.511 454.532 554.511 454.968V460.244C554.511 460.356 554.472 460.451 554.393 460.529C554.314 460.608 554.219 460.647 554.106 460.647H552.74C552.616 460.647 552.515 460.608 552.437 460.529C552.369 460.451 552.335 460.356 552.335 460.244V459.588C552.189 459.801 551.992 460.003 551.745 460.193C551.498 460.372 551.194 460.524 550.834 460.647C550.486 460.759 550.07 460.815 549.586 460.815ZM550.16 459.219C550.553 459.219 550.907 459.135 551.222 458.967C551.548 458.799 551.801 458.541 551.981 458.194C552.172 457.836 552.268 457.388 552.268 456.85V456.497L550.581 456.766C549.918 456.867 549.423 457.029 549.097 457.253C548.771 457.477 548.608 457.752 548.608 458.076C548.608 458.323 548.681 458.536 548.827 458.715C548.985 458.883 549.182 459.012 549.418 459.101C549.654 459.18 549.901 459.219 550.16 459.219ZM558.03 463.839C557.94 463.839 557.862 463.805 557.794 463.738C557.727 463.671 557.693 463.592 557.693 463.503C557.693 463.458 557.693 463.413 557.693 463.368C557.704 463.335 557.727 463.29 557.76 463.234L559.076 460.126L555.838 452.516C555.793 452.404 555.77 452.325 555.77 452.28C555.782 452.18 555.821 452.096 555.888 452.028C555.956 451.95 556.04 451.911 556.141 451.911H557.507C557.642 451.911 557.744 451.944 557.811 452.012C557.878 452.079 557.929 452.152 557.963 452.23L560.206 457.724L562.516 452.23C562.55 452.14 562.601 452.068 562.668 452.012C562.736 451.944 562.837 451.911 562.972 451.911H564.321C564.411 451.911 564.49 451.944 564.557 452.012C564.636 452.079 564.675 452.157 564.675 452.247C564.675 452.314 564.653 452.404 564.608 452.516L559.835 463.52C559.79 463.609 559.734 463.682 559.666 463.738C559.599 463.805 559.498 463.839 559.363 463.839H558.03ZM569.188 460.815C568.513 460.815 567.934 460.736 567.451 460.58C566.979 460.423 566.591 460.227 566.287 459.992C565.984 459.756 565.759 459.521 565.613 459.286C565.466 459.051 565.388 458.855 565.376 458.698C565.365 458.575 565.399 458.48 565.478 458.412C565.568 458.334 565.663 458.295 565.764 458.295H567.097C567.142 458.295 567.181 458.3 567.215 458.312C567.249 458.323 567.293 458.356 567.35 458.412C567.496 458.536 567.648 458.664 567.805 458.799C567.974 458.933 568.17 459.051 568.395 459.152C568.62 459.241 568.901 459.286 569.239 459.286C569.677 459.286 570.043 459.202 570.335 459.034C570.638 458.855 570.79 458.603 570.79 458.278C570.79 458.043 570.723 457.852 570.588 457.707C570.464 457.561 570.228 457.432 569.88 457.32C569.531 457.197 569.036 457.068 568.395 456.934C567.766 456.788 567.243 456.604 566.827 456.38C566.411 456.156 566.102 455.876 565.899 455.54C565.697 455.204 565.596 454.812 565.596 454.364C565.596 453.927 565.725 453.512 565.984 453.12C566.253 452.717 566.647 452.387 567.164 452.129C567.693 451.872 568.345 451.743 569.121 451.743C569.728 451.743 570.256 451.821 570.706 451.978C571.156 452.124 571.527 452.308 571.819 452.532C572.123 452.756 572.353 452.986 572.51 453.221C572.668 453.445 572.752 453.641 572.763 453.809C572.775 453.932 572.741 454.033 572.662 454.112C572.584 454.179 572.494 454.212 572.392 454.212H571.144C571.088 454.212 571.038 454.201 570.993 454.179C570.948 454.156 570.903 454.128 570.858 454.095C570.734 453.983 570.599 453.865 570.453 453.742C570.307 453.619 570.127 453.512 569.913 453.423C569.711 453.322 569.441 453.272 569.104 453.272C568.676 453.272 568.35 453.367 568.126 453.557C567.901 453.736 567.788 453.966 567.788 454.246C567.788 454.436 567.839 454.604 567.94 454.75C568.052 454.884 568.272 455.013 568.598 455.136C568.924 455.26 569.419 455.388 570.082 455.523C570.835 455.657 571.431 455.859 571.87 456.128C572.319 456.385 572.634 456.688 572.814 457.035C573.005 457.371 573.101 457.746 573.101 458.16C573.101 458.664 572.949 459.118 572.645 459.521C572.353 459.924 571.915 460.244 571.33 460.479C570.757 460.703 570.043 460.815 569.188 460.815Z" fill="#80708F"/>
<path d="M612.2 475.642C612.61 475.232 612.61 474.568 612.2 474.158L605.492 467.475C605.08 467.065 604.412 467.065 604.001 467.475C603.589 467.885 603.589 468.55 604.001 468.96L609.964 474.9L604.001 480.84C603.589 481.25 603.589 481.915 604.001 482.325C604.412 482.735 605.08 482.735 605.492 482.325L612.2 475.642ZM488.996 475.95H611.454V473.85H488.996V475.95Z" fill="#80708F"/>
<path d="M924.688 464.647C924.565 464.647 924.464 464.608 924.385 464.529C924.317 464.451 924.284 464.356 924.284 464.244V455.541L921.72 457.507C921.619 457.574 921.518 457.602 921.417 457.591C921.315 457.568 921.225 457.507 921.147 457.406L920.438 456.499C920.371 456.398 920.343 456.292 920.354 456.18C920.376 456.068 920.438 455.978 920.539 455.911L924.317 453.004C924.385 452.948 924.452 452.915 924.52 452.904C924.587 452.892 924.66 452.887 924.739 452.887H926.223C926.336 452.887 926.431 452.926 926.51 453.004C926.589 453.083 926.628 453.178 926.628 453.29V464.244C926.628 464.356 926.589 464.451 926.51 464.529C926.431 464.608 926.336 464.647 926.223 464.647H924.688ZM934.486 464.647C934.373 464.647 934.278 464.608 934.199 464.529C934.12 464.451 934.081 464.356 934.081 464.244V462.093H928.735C928.611 462.093 928.51 462.054 928.431 461.976C928.364 461.897 928.33 461.802 928.33 461.69V460.548C928.33 460.48 928.341 460.402 928.364 460.312C928.397 460.212 928.448 460.122 928.515 460.044L933.491 453.172C933.637 452.982 933.845 452.887 934.115 452.887H935.953C936.065 452.887 936.161 452.926 936.24 453.004C936.318 453.083 936.358 453.178 936.358 453.29V460.111H937.859C937.994 460.111 938.095 460.15 938.162 460.228C938.241 460.296 938.28 460.391 938.28 460.514V461.69C938.28 461.802 938.241 461.897 938.162 461.976C938.084 462.054 937.988 462.093 937.876 462.093H936.358V464.244C936.358 464.356 936.318 464.451 936.24 464.529C936.161 464.608 936.065 464.647 935.953 464.647H934.486ZM930.674 460.178H934.132V455.323L930.674 460.178ZM947.048 464.815C946.463 464.815 945.946 464.72 945.496 464.529C945.057 464.328 944.692 464.048 944.4 463.689C944.107 463.331 943.882 462.911 943.725 462.429C943.568 461.936 943.478 461.399 943.455 460.816C943.444 460.615 943.438 460.436 943.438 460.279C943.438 460.111 943.444 459.926 943.455 459.724C943.478 459.164 943.562 458.644 943.708 458.162C943.866 457.68 944.09 457.26 944.383 456.902C944.686 456.532 945.057 456.247 945.496 456.045C945.946 455.844 946.463 455.743 947.048 455.743C947.655 455.743 948.166 455.849 948.582 456.062C949.01 456.264 949.364 456.527 949.645 456.852V453.122C949.645 453.01 949.679 452.915 949.746 452.836C949.825 452.758 949.926 452.719 950.05 452.719H951.483C951.596 452.719 951.691 452.758 951.77 452.836C951.849 452.915 951.888 453.01 951.888 453.122V464.244C951.888 464.356 951.849 464.451 951.77 464.529C951.691 464.608 951.596 464.647 951.483 464.647H950.151C950.027 464.647 949.926 464.608 949.847 464.529C949.78 464.451 949.746 464.356 949.746 464.244V463.622C949.465 463.969 949.105 464.255 948.667 464.479C948.239 464.703 947.7 464.815 947.048 464.815ZM947.672 463.017C948.144 463.017 948.52 462.911 948.802 462.698C949.083 462.485 949.291 462.216 949.426 461.892C949.56 461.556 949.634 461.214 949.645 460.867C949.656 460.665 949.662 460.452 949.662 460.228C949.662 459.993 949.656 459.775 949.645 459.573C949.634 459.237 949.555 458.918 949.409 458.616C949.263 458.302 949.049 458.044 948.768 457.843C948.487 457.641 948.121 457.54 947.672 457.54C947.199 457.54 946.823 457.647 946.542 457.86C946.272 458.061 946.075 458.33 945.951 458.666C945.828 459.002 945.755 459.372 945.732 459.775C945.721 460.111 945.721 460.447 945.732 460.783C945.755 461.186 945.828 461.556 945.951 461.892C946.075 462.228 946.272 462.502 946.542 462.715C946.823 462.916 947.199 463.017 947.672 463.017ZM956.683 464.815C956.099 464.815 955.57 464.703 955.098 464.479C954.626 464.244 954.249 463.936 953.968 463.555C953.698 463.163 953.563 462.726 953.563 462.244C953.563 461.46 953.878 460.839 954.508 460.38C955.148 459.909 955.992 459.596 957.037 459.439L959.348 459.103V458.75C959.348 458.28 959.23 457.916 958.994 457.658C958.758 457.4 958.353 457.272 957.779 457.272C957.375 457.272 957.043 457.356 956.784 457.524C956.537 457.68 956.352 457.893 956.228 458.162C956.138 458.308 956.009 458.38 955.84 458.38H954.508C954.384 458.38 954.288 458.347 954.221 458.28C954.165 458.212 954.137 458.123 954.137 458.011C954.148 457.832 954.221 457.613 954.356 457.356C954.491 457.098 954.704 456.852 954.997 456.616C955.289 456.37 955.666 456.163 956.127 455.995C956.588 455.827 957.144 455.743 957.796 455.743C958.505 455.743 959.101 455.832 959.584 456.012C960.079 456.18 960.472 456.409 960.765 456.7C961.057 456.992 961.271 457.333 961.406 457.725C961.54 458.117 961.608 458.532 961.608 458.968V464.244C961.608 464.356 961.569 464.451 961.49 464.529C961.411 464.608 961.316 464.647 961.203 464.647H959.837C959.713 464.647 959.612 464.608 959.533 464.529C959.466 464.451 959.432 464.356 959.432 464.244V463.588C959.286 463.801 959.089 464.003 958.842 464.193C958.595 464.372 958.291 464.524 957.931 464.647C957.583 464.759 957.167 464.815 956.683 464.815ZM957.257 463.219C957.65 463.219 958.004 463.135 958.319 462.967C958.645 462.799 958.898 462.541 959.078 462.194C959.269 461.836 959.365 461.388 959.365 460.85V460.497L957.678 460.766C957.015 460.867 956.52 461.029 956.194 461.253C955.868 461.477 955.705 461.752 955.705 462.076C955.705 462.323 955.778 462.536 955.924 462.715C956.082 462.883 956.278 463.012 956.515 463.101C956.751 463.18 956.998 463.219 957.257 463.219ZM965.126 467.839C965.036 467.839 964.957 467.805 964.89 467.738C964.822 467.671 964.788 467.592 964.788 467.503C964.788 467.458 964.788 467.413 964.788 467.368C964.8 467.335 964.822 467.29 964.856 467.234L966.171 464.126L962.933 456.516C962.888 456.404 962.866 456.325 962.866 456.28C962.877 456.18 962.916 456.096 962.984 456.028C963.051 455.95 963.136 455.911 963.237 455.911H964.603C964.738 455.911 964.839 455.944 964.906 456.012C964.974 456.079 965.025 456.152 965.058 456.23L967.301 461.724L969.612 456.23C969.646 456.14 969.696 456.068 969.764 456.012C969.831 455.944 969.932 455.911 970.067 455.911H971.416C971.506 455.911 971.585 455.944 971.653 456.012C971.731 456.079 971.771 456.157 971.771 456.247C971.771 456.314 971.748 456.404 971.703 456.516L966.93 467.52C966.885 467.609 966.829 467.682 966.762 467.738C966.694 467.805 966.593 467.839 966.458 467.839H965.126ZM976.284 464.815C975.609 464.815 975.03 464.736 974.546 464.58C974.074 464.423 973.686 464.227 973.383 463.992C973.079 463.756 972.854 463.521 972.708 463.286C972.562 463.051 972.483 462.855 972.472 462.698C972.461 462.575 972.494 462.48 972.573 462.412C972.663 462.334 972.759 462.295 972.86 462.295H974.192C974.237 462.295 974.277 462.3 974.31 462.312C974.344 462.323 974.389 462.356 974.445 462.412C974.591 462.536 974.743 462.664 974.901 462.799C975.069 462.933 975.266 463.051 975.491 463.152C975.716 463.241 975.997 463.286 976.334 463.286C976.773 463.286 977.138 463.202 977.43 463.034C977.734 462.855 977.886 462.603 977.886 462.278C977.886 462.043 977.818 461.852 977.683 461.707C977.56 461.561 977.324 461.432 976.975 461.32C976.626 461.197 976.132 461.068 975.491 460.934C974.861 460.788 974.338 460.604 973.922 460.38C973.506 460.156 973.197 459.876 972.995 459.54C972.792 459.204 972.691 458.812 972.691 458.364C972.691 457.927 972.821 457.512 973.079 457.12C973.349 456.717 973.743 456.387 974.26 456.129C974.788 455.872 975.44 455.743 976.216 455.743C976.823 455.743 977.352 455.821 977.801 455.978C978.251 456.124 978.622 456.308 978.915 456.532C979.218 456.756 979.449 456.986 979.606 457.221C979.763 457.445 979.848 457.641 979.859 457.809C979.87 457.932 979.836 458.033 979.758 458.112C979.679 458.179 979.589 458.212 979.488 458.212H978.24C978.184 458.212 978.133 458.201 978.088 458.179C978.043 458.156 977.998 458.128 977.953 458.095C977.83 457.983 977.695 457.865 977.548 457.742C977.402 457.619 977.222 457.512 977.009 457.423C976.806 457.322 976.537 457.272 976.199 457.272C975.772 457.272 975.446 457.367 975.221 457.557C974.996 457.736 974.884 457.966 974.884 458.246C974.884 458.436 974.934 458.604 975.036 458.75C975.148 458.884 975.367 459.013 975.693 459.136C976.019 459.26 976.514 459.388 977.177 459.523C977.931 459.657 978.527 459.859 978.965 460.128C979.415 460.385 979.73 460.688 979.91 461.035C980.101 461.371 980.196 461.746 980.196 462.16C980.196 462.664 980.044 463.118 979.741 463.521C979.449 463.924 979.01 464.244 978.425 464.479C977.852 464.703 977.138 464.815 976.284 464.815Z" fill="#80708F"/>
<path d="M1013.8 479.642C1014.21 479.232 1014.21 478.568 1013.8 478.158L1007.09 471.475C1006.68 471.065 1006.01 471.065 1005.6 471.475C1005.19 471.885 1005.19 472.55 1005.6 472.96L1011.56 478.9L1005.6 484.84C1005.19 485.25 1005.19 485.915 1005.6 486.325C1006.01 486.735 1006.68 486.735 1007.09 486.325L1013.8 479.642ZM890.596 479.95H1013.05V477.85H890.596V479.95Z" fill="#80708F"/>
</svg>
