<svg width="1504" height="816" viewBox="0 0 1504 816" fill="none" xmlns="http://www.w3.org/2000/svg">
<rect width="1504" height="816" fill="#F9F5F2"/>
<path d="M465.565 383.499H236.752V435.301H465.565V383.499Z" fill="#2C2233"/>
<path d="M329.428 417.603C329.278 417.603 329.151 417.551 329.046 417.447C328.941 417.342 328.889 417.215 328.889 417.066V402.483C328.889 402.319 328.941 402.185 329.046 402.08C329.151 401.976 329.278 401.923 329.428 401.923H331.16C331.37 401.923 331.52 401.976 331.61 402.08C331.715 402.17 331.782 402.237 331.812 402.282L338.288 412.317V402.483C338.288 402.319 338.333 402.185 338.423 402.08C338.528 401.976 338.663 401.923 338.828 401.923H340.717C340.882 401.923 341.017 401.976 341.122 402.08C341.227 402.185 341.279 402.319 341.279 402.483V417.043C341.279 417.208 341.227 417.342 341.122 417.447C341.017 417.551 340.889 417.603 340.739 417.603H338.985C338.776 417.603 338.626 417.551 338.536 417.447C338.446 417.342 338.378 417.275 338.333 417.245L331.879 407.434V417.066C331.879 417.215 331.827 417.342 331.722 417.447C331.617 417.551 331.482 417.603 331.317 417.603H329.428ZM349.555 417.827C347.891 417.827 346.572 417.35 345.597 416.394C344.623 415.438 344.098 414.079 344.023 412.317C344.008 412.168 344.001 411.981 344.001 411.757C344.001 411.518 344.008 411.331 344.023 411.197C344.083 410.077 344.338 409.106 344.788 408.285C345.253 407.464 345.89 406.837 346.699 406.403C347.509 405.955 348.461 405.731 349.555 405.731C350.769 405.731 351.789 405.985 352.613 406.493C353.438 406.986 354.06 407.68 354.48 408.576C354.899 409.457 355.109 410.48 355.109 411.645V412.115C355.109 412.265 355.057 412.392 354.952 412.496C354.847 412.601 354.712 412.653 354.547 412.653H347.081C347.081 412.653 347.081 412.675 347.081 412.72C347.081 412.765 347.081 412.802 347.081 412.832C347.096 413.355 347.194 413.84 347.374 414.288C347.569 414.721 347.846 415.072 348.206 415.341C348.581 415.61 349.023 415.744 349.533 415.744C349.952 415.744 350.305 415.685 350.589 415.565C350.874 415.431 351.107 415.281 351.287 415.117C351.466 414.953 351.594 414.818 351.669 414.714C351.804 414.535 351.909 414.43 351.984 414.4C352.074 414.355 352.201 414.333 352.366 414.333H354.3C354.45 414.333 354.57 414.378 354.66 414.467C354.765 414.557 354.81 414.669 354.794 414.803C354.779 415.042 354.652 415.334 354.412 415.677C354.187 416.021 353.857 416.357 353.423 416.685C352.988 417.014 352.441 417.29 351.781 417.514C351.137 417.723 350.394 417.827 349.555 417.827ZM347.081 410.771H352.051V410.704C352.051 410.122 351.954 409.614 351.759 409.181C351.564 408.748 351.279 408.405 350.904 408.151C350.529 407.897 350.08 407.77 349.555 407.77C349.03 407.77 348.581 407.897 348.206 408.151C347.831 408.405 347.546 408.748 347.351 409.181C347.171 409.614 347.081 410.122 347.081 410.704V410.771ZM360.36 417.603C360.15 417.603 359.993 417.551 359.888 417.447C359.783 417.342 359.693 417.208 359.618 417.043L356.402 406.65C356.387 406.575 356.38 406.508 356.38 406.448C356.38 406.314 356.425 406.202 356.515 406.112C356.62 406.008 356.732 405.955 356.852 405.955H358.516C358.696 405.955 358.838 406.008 358.943 406.112C359.048 406.202 359.108 406.291 359.123 406.381L361.327 413.795L363.666 406.448C363.696 406.344 363.763 406.239 363.868 406.135C363.973 406.015 364.13 405.955 364.34 405.955H365.465C365.674 405.955 365.832 406.015 365.937 406.135C366.042 406.239 366.109 406.344 366.139 406.448L368.478 413.795L370.682 406.381C370.697 406.291 370.749 406.202 370.839 406.112C370.944 406.008 371.086 405.955 371.266 405.955H372.93C373.065 405.955 373.178 406.008 373.268 406.112C373.373 406.202 373.425 406.314 373.425 406.448C373.425 406.508 373.41 406.575 373.38 406.65L370.164 417.043C370.119 417.208 370.037 417.342 369.917 417.447C369.812 417.551 369.655 417.603 369.445 417.603H367.983C367.773 417.603 367.608 417.551 367.488 417.447C367.369 417.342 367.286 417.208 367.241 417.043L364.902 409.965L362.564 417.043C362.504 417.208 362.414 417.342 362.294 417.447C362.189 417.551 362.024 417.603 361.799 417.603H360.36Z" fill="white"/>
<path d="M1267.19 383.499H1038.38V435.301H1267.19V383.499Z" fill="#2C2233"/>
<path d="M1105.67 418.639C1105.55 418.639 1105.44 418.595 1105.34 418.505C1105.25 418.415 1105.2 418.303 1105.2 418.169C1105.2 418.109 1105.22 418.042 1105.25 417.967L1110.67 403.519C1110.71 403.37 1110.79 403.243 1110.91 403.139C1111.05 403.019 1111.23 402.959 1111.45 402.959H1113.9C1114.13 402.959 1114.3 403.019 1114.42 403.139C1114.54 403.243 1114.63 403.37 1114.69 403.519L1120.11 417.967C1120.12 418.042 1120.13 418.109 1120.13 418.169C1120.13 418.303 1120.09 418.415 1120 418.505C1119.91 418.595 1119.8 418.639 1119.68 418.639H1117.73C1117.52 418.639 1117.36 418.595 1117.25 418.505C1117.16 418.4 1117.1 418.303 1117.07 418.214L1116.02 415.481H1109.34L1108.28 418.214C1108.25 418.303 1108.18 418.4 1108.08 418.505C1107.99 418.595 1107.84 418.639 1107.63 418.639H1105.67ZM1110.13 412.905H1115.23L1112.67 405.983L1110.13 412.905ZM1122.5 418.639C1122.35 418.639 1122.22 418.587 1122.12 418.483C1122.01 418.378 1121.96 418.251 1121.96 418.102V407.551C1121.96 407.387 1122.01 407.253 1122.12 407.148C1122.22 407.044 1122.35 406.991 1122.5 406.991H1124.32C1124.47 406.991 1124.6 407.044 1124.7 407.148C1124.83 407.253 1124.88 407.387 1124.88 407.551V408.47C1125.23 407.992 1125.67 407.626 1126.21 407.372C1126.77 407.118 1127.4 406.991 1128.12 406.991H1129.04C1129.21 406.991 1129.34 407.044 1129.43 407.148C1129.53 407.253 1129.58 407.38 1129.58 407.529V409.142C1129.58 409.291 1129.53 409.418 1129.43 409.523C1129.34 409.627 1129.21 409.679 1129.04 409.679H1127.29C1126.57 409.679 1126.01 409.881 1125.6 410.284C1125.21 410.687 1125.02 411.24 1125.02 411.942V418.102C1125.02 418.251 1124.97 418.378 1124.86 418.483C1124.76 418.587 1124.62 418.639 1124.46 418.639H1122.5ZM1136.24 418.863C1135.17 418.863 1134.21 418.662 1133.39 418.259C1132.58 417.855 1131.94 417.273 1131.48 416.511C1131.03 415.735 1130.78 414.802 1130.74 413.711C1130.72 413.487 1130.71 413.196 1130.71 412.838C1130.71 412.464 1130.72 412.158 1130.74 411.919C1130.78 410.829 1131.03 409.903 1131.48 409.142C1131.94 408.365 1132.58 407.775 1133.39 407.372C1134.21 406.969 1135.17 406.767 1136.24 406.767C1137.2 406.767 1138.02 406.902 1138.7 407.171C1139.37 407.439 1139.92 407.775 1140.36 408.179C1140.79 408.582 1141.12 409.007 1141.33 409.455C1141.55 409.888 1141.67 410.284 1141.69 410.643C1141.7 410.807 1141.65 410.941 1141.53 411.046C1141.42 411.135 1141.3 411.18 1141.15 411.18H1139.17C1139.02 411.18 1138.9 411.143 1138.81 411.068C1138.73 410.994 1138.66 410.882 1138.58 410.732C1138.36 410.135 1138.06 409.717 1137.68 409.478C1137.32 409.224 1136.86 409.097 1136.29 409.097C1135.54 409.097 1134.94 409.336 1134.49 409.814C1134.05 410.277 1133.82 411.016 1133.79 412.031C1133.76 412.599 1133.76 413.122 1133.79 413.599C1133.82 414.63 1134.05 415.376 1134.49 415.839C1134.94 416.302 1135.54 416.534 1136.29 416.534C1136.87 416.534 1137.35 416.414 1137.71 416.175C1138.07 415.922 1138.36 415.496 1138.58 414.899C1138.66 414.749 1138.73 414.637 1138.81 414.563C1138.9 414.488 1139.02 414.451 1139.17 414.451H1141.15C1141.3 414.451 1141.42 414.503 1141.53 414.607C1141.65 414.697 1141.7 414.824 1141.69 414.988C1141.67 415.257 1141.6 415.563 1141.46 415.907C1141.34 416.235 1141.14 416.579 1140.85 416.937C1140.58 417.28 1140.24 417.602 1139.82 417.9C1139.4 418.184 1138.89 418.415 1138.29 418.595C1137.71 418.774 1137.02 418.863 1136.24 418.863ZM1144.59 418.639C1144.44 418.639 1144.32 418.587 1144.21 418.483C1144.11 418.378 1144.05 418.251 1144.05 418.102V403.273C1144.05 403.124 1144.11 402.997 1144.21 402.892C1144.32 402.788 1144.44 402.735 1144.59 402.735H1146.59C1146.76 402.735 1146.89 402.788 1146.98 402.892C1147.08 402.997 1147.13 403.124 1147.13 403.273V408.38C1147.54 407.902 1148.03 407.514 1148.62 407.215C1149.2 406.917 1149.92 406.767 1150.78 406.767C1151.69 406.767 1152.49 406.976 1153.16 407.395C1153.85 407.798 1154.38 408.373 1154.76 409.119C1155.13 409.866 1155.32 410.762 1155.32 411.807V418.102C1155.32 418.251 1155.27 418.378 1155.16 418.483C1155.06 418.587 1154.93 418.639 1154.78 418.639H1152.76C1152.61 418.639 1152.48 418.587 1152.37 418.483C1152.27 418.378 1152.22 418.251 1152.22 418.102V411.942C1152.22 411.076 1152 410.396 1151.56 409.903C1151.15 409.411 1150.53 409.164 1149.72 409.164C1148.94 409.164 1148.31 409.411 1147.83 409.903C1147.37 410.396 1147.13 411.076 1147.13 411.942V418.102C1147.13 418.251 1147.08 418.378 1146.98 418.483C1146.89 418.587 1146.76 418.639 1146.59 418.639H1144.59ZM1158.71 418.639C1158.56 418.639 1158.44 418.587 1158.33 418.483C1158.23 418.378 1158.17 418.251 1158.17 418.102V407.529C1158.17 407.38 1158.23 407.253 1158.33 407.148C1158.44 407.044 1158.56 406.991 1158.71 406.991H1160.58C1160.74 406.991 1160.87 407.044 1160.96 407.148C1161.07 407.253 1161.12 407.38 1161.12 407.529V418.102C1161.12 418.251 1161.07 418.378 1160.96 418.483C1160.87 418.587 1160.74 418.639 1160.58 418.639H1158.71ZM1158.62 405.065C1158.46 405.065 1158.32 405.02 1158.22 404.931C1158.13 404.826 1158.08 404.692 1158.08 404.527V402.915C1158.08 402.765 1158.13 402.638 1158.22 402.534C1158.32 402.429 1158.46 402.377 1158.62 402.377H1160.67C1160.83 402.377 1160.97 402.429 1161.07 402.534C1161.18 402.638 1161.23 402.765 1161.23 402.915V404.527C1161.23 404.692 1161.18 404.826 1161.07 404.931C1160.97 405.02 1160.83 405.065 1160.67 405.065H1158.62ZM1168.24 418.639C1168 418.639 1167.82 418.587 1167.7 418.483C1167.6 418.363 1167.51 418.229 1167.43 418.079L1163.23 407.686C1163.2 407.611 1163.18 407.544 1163.18 407.484C1163.18 407.35 1163.23 407.238 1163.32 407.148C1163.42 407.044 1163.54 406.991 1163.68 406.991H1165.5C1165.68 406.991 1165.81 407.044 1165.9 407.148C1165.99 407.238 1166.05 407.327 1166.08 407.417L1169.07 415.279L1172.06 407.417C1172.09 407.327 1172.15 407.238 1172.24 407.148C1172.33 407.044 1172.47 406.991 1172.65 406.991H1174.49C1174.61 406.991 1174.72 407.044 1174.81 407.148C1174.91 407.238 1174.96 407.35 1174.96 407.484C1174.96 407.544 1174.96 407.611 1174.94 407.686L1170.71 418.079C1170.65 418.229 1170.56 418.363 1170.44 418.483C1170.32 418.587 1170.14 418.639 1169.9 418.639H1168.24ZM1181.63 418.863C1179.97 418.863 1178.65 418.386 1177.68 417.43C1176.7 416.474 1176.18 415.115 1176.1 413.353C1176.09 413.204 1176.08 413.017 1176.08 412.793C1176.08 412.554 1176.09 412.367 1176.1 412.233C1176.16 411.113 1176.42 410.142 1176.87 409.321C1177.33 408.5 1177.97 407.872 1178.78 407.439C1179.59 406.991 1180.54 406.767 1181.63 406.767C1182.85 406.767 1183.87 407.021 1184.69 407.529C1185.52 408.022 1186.14 408.716 1186.56 409.612C1186.98 410.493 1187.19 411.516 1187.19 412.681V413.151C1187.19 413.301 1187.14 413.428 1187.03 413.532C1186.93 413.637 1186.79 413.689 1186.63 413.689H1179.16C1179.16 413.689 1179.16 413.711 1179.16 413.756C1179.16 413.801 1179.16 413.838 1179.16 413.868C1179.18 414.391 1179.27 414.876 1179.45 415.324C1179.65 415.757 1179.93 416.108 1180.29 416.377C1180.66 416.646 1181.1 416.78 1181.61 416.78C1182.03 416.78 1182.39 416.72 1182.67 416.601C1182.95 416.467 1183.19 416.317 1183.37 416.153C1183.55 415.989 1183.67 415.854 1183.75 415.75C1183.88 415.571 1183.99 415.466 1184.06 415.436C1184.15 415.391 1184.28 415.369 1184.45 415.369H1186.38C1186.53 415.369 1186.65 415.414 1186.74 415.503C1186.84 415.593 1186.89 415.705 1186.87 415.839C1186.86 416.078 1186.73 416.37 1186.49 416.713C1186.27 417.056 1185.94 417.392 1185.5 417.721C1185.07 418.05 1184.52 418.326 1183.86 418.55C1183.22 418.759 1182.48 418.863 1181.63 418.863ZM1179.16 411.807H1184.13V411.74C1184.13 411.158 1184.03 410.65 1183.84 410.217C1183.64 409.784 1183.36 409.44 1182.98 409.187C1182.61 408.933 1182.16 408.806 1181.63 408.806C1181.11 408.806 1180.66 408.933 1180.29 409.187C1179.91 409.44 1179.63 409.784 1179.43 410.217C1179.25 410.65 1179.16 411.158 1179.16 411.74V411.807ZM1193.92 418.863C1193.14 418.863 1192.45 418.736 1191.85 418.483C1191.26 418.214 1190.78 417.84 1190.39 417.363C1190 416.885 1189.7 416.325 1189.49 415.683C1189.28 415.026 1189.16 414.309 1189.13 413.532C1189.11 413.263 1189.1 413.024 1189.1 412.815C1189.1 412.591 1189.11 412.345 1189.13 412.076C1189.16 411.33 1189.27 410.635 1189.46 409.993C1189.67 409.351 1189.97 408.791 1190.36 408.313C1190.77 407.82 1191.26 407.439 1191.85 407.171C1192.45 406.902 1193.14 406.767 1193.92 406.767C1194.73 406.767 1195.41 406.909 1195.96 407.193C1196.53 407.462 1197 407.813 1197.38 408.246V403.273C1197.38 403.124 1197.42 402.997 1197.51 402.892C1197.62 402.788 1197.75 402.735 1197.92 402.735H1199.83C1199.98 402.735 1200.11 402.788 1200.21 402.892C1200.32 402.997 1200.37 403.124 1200.37 403.273V418.102C1200.37 418.251 1200.32 418.378 1200.21 418.483C1200.11 418.587 1199.98 418.639 1199.83 418.639H1198.05C1197.89 418.639 1197.75 418.587 1197.65 418.483C1197.56 418.378 1197.51 418.251 1197.51 418.102V417.273C1197.14 417.736 1196.66 418.117 1196.08 418.415C1195.51 418.714 1194.79 418.863 1193.92 418.863ZM1194.75 416.467C1195.38 416.467 1195.88 416.325 1196.26 416.041C1196.63 415.757 1196.91 415.399 1197.09 414.966C1197.27 414.518 1197.36 414.062 1197.38 413.599C1197.39 413.331 1197.4 413.047 1197.4 412.748C1197.4 412.435 1197.39 412.143 1197.38 411.875C1197.36 411.427 1197.26 411.001 1197.07 410.598C1196.87 410.18 1196.58 409.836 1196.21 409.567C1195.84 409.299 1195.35 409.164 1194.75 409.164C1194.12 409.164 1193.62 409.306 1193.24 409.59C1192.88 409.859 1192.62 410.217 1192.46 410.665C1192.29 411.113 1192.19 411.606 1192.16 412.143C1192.15 412.591 1192.15 413.039 1192.16 413.487C1192.19 414.025 1192.29 414.518 1192.46 414.966C1192.62 415.414 1192.88 415.78 1193.24 416.063C1193.62 416.332 1194.12 416.467 1194.75 416.467Z" fill="white"/>
<path d="M866.377 383.499H637.564V435.301H866.377V383.499Z" fill="#2C2233"/>
<path d="M714.366 418.275C713.032 418.275 711.885 418.059 710.926 417.625C709.967 417.177 709.217 416.498 708.677 415.587C708.137 414.661 707.845 413.511 707.8 412.137C707.786 411.495 707.777 410.861 707.777 410.233C707.777 409.606 707.786 408.964 707.8 408.307C707.845 406.948 708.146 405.813 708.699 404.902C709.254 403.991 710.012 403.304 710.971 402.841C711.946 402.379 713.077 402.147 714.366 402.147C715.656 402.147 716.788 402.379 717.762 402.841C718.737 403.304 719.502 403.991 720.055 404.902C720.61 405.813 720.91 406.948 720.955 408.307C720.986 408.964 721 409.606 721 410.233C721 410.861 720.986 411.495 720.955 412.137C720.91 413.511 720.617 414.661 720.078 415.587C719.538 416.498 718.782 417.177 717.807 417.625C716.848 418.059 715.701 418.275 714.366 418.275ZM714.366 415.699C715.341 415.699 716.136 415.415 716.75 414.848C717.365 414.265 717.694 413.325 717.739 412.025C717.77 411.368 717.784 410.764 717.784 410.211C717.784 409.644 717.77 409.039 717.739 408.397C717.71 407.531 717.545 406.829 717.244 406.291C716.96 405.739 716.57 405.343 716.075 405.104C715.58 404.85 715.011 404.723 714.366 404.723C713.736 404.723 713.174 404.85 712.68 405.104C712.185 405.343 711.788 405.739 711.488 406.291C711.204 406.829 711.046 407.531 711.016 408.397C711.001 409.039 710.993 409.644 710.993 410.211C710.993 410.764 711.001 411.368 711.016 412.025C711.06 413.325 711.391 414.265 712.005 414.848C712.62 415.415 713.408 415.699 714.366 415.699ZM724.222 418.051C724.073 418.051 723.946 417.999 723.84 417.894C723.736 417.79 723.683 417.663 723.683 417.513V406.941C723.683 406.791 723.736 406.664 723.84 406.56C723.946 406.455 724.073 406.403 724.222 406.403H726.066C726.217 406.403 726.345 406.455 726.449 406.56C726.554 406.664 726.606 406.791 726.606 406.941V407.859C726.997 407.381 727.491 406.985 728.09 406.672C728.706 406.343 729.462 406.179 730.361 406.179C731.276 406.179 732.07 406.388 732.745 406.806C733.42 407.209 733.937 407.784 734.297 408.531C734.672 409.278 734.859 410.174 734.859 411.219V417.513C734.859 417.663 734.807 417.79 734.701 417.894C734.597 417.999 734.47 418.051 734.319 418.051H732.34C732.191 418.051 732.063 417.999 731.958 417.894C731.854 417.79 731.801 417.663 731.801 417.513V411.353C731.801 410.487 731.584 409.808 731.148 409.315C730.73 408.822 730.114 408.576 729.305 408.576C728.526 408.576 727.903 408.822 727.438 409.315C726.974 409.808 726.741 410.487 726.741 411.353V417.513C726.741 417.663 726.689 417.79 726.584 417.894C726.48 417.999 726.352 418.051 726.201 418.051H724.222ZM743.001 422.979C741.906 422.979 741.006 422.837 740.302 422.553C739.597 422.27 739.043 421.926 738.638 421.523C738.233 421.12 737.941 420.717 737.761 420.313C737.595 419.925 737.505 419.619 737.491 419.395C737.476 419.246 737.521 419.111 737.626 418.992C737.746 418.887 737.881 418.835 738.031 418.835H739.987C740.136 418.835 740.257 418.865 740.347 418.925C740.437 418.999 740.512 419.126 740.572 419.305C740.662 419.5 740.781 419.709 740.932 419.933C741.081 420.157 741.306 420.343 741.606 420.493C741.921 420.657 742.348 420.739 742.888 420.739C743.457 420.739 743.937 420.657 744.327 420.493C744.717 420.328 745.009 420.052 745.204 419.664C745.414 419.276 745.519 418.738 745.519 418.051V416.528C745.159 416.961 744.694 417.312 744.125 417.581C743.57 417.849 742.88 417.984 742.056 417.984C741.247 417.984 740.549 417.857 739.965 417.603C739.38 417.334 738.892 416.968 738.503 416.505C738.112 416.028 737.813 415.468 737.604 414.825C737.408 414.183 737.296 413.474 737.266 412.697C737.251 412.294 737.251 411.891 737.266 411.488C737.296 410.741 737.408 410.047 737.604 409.405C737.798 408.763 738.09 408.203 738.481 407.725C738.885 407.232 739.38 406.851 739.965 406.582C740.549 406.313 741.247 406.179 742.056 406.179C742.911 406.179 743.63 406.343 744.215 406.672C744.799 406.985 745.279 407.381 745.654 407.859V406.963C745.654 406.799 745.706 406.664 745.811 406.56C745.915 406.455 746.043 406.403 746.194 406.403H748.015C748.164 406.403 748.292 406.455 748.397 406.56C748.501 406.664 748.555 406.799 748.555 406.963L748.577 417.76C748.577 418.835 748.375 419.761 747.97 420.537C747.565 421.314 746.95 421.911 746.126 422.329C745.317 422.763 744.274 422.979 743.001 422.979ZM742.888 415.609C743.502 415.609 743.997 415.475 744.372 415.206C744.746 414.937 745.024 414.587 745.204 414.153C745.384 413.72 745.488 413.28 745.519 412.832C745.533 412.638 745.542 412.391 745.542 412.093C745.542 411.794 745.533 411.555 745.519 411.376C745.488 410.913 745.384 410.472 745.204 410.054C745.024 409.621 744.746 409.27 744.372 409.001C743.997 408.718 743.502 408.576 742.888 408.576C742.273 408.576 741.778 408.718 741.404 409.001C741.029 409.27 740.759 409.629 740.594 410.077C740.444 410.525 740.354 411.017 740.325 411.555C740.294 411.913 740.294 412.279 740.325 412.653C740.354 413.175 740.444 413.668 740.594 414.131C740.759 414.579 741.029 414.937 741.404 415.206C741.778 415.475 742.273 415.609 742.888 415.609ZM756.744 418.275C755.546 418.275 754.534 418.066 753.709 417.648C752.899 417.23 752.276 416.64 751.842 415.878C751.422 415.117 751.183 414.228 751.123 413.213C751.107 412.944 751.1 412.615 751.1 412.227C751.1 411.839 751.107 411.51 751.123 411.241C751.183 410.211 751.43 409.323 751.865 408.576C752.314 407.814 752.944 407.224 753.754 406.806C754.579 406.388 755.575 406.179 756.744 406.179C757.914 406.179 758.903 406.388 759.713 406.806C760.538 407.224 761.167 407.814 761.602 408.576C762.051 409.323 762.306 410.211 762.366 411.241C762.382 411.51 762.389 411.839 762.389 412.227C762.389 412.615 762.382 412.944 762.366 413.213C762.306 414.228 762.058 415.117 761.624 415.878C761.204 416.64 760.583 417.23 759.758 417.648C758.948 418.066 757.943 418.275 756.744 418.275ZM756.744 416.057C757.538 416.057 758.154 415.811 758.588 415.318C759.023 414.811 759.263 414.071 759.308 413.101C759.323 412.877 759.33 412.585 759.33 412.227C759.33 411.869 759.323 411.577 759.308 411.353C759.263 410.398 759.023 409.666 758.588 409.158C758.154 408.651 757.538 408.397 756.744 408.397C755.95 408.397 755.335 408.651 754.9 409.158C754.466 409.666 754.226 410.398 754.181 411.353C754.165 411.577 754.158 411.869 754.158 412.227C754.158 412.585 754.165 412.877 754.181 413.101C754.226 414.071 754.466 414.811 754.9 415.318C755.335 415.811 755.95 416.057 756.744 416.057ZM765.42 418.051C765.27 418.051 765.143 417.999 765.038 417.894C764.932 417.79 764.88 417.663 764.88 417.513V406.941C764.88 406.791 764.932 406.664 765.038 406.56C765.143 406.455 765.27 406.403 765.42 406.403H767.287C767.451 406.403 767.579 406.455 767.669 406.56C767.774 406.664 767.826 406.791 767.826 406.941V417.513C767.826 417.663 767.774 417.79 767.669 417.894C767.579 417.999 767.451 418.051 767.287 418.051H765.42ZM765.33 404.477C765.166 404.477 765.031 404.432 764.925 404.342C764.836 404.238 764.791 404.103 764.791 403.939V402.326C764.791 402.177 764.836 402.05 764.925 401.945C765.031 401.841 765.166 401.789 765.33 401.789H767.377C767.541 401.789 767.676 401.841 767.781 401.945C767.887 402.05 767.939 402.177 767.939 402.326V403.939C767.939 404.103 767.887 404.238 767.781 404.342C767.676 404.432 767.541 404.477 767.377 404.477H765.33ZM771.811 418.051C771.66 418.051 771.532 417.999 771.428 417.894C771.323 417.79 771.271 417.663 771.271 417.513V406.941C771.271 406.791 771.323 406.664 771.428 406.56C771.532 406.455 771.66 406.403 771.811 406.403H773.655C773.804 406.403 773.932 406.455 774.037 406.56C774.141 406.664 774.194 406.791 774.194 406.941V407.859C774.584 407.381 775.078 406.985 775.678 406.672C776.293 406.343 777.05 406.179 777.95 406.179C778.863 406.179 779.659 406.388 780.333 406.806C781.008 407.209 781.525 407.784 781.885 408.531C782.259 409.278 782.447 410.174 782.447 411.219V417.513C782.447 417.663 782.394 417.79 782.29 417.894C782.184 417.999 782.056 418.051 781.907 418.051H779.929C779.778 418.051 779.65 417.999 779.546 417.894C779.441 417.79 779.389 417.663 779.389 417.513V411.353C779.389 410.487 779.171 409.808 778.737 409.315C778.317 408.822 777.702 408.576 776.893 408.576C776.113 408.576 775.49 408.822 775.026 409.315C774.561 409.808 774.329 410.487 774.329 411.353V417.513C774.329 417.663 774.276 417.79 774.172 417.894C774.066 417.999 773.939 418.051 773.79 418.051H771.811ZM790.587 422.979C789.493 422.979 788.593 422.837 787.889 422.553C787.185 422.27 786.63 421.926 786.225 421.523C785.82 421.12 785.528 420.717 785.348 420.313C785.183 419.925 785.094 419.619 785.078 419.395C785.063 419.246 785.108 419.111 785.213 418.992C785.332 418.887 785.467 418.835 785.618 418.835H787.574C787.725 418.835 787.844 418.865 787.934 418.925C788.024 418.999 788.098 419.126 788.159 419.305C788.249 419.5 788.368 419.709 788.519 419.933C788.669 420.157 788.894 420.343 789.193 420.493C789.508 420.657 789.935 420.739 790.475 420.739C791.044 420.739 791.525 420.657 791.914 420.493C792.303 420.328 792.596 420.052 792.791 419.664C793.001 419.276 793.106 418.738 793.106 418.051V416.528C792.746 416.961 792.281 417.312 791.712 417.581C791.157 417.849 790.468 417.984 789.643 417.984C788.833 417.984 788.136 417.857 787.552 417.603C786.967 417.334 786.479 416.968 786.09 416.505C785.701 416.028 785.4 415.468 785.19 414.825C784.995 414.183 784.883 413.474 784.853 412.697C784.838 412.294 784.838 411.891 784.853 411.488C784.883 410.741 784.995 410.047 785.19 409.405C785.386 408.763 785.678 408.203 786.068 407.725C786.472 407.232 786.967 406.851 787.552 406.582C788.136 406.313 788.833 406.179 789.643 406.179C790.497 406.179 791.217 406.343 791.802 406.672C792.386 406.985 792.866 407.381 793.241 407.859V406.963C793.241 406.799 793.293 406.664 793.398 406.56C793.504 406.455 793.63 406.403 793.781 406.403H795.602C795.752 406.403 795.879 406.455 795.984 406.56C796.09 406.664 796.142 406.799 796.142 406.963L796.164 417.76C796.164 418.835 795.962 419.761 795.557 420.537C795.152 421.314 794.538 421.911 793.713 422.329C792.904 422.763 791.862 422.979 790.587 422.979ZM790.475 415.609C791.089 415.609 791.584 415.475 791.959 415.206C792.334 414.937 792.611 414.587 792.791 414.153C792.971 413.72 793.076 413.28 793.106 412.832C793.121 412.638 793.128 412.391 793.128 412.093C793.128 411.794 793.121 411.555 793.106 411.376C793.076 410.913 792.971 410.472 792.791 410.054C792.611 409.621 792.334 409.27 791.959 409.001C791.584 408.718 791.089 408.576 790.475 408.576C789.861 408.576 789.366 408.718 788.991 409.001C788.616 409.27 788.346 409.629 788.181 410.077C788.031 410.525 787.941 411.017 787.911 411.555C787.882 411.913 787.882 412.279 787.911 412.653C787.941 413.175 788.031 413.668 788.181 414.131C788.346 414.579 788.616 414.937 788.991 415.206C789.366 415.475 789.861 415.609 790.475 415.609Z" fill="white"/>
<path d="M526.352 395.315C525.565 395.315 524.884 395.22 524.311 395.029C523.737 394.839 523.26 394.592 522.877 394.29C522.506 393.976 522.225 393.64 522.034 393.282C521.843 392.912 521.742 392.548 521.73 392.19C521.73 392.089 521.764 392.011 521.832 391.955C521.91 391.888 522 391.854 522.101 391.854H523.619C523.732 391.854 523.827 391.876 523.906 391.921C523.985 391.966 524.052 392.056 524.108 392.19C524.21 392.492 524.373 392.733 524.598 392.912C524.834 393.092 525.104 393.22 525.407 393.299C525.711 393.366 526.031 393.4 526.368 393.4C527.043 393.4 527.577 393.243 527.971 392.929C528.375 392.604 528.578 392.145 528.578 391.552C528.578 390.958 528.392 390.532 528.021 390.275C527.65 390.006 527.133 389.872 526.47 389.872H524.732C524.609 389.872 524.508 389.838 524.429 389.771C524.35 389.692 524.311 389.592 524.311 389.468V388.763C524.311 388.651 524.333 388.556 524.378 388.477C524.435 388.388 524.491 388.315 524.547 388.259L527.566 385.319H522.742C522.619 385.319 522.518 385.28 522.439 385.201C522.371 385.123 522.338 385.028 522.338 384.916V383.807C522.338 383.684 522.371 383.583 522.439 383.504C522.518 383.426 522.619 383.387 522.742 383.387H529.978C530.101 383.387 530.202 383.426 530.281 383.504C530.36 383.583 530.399 383.684 530.399 383.807V384.815C530.399 384.916 530.377 385.005 530.332 385.084C530.287 385.162 530.236 385.229 530.18 385.285L527.262 388.276L527.465 388.292C528.151 388.348 528.758 388.505 529.286 388.763C529.826 389.009 530.242 389.373 530.534 389.855C530.838 390.336 530.99 390.941 530.99 391.669C530.99 392.431 530.787 393.086 530.382 393.635C529.989 394.172 529.444 394.587 528.746 394.878C528.049 395.169 527.251 395.315 526.352 395.315ZM539.952 395.315C539.367 395.315 538.85 395.22 538.4 395.029C537.962 394.828 537.596 394.548 537.304 394.189C537.012 393.831 536.787 393.411 536.63 392.929C536.472 392.436 536.382 391.899 536.36 391.316C536.348 391.115 536.343 390.936 536.343 390.779C536.343 390.611 536.348 390.426 536.36 390.224C536.382 389.664 536.467 389.144 536.613 388.662C536.77 388.18 536.995 387.76 537.287 387.402C537.591 387.032 537.962 386.747 538.4 386.545C538.85 386.344 539.367 386.243 539.952 386.243C540.559 386.243 541.071 386.349 541.487 386.562C541.914 386.764 542.268 387.027 542.549 387.352V383.622C542.549 383.51 542.583 383.415 542.65 383.336C542.729 383.258 542.83 383.219 542.954 383.219H544.388C544.5 383.219 544.596 383.258 544.674 383.336C544.753 383.415 544.792 383.51 544.792 383.622V394.744C544.792 394.856 544.753 394.951 544.674 395.029C544.596 395.108 544.5 395.147 544.388 395.147H543.055C542.932 395.147 542.83 395.108 542.752 395.029C542.684 394.951 542.65 394.856 542.65 394.744V394.122C542.369 394.469 542.01 394.755 541.571 394.979C541.144 395.203 540.604 395.315 539.952 395.315ZM540.576 393.517C541.048 393.517 541.425 393.411 541.706 393.198C541.987 392.985 542.195 392.716 542.33 392.392C542.465 392.056 542.538 391.714 542.549 391.367C542.561 391.165 542.566 390.952 542.566 390.728C542.566 390.493 542.561 390.275 542.549 390.073C542.538 389.737 542.459 389.418 542.313 389.116C542.167 388.802 541.953 388.544 541.672 388.343C541.391 388.141 541.026 388.04 540.576 388.04C540.104 388.04 539.727 388.147 539.446 388.36C539.176 388.561 538.979 388.83 538.856 389.166C538.732 389.502 538.659 389.872 538.637 390.275C538.625 390.611 538.625 390.947 538.637 391.283C538.659 391.686 538.732 392.056 538.856 392.392C538.979 392.728 539.176 393.002 539.446 393.215C539.727 393.416 540.104 393.517 540.576 393.517ZM549.586 395.315C549.002 395.315 548.473 395.203 548.001 394.979C547.529 394.744 547.152 394.436 546.871 394.055C546.601 393.663 546.466 393.226 546.466 392.744C546.466 391.96 546.781 391.339 547.411 390.88C548.052 390.409 548.895 390.096 549.941 389.939L552.251 389.603V389.25C552.251 388.78 552.133 388.416 551.897 388.158C551.661 387.9 551.256 387.772 550.683 387.772C550.278 387.772 549.946 387.856 549.688 388.024C549.44 388.18 549.255 388.393 549.131 388.662C549.041 388.808 548.912 388.88 548.743 388.88H547.411C547.287 388.88 547.191 388.847 547.124 388.78C547.068 388.712 547.04 388.623 547.04 388.511C547.051 388.332 547.124 388.113 547.259 387.856C547.394 387.598 547.607 387.352 547.9 387.116C548.192 386.87 548.569 386.663 549.03 386.495C549.491 386.327 550.047 386.243 550.699 386.243C551.408 386.243 552.004 386.332 552.487 386.512C552.982 386.68 553.375 386.909 553.668 387.2C553.96 387.492 554.174 387.833 554.309 388.225C554.444 388.617 554.511 389.032 554.511 389.468V394.744C554.511 394.856 554.472 394.951 554.393 395.029C554.314 395.108 554.219 395.147 554.106 395.147H552.74C552.616 395.147 552.515 395.108 552.437 395.029C552.369 394.951 552.335 394.856 552.335 394.744V394.088C552.189 394.301 551.992 394.503 551.745 394.693C551.498 394.872 551.194 395.024 550.834 395.147C550.486 395.259 550.07 395.315 549.586 395.315ZM550.16 393.719C550.553 393.719 550.907 393.635 551.222 393.467C551.548 393.299 551.801 393.041 551.981 392.694C552.172 392.336 552.268 391.888 552.268 391.35V390.997L550.581 391.266C549.918 391.367 549.423 391.529 549.097 391.753C548.771 391.977 548.608 392.252 548.608 392.576C548.608 392.823 548.681 393.036 548.827 393.215C548.985 393.383 549.182 393.512 549.418 393.601C549.654 393.68 549.901 393.719 550.16 393.719ZM558.03 398.339C557.94 398.339 557.862 398.305 557.794 398.238C557.727 398.171 557.693 398.092 557.693 398.003C557.693 397.958 557.693 397.913 557.693 397.868C557.704 397.835 557.727 397.79 557.76 397.734L559.076 394.626L555.838 387.016C555.793 386.904 555.77 386.825 555.77 386.78C555.782 386.68 555.821 386.596 555.888 386.528C555.956 386.45 556.04 386.411 556.141 386.411H557.507C557.642 386.411 557.744 386.444 557.811 386.512C557.878 386.579 557.929 386.652 557.963 386.73L560.206 392.224L562.516 386.73C562.55 386.64 562.601 386.568 562.668 386.512C562.736 386.444 562.837 386.411 562.972 386.411H564.321C564.411 386.411 564.49 386.444 564.557 386.512C564.636 386.579 564.675 386.657 564.675 386.747C564.675 386.814 564.653 386.904 564.608 387.016L559.835 398.02C559.79 398.109 559.734 398.182 559.666 398.238C559.599 398.305 559.498 398.339 559.363 398.339H558.03ZM569.188 395.315C568.513 395.315 567.934 395.236 567.451 395.08C566.979 394.923 566.591 394.727 566.287 394.492C565.984 394.256 565.759 394.021 565.613 393.786C565.466 393.551 565.388 393.355 565.376 393.198C565.365 393.075 565.399 392.98 565.478 392.912C565.568 392.834 565.663 392.795 565.764 392.795H567.097C567.142 392.795 567.181 392.8 567.215 392.812C567.249 392.823 567.293 392.856 567.35 392.912C567.496 393.036 567.648 393.164 567.805 393.299C567.974 393.433 568.17 393.551 568.395 393.652C568.62 393.741 568.901 393.786 569.239 393.786C569.677 393.786 570.043 393.702 570.335 393.534C570.638 393.355 570.79 393.103 570.79 392.778C570.79 392.543 570.723 392.352 570.588 392.207C570.464 392.061 570.228 391.932 569.88 391.82C569.531 391.697 569.036 391.568 568.395 391.434C567.766 391.288 567.243 391.104 566.827 390.88C566.411 390.656 566.102 390.376 565.899 390.04C565.697 389.704 565.596 389.312 565.596 388.864C565.596 388.427 565.725 388.012 565.984 387.62C566.253 387.217 566.647 386.887 567.164 386.629C567.693 386.372 568.345 386.243 569.121 386.243C569.728 386.243 570.256 386.321 570.706 386.478C571.156 386.624 571.527 386.808 571.819 387.032C572.123 387.256 572.353 387.486 572.51 387.721C572.668 387.945 572.752 388.141 572.763 388.309C572.775 388.432 572.741 388.533 572.662 388.612C572.584 388.679 572.494 388.712 572.392 388.712H571.144C571.088 388.712 571.038 388.701 570.993 388.679C570.948 388.656 570.903 388.628 570.858 388.595C570.734 388.483 570.599 388.365 570.453 388.242C570.307 388.119 570.127 388.012 569.913 387.923C569.711 387.822 569.441 387.772 569.104 387.772C568.676 387.772 568.35 387.867 568.126 388.057C567.901 388.236 567.788 388.466 567.788 388.746C567.788 388.936 567.839 389.104 567.94 389.25C568.052 389.384 568.272 389.513 568.598 389.636C568.924 389.76 569.419 389.888 570.082 390.023C570.835 390.157 571.431 390.359 571.87 390.628C572.319 390.885 572.634 391.188 572.814 391.535C573.005 391.871 573.101 392.246 573.101 392.66C573.101 393.164 572.949 393.618 572.645 394.021C572.353 394.424 571.915 394.744 571.33 394.979C570.757 395.203 570.043 395.315 569.188 395.315Z" fill="#80708F"/>
<path d="M612.2 410.142C612.61 409.732 612.61 409.068 612.2 408.658L605.492 401.975C605.08 401.565 604.412 401.565 604.001 401.975C603.589 402.385 603.589 403.05 604.001 403.46L609.964 409.4L604.001 415.34C603.589 415.75 603.589 416.415 604.001 416.825C604.412 417.235 605.08 417.235 605.492 416.825L612.2 410.142ZM488.996 410.45H611.454V408.35H488.996V410.45Z" fill="#80708F"/>
<path d="M924.688 399.147C924.565 399.147 924.464 399.108 924.385 399.029C924.317 398.951 924.284 398.856 924.284 398.744V390.041L921.72 392.007C921.619 392.074 921.518 392.102 921.417 392.091C921.315 392.068 921.225 392.007 921.147 391.906L920.438 390.999C920.371 390.898 920.343 390.792 920.354 390.68C920.376 390.568 920.438 390.478 920.539 390.411L924.317 387.504C924.385 387.448 924.452 387.415 924.52 387.404C924.587 387.392 924.66 387.387 924.739 387.387H926.223C926.336 387.387 926.431 387.426 926.51 387.504C926.589 387.583 926.628 387.678 926.628 387.79V398.744C926.628 398.856 926.589 398.951 926.51 399.029C926.431 399.108 926.336 399.147 926.223 399.147H924.688ZM934.486 399.147C934.373 399.147 934.278 399.108 934.199 399.029C934.12 398.951 934.081 398.856 934.081 398.744V396.593H928.735C928.611 396.593 928.51 396.554 928.431 396.476C928.364 396.397 928.33 396.302 928.33 396.19V395.048C928.33 394.98 928.341 394.902 928.364 394.812C928.397 394.712 928.448 394.622 928.515 394.544L933.491 387.672C933.637 387.482 933.845 387.387 934.115 387.387H935.953C936.065 387.387 936.161 387.426 936.24 387.504C936.318 387.583 936.358 387.678 936.358 387.79V394.611H937.859C937.994 394.611 938.095 394.65 938.162 394.728C938.241 394.796 938.28 394.891 938.28 395.014V396.19C938.28 396.302 938.241 396.397 938.162 396.476C938.084 396.554 937.988 396.593 937.876 396.593H936.358V398.744C936.358 398.856 936.318 398.951 936.24 399.029C936.161 399.108 936.065 399.147 935.953 399.147H934.486ZM930.674 394.678H934.132V389.823L930.674 394.678ZM947.048 399.315C946.463 399.315 945.946 399.22 945.496 399.029C945.057 398.828 944.692 398.548 944.4 398.189C944.107 397.831 943.882 397.411 943.725 396.929C943.568 396.436 943.478 395.899 943.455 395.316C943.444 395.115 943.438 394.936 943.438 394.779C943.438 394.611 943.444 394.426 943.455 394.224C943.478 393.664 943.562 393.144 943.708 392.662C943.866 392.18 944.09 391.76 944.383 391.402C944.686 391.032 945.057 390.747 945.496 390.545C945.946 390.344 946.463 390.243 947.048 390.243C947.655 390.243 948.166 390.349 948.582 390.562C949.01 390.764 949.364 391.027 949.645 391.352V387.622C949.645 387.51 949.679 387.415 949.746 387.336C949.825 387.258 949.926 387.219 950.05 387.219H951.483C951.596 387.219 951.691 387.258 951.77 387.336C951.849 387.415 951.888 387.51 951.888 387.622V398.744C951.888 398.856 951.849 398.951 951.77 399.029C951.691 399.108 951.596 399.147 951.483 399.147H950.151C950.027 399.147 949.926 399.108 949.847 399.029C949.78 398.951 949.746 398.856 949.746 398.744V398.122C949.465 398.469 949.105 398.755 948.667 398.979C948.239 399.203 947.7 399.315 947.048 399.315ZM947.672 397.517C948.144 397.517 948.52 397.411 948.802 397.198C949.083 396.985 949.291 396.716 949.426 396.392C949.56 396.056 949.634 395.714 949.645 395.367C949.656 395.165 949.662 394.952 949.662 394.728C949.662 394.493 949.656 394.275 949.645 394.073C949.634 393.737 949.555 393.418 949.409 393.116C949.263 392.802 949.049 392.544 948.768 392.343C948.487 392.141 948.121 392.04 947.672 392.04C947.199 392.04 946.823 392.147 946.542 392.36C946.272 392.561 946.075 392.83 945.951 393.166C945.828 393.502 945.755 393.872 945.732 394.275C945.721 394.611 945.721 394.947 945.732 395.283C945.755 395.686 945.828 396.056 945.951 396.392C946.075 396.728 946.272 397.002 946.542 397.215C946.823 397.416 947.199 397.517 947.672 397.517ZM956.683 399.315C956.099 399.315 955.57 399.203 955.098 398.979C954.626 398.744 954.249 398.436 953.968 398.055C953.698 397.663 953.563 397.226 953.563 396.744C953.563 395.96 953.878 395.339 954.508 394.88C955.148 394.409 955.992 394.096 957.037 393.939L959.348 393.603V393.25C959.348 392.78 959.23 392.416 958.994 392.158C958.758 391.9 958.353 391.772 957.779 391.772C957.375 391.772 957.043 391.856 956.784 392.024C956.537 392.18 956.352 392.393 956.228 392.662C956.138 392.808 956.009 392.88 955.84 392.88H954.508C954.384 392.88 954.288 392.847 954.221 392.78C954.165 392.712 954.137 392.623 954.137 392.511C954.148 392.332 954.221 392.113 954.356 391.856C954.491 391.598 954.704 391.352 954.997 391.116C955.289 390.87 955.666 390.663 956.127 390.495C956.588 390.327 957.144 390.243 957.796 390.243C958.505 390.243 959.101 390.332 959.584 390.512C960.079 390.68 960.472 390.909 960.765 391.2C961.057 391.492 961.271 391.833 961.406 392.225C961.54 392.617 961.608 393.032 961.608 393.468V398.744C961.608 398.856 961.569 398.951 961.49 399.029C961.411 399.108 961.316 399.147 961.203 399.147H959.837C959.713 399.147 959.612 399.108 959.533 399.029C959.466 398.951 959.432 398.856 959.432 398.744V398.088C959.286 398.301 959.089 398.503 958.842 398.693C958.595 398.872 958.291 399.024 957.931 399.147C957.583 399.259 957.167 399.315 956.683 399.315ZM957.257 397.719C957.65 397.719 958.004 397.635 958.319 397.467C958.645 397.299 958.898 397.041 959.078 396.694C959.269 396.336 959.365 395.888 959.365 395.35V394.997L957.678 395.266C957.015 395.367 956.52 395.529 956.194 395.753C955.868 395.977 955.705 396.252 955.705 396.576C955.705 396.823 955.778 397.036 955.924 397.215C956.082 397.383 956.278 397.512 956.515 397.601C956.751 397.68 956.998 397.719 957.257 397.719ZM965.126 402.339C965.036 402.339 964.957 402.305 964.89 402.238C964.822 402.171 964.788 402.092 964.788 402.003C964.788 401.958 964.788 401.913 964.788 401.868C964.8 401.835 964.822 401.79 964.856 401.734L966.171 398.626L962.933 391.016C962.888 390.904 962.866 390.825 962.866 390.78C962.877 390.68 962.916 390.596 962.984 390.528C963.051 390.45 963.136 390.411 963.237 390.411H964.603C964.738 390.411 964.839 390.444 964.906 390.512C964.974 390.579 965.025 390.652 965.058 390.73L967.301 396.224L969.612 390.73C969.646 390.64 969.696 390.568 969.764 390.512C969.831 390.444 969.932 390.411 970.067 390.411H971.416C971.506 390.411 971.585 390.444 971.653 390.512C971.731 390.579 971.771 390.657 971.771 390.747C971.771 390.814 971.748 390.904 971.703 391.016L966.93 402.02C966.885 402.109 966.829 402.182 966.762 402.238C966.694 402.305 966.593 402.339 966.458 402.339H965.126ZM976.284 399.315C975.609 399.315 975.03 399.236 974.546 399.08C974.074 398.923 973.686 398.727 973.383 398.492C973.079 398.256 972.854 398.021 972.708 397.786C972.562 397.551 972.483 397.355 972.472 397.198C972.461 397.075 972.494 396.98 972.573 396.912C972.663 396.834 972.759 396.795 972.86 396.795H974.192C974.237 396.795 974.277 396.8 974.31 396.812C974.344 396.823 974.389 396.856 974.445 396.912C974.591 397.036 974.743 397.164 974.901 397.299C975.069 397.433 975.266 397.551 975.491 397.652C975.716 397.741 975.997 397.786 976.334 397.786C976.773 397.786 977.138 397.702 977.43 397.534C977.734 397.355 977.886 397.103 977.886 396.778C977.886 396.543 977.818 396.352 977.683 396.207C977.56 396.061 977.324 395.932 976.975 395.82C976.626 395.697 976.132 395.568 975.491 395.434C974.861 395.288 974.338 395.104 973.922 394.88C973.506 394.656 973.197 394.376 972.995 394.04C972.792 393.704 972.691 393.312 972.691 392.864C972.691 392.427 972.821 392.012 973.079 391.62C973.349 391.217 973.743 390.887 974.26 390.629C974.788 390.372 975.44 390.243 976.216 390.243C976.823 390.243 977.352 390.321 977.801 390.478C978.251 390.624 978.622 390.808 978.915 391.032C979.218 391.256 979.449 391.486 979.606 391.721C979.763 391.945 979.848 392.141 979.859 392.309C979.87 392.432 979.836 392.533 979.758 392.612C979.679 392.679 979.589 392.712 979.488 392.712H978.24C978.184 392.712 978.133 392.701 978.088 392.679C978.043 392.656 977.998 392.628 977.953 392.595C977.83 392.483 977.695 392.365 977.548 392.242C977.402 392.119 977.222 392.012 977.009 391.923C976.806 391.822 976.537 391.772 976.199 391.772C975.772 391.772 975.446 391.867 975.221 392.057C974.996 392.236 974.884 392.466 974.884 392.746C974.884 392.936 974.934 393.104 975.036 393.25C975.148 393.384 975.367 393.513 975.693 393.636C976.019 393.76 976.514 393.888 977.177 394.023C977.931 394.157 978.527 394.359 978.965 394.628C979.415 394.885 979.73 395.188 979.91 395.535C980.101 395.871 980.196 396.246 980.196 396.66C980.196 397.164 980.044 397.618 979.741 398.021C979.449 398.424 979.01 398.744 978.425 398.979C977.852 399.203 977.138 399.315 976.284 399.315Z" fill="#80708F"/>
<path d="M1013.8 414.142C1014.21 413.732 1014.21 413.068 1013.8 412.658L1007.09 405.975C1006.68 405.565 1006.01 405.565 1005.6 405.975C1005.19 406.385 1005.19 407.05 1005.6 407.46L1011.56 413.4L1005.6 419.34C1005.19 419.75 1005.19 420.415 1005.6 420.825C1006.01 421.235 1006.68 421.235 1007.09 420.825L1013.8 414.142ZM890.596 414.45H1013.05V412.35H890.596V414.45Z" fill="#80708F"/>
</svg>
