<svg width="1504" height="816" viewBox="0 0 1504 816" fill="none" xmlns="http://www.w3.org/2000/svg">
<rect width="1504" height="816" fill="#F9F5F2"/>
<path d="M237.762 297.538L329.236 293.666L418.804 310.874L510.788 289.364L779.034 306.142L866.155 346.583L958.17 332.816L1048.23 391.755L1130.45 293.666L1222.59 338.444L1242.17 362.796V566.204L237.762 566.204V297.538Z" fill="#FFC227"/>
<path d="M206.478 300.641C205.398 300.641 204.468 300.371 203.688 299.831C202.92 299.279 202.332 298.505 201.924 297.509C201.516 296.501 201.312 295.301 201.312 293.909C201.312 292.481 201.54 291.233 201.996 290.165C202.452 289.097 203.088 288.269 203.904 287.681C204.732 287.081 205.692 286.781 206.784 286.781C207.684 286.781 208.476 286.949 209.16 287.285C209.844 287.621 210.378 288.101 210.762 288.725L209.124 289.931C208.812 289.511 208.458 289.193 208.062 288.977C207.666 288.749 207.24 288.635 206.784 288.635C206.292 288.635 205.854 288.749 205.47 288.977C205.098 289.193 204.78 289.523 204.516 289.967C204.252 290.399 204.054 290.939 203.922 291.587C203.79 292.223 203.724 292.961 203.724 293.801C203.724 294.629 203.784 295.355 203.904 295.979C204.024 296.603 204.198 297.125 204.426 297.545C204.666 297.965 204.96 298.283 205.308 298.499C205.656 298.715 206.052 298.823 206.496 298.823C207.228 298.823 207.816 298.595 208.26 298.139C208.716 297.683 208.944 297.083 208.944 296.339C208.944 295.547 208.734 294.929 208.314 294.485C207.906 294.041 207.336 293.819 206.604 293.819C205.872 293.819 205.212 294.035 204.624 294.467C204.048 294.887 203.598 295.487 203.274 296.267V294.377C203.43 293.909 203.694 293.507 204.066 293.171C204.438 292.823 204.894 292.559 205.434 292.379C205.974 292.187 206.556 292.091 207.18 292.091C207.996 292.091 208.704 292.265 209.304 292.613C209.916 292.961 210.384 293.447 210.708 294.071C211.044 294.683 211.212 295.409 211.212 296.249C211.212 297.113 211.008 297.875 210.6 298.535C210.204 299.195 209.646 299.711 208.926 300.083C208.218 300.455 207.402 300.641 206.478 300.641ZM213.015 300.461V286.961H215.247V300.461H213.015ZM219.819 300.461L216.741 294.701L218.235 292.991L222.285 300.371V300.461H219.819ZM215.067 297.437V295.223L219.441 290.381H221.601V290.471L217.821 294.485L217.569 294.611L215.067 297.437Z" fill="#ACACAC"/>
<path d="M206.028 418.641C205.26 418.641 204.528 418.521 203.832 418.281C203.136 418.041 202.512 417.699 201.96 417.255C201.408 416.811 200.958 416.295 200.61 415.707L202.374 414.537C202.842 415.245 203.376 415.791 203.976 416.175C204.588 416.547 205.248 416.733 205.956 416.733C206.76 416.733 207.39 416.553 207.846 416.193C208.302 415.833 208.53 415.335 208.53 414.699C208.53 413.967 208.23 413.415 207.63 413.043C207.042 412.659 206.196 412.467 205.092 412.467H204.084V410.559H204.732C205.836 410.559 206.676 410.379 207.252 410.019C207.84 409.659 208.134 409.119 208.134 408.399C208.134 407.859 207.93 407.433 207.522 407.121C207.126 406.797 206.592 406.635 205.92 406.635C205.296 406.635 204.702 406.791 204.138 407.103C203.586 407.415 203.094 407.865 202.662 408.453L201.276 407.229C201.636 406.725 202.062 406.293 202.554 405.933C203.058 405.561 203.604 405.279 204.192 405.087C204.792 404.883 205.404 404.781 206.028 404.781C206.916 404.781 207.696 404.919 208.368 405.195C209.04 405.459 209.562 405.837 209.934 406.329C210.306 406.821 210.492 407.391 210.492 408.039C210.492 408.699 210.324 409.275 209.988 409.767C209.652 410.259 209.184 410.643 208.584 410.919C207.984 411.195 207.276 411.333 206.46 411.333V411.243C207.876 411.243 208.98 411.555 209.772 412.179C210.576 412.791 210.978 413.649 210.978 414.753C210.978 415.521 210.768 416.199 210.348 416.787C209.94 417.375 209.364 417.831 208.62 418.155C207.876 418.479 207.012 418.641 206.028 418.641ZM213.015 418.461V404.961H215.247V418.461H213.015ZM219.819 418.461L216.741 412.701L218.235 410.991L222.285 418.371V418.461H219.819ZM215.067 415.437V413.223L219.441 408.381H221.601V408.471L217.821 412.485L217.569 412.611L215.067 415.437Z" fill="#ACACAC"/>
<path d="M216.929 536.641C215.897 536.641 215.009 536.365 214.265 535.813C213.521 535.249 212.945 534.451 212.537 533.419C212.141 532.375 211.943 531.139 211.943 529.711C211.943 528.271 212.141 527.035 212.537 526.003C212.945 524.971 213.521 524.179 214.265 523.627C215.009 523.063 215.897 522.781 216.929 522.781C217.961 522.781 218.849 523.063 219.593 523.627C220.337 524.179 220.907 524.971 221.303 526.003C221.711 527.035 221.915 528.271 221.915 529.711C221.915 531.139 221.711 532.375 221.303 533.419C220.907 534.451 220.337 535.249 219.593 535.813C218.849 536.365 217.961 536.641 216.929 536.641ZM216.929 534.859C217.505 534.859 217.979 534.673 218.351 534.301C218.723 533.917 218.999 533.347 219.179 532.591C219.371 531.823 219.467 530.863 219.467 529.711C219.467 528.547 219.371 527.587 219.179 526.831C218.999 526.075 218.723 525.511 218.351 525.139C217.979 524.755 217.505 524.563 216.929 524.563C216.365 524.563 215.891 524.755 215.507 525.139C215.135 525.511 214.853 526.075 214.661 526.831C214.481 527.587 214.391 528.547 214.391 529.711C214.391 530.863 214.481 531.823 214.661 532.591C214.853 533.347 215.135 533.917 215.507 534.301C215.891 534.673 216.365 534.859 216.929 534.859Z" fill="#ACACAC"/>
<path d="M239.396 594.493V580.993H242.528L246.308 590.965H245.948L249.728 580.993H252.86V594.493H250.52L250.61 582.631H250.844L246.704 594.493H245.174L241.034 582.631H241.268L241.358 594.493H239.396ZM258.029 594.673C257.057 594.673 256.295 594.439 255.743 593.971C255.203 593.491 254.933 592.831 254.933 591.991C254.933 591.259 255.167 590.635 255.635 590.119C256.103 589.591 256.817 589.159 257.777 588.823C258.737 588.487 259.943 588.235 261.395 588.067V589.327C259.955 589.555 258.899 589.861 258.227 590.245C257.555 590.617 257.219 591.109 257.219 591.721C257.219 592.165 257.357 592.507 257.633 592.747C257.909 592.987 258.305 593.107 258.821 593.107C259.253 593.107 259.691 592.999 260.135 592.783C260.579 592.555 260.999 592.219 261.395 591.775V592.945C260.939 593.509 260.423 593.941 259.847 594.241C259.271 594.529 258.665 594.673 258.029 594.673ZM261.503 594.493C261.359 593.893 261.287 593.323 261.287 592.783V587.545C261.287 586.993 261.125 586.567 260.801 586.267C260.477 585.967 260.027 585.817 259.451 585.817C258.923 585.817 258.461 585.955 258.065 586.231C257.669 586.495 257.375 586.885 257.183 587.401L255.383 586.807C255.599 586.267 255.911 585.805 256.319 585.421C256.739 585.037 257.225 584.743 257.777 584.539C258.341 584.335 258.947 584.233 259.595 584.233C260.375 584.233 261.053 584.365 261.629 584.629C262.217 584.881 262.667 585.247 262.979 585.727C263.303 586.195 263.465 586.741 263.465 587.365V592.783C263.465 593.431 263.555 594.001 263.735 594.493H261.503ZM265.501 597.373V595.663H266.743C267.535 595.663 268.063 595.465 268.327 595.069C268.603 594.685 268.597 594.127 268.309 593.395L264.781 584.413H267.103L269.821 592.369H269.641L272.377 584.413H274.465L270.649 594.367C270.361 595.111 270.025 595.711 269.641 596.167C269.269 596.623 268.837 596.953 268.345 597.157C267.865 597.361 267.307 597.463 266.671 597.463C266.419 597.463 266.191 597.451 265.987 597.427C265.795 597.415 265.633 597.397 265.501 597.373Z" fill="#ACACAC"/>
<path d="M316.424 594.493V592.711H318.062C318.65 592.711 319.094 592.543 319.394 592.207C319.706 591.859 319.862 591.349 319.862 590.677V580.993H322.22V590.929C322.22 592.117 321.902 593.053 321.266 593.737C320.63 594.421 319.766 594.763 318.674 594.763C318.254 594.763 317.852 594.739 317.468 594.691C317.084 594.655 316.736 594.589 316.424 594.493ZM333.269 584.413V594.493H331.037V584.413H333.269ZM327.113 584.413V591.145C327.113 592.285 327.611 592.855 328.607 592.855C329.027 592.855 329.459 592.735 329.903 592.495C330.347 592.243 330.785 591.877 331.217 591.397V592.639C330.713 593.311 330.155 593.821 329.543 594.169C328.931 594.505 328.283 594.673 327.599 594.673C326.735 594.673 326.063 594.403 325.583 593.863C325.115 593.311 324.881 592.543 324.881 591.559V584.413H327.113ZM335.867 594.493V584.413H338.099V594.493H335.867ZM342.023 594.493V587.761C342.023 586.621 341.525 586.051 340.529 586.051C340.109 586.051 339.677 586.177 339.233 586.429C338.789 586.669 338.351 587.029 337.919 587.509V586.267C338.423 585.595 338.981 585.091 339.593 584.755C340.205 584.407 340.853 584.233 341.537 584.233C342.401 584.233 343.067 584.509 343.535 585.061C344.015 585.601 344.255 586.363 344.255 587.347V594.493H342.023Z" fill="#ACACAC"/>
<path d="M387.424 594.493V592.711H389.062C389.65 592.711 390.094 592.543 390.394 592.207C390.706 591.859 390.862 591.349 390.862 590.677V580.993H393.22V590.929C393.22 592.117 392.902 593.053 392.266 593.737C391.63 594.421 390.766 594.763 389.674 594.763C389.254 594.763 388.852 594.739 388.468 594.691C388.084 594.655 387.736 594.589 387.424 594.493ZM404.269 584.413V594.493H402.037V584.413H404.269ZM398.113 584.413V591.145C398.113 592.285 398.611 592.855 399.607 592.855C400.027 592.855 400.459 592.735 400.903 592.495C401.347 592.243 401.785 591.877 402.217 591.397V592.639C401.713 593.311 401.155 593.821 400.543 594.169C399.931 594.505 399.283 594.673 398.599 594.673C397.735 594.673 397.063 594.403 396.583 593.863C396.115 593.311 395.881 592.543 395.881 591.559V584.413H398.113ZM406.867 594.493V580.993H409.135V594.493H406.867Z" fill="#ACACAC"/>
<path d="M455.214 591.379V589.561H460.902V591.379H455.214ZM452.316 594.493L456.708 580.993H459.678L464.07 594.493H461.55L457.914 582.649H458.184L454.548 594.493H452.316ZM473.962 584.413V594.493H471.73V584.413H473.962ZM467.806 584.413V591.145C467.806 592.285 468.304 592.855 469.3 592.855C469.72 592.855 470.152 592.735 470.596 592.495C471.04 592.243 471.478 591.877 471.91 591.397V592.639C471.406 593.311 470.848 593.821 470.236 594.169C469.624 594.505 468.976 594.673 468.292 594.673C467.428 594.673 466.756 594.403 466.276 593.863C465.808 593.311 465.574 592.543 465.574 591.559V584.413H467.806ZM480.647 590.371C479.795 590.371 479.051 590.245 478.415 589.993C477.791 589.741 477.305 589.387 476.957 588.931C476.621 588.475 476.453 587.947 476.453 587.347C476.453 586.711 476.621 586.159 476.957 585.691C477.305 585.223 477.791 584.863 478.415 584.611C479.051 584.359 479.795 584.233 480.647 584.233C481.475 584.233 482.195 584.359 482.807 584.611C483.419 584.863 483.893 585.223 484.229 585.691C484.565 586.159 484.733 586.711 484.733 587.347C484.733 587.947 484.565 588.475 484.229 588.931C483.893 589.387 483.419 589.741 482.807 589.993C482.195 590.245 481.475 590.371 480.647 590.371ZM480.647 589.039C481.271 589.039 481.757 588.889 482.105 588.589C482.465 588.289 482.645 587.875 482.645 587.347C482.645 586.783 482.465 586.345 482.105 586.033C481.757 585.721 481.271 585.565 480.647 585.565C480.011 585.565 479.513 585.721 479.153 586.033C478.805 586.345 478.631 586.783 478.631 587.347C478.631 587.875 478.805 588.289 479.153 588.589C479.513 588.889 480.011 589.039 480.647 589.039ZM480.647 597.463C479.111 597.463 477.923 597.271 477.083 596.887C476.243 596.515 475.823 595.993 475.823 595.321C475.823 594.841 475.985 594.439 476.309 594.115C476.645 593.779 477.125 593.527 477.749 593.359C478.373 593.179 479.129 593.089 480.017 593.089V593.539C479.297 593.539 478.733 593.647 478.325 593.863C477.929 594.079 477.731 594.385 477.731 594.781C477.731 595.189 477.989 595.507 478.505 595.735C479.033 595.963 479.765 596.077 480.701 596.077C481.625 596.077 482.345 595.957 482.861 595.717C483.377 595.489 483.635 595.165 483.635 594.745C483.635 594.481 483.473 594.253 483.149 594.061C482.837 593.869 482.393 593.761 481.817 593.737L479.423 593.629C478.463 593.581 477.719 593.395 477.191 593.071C476.663 592.747 476.399 592.333 476.399 591.829C476.399 591.301 476.675 590.839 477.227 590.443C477.791 590.035 478.571 589.741 479.567 589.561L480.017 590.101C479.537 590.185 479.159 590.317 478.883 590.497C478.619 590.677 478.487 590.893 478.487 591.145C478.487 591.301 478.577 591.439 478.757 591.559C478.937 591.667 479.195 591.733 479.531 591.757L482.357 591.955C483.449 592.039 484.277 592.291 484.841 592.711C485.405 593.131 485.687 593.725 485.687 594.493C485.687 595.429 485.243 596.155 484.355 596.671C483.479 597.199 482.243 597.463 480.647 597.463ZM485.831 584.053V585.565H485.651C485.279 585.565 484.931 585.601 484.607 585.673C484.283 585.733 484.013 585.835 483.797 585.979L483.329 585.547C483.521 585.031 483.785 584.641 484.121 584.377C484.457 584.101 484.847 583.963 485.291 583.963C485.471 583.963 485.651 583.993 485.831 584.053Z" fill="#ACACAC"/>
<path d="M534.004 594.673C532.804 594.673 531.73 594.415 530.782 593.899C529.834 593.371 529.102 592.633 528.586 591.685L530.422 590.587C530.83 591.319 531.34 591.877 531.952 592.261C532.576 592.633 533.26 592.819 534.004 592.819C534.82 592.819 535.462 592.657 535.93 592.333C536.398 591.997 536.638 591.565 536.65 591.037C536.662 590.581 536.536 590.209 536.272 589.921C536.008 589.633 535.654 589.393 535.21 589.201C534.766 589.009 534.28 588.829 533.752 588.661C533.236 588.493 532.708 588.313 532.168 588.121C531.64 587.917 531.154 587.671 530.71 587.383C530.278 587.083 529.924 586.711 529.648 586.267C529.384 585.811 529.252 585.241 529.252 584.557C529.252 583.813 529.444 583.159 529.828 582.595C530.212 582.031 530.752 581.593 531.448 581.281C532.144 580.969 532.954 580.813 533.878 580.813C534.91 580.813 535.834 581.035 536.65 581.479C537.466 581.911 538.102 582.535 538.558 583.351L536.884 584.467C536.56 583.867 536.14 583.405 535.624 583.081C535.108 582.757 534.526 582.595 533.878 582.595C533.158 582.595 532.576 582.757 532.132 583.081C531.688 583.405 531.466 583.837 531.466 584.377C531.466 584.773 531.604 585.097 531.88 585.349C532.156 585.601 532.522 585.817 532.978 585.997C533.434 586.177 533.926 586.345 534.454 586.501C534.994 586.657 535.534 586.837 536.074 587.041C536.614 587.233 537.1 587.479 537.532 587.779C537.976 588.079 538.33 588.463 538.594 588.931C538.858 589.399 538.978 589.981 538.954 590.677C538.942 591.481 538.726 592.183 538.306 592.783C537.898 593.383 537.322 593.851 536.578 594.187C535.846 594.511 534.988 594.673 534.004 594.673ZM545.491 594.673C544.507 594.673 543.649 594.457 542.917 594.025C542.197 593.593 541.633 592.987 541.225 592.207C540.829 591.415 540.631 590.497 540.631 589.453C540.631 588.397 540.823 587.479 541.207 586.699C541.591 585.919 542.131 585.313 542.827 584.881C543.535 584.449 544.363 584.233 545.311 584.233C546.691 584.233 547.771 584.737 548.551 585.745C549.331 586.753 549.721 588.157 549.721 589.957H542.449V588.535H548.029L547.597 589.093C547.597 587.989 547.405 587.161 547.021 586.609C546.637 586.045 546.067 585.763 545.311 585.763C544.483 585.763 543.859 586.051 543.439 586.627C543.019 587.203 542.809 588.055 542.809 589.183C542.809 590.467 543.037 591.433 543.493 592.081C543.961 592.729 544.651 593.053 545.563 593.053C546.115 593.053 546.601 592.921 547.021 592.657C547.441 592.393 547.819 591.961 548.155 591.361L549.667 592.099C549.259 592.927 548.689 593.563 547.957 594.007C547.237 594.451 546.415 594.673 545.491 594.673ZM551.822 597.373V584.413H554.054V597.373H551.822ZM556.952 594.673C556.244 594.673 555.596 594.487 555.008 594.115C554.432 593.731 553.97 593.191 553.622 592.495V591.073C553.994 591.757 554.396 592.273 554.828 592.621C555.272 592.969 555.74 593.143 556.232 593.143C556.724 593.143 557.132 593.011 557.456 592.747C557.792 592.471 558.044 592.057 558.212 591.505C558.38 590.941 558.464 590.257 558.464 589.453C558.464 588.637 558.38 587.953 558.212 587.401C558.044 586.849 557.792 586.441 557.456 586.177C557.132 585.901 556.724 585.763 556.232 585.763C555.716 585.763 555.236 585.937 554.792 586.285C554.36 586.633 553.97 587.149 553.622 587.833V586.411C553.97 585.715 554.432 585.181 555.008 584.809C555.596 584.425 556.244 584.233 556.952 584.233C557.72 584.233 558.392 584.449 558.968 584.881C559.544 585.313 559.988 585.919 560.3 586.699C560.624 587.479 560.786 588.397 560.786 589.453C560.786 590.497 560.624 591.415 560.3 592.207C559.988 592.987 559.544 593.593 558.968 594.025C558.392 594.457 557.72 594.673 556.952 594.673Z" fill="#ACACAC"/>
<path d="M609.778 594.673C608.578 594.673 607.546 594.397 606.682 593.845C605.818 593.293 605.158 592.501 604.702 591.469C604.246 590.425 604.018 589.183 604.018 587.743C604.018 586.291 604.246 585.049 604.702 584.017C605.158 582.985 605.818 582.193 606.682 581.641C607.546 581.089 608.578 580.813 609.778 580.813C610.978 580.813 612.01 581.089 612.874 581.641C613.738 582.193 614.398 582.985 614.854 584.017C615.31 585.049 615.538 586.291 615.538 587.743C615.538 589.183 615.31 590.425 614.854 591.469C614.398 592.501 613.738 593.293 612.874 593.845C612.01 594.397 610.978 594.673 609.778 594.673ZM609.778 592.819C610.318 592.819 610.792 592.711 611.2 592.495C611.608 592.279 611.944 591.961 612.208 591.541C612.484 591.109 612.688 590.575 612.82 589.939C612.964 589.303 613.036 588.571 613.036 587.743C613.036 586.903 612.964 586.171 612.82 585.547C612.688 584.911 612.484 584.383 612.208 583.963C611.944 583.531 611.608 583.207 611.2 582.991C610.792 582.775 610.318 582.667 609.778 582.667C609.238 582.667 608.764 582.775 608.356 582.991C607.948 583.207 607.606 583.531 607.33 583.963C607.066 584.383 606.862 584.911 606.718 585.547C606.586 586.171 606.52 586.903 606.52 587.743C606.52 588.571 606.586 589.303 606.718 589.939C606.862 590.575 607.066 591.109 607.33 591.541C607.606 591.961 607.948 592.279 608.356 592.495C608.764 592.711 609.238 592.819 609.778 592.819ZM622.104 594.673C621.168 594.673 620.346 594.457 619.638 594.025C618.942 593.593 618.396 592.987 618 592.207C617.616 591.415 617.424 590.497 617.424 589.453C617.424 588.397 617.622 587.479 618.018 586.699C618.414 585.919 618.966 585.313 619.674 584.881C620.394 584.449 621.228 584.233 622.176 584.233C622.848 584.233 623.472 584.377 624.048 584.665C624.624 584.941 625.104 585.331 625.488 585.835C625.872 586.339 626.118 586.921 626.226 587.581L624.12 587.761C624.024 587.149 623.79 586.663 623.418 586.303C623.058 585.943 622.62 585.763 622.104 585.763C621.312 585.763 620.712 586.081 620.304 586.717C619.896 587.341 619.692 588.253 619.692 589.453C619.692 590.629 619.902 591.529 620.322 592.153C620.754 592.777 621.384 593.089 622.212 593.089C622.752 593.089 623.226 592.909 623.634 592.549C624.042 592.177 624.336 591.649 624.516 590.965L626.226 591.451C626.034 592.123 625.74 592.699 625.344 593.179C624.948 593.659 624.468 594.031 623.904 594.295C623.352 594.547 622.752 594.673 622.104 594.673ZM631.567 594.673C630.607 594.673 629.899 594.475 629.443 594.079C628.987 593.683 628.759 593.059 628.759 592.207V585.169L628.993 580.993H630.973V591.541C630.973 591.889 631.015 592.165 631.099 592.369C631.195 592.573 631.345 592.723 631.549 592.819C631.753 592.903 632.029 592.945 632.377 592.945H633.331V594.493C633.055 594.553 632.767 594.595 632.467 594.619C632.167 594.655 631.867 594.673 631.567 594.673ZM627.157 586.033V584.413H633.331V586.033H627.157Z" fill="#ACACAC"/>
<path d="M677.396 594.493V580.993H679.844L686.036 590.785H685.694L685.604 580.993H687.71V594.493H685.622L679.088 584.143H679.412L679.502 594.493H677.396ZM694.575 594.673C693.627 594.673 692.805 594.463 692.109 594.043C691.425 593.623 690.897 593.023 690.525 592.243C690.165 591.463 689.985 590.533 689.985 589.453C689.985 588.373 690.165 587.443 690.525 586.663C690.897 585.883 691.425 585.283 692.109 584.863C692.805 584.443 693.627 584.233 694.575 584.233C695.523 584.233 696.339 584.443 697.023 584.863C697.719 585.283 698.247 585.883 698.607 586.663C698.979 587.443 699.165 588.373 699.165 589.453C699.165 590.533 698.979 591.463 698.607 592.243C698.247 593.023 697.719 593.623 697.023 594.043C696.339 594.463 695.523 594.673 694.575 594.673ZM694.575 593.143C695.355 593.143 695.943 592.837 696.339 592.225C696.735 591.601 696.933 590.677 696.933 589.453C696.933 588.229 696.735 587.311 696.339 586.699C695.943 586.075 695.355 585.763 694.575 585.763C693.807 585.763 693.219 586.075 692.811 586.699C692.415 587.311 692.217 588.229 692.217 589.453C692.217 590.677 692.415 591.601 692.811 592.225C693.219 592.837 693.807 593.143 694.575 593.143ZM703.622 594.493L699.968 584.413H702.416L705.044 592.765H704.666L707.312 584.413H709.328L705.674 594.493H703.622Z" fill="#ACACAC"/>
<path d="M754.664 594.493V592.639H756.05C756.782 592.639 757.418 592.537 757.958 592.333C758.498 592.117 758.954 591.805 759.326 591.397C759.71 590.977 759.992 590.467 760.172 589.867C760.364 589.255 760.46 588.547 760.46 587.743C760.46 586.951 760.364 586.255 760.172 585.655C759.992 585.043 759.71 584.533 759.326 584.125C758.954 583.705 758.498 583.393 757.958 583.189C757.418 582.973 756.782 582.865 756.05 582.865H754.664V580.993H756.23C757.622 580.993 758.816 581.263 759.812 581.803C760.808 582.343 761.57 583.117 762.098 584.125C762.638 585.121 762.908 586.327 762.908 587.743C762.908 589.147 762.638 590.353 762.098 591.361C761.57 592.369 760.808 593.143 759.812 593.683C758.816 594.223 757.622 594.493 756.23 594.493H754.664ZM752.396 594.493V580.993H754.754V594.493H752.396ZM769.651 594.673C768.667 594.673 767.809 594.457 767.077 594.025C766.357 593.593 765.793 592.987 765.385 592.207C764.989 591.415 764.791 590.497 764.791 589.453C764.791 588.397 764.983 587.479 765.367 586.699C765.751 585.919 766.291 585.313 766.987 584.881C767.695 584.449 768.523 584.233 769.471 584.233C770.851 584.233 771.931 584.737 772.711 585.745C773.491 586.753 773.881 588.157 773.881 589.957H766.609V588.535H772.189L771.757 589.093C771.757 587.989 771.565 587.161 771.181 586.609C770.797 586.045 770.227 585.763 769.471 585.763C768.643 585.763 768.019 586.051 767.599 586.627C767.179 587.203 766.969 588.055 766.969 589.183C766.969 590.467 767.197 591.433 767.653 592.081C768.121 592.729 768.811 593.053 769.723 593.053C770.275 593.053 770.761 592.921 771.181 592.657C771.601 592.393 771.979 591.961 772.315 591.361L773.827 592.099C773.419 592.927 772.849 593.563 772.117 594.007C771.397 594.451 770.575 594.673 769.651 594.673ZM780.177 594.673C779.241 594.673 778.419 594.457 777.711 594.025C777.015 593.593 776.469 592.987 776.073 592.207C775.689 591.415 775.497 590.497 775.497 589.453C775.497 588.397 775.695 587.479 776.091 586.699C776.487 585.919 777.039 585.313 777.747 584.881C778.467 584.449 779.301 584.233 780.249 584.233C780.921 584.233 781.545 584.377 782.121 584.665C782.697 584.941 783.177 585.331 783.561 585.835C783.945 586.339 784.191 586.921 784.299 587.581L782.193 587.761C782.097 587.149 781.863 586.663 781.491 586.303C781.131 585.943 780.693 585.763 780.177 585.763C779.385 585.763 778.785 586.081 778.377 586.717C777.969 587.341 777.765 588.253 777.765 589.453C777.765 590.629 777.975 591.529 778.395 592.153C778.827 592.777 779.457 593.089 780.285 593.089C780.825 593.089 781.299 592.909 781.707 592.549C782.115 592.177 782.409 591.649 782.589 590.965L784.299 591.451C784.107 592.123 783.813 592.699 783.417 593.179C783.021 593.659 782.541 594.031 781.977 594.295C781.425 594.547 780.825 594.673 780.177 594.673Z" fill="#ACACAC"/>
<path d="M826.424 594.493V592.711H828.062C828.65 592.711 829.094 592.543 829.394 592.207C829.706 591.859 829.862 591.349 829.862 590.677V580.993H832.22V590.929C832.22 592.117 831.902 593.053 831.266 593.737C830.63 594.421 829.766 594.763 828.674 594.763C828.254 594.763 827.852 594.739 827.468 594.691C827.084 594.655 826.736 594.589 826.424 594.493ZM837.381 594.673C836.409 594.673 835.647 594.439 835.095 593.971C834.555 593.491 834.285 592.831 834.285 591.991C834.285 591.259 834.519 590.635 834.987 590.119C835.455 589.591 836.169 589.159 837.129 588.823C838.089 588.487 839.295 588.235 840.747 588.067V589.327C839.307 589.555 838.251 589.861 837.579 590.245C836.907 590.617 836.571 591.109 836.571 591.721C836.571 592.165 836.709 592.507 836.985 592.747C837.261 592.987 837.657 593.107 838.173 593.107C838.605 593.107 839.043 592.999 839.487 592.783C839.931 592.555 840.351 592.219 840.747 591.775V592.945C840.291 593.509 839.775 593.941 839.199 594.241C838.623 594.529 838.017 594.673 837.381 594.673ZM840.855 594.493C840.711 593.893 840.639 593.323 840.639 592.783V587.545C840.639 586.993 840.477 586.567 840.153 586.267C839.829 585.967 839.379 585.817 838.803 585.817C838.275 585.817 837.813 585.955 837.417 586.231C837.021 586.495 836.727 586.885 836.535 587.401L834.735 586.807C834.951 586.267 835.263 585.805 835.671 585.421C836.091 585.037 836.577 584.743 837.129 584.539C837.693 584.335 838.299 584.233 838.947 584.233C839.727 584.233 840.405 584.365 840.981 584.629C841.569 584.881 842.019 585.247 842.331 585.727C842.655 586.195 842.817 586.741 842.817 587.365V592.783C842.817 593.431 842.907 594.001 843.087 594.493H840.855ZM845.41 594.493V584.413H847.642V594.493H845.41ZM851.566 594.493V587.761C851.566 586.621 851.068 586.051 850.072 586.051C849.652 586.051 849.22 586.177 848.776 586.429C848.332 586.669 847.894 587.029 847.462 587.509V586.267C847.966 585.595 848.524 585.091 849.136 584.755C849.748 584.407 850.396 584.233 851.08 584.233C851.944 584.233 852.61 584.509 853.078 585.061C853.558 585.601 853.798 586.363 853.798 587.347V594.493H851.566Z" fill="#ACACAC"/>
<path d="M898.396 594.493V580.993H900.754V594.493H898.396ZM900.664 582.955V580.993H907.072V582.955H900.664ZM900.664 588.733V586.771H905.47V588.733H900.664ZM912.153 594.673C911.169 594.673 910.311 594.457 909.579 594.025C908.859 593.593 908.295 592.987 907.887 592.207C907.491 591.415 907.293 590.497 907.293 589.453C907.293 588.397 907.485 587.479 907.869 586.699C908.253 585.919 908.793 585.313 909.489 584.881C910.197 584.449 911.025 584.233 911.973 584.233C913.353 584.233 914.433 584.737 915.213 585.745C915.993 586.753 916.383 588.157 916.383 589.957H909.111V588.535H914.691L914.259 589.093C914.259 587.989 914.067 587.161 913.683 586.609C913.299 586.045 912.729 585.763 911.973 585.763C911.145 585.763 910.521 586.051 910.101 586.627C909.681 587.203 909.471 588.055 909.471 589.183C909.471 590.467 909.699 591.433 910.155 592.081C910.623 592.729 911.313 593.053 912.225 593.053C912.777 593.053 913.263 592.921 913.683 592.657C914.103 592.393 914.481 591.961 914.817 591.361L916.329 592.099C915.921 592.927 915.351 593.563 914.619 594.007C913.899 594.451 913.077 594.673 912.153 594.673ZM918.484 594.493V580.993H920.716V592.423H920.5L919.906 594.493H918.484ZM923.38 594.673C922.696 594.673 922.084 594.511 921.544 594.187C921.016 593.851 920.596 593.395 920.284 592.819C919.984 592.243 919.834 591.583 919.834 590.839H920.716C920.716 591.595 920.896 592.183 921.256 592.603C921.616 593.023 922.12 593.233 922.768 593.233C923.548 593.233 924.136 592.915 924.532 592.279C924.928 591.643 925.126 590.701 925.126 589.453C925.126 588.229 924.94 587.311 924.568 586.699C924.196 586.075 923.638 585.763 922.894 585.763C922.39 585.763 921.91 585.943 921.454 586.303C921.01 586.651 920.62 587.161 920.284 587.833V586.411C920.632 585.715 921.1 585.181 921.688 584.809C922.288 584.425 922.948 584.233 923.668 584.233C924.424 584.233 925.084 584.449 925.648 584.881C926.224 585.313 926.668 585.919 926.98 586.699C927.292 587.479 927.448 588.397 927.448 589.453C927.448 590.497 927.28 591.415 926.944 592.207C926.608 592.987 926.134 593.593 925.522 594.025C924.91 594.457 924.196 594.673 923.38 594.673Z" fill="#ACACAC"/>
<path d="M971.396 594.493V580.993H974.528L978.308 590.965H977.948L981.728 580.993H984.86V594.493H982.52L982.61 582.631H982.844L978.704 594.493H977.174L973.034 582.631H973.268L973.358 594.493H971.396ZM990.029 594.673C989.057 594.673 988.295 594.439 987.743 593.971C987.203 593.491 986.933 592.831 986.933 591.991C986.933 591.259 987.167 590.635 987.635 590.119C988.103 589.591 988.817 589.159 989.777 588.823C990.737 588.487 991.943 588.235 993.395 588.067V589.327C991.955 589.555 990.899 589.861 990.227 590.245C989.555 590.617 989.219 591.109 989.219 591.721C989.219 592.165 989.357 592.507 989.633 592.747C989.909 592.987 990.305 593.107 990.821 593.107C991.253 593.107 991.691 592.999 992.135 592.783C992.579 592.555 992.999 592.219 993.395 591.775V592.945C992.939 593.509 992.423 593.941 991.847 594.241C991.271 594.529 990.665 594.673 990.029 594.673ZM993.503 594.493C993.359 593.893 993.287 593.323 993.287 592.783V587.545C993.287 586.993 993.125 586.567 992.801 586.267C992.477 585.967 992.027 585.817 991.451 585.817C990.923 585.817 990.461 585.955 990.065 586.231C989.669 586.495 989.375 586.885 989.183 587.401L987.383 586.807C987.599 586.267 987.911 585.805 988.319 585.421C988.739 585.037 989.225 584.743 989.777 584.539C990.341 584.335 990.947 584.233 991.595 584.233C992.375 584.233 993.053 584.365 993.629 584.629C994.217 584.881 994.667 585.247 994.979 585.727C995.303 586.195 995.465 586.741 995.465 587.365V592.783C995.465 593.431 995.555 594.001 995.735 594.493H993.503ZM998.059 594.493V584.413H1000.29V594.493H998.059ZM1000.11 588.085V586.753C1000.53 585.937 1000.99 585.319 1001.5 584.899C1002.01 584.479 1002.53 584.269 1003.06 584.269C1003.22 584.269 1003.36 584.281 1003.48 584.305C1003.6 584.329 1003.69 584.365 1003.76 584.413V586.321H1003.26C1002.55 586.321 1001.95 586.477 1001.44 586.789C1000.94 587.089 1000.49 587.521 1000.11 588.085Z" fill="#ACACAC"/>
<path d="M1049.21 591.379V589.561H1054.9V591.379H1049.21ZM1046.32 594.493L1050.71 580.993H1053.68L1058.07 594.493H1055.55L1051.91 582.649H1052.18L1048.55 594.493H1046.32ZM1059.75 597.373V584.413H1061.98V597.373H1059.75ZM1064.88 594.673C1064.17 594.673 1063.52 594.487 1062.94 594.115C1062.36 593.731 1061.9 593.191 1061.55 592.495V591.073C1061.92 591.757 1062.32 592.273 1062.76 592.621C1063.2 592.969 1063.67 593.143 1064.16 593.143C1064.65 593.143 1065.06 593.011 1065.38 592.747C1065.72 592.471 1065.97 592.057 1066.14 591.505C1066.31 590.941 1066.39 590.257 1066.39 589.453C1066.39 588.637 1066.31 587.953 1066.14 587.401C1065.97 586.849 1065.72 586.441 1065.38 586.177C1065.06 585.901 1064.65 585.763 1064.16 585.763C1063.64 585.763 1063.16 585.937 1062.72 586.285C1062.29 586.633 1061.9 587.149 1061.55 587.833V586.411C1061.9 585.715 1062.36 585.181 1062.94 584.809C1063.52 584.425 1064.17 584.233 1064.88 584.233C1065.65 584.233 1066.32 584.449 1066.9 584.881C1067.47 585.313 1067.92 585.919 1068.23 586.699C1068.55 587.479 1068.71 588.397 1068.71 589.453C1068.71 590.497 1068.55 591.415 1068.23 592.207C1067.92 592.987 1067.47 593.593 1066.9 594.025C1066.32 594.457 1065.65 594.673 1064.88 594.673ZM1070.82 594.493V584.413H1073.06V594.493H1070.82ZM1072.88 588.085V586.753C1073.3 585.937 1073.76 585.319 1074.26 584.899C1074.78 584.479 1075.3 584.269 1075.83 584.269C1075.98 584.269 1076.12 584.281 1076.24 584.305C1076.36 584.329 1076.46 584.365 1076.53 584.413V586.321H1076.03C1075.32 586.321 1074.71 586.477 1074.21 586.789C1073.7 587.089 1073.26 587.521 1072.88 588.085Z" fill="#ACACAC"/>
<path d="M1119.4 594.493V580.993H1122.53L1126.31 590.965H1125.95L1129.73 580.993H1132.86V594.493H1130.52L1130.61 582.631H1130.84L1126.7 594.493H1125.17L1121.03 582.631H1121.27L1121.36 594.493H1119.4ZM1138.03 594.673C1137.06 594.673 1136.3 594.439 1135.74 593.971C1135.2 593.491 1134.93 592.831 1134.93 591.991C1134.93 591.259 1135.17 590.635 1135.64 590.119C1136.1 589.591 1136.82 589.159 1137.78 588.823C1138.74 588.487 1139.94 588.235 1141.4 588.067V589.327C1139.96 589.555 1138.9 589.861 1138.23 590.245C1137.56 590.617 1137.22 591.109 1137.22 591.721C1137.22 592.165 1137.36 592.507 1137.63 592.747C1137.91 592.987 1138.31 593.107 1138.82 593.107C1139.25 593.107 1139.69 592.999 1140.14 592.783C1140.58 592.555 1141 592.219 1141.4 591.775V592.945C1140.94 593.509 1140.42 593.941 1139.85 594.241C1139.27 594.529 1138.67 594.673 1138.03 594.673ZM1141.5 594.493C1141.36 593.893 1141.29 593.323 1141.29 592.783V587.545C1141.29 586.993 1141.13 586.567 1140.8 586.267C1140.48 585.967 1140.03 585.817 1139.45 585.817C1138.92 585.817 1138.46 585.955 1138.07 586.231C1137.67 586.495 1137.38 586.885 1137.18 587.401L1135.38 586.807C1135.6 586.267 1135.91 585.805 1136.32 585.421C1136.74 585.037 1137.23 584.743 1137.78 584.539C1138.34 584.335 1138.95 584.233 1139.6 584.233C1140.38 584.233 1141.05 584.365 1141.63 584.629C1142.22 584.881 1142.67 585.247 1142.98 585.727C1143.3 586.195 1143.47 586.741 1143.47 587.365V592.783C1143.47 593.431 1143.56 594.001 1143.74 594.493H1141.5ZM1146.06 594.493V584.413H1148.29V594.493H1146.06ZM1148.11 588.085V586.753C1148.53 585.937 1148.99 585.319 1149.5 584.899C1150.01 584.479 1150.53 584.269 1151.06 584.269C1151.22 584.269 1151.36 584.281 1151.48 584.305C1151.6 584.329 1151.69 584.365 1151.76 584.413V586.321H1151.26C1150.55 586.321 1149.95 586.477 1149.44 586.789C1148.94 587.089 1148.49 587.521 1148.11 588.085Z" fill="#ACACAC"/>
<path d="M243.827 241.702C241.319 241.702 239.166 241.119 237.367 239.954C235.594 238.788 234.226 237.116 233.263 234.938C232.326 232.734 231.857 230.112 231.857 227.072C231.857 224.006 232.338 221.384 233.301 219.206C234.289 217.027 235.695 215.355 237.519 214.19C239.343 213.024 241.522 212.442 244.055 212.442C245.955 212.442 247.652 212.834 249.147 213.62C250.667 214.38 251.87 215.456 252.757 216.85C253.669 218.243 254.201 219.89 254.353 221.79L249.603 222.208C249.451 220.384 248.881 218.965 247.893 217.952C246.93 216.913 245.638 216.394 244.017 216.394C242.902 216.394 241.902 216.634 241.015 217.116C240.154 217.572 239.419 218.256 238.811 219.168C238.228 220.054 237.785 221.169 237.481 222.512C237.177 223.829 237.025 225.349 237.025 227.072C237.025 228.794 237.177 230.314 237.481 231.632C237.785 232.949 238.241 234.064 238.849 234.976C239.457 235.862 240.204 236.534 241.091 236.99C241.978 237.446 242.991 237.674 244.131 237.674C245.828 237.674 247.26 237.154 248.425 236.116C249.616 235.052 250.426 233.57 250.857 231.67L254.885 232.43C254.277 235.343 252.985 237.623 251.009 239.27C249.033 240.891 246.639 241.702 243.827 241.702ZM276.629 220.042V241.322H271.917V220.042H276.629ZM263.633 220.042V234.254C263.633 236.66 264.684 237.864 266.787 237.864C267.673 237.864 268.585 237.61 269.523 237.104C270.46 236.572 271.385 235.799 272.297 234.786V237.408C271.233 238.826 270.055 239.903 268.763 240.638C267.471 241.347 266.103 241.702 264.659 241.702C262.835 241.702 261.416 241.132 260.403 239.992C259.415 238.826 258.921 237.205 258.921 235.128V220.042H263.633ZM290.094 241.702C287.839 241.702 285.889 241.309 284.242 240.524C282.621 239.738 281.379 238.586 280.518 237.066L283.786 235.014C284.445 236.128 285.306 236.99 286.37 237.598C287.459 238.18 288.701 238.472 290.094 238.472C291.335 238.472 292.323 238.218 293.058 237.712C293.818 237.18 294.198 236.483 294.198 235.622C294.198 234.938 293.957 234.393 293.476 233.988C293.02 233.582 292.412 233.266 291.652 233.038C290.892 232.81 290.043 232.607 289.106 232.43C288.194 232.227 287.269 231.999 286.332 231.746C285.42 231.492 284.584 231.138 283.824 230.682C283.064 230.226 282.443 229.618 281.962 228.858C281.506 228.072 281.278 227.059 281.278 225.818C281.278 224.627 281.62 223.576 282.304 222.664C282.988 221.726 283.925 220.992 285.116 220.46C286.332 219.928 287.7 219.662 289.22 219.662C291.196 219.662 292.906 220.054 294.35 220.84C295.794 221.6 296.909 222.714 297.694 224.184L294.426 225.97C293.869 224.982 293.147 224.222 292.26 223.69C291.373 223.158 290.36 222.892 289.22 222.892C288.08 222.892 287.155 223.12 286.446 223.576C285.762 224.032 285.42 224.64 285.42 225.4C285.42 226.058 285.648 226.578 286.104 226.958C286.585 227.338 287.219 227.642 288.004 227.87C288.789 228.098 289.651 228.313 290.588 228.516C291.551 228.693 292.488 228.921 293.4 229.2C294.337 229.478 295.199 229.858 295.984 230.34C296.769 230.796 297.39 231.416 297.846 232.202C298.327 232.987 298.568 233.988 298.568 235.204C298.568 236.445 298.201 237.56 297.466 238.548C296.731 239.536 295.731 240.308 294.464 240.866C293.197 241.423 291.741 241.702 290.094 241.702ZM310.202 241.702C308.175 241.702 306.681 241.284 305.718 240.448C304.755 239.612 304.274 238.294 304.274 236.496V221.638L304.768 212.822H308.948V235.09C308.948 235.824 309.037 236.407 309.214 236.838C309.417 237.268 309.733 237.585 310.164 237.788C310.595 237.965 311.177 238.054 311.912 238.054H313.926V241.322C313.343 241.448 312.735 241.537 312.102 241.588C311.469 241.664 310.835 241.702 310.202 241.702ZM300.892 223.462V220.042H313.926V223.462H300.892ZM326.885 241.702C324.884 241.702 323.149 241.258 321.679 240.372C320.235 239.485 319.121 238.218 318.335 236.572C317.575 234.925 317.195 232.962 317.195 230.682C317.195 228.402 317.575 226.438 318.335 224.792C319.121 223.145 320.235 221.878 321.679 220.992C323.149 220.105 324.884 219.662 326.885 219.662C328.887 219.662 330.609 220.105 332.053 220.992C333.523 221.878 334.637 223.145 335.397 224.792C336.183 226.438 336.575 228.402 336.575 230.682C336.575 232.962 336.183 234.925 335.397 236.572C334.637 238.218 333.523 239.485 332.053 240.372C330.609 241.258 328.887 241.702 326.885 241.702ZM326.885 238.472C328.532 238.472 329.773 237.826 330.609 236.534C331.445 235.216 331.863 233.266 331.863 230.682C331.863 228.098 331.445 226.16 330.609 224.868C329.773 223.55 328.532 222.892 326.885 222.892C325.264 222.892 324.023 223.55 323.161 224.868C322.325 226.16 321.907 228.098 321.907 230.682C321.907 233.266 322.325 235.216 323.161 236.534C324.023 237.826 325.264 238.472 326.885 238.472ZM341.007 241.322V220.042H345.719V241.322H341.007ZM353.851 241.322V227.11C353.851 224.703 352.85 223.5 350.849 223.5C349.962 223.5 349.05 223.766 348.113 224.298C347.175 224.804 346.251 225.564 345.339 226.578V223.956C346.403 222.537 347.581 221.473 348.873 220.764C350.165 220.029 351.533 219.662 352.977 219.662C354.75 219.662 356.131 220.244 357.119 221.41C358.107 222.55 358.601 224.158 358.601 226.236V241.322H353.851ZM366.733 241.322V227.11C366.733 224.703 365.681 223.5 363.579 223.5C361.805 223.5 360.019 224.526 358.221 226.578V223.956C360.323 221.093 362.819 219.662 365.707 219.662C367.531 219.662 368.937 220.244 369.925 221.41C370.938 222.55 371.445 224.158 371.445 226.236V241.322H366.733ZM387.937 234.748V230.91H399.945V234.748H387.937ZM381.819 241.322L391.091 212.822H397.361L406.633 241.322H401.313L393.637 216.318H394.207L386.531 241.322H381.819ZM410.178 241.322V212.822H414.966V241.322H410.178ZM429.655 241.702C427.577 241.702 425.766 241.246 424.221 240.334C422.701 239.422 421.51 238.142 420.649 236.496C419.813 234.824 419.395 232.886 419.395 230.682C419.395 228.452 419.8 226.514 420.611 224.868C421.421 223.221 422.561 221.942 424.031 221.03C425.525 220.118 427.273 219.662 429.275 219.662C432.188 219.662 434.468 220.726 436.115 222.854C437.761 224.982 438.585 227.946 438.585 231.746H423.233V228.744H435.013L434.101 229.922C434.101 227.591 433.695 225.843 432.885 224.678C432.074 223.487 430.871 222.892 429.275 222.892C427.527 222.892 426.209 223.5 425.323 224.716C424.436 225.932 423.993 227.73 423.993 230.112C423.993 232.822 424.474 234.862 425.437 236.23C426.425 237.598 427.881 238.282 429.807 238.282C430.972 238.282 431.998 238.003 432.885 237.446C433.771 236.888 434.569 235.976 435.279 234.71L438.471 236.268C437.609 238.016 436.406 239.358 434.861 240.296C433.341 241.233 431.605 241.702 429.655 241.702ZM443.02 241.322V220.042H447.732V241.322H443.02ZM447.352 227.794V224.982C448.239 223.259 449.214 221.954 450.278 221.068C451.368 220.181 452.47 219.738 453.584 219.738C453.914 219.738 454.205 219.763 454.458 219.814C454.712 219.864 454.914 219.94 455.066 220.042V224.07H454.002C452.508 224.07 451.228 224.399 450.164 225.058C449.1 225.691 448.163 226.603 447.352 227.794ZM465.987 241.702C463.96 241.702 462.466 241.284 461.503 240.448C460.54 239.612 460.059 238.294 460.059 236.496V221.638L460.553 212.822H464.733V235.09C464.733 235.824 464.822 236.407 464.999 236.838C465.202 237.268 465.518 237.585 465.949 237.788C466.38 237.965 466.962 238.054 467.697 238.054H469.711V241.322C469.128 241.448 468.52 241.537 467.887 241.588C467.254 241.664 466.62 241.702 465.987 241.702ZM456.677 223.462V220.042H469.711V223.462H456.677ZM481.987 241.702C479.732 241.702 477.781 241.309 476.135 240.524C474.513 239.738 473.272 238.586 472.411 237.066L475.679 235.014C476.337 236.128 477.199 236.99 478.263 237.598C479.352 238.18 480.593 238.472 481.987 238.472C483.228 238.472 484.216 238.218 484.951 237.712C485.711 237.18 486.091 236.483 486.091 235.622C486.091 234.938 485.85 234.393 485.369 233.988C484.913 233.582 484.305 233.266 483.545 233.038C482.785 232.81 481.936 232.607 480.999 232.43C480.087 232.227 479.162 231.999 478.225 231.746C477.313 231.492 476.477 231.138 475.717 230.682C474.957 230.226 474.336 229.618 473.855 228.858C473.399 228.072 473.171 227.059 473.171 225.818C473.171 224.627 473.513 223.576 474.197 222.664C474.881 221.726 475.818 220.992 477.009 220.46C478.225 219.928 479.593 219.662 481.113 219.662C483.089 219.662 484.799 220.054 486.243 220.84C487.687 221.6 488.801 222.714 489.587 224.184L486.319 225.97C485.761 224.982 485.039 224.222 484.153 223.69C483.266 223.158 482.253 222.892 481.113 222.892C479.973 222.892 479.048 223.12 478.339 223.576C477.655 224.032 477.313 224.64 477.313 225.4C477.313 226.058 477.541 226.578 477.997 226.958C478.478 227.338 479.111 227.642 479.897 227.87C480.682 228.098 481.543 228.313 482.481 228.516C483.443 228.693 484.381 228.921 485.293 229.2C486.23 229.478 487.091 229.858 487.877 230.34C488.662 230.796 489.283 231.416 489.739 232.202C490.22 232.987 490.461 233.988 490.461 235.204C490.461 236.445 490.093 237.56 489.359 238.548C488.624 239.536 487.623 240.308 486.357 240.866C485.09 241.423 483.633 241.702 481.987 241.702ZM512.685 241.702C510.177 241.702 508.023 241.119 506.225 239.954C504.451 238.788 503.083 237.116 502.121 234.938C501.183 232.734 500.715 230.112 500.715 227.072C500.715 224.006 501.196 221.384 502.159 219.206C503.147 217.027 504.553 215.355 506.377 214.19C508.201 213.024 510.379 212.442 512.913 212.442C514.813 212.442 516.51 212.834 518.005 213.62C519.525 214.38 520.728 215.456 521.615 216.85C522.527 218.243 523.059 219.89 523.211 221.79L518.461 222.208C518.309 220.384 517.739 218.965 516.751 217.952C515.788 216.913 514.496 216.394 512.875 216.394C511.76 216.394 510.759 216.634 509.873 217.116C509.011 217.572 508.277 218.256 507.669 219.168C507.086 220.054 506.643 221.169 506.339 222.512C506.035 223.829 505.883 225.349 505.883 227.072C505.883 228.794 506.035 230.314 506.339 231.632C506.643 232.949 507.099 234.064 507.707 234.976C508.315 235.862 509.062 236.534 509.949 236.99C510.835 237.446 511.849 237.674 512.989 237.674C514.686 237.674 516.117 237.154 517.283 236.116C518.473 235.052 519.284 233.57 519.715 231.67L523.743 232.43C523.135 235.343 521.843 237.623 519.867 239.27C517.891 240.891 515.497 241.702 512.685 241.702ZM527.778 241.322V220.042H532.49V241.322H527.778ZM532.11 227.794V224.982C532.997 223.259 533.972 221.954 535.036 221.068C536.125 220.181 537.227 219.738 538.342 219.738C538.671 219.738 538.963 219.763 539.216 219.814C539.469 219.864 539.672 219.94 539.824 220.042V224.07H538.76C537.265 224.07 535.986 224.399 534.922 225.058C533.858 225.691 532.921 226.603 532.11 227.794ZM552.227 241.702C550.15 241.702 548.338 241.246 546.793 240.334C545.273 239.422 544.082 238.142 543.221 236.496C542.385 234.824 541.967 232.886 541.967 230.682C541.967 228.452 542.372 226.514 543.183 224.868C543.994 223.221 545.134 221.942 546.603 221.03C548.098 220.118 549.846 219.662 551.847 219.662C554.76 219.662 557.04 220.726 558.687 222.854C560.334 224.982 561.157 227.946 561.157 231.746H545.805V228.744H557.585L556.673 229.922C556.673 227.591 556.268 225.843 555.457 224.678C554.646 223.487 553.443 222.892 551.847 222.892C550.099 222.892 548.782 223.5 547.895 224.716C547.008 225.932 546.565 227.73 546.565 230.112C546.565 232.822 547.046 234.862 548.009 236.23C548.997 237.598 550.454 238.282 552.379 238.282C553.544 238.282 554.57 238.003 555.457 237.446C556.344 236.888 557.142 235.976 557.851 234.71L561.043 236.268C560.182 238.016 558.978 239.358 557.433 240.296C555.913 241.233 554.178 241.702 552.227 241.702ZM570.684 241.702C568.632 241.702 567.024 241.208 565.858 240.22C564.718 239.206 564.148 237.813 564.148 236.04C564.148 234.494 564.642 233.177 565.63 232.088C566.618 230.973 568.126 230.061 570.152 229.352C572.179 228.642 574.725 228.11 577.79 227.756V230.416C574.75 230.897 572.521 231.543 571.102 232.354C569.684 233.139 568.974 234.178 568.974 235.47C568.974 236.407 569.266 237.129 569.848 237.636C570.431 238.142 571.267 238.396 572.356 238.396C573.268 238.396 574.193 238.168 575.13 237.712C576.068 237.23 576.954 236.521 577.79 235.584V238.054C576.828 239.244 575.738 240.156 574.522 240.79C573.306 241.398 572.027 241.702 570.684 241.702ZM578.018 241.322C577.714 240.055 577.562 238.852 577.562 237.712V226.654C577.562 225.488 577.22 224.589 576.536 223.956C575.852 223.322 574.902 223.006 573.686 223.006C572.572 223.006 571.596 223.297 570.76 223.88C569.924 224.437 569.304 225.26 568.898 226.35L565.098 225.096C565.554 223.956 566.213 222.98 567.074 222.17C567.961 221.359 568.987 220.738 570.152 220.308C571.343 219.877 572.622 219.662 573.99 219.662C575.637 219.662 577.068 219.94 578.284 220.498C579.526 221.03 580.476 221.802 581.134 222.816C581.818 223.804 582.16 224.956 582.16 226.274V237.712C582.16 239.08 582.35 240.283 582.73 241.322H578.018ZM595.387 241.702C593.361 241.702 591.866 241.284 590.903 240.448C589.941 239.612 589.459 238.294 589.459 236.496V221.638L589.953 212.822H594.133V235.09C594.133 235.824 594.222 236.407 594.399 236.838C594.602 237.268 594.919 237.585 595.349 237.788C595.78 237.965 596.363 238.054 597.097 238.054H599.111V241.322C598.529 241.448 597.921 241.537 597.287 241.588C596.654 241.664 596.021 241.702 595.387 241.702ZM586.077 223.462V220.042H599.111V223.462H586.077ZM612.641 241.702C610.564 241.702 608.752 241.246 607.207 240.334C605.687 239.422 604.496 238.142 603.635 236.496C602.799 234.824 602.381 232.886 602.381 230.682C602.381 228.452 602.786 226.514 603.597 224.868C604.408 223.221 605.548 221.942 607.017 221.03C608.512 220.118 610.26 219.662 612.261 219.662C615.174 219.662 617.454 220.726 619.101 222.854C620.748 224.982 621.571 227.946 621.571 231.746H606.219V228.744H617.999L617.087 229.922C617.087 227.591 616.682 225.843 615.871 224.678C615.06 223.487 613.857 222.892 612.261 222.892C610.513 222.892 609.196 223.5 608.309 224.716C607.422 225.932 606.979 227.73 606.979 230.112C606.979 232.822 607.46 234.862 608.423 236.23C609.411 237.598 610.868 238.282 612.793 238.282C613.958 238.282 614.984 238.003 615.871 237.446C616.758 236.888 617.556 235.976 618.265 234.71L621.457 236.268C620.596 238.016 619.392 239.358 617.847 240.296C616.327 241.233 614.592 241.702 612.641 241.702ZM639.193 241.322V212.822H643.905V241.322H639.193ZM633.075 241.702C631.453 241.702 630.035 241.246 628.819 240.334C627.603 239.422 626.653 238.142 625.969 236.496C625.31 234.824 624.981 232.886 624.981 230.682C624.981 228.452 625.31 226.514 625.969 224.868C626.653 223.221 627.603 221.942 628.819 221.03C630.035 220.118 631.453 219.662 633.075 219.662C634.569 219.662 635.925 220.067 637.141 220.878C638.382 221.663 639.37 222.79 640.105 224.26V227.262C639.319 225.818 638.458 224.728 637.521 223.994C636.609 223.259 635.633 222.892 634.595 222.892C633.556 222.892 632.682 223.183 631.973 223.766C631.289 224.323 630.769 225.184 630.415 226.35C630.06 227.515 629.883 228.959 629.883 230.682C629.883 232.379 630.06 233.823 630.415 235.014C630.769 236.179 631.289 237.053 631.973 237.636C632.682 238.193 633.556 238.472 634.595 238.472C635.684 238.472 636.685 238.104 637.597 237.37C638.534 236.635 639.37 235.546 640.105 234.102V237.104C639.37 238.573 638.382 239.713 637.141 240.524C635.925 241.309 634.569 241.702 633.075 241.702Z" fill="black"/>
</svg>
