<svg width="1504" height="816" viewBox="0 0 1504 816" fill="none" xmlns="http://www.w3.org/2000/svg">
<rect width="1504" height="816" fill="#F9F5F2"/>
<path d="M260 489.186V464.538H264.981L277.108 484.115H277.177V464.538H280.784V489.186H275.803L263.676 469.608H263.607V489.186H260ZM292.663 489.538C287.682 489.538 284.384 486.017 284.384 480.735C284.384 475.453 287.785 471.932 292.697 471.932C297.507 471.932 300.908 475.242 300.393 481.369H287.854C288.06 484.397 289.777 486.333 292.732 486.333C295.033 486.333 296.717 485.136 297.438 483.235L300.324 484.326C299.328 487.425 296.442 489.538 292.663 489.538ZM288.025 478.833H297.06C296.751 476.474 295.171 475.031 292.732 475.031C290.258 475.031 288.575 476.474 288.025 478.833ZM306.216 489.186L301.406 472.284H304.979L308.415 485.629H308.483L312.4 472.284H316.247L320.164 485.629H320.232L323.668 472.284H327L322.225 489.186H317.999L314.186 476.228H314.117L310.304 489.186H306.216Z" fill="black"/>
<path d="M670 489.189L679.426 464.782H684.364L694.031 489.189H689.681L687.644 483.889H675.973L673.971 489.189H670ZM677.285 480.402H686.332L681.808 468.547H681.739L677.285 480.402ZM696.178 489.189V472.453H698.768L699.182 474.789C700.356 473.08 701.945 472.313 703.982 472.313C704.465 472.313 704.914 472.383 705.397 472.453V475.626H703.982C701.081 475.626 699.631 477.02 699.631 479.81V489.189H696.178ZM714.526 489.538C709.519 489.538 706.066 486.051 706.066 480.821C706.066 475.591 709.519 472.104 714.526 472.104C718.634 472.104 721.466 474.44 722.225 478.101L719.256 479.112C718.669 476.811 716.977 475.382 714.56 475.382C711.522 475.382 709.623 477.543 709.623 480.821C709.623 484.064 711.487 486.26 714.56 486.26C717.046 486.26 718.773 484.831 719.498 482.494L722.467 483.366C721.604 487.027 718.703 489.538 714.526 489.538ZM725.277 489.189V464.538H728.729V474.405C729.903 472.941 731.63 472.104 733.874 472.104C737.465 472.104 740.02 474.231 740.02 478.485V489.189H736.567V479.461C736.567 476.706 735.083 475.451 732.873 475.451C730.283 475.451 728.729 477.125 728.729 479.6V489.189H725.277ZM743.991 489.189V472.453H747.443V489.189H743.991ZM743.991 469.454V464.782H747.443V469.454H743.991ZM755.309 489.189L749.44 472.453H753.168L757.657 485.842H757.726L762.249 472.453H765.736L759.867 489.189H755.309ZM774.608 489.538C769.601 489.538 766.287 486.051 766.287 480.821C766.287 475.591 769.705 472.104 774.642 472.104C779.476 472.104 782.895 475.382 782.377 481.448H769.774C769.981 484.447 771.708 486.365 774.677 486.365C776.99 486.365 778.682 485.179 779.407 483.296L782.308 484.377C781.306 487.446 778.406 489.538 774.608 489.538ZM769.947 478.938H779.028C778.717 476.602 777.128 475.172 774.677 475.172C772.191 475.172 770.499 476.602 769.947 478.938ZM792.437 489.503C787.811 489.503 784.461 486.016 784.461 480.821C784.461 475.626 787.811 472.139 792.437 472.139C794.578 472.139 796.304 472.906 797.547 474.091V464.782H801V489.189H798.376L797.996 487.062C796.753 488.561 794.854 489.503 792.437 489.503ZM788.018 480.821C788.018 484.098 789.882 486.295 792.886 486.295C795.855 486.295 797.789 484.098 797.789 480.821C797.789 477.543 795.89 475.347 792.886 475.347C789.917 475.347 788.018 477.543 788.018 480.821Z" fill="black"/>
<path d="M922 489.197V464.538H940.045V468.025H925.941V474.859H937.521V478.312H925.941V485.709H940.114V489.197H922ZM948.987 489.549C945.703 489.549 943.076 488.21 941.866 485.287L944.597 483.948C945.461 485.533 946.809 486.52 948.952 486.52C950.888 486.52 952.167 485.745 952.167 484.371C952.167 483.455 951.58 482.856 949.886 482.363L946.602 481.447C944.217 480.813 942.661 479.474 942.661 477.008C942.661 473.908 945.046 471.935 948.779 471.935C951.683 471.935 954.068 473.204 955.278 475.705L952.789 477.008C951.891 475.493 950.577 474.789 948.849 474.789C947.086 474.789 946.014 475.493 946.014 476.621C946.014 477.642 946.878 478.171 948.019 478.488L951.407 479.368C954.138 480.108 955.659 481.552 955.659 484.195C955.659 487.647 952.962 489.549 948.987 489.549ZM966.01 489.549C960.997 489.549 957.54 486.026 957.54 480.742C957.54 475.458 960.997 471.935 966.01 471.935C970.123 471.935 972.958 474.296 973.718 477.995L970.745 479.016C970.158 476.691 968.464 475.247 966.044 475.247C963.002 475.247 961.101 477.431 961.101 480.742C961.101 484.018 962.968 486.238 966.044 486.238C968.533 486.238 970.261 484.793 970.987 482.433L973.96 483.314C973.096 487.013 970.192 489.549 966.01 489.549ZM981.064 489.549C977.78 489.549 975.81 487.858 975.81 485.075C975.81 482.539 977.4 480.918 980.926 480.038L986.457 478.699C986.422 476.268 985.247 475.035 983.103 475.035C981.168 475.035 979.578 476.057 978.506 478.1L975.913 476.797C977.227 473.626 979.82 471.935 983.38 471.935C987.563 471.935 989.81 474.19 989.81 478.347V484.829C989.81 485.956 990.19 486.414 991.227 486.414C991.676 486.414 992.229 486.308 992.783 486.202V488.845C991.78 489.197 990.985 489.338 990.19 489.338C988.462 489.338 987.252 488.563 986.733 487.083C985.316 488.809 983.242 489.549 981.064 489.549ZM979.336 484.617C979.336 485.921 980.373 486.625 981.997 486.625C984.521 486.625 986.457 484.829 986.457 482.539V480.848L981.686 482.292C980.096 482.785 979.336 483.49 979.336 484.617ZM994.969 489.197V464.538H998.426V489.197H994.969ZM1006.92 489.549C1003.64 489.549 1001.67 487.858 1001.67 485.075C1001.67 482.539 1003.26 480.918 1006.78 480.038L1012.32 478.699C1012.28 476.268 1011.11 475.035 1008.96 475.035C1007.03 475.035 1005.44 476.057 1004.37 478.1L1001.77 476.797C1003.09 473.626 1005.68 471.935 1009.24 471.935C1013.42 471.935 1015.67 474.19 1015.67 478.347V484.829C1015.67 485.956 1016.05 486.414 1017.09 486.414C1017.54 486.414 1018.09 486.308 1018.64 486.202V488.845C1017.64 489.197 1016.84 489.338 1016.05 489.338C1014.32 489.338 1013.11 488.563 1012.59 487.083C1011.17 488.809 1009.1 489.549 1006.92 489.549ZM1005.19 484.617C1005.19 485.921 1006.23 486.625 1007.86 486.625C1010.38 486.625 1012.32 484.829 1012.32 482.539V480.848L1007.55 482.292C1005.96 482.785 1005.19 483.49 1005.19 484.617ZM1025.62 489.549C1022.78 489.549 1020.91 488.034 1020.91 484.512V475.493H1018.56V472.288H1019.53C1020.88 472.288 1021.29 471.83 1021.29 470.421V467.356H1024.37V472.288H1028.52V475.493H1024.37V484.159C1024.37 485.85 1025.2 486.343 1026.48 486.343C1027.28 486.343 1028.1 486.167 1028.93 485.921V488.88C1027.83 489.303 1026.76 489.549 1025.62 489.549ZM1031.67 489.197V472.288H1035.12V489.197H1031.67ZM1031.67 469.258V464.538H1035.12V469.258H1031.67ZM1039.16 489.197V472.288H1041.82L1042.2 474.577C1043.41 472.887 1045.17 471.935 1047.66 471.935C1051.29 471.935 1053.88 474.084 1053.88 478.382V489.197H1050.43V479.368C1050.43 476.585 1048.98 475.317 1046.73 475.317C1044.24 475.317 1042.61 476.938 1042.61 479.509V489.197H1039.16ZM1063.46 495.538C1058.86 495.538 1056.55 494.093 1056.55 491.487C1056.55 489.901 1057.38 488.739 1058.97 487.893C1058 487.33 1057.48 486.414 1057.48 485.287C1057.48 483.983 1058.17 482.821 1059.55 482.01C1058.17 481.095 1057.38 479.65 1057.38 477.783C1057.38 474.26 1060.11 471.971 1064.05 471.971C1065.91 471.971 1067.5 472.499 1068.68 473.415C1069.51 472.605 1070.55 472.288 1071.79 472.288H1072.97V475.493H1070.27C1070.55 476.163 1070.72 476.938 1070.72 477.783C1070.72 481.2 1068.2 483.208 1064.08 483.208C1063.08 483.208 1062.15 483.067 1061.32 482.856C1060.83 483.279 1060.59 483.772 1060.59 484.23C1060.59 485.005 1061.25 485.392 1062.53 485.392H1068.3C1071.41 485.392 1073 486.766 1073 489.338C1073 493.142 1069.4 495.538 1063.46 495.538ZM1059.97 490.641C1059.97 492.085 1061.18 492.896 1064.22 492.896C1067.57 492.896 1069.51 491.874 1069.51 490.148C1069.51 489.197 1068.96 488.527 1067.47 488.527H1061.59L1061 488.492C1060.28 489.162 1059.97 489.866 1059.97 490.641ZM1060.9 477.713C1060.9 479.58 1062.21 480.637 1064.19 480.637C1066.12 480.637 1067.43 479.58 1067.43 477.713C1067.43 475.81 1066.09 474.754 1064.19 474.754C1062.21 474.754 1060.9 475.81 1060.9 477.713Z" fill="black"/>
<path d="M410.165 490.234C402.325 490.234 397 484.858 397 476.886C397 468.914 402.325 463.538 410.165 463.538C418.004 463.538 423.329 468.914 423.329 476.886C423.329 484.858 418.004 490.234 410.165 490.234ZM401.327 476.886C401.327 482.559 404.877 486.341 410.165 486.341C415.453 486.341 419.003 482.559 419.003 476.886C419.003 471.213 415.453 467.431 410.165 467.431C404.877 467.431 401.327 471.213 401.327 476.886Z" fill="black"/>
<path d="M426.99 489.864V472.066H429.837L430.244 474.476C431.538 472.696 433.424 471.695 436.087 471.695C439.97 471.695 442.743 473.957 442.743 478.48V489.864H439.045V479.519C439.045 476.589 437.492 475.255 435.088 475.255C432.426 475.255 430.688 476.96 430.688 479.667V489.864H426.99Z" fill="black"/>
<path d="M452.985 496.538C448.067 496.538 445.589 495.017 445.589 492.274C445.589 490.605 446.477 489.382 448.178 488.492C447.143 487.898 446.588 486.934 446.588 485.748C446.588 484.376 447.327 483.152 448.807 482.3C447.327 481.335 446.477 479.815 446.477 477.85C446.477 474.142 449.398 471.732 453.614 471.732C455.611 471.732 457.312 472.288 458.569 473.252C459.457 472.4 460.566 472.066 461.897 472.066H463.155V475.44H460.27C460.566 476.144 460.751 476.96 460.751 477.85C460.751 481.447 458.051 483.56 453.651 483.56C452.579 483.56 451.58 483.412 450.693 483.189C450.175 483.634 449.916 484.153 449.916 484.635C449.916 485.451 450.619 485.859 451.987 485.859H458.162C461.491 485.859 463.192 487.305 463.192 490.012C463.192 494.016 459.346 496.538 452.985 496.538ZM449.25 491.384C449.25 492.904 450.545 493.757 453.799 493.757C457.386 493.757 459.457 492.682 459.457 490.865C459.457 489.864 458.865 489.159 457.275 489.159H450.988L450.36 489.122C449.583 489.826 449.25 490.568 449.25 491.384ZM450.249 477.776C450.249 479.741 451.654 480.853 453.762 480.853C455.833 480.853 457.238 479.741 457.238 477.776C457.238 475.774 455.796 474.661 453.762 474.661C451.654 474.661 450.249 475.774 450.249 477.776Z" fill="black"/>
<path d="M473.437 490.234C468.002 490.234 464.304 486.526 464.304 480.965C464.304 475.403 468.002 471.695 473.437 471.695C478.873 471.695 482.571 475.403 482.571 480.965C482.571 486.526 478.873 490.234 473.437 490.234ZM468.112 480.965C468.112 484.413 470.109 486.749 473.437 486.749C476.766 486.749 478.763 484.413 478.763 480.965C478.763 477.479 476.729 475.18 473.437 475.18C470.146 475.18 468.112 477.479 468.112 480.965Z" fill="black"/>
<path d="M485.781 489.864V472.066H489.479V489.864H485.781ZM485.781 468.877V463.909H489.479V468.877H485.781Z" fill="black"/>
<path d="M493.798 489.864V472.066H496.646L497.053 474.476C498.347 472.696 500.233 471.695 502.895 471.695C506.778 471.695 509.552 473.957 509.552 478.48V489.864H505.854V479.519C505.854 476.589 504.3 475.255 501.897 475.255C499.234 475.255 497.496 476.96 497.496 479.667V489.864H493.798Z" fill="black"/>
<path d="M519.794 496.538C514.875 496.538 512.398 495.017 512.398 492.274C512.398 490.605 513.285 489.382 514.986 488.492C513.951 487.898 513.396 486.934 513.396 485.748C513.396 484.376 514.136 483.152 515.615 482.3C514.136 481.335 513.285 479.815 513.285 477.85C513.285 474.142 516.207 471.732 520.422 471.732C522.419 471.732 524.12 472.288 525.378 473.252C526.265 472.4 527.374 472.066 528.706 472.066H529.963V475.44H527.079C527.374 476.144 527.559 476.96 527.559 477.85C527.559 481.447 524.86 483.56 520.459 483.56C519.387 483.56 518.388 483.412 517.501 483.189C516.983 483.634 516.724 484.153 516.724 484.635C516.724 485.451 517.427 485.859 518.795 485.859H524.971C528.299 485.859 530 487.305 530 490.012C530 494.016 526.154 496.538 519.794 496.538ZM516.059 491.384C516.059 492.904 517.353 493.757 520.607 493.757C524.194 493.757 526.265 492.682 526.265 490.865C526.265 489.864 525.673 489.159 524.083 489.159H517.797L517.168 489.122C516.392 489.826 516.059 490.568 516.059 491.384ZM517.057 477.776C517.057 479.741 518.462 480.853 520.57 480.853C522.641 480.853 524.046 479.741 524.046 477.776C524.046 475.774 522.604 474.661 520.57 474.661C518.462 474.661 517.057 475.774 517.057 477.776Z" fill="black"/>
<path d="M301.799 412.98H289.641V443.247H301.799V412.98Z" fill="black"/>
<path d="M317.605 419.466H305.447V443.247H317.605V419.466Z" fill="black"/>
<path d="M333.411 425.952H321.253V443.247H333.411V425.952Z" fill="black"/>
<path d="M349.217 412.98H337.059V443.247H349.217V412.98Z" fill="black"/>
<path d="M365.023 419.466H352.865V443.247H365.023V419.466Z" fill="black"/>
<path d="M380.829 425.952H368.671V443.247H380.829V425.952Z" fill="black"/>
<path d="M396.635 425.952H384.477V443.247H396.635V425.952Z" fill="black"/>
<path d="M412.441 425.952H400.283V443.247H412.441V425.952Z" fill="black"/>
<path d="M428.248 425.952H416.089V443.247H428.248V425.952Z" fill="black"/>
<path d="M444.054 412.98H431.895V443.247H444.054V412.98Z" fill="black"/>
<path d="M459.86 425.952H447.701V443.247H459.86V425.952Z" fill="black"/>
<path d="M475.666 412.98H463.507V443.247H475.666V412.98Z" fill="black"/>
<path d="M491.472 412.98H479.313V443.247H491.472V412.98Z" fill="black"/>
<path d="M507.278 419.466H495.119V443.247H507.278V419.466Z" fill="black"/>
<path d="M523.084 419.466H510.925V443.247H523.084V419.466Z" fill="black"/>
<path d="M538.89 430.276H526.731V443.247H538.89V430.276Z" fill="black"/>
<path d="M554.696 412.98H542.537V443.247H554.696V412.98Z" fill="black"/>
<path d="M570.502 419.466H558.344V443.247H570.502V419.466Z" fill="black"/>
<path d="M586.308 412.98H574.15V443.247H586.308V412.98Z" fill="black"/>
<path d="M602.114 412.98H589.956V443.247H602.114V412.98Z" fill="black"/>
<path d="M617.92 430.379H605.762V443.247H617.92V430.379Z" fill="black"/>
<path d="M633.726 421.065H621.568V443.247H633.726V421.065Z" fill="black"/>
<path d="M649.532 421.065H637.374V443.247H649.532V421.065Z" fill="black"/>
<path d="M665.338 421.065H653.18V443.247H665.338V421.065Z" fill="black"/>
<path d="M681.144 421.065H668.986V443.247H681.144V421.065Z" fill="black"/>
<path d="M696.95 421.065H684.792V443.247H696.95V421.065Z" fill="black"/>
<path d="M712.756 421.065H700.598V443.247H712.756V421.065Z" fill="black"/>
<path d="M728.563 421.065H716.404V443.247H728.563V421.065Z" fill="black"/>
<path d="M744.369 421.065H732.21V443.247H744.369V421.065Z" fill="black"/>
<path d="M760.175 421.065H748.016V443.247H760.175V421.065Z" fill="black"/>
<path d="M775.981 419.466H763.822V443.247H775.981V419.466Z" fill="black"/>
<path d="M791.787 412.98H779.628V443.247H791.787V412.98Z" fill="black"/>
<path d="M807.593 412.98H795.434V443.247H807.593V412.98Z" fill="black"/>
<path d="M823.399 430.379H811.24V443.247H823.399V430.379Z" fill="black"/>
<path d="M839.205 421.065H827.046V443.247H839.205V421.065Z" fill="black"/>
<path d="M855.011 421.065H842.852V443.247H855.011V421.065Z" fill="black"/>
<path d="M870.817 421.065H858.658V443.247H870.817V421.065Z" fill="black"/>
<path d="M886.623 421.065H874.465V443.247H886.623V421.065Z" fill="black"/>
<path d="M902.429 421.065H890.271V443.247H902.429V421.065Z" fill="black"/>
<path d="M918.235 421.065H906.077V443.247H918.235V421.065Z" fill="black"/>
<path d="M934.041 421.065H921.883V443.247H934.041V421.065Z" fill="black"/>
<path d="M949.847 421.065H937.689V443.247H949.847V421.065Z" fill="black"/>
<path d="M965.653 421.065H953.495V443.247H965.653V421.065Z" fill="black"/>
<path d="M981.459 421.065H969.301V443.247H981.459V421.065Z" fill="black"/>
<path d="M997.265 425.786H985.107V443.247H997.265V425.786Z" fill="black"/>
<path d="M1013.07 321.507H1000.91V443.247H1013.07V321.507Z" fill="black"/>
<path d="M1028.88 326.228H1016.72V443.247H1028.88V326.228Z" fill="black"/>
<path d="M1044.68 337.257H1032.53V443.247H1044.68V337.257Z" fill="black"/>
<path d="M1060.49 342.155H1048.33V443.247H1060.49V342.155Z" fill="black"/>
<path d="M1076.3 326.228H1064.14V443.247H1076.3V326.228Z" fill="black"/>
<path d="M1092.1 326.228H1079.94V443.247H1092.1V326.228Z" fill="black"/>
<path d="M1107.91 337.257H1095.75V443.247H1107.91V337.257Z" fill="black"/>
<path d="M1123.71 337.257H1111.56V443.247H1123.71V337.257Z" fill="black"/>
<path d="M1139.52 326.228H1127.36V443.247H1139.52V326.228Z" fill="black"/>
<path d="M1155.33 393.641H1143.17V443.247H1155.33V393.641Z" fill="black"/>
<path d="M1171.13 384.681H1158.97V443.247H1171.13V384.681Z" fill="black"/>
<path d="M1186.94 329.798H1174.78V443.247H1186.94V329.798Z" fill="black"/>
<path d="M1202.74 321.507H1190.59V443.247H1202.74V321.507Z" fill="black"/>
<path d="M1218.55 329.798H1206.39V443.247H1218.55V329.798Z" fill="black"/>
<path d="M290.723 303.842V443.247" stroke="#FF0000" stroke-width="3"/>
<path d="M999.955 303.842V443.247" stroke="#FF0000" stroke-width="3"/>
<path d="M731.178 302.97V443.247" stroke="#FF0000" stroke-width="3"/>
<path d="M463.507 302.201L463.507 443.248" stroke="#FF0000" stroke-width="3"/>
</svg>
