<svg width="1504" height="947" viewBox="0 0 1504 947" fill="none" xmlns="http://www.w3.org/2000/svg">
<path d="M251.704 532.326V507.678H256.685L268.812 527.256H268.88V507.678H272.488V532.326H267.506L255.379 512.749H255.311V532.326H251.704ZM284.367 532.678C279.385 532.678 276.087 529.157 276.087 523.876C276.087 518.594 279.488 515.073 284.401 515.073C289.211 515.073 292.612 518.383 292.096 524.509H279.557C279.763 527.537 281.481 529.474 284.435 529.474C286.737 529.474 288.42 528.277 289.142 526.376L292.028 527.467C291.031 530.566 288.146 532.678 284.367 532.678ZM279.729 521.974H288.764C288.455 519.615 286.874 518.171 284.435 518.171C281.962 518.171 280.279 519.615 279.729 521.974ZM297.92 532.326L293.11 515.425H296.683L300.118 528.77H300.187L304.103 515.425H307.951L311.867 528.77H311.936L315.371 515.425H318.704L313.928 532.326H309.703L305.89 519.368H305.821L302.008 532.326H297.92Z" fill="black"/>
<path d="M661.704 532.33L671.13 507.922H676.067L685.735 532.33H681.384L679.347 527.03H667.677L665.674 532.33H661.704ZM668.989 523.543H678.035L673.512 511.688H673.443L668.989 523.543ZM687.882 532.33V515.593H690.472L690.886 517.929C692.06 516.221 693.648 515.454 695.685 515.454C696.169 515.454 696.617 515.524 697.101 515.593V518.766H695.685C692.785 518.766 691.335 520.161 691.335 522.95V532.33H687.882ZM706.229 532.678C701.223 532.678 697.77 529.192 697.77 523.961C697.77 518.731 701.223 515.245 706.229 515.245C710.338 515.245 713.169 517.581 713.929 521.242L710.959 522.253C710.372 519.952 708.681 518.522 706.264 518.522C703.225 518.522 701.326 520.684 701.326 523.961C701.326 527.204 703.191 529.401 706.264 529.401C708.75 529.401 710.476 527.971 711.201 525.635L714.171 526.507C713.307 530.168 710.407 532.678 706.229 532.678ZM716.98 532.33V507.678H720.433V517.546C721.607 516.081 723.333 515.245 725.578 515.245C729.169 515.245 731.723 517.371 731.723 521.625V532.33H728.271V522.602C728.271 519.847 726.786 518.592 724.576 518.592C721.987 518.592 720.433 520.266 720.433 522.741V532.33H716.98ZM735.694 532.33V515.593H739.147V532.33H735.694ZM735.694 512.595V507.922H739.147V512.595H735.694ZM747.013 532.33L741.143 515.593H744.872L749.361 528.982H749.43L753.953 515.593H757.44L751.57 532.33H747.013ZM766.312 532.678C761.305 532.678 757.99 529.192 757.99 523.961C757.99 518.731 761.409 515.245 766.346 515.245C771.18 515.245 774.598 518.522 774.08 524.589H761.478C761.685 527.588 763.411 529.505 766.381 529.505C768.694 529.505 770.386 528.32 771.111 526.437L774.011 527.518C773.01 530.586 770.11 532.678 766.312 532.678ZM761.65 522.079H770.731C770.42 519.742 768.832 518.313 766.381 518.313C763.895 518.313 762.203 519.742 761.65 522.079ZM784.141 532.643C779.514 532.643 776.165 529.157 776.165 523.961C776.165 518.766 779.514 515.279 784.141 515.279C786.282 515.279 788.008 516.047 789.251 517.232V507.922H792.704V532.33H790.08L789.7 530.203C788.457 531.702 786.558 532.643 784.141 532.643ZM779.721 523.961C779.721 527.239 781.586 529.436 784.59 529.436C787.559 529.436 789.493 527.239 789.493 523.961C789.493 520.684 787.594 518.487 784.59 518.487C781.62 518.487 779.721 520.684 779.721 523.961Z" fill="black"/>
<path d="M913.704 532.337V507.678H931.748V511.166H917.644V518H929.225V521.452H917.644V528.85H931.817V532.337H913.704ZM940.691 532.69C937.407 532.69 934.779 531.351 933.569 528.427L936.3 527.089C937.165 528.674 938.513 529.66 940.656 529.66C942.592 529.66 943.871 528.885 943.871 527.511C943.871 526.595 943.283 525.997 941.589 525.503L938.305 524.587C935.92 523.953 934.365 522.615 934.365 520.149C934.365 517.049 936.75 515.076 940.483 515.076C943.387 515.076 945.772 516.344 946.982 518.845L944.493 520.149C943.594 518.634 942.281 517.929 940.552 517.929C938.789 517.929 937.718 518.634 937.718 519.761C937.718 520.783 938.582 521.311 939.723 521.628L943.11 522.509C945.841 523.249 947.362 524.693 947.362 527.335C947.362 530.787 944.666 532.69 940.691 532.69ZM957.713 532.69C952.701 532.69 949.244 529.167 949.244 523.883C949.244 518.599 952.701 515.076 957.713 515.076C961.827 515.076 964.661 517.436 965.422 521.135L962.449 522.157C961.861 519.832 960.167 518.387 957.748 518.387C954.706 518.387 952.804 520.572 952.804 523.883C952.804 527.159 954.671 529.378 957.748 529.378C960.237 529.378 961.965 527.934 962.691 525.574L965.664 526.454C964.8 530.153 961.896 532.69 957.713 532.69ZM972.768 532.69C969.484 532.69 967.513 530.999 967.513 528.216C967.513 525.679 969.103 524.059 972.629 523.178L978.16 521.84C978.126 519.409 976.95 518.176 974.807 518.176C972.871 518.176 971.281 519.198 970.21 521.241L967.617 519.937C968.931 516.767 971.523 515.076 975.084 515.076C979.266 515.076 981.513 517.331 981.513 521.487V527.969C981.513 529.097 981.894 529.554 982.931 529.554C983.38 529.554 983.933 529.449 984.486 529.343V531.985C983.484 532.337 982.689 532.478 981.894 532.478C980.165 532.478 978.955 531.703 978.437 530.224C977.019 531.95 974.945 532.69 972.768 532.69ZM971.039 527.758C971.039 529.061 972.076 529.766 973.701 529.766C976.224 529.766 978.16 527.969 978.16 525.679V523.989L973.39 525.433C971.8 525.926 971.039 526.631 971.039 527.758ZM986.673 532.337V507.678H990.129V532.337H986.673ZM998.627 532.69C995.343 532.69 993.372 530.999 993.372 528.216C993.372 525.679 994.962 524.059 998.488 523.178L1004.02 521.84C1003.98 519.409 1002.81 518.176 1000.67 518.176C998.73 518.176 997.14 519.198 996.069 521.241L993.476 519.937C994.79 516.767 997.382 515.076 1000.94 515.076C1005.13 515.076 1007.37 517.331 1007.37 521.487V527.969C1007.37 529.097 1007.75 529.554 1008.79 529.554C1009.24 529.554 1009.79 529.449 1010.35 529.343V531.985C1009.34 532.337 1008.55 532.478 1007.75 532.478C1006.02 532.478 1004.81 531.703 1004.3 530.224C1002.88 531.95 1000.8 532.69 998.627 532.69ZM996.898 527.758C996.898 529.061 997.935 529.766 999.56 529.766C1002.08 529.766 1004.02 527.969 1004.02 525.679V523.989L999.249 525.433C997.659 525.926 996.898 526.631 996.898 527.758ZM1017.32 532.69C1014.48 532.69 1012.62 531.175 1012.62 527.652V518.634H1010.27V515.428H1011.24C1012.58 515.428 1013 514.97 1013 513.561V510.497H1016.07V515.428H1020.22V518.634H1016.07V527.3C1016.07 528.991 1016.9 529.484 1018.18 529.484C1018.98 529.484 1019.81 529.308 1020.64 529.061V532.02C1019.53 532.443 1018.46 532.69 1017.32 532.69ZM1023.37 532.337V515.428H1026.83V532.337H1023.37ZM1023.37 512.399V507.678H1026.83V512.399H1023.37ZM1030.86 532.337V515.428H1033.52L1033.9 517.718C1035.11 516.027 1036.88 515.076 1039.37 515.076C1042.99 515.076 1045.59 517.225 1045.59 521.523V532.337H1042.13V522.509C1042.13 519.726 1040.68 518.458 1038.43 518.458C1035.94 518.458 1034.32 520.078 1034.32 522.65V532.337H1030.86ZM1055.16 538.678C1050.57 538.678 1048.25 537.234 1048.25 534.627C1048.25 533.042 1049.08 531.879 1050.67 531.034C1049.7 530.47 1049.18 529.554 1049.18 528.427C1049.18 527.124 1049.87 525.961 1051.26 525.151C1049.87 524.235 1049.08 522.791 1049.08 520.924C1049.08 517.401 1051.81 515.111 1055.75 515.111C1057.62 515.111 1059.21 515.64 1060.38 516.556C1061.21 515.745 1062.25 515.428 1063.49 515.428H1064.67V518.634H1061.97C1062.25 519.303 1062.42 520.078 1062.42 520.924C1062.42 524.341 1059.9 526.349 1055.79 526.349C1054.78 526.349 1053.85 526.208 1053.02 525.997C1052.54 526.419 1052.29 526.912 1052.29 527.37C1052.29 528.145 1052.95 528.533 1054.23 528.533H1060C1063.11 528.533 1064.7 529.907 1064.7 532.478C1064.7 536.283 1061.11 538.678 1055.16 538.678ZM1051.67 533.782C1051.67 535.226 1052.88 536.036 1055.92 536.036C1059.28 536.036 1061.21 535.015 1061.21 533.289C1061.21 532.337 1060.66 531.668 1059.17 531.668H1053.3L1052.71 531.633C1051.98 532.302 1051.67 533.007 1051.67 533.782ZM1052.6 520.853C1052.6 522.72 1053.92 523.777 1055.89 523.777C1057.82 523.777 1059.14 522.72 1059.14 520.853C1059.14 518.951 1057.79 517.894 1055.89 517.894C1053.92 517.894 1052.6 518.951 1052.6 520.853Z" fill="black"/>
<path d="M401.868 533.375C394.029 533.375 388.704 527.999 388.704 520.027C388.704 512.055 394.029 506.678 401.868 506.678C409.708 506.678 415.033 512.055 415.033 520.027C415.033 527.999 409.708 533.375 401.868 533.375ZM393.03 520.027C393.03 525.7 396.58 529.482 401.868 529.482C407.156 529.482 410.706 525.7 410.706 520.027C410.706 514.354 407.156 510.572 401.868 510.572C396.58 510.572 393.03 514.354 393.03 520.027Z" fill="black"/>
<path d="M418.694 533.004V515.206H421.541L421.948 517.617C423.242 515.837 425.128 514.836 427.791 514.836C431.673 514.836 434.447 517.097 434.447 521.621V533.004H430.749V522.659C430.749 519.73 429.196 518.395 426.792 518.395C424.13 518.395 422.392 520.101 422.392 522.808V533.004H418.694Z" fill="black"/>
<path d="M444.689 539.678C439.771 539.678 437.293 538.158 437.293 535.414C437.293 533.746 438.181 532.522 439.882 531.632C438.846 531.039 438.291 530.075 438.291 528.888C438.291 527.517 439.031 526.293 440.51 525.44C439.031 524.476 438.181 522.956 438.181 520.991C438.181 517.283 441.102 514.873 445.318 514.873C447.314 514.873 449.015 515.429 450.273 516.393C451.16 515.54 452.27 515.206 453.601 515.206H454.858V518.581H451.974C452.27 519.285 452.455 520.101 452.455 520.991C452.455 524.587 449.755 526.701 445.355 526.701C444.282 526.701 443.284 526.553 442.396 526.33C441.878 526.775 441.62 527.294 441.62 527.776C441.62 528.592 442.322 529 443.69 529H449.866C453.194 529 454.895 530.446 454.895 533.153C454.895 537.157 451.049 539.678 444.689 539.678ZM440.954 534.524C440.954 536.045 442.248 536.897 445.502 536.897C449.089 536.897 451.16 535.822 451.16 534.005C451.16 533.004 450.569 532.3 448.979 532.3H442.692L442.063 532.263C441.287 532.967 440.954 533.709 440.954 534.524ZM441.952 520.917C441.952 522.882 443.358 523.994 445.465 523.994C447.536 523.994 448.942 522.882 448.942 520.917C448.942 518.914 447.499 517.802 445.465 517.802C443.358 517.802 441.952 518.914 441.952 520.917Z" fill="black"/>
<path d="M465.141 533.375C459.705 533.375 456.007 529.667 456.007 524.105C456.007 518.544 459.705 514.836 465.141 514.836C470.577 514.836 474.275 518.544 474.275 524.105C474.275 529.667 470.577 533.375 465.141 533.375ZM459.816 524.105C459.816 527.554 461.813 529.89 465.141 529.89C468.469 529.89 470.466 527.554 470.466 524.105C470.466 520.62 468.432 518.321 465.141 518.321C461.85 518.321 459.816 520.62 459.816 524.105Z" fill="black"/>
<path d="M477.485 533.004V515.206H481.183V533.004H477.485ZM477.485 512.018V507.049H481.183V512.018H477.485Z" fill="black"/>
<path d="M485.502 533.004V515.206H488.349L488.756 517.617C490.05 515.837 491.936 514.836 494.599 514.836C498.482 514.836 501.255 517.097 501.255 521.621V533.004H497.557V522.659C497.557 519.73 496.004 518.395 493.6 518.395C490.938 518.395 489.2 520.101 489.2 522.808V533.004H485.502Z" fill="black"/>
<path d="M511.497 539.678C506.579 539.678 504.101 538.158 504.101 535.414C504.101 533.746 504.989 532.522 506.69 531.632C505.655 531.039 505.1 530.075 505.1 528.888C505.1 527.517 505.839 526.293 507.319 525.44C505.839 524.476 504.989 522.956 504.989 520.991C504.989 517.283 507.91 514.873 512.126 514.873C514.123 514.873 515.824 515.429 517.081 516.393C517.969 515.54 519.078 515.206 520.409 515.206H521.667V518.581H518.782C519.078 519.285 519.263 520.101 519.263 520.991C519.263 524.587 516.563 526.701 512.163 526.701C511.091 526.701 510.092 526.553 509.205 526.33C508.687 526.775 508.428 527.294 508.428 527.776C508.428 528.592 509.131 529 510.499 529H516.674C520.003 529 521.704 530.446 521.704 533.153C521.704 537.157 517.858 539.678 511.497 539.678ZM507.762 534.524C507.762 536.045 509.057 536.897 512.311 536.897C515.898 536.897 517.969 535.822 517.969 534.005C517.969 533.004 517.377 532.3 515.787 532.3H509.5L508.872 532.263C508.095 532.967 507.762 533.709 507.762 534.524ZM508.761 520.917C508.761 522.882 510.166 523.994 512.274 523.994C514.345 523.994 515.75 522.882 515.75 520.917C515.75 518.914 514.308 517.802 512.274 517.802C510.166 517.802 508.761 518.914 508.761 520.917Z" fill="black"/>
<path d="M293.503 456.121H281.344V486.388H293.503V456.121Z" fill="#C6C6C6"/>
<path d="M309.309 462.606H297.15V486.388H309.309V462.606Z" fill="#C6C6C6"/>
<path d="M325.115 469.092H312.956V486.388H325.115V469.092Z" fill="#C6C6C6"/>
<path d="M340.921 456.121H328.762V486.388H340.921V456.121Z" fill="#C6C6C6"/>
<path d="M356.727 462.606H344.568V486.388H356.727V462.606Z" fill="#C6C6C6"/>
<path d="M372.533 469.092H360.374V486.388H372.533V469.092Z" fill="#C6C6C6"/>
<path d="M388.339 469.092H376.181V486.388H388.339V469.092Z" fill="#C6C6C6"/>
<path d="M404.145 469.092H391.987V486.388H404.145V469.092Z" fill="#C6C6C6"/>
<path d="M419.951 469.092H407.793V486.388H419.951V469.092Z" fill="#C6C6C6"/>
<path d="M435.757 456.121H423.599V486.388H435.757V456.121Z" fill="#C6C6C6"/>
<path d="M451.563 469.092H439.405V486.388H451.563V469.092Z" fill="#C6C6C6"/>
<path d="M467.369 456.121H455.211V486.388H467.369V456.121Z" fill="#C6C6C6"/>
<path d="M483.175 456.121H471.017V486.388H483.175V456.121Z" fill="#C6C6C6"/>
<path d="M498.981 462.606H486.823V486.388H498.981V462.606Z" fill="#C6C6C6"/>
<path d="M514.787 462.606H502.629V486.388H514.787V462.606Z" fill="#C6C6C6"/>
<path d="M530.594 473.416H518.435V486.388H530.594V473.416Z" fill="#C6C6C6"/>
<path d="M546.4 456.121H534.241V486.388H546.4V456.121Z" fill="#C6C6C6"/>
<path d="M562.206 462.606H550.047V486.388H562.206V462.606Z" fill="#C6C6C6"/>
<path d="M578.012 456.121H565.853V486.388H578.012V456.121Z" fill="#C6C6C6"/>
<path d="M593.818 456.121H581.659V486.388H593.818V456.121Z" fill="#C6C6C6"/>
<path d="M609.624 473.519H597.465V486.388H609.624V473.519Z" fill="#C6C6C6"/>
<path d="M625.43 464.206H613.271V486.388H625.43V464.206Z" fill="#C6C6C6"/>
<path d="M641.236 464.206H629.077V486.388H641.236V464.206Z" fill="#C6C6C6"/>
<path d="M657.042 464.206H644.883V486.388H657.042V464.206Z" fill="#C6C6C6"/>
<path d="M672.848 464.206H660.689V486.388H672.848V464.206Z" fill="#C6C6C6"/>
<path d="M688.654 464.206H676.496V486.388H688.654V464.206Z" fill="#C6C6C6"/>
<path d="M704.46 464.206H692.302V486.388H704.46V464.206Z" fill="#C6C6C6"/>
<path d="M720.266 464.206H708.108V486.388H720.266V464.206Z" fill="#C6C6C6"/>
<path d="M736.072 464.206H723.914V486.388H736.072V464.206Z" fill="#C6C6C6"/>
<path d="M751.878 464.206H739.72V486.388H751.878V464.206Z" fill="#C6C6C6"/>
<path d="M767.684 462.606H755.526V486.388H767.684V462.606Z" fill="#C6C6C6"/>
<path d="M783.49 456.121H771.332V486.388H783.49V456.121Z" fill="#C6C6C6"/>
<path d="M799.296 456.121H787.138V486.388H799.296V456.121Z" fill="#C6C6C6"/>
<path d="M815.102 473.519H802.944V486.388H815.102V473.519Z" fill="#C6C6C6"/>
<path d="M830.908 464.206H818.75V486.388H830.908V464.206Z" fill="#C6C6C6"/>
<path d="M846.715 464.206H834.556V486.388H846.715V464.206Z" fill="#C6C6C6"/>
<path d="M862.521 464.206H850.362V486.388H862.521V464.206Z" fill="#C6C6C6"/>
<path d="M878.327 464.206H866.168V486.388H878.327V464.206Z" fill="#C6C6C6"/>
<path d="M894.133 464.206H881.974V486.388H894.133V464.206Z" fill="#C6C6C6"/>
<path d="M909.939 464.206H897.78V486.388H909.939V464.206Z" fill="#C6C6C6"/>
<path d="M925.745 464.206H913.586V486.388H925.745V464.206Z" fill="#C6C6C6"/>
<path d="M941.551 464.206H929.392V486.388H941.551V464.206Z" fill="#C6C6C6"/>
<path d="M957.357 464.206H945.198V486.388H957.357V464.206Z" fill="#C6C6C6"/>
<path d="M973.163 464.206H961.004V486.388H973.163V464.206Z" fill="#C6C6C6"/>
<path d="M988.969 468.927H976.811V486.388H988.969V468.927Z" fill="#C6C6C6"/>
<path d="M1004.78 364.648H992.617V486.388H1004.78V364.648Z" fill="#C6C6C6"/>
<path d="M1020.58 369.369H1008.42V486.388H1020.58V369.369Z" fill="#C6C6C6"/>
<path d="M1036.39 380.397H1024.23V486.388H1036.39V380.397Z" fill="#C6C6C6"/>
<path d="M1052.19 385.295H1040.03V486.388H1052.19V385.295Z" fill="#C6C6C6"/>
<path d="M1068 369.369H1055.84V486.388H1068V369.369Z" fill="#C6C6C6"/>
<path d="M1083.81 369.369H1071.65V486.388H1083.81V369.369Z" fill="#C6C6C6"/>
<path d="M1099.61 380.397H1087.45V486.388H1099.61V380.397Z" fill="#C6C6C6"/>
<path d="M1115.42 380.397H1103.26V486.388H1115.42V380.397Z" fill="#C6C6C6"/>
<path d="M1131.22 369.369H1119.06V486.388H1131.22V369.369Z" fill="#C6C6C6"/>
<path d="M1147.03 436.782H1134.87V486.388H1147.03V436.782Z" fill="#C6C6C6"/>
<path d="M1162.84 427.821H1150.68V486.388H1162.84V427.821Z" fill="#C6C6C6"/>
<path d="M1178.64 372.939H1166.48V486.388H1178.64V372.939Z" fill="#C6C6C6"/>
<path d="M1194.45 364.648H1182.29V486.388H1194.45V364.648Z" fill="#C6C6C6"/>
<path d="M1210.25 372.939H1198.1V486.388H1210.25V372.939Z" fill="#C6C6C6"/>
<path d="M282.426 346.982V486.388" stroke="#FF0000" stroke-width="3"/>
<path d="M991.659 346.982V486.388" stroke="#FF0000" stroke-width="3"/>
<path d="M722.881 346.111V486.388" stroke="#FF0000" stroke-width="3"/>
<path d="M455.21 345.341L455.21 486.388" stroke="#FF0000" stroke-width="3"/>
</svg>
