<svg width="1504" height="816" viewBox="0 0 1504 816" fill="none" xmlns="http://www.w3.org/2000/svg">
<rect width="1504" height="816" fill="#62507E"/>
<path d="M773.822 298.555C771.514 294.724 768.255 291.555 764.361 289.356C760.467 287.156 756.071 286 751.599 286C747.127 286 742.731 287.156 738.838 289.356C734.944 291.555 731.685 294.724 729.377 298.555L692.822 361.166C720.749 375.108 744.543 396.114 761.841 422.096C779.14 448.078 789.341 478.133 791.433 509.277H765.766C763.679 482.581 754.656 456.892 739.592 434.754C724.528 412.616 703.944 394.795 679.877 383.055L646.044 441.555C659.573 447.622 671.36 456.994 680.321 468.809C689.281 480.623 695.127 494.501 697.322 509.166H638.377C637.678 509.116 637.002 508.894 636.411 508.518C635.819 508.142 635.331 507.625 634.989 507.013C634.647 506.401 634.463 505.714 634.453 505.013C634.443 504.312 634.608 503.62 634.933 502.999L651.266 475.221C645.732 470.604 639.408 467.028 632.599 464.666L616.433 492.444C614.75 495.33 613.657 498.523 613.218 501.835C612.78 505.148 613.004 508.515 613.877 511.74C614.751 514.966 616.256 517.985 618.307 520.624C620.357 523.262 622.912 525.467 625.822 527.11C629.655 529.27 633.977 530.418 638.377 530.444H719.099C720.599 511.944 717.295 493.371 709.508 476.522C701.722 459.674 689.716 445.123 674.655 434.277L687.488 412.055C706.496 425.11 721.771 442.896 731.806 463.657C741.841 484.419 746.289 507.438 744.71 530.444H813.099C814.692 495.593 807.11 460.936 791.112 429.934C775.114 398.932 751.26 372.671 721.933 353.777L747.877 309.332C748.455 308.364 749.393 307.663 750.485 307.382C751.578 307.101 752.737 307.263 753.71 307.832C756.655 309.444 866.433 500.999 868.488 503.221C868.85 503.871 869.035 504.604 869.022 505.347C869.01 506.091 868.802 506.818 868.418 507.455C868.035 508.092 867.49 508.616 866.839 508.975C866.188 509.334 865.454 509.515 864.71 509.499H838.266C838.599 516.573 838.599 523.629 838.266 530.666H864.822C868.194 530.688 871.537 530.041 874.657 528.762C877.777 527.484 880.613 525.599 883 523.217C885.387 520.835 887.278 518.003 888.563 514.886C889.849 511.768 890.503 508.427 890.488 505.055C890.492 500.601 889.302 496.227 887.044 492.388L773.822 298.555Z" fill="white"/>
</svg>
