<svg width="1504" height="816" viewBox="0 0 1504 816" fill="none" xmlns="http://www.w3.org/2000/svg">
<rect width="1504" height="816" fill="#F9F5F2"/>
<path d="M558.829 354.2C557.699 352.321 556.103 350.767 554.196 349.688C552.289 348.608 550.136 348.041 547.946 348.041C545.756 348.041 543.603 348.608 541.696 349.688C539.789 350.767 538.193 352.321 537.063 354.2L519.161 384.916C532.837 391.756 544.49 402.06 552.962 414.807C561.433 427.553 566.429 442.297 567.453 457.575H554.884C553.861 444.479 549.443 431.877 542.066 421.016C534.688 410.156 524.608 401.413 512.821 395.654L496.252 424.353C502.878 427.329 508.65 431.927 513.039 437.723C517.427 443.519 520.29 450.327 521.364 457.521H492.498C492.155 457.497 491.824 457.387 491.535 457.203C491.245 457.019 491.006 456.765 490.838 456.465C490.671 456.165 490.581 455.827 490.576 455.484C490.571 455.14 490.652 454.8 490.811 454.496L498.81 440.869C496.1 438.604 493.002 436.849 489.668 435.69L481.751 449.317C480.927 450.734 480.391 452.3 480.177 453.925C479.962 455.55 480.071 457.202 480.499 458.784C480.927 460.366 481.664 461.848 482.669 463.142C483.673 464.436 484.924 465.518 486.349 466.324C488.226 467.384 490.343 467.946 492.498 467.959H532.03C532.764 458.884 531.146 449.772 527.333 441.507C523.519 433.242 517.64 426.103 510.264 420.782L516.549 409.881C525.858 416.285 533.338 425.01 538.253 435.196C543.167 445.381 545.345 456.673 544.572 467.959H578.064C578.844 450.863 575.131 433.86 567.297 418.652C559.462 403.443 547.779 390.56 533.417 381.291L546.123 359.488C546.406 359.012 546.865 358.669 547.4 358.531C547.935 358.393 548.503 358.472 548.98 358.752C550.422 359.542 604.183 453.514 605.19 454.605C605.367 454.923 605.457 455.283 605.451 455.648C605.445 456.012 605.343 456.369 605.156 456.681C604.968 456.994 604.701 457.251 604.382 457.427C604.063 457.604 603.704 457.692 603.34 457.684H590.389C590.552 461.155 590.552 464.616 590.389 468.068H603.394C605.046 468.079 606.683 467.762 608.211 467.134C609.739 466.507 611.128 465.583 612.297 464.414C613.466 463.246 614.392 461.856 615.021 460.327C615.651 458.798 615.971 457.158 615.964 455.504C615.966 453.319 615.383 451.173 614.277 449.29L558.829 354.2ZM818.168 425.116L778.01 373.169H767.998V442.804H778.146V389.44L819.447 442.804H828.316V373.169H818.168V425.116ZM717.039 412.197H753.034V403.149H717.012V382.19H757.632V373.142H706.673V442.804H758.149V433.755H717.012L717.039 412.197ZM674.704 403.367C660.693 399.987 656.775 397.316 656.775 390.83C656.775 384.998 661.917 381.046 669.589 381.046C676.577 381.251 683.316 383.686 688.825 387.996L694.266 380.283C687.292 374.806 678.64 371.917 669.78 372.106C656.013 372.106 646.409 380.283 646.409 391.92C646.409 404.457 654.571 408.79 669.426 412.415C682.649 415.468 686.703 418.302 686.703 424.652C686.703 431.003 681.261 434.927 672.854 434.927C664.484 434.889 656.431 431.72 650.272 426.042L644.151 433.374C652.039 440.163 662.1 443.887 672.501 443.866C687.41 443.866 696.987 435.827 696.987 423.399C696.905 412.879 690.702 407.237 674.704 403.367ZM1012.37 373.169L991.451 405.874L970.664 373.169H958.53L985.982 415.277V442.831H996.43V414.95L1024.07 373.169H1012.37ZM836.533 382.599H859.305V442.831H869.753V382.599H892.525V373.169H836.56L836.533 382.599ZM940.845 415.631C951.347 412.715 957.17 405.356 957.17 394.836C957.17 381.455 947.402 373.033 931.649 373.033H900.742V442.776H911.081V417.757H928.629L946.259 442.831H958.339L939.294 416.067L940.845 415.631ZM911.053 408.818V382.381H930.561C940.736 382.381 946.559 387.205 946.559 395.572C946.559 403.939 940.328 408.818 930.67 408.818H911.053Z" fill="#372D59"/>
</svg>
