<svg width="1325" height="827" viewBox="0 0 1325 827" fill="none" xmlns="http://www.w3.org/2000/svg">
<rect width="1325" height="827" fill="white"/>
<rect x="957.884" y="329.743" width="6.34884" height="1.25714" fill="#BCBCBC"/>
<rect x="966.772" y="329.743" width="6.34884" height="1.25714" fill="#BCBCBC"/>
<rect x="975.66" y="329.743" width="6.34884" height="1.25714" fill="#BCBCBC"/>
<rect x="984.549" y="329.743" width="6.34884" height="1.25714" fill="#BCBCBC"/>
<rect x="993.438" y="329.743" width="6.34884" height="1.25714" fill="#BCBCBC"/>
<rect x="1002.33" y="329.743" width="6.34884" height="1.25714" fill="#BCBCBC"/>
<rect x="1011.21" y="329.743" width="6.34884" height="1.25714" fill="#BCBCBC"/>
<rect x="1020.1" y="329.743" width="6.34884" height="1.25714" fill="#BCBCBC"/>
<rect x="886.776" y="329.743" width="6.34884" height="1.25714" fill="#BCBCBC"/>
<rect x="895.665" y="329.743" width="6.34884" height="1.25714" fill="#BCBCBC"/>
<rect x="904.554" y="329.743" width="6.34884" height="1.25714" fill="#BCBCBC"/>
<rect x="913.441" y="329.743" width="6.34884" height="1.25714" fill="#BCBCBC"/>
<rect x="869" y="329.743" width="6.34884" height="1.25714" fill="#BCBCBC"/>
<rect x="877.889" y="329.743" width="6.34884" height="1.25714" fill="#BCBCBC"/>
<rect x="922.33" y="329.743" width="6.34884" height="1.25714" fill="#BCBCBC"/>
<rect x="931.219" y="329.743" width="6.34884" height="1.25714" fill="#BCBCBC"/>
<rect x="940.107" y="329.743" width="6.34884" height="1.25714" fill="#BCBCBC"/>
<rect x="948.995" y="329.743" width="6.34884" height="1.25714" fill="#BCBCBC"/>
<rect x="1028.99" y="329.743" width="6.34884" height="1.25714" fill="#BCBCBC"/>
<rect x="1037.88" y="329.743" width="6.34884" height="1.25714" fill="#BCBCBC"/>
<rect x="1046.77" y="329.743" width="6.34884" height="1.25714" fill="#BCBCBC"/>
<rect x="1055.66" y="329.743" width="6.34884" height="1.25714" fill="#BCBCBC"/>
<rect x="1064.54" y="329.743" width="6.34884" height="1.25714" fill="#BCBCBC"/>
<rect x="1073.43" y="329.743" width="6.34884" height="1.25714" fill="#BCBCBC"/>
<rect x="1082.32" y="329.743" width="6.34884" height="1.25714" fill="#BCBCBC"/>
<rect x="1091.21" y="329.743" width="6.34884" height="1.25714" fill="#BCBCBC"/>
<rect x="1100.1" y="329.743" width="6.34884" height="1.25714" fill="#BCBCBC"/>
<rect x="1108.99" y="329.743" width="6.34884" height="1.25714" fill="#BCBCBC"/>
<rect x="1117.87" y="319.686" width="6.34884" height="11.3143" fill="#BCBCBC"/>
<rect x="1126.76" y="305.857" width="6.34884" height="25.1429" fill="#BCBCBC"/>
<rect x="1136" y="312" width="6" height="19" fill="#BCBCBC"/>
<line x1="1115.06" y1="293" x2="1115.06" y2="330" stroke="black" stroke-width="2"/>
<path d="M405.92 249.2C402.5 249.2 400.14 247.26 400.14 243.3V234.64H402.7V243.22C402.7 245.84 404 246.94 405.92 246.94C407.86 246.94 409.16 245.84 409.16 243.22V234.64H411.72V243.3C411.72 247.26 409.36 249.2 405.92 249.2ZM412.767 246.2L414.727 244.58C415.727 246.14 417.227 247.04 418.867 247.04C420.487 247.04 421.707 246.3 421.707 244.92C421.707 243.46 420.207 243.26 418.067 242.74C415.907 242.22 413.587 241.58 413.587 238.78C413.587 236.12 415.867 234.42 418.767 234.42C421.227 234.42 423.147 235.58 424.107 237.08L422.227 238.7C421.427 237.46 420.367 236.6 418.687 236.6C417.147 236.6 416.087 237.38 416.087 238.52C416.087 239.78 417.187 240.04 419.127 240.48C421.447 241 424.227 241.54 424.227 244.66C424.227 247.48 421.747 249.22 418.787 249.22C416.327 249.22 413.887 248.04 412.767 246.2ZM426.024 234.64H435.744V236.88H428.544V240.48H434.604V242.72H428.544V246.76H435.744V249H426.024V234.64ZM440.459 243.44V249H437.899V234.64H443.639C446.839 234.64 448.839 236.14 448.839 239.04C448.839 241.3 447.599 242.74 445.499 243.24L449.199 249H446.279L442.779 243.44H440.459ZM440.459 241.24H443.499C445.339 241.24 446.319 240.44 446.319 239.04C446.319 237.62 445.339 236.84 443.499 236.84H440.459V241.24ZM453.627 246.2L455.587 244.58C456.587 246.14 458.087 247.04 459.727 247.04C461.347 247.04 462.567 246.3 462.567 244.92C462.567 243.46 461.067 243.26 458.927 242.74C456.767 242.22 454.447 241.58 454.447 238.78C454.447 236.12 456.727 234.42 459.627 234.42C462.087 234.42 464.007 235.58 464.967 237.08L463.087 238.7C462.287 237.46 461.227 236.6 459.547 236.6C458.007 236.6 456.947 237.38 456.947 238.52C456.947 239.78 458.047 240.04 459.987 240.48C462.307 241 465.087 241.54 465.087 244.66C465.087 247.48 462.607 249.22 459.647 249.22C457.187 249.22 454.747 248.04 453.627 246.2ZM477.33 236.88H472.71V249H470.15V236.88H465.53V234.64H477.33V236.88ZM477.257 241.82C477.257 237.46 480.057 234.42 483.937 234.42C487.817 234.42 490.617 237.46 490.617 241.82C490.617 246.18 487.817 249.22 483.937 249.22C480.057 249.22 477.257 246.18 477.257 241.82ZM488.057 241.82C488.057 238.7 486.357 236.68 483.937 236.68C481.517 236.68 479.817 238.7 479.817 241.82C479.817 244.94 481.517 246.96 483.937 246.96C486.357 246.96 488.057 244.94 488.057 241.82ZM495.166 243.44V249H492.606V234.64H498.346C501.546 234.64 503.546 236.14 503.546 239.04C503.546 241.3 502.306 242.74 500.206 243.24L503.906 249H500.986L497.486 243.44H495.166ZM495.166 241.24H498.206C500.046 241.24 501.026 240.44 501.026 239.04C501.026 237.62 500.046 236.84 498.206 236.84H495.166V241.24ZM510.109 240.74L513.829 234.64H516.549L511.369 243.08V249H508.809V243.08L503.609 234.64H506.389L510.109 240.74Z" fill="black"/>
<path d="M881.1 236.88H876.48V249H873.92V236.88H869.3V234.64H881.1V236.88ZM885.322 234.64V249H882.762V234.64H885.322ZM896.256 249H894.176L890.416 237.9V249H888.036V234.64H891.556L895.256 245.64L898.956 234.64H902.396V249H900.016V237.9L896.256 249ZM905.106 234.64H914.826V236.88H907.626V240.48H913.686V242.72H907.626V246.76H914.826V249H905.106V234.64ZM927.962 234.64H930.222L932.902 245.18L935.622 234.64H938.182L934.302 249H931.782L929.062 238.88L926.362 249H923.842L919.942 234.64H922.582L925.302 245.18L927.962 234.64ZM942.295 234.64V249H939.735V234.64H942.295ZM956.828 234.64V249H954.588L947.468 238.46V249H945.008V234.64H947.648L954.368 244.7V234.64H956.828ZM959.54 249V234.64H964.34C968.8 234.64 971.56 237.44 971.56 241.82C971.56 246.2 968.8 249 964.34 249H959.54ZM962.04 246.8H964.34C967.3 246.8 969.04 244.84 969.04 241.82C969.04 238.78 967.3 236.84 964.32 236.84H962.04V246.8ZM972.921 241.82C972.921 237.46 975.721 234.42 979.601 234.42C983.481 234.42 986.281 237.46 986.281 241.82C986.281 246.18 983.481 249.22 979.601 249.22C975.721 249.22 972.921 246.18 972.921 241.82ZM983.721 241.82C983.721 238.7 982.021 236.68 979.601 236.68C977.181 236.68 975.481 238.7 975.481 241.82C975.481 244.94 977.181 246.96 979.601 246.96C982.021 246.96 983.721 244.94 983.721 241.82ZM994.622 234.64H996.882L999.562 245.18L1002.28 234.64H1004.84L1000.96 249H998.442L995.722 238.88L993.022 249H990.502L986.602 234.64H989.242L991.962 245.18L994.622 234.64Z" fill="black"/>
<path d="M184.9 246.2L186.86 244.58C187.86 246.14 189.36 247.04 191 247.04C192.62 247.04 193.84 246.3 193.84 244.92C193.84 243.46 192.34 243.26 190.2 242.74C188.04 242.22 185.72 241.58 185.72 238.78C185.72 236.12 188 234.42 190.9 234.42C193.36 234.42 195.28 235.58 196.24 237.08L194.36 238.7C193.56 237.46 192.5 236.6 190.82 236.6C189.28 236.6 188.22 237.38 188.22 238.52C188.22 239.78 189.32 240.04 191.26 240.48C193.58 241 196.36 241.54 196.36 244.66C196.36 247.48 193.88 249.22 190.92 249.22C188.46 249.22 186.02 248.04 184.9 246.2ZM208.604 236.88H203.984V249H201.424V236.88H196.804V234.64H208.604V236.88ZM212.847 234.64H215.747L221.187 249H218.607L217.367 245.72H211.167L209.947 249H207.407L212.847 234.64ZM214.247 237.48L212.007 243.48H216.527L214.247 237.48ZM231.788 236.88H227.168V249H224.608V236.88H219.988V234.64H231.788V236.88ZM239.01 249.2C235.59 249.2 233.23 247.26 233.23 243.3V234.64H235.79V243.22C235.79 245.84 237.09 246.94 239.01 246.94C240.95 246.94 242.25 245.84 242.25 243.22V234.64H244.81V243.3C244.81 247.26 242.45 249.2 239.01 249.2ZM245.857 246.2L247.817 244.58C248.817 246.14 250.317 247.04 251.957 247.04C253.577 247.04 254.797 246.3 254.797 244.92C254.797 243.46 253.297 243.26 251.157 242.74C248.997 242.22 246.677 241.58 246.677 238.78C246.677 236.12 248.957 234.42 251.857 234.42C254.317 234.42 256.237 235.58 257.197 237.08L255.317 238.7C254.517 237.46 253.457 236.6 251.777 236.6C250.237 236.6 249.177 237.38 249.177 238.52C249.177 239.78 250.277 240.04 252.217 240.48C254.537 241 257.317 241.54 257.317 244.66C257.317 247.48 254.837 249.22 251.877 249.22C249.417 249.22 246.977 248.04 245.857 246.2Z" fill="black"/>
<path d="M410.16 330H408.312L403.056 315.816V330H400.896V312.768H404.04L409.272 326.928L414.528 312.768H417.576V330H415.44V315.816L410.16 330ZM425.94 331.368C425.22 333.264 424.236 334.464 422.052 334.464C421.524 334.464 421.26 334.44 420.876 334.368V332.496C421.284 332.592 421.548 332.616 421.908 332.616C422.844 332.616 423.348 332.28 423.852 331.032L424.452 329.544L419.796 317.448H422.076L425.604 327.048L429.084 317.448H431.34L425.94 331.368ZM445.015 317.4V319.584C444.655 319.512 444.367 319.488 443.959 319.488C442.135 319.488 440.671 320.928 440.671 323.136V330H438.511V317.448H440.671V319.584C441.223 318.312 442.447 317.352 444.151 317.352C444.487 317.352 444.799 317.376 445.015 317.4ZM451.894 330.264C448.414 330.264 446.014 327.6 446.014 323.736C446.014 319.992 448.39 317.208 451.798 317.208C455.302 317.208 457.15 319.872 457.15 323.352V324.072H448.078C448.198 326.712 449.71 328.392 451.894 328.392C453.574 328.392 454.774 327.48 455.158 325.992L457.054 326.664C456.286 328.896 454.39 330.264 451.894 330.264ZM451.774 319.056C449.95 319.056 448.582 320.28 448.198 322.416H454.966C454.918 320.64 453.958 319.056 451.774 319.056ZM461.999 312.768V330H459.839V312.768H461.999ZM470.621 330.264C467.141 330.264 464.741 327.6 464.741 323.736C464.741 319.992 467.117 317.208 470.525 317.208C474.029 317.208 475.877 319.872 475.877 323.352V324.072H466.805C466.925 326.712 468.437 328.392 470.621 328.392C472.301 328.392 473.501 327.48 473.885 325.992L475.781 326.664C475.013 328.896 473.117 330.264 470.621 330.264ZM470.501 319.056C468.677 319.056 467.309 320.28 466.925 322.416H473.693C473.645 320.64 472.685 319.056 470.501 319.056ZM481.85 330.216C479.57 330.216 477.722 328.872 477.722 326.616C477.722 324.12 479.666 323.088 482.474 322.512L485.522 321.888V321.36C485.522 319.92 484.73 319.104 483.05 319.104C481.466 319.104 480.53 319.848 480.146 321.24L478.106 320.712C478.706 318.672 480.554 317.208 483.122 317.208C485.93 317.208 487.658 318.576 487.658 321.264V327.384C487.658 328.2 488.162 328.464 489.002 328.272V330C487.082 330.24 485.978 329.784 485.714 328.584C484.946 329.568 483.554 330.216 481.85 330.216ZM485.522 325.728V323.568L483.074 324.096C481.154 324.48 479.858 325.008 479.858 326.52C479.858 327.744 480.746 328.464 482.114 328.464C483.962 328.464 485.522 327.336 485.522 325.728ZM489.947 327.336L491.627 326.112C492.299 327.576 493.835 328.464 495.467 328.464C496.931 328.464 498.227 327.84 498.227 326.472C498.227 325.104 497.027 324.912 494.963 324.48C492.899 324.024 490.739 323.568 490.739 321C490.739 318.768 492.683 317.208 495.347 317.208C497.603 317.208 499.451 318.312 500.195 319.8L498.659 321.024C498.011 319.776 496.835 318.984 495.251 318.984C493.811 318.984 492.851 319.704 492.851 320.832C492.851 322.008 493.955 322.224 495.707 322.608C497.867 323.112 500.339 323.544 500.339 326.28C500.339 328.68 498.155 330.264 495.467 330.264C493.187 330.264 490.907 329.28 489.947 327.336ZM508.027 330.264C504.547 330.264 502.147 327.6 502.147 323.736C502.147 319.992 504.523 317.208 507.931 317.208C511.435 317.208 513.283 319.872 513.283 323.352V324.072H504.211C504.331 326.712 505.843 328.392 508.027 328.392C509.707 328.392 510.907 327.48 511.291 325.992L513.187 326.664C512.419 328.896 510.523 330.264 508.027 330.264ZM507.907 319.056C506.083 319.056 504.715 320.28 504.331 322.416H511.099C511.051 320.64 510.091 319.056 507.907 319.056ZM520.938 315.264V312.768H523.29V315.264H520.938ZM521.034 330.648V317.448H523.194V331.032C523.194 333.264 521.802 334.392 519.666 334.392C519.162 334.392 518.85 334.368 518.466 334.32V332.448C518.73 332.496 518.946 332.52 519.306 332.52C520.554 332.52 521.034 331.92 521.034 330.648ZM536.76 317.448V330H534.6V328.272C533.88 329.328 532.656 330.264 530.88 330.264C528.192 330.264 526.68 328.416 526.68 325.752V317.448H528.84V325.296C528.84 327.072 529.608 328.272 531.456 328.272C533.016 328.272 534.6 327.096 534.6 325.008V317.448H536.76ZM538.955 327.336L540.635 326.112C541.307 327.576 542.843 328.464 544.475 328.464C545.939 328.464 547.235 327.84 547.235 326.472C547.235 325.104 546.035 324.912 543.971 324.48C541.907 324.024 539.747 323.568 539.747 321C539.747 318.768 541.691 317.208 544.355 317.208C546.611 317.208 548.459 318.312 549.203 319.8L547.667 321.024C547.019 319.776 545.843 318.984 544.259 318.984C542.819 318.984 541.859 319.704 541.859 320.832C541.859 322.008 542.963 322.224 544.715 322.608C546.875 323.112 549.347 323.544 549.347 326.28C549.347 328.68 547.163 330.264 544.475 330.264C542.195 330.264 539.915 329.28 538.955 327.336ZM552.355 327V319.296H550.411V317.448H552.355V313.776H554.491V317.448H557.347V319.296H554.491V326.664C554.491 327.984 555.139 328.224 556.243 328.224C556.747 328.224 557.107 328.2 557.611 328.08V329.928C557.059 330.048 556.435 330.12 555.715 330.12C553.579 330.12 552.355 329.4 552.355 327ZM566.534 323.736C566.534 326.592 568.07 328.368 570.302 328.368C572.03 328.368 573.062 327.264 573.422 325.704L575.342 326.592C574.742 328.68 572.918 330.264 570.302 330.264C566.798 330.264 564.374 327.6 564.374 323.736C564.374 319.848 566.798 317.208 570.302 317.208C572.918 317.208 574.694 318.72 575.294 320.808L573.422 321.744C573.062 320.208 572.03 319.08 570.302 319.08C568.07 319.08 566.534 320.856 566.534 323.736ZM580.991 330.216C578.711 330.216 576.863 328.872 576.863 326.616C576.863 324.12 578.807 323.088 581.615 322.512L584.663 321.888V321.36C584.663 319.92 583.871 319.104 582.191 319.104C580.607 319.104 579.671 319.848 579.287 321.24L577.247 320.712C577.847 318.672 579.695 317.208 582.263 317.208C585.071 317.208 586.799 318.576 586.799 321.264V327.384C586.799 328.2 587.303 328.464 588.143 328.272V330C586.223 330.24 585.119 329.784 584.855 328.584C584.087 329.568 582.695 330.216 580.991 330.216ZM584.663 325.728V323.568L582.215 324.096C580.295 324.48 578.999 325.008 578.999 326.52C578.999 327.744 579.887 328.464 581.255 328.464C583.103 328.464 584.663 327.336 584.663 325.728ZM600.44 317.448V330H598.28V328.272C597.56 329.328 596.336 330.264 594.56 330.264C591.872 330.264 590.36 328.416 590.36 325.752V317.448H592.52V325.296C592.52 327.072 593.288 328.272 595.136 328.272C596.696 328.272 598.28 327.096 598.28 325.008V317.448H600.44ZM602.635 327.336L604.315 326.112C604.987 327.576 606.523 328.464 608.155 328.464C609.619 328.464 610.915 327.84 610.915 326.472C610.915 325.104 609.715 324.912 607.651 324.48C605.587 324.024 603.427 323.568 603.427 321C603.427 318.768 605.371 317.208 608.035 317.208C610.291 317.208 612.139 318.312 612.883 319.8L611.347 321.024C610.699 319.776 609.523 318.984 607.939 318.984C606.499 318.984 605.539 319.704 605.539 320.832C605.539 322.008 606.643 322.224 608.395 322.608C610.555 323.112 613.027 323.544 613.027 326.28C613.027 328.68 610.843 330.264 608.155 330.264C605.875 330.264 603.595 329.28 602.635 327.336ZM620.714 330.264C617.234 330.264 614.834 327.6 614.834 323.736C614.834 319.992 617.21 317.208 620.618 317.208C624.122 317.208 625.97 319.872 625.97 323.352V324.072H616.898C617.018 326.712 618.53 328.392 620.714 328.392C622.394 328.392 623.594 327.48 623.978 325.992L625.874 326.664C625.106 328.896 623.21 330.264 620.714 330.264ZM620.594 319.056C618.77 319.056 617.402 320.28 617.018 322.416H623.786C623.738 320.64 622.778 319.056 620.594 319.056ZM633.267 330.264C629.787 330.264 627.795 327.288 627.795 323.736C627.795 320.16 629.787 317.208 633.267 317.208C635.019 317.208 636.411 318.048 637.155 319.272V312.768H639.315V330H637.155V328.176C636.411 329.424 635.019 330.264 633.267 330.264ZM637.203 323.304C637.203 320.376 635.427 319.104 633.651 319.104C631.299 319.104 629.979 321.024 629.979 323.736C629.979 326.424 631.299 328.368 633.651 328.368C635.427 328.368 637.203 327.072 637.203 324.192V323.304ZM651.092 330.216C648.812 330.216 646.964 328.872 646.964 326.616C646.964 324.12 648.908 323.088 651.716 322.512L654.764 321.888V321.36C654.764 319.92 653.972 319.104 652.292 319.104C650.708 319.104 649.772 319.848 649.388 321.24L647.348 320.712C647.948 318.672 649.796 317.208 652.364 317.208C655.172 317.208 656.9 318.576 656.9 321.264V327.384C656.9 328.2 657.404 328.464 658.244 328.272V330C656.324 330.24 655.22 329.784 654.956 328.584C654.188 329.568 652.796 330.216 651.092 330.216ZM654.764 325.728V323.568L652.316 324.096C650.396 324.48 649.1 325.008 649.1 326.52C649.1 327.744 649.988 328.464 651.356 328.464C653.204 328.464 654.764 327.336 654.764 325.728ZM660.581 330V317.448H662.741V319.152C663.461 318.12 664.709 317.208 666.485 317.208C669.149 317.208 670.661 319.056 670.661 321.72V330H668.501V322.296C668.501 320.544 667.757 319.224 665.885 319.224C664.325 319.224 662.741 320.424 662.741 322.512V330H660.581ZM679.095 315.264V312.768H681.447V315.264H679.095ZM681.351 317.448V330H679.191V317.448H681.351ZM683.564 327.336L685.244 326.112C685.916 327.576 687.452 328.464 689.084 328.464C690.548 328.464 691.844 327.84 691.844 326.472C691.844 325.104 690.644 324.912 688.58 324.48C686.516 324.024 684.356 323.568 684.356 321C684.356 318.768 686.3 317.208 688.964 317.208C691.22 317.208 693.068 318.312 693.812 319.8L692.276 321.024C691.628 319.776 690.452 318.984 688.868 318.984C687.428 318.984 686.468 319.704 686.468 320.832C686.468 322.008 687.572 322.224 689.324 322.608C691.484 323.112 693.956 323.544 693.956 326.28C693.956 328.68 691.772 330.264 689.084 330.264C686.804 330.264 684.524 329.28 683.564 327.336ZM695.236 327.336L696.916 326.112C697.588 327.576 699.124 328.464 700.756 328.464C702.22 328.464 703.516 327.84 703.516 326.472C703.516 325.104 702.316 324.912 700.252 324.48C698.188 324.024 696.028 323.568 696.028 321C696.028 318.768 697.972 317.208 700.636 317.208C702.892 317.208 704.74 318.312 705.484 319.8L703.948 321.024C703.3 319.776 702.124 318.984 700.54 318.984C699.1 318.984 698.14 319.704 698.14 320.832C698.14 322.008 699.244 322.224 700.996 322.608C703.156 323.112 705.628 323.544 705.628 326.28C705.628 328.68 703.444 330.264 700.756 330.264C698.476 330.264 696.196 329.28 695.236 327.336ZM718.26 317.448V330H716.1V328.272C715.38 329.328 714.156 330.264 712.38 330.264C709.692 330.264 708.18 328.416 708.18 325.752V317.448H710.34V325.296C710.34 327.072 711.108 328.272 712.956 328.272C714.516 328.272 716.1 327.096 716.1 325.008V317.448H718.26ZM726.863 330.264C723.383 330.264 720.983 327.6 720.983 323.736C720.983 319.992 723.359 317.208 726.767 317.208C730.271 317.208 732.119 319.872 732.119 323.352V324.072H723.047C723.167 326.712 724.679 328.392 726.863 328.392C728.543 328.392 729.743 327.48 730.127 325.992L732.023 326.664C731.255 328.896 729.359 330.264 726.863 330.264ZM726.743 319.056C724.919 319.056 723.551 320.28 723.167 322.416H729.935C729.887 320.64 728.927 319.056 726.743 319.056Z" fill="black"/>
<path d="M200.504 312.768V330H198.512L189.104 316.128V330H186.896V312.768H189.32L198.272 326.088V312.768H200.504ZM209.207 330.264C205.727 330.264 203.327 327.6 203.327 323.736C203.327 319.992 205.703 317.208 209.111 317.208C212.615 317.208 214.463 319.872 214.463 323.352V324.072H205.391C205.511 326.712 207.023 328.392 209.207 328.392C210.887 328.392 212.087 327.48 212.471 325.992L214.367 326.664C213.599 328.896 211.703 330.264 209.207 330.264ZM209.087 319.056C207.263 319.056 205.895 320.28 205.511 322.416H212.279C212.231 320.64 211.271 319.056 209.087 319.056ZM223.01 317.448H224.834L227.426 326.808L230.042 317.448H232.202L228.386 330H226.49L223.874 320.688L221.258 330H219.362L215.546 317.448H217.778L220.418 326.784L223.01 317.448Z" fill="black"/>
<rect x="956.884" y="588.829" width="6.34884" height="6.17143" fill="#BCBCBC"/>
<rect x="965.772" y="585.743" width="6.34884" height="9.25714" fill="#BCBCBC"/>
<rect x="974.66" y="585.743" width="6.34884" height="9.25714" fill="#BCBCBC"/>
<rect x="983.549" y="585.743" width="6.34884" height="9.25714" fill="#BCBCBC"/>
<rect x="992.437" y="585.743" width="6.34884" height="9.25714" fill="#BCBCBC"/>
<rect x="1001.33" y="581.629" width="6.34884" height="13.3714" fill="#BCBCBC"/>
<rect x="1010.21" y="581.629" width="6.34884" height="13.3714" fill="#BCBCBC"/>
<rect x="1019.1" y="593.971" width="6.34884" height="1.02857" fill="#BCBCBC"/>
<rect x="885.777" y="590.886" width="6.34884" height="4.11429" fill="#BCBCBC"/>
<rect x="894.665" y="590.886" width="6.34884" height="4.11429" fill="#BCBCBC"/>
<rect x="903.553" y="583.686" width="6.34884" height="11.3143" fill="#BCBCBC"/>
<rect x="912.442" y="583.686" width="6.34884" height="11.3143" fill="#BCBCBC"/>
<rect x="868" y="590.886" width="6.34884" height="4.11429" fill="#BCBCBC"/>
<rect x="876.888" y="590.886" width="6.34884" height="4.11429" fill="#BCBCBC"/>
<rect x="921.33" y="583.686" width="6.34884" height="11.3143" fill="#BCBCBC"/>
<rect x="930.219" y="583.686" width="6.34884" height="11.3143" fill="#BCBCBC"/>
<rect x="939.107" y="593.971" width="6.34884" height="1.02857" fill="#BCBCBC"/>
<rect x="947.995" y="588.829" width="6.34884" height="6.17143" fill="#BCBCBC"/>
<rect x="1027.99" y="593.971" width="6.34884" height="1.02857" fill="#BCBCBC"/>
<rect x="1036.88" y="591.914" width="6.34884" height="3.08571" fill="#BCBCBC"/>
<rect x="1045.77" y="593.971" width="6.34884" height="1.02857" fill="#BCBCBC"/>
<rect x="1054.66" y="593.971" width="6.34884" height="1.02857" fill="#BCBCBC"/>
<rect x="1063.54" y="593.971" width="6.34884" height="1.02857" fill="#BCBCBC"/>
<rect x="1072.43" y="593.971" width="6.34884" height="1.02857" fill="#BCBCBC"/>
<rect x="1081.32" y="593.971" width="6.34884" height="1.02857" fill="#BCBCBC"/>
<rect x="1090.21" y="593.971" width="6.34884" height="1.02857" fill="#BCBCBC"/>
<rect x="1099.1" y="590.886" width="6.34884" height="4.11429" fill="#BCBCBC"/>
<rect x="1107.99" y="593.971" width="6.34884" height="1.02857" fill="#BCBCBC"/>
<rect x="1116.87" y="593.971" width="6.34884" height="1.02857" fill="#BCBCBC"/>
<rect x="1125.76" y="593.971" width="6.34884" height="1.02857" fill="#BCBCBC"/>
<rect x="1134.65" y="593.971" width="6.34884" height="1.02857" fill="#BCBCBC"/>
<line x1="1034.07" y1="559" x2="1034.07" y2="595" stroke="black" stroke-width="2"/>
<path d="M399.888 517.384C399.888 512.128 403.2 508.504 407.712 508.504C412.224 508.504 415.512 512.128 415.512 517.384C415.512 522.64 412.224 526.264 407.712 526.264C403.2 526.264 399.888 522.64 399.888 517.384ZM413.232 517.384C413.232 513.304 410.952 510.544 407.712 510.544C404.472 510.544 402.192 513.304 402.192 517.384C402.192 521.464 404.472 524.224 407.712 524.224C410.952 524.224 413.232 521.464 413.232 517.384ZM420.374 508.768V526H418.214V508.768H420.374ZM428.588 526.264C425.108 526.264 423.116 523.288 423.116 519.736C423.116 516.16 425.108 513.208 428.588 513.208C430.34 513.208 431.732 514.048 432.476 515.272V508.768H434.636V526H432.476V524.176C431.732 525.424 430.34 526.264 428.588 526.264ZM432.524 519.304C432.524 516.376 430.748 515.104 428.972 515.104C426.62 515.104 425.3 517.024 425.3 519.736C425.3 522.424 426.62 524.368 428.972 524.368C430.748 524.368 432.524 523.072 432.524 520.192V519.304ZM443.173 511.264V508.768H445.525V511.264H443.173ZM445.429 513.448V526H443.269V513.448H445.429ZM447.642 523.336L449.322 522.112C449.994 523.576 451.53 524.464 453.162 524.464C454.626 524.464 455.922 523.84 455.922 522.472C455.922 521.104 454.722 520.912 452.658 520.48C450.594 520.024 448.434 519.568 448.434 517C448.434 514.768 450.378 513.208 453.042 513.208C455.298 513.208 457.146 514.312 457.89 515.8L456.354 517.024C455.706 515.776 454.53 514.984 452.946 514.984C451.506 514.984 450.546 515.704 450.546 516.832C450.546 518.008 451.65 518.224 453.402 518.608C455.562 519.112 458.034 519.544 458.034 522.28C458.034 524.68 455.85 526.264 453.162 526.264C450.882 526.264 448.602 525.28 447.642 523.336ZM459.314 523.336L460.994 522.112C461.666 523.576 463.202 524.464 464.834 524.464C466.298 524.464 467.594 523.84 467.594 522.472C467.594 521.104 466.394 520.912 464.33 520.48C462.266 520.024 460.106 519.568 460.106 517C460.106 514.768 462.05 513.208 464.714 513.208C466.97 513.208 468.818 514.312 469.562 515.8L468.026 517.024C467.378 515.776 466.202 514.984 464.618 514.984C463.178 514.984 462.218 515.704 462.218 516.832C462.218 518.008 463.322 518.224 465.074 518.608C467.234 519.112 469.706 519.544 469.706 522.28C469.706 524.68 467.522 526.264 464.834 526.264C462.554 526.264 460.274 525.28 459.314 523.336ZM482.338 513.448V526H480.178V524.272C479.458 525.328 478.234 526.264 476.458 526.264C473.77 526.264 472.258 524.416 472.258 521.752V513.448H474.418V521.296C474.418 523.072 475.186 524.272 477.034 524.272C478.594 524.272 480.178 523.096 480.178 521.008V513.448H482.338ZM490.941 526.264C487.461 526.264 485.061 523.6 485.061 519.736C485.061 515.992 487.437 513.208 490.845 513.208C494.349 513.208 496.197 515.872 496.197 519.352V520.072H487.125C487.245 522.712 488.757 524.392 490.941 524.392C492.621 524.392 493.821 523.48 494.205 521.992L496.101 522.664C495.333 524.896 493.437 526.264 490.941 526.264ZM490.821 515.056C488.997 515.056 487.629 516.28 487.245 518.416H494.013C493.965 516.64 493.005 515.056 490.821 515.056Z" fill="black"/>
<path d="M185.888 517.384C185.888 512.128 189.2 508.504 193.712 508.504C198.224 508.504 201.512 512.128 201.512 517.384C201.512 522.64 198.224 526.264 193.712 526.264C189.2 526.264 185.888 522.64 185.888 517.384ZM199.232 517.384C199.232 513.304 196.952 510.544 193.712 510.544C190.472 510.544 188.192 513.304 188.192 517.384C188.192 521.464 190.472 524.224 193.712 524.224C196.952 524.224 199.232 521.464 199.232 517.384ZM204.214 526V513.448H206.374V515.152C207.094 514.12 208.342 513.208 210.118 513.208C212.782 513.208 214.294 515.056 214.294 517.72V526H212.134V518.296C212.134 516.544 211.39 515.224 209.518 515.224C207.958 515.224 206.374 516.424 206.374 518.512V526H204.214ZM228.393 524.872C228.393 528.544 225.969 530.584 222.561 530.584C219.801 530.584 217.785 529.312 217.089 527.008L219.105 526.24C219.513 527.848 220.809 528.784 222.561 528.784C224.769 528.784 226.233 527.656 226.233 525.04V523.624C225.561 524.848 224.145 525.712 222.393 525.712C218.961 525.712 216.945 522.88 216.945 519.448C216.945 516.04 218.961 513.208 222.393 513.208C224.121 513.208 225.561 514.072 226.233 515.296V513.448H228.393V524.872ZM226.257 519.256C226.257 516.448 224.577 515.104 222.777 515.104C220.497 515.104 219.105 516.808 219.105 519.448C219.105 522.088 220.497 523.816 222.777 523.816C224.577 523.816 226.257 522.472 226.257 519.712V519.256ZM242.788 519.736C242.788 523.624 240.388 526.264 236.956 526.264C233.524 526.264 231.124 523.624 231.124 519.736C231.124 515.848 233.524 513.208 236.956 513.208C240.388 513.208 242.788 515.848 242.788 519.736ZM233.308 519.736C233.308 522.592 234.748 524.416 236.956 524.416C239.164 524.416 240.604 522.592 240.604 519.736C240.604 516.856 239.164 515.032 236.956 515.032C234.748 515.032 233.308 516.856 233.308 519.736ZM245.438 511.264V508.768H247.79V511.264H245.438ZM247.694 513.448V526H245.534V513.448H247.694ZM251.3 526V513.448H253.46V515.152C254.18 514.12 255.428 513.208 257.204 513.208C259.868 513.208 261.38 515.056 261.38 517.72V526H259.22V518.296C259.22 516.544 258.476 515.224 256.604 515.224C255.044 515.224 253.46 516.424 253.46 518.512V526H251.3ZM275.479 524.872C275.479 528.544 273.055 530.584 269.647 530.584C266.887 530.584 264.871 529.312 264.175 527.008L266.191 526.24C266.599 527.848 267.895 528.784 269.647 528.784C271.855 528.784 273.319 527.656 273.319 525.04V523.624C272.647 524.848 271.231 525.712 269.479 525.712C266.047 525.712 264.031 522.88 264.031 519.448C264.031 516.04 266.047 513.208 269.479 513.208C271.207 513.208 272.647 514.072 273.319 515.296V513.448H275.479V524.872ZM273.343 519.256C273.343 516.448 271.663 515.104 269.863 515.104C267.583 515.104 266.191 516.808 266.191 519.448C266.191 522.088 267.583 523.816 269.863 523.816C271.663 523.816 273.343 522.472 273.343 519.712V519.256Z" fill="black"/>
<path d="M414.504 573.768V591H412.512L403.104 577.128V591H400.896V573.768H403.32L412.272 587.088V573.768H414.504ZM428.991 584.736C428.991 588.624 426.591 591.264 423.159 591.264C419.727 591.264 417.327 588.624 417.327 584.736C417.327 580.848 419.727 578.208 423.159 578.208C426.591 578.208 428.991 580.848 428.991 584.736ZM419.511 584.736C419.511 587.592 420.951 589.416 423.159 589.416C425.367 589.416 426.807 587.592 426.807 584.736C426.807 581.856 425.367 580.032 423.159 580.032C420.951 580.032 419.511 581.856 419.511 584.736ZM432.074 588V580.296H430.13V578.448H432.074V574.776H434.21V578.448H437.066V580.296H434.21V587.664C434.21 588.984 434.858 589.224 435.962 589.224C436.466 589.224 436.826 589.2 437.33 589.08V590.928C436.778 591.048 436.154 591.12 435.434 591.12C433.298 591.12 432.074 590.4 432.074 588ZM446.252 584.736C446.252 587.592 447.788 589.368 450.02 589.368C451.748 589.368 452.78 588.264 453.14 586.704L455.06 587.592C454.46 589.68 452.636 591.264 450.02 591.264C446.516 591.264 444.092 588.6 444.092 584.736C444.092 580.848 446.516 578.208 450.02 578.208C452.636 578.208 454.412 579.72 455.012 581.808L453.14 582.744C452.78 581.208 451.748 580.08 450.02 580.08C447.788 580.08 446.252 581.856 446.252 584.736ZM463.929 578.4V580.584C463.569 580.512 463.281 580.488 462.873 580.488C461.049 580.488 459.585 581.928 459.585 584.136V591H457.425V578.448H459.585V580.584C460.137 579.312 461.361 578.352 463.065 578.352C463.401 578.352 463.713 578.376 463.929 578.4ZM466.212 576.264V573.768H468.564V576.264H466.212ZM468.468 578.448V591H466.308V578.448H468.468ZM472.409 588V580.296H470.465V578.448H472.409V574.776H474.545V578.448H477.401V580.296H474.545V587.664C474.545 588.984 475.193 589.224 476.297 589.224C476.801 589.224 477.161 589.2 477.665 589.08V590.928C477.113 591.048 476.489 591.12 475.769 591.12C473.633 591.12 472.409 590.4 472.409 588ZM480.134 576.264V573.768H482.486V576.264H480.134ZM482.39 578.448V591H480.23V578.448H482.39ZM487.291 584.736C487.291 587.592 488.827 589.368 491.059 589.368C492.787 589.368 493.819 588.264 494.179 586.704L496.099 587.592C495.499 589.68 493.675 591.264 491.059 591.264C487.555 591.264 485.131 588.6 485.131 584.736C485.131 580.848 487.555 578.208 491.059 578.208C493.675 578.208 495.451 579.72 496.051 581.808L494.179 582.744C493.819 581.208 492.787 580.08 491.059 580.08C488.827 580.08 487.291 581.856 487.291 584.736ZM501.749 591.216C499.469 591.216 497.621 589.872 497.621 587.616C497.621 585.12 499.565 584.088 502.373 583.512L505.421 582.888V582.36C505.421 580.92 504.629 580.104 502.949 580.104C501.365 580.104 500.429 580.848 500.045 582.24L498.005 581.712C498.605 579.672 500.453 578.208 503.021 578.208C505.829 578.208 507.557 579.576 507.557 582.264V588.384C507.557 589.2 508.061 589.464 508.901 589.272V591C506.981 591.24 505.877 590.784 505.613 589.584C504.845 590.568 503.453 591.216 501.749 591.216ZM505.421 586.728V584.568L502.973 585.096C501.053 585.48 499.757 586.008 499.757 587.52C499.757 588.744 500.645 589.464 502.013 589.464C503.861 589.464 505.421 588.336 505.421 586.728ZM513.398 573.768V591H511.238V573.768H513.398ZM522.402 588V580.296H520.458V578.448H522.402V574.776H524.538V578.448H527.394V580.296H524.538V587.664C524.538 588.984 525.186 589.224 526.29 589.224C526.794 589.224 527.154 589.2 527.658 589.08V590.928C527.106 591.048 526.482 591.12 525.762 591.12C523.626 591.12 522.402 590.4 522.402 588ZM540.952 584.736C540.952 588.624 538.552 591.264 535.12 591.264C531.688 591.264 529.288 588.624 529.288 584.736C529.288 580.848 531.688 578.208 535.12 578.208C538.552 578.208 540.952 580.848 540.952 584.736ZM531.472 584.736C531.472 587.592 532.912 589.416 535.12 589.416C537.328 589.416 538.768 587.592 538.768 584.736C538.768 581.856 537.328 580.032 535.12 580.032C532.912 580.032 531.472 581.856 531.472 584.736ZM554.233 573.552V575.472C553.873 575.424 553.657 575.424 553.297 575.424C552.025 575.424 551.329 575.976 551.329 577.584V578.448H554.113V580.296H551.329V591H549.169V580.296H547.273V578.448H549.169V577.44C549.169 574.992 550.513 573.504 553.081 573.504C553.513 573.504 553.753 573.528 554.233 573.552ZM556.024 576.264V573.768H558.376V576.264H556.024ZM558.28 578.448V591H556.12V578.448H558.28ZM569.614 591L566.134 586.056L562.678 591H560.326L564.91 584.448L560.71 578.448H563.182L566.206 582.84L569.278 578.448H571.654L567.454 584.448L572.062 591H569.614Z" fill="black"/>
<path d="M192.032 573.768H194.576L201.224 591H198.896L197.144 586.464H189.416L187.688 591H185.384L192.032 573.768ZM193.256 576.36L190.184 584.448H196.376L193.256 576.36ZM209.781 578.4V580.584C209.421 580.512 209.133 580.488 208.725 580.488C206.901 580.488 205.437 581.928 205.437 584.136V591H203.277V578.448H205.437V580.584C205.989 579.312 207.213 578.352 208.917 578.352C209.253 578.352 209.565 578.376 209.781 578.4ZM212.94 584.736C212.94 587.592 214.476 589.368 216.708 589.368C218.436 589.368 219.468 588.264 219.828 586.704L221.748 587.592C221.148 589.68 219.324 591.264 216.708 591.264C213.204 591.264 210.78 588.6 210.78 584.736C210.78 580.848 213.204 578.208 216.708 578.208C219.324 578.208 221.1 579.72 221.7 581.808L219.828 582.744C219.468 581.208 218.436 580.08 216.708 580.08C214.476 580.08 212.94 581.856 212.94 584.736ZM224.113 591V573.768H226.273V580.152C226.993 579.12 228.241 578.208 230.017 578.208C232.681 578.208 234.193 580.056 234.193 582.72V591H232.033V583.296C232.033 581.544 231.289 580.224 229.417 580.224C227.857 580.224 226.273 581.424 226.273 583.512V591H224.113ZM237.563 576.264V573.768H239.915V576.264H237.563ZM239.819 578.448V591H237.659V578.448H239.819ZM248.777 591H246.641L241.937 578.448H244.217L247.745 588.36L251.225 578.448H253.481L248.777 591ZM260.277 591.264C256.797 591.264 254.397 588.6 254.397 584.736C254.397 580.992 256.773 578.208 260.181 578.208C263.685 578.208 265.533 580.872 265.533 584.352V585.072H256.461C256.581 587.712 258.093 589.392 260.277 589.392C261.957 589.392 263.157 588.48 263.541 586.992L265.437 587.664C264.669 589.896 262.773 591.264 260.277 591.264ZM260.157 580.056C258.333 580.056 256.965 581.28 256.581 583.416H263.349C263.301 581.64 262.341 580.056 260.157 580.056ZM272.83 591.264C269.35 591.264 267.358 588.288 267.358 584.736C267.358 581.16 269.35 578.208 272.83 578.208C274.582 578.208 275.974 579.048 276.718 580.272V573.768H278.878V591H276.718V589.176C275.974 590.424 274.582 591.264 272.83 591.264ZM276.766 584.304C276.766 581.376 274.99 580.104 273.214 580.104C270.862 580.104 269.542 582.024 269.542 584.736C269.542 587.424 270.862 589.368 273.214 589.368C274.99 589.368 276.766 588.072 276.766 585.192V584.304Z" fill="black"/>
<rect x="955.884" y="526.686" width="6.34884" height="5.31429" fill="#BCBCBC"/>
<rect x="964.772" y="524.029" width="6.34884" height="7.97143" fill="#BCBCBC"/>
<rect x="973.66" y="524.029" width="6.34884" height="7.97143" fill="#BCBCBC"/>
<rect x="982.549" y="524.029" width="6.34884" height="7.97143" fill="#BCBCBC"/>
<rect x="991.437" y="524.029" width="6.34884" height="7.97143" fill="#BCBCBC"/>
<rect x="1000.33" y="520.486" width="6.34884" height="11.5143" fill="#BCBCBC"/>
<rect x="1009.21" y="520.486" width="6.34884" height="11.5143" fill="#BCBCBC"/>
<rect x="1018.1" y="520.486" width="6.34884" height="11.5143" fill="#BCBCBC"/>
<rect x="884.777" y="531.114" width="6.34884" height="0.885714" fill="#BCBCBC"/>
<rect x="893.665" y="531.114" width="6.34884" height="0.885714" fill="#BCBCBC"/>
<rect x="902.553" y="531.114" width="6.34884" height="0.885714" fill="#BCBCBC"/>
<rect x="911.442" y="531.114" width="6.34884" height="0.885714" fill="#BCBCBC"/>
<rect x="867" y="531.114" width="6.34884" height="0.885714" fill="#BCBCBC"/>
<rect x="875.888" y="531.114" width="6.34884" height="0.885714" fill="#BCBCBC"/>
<rect x="920.33" y="531.114" width="6.34884" height="0.885714" fill="#BCBCBC"/>
<rect x="929.219" y="531.114" width="6.34884" height="0.885714" fill="#BCBCBC"/>
<rect x="938.107" y="531.114" width="6.34884" height="0.885714" fill="#BCBCBC"/>
<rect x="946.995" y="526.686" width="6.34884" height="5.31429" fill="#BCBCBC"/>
<rect x="1026.99" y="523.143" width="6.34884" height="8.85714" fill="#BCBCBC"/>
<rect x="1035.88" y="529.343" width="6.34884" height="2.65714" fill="#BCBCBC"/>
<rect x="1044.77" y="523.143" width="6.34884" height="8.85714" fill="#BCBCBC"/>
<rect x="1053.66" y="520.486" width="6.34884" height="11.5143" fill="#BCBCBC"/>
<rect x="1062.54" y="516.057" width="6.34884" height="15.9429" fill="#BCBCBC"/>
<rect x="1071.43" y="516.057" width="6.34884" height="15.9429" fill="#BCBCBC"/>
<rect x="1080.32" y="516.057" width="6.34884" height="15.9429" fill="#BCBCBC"/>
<rect x="1089.21" y="510.743" width="6.34884" height="21.2571" fill="#BCBCBC"/>
<rect x="1098" y="523" width="6" height="9" fill="#BCBCBC"/>
<rect x="1106.99" y="510.743" width="6.34884" height="21.2571" fill="#BCBCBC"/>
<rect x="1115.87" y="516.057" width="6.34884" height="15.9429" fill="#BCBCBC"/>
<rect x="1124.76" y="516.057" width="6.34884" height="15.9429" fill="#BCBCBC"/>
<rect x="1133.65" y="523.143" width="6.34884" height="8.85714" fill="#BCBCBC"/>
<line x1="935.297" y1="496" x2="935.297" y2="532" stroke="black" stroke-width="2"/>
<rect x="956.884" y="392.572" width="6.34884" height="6.42857" fill="#BCBCBC"/>
<rect x="965.772" y="392.572" width="6.34884" height="6.42857" fill="#BCBCBC"/>
<rect x="974.66" y="392.572" width="6.34884" height="6.42857" fill="#BCBCBC"/>
<rect x="983.549" y="392.572" width="6.34884" height="6.42857" fill="#BCBCBC"/>
<rect x="992.438" y="392.572" width="6.34884" height="6.42857" fill="#BCBCBC"/>
<rect x="1001.33" y="392.572" width="6.34884" height="6.42857" fill="#BCBCBC"/>
<rect x="1010.21" y="392.572" width="6.34884" height="6.42857" fill="#BCBCBC"/>
<rect x="1019.1" y="392.572" width="6.34884" height="6.42857" fill="#BCBCBC"/>
<rect x="885.776" y="392.572" width="6.34884" height="6.42857" fill="#BCBCBC"/>
<rect x="894.665" y="392.572" width="6.34884" height="6.42857" fill="#BCBCBC"/>
<rect x="903.554" y="392.572" width="6.34884" height="6.42857" fill="#BCBCBC"/>
<rect x="912.441" y="392.572" width="6.34884" height="6.42857" fill="#BCBCBC"/>
<rect x="868" y="392.572" width="6.34884" height="6.42857" fill="#BCBCBC"/>
<rect x="876.889" y="392.572" width="6.34884" height="6.42857" fill="#BCBCBC"/>
<rect x="921.33" y="392.572" width="6.34884" height="6.42857" fill="#BCBCBC"/>
<rect x="930.219" y="392.572" width="6.34884" height="6.42857" fill="#BCBCBC"/>
<rect x="939.107" y="392.572" width="6.34884" height="6.42857" fill="#BCBCBC"/>
<rect x="947.995" y="392.572" width="6.34884" height="6.42857" fill="#BCBCBC"/>
<rect x="1027.99" y="392.572" width="6.34884" height="6.42857" fill="#BCBCBC"/>
<rect x="1036.88" y="392.572" width="6.34884" height="6.42857" fill="#BCBCBC"/>
<rect x="1045.77" y="392.572" width="6.34884" height="6.42857" fill="#BCBCBC"/>
<rect x="1054.66" y="392.572" width="6.34884" height="6.42857" fill="#BCBCBC"/>
<rect x="1063.54" y="392.572" width="6.34884" height="6.42857" fill="#BCBCBC"/>
<rect x="1072.43" y="392.572" width="6.34884" height="6.42857" fill="#BCBCBC"/>
<rect x="1081.32" y="392.572" width="6.34884" height="6.42857" fill="#BCBCBC"/>
<rect x="1090.21" y="392.572" width="6.34884" height="6.42857" fill="#BCBCBC"/>
<rect x="1099.1" y="392.572" width="6.34884" height="6.42857" fill="#BCBCBC"/>
<rect x="1107.99" y="392.572" width="6.34884" height="6.42857" fill="#BCBCBC"/>
<rect x="1116.87" y="392.572" width="6.34884" height="6.42857" fill="#BCBCBC"/>
<rect x="1126" y="362" width="6" height="37" fill="#BCBCBC"/>
<rect x="1134.65" y="354" width="6.34884" height="45" fill="#BCBCBC"/>
<line x1="1124" y1="362" x2="1124" y2="399" stroke="black" stroke-width="2"/>
<rect x="956.884" y="452.572" width="6.34884" height="15.4286" fill="#BCBCBC"/>
<rect x="965.772" y="466.714" width="6.34884" height="1.28571" fill="#BCBCBC"/>
<rect x="974.66" y="466.714" width="6.34884" height="1.28571" fill="#BCBCBC"/>
<rect x="983.549" y="466.714" width="6.34884" height="1.28571" fill="#BCBCBC"/>
<rect x="992.437" y="466.714" width="6.34884" height="1.28571" fill="#BCBCBC"/>
<rect x="1001.33" y="466.714" width="6.34884" height="1.28571" fill="#BCBCBC"/>
<rect x="1010.21" y="466.714" width="6.34884" height="1.28571" fill="#BCBCBC"/>
<rect x="1019.1" y="466.714" width="6.34884" height="1.28571" fill="#BCBCBC"/>
<rect x="885.777" y="460.286" width="6.34884" height="7.71429" fill="#BCBCBC"/>
<rect x="894.665" y="460.286" width="6.34884" height="7.71429" fill="#BCBCBC"/>
<rect x="903.553" y="460.286" width="6.34884" height="7.71429" fill="#BCBCBC"/>
<rect x="912.442" y="460.286" width="6.34884" height="7.71429" fill="#BCBCBC"/>
<rect x="868" y="460.286" width="6.34884" height="7.71429" fill="#BCBCBC"/>
<rect x="876.888" y="460.286" width="6.34884" height="7.71429" fill="#BCBCBC"/>
<rect x="921.33" y="460.286" width="6.34884" height="7.71429" fill="#BCBCBC"/>
<rect x="930.219" y="460.286" width="6.34884" height="7.71429" fill="#BCBCBC"/>
<rect x="939.107" y="452.572" width="6.34884" height="15.4286" fill="#BCBCBC"/>
<rect x="947.995" y="452.572" width="6.34884" height="15.4286" fill="#BCBCBC"/>
<rect x="1027.99" y="466.714" width="6.34884" height="1.28571" fill="#BCBCBC"/>
<rect x="1036.88" y="444.857" width="6.34884" height="23.1429" fill="#BCBCBC"/>
<rect x="1045.77" y="434.572" width="6.34884" height="33.4286" fill="#BCBCBC"/>
<rect x="1054.66" y="434.572" width="6.34884" height="33.4286" fill="#BCBCBC"/>
<rect x="1063.54" y="434.572" width="6.34884" height="33.4286" fill="#BCBCBC"/>
<rect x="1072.43" y="434.572" width="6.34884" height="33.4286" fill="#BCBCBC"/>
<rect x="1081.32" y="434.572" width="6.34884" height="33.4286" fill="#BCBCBC"/>
<rect x="1090.21" y="426.857" width="6.34884" height="41.1429" fill="#BCBCBC"/>
<rect x="1099" y="444" width="6" height="24" fill="#BCBCBC"/>
<rect x="1108" y="444" width="6" height="24" fill="#BCBCBC"/>
<rect x="1117" y="444" width="6" height="24" fill="#BCBCBC"/>
<rect x="1126" y="444" width="6" height="24" fill="#BCBCBC"/>
<rect x="1135" y="442" width="6" height="26" fill="#BCBCBC"/>
<line x1="1034.07" y1="432" x2="1034.07" y2="468" stroke="black" stroke-width="2"/>
<path d="M403.2 453.776V461H400.896V443.768H407.472C411.12 443.768 413.448 445.472 413.448 448.76C413.448 451.52 411.768 453.2 409.032 453.656L413.808 461H411.168L406.536 453.776H403.2ZM403.2 451.784H407.352C409.8 451.784 411.168 450.704 411.168 448.76C411.168 446.816 409.8 445.76 407.352 445.76H403.2V451.784ZM421.144 461.264C417.664 461.264 415.264 458.6 415.264 454.736C415.264 450.992 417.64 448.208 421.048 448.208C424.552 448.208 426.4 450.872 426.4 454.352V455.072H417.328C417.448 457.712 418.96 459.392 421.144 459.392C422.824 459.392 424.024 458.48 424.408 456.992L426.304 457.664C425.536 459.896 423.64 461.264 421.144 461.264ZM421.024 450.056C419.2 450.056 417.832 451.28 417.448 453.416H424.216C424.168 451.64 423.208 450.056 421.024 450.056ZM427.697 458.336L429.377 457.112C430.049 458.576 431.585 459.464 433.217 459.464C434.681 459.464 435.977 458.84 435.977 457.472C435.977 456.104 434.777 455.912 432.713 455.48C430.649 455.024 428.489 454.568 428.489 452C428.489 449.768 430.433 448.208 433.097 448.208C435.353 448.208 437.201 449.312 437.945 450.8L436.409 452.024C435.761 450.776 434.585 449.984 433.001 449.984C431.561 449.984 430.601 450.704 430.601 451.832C430.601 453.008 431.705 453.224 433.457 453.608C435.617 454.112 438.089 454.544 438.089 457.28C438.089 459.68 435.905 461.264 433.217 461.264C430.937 461.264 428.657 460.28 427.697 458.336ZM451.561 454.736C451.561 458.624 449.161 461.264 445.729 461.264C442.297 461.264 439.897 458.624 439.897 454.736C439.897 450.848 442.297 448.208 445.729 448.208C449.161 448.208 451.561 450.848 451.561 454.736ZM442.081 454.736C442.081 457.592 443.521 459.416 445.729 459.416C447.937 459.416 449.377 457.592 449.377 454.736C449.377 451.856 447.937 450.032 445.729 450.032C443.521 450.032 442.081 451.856 442.081 454.736ZM456.468 443.768V461H454.308V443.768H456.468ZM465.425 461H463.289L458.585 448.448H460.865L464.393 458.36L467.873 448.448H470.129L465.425 461ZM476.925 461.264C473.445 461.264 471.045 458.6 471.045 454.736C471.045 450.992 473.421 448.208 476.829 448.208C480.333 448.208 482.181 450.872 482.181 454.352V455.072H473.109C473.229 457.712 474.741 459.392 476.925 459.392C478.605 459.392 479.805 458.48 480.189 456.992L482.085 457.664C481.317 459.896 479.421 461.264 476.925 461.264ZM476.805 450.056C474.981 450.056 473.613 451.28 473.229 453.416H479.997C479.949 451.64 478.989 450.056 476.805 450.056ZM489.478 461.264C485.998 461.264 484.006 458.288 484.006 454.736C484.006 451.16 485.998 448.208 489.478 448.208C491.23 448.208 492.622 449.048 493.366 450.272V443.768H495.526V461H493.366V459.176C492.622 460.424 491.23 461.264 489.478 461.264ZM493.414 454.304C493.414 451.376 491.638 450.104 489.862 450.104C487.51 450.104 486.19 452.024 486.19 454.736C486.19 457.424 487.51 459.368 489.862 459.368C491.638 459.368 493.414 458.072 493.414 455.192V454.304ZM510.207 461.264C508.455 461.264 507.063 460.424 506.319 459.176V461H504.159V443.768H506.319V450.272C507.063 449.048 508.455 448.208 510.207 448.208C513.687 448.208 515.679 451.16 515.679 454.736C515.679 458.288 513.687 461.264 510.207 461.264ZM506.271 454.304V455.192C506.271 458.072 508.047 459.368 509.823 459.368C512.175 459.368 513.495 457.424 513.495 454.736C513.495 452.024 512.175 450.104 509.823 450.104C508.047 450.104 506.271 451.376 506.271 454.304ZM528.369 448.448V461H526.209V459.272C525.489 460.328 524.265 461.264 522.489 461.264C519.801 461.264 518.289 459.416 518.289 456.752V448.448H520.449V456.296C520.449 458.072 521.217 459.272 523.065 459.272C524.625 459.272 526.209 458.096 526.209 456.008V448.448H528.369ZM532.292 458V450.296H530.348V448.448H532.292V444.776H534.428V448.448H537.284V450.296H534.428V457.664C534.428 458.984 535.076 459.224 536.18 459.224C536.684 459.224 537.044 459.2 537.548 459.08V460.928C536.996 461.048 536.372 461.12 535.652 461.12C533.516 461.12 532.292 460.4 532.292 458ZM543.783 458.336L545.463 457.112C546.135 458.576 547.671 459.464 549.303 459.464C550.767 459.464 552.063 458.84 552.063 457.472C552.063 456.104 550.863 455.912 548.799 455.48C546.735 455.024 544.575 454.568 544.575 452C544.575 449.768 546.519 448.208 549.183 448.208C551.439 448.208 553.287 449.312 554.031 450.8L552.495 452.024C551.847 450.776 550.671 449.984 549.087 449.984C547.647 449.984 546.687 450.704 546.687 451.832C546.687 453.008 547.791 453.224 549.543 453.608C551.703 454.112 554.175 454.544 554.175 457.28C554.175 459.68 551.991 461.264 549.303 461.264C547.023 461.264 544.743 460.28 543.783 458.336ZM557.183 458V450.296H555.239V448.448H557.183V444.776H559.319V448.448H562.175V450.296H559.319V457.664C559.319 458.984 559.967 459.224 561.071 459.224C561.575 459.224 561.935 459.2 562.439 459.08V460.928C561.887 461.048 561.263 461.12 560.543 461.12C558.407 461.12 557.183 460.4 557.183 458ZM568.147 461.216C565.867 461.216 564.019 459.872 564.019 457.616C564.019 455.12 565.963 454.088 568.771 453.512L571.819 452.888V452.36C571.819 450.92 571.027 450.104 569.347 450.104C567.763 450.104 566.827 450.848 566.443 452.24L564.403 451.712C565.003 449.672 566.851 448.208 569.419 448.208C572.227 448.208 573.955 449.576 573.955 452.264V458.384C573.955 459.2 574.459 459.464 575.299 459.272V461C573.379 461.24 572.275 460.784 572.011 459.584C571.243 460.568 569.851 461.216 568.147 461.216ZM571.819 456.728V454.568L569.371 455.096C567.451 455.48 566.155 456.008 566.155 457.52C566.155 458.744 567.043 459.464 568.411 459.464C570.259 459.464 571.819 458.336 571.819 456.728ZM584.14 448.4V450.584C583.78 450.512 583.492 450.488 583.084 450.488C581.26 450.488 579.796 451.928 579.796 454.136V461H577.636V448.448H579.796V450.584C580.348 449.312 581.572 448.352 583.276 448.352C583.612 448.352 583.924 448.376 584.14 448.4ZM586.995 458V450.296H585.051V448.448H586.995V444.776H589.131V448.448H591.987V450.296H589.131V457.664C589.131 458.984 589.779 459.224 590.883 459.224C591.387 459.224 591.747 459.2 592.251 459.08V460.928C591.699 461.048 591.075 461.12 590.355 461.12C588.219 461.12 586.995 460.4 586.995 458ZM599.761 461.264C596.281 461.264 593.881 458.6 593.881 454.736C593.881 450.992 596.257 448.208 599.665 448.208C603.169 448.208 605.017 450.872 605.017 454.352V455.072H595.945C596.065 457.712 597.577 459.392 599.761 459.392C601.441 459.392 602.641 458.48 603.025 456.992L604.921 457.664C604.153 459.896 602.257 461.264 599.761 461.264ZM599.641 450.056C597.817 450.056 596.449 451.28 596.065 453.416H602.833C602.785 451.64 601.825 450.056 599.641 450.056ZM612.314 461.264C608.834 461.264 606.842 458.288 606.842 454.736C606.842 451.16 608.834 448.208 612.314 448.208C614.066 448.208 615.458 449.048 616.202 450.272V443.768H618.362V461H616.202V459.176C615.458 460.424 614.066 461.264 612.314 461.264ZM616.25 454.304C616.25 451.376 614.474 450.104 612.698 450.104C610.346 450.104 609.026 452.024 609.026 454.736C609.026 457.424 610.346 459.368 612.698 459.368C614.474 459.368 616.25 458.072 616.25 455.192V454.304ZM630.139 461.216C627.859 461.216 626.011 459.872 626.011 457.616C626.011 455.12 627.955 454.088 630.763 453.512L633.811 452.888V452.36C633.811 450.92 633.019 450.104 631.339 450.104C629.755 450.104 628.819 450.848 628.435 452.24L626.395 451.712C626.995 449.672 628.843 448.208 631.411 448.208C634.219 448.208 635.947 449.576 635.947 452.264V458.384C635.947 459.2 636.451 459.464 637.291 459.272V461C635.371 461.24 634.267 460.784 634.003 459.584C633.235 460.568 631.843 461.216 630.139 461.216ZM633.811 456.728V454.568L631.363 455.096C629.443 455.48 628.147 456.008 628.147 457.52C628.147 458.744 629.035 459.464 630.403 459.464C632.251 459.464 633.811 458.336 633.811 456.728ZM650.26 459.872C650.26 463.544 647.836 465.584 644.428 465.584C641.668 465.584 639.652 464.312 638.956 462.008L640.972 461.24C641.38 462.848 642.676 463.784 644.428 463.784C646.636 463.784 648.1 462.656 648.1 460.04V458.624C647.428 459.848 646.012 460.712 644.26 460.712C640.828 460.712 638.812 457.88 638.812 454.448C638.812 451.04 640.828 448.208 644.26 448.208C645.988 448.208 647.428 449.072 648.1 450.296V448.448H650.26V459.872ZM648.124 454.256C648.124 451.448 646.444 450.104 644.644 450.104C642.364 450.104 640.972 451.808 640.972 454.448C640.972 457.088 642.364 458.816 644.644 458.816C646.444 458.816 648.124 457.472 648.124 454.712V454.256ZM656.999 461.216C654.719 461.216 652.871 459.872 652.871 457.616C652.871 455.12 654.815 454.088 657.623 453.512L660.671 452.888V452.36C660.671 450.92 659.879 450.104 658.199 450.104C656.615 450.104 655.679 450.848 655.295 452.24L653.255 451.712C653.855 449.672 655.703 448.208 658.271 448.208C661.079 448.208 662.807 449.576 662.807 452.264V458.384C662.807 459.2 663.311 459.464 664.151 459.272V461C662.231 461.24 661.127 460.784 660.863 459.584C660.095 460.568 658.703 461.216 656.999 461.216ZM660.671 456.728V454.568L658.223 455.096C656.303 455.48 655.007 456.008 655.007 457.52C655.007 458.744 655.895 459.464 657.263 459.464C659.111 459.464 660.671 458.336 660.671 456.728ZM666.392 446.264V443.768H668.744V446.264H666.392ZM668.648 448.448V461H666.488V448.448H668.648ZM672.253 461V448.448H674.413V450.152C675.133 449.12 676.381 448.208 678.157 448.208C680.821 448.208 682.333 450.056 682.333 452.72V461H680.173V453.296C680.173 451.544 679.429 450.224 677.557 450.224C675.997 450.224 674.413 451.424 674.413 453.512V461H672.253Z" fill="black"/>
<path d="M189.2 453.776V461H186.896V443.768H193.472C197.12 443.768 199.448 445.472 199.448 448.76C199.448 451.52 197.768 453.2 195.032 453.656L199.808 461H197.168L192.536 453.776H189.2ZM189.2 451.784H193.352C195.8 451.784 197.168 450.704 197.168 448.76C197.168 446.816 195.8 445.76 193.352 445.76H189.2V451.784ZM207.144 461.264C203.664 461.264 201.264 458.6 201.264 454.736C201.264 450.992 203.64 448.208 207.048 448.208C210.552 448.208 212.4 450.872 212.4 454.352V455.072H203.328C203.448 457.712 204.96 459.392 207.144 459.392C208.824 459.392 210.024 458.48 210.408 456.992L212.304 457.664C211.536 459.896 209.64 461.264 207.144 461.264ZM207.024 450.056C205.2 450.056 203.832 451.28 203.448 453.416H210.216C210.168 451.64 209.208 450.056 207.024 450.056ZM225.721 459.872C225.721 463.544 223.297 465.584 219.889 465.584C217.129 465.584 215.113 464.312 214.417 462.008L216.433 461.24C216.841 462.848 218.137 463.784 219.889 463.784C222.097 463.784 223.561 462.656 223.561 460.04V458.624C222.889 459.848 221.473 460.712 219.721 460.712C216.289 460.712 214.273 457.88 214.273 454.448C214.273 451.04 216.289 448.208 219.721 448.208C221.449 448.208 222.889 449.072 223.561 450.296V448.448H225.721V459.872ZM223.585 454.256C223.585 451.448 221.905 450.104 220.105 450.104C217.825 450.104 216.433 451.808 216.433 454.448C216.433 457.088 217.825 458.816 220.105 458.816C221.905 458.816 223.585 457.472 223.585 454.712V454.256ZM235.82 448.4V450.584C235.46 450.512 235.172 450.488 234.764 450.488C232.94 450.488 231.476 451.928 231.476 454.136V461H229.316V448.448H231.476V450.584C232.028 449.312 233.252 448.352 234.956 448.352C235.292 448.352 235.604 448.376 235.82 448.4ZM242.699 461.264C239.219 461.264 236.819 458.6 236.819 454.736C236.819 450.992 239.195 448.208 242.603 448.208C246.107 448.208 247.955 450.872 247.955 454.352V455.072H238.883C239.003 457.712 240.515 459.392 242.699 459.392C244.379 459.392 245.579 458.48 245.963 456.992L247.859 457.664C247.091 459.896 245.195 461.264 242.699 461.264ZM242.579 450.056C240.755 450.056 239.387 451.28 239.003 453.416H245.771C245.723 451.64 244.763 450.056 242.579 450.056ZM249.252 458.336L250.932 457.112C251.604 458.576 253.14 459.464 254.772 459.464C256.236 459.464 257.532 458.84 257.532 457.472C257.532 456.104 256.332 455.912 254.268 455.48C252.204 455.024 250.044 454.568 250.044 452C250.044 449.768 251.988 448.208 254.652 448.208C256.908 448.208 258.756 449.312 259.5 450.8L257.964 452.024C257.316 450.776 256.14 449.984 254.556 449.984C253.116 449.984 252.156 450.704 252.156 451.832C252.156 453.008 253.26 453.224 255.012 453.608C257.172 454.112 259.644 454.544 259.644 457.28C259.644 459.68 257.46 461.264 254.772 461.264C252.492 461.264 250.212 460.28 249.252 458.336ZM260.924 458.336L262.604 457.112C263.276 458.576 264.812 459.464 266.444 459.464C267.908 459.464 269.204 458.84 269.204 457.472C269.204 456.104 268.004 455.912 265.94 455.48C263.876 455.024 261.716 454.568 261.716 452C261.716 449.768 263.66 448.208 266.324 448.208C268.58 448.208 270.428 449.312 271.172 450.8L269.636 452.024C268.988 450.776 267.812 449.984 266.228 449.984C264.788 449.984 263.828 450.704 263.828 451.832C263.828 453.008 264.932 453.224 266.684 453.608C268.844 454.112 271.316 454.544 271.316 457.28C271.316 459.68 269.132 461.264 266.444 461.264C264.164 461.264 261.884 460.28 260.924 458.336ZM279.004 461.264C275.524 461.264 273.124 458.6 273.124 454.736C273.124 450.992 275.5 448.208 278.908 448.208C282.412 448.208 284.26 450.872 284.26 454.352V455.072H275.188C275.308 457.712 276.82 459.392 279.004 459.392C280.684 459.392 281.884 458.48 282.268 456.992L284.164 457.664C283.396 459.896 281.5 461.264 279.004 461.264ZM278.884 450.056C277.06 450.056 275.692 451.28 275.308 453.416H282.076C282.028 451.64 281.068 450.056 278.884 450.056ZM291.556 461.264C288.076 461.264 286.084 458.288 286.084 454.736C286.084 451.16 288.076 448.208 291.556 448.208C293.308 448.208 294.7 449.048 295.444 450.272V443.768H297.604V461H295.444V459.176C294.7 460.424 293.308 461.264 291.556 461.264ZM295.492 454.304C295.492 451.376 293.716 450.104 291.94 450.104C289.588 450.104 288.268 452.024 288.268 454.736C288.268 457.424 289.588 459.368 291.94 459.368C293.716 459.368 295.492 458.072 295.492 455.192V454.304Z" fill="black"/>
<path d="M400.896 377.768H412.152V379.784H403.176V385.088H410.784V387.104H403.176V392.984H412.152V395H400.896V377.768ZM422.801 395L419.321 390.056L415.865 395H413.513L418.097 388.448L413.897 382.448H416.369L419.393 386.84L422.465 382.448H424.841L420.641 388.448L425.249 395H422.801ZM427.165 380.264V377.768H429.517V380.264H427.165ZM429.421 382.448V395H427.261V382.448H429.421ZM431.635 392.336L433.315 391.112C433.987 392.576 435.523 393.464 437.155 393.464C438.619 393.464 439.915 392.84 439.915 391.472C439.915 390.104 438.715 389.912 436.651 389.48C434.587 389.024 432.427 388.568 432.427 386C432.427 383.768 434.371 382.208 437.035 382.208C439.291 382.208 441.139 383.312 441.883 384.8L440.347 386.024C439.699 384.776 438.523 383.984 436.939 383.984C435.499 383.984 434.539 384.704 434.539 385.832C434.539 387.008 435.643 387.224 437.395 387.608C439.555 388.112 442.027 388.544 442.027 391.28C442.027 393.68 439.843 395.264 437.155 395.264C434.875 395.264 432.595 394.28 431.635 392.336ZM445.034 392V384.296H443.09V382.448H445.034V378.776H447.17V382.448H450.026V384.296H447.17V391.664C447.17 392.984 447.818 393.224 448.922 393.224C449.426 393.224 449.786 393.2 450.29 393.08V394.928C449.738 395.048 449.114 395.12 448.394 395.12C446.258 395.12 445.034 394.4 445.034 392ZM452.759 380.264V377.768H455.111V380.264H452.759ZM455.015 382.448V395H452.855V382.448H455.015ZM458.62 395V382.448H460.78V384.152C461.5 383.12 462.748 382.208 464.524 382.208C467.188 382.208 468.7 384.056 468.7 386.72V395H466.54V387.296C466.54 385.544 465.796 384.224 463.924 384.224C462.364 384.224 460.78 385.424 460.78 387.512V395H458.62ZM482.799 393.872C482.799 397.544 480.375 399.584 476.967 399.584C474.207 399.584 472.191 398.312 471.495 396.008L473.511 395.24C473.919 396.848 475.215 397.784 476.967 397.784C479.175 397.784 480.639 396.656 480.639 394.04V392.624C479.967 393.848 478.551 394.712 476.799 394.712C473.367 394.712 471.351 391.88 471.351 388.448C471.351 385.04 473.367 382.208 476.799 382.208C478.527 382.208 479.967 383.072 480.639 384.296V382.448H482.799V393.872ZM480.663 388.256C480.663 385.448 478.983 384.104 477.183 384.104C474.903 384.104 473.511 385.808 473.511 388.448C473.511 391.088 474.903 392.816 477.183 392.816C478.983 392.816 480.663 391.472 480.663 388.712V388.256ZM497.504 395.264C495.752 395.264 494.36 394.424 493.616 393.176V399.32H491.456V382.448H493.616V384.272C494.36 383.048 495.752 382.208 497.504 382.208C500.984 382.208 502.976 385.16 502.976 388.736C502.976 392.288 500.984 395.264 497.504 395.264ZM493.568 388.304V389.192C493.568 392.072 495.344 393.368 497.12 393.368C499.472 393.368 500.792 391.424 500.792 388.736C500.792 386.024 499.472 384.104 497.12 384.104C495.344 384.104 493.568 385.376 493.568 388.304ZM512.21 382.4V384.584C511.85 384.512 511.562 384.488 511.154 384.488C509.33 384.488 507.866 385.928 507.866 388.136V395H505.706V382.448H507.866V384.584C508.418 383.312 509.642 382.352 511.346 382.352C511.682 382.352 511.994 382.376 512.21 382.4ZM524.873 388.736C524.873 392.624 522.473 395.264 519.041 395.264C515.609 395.264 513.209 392.624 513.209 388.736C513.209 384.848 515.609 382.208 519.041 382.208C522.473 382.208 524.873 384.848 524.873 388.736ZM515.393 388.736C515.393 391.592 516.833 393.416 519.041 393.416C521.249 393.416 522.689 391.592 522.689 388.736C522.689 385.856 521.249 384.032 519.041 384.032C516.833 384.032 515.393 385.856 515.393 388.736ZM533.668 395.264C531.916 395.264 530.524 394.424 529.78 393.176V395H527.62V377.768H529.78V384.272C530.524 383.048 531.916 382.208 533.668 382.208C537.148 382.208 539.14 385.16 539.14 388.736C539.14 392.288 537.148 395.264 533.668 395.264ZM529.732 388.304V389.192C529.732 392.072 531.508 393.368 533.284 393.368C535.636 393.368 536.956 391.424 536.956 388.736C536.956 386.024 535.636 384.104 533.284 384.104C531.508 384.104 529.732 385.376 529.732 388.304ZM544.03 377.768V395H541.87V377.768H544.03ZM552.652 395.264C549.172 395.264 546.772 392.6 546.772 388.736C546.772 384.992 549.148 382.208 552.556 382.208C556.06 382.208 557.908 384.872 557.908 388.352V389.072H548.836C548.956 391.712 550.468 393.392 552.652 393.392C554.332 393.392 555.532 392.48 555.916 390.992L557.812 391.664C557.044 393.896 555.148 395.264 552.652 395.264ZM552.532 384.056C550.708 384.056 549.34 385.28 548.956 387.416H555.724C555.676 385.64 554.716 384.056 552.532 384.056ZM562.757 387.488V395H560.597V382.448H562.757V384.152C563.429 383.12 564.629 382.208 566.381 382.208C568.061 382.208 569.237 383.048 569.861 384.344C570.557 383.312 571.901 382.208 573.869 382.208C576.461 382.208 578.021 384.056 578.021 386.72V395H575.861V387.296C575.861 385.544 575.141 384.224 573.365 384.224C571.925 384.224 570.389 385.448 570.389 387.488V395H568.229V387.296C568.229 385.544 567.509 384.224 565.733 384.224C564.293 384.224 562.757 385.448 562.757 387.488ZM586.47 380.264V377.768H588.822V380.264H586.47ZM588.726 382.448V395H586.566V382.448H588.726ZM590.939 392.336L592.619 391.112C593.291 392.576 594.827 393.464 596.459 393.464C597.923 393.464 599.219 392.84 599.219 391.472C599.219 390.104 598.019 389.912 595.955 389.48C593.891 389.024 591.731 388.568 591.731 386C591.731 383.768 593.675 382.208 596.339 382.208C598.595 382.208 600.443 383.312 601.187 384.8L599.651 386.024C599.003 384.776 597.827 383.984 596.243 383.984C594.803 383.984 593.843 384.704 593.843 385.832C593.843 387.008 594.947 387.224 596.699 387.608C598.859 388.112 601.331 388.544 601.331 391.28C601.331 393.68 599.147 395.264 596.459 395.264C594.179 395.264 591.899 394.28 590.939 392.336ZM611.226 387.488V395H609.066V382.448H611.226V384.152C611.898 383.12 613.098 382.208 614.85 382.208C616.53 382.208 617.706 383.048 618.33 384.344C619.026 383.312 620.37 382.208 622.338 382.208C624.93 382.208 626.49 384.056 626.49 386.72V395H624.33V387.296C624.33 385.544 623.61 384.224 621.834 384.224C620.394 384.224 618.858 385.448 618.858 387.488V395H616.698V387.296C616.698 385.544 615.978 384.224 614.202 384.224C612.762 384.224 611.226 385.448 611.226 387.488ZM639.932 382.448V395H637.772V393.272C637.052 394.328 635.828 395.264 634.052 395.264C631.364 395.264 629.852 393.416 629.852 390.752V382.448H632.012V390.296C632.012 392.072 632.78 393.272 634.628 393.272C636.188 393.272 637.772 392.096 637.772 390.008V382.448H639.932ZM644.815 388.736C644.815 391.592 646.351 393.368 648.583 393.368C650.311 393.368 651.343 392.264 651.703 390.704L653.623 391.592C653.023 393.68 651.199 395.264 648.583 395.264C645.079 395.264 642.655 392.6 642.655 388.736C642.655 384.848 645.079 382.208 648.583 382.208C651.199 382.208 652.975 383.72 653.575 385.808L651.703 386.744C651.343 385.208 650.311 384.08 648.583 384.08C646.351 384.08 644.815 385.856 644.815 388.736ZM655.988 395V377.768H658.148V384.152C658.868 383.12 660.116 382.208 661.892 382.208C664.556 382.208 666.068 384.056 666.068 386.72V395H663.908V387.296C663.908 385.544 663.164 384.224 661.292 384.224C659.732 384.224 658.148 385.424 658.148 387.512V395H655.988ZM680.573 382.448H682.397L684.989 391.808L687.605 382.448H689.765L685.949 395H684.053L681.437 385.688L678.821 395H676.925L673.109 382.448H675.341L677.981 391.784L680.573 382.448ZM702.436 388.736C702.436 392.624 700.036 395.264 696.604 395.264C693.172 395.264 690.772 392.624 690.772 388.736C690.772 384.848 693.172 382.208 696.604 382.208C700.036 382.208 702.436 384.848 702.436 388.736ZM692.956 388.736C692.956 391.592 694.396 393.416 696.604 393.416C698.812 393.416 700.252 391.592 700.252 388.736C700.252 385.856 698.812 384.032 696.604 384.032C694.396 384.032 692.956 385.856 692.956 388.736ZM711.687 382.4V384.584C711.327 384.512 711.039 384.488 710.631 384.488C708.807 384.488 707.343 385.928 707.343 388.136V395H705.183V382.448H707.343V384.584C707.895 383.312 709.119 382.352 710.823 382.352C711.159 382.352 711.471 382.376 711.687 382.4ZM712.439 392.336L714.119 391.112C714.791 392.576 716.327 393.464 717.959 393.464C719.423 393.464 720.719 392.84 720.719 391.472C720.719 390.104 719.519 389.912 717.455 389.48C715.391 389.024 713.231 388.568 713.231 386C713.231 383.768 715.175 382.208 717.839 382.208C720.095 382.208 721.943 383.312 722.687 384.8L721.151 386.024C720.503 384.776 719.327 383.984 717.743 383.984C716.303 383.984 715.343 384.704 715.343 385.832C715.343 387.008 716.447 387.224 718.199 387.608C720.359 388.112 722.831 388.544 722.831 391.28C722.831 393.68 720.647 395.264 717.959 395.264C715.679 395.264 713.399 394.28 712.439 392.336ZM730.519 395.264C727.039 395.264 724.639 392.6 724.639 388.736C724.639 384.992 727.015 382.208 730.423 382.208C733.927 382.208 735.775 384.872 735.775 388.352V389.072H726.703C726.823 391.712 728.335 393.392 730.519 393.392C732.199 393.392 733.399 392.48 733.783 390.992L735.679 391.664C734.911 393.896 733.015 395.264 730.519 395.264ZM730.399 384.056C728.575 384.056 727.207 385.28 726.823 387.416H733.591C733.543 385.64 732.583 384.056 730.399 384.056Z" fill="black"/>
<path d="M186.896 377.768H198.152V379.784H189.176V385.088H196.784V387.104H189.176V392.984H198.152V395H186.896V377.768ZM199.517 392.336L201.197 391.112C201.869 392.576 203.405 393.464 205.037 393.464C206.501 393.464 207.797 392.84 207.797 391.472C207.797 390.104 206.597 389.912 204.533 389.48C202.469 389.024 200.309 388.568 200.309 386C200.309 383.768 202.253 382.208 204.917 382.208C207.173 382.208 209.021 383.312 209.765 384.8L208.229 386.024C207.581 384.776 206.405 383.984 204.821 383.984C203.381 383.984 202.421 384.704 202.421 385.832C202.421 387.008 203.525 387.224 205.277 387.608C207.437 388.112 209.909 388.544 209.909 391.28C209.909 393.68 207.725 395.264 205.037 395.264C202.757 395.264 200.477 394.28 199.517 392.336ZM213.877 388.736C213.877 391.592 215.413 393.368 217.645 393.368C219.373 393.368 220.405 392.264 220.765 390.704L222.685 391.592C222.085 393.68 220.261 395.264 217.645 395.264C214.141 395.264 211.717 392.6 211.717 388.736C211.717 384.848 214.141 382.208 217.645 382.208C220.261 382.208 222.037 383.72 222.637 385.808L220.765 386.744C220.405 385.208 219.373 384.08 217.645 384.08C215.413 384.08 213.877 385.856 213.877 388.736ZM228.335 395.216C226.055 395.216 224.207 393.872 224.207 391.616C224.207 389.12 226.151 388.088 228.959 387.512L232.007 386.888V386.36C232.007 384.92 231.215 384.104 229.535 384.104C227.951 384.104 227.015 384.848 226.631 386.24L224.591 385.712C225.191 383.672 227.039 382.208 229.607 382.208C232.415 382.208 234.143 383.576 234.143 386.264V392.384C234.143 393.2 234.647 393.464 235.487 393.272V395C233.567 395.24 232.463 394.784 232.199 393.584C231.431 394.568 230.039 395.216 228.335 395.216ZM232.007 390.728V388.568L229.559 389.096C227.639 389.48 226.343 390.008 226.343 391.52C226.343 392.744 227.231 393.464 228.599 393.464C230.447 393.464 232.007 392.336 232.007 390.728ZM239.983 377.768V395H237.823V377.768H239.983ZM246.733 395.216C244.453 395.216 242.605 393.872 242.605 391.616C242.605 389.12 244.549 388.088 247.357 387.512L250.405 386.888V386.36C250.405 384.92 249.613 384.104 247.933 384.104C246.349 384.104 245.413 384.848 245.029 386.24L242.989 385.712C243.589 383.672 245.437 382.208 248.005 382.208C250.813 382.208 252.541 383.576 252.541 386.264V392.384C252.541 393.2 253.045 393.464 253.885 393.272V395C251.965 395.24 250.861 394.784 250.597 393.584C249.829 394.568 248.437 395.216 246.733 395.216ZM250.405 390.728V388.568L247.957 389.096C246.037 389.48 244.741 390.008 244.741 391.52C244.741 392.744 245.629 393.464 246.997 393.464C248.845 393.464 250.405 392.336 250.405 390.728ZM256.558 392V384.296H254.614V382.448H256.558V378.776H258.694V382.448H261.55V384.296H258.694V391.664C258.694 392.984 259.342 393.224 260.446 393.224C260.95 393.224 261.31 393.2 261.814 393.08V394.928C261.262 395.048 260.638 395.12 259.918 395.12C257.782 395.12 256.558 394.4 256.558 392ZM264.282 380.264V377.768H266.634V380.264H264.282ZM266.538 382.448V395H264.378V382.448H266.538ZM270.144 395V382.448H272.304V384.152C273.024 383.12 274.272 382.208 276.048 382.208C278.712 382.208 280.224 384.056 280.224 386.72V395H278.064V387.296C278.064 385.544 277.32 384.224 275.448 384.224C273.888 384.224 272.304 385.424 272.304 387.512V395H270.144ZM294.323 393.872C294.323 397.544 291.899 399.584 288.491 399.584C285.731 399.584 283.715 398.312 283.019 396.008L285.035 395.24C285.443 396.848 286.739 397.784 288.491 397.784C290.699 397.784 292.163 396.656 292.163 394.04V392.624C291.491 393.848 290.075 394.712 288.323 394.712C284.891 394.712 282.875 391.88 282.875 388.448C282.875 385.04 284.891 382.208 288.323 382.208C290.051 382.208 291.491 383.072 292.163 384.296V382.448H294.323V393.872ZM292.187 388.256C292.187 385.448 290.507 384.104 288.707 384.104C286.427 384.104 285.035 385.808 285.035 388.448C285.035 391.088 286.427 392.816 288.707 392.816C290.507 392.816 292.187 391.472 292.187 388.712V388.256Z" fill="black"/>
<line x1="183" y1="274.5" x2="1142" y2="274.5" stroke="black"/>
</svg>
