<?xml version="1.0" encoding="UTF-8" standalone="no"?>
<svg width="767px" height="65px" viewBox="0 0 767 65" version="1.1" xmlns="http://www.w3.org/2000/svg" xmlns:xlink="http://www.w3.org/1999/xlink" xmlns:sketch="http://www.bohemiancoding.com/sketch/ns">
    <!-- Generator: Sketch 3.5.1 (25234) - http://www.bohemiancoding.com/sketch -->
    <title>Group</title>
    <desc>Created with Sketch.</desc>
    <defs></defs>
    <g id="Page-1" stroke="none" stroke-width="1" fill="none" fill-rule="evenodd" sketch:type="MSPage">
        <g id="Artboard-1" sketch:type="MSArtboardGroup" transform="translate(-5.000000, -15.000000)">
            <g id="Group" sketch:type="MSLayerGroup" transform="translate(5.000000, 15.000000)">
                <circle id="Oval-1" fill="#FFFFFF" sketch:type="MSShapeGroup" cx="33.5" cy="31.5" r="5.5"></circle>
                <circle id="Oval-1-Copy-2" fill="#FFFFFF" sketch:type="MSShapeGroup" cx="736.5" cy="31.5" r="5.5"></circle>
                <path d="M5.36363636,16.1818182 C4.00605382,16.1818182 2.90909509,15.8454579 2.07272727,15.1727273 C1.23635945,14.4999966 0.818181818,13.4606131 0.818181818,12.0545455 L0.818181818,9.10909091 C0.818181818,7.690902 1.23938973,6.63636709 2.08181818,5.94545455 C2.92424664,5.254542 4.02423564,4.90909091 5.38181818,4.90909091 C6.73940073,4.90909091 7.83332918,5.254542 8.66363636,5.94545455 C9.49394355,6.63636709 9.90909091,7.690902 9.90909091,9.10909091 L9.90909091,12.0545455 C9.90909091,13.4606131 9.49091327,14.4999966 8.65454545,15.1727273 C7.81817764,15.8454579 6.72121891,16.1818182 5.36363636,16.1818182 L5.36363636,16.1818182 Z M5.36363636,14.5454545 C6.27273182,14.5454545 6.95454318,14.3515171 7.40909091,13.9636364 C7.86363864,13.5757556 8.09090909,12.9393984 8.09090909,12.0545455 L8.09090909,9.10909091 C8.09090909,8.23635927 7.86363864,7.59091118 7.40909091,7.17272727 C6.95454318,6.75454336 6.27273182,6.54545455 5.36363636,6.54545455 C4.45454091,6.54545455 3.77272955,6.75454336 3.31818182,7.17272727 C2.86363409,7.59091118 2.63636364,8.23635927 2.63636364,9.10909091 L2.63636364,12.0545455 C2.63636364,12.9393984 2.86363409,13.5757556 3.31818182,13.9636364 C3.77272955,14.3515171 4.45454091,14.5454545 5.36363636,14.5454545 L5.36363636,14.5454545 Z M14.3636364,16 L14.3636364,6.72727273 L12.1818182,6.72727273 L12.1818182,5.09090909 L14.3636364,5.09090909 L14.3636364,4.36363636 C14.3636364,3.38181327 14.6606031,2.62121482 15.2545455,2.08181818 C15.8484878,1.54242155 16.5878744,1.27272727 17.4727273,1.27272727 C17.8242442,1.27272727 18.2545429,1.32121164 18.7636364,1.41818182 C19.2727298,1.515152 19.6787864,1.62424182 19.9818182,1.74545455 L19.6181818,3.27272727 C19.3636351,3.17575709 19.0818197,3.09090945 18.7727273,3.01818182 C18.4636348,2.94545418 18.1515167,2.90909091 17.8363636,2.90909091 C17.3272702,2.90909091 16.9242439,3.021211 16.6272727,3.24545455 C16.3303015,3.46969809 16.1818182,3.83636109 16.1818182,4.34545455 L16.1818182,5.09090909 L19.8181818,5.09090909 L19.8181818,6.72727273 L16.1818182,6.72727273 L16.1818182,16 L14.3636364,16 Z M24.2727273,16 L24.2727273,6.72727273 L22.0909091,6.72727273 L22.0909091,5.09090909 L24.2727273,5.09090909 L24.2727273,4.36363636 C24.2727273,3.38181327 24.569694,2.62121482 25.1636364,2.08181818 C25.7575787,1.54242155 26.4969653,1.27272727 27.3818182,1.27272727 C27.7333351,1.27272727 28.1636338,1.32121164 28.6727273,1.41818182 C29.1818207,1.515152 29.5878773,1.62424182 29.8909091,1.74545455 L29.5272727,3.27272727 C29.272726,3.17575709 28.9909106,3.09090945 28.6818182,3.01818182 C28.3727257,2.94545418 28.0606076,2.90909091 27.7454545,2.90909091 C27.2363611,2.90909091 26.8333348,3.021211 26.5363636,3.24545455 C26.2393925,3.46969809 26.0909091,3.83636109 26.0909091,4.34545455 L26.0909091,5.09090909 L29.7272727,5.09090909 L29.7272727,6.72727273 L26.0909091,6.72727273 L26.0909091,16 L24.2727273,16 Z M37.2,16.0909091 C35.9757515,16.0909091 35.015155,15.678792 34.3181818,14.8545455 C33.6212086,14.0302989 33.2727273,13.0545511 33.2727273,11.9272727 L33.2727273,1.45454545 L35.0909091,1.45454545 L35.0909091,11.9454545 C35.0909091,12.587882 35.2696952,13.1575733 35.6272727,13.6545455 C35.9848503,14.1515176 36.5272691,14.4 37.2545455,14.4 C37.4363645,14.4 37.6484836,14.3696973 37.8909091,14.3090909 C38.1333345,14.2484845 38.3454536,14.175758 38.5272727,14.0909091 L38.8909091,15.6727273 C38.6606049,15.79394 38.4000015,15.893939 38.1090909,15.9727273 C37.8181804,16.0515155 37.5151531,16.0909091 37.2,16.0909091 L37.2,16.0909091 Z M42.2727273,16 L42.2727273,5.09090909 L44.0909091,5.09090909 L44.0909091,16 L42.2727273,16 Z M43.1818182,3.09090909 C42.7212098,3.09090909 42.3484863,3.01818255 42.0636364,2.87272727 C41.7787865,2.727272 41.6363636,2.45454745 41.6363636,2.05454545 L41.6363636,1.92727273 C41.6363636,1.51514945 41.7787865,1.23333409 42.0636364,1.08181818 C42.3484863,0.930302273 42.7212098,0.854545455 43.1818182,0.854545455 C43.6424265,0.854545455 44.0151501,0.930302273 44.3,1.08181818 C44.5848499,1.23333409 44.7272727,1.51514945 44.7272727,1.92727273 L44.7272727,2.05454545 C44.7272727,2.45454745 44.5818196,2.727272 44.2909091,2.87272727 C43.9999985,3.01818255 43.6303053,3.09090909 43.1818182,3.09090909 L43.1818182,3.09090909 Z M48.5454545,16 L48.5454545,5.09090909 L50.3636364,5.09090909 L50.3636364,6.90909091 L50.9090909,6.90909091 C51.1757589,6.30302727 51.5969668,5.81818364 52.1727273,5.45454545 C52.7484877,5.09090727 53.3939358,4.90909091 54.1090909,4.90909091 C55.1878842,4.90909091 56.0454514,5.24545118 56.6818182,5.91818182 C57.318185,6.59091245 57.6363636,7.496964 57.6363636,8.63636364 L57.6363636,16 L55.8181818,16 L55.8181818,9 C55.8181818,8.199996 55.6151535,7.60606255 55.2090909,7.21818182 C54.8030283,6.83030109 54.2909122,6.63636364 53.6727273,6.63636364 C52.9696935,6.63636364 52.3636389,6.81514973 51.8545455,7.17272727 C51.345452,7.53030482 50.8484873,7.987876 50.3636364,8.54545455 L50.3636364,16 L48.5454545,16 Z M69.4,13.6 C69.0727256,14.5090955 68.554549,15.1666646 67.8454545,15.5727273 C67.1363601,15.9787899 66.1333398,16.1818182 64.8363636,16.1818182 C63.3939322,16.1818182 62.2727313,15.8333368 61.4727273,15.1363636 C60.6727233,14.4393905 60.2727273,13.4060675 60.2727273,12.0363636 L60.2727273,9.10909091 C60.2727273,7.70302327 60.6939352,6.65151864 61.5363636,5.95454545 C62.3787921,5.25757227 63.4787811,4.90909091 64.8363636,4.90909091 C66.2060675,4.90909091 67.3030262,5.26363282 68.1272727,5.97272727 C68.9515193,6.68182173 69.3636364,7.76968964 69.3636364,9.23636364 L69.3636364,10.9090909 L62.0909091,10.9090909 L62.0909091,12.0545455 C62.0909091,12.9636409 62.3181795,13.6212101 62.7727273,14.0272727 C63.227275,14.4333354 63.9090864,14.6363636 64.8181818,14.6363636 C65.6909135,14.6363636 66.3272707,14.5151527 66.7272727,14.2727273 C67.1272747,14.0303018 67.430302,13.6363664 67.6363636,13.0909091 L69.4,13.6 Z M62.0909091,9.10909091 L62.0909091,9.54545455 L67.5454545,9.54545455 L67.5454545,9.27272727 C67.5454545,8.29090418 67.3181841,7.57575982 66.8636364,7.12727273 C66.4090886,6.67878564 65.7272773,6.45454545 64.8181818,6.45454545 C63.9090864,6.45454545 63.227275,6.66969482 62.7727273,7.1 C62.3181795,7.53030518 62.0909091,8.19999545 62.0909091,9.10909091 L62.0909091,9.10909091 Z" id="offline" fill="#FFFFFF" sketch:type="MSShapeGroup"></path>
                <path d="M707.363636,16.1818182 C706.006054,16.1818182 704.909095,15.8454579 704.072727,15.1727273 C703.236359,14.4999966 702.818182,13.4606131 702.818182,12.0545455 L702.818182,9.10909091 C702.818182,7.690902 703.23939,6.63636709 704.081818,5.94545455 C704.924247,5.254542 706.024236,4.90909091 707.381818,4.90909091 C708.739401,4.90909091 709.833329,5.254542 710.663636,5.94545455 C711.493944,6.63636709 711.909091,7.690902 711.909091,9.10909091 L711.909091,12.0545455 C711.909091,13.4606131 711.490913,14.4999966 710.654545,15.1727273 C709.818178,15.8454579 708.721219,16.1818182 707.363636,16.1818182 L707.363636,16.1818182 Z M707.363636,14.5454545 C708.272732,14.5454545 708.954543,14.3515171 709.409091,13.9636364 C709.863639,13.5757556 710.090909,12.9393984 710.090909,12.0545455 L710.090909,9.10909091 C710.090909,8.23635927 709.863639,7.59091118 709.409091,7.17272727 C708.954543,6.75454336 708.272732,6.54545455 707.363636,6.54545455 C706.454541,6.54545455 705.77273,6.75454336 705.318182,7.17272727 C704.863634,7.59091118 704.636364,8.23635927 704.636364,9.10909091 L704.636364,12.0545455 C704.636364,12.9393984 704.863634,13.5757556 705.318182,13.9636364 C705.77273,14.3515171 706.454541,14.5454545 707.363636,14.5454545 L707.363636,14.5454545 Z M714.545455,16 L714.545455,5.09090909 L716.363636,5.09090909 L716.363636,6.90909091 L716.909091,6.90909091 C717.175759,6.30302727 717.596967,5.81818364 718.172727,5.45454545 C718.748488,5.09090727 719.393936,4.90909091 720.109091,4.90909091 C721.187884,4.90909091 722.045451,5.24545118 722.681818,5.91818182 C723.318185,6.59091245 723.636364,7.496964 723.636364,8.63636364 L723.636364,16 L721.818182,16 L721.818182,9 C721.818182,8.199996 721.615154,7.60606255 721.209091,7.21818182 C720.803028,6.83030109 720.290912,6.63636364 719.672727,6.63636364 C718.969693,6.63636364 718.363639,6.81514973 717.854545,7.17272727 C717.345452,7.53030482 716.848487,7.987876 716.363636,8.54545455 L716.363636,16 L714.545455,16 Z M731.109091,16.0909091 C729.884842,16.0909091 728.924246,15.678792 728.227273,14.8545455 C727.5303,14.0302989 727.181818,13.0545511 727.181818,11.9272727 L727.181818,1.45454545 L729,1.45454545 L729,11.9454545 C729,12.587882 729.178786,13.1575733 729.536364,13.6545455 C729.893941,14.1515176 730.43636,14.4 731.163636,14.4 C731.345455,14.4 731.557575,14.3696973 731.8,14.3090909 C732.042425,14.2484845 732.254545,14.175758 732.436364,14.0909091 L732.8,15.6727273 C732.569696,15.79394 732.309092,15.893939 732.018182,15.9727273 C731.727271,16.0515155 731.424244,16.0909091 731.109091,16.0909091 L731.109091,16.0909091 Z M736.181818,16 L736.181818,5.09090909 L738,5.09090909 L738,16 L736.181818,16 Z M737.090909,3.09090909 C736.630301,3.09090909 736.257577,3.01818255 735.972727,2.87272727 C735.687877,2.727272 735.545455,2.45454745 735.545455,2.05454545 L735.545455,1.92727273 C735.545455,1.51514945 735.687877,1.23333409 735.972727,1.08181818 C736.257577,0.930302273 736.630301,0.854545455 737.090909,0.854545455 C737.551517,0.854545455 737.924241,0.930302273 738.209091,1.08181818 C738.493941,1.23333409 738.636364,1.51514945 738.636364,1.92727273 L738.636364,2.05454545 C738.636364,2.45454745 738.490911,2.727272 738.2,2.87272727 C737.909089,3.01818255 737.539396,3.09090909 737.090909,3.09090909 L737.090909,3.09090909 Z M742.454545,16 L742.454545,5.09090909 L744.272727,5.09090909 L744.272727,6.90909091 L744.818182,6.90909091 C745.08485,6.30302727 745.506058,5.81818364 746.081818,5.45454545 C746.657579,5.09090727 747.303027,4.90909091 748.018182,4.90909091 C749.096975,4.90909091 749.954542,5.24545118 750.590909,5.91818182 C751.227276,6.59091245 751.545455,7.496964 751.545455,8.63636364 L751.545455,16 L749.727273,16 L749.727273,9 C749.727273,8.199996 749.524244,7.60606255 749.118182,7.21818182 C748.712119,6.83030109 748.200003,6.63636364 747.581818,6.63636364 C746.878784,6.63636364 746.27273,6.81514973 745.763636,7.17272727 C745.254543,7.53030482 744.757578,7.987876 744.272727,8.54545455 L744.272727,16 L742.454545,16 Z M763.309091,13.6 C762.981817,14.5090955 762.46364,15.1666646 761.754545,15.5727273 C761.045451,15.9787899 760.042431,16.1818182 758.745455,16.1818182 C757.303023,16.1818182 756.181822,15.8333368 755.381818,15.1363636 C754.581814,14.4393905 754.181818,13.4060675 754.181818,12.0363636 L754.181818,9.10909091 C754.181818,7.70302327 754.603026,6.65151864 755.445455,5.95454545 C756.287883,5.25757227 757.387872,4.90909091 758.745455,4.90909091 C760.115158,4.90909091 761.212117,5.26363282 762.036364,5.97272727 C762.86061,6.68182173 763.272727,7.76968964 763.272727,9.23636364 L763.272727,10.9090909 L756,10.9090909 L756,12.0545455 C756,12.9636409 756.22727,13.6212101 756.681818,14.0272727 C757.136366,14.4333354 757.818177,14.6363636 758.727273,14.6363636 C759.600004,14.6363636 760.236362,14.5151527 760.636364,14.2727273 C761.036366,14.0303018 761.339393,13.6363664 761.545455,13.0909091 L763.309091,13.6 Z M756,9.10909091 L756,9.54545455 L761.454545,9.54545455 L761.454545,9.27272727 C761.454545,8.29090418 761.227275,7.57575982 760.772727,7.12727273 C760.31818,6.67878564 759.636368,6.45454545 758.727273,6.45454545 C757.818177,6.45454545 757.136366,6.66969482 756.681818,7.1 C756.22727,7.53030518 756,8.19999545 756,9.10909091 L756,9.10909091 Z" id="online" fill="#FFFFFF" sketch:type="MSShapeGroup"></path>
                <rect id="Rectangle-1" fill="#359E91" sketch:type="MSShapeGroup" x="39" y="31" width="692" height="1"></rect>
                <path d="M17.3527273,64.1272727 C16.9454525,64.1272727 16.4639422,64.0615158 15.9081818,63.93 C15.3524215,63.7984842 14.8072754,63.5672744 14.2727273,63.2363636 L14.2727273,53.8181818 L15.5454545,53.8181818 L15.5454545,57.6363636 L15.9272727,57.6363636 C16.1478799,57.1951493 16.449089,56.8515164 16.8309091,56.6054545 C17.2127292,56.3593927 17.6539369,56.2363636 18.1545455,56.2363636 C18.9012159,56.2363636 19.5015129,56.4887854 19.9554545,56.9936364 C20.4093962,57.4984874 20.6363636,58.2133287 20.6363636,59.1381818 L20.6363636,61.2127273 C20.6363636,62.2563689 20.2863671,63.0030281 19.5863636,63.4527273 C18.8863601,63.9024265 18.1418221,64.1272727 17.3527273,64.1272727 L17.3527273,64.1272727 Z M17.34,63.0072727 C17.8745481,63.0072727 18.3454525,62.8800013 18.7527273,62.6254545 C19.160002,62.3709078 19.3636364,61.8915187 19.3636364,61.1872727 L19.3636364,59.1509091 C19.3636364,58.4890876 19.225759,58.0393951 18.95,57.8018182 C18.674241,57.5642412 18.3030326,57.4454545 17.8363636,57.4454545 C17.4036342,57.4454545 17.0048503,57.5557565 16.64,57.7763636 C16.2751497,57.9969708 15.9103049,58.332119 15.5454545,58.7818182 L15.5454545,62.5236364 C15.8000013,62.6763644 16.0715137,62.7951511 16.36,62.88 C16.6484863,62.9648489 16.9751497,63.0072727 17.34,63.0072727 L17.34,63.0072727 Z M26.3636364,64.1272727 C25.4133286,64.1272727 24.6454575,63.8918205 24.06,63.4209091 C23.4745425,62.9499976 23.1818182,62.2224292 23.1818182,61.2381818 L23.1818182,59.1763636 C23.1818182,58.1836314 23.4766637,57.445457 24.0663636,56.9618182 C24.6560636,56.4781794 25.4260559,56.2363636 26.3763636,56.2363636 C27.3266714,56.2363636 28.0924213,56.4781794 28.6736364,56.9618182 C29.2548514,57.445457 29.5454545,58.1836314 29.5454545,59.1763636 L29.5454545,61.2381818 C29.5454545,62.2224292 29.2527302,62.9499976 28.6672727,63.4209091 C28.0818153,63.8918205 27.3139441,64.1272727 26.3636364,64.1272727 L26.3636364,64.1272727 Z M26.3636364,62.9818182 C27.0000032,62.9818182 27.4772711,62.846062 27.7954545,62.5745455 C28.113638,62.3030289 28.2727273,61.8575789 28.2727273,61.2381818 L28.2727273,59.1763636 C28.2727273,58.5654515 28.113638,58.1136378 27.7954545,57.8209091 C27.4772711,57.5281804 27.0000032,57.3818182 26.3636364,57.3818182 C25.7272695,57.3818182 25.2500016,57.5281804 24.9318182,57.8209091 C24.6136348,58.1136378 24.4545455,58.5654515 24.4545455,59.1763636 L24.4545455,61.2381818 C24.4545455,61.8575789 24.6136348,62.3030289 24.9318182,62.5745455 C25.2500016,62.846062 25.7272695,62.9818182 26.3636364,62.9818182 L26.3636364,62.9818182 Z M35.2727273,64.1272727 C34.3224195,64.1272727 33.5545484,63.8918205 32.9690909,63.4209091 C32.3836334,62.9499976 32.0909091,62.2224292 32.0909091,61.2381818 L32.0909091,59.1763636 C32.0909091,58.1836314 32.3857546,57.445457 32.9754545,56.9618182 C33.5651545,56.4781794 34.3351468,56.2363636 35.2854545,56.2363636 C36.2357623,56.2363636 37.0015122,56.4781794 37.5827273,56.9618182 C38.1639423,57.445457 38.4545455,58.1836314 38.4545455,59.1763636 L38.4545455,61.2381818 C38.4545455,62.2224292 38.1618211,62.9499976 37.5763636,63.4209091 C36.9909062,63.8918205 36.2230351,64.1272727 35.2727273,64.1272727 L35.2727273,64.1272727 Z M35.2727273,62.9818182 C35.9090941,62.9818182 36.386362,62.846062 36.7045455,62.5745455 C37.0227289,62.3030289 37.1818182,61.8575789 37.1818182,61.2381818 L37.1818182,59.1763636 C37.1818182,58.5654515 37.0227289,58.1136378 36.7045455,57.8209091 C36.386362,57.5281804 35.9090941,57.3818182 35.2727273,57.3818182 C34.6363605,57.3818182 34.1590925,57.5281804 33.8409091,57.8209091 C33.5227257,58.1136378 33.3636364,58.5654515 33.3636364,59.1763636 L33.3636364,61.2381818 C33.3636364,61.8575789 33.5227257,62.3030289 33.8409091,62.5745455 C34.1590925,62.846062 34.6363605,62.9818182 35.2727273,62.9818182 L35.2727273,62.9818182 Z M42.2727273,60.5254545 L42.2727273,64 L41,64 L41,53.8181818 L42.2727273,53.8181818 L42.2727273,59.4563636 L42.9218182,59.4563636 L45.3654545,56.3636364 L46.9181818,56.3636364 L43.9272727,59.9145455 L46.88,64 L45.4290909,64 L42.9218182,60.5254545 L42.2727273,60.5254545 Z M51.92,64.1272727 C51.2751483,64.1272727 50.6515182,64.0318191 50.0490909,63.8409091 C49.4466637,63.649999 48.8909116,63.3551535 48.3818182,62.9563636 L48.9545455,61.9509091 C49.3703051,62.2903047 49.8348459,62.5469688 50.3481818,62.7209091 C50.8615177,62.8948494 51.3854519,62.9818182 51.92,62.9818182 C52.3612143,62.9818182 52.7833313,62.9139401 53.1863636,62.7781818 C53.589396,62.6424236 53.7909091,62.3539416 53.7909091,61.9127273 C53.7909091,61.547877 53.6254562,61.2890917 53.2945455,61.1363636 C52.9636347,60.9836356 52.3569741,60.8521218 51.4745455,60.7418182 C50.5412075,60.6315146 49.8348509,60.4130319 49.3554545,60.0863636 C48.8760582,59.7596953 48.6363636,59.2442459 48.6363636,58.54 C48.6363636,57.7763598 48.9248456,57.2015171 49.5018182,56.8154545 C50.0787908,56.429392 50.7490871,56.2363636 51.5127273,56.2363636 C52.1151545,56.2363636 52.6942396,56.3381808 53.25,56.5418182 C53.8057604,56.7454556 54.3212097,57.0339375 54.7963636,57.4072727 L54.2236364,58.4127273 C53.8333314,58.0987863 53.4090932,57.8484858 52.9509091,57.6618182 C52.492725,57.4751506 52.0133358,57.3818182 51.5127273,57.3818182 C51.1054525,57.3818182 50.7342441,57.4581811 50.3990909,57.6109091 C50.0639377,57.7636371 49.8963636,58.0436343 49.8963636,58.4509091 C49.8963636,58.7987896 50.0512106,59.0512113 50.3609091,59.2081818 C50.6706076,59.3651523 51.2666623,59.4987873 52.1490909,59.6090909 C53.1163685,59.7193945 53.8418158,59.9548467 54.3254545,60.3154545 C54.8090933,60.6760624 55.0509091,61.1787847 55.0509091,61.8236364 C55.0509091,62.6212161 54.7284881,63.2045436 54.0836364,63.5736364 C53.4387847,63.9427291 52.7175797,64.1272727 51.92,64.1272727 L51.92,64.1272727 Z" id="books" fill="#909090" sketch:type="MSShapeGroup"></path>
                <path d="M182.661818,62.32 C182.432726,62.9563668 182.070002,63.4166652 181.573636,63.7009091 C181.07727,63.9851529 180.375156,64.1272727 179.467273,64.1272727 C178.457571,64.1272727 177.67273,63.8833358 177.112727,63.3954545 C176.552724,62.9075733 176.272727,62.1842472 176.272727,61.2254545 L176.272727,59.1763636 C176.272727,58.1921163 176.567573,57.456063 177.157273,56.9681818 C177.746973,56.4803006 178.516965,56.2363636 179.467273,56.2363636 C180.426065,56.2363636 181.193937,56.484543 181.770909,56.9809091 C182.347882,57.4772752 182.636364,58.2387827 182.636364,59.2654545 L182.636364,60.4363636 L177.545455,60.4363636 L177.545455,61.2381818 C177.545455,61.8745486 177.704544,62.3348471 178.022727,62.6190909 C178.340911,62.9033348 178.818179,63.0454545 179.454545,63.0454545 C180.065458,63.0454545 180.510908,62.9606069 180.790909,62.7909091 C181.07091,62.6212113 181.28303,62.3454565 181.427273,61.9636364 L182.661818,62.32 Z M177.545455,59.1763636 L177.545455,59.4818182 L181.363636,59.4818182 L181.363636,59.2909091 C181.363636,58.6036329 181.204547,58.1030319 180.886364,57.7890909 C180.56818,57.4751499 180.090912,57.3181818 179.454545,57.3181818 C178.818179,57.3181818 178.340911,57.4687864 178.022727,57.77 C177.704544,58.0712136 177.545455,58.5399968 177.545455,59.1763636 L177.545455,59.1763636 Z M188.261818,64.1272727 C187.854543,64.1272727 187.373033,64.0615158 186.817273,63.93 C186.261512,63.7984842 185.716366,63.5672744 185.181818,63.2363636 L185.181818,53.8181818 L186.454545,53.8181818 L186.454545,57.6363636 L186.836364,57.6363636 C187.056971,57.1951493 187.35818,56.8515164 187.74,56.6054545 C188.12182,56.3593927 188.563028,56.2363636 189.063636,56.2363636 C189.810307,56.2363636 190.410604,56.4887854 190.864545,56.9936364 C191.318487,57.4984874 191.545455,58.2133287 191.545455,59.1381818 L191.545455,61.2127273 C191.545455,62.2563689 191.195458,63.0030281 190.495455,63.4527273 C189.795451,63.9024265 189.050913,64.1272727 188.261818,64.1272727 L188.261818,64.1272727 Z M188.249091,63.0072727 C188.783639,63.0072727 189.254543,62.8800013 189.661818,62.6254545 C190.069093,62.3709078 190.272727,61.8915187 190.272727,61.1872727 L190.272727,59.1509091 C190.272727,58.4890876 190.13485,58.0393951 189.859091,57.8018182 C189.583332,57.5642412 189.212124,57.4454545 188.745455,57.4454545 C188.312725,57.4454545 187.913941,57.5557565 187.549091,57.7763636 C187.184241,57.9969708 186.819396,58.332119 186.454545,58.7818182 L186.454545,62.5236364 C186.709092,62.6763644 186.980605,62.7951511 187.269091,62.88 C187.557577,62.9648489 187.884241,63.0072727 188.249091,63.0072727 L188.249091,63.0072727 Z M197.272727,64.1272727 C196.322419,64.1272727 195.554548,63.8918205 194.969091,63.4209091 C194.383633,62.9499976 194.090909,62.2224292 194.090909,61.2381818 L194.090909,59.1763636 C194.090909,58.1836314 194.385755,57.445457 194.975455,56.9618182 C195.565154,56.4781794 196.335147,56.2363636 197.285455,56.2363636 C198.235762,56.2363636 199.001512,56.4781794 199.582727,56.9618182 C200.163942,57.445457 200.454545,58.1836314 200.454545,59.1763636 L200.454545,61.2381818 C200.454545,62.2224292 200.161821,62.9499976 199.576364,63.4209091 C198.990906,63.8918205 198.223035,64.1272727 197.272727,64.1272727 L197.272727,64.1272727 Z M197.272727,62.9818182 C197.909094,62.9818182 198.386362,62.846062 198.704545,62.5745455 C199.022729,62.3030289 199.181818,61.8575789 199.181818,61.2381818 L199.181818,59.1763636 C199.181818,58.5654515 199.022729,58.1136378 198.704545,57.8209091 C198.386362,57.5281804 197.909094,57.3818182 197.272727,57.3818182 C196.63636,57.3818182 196.159092,57.5281804 195.840909,57.8209091 C195.522726,58.1136378 195.363636,58.5654515 195.363636,59.1763636 L195.363636,61.2381818 C195.363636,61.8575789 195.522726,62.3030289 195.840909,62.5745455 C196.159092,62.846062 196.63636,62.9818182 197.272727,62.9818182 L197.272727,62.9818182 Z M206.181818,64.1272727 C205.23151,64.1272727 204.463639,63.8918205 203.878182,63.4209091 C203.292724,62.9499976 203,62.2224292 203,61.2381818 L203,59.1763636 C203,58.1836314 203.294846,57.445457 203.884545,56.9618182 C204.474245,56.4781794 205.244238,56.2363636 206.194545,56.2363636 C207.144853,56.2363636 207.910603,56.4781794 208.491818,56.9618182 C209.073033,57.445457 209.363636,58.1836314 209.363636,59.1763636 L209.363636,61.2381818 C209.363636,62.2224292 209.070912,62.9499976 208.485455,63.4209091 C207.899997,63.8918205 207.132126,64.1272727 206.181818,64.1272727 L206.181818,64.1272727 Z M206.181818,62.9818182 C206.818185,62.9818182 207.295453,62.846062 207.613636,62.5745455 C207.93182,62.3030289 208.090909,61.8575789 208.090909,61.2381818 L208.090909,59.1763636 C208.090909,58.5654515 207.93182,58.1136378 207.613636,57.8209091 C207.295453,57.5281804 206.818185,57.3818182 206.181818,57.3818182 C205.545451,57.3818182 205.068183,57.5281804 204.75,57.8209091 C204.431817,58.1136378 204.272727,58.5654515 204.272727,59.1763636 L204.272727,61.2381818 C204.272727,61.8575789 204.431817,62.3030289 204.75,62.5745455 C205.068183,62.846062 205.545451,62.9818182 206.181818,62.9818182 L206.181818,62.9818182 Z M213.181818,60.5254545 L213.181818,64 L211.909091,64 L211.909091,53.8181818 L213.181818,53.8181818 L213.181818,59.4563636 L213.830909,59.4563636 L216.274545,56.3636364 L217.827273,56.3636364 L214.836364,59.9145455 L217.789091,64 L216.338182,64 L213.830909,60.5254545 L213.181818,60.5254545 Z M222.829091,64.1272727 C222.184239,64.1272727 221.560609,64.0318191 220.958182,63.8409091 C220.355755,63.649999 219.800003,63.3551535 219.290909,62.9563636 L219.863636,61.9509091 C220.279396,62.2903047 220.743937,62.5469688 221.257273,62.7209091 C221.770609,62.8948494 222.294543,62.9818182 222.829091,62.9818182 C223.270305,62.9818182 223.692422,62.9139401 224.095455,62.7781818 C224.498487,62.6424236 224.7,62.3539416 224.7,61.9127273 C224.7,61.547877 224.534547,61.2890917 224.203636,61.1363636 C223.872726,60.9836356 223.266065,60.8521218 222.383636,60.7418182 C221.450298,60.6315146 220.743942,60.4130319 220.264545,60.0863636 C219.785149,59.7596953 219.545455,59.2442459 219.545455,58.54 C219.545455,57.7763598 219.833937,57.2015171 220.410909,56.8154545 C220.987882,56.429392 221.658178,56.2363636 222.421818,56.2363636 C223.024245,56.2363636 223.603331,56.3381808 224.159091,56.5418182 C224.714851,56.7454556 225.230301,57.0339375 225.705455,57.4072727 L225.132727,58.4127273 C224.742422,58.0987863 224.318184,57.8484858 223.86,57.6618182 C223.401816,57.4751506 222.922427,57.3818182 222.421818,57.3818182 C222.014543,57.3818182 221.643335,57.4581811 221.308182,57.6109091 C220.973029,57.7636371 220.805455,58.0436343 220.805455,58.4509091 C220.805455,58.7987896 220.960301,59.0512113 221.27,59.2081818 C221.579699,59.3651523 222.175753,59.4987873 223.058182,59.6090909 C224.025459,59.7193945 224.750907,59.9548467 225.234545,60.3154545 C225.718184,60.6760624 225.96,61.1787847 225.96,61.8236364 C225.96,62.6212161 225.637579,63.2045436 224.992727,63.5736364 C224.347876,63.9427291 223.626671,64.1272727 222.829091,64.1272727 L222.829091,64.1272727 Z" id="ebooks" fill="#909090" sketch:type="MSShapeGroup"></path>
                <path d="M348.545455,64 L348.545455,57.5090909 L347.018182,57.5090909 L347.018182,56.3636364 L348.545455,56.3636364 L348.545455,55.8545455 C348.545455,55.1672693 348.753331,54.6348504 349.169091,54.2572727 C349.584851,53.8796951 350.102421,53.6909091 350.721818,53.6909091 C350.96788,53.6909091 351.269089,53.7248481 351.625455,53.7927273 C351.98182,53.8606064 352.26606,53.9369693 352.478182,54.0218182 L352.223636,55.0909091 C352.045454,55.02303 351.848183,54.9636366 351.631818,54.9127273 C351.415453,54.8618179 351.196971,54.8363636 350.976364,54.8363636 C350.619998,54.8363636 350.33788,54.9148477 350.13,55.0718182 C349.92212,55.2287887 349.818182,55.4854528 349.818182,55.8418182 L349.818182,56.3636364 L352.363636,56.3636364 L352.363636,57.5090909 L349.818182,57.5090909 L349.818182,64 L348.545455,64 Z M357.683636,63.0327273 C358.150305,63.0327273 358.583028,62.9542432 358.981818,62.7972727 C359.380608,62.6403022 359.719999,62.3666686 360,61.9763636 L360,60.7545455 L357.327273,60.7545455 C356.962422,60.7545455 356.669698,60.8372719 356.449091,61.0027273 C356.228484,61.1681826 356.118182,61.4587858 356.118182,61.8745455 C356.118182,62.2393958 356.243332,62.5236353 356.493636,62.7272727 C356.743941,62.9309101 357.140603,63.0327273 357.683636,63.0327273 L357.683636,63.0327273 Z M357.518182,64.1272727 C356.839391,64.1272727 356.234851,63.9554563 355.704545,63.6118182 C355.17424,63.2681801 354.909091,62.7145493 354.909091,61.9509091 C354.909091,61.2806027 355.112725,60.7545474 355.52,60.3727273 C355.927275,59.9909072 356.474542,59.8 357.161818,59.8 L360,59.8 L360,58.7054545 C360,58.2981798 359.853638,57.9651528 359.560909,57.7063636 C359.26818,57.4475745 358.824851,57.3181818 358.230909,57.3181818 C357.636967,57.3181818 357.183032,57.4115142 356.869091,57.5981818 C356.55515,57.7848494 356.317577,58.1624214 356.156364,58.7309091 L355.074545,58.4254545 C355.210304,57.7296935 355.526361,57.190911 356.022727,56.8090909 C356.519093,56.4272708 357.246662,56.2363636 358.205455,56.2363636 C359.079398,56.2363636 359.809088,56.4251496 360.394545,56.8027273 C360.980003,57.1803049 361.272727,57.7636324 361.272727,58.5527273 L361.272727,61.9636364 C361.272727,62.4218205 361.399999,62.7081812 361.654545,62.8227273 C361.909092,62.9372733 362.290907,62.9521216 362.8,62.8672727 L362.8,64.0381818 C362.273937,64.1145458 361.779699,64.0784856 361.317273,63.93 C360.854846,63.7815144 360.602424,63.3806093 360.56,62.7272727 L360.305455,62.7272727 C360.067878,63.1260626 359.696669,63.4590896 359.191818,63.7263636 C358.686967,63.9936377 358.129094,64.1272727 357.518182,64.1272727 L357.518182,64.1272727 Z M368.450909,64.1272727 C367.296964,64.1272727 366.448488,63.874851 365.905455,63.37 C365.362422,62.865149 365.090909,62.15455 365.090909,61.2381818 L365.090909,59.1763636 C365.090909,58.1921163 365.396361,57.456063 366.007273,56.9681818 C366.618185,56.4803006 367.42848,56.2363636 368.438182,56.2363636 C369.439399,56.2363636 370.198785,56.4506039 370.716364,56.8790909 C371.233942,57.3075779 371.526666,57.9672683 371.594545,58.8581818 L370.347273,58.9345455 C370.304848,58.3151484 370.133032,57.9015162 369.831818,57.6936364 C369.530605,57.4857565 369.061821,57.3818182 368.425455,57.3818182 C367.763633,57.3818182 367.254547,57.5175744 366.898182,57.7890909 C366.541816,58.0606074 366.363636,58.523027 366.363636,59.1763636 L366.363636,61.2381818 C366.363636,61.8575789 366.541816,62.3030289 366.898182,62.5745455 C367.254547,62.846062 367.772118,62.9818182 368.450909,62.9818182 C369.078791,62.9818182 369.543332,62.8990917 369.844545,62.7336364 C370.145759,62.568181 370.313333,62.2181845 370.347273,61.6836364 L371.594545,61.76 C371.535151,62.5745495 371.244548,63.1727254 370.722727,63.5545455 C370.200906,63.9363655 369.443641,64.1272727 368.450909,64.1272727 L368.450909,64.1272727 Z M380.389091,62.32 C380.159999,62.9563668 379.797275,63.4166652 379.300909,63.7009091 C378.804543,63.9851529 378.102429,64.1272727 377.194545,64.1272727 C376.184843,64.1272727 375.400003,63.8833358 374.84,63.3954545 C374.279997,62.9075733 374,62.1842472 374,61.2254545 L374,59.1763636 C374,58.1921163 374.294846,57.456063 374.884545,56.9681818 C375.474245,56.4803006 376.244238,56.2363636 377.194545,56.2363636 C378.153338,56.2363636 378.921209,56.484543 379.498182,56.9809091 C380.075154,57.4772752 380.363636,58.2387827 380.363636,59.2654545 L380.363636,60.4363636 L375.272727,60.4363636 L375.272727,61.2381818 C375.272727,61.8745486 375.431817,62.3348471 375.75,62.6190909 C376.068183,62.9033348 376.545451,63.0454545 377.181818,63.0454545 C377.79273,63.0454545 378.23818,62.9606069 378.518182,62.7909091 C378.798183,62.6212113 379.010302,62.3454565 379.154545,61.9636364 L380.389091,62.32 Z M375.272727,59.1763636 L375.272727,59.4818182 L379.090909,59.4818182 L379.090909,59.2909091 C379.090909,58.6036329 378.93182,58.1030319 378.613636,57.7890909 C378.295453,57.4751499 377.818185,57.3181818 377.181818,57.3181818 C376.545451,57.3181818 376.068183,57.4687864 375.75,57.77 C375.431817,58.0712136 375.272727,58.5399968 375.272727,59.1763636 L375.272727,59.1763636 Z M385.989091,64.1272727 C385.581816,64.1272727 385.100306,64.0615158 384.544545,63.93 C383.988785,63.7984842 383.443639,63.5672744 382.909091,63.2363636 L382.909091,53.8181818 L384.181818,53.8181818 L384.181818,57.6363636 L384.563636,57.6363636 C384.784244,57.1951493 385.085453,56.8515164 385.467273,56.6054545 C385.849093,56.3593927 386.290301,56.2363636 386.790909,56.2363636 C387.537579,56.2363636 388.137877,56.4887854 388.591818,56.9936364 C389.04576,57.4984874 389.272727,58.2133287 389.272727,59.1381818 L389.272727,61.2127273 C389.272727,62.2563689 388.922731,63.0030281 388.222727,63.4527273 C387.522724,63.9024265 386.778186,64.1272727 385.989091,64.1272727 L385.989091,64.1272727 Z M385.976364,63.0072727 C386.510912,63.0072727 386.981816,62.8800013 387.389091,62.6254545 C387.796366,62.3709078 388,61.8915187 388,61.1872727 L388,59.1509091 C388,58.4890876 387.862123,58.0393951 387.586364,57.8018182 C387.310605,57.5642412 386.939396,57.4454545 386.472727,57.4454545 C386.039998,57.4454545 385.641214,57.5557565 385.276364,57.7763636 C384.911513,57.9969708 384.546668,58.332119 384.181818,58.7818182 L384.181818,62.5236364 C384.436365,62.6763644 384.707877,62.7951511 384.996364,62.88 C385.28485,62.9648489 385.611513,63.0072727 385.976364,63.0072727 L385.976364,63.0072727 Z M395,64.1272727 C394.049692,64.1272727 393.281821,63.8918205 392.696364,63.4209091 C392.110906,62.9499976 391.818182,62.2224292 391.818182,61.2381818 L391.818182,59.1763636 C391.818182,58.1836314 392.113027,57.445457 392.702727,56.9618182 C393.292427,56.4781794 394.062419,56.2363636 395.012727,56.2363636 C395.963035,56.2363636 396.728785,56.4781794 397.31,56.9618182 C397.891215,57.445457 398.181818,58.1836314 398.181818,59.1763636 L398.181818,61.2381818 C398.181818,62.2224292 397.889094,62.9499976 397.303636,63.4209091 C396.718179,63.8918205 395.950308,64.1272727 395,64.1272727 L395,64.1272727 Z M395,62.9818182 C395.636367,62.9818182 396.113635,62.846062 396.431818,62.5745455 C396.750002,62.3030289 396.909091,61.8575789 396.909091,61.2381818 L396.909091,59.1763636 C396.909091,58.5654515 396.750002,58.1136378 396.431818,57.8209091 C396.113635,57.5281804 395.636367,57.3818182 395,57.3818182 C394.363633,57.3818182 393.886365,57.5281804 393.568182,57.8209091 C393.249998,58.1136378 393.090909,58.5654515 393.090909,59.1763636 L393.090909,61.2381818 C393.090909,61.8575789 393.249998,62.3030289 393.568182,62.5745455 C393.886365,62.846062 394.363633,62.9818182 395,62.9818182 L395,62.9818182 Z M403.909091,64.1272727 C402.958783,64.1272727 402.190912,63.8918205 401.605455,63.4209091 C401.019997,62.9499976 400.727273,62.2224292 400.727273,61.2381818 L400.727273,59.1763636 C400.727273,58.1836314 401.022118,57.445457 401.611818,56.9618182 C402.201518,56.4781794 402.97151,56.2363636 403.921818,56.2363636 C404.872126,56.2363636 405.637876,56.4781794 406.219091,56.9618182 C406.800306,57.445457 407.090909,58.1836314 407.090909,59.1763636 L407.090909,61.2381818 C407.090909,62.2224292 406.798185,62.9499976 406.212727,63.4209091 C405.62727,63.8918205 404.859399,64.1272727 403.909091,64.1272727 L403.909091,64.1272727 Z M403.909091,62.9818182 C404.545458,62.9818182 405.022726,62.846062 405.340909,62.5745455 C405.659092,62.3030289 405.818182,61.8575789 405.818182,61.2381818 L405.818182,59.1763636 C405.818182,58.5654515 405.659092,58.1136378 405.340909,57.8209091 C405.022726,57.5281804 404.545458,57.3818182 403.909091,57.3818182 C403.272724,57.3818182 402.795456,57.5281804 402.477273,57.8209091 C402.159089,58.1136378 402,58.5654515 402,59.1763636 L402,61.2381818 C402,61.8575789 402.159089,62.3030289 402.477273,62.5745455 C402.795456,62.846062 403.272724,62.9818182 403.909091,62.9818182 L403.909091,62.9818182 Z M410.909091,60.5254545 L410.909091,64 L409.636364,64 L409.636364,53.8181818 L410.909091,53.8181818 L410.909091,59.4563636 L411.558182,59.4563636 L414.001818,56.3636364 L415.554545,56.3636364 L412.563636,59.9145455 L415.516364,64 L414.065455,64 L411.558182,60.5254545 L410.909091,60.5254545 Z" id="facebook" fill="#909090" sketch:type="MSShapeGroup"></path>
                <path d="M534.545455,58.9345455 L537.727273,58.9345455 C538.414549,58.9345455 538.904544,58.807274 539.197273,58.5527273 C539.490001,58.2981805 539.636364,57.8781847 539.636364,57.2927273 L539.636364,56.5036364 C539.636364,55.9521185 539.490001,55.5575769 539.197273,55.32 C538.904544,55.0824231 538.414549,54.9636364 537.727273,54.9636364 L534.545455,54.9636364 L534.545455,58.9345455 Z M534.545455,64 L533.272727,64 L533.272727,53.8181818 L537.74,53.8181818 C538.800611,53.8181818 539.593937,54.0409069 540.12,54.4863636 C540.646063,54.9318204 540.909091,55.6042379 540.909091,56.5036364 L540.909091,57.2927273 C540.909091,58.0987919 540.703335,58.7266644 540.291818,59.1763636 C539.880301,59.6260629 539.25455,59.9060601 538.414545,60.0163636 L541.023636,64 L539.572727,64 L536.989091,60.0545455 L534.545455,60.0545455 L534.545455,64 Z M549.843636,62.32 C549.614544,62.9563668 549.251821,63.4166652 548.755455,63.7009091 C548.259088,63.9851529 547.556974,64.1272727 546.649091,64.1272727 C545.639389,64.1272727 544.854548,63.8833358 544.294545,63.3954545 C543.734543,62.9075733 543.454545,62.1842472 543.454545,61.2254545 L543.454545,59.1763636 C543.454545,58.1921163 543.749391,57.456063 544.339091,56.9681818 C544.928791,56.4803006 545.698783,56.2363636 546.649091,56.2363636 C547.607884,56.2363636 548.375755,56.484543 548.952727,56.9809091 C549.5297,57.4772752 549.818182,58.2387827 549.818182,59.2654545 L549.818182,60.4363636 L544.727273,60.4363636 L544.727273,61.2381818 C544.727273,61.8745486 544.886362,62.3348471 545.204545,62.6190909 C545.522729,62.9033348 545.999997,63.0454545 546.636364,63.0454545 C547.247276,63.0454545 547.692726,62.9606069 547.972727,62.7909091 C548.252729,62.6212113 548.464848,62.3454565 548.609091,61.9636364 L549.843636,62.32 Z M544.727273,59.1763636 L544.727273,59.4818182 L548.545455,59.4818182 L548.545455,59.2909091 C548.545455,58.6036329 548.386365,58.1030319 548.068182,57.7890909 C547.749998,57.4751499 547.27273,57.3181818 546.636364,57.3181818 C545.999997,57.3181818 545.522729,57.4687864 545.204545,57.77 C544.886362,58.0712136 544.727273,58.5399968 544.727273,59.1763636 L544.727273,59.1763636 Z M555.138182,63.0327273 C555.604851,63.0327273 556.037574,62.9542432 556.436364,62.7972727 C556.835154,62.6403022 557.174544,62.3666686 557.454545,61.9763636 L557.454545,60.7545455 L554.781818,60.7545455 C554.416968,60.7545455 554.124244,60.8372719 553.903636,61.0027273 C553.683029,61.1681826 553.572727,61.4587858 553.572727,61.8745455 C553.572727,62.2393958 553.697878,62.5236353 553.948182,62.7272727 C554.198486,62.9309101 554.595149,63.0327273 555.138182,63.0327273 L555.138182,63.0327273 Z M554.972727,64.1272727 C554.293936,64.1272727 553.689397,63.9554563 553.159091,63.6118182 C552.628785,63.2681801 552.363636,62.7145493 552.363636,61.9509091 C552.363636,61.2806027 552.567271,60.7545474 552.974545,60.3727273 C553.38182,59.9909072 553.929087,59.8 554.616364,59.8 L557.454545,59.8 L557.454545,58.7054545 C557.454545,58.2981798 557.308183,57.9651528 557.015455,57.7063636 C556.722726,57.4475745 556.279397,57.3181818 555.685455,57.3181818 C555.091512,57.3181818 554.637577,57.4115142 554.323636,57.5981818 C554.009695,57.7848494 553.772122,58.1624214 553.610909,58.7309091 L552.529091,58.4254545 C552.664849,57.7296935 552.980907,57.190911 553.477273,56.8090909 C553.973639,56.4272708 554.701207,56.2363636 555.66,56.2363636 C556.533944,56.2363636 557.263633,56.4251496 557.849091,56.8027273 C558.434548,57.1803049 558.727273,57.7636324 558.727273,58.5527273 L558.727273,61.9636364 C558.727273,62.4218205 558.854544,62.7081812 559.109091,62.8227273 C559.363638,62.9372733 559.745452,62.9521216 560.254545,62.8672727 L560.254545,64.0381818 C559.728482,64.1145458 559.234245,64.0784856 558.771818,63.93 C558.309392,63.7815144 558.05697,63.3806093 558.014545,62.7272727 L557.76,62.7272727 C557.522423,63.1260626 557.151215,63.4590896 556.646364,63.7263636 C556.141513,63.9936377 555.583639,64.1272727 554.972727,64.1272727 L554.972727,64.1272727 Z M565.345455,62.9181818 C565.778184,62.9181818 566.176968,62.8078799 566.541818,62.5872727 C566.906668,62.3666656 567.271513,62.0315174 567.636364,61.5818182 L567.636364,57.84 C567.364847,57.6787871 567.076365,57.5578792 566.770909,57.4772727 C566.465453,57.3966663 566.155759,57.3563636 565.841818,57.3563636 C565.179997,57.3563636 564.677274,57.5112106 564.333636,57.8209091 C563.989998,58.1306076 563.818182,58.5824213 563.818182,59.1763636 L563.818182,61.2254545 C563.818182,61.887276 563.956059,62.3348473 564.231818,62.5681818 C564.507577,62.8015163 564.878786,62.9181818 565.345455,62.9181818 L565.345455,62.9181818 Z M567.254545,62.7272727 C567.033938,63.1684871 566.732729,63.51212 566.350909,63.7581818 C565.969089,64.0042437 565.527881,64.1272727 565.027273,64.1272727 C564.280602,64.1272727 563.680305,63.874851 563.226364,63.37 C562.772422,62.865149 562.545455,62.1503077 562.545455,61.2254545 L562.545455,59.1509091 C562.545455,58.2599955 562.8403,57.5515178 563.43,57.0254545 C564.0197,56.4993913 564.819389,56.2363636 565.829091,56.2363636 C566.168487,56.2363636 566.490908,56.2681815 566.796364,56.3318182 C567.10182,56.3954549 567.381817,56.4824237 567.636364,56.5927273 L567.636364,53.8181818 L568.909091,53.8181818 L568.909091,64 L567.636364,64 L567.636364,62.7272727 L567.254545,62.7272727 Z M572.727273,58.6545455 L572.727273,64 L571.454545,64 L571.454545,56.3636364 L572.727273,56.3636364 L572.727273,57.6363636 L573.109091,57.6363636 C573.244849,57.2121191 573.501513,56.8727285 573.879091,56.6181818 C574.256669,56.3636351 574.699997,56.2363636 575.209091,56.2363636 C575.65879,56.2363636 576.042726,56.3615139 576.360909,56.6118182 C576.679093,56.8621225 576.90606,57.2036342 577.041818,57.6363636 L577.5,57.6363636 C577.635758,57.2121191 577.898786,56.8727285 578.289091,56.6181818 C578.679396,56.3636351 579.141816,56.2363636 579.676364,56.2363636 C580.270306,56.2363636 580.745453,56.4548463 581.101818,56.8918182 C581.458184,57.3287901 581.636364,57.9163599 581.636364,58.6545455 L581.636364,64 L580.363636,64 L580.363636,58.8581818 C580.363636,58.3490884 580.266062,57.9863647 580.070909,57.77 C579.875757,57.5536353 579.595759,57.4454545 579.230909,57.4454545 C578.866059,57.4454545 578.503335,57.5557565 578.142727,57.7763636 C577.782119,57.9969708 577.46182,58.2896951 577.181818,58.6545455 L577.181818,64 L575.909091,64 L575.909091,58.8581818 C575.909091,58.3490884 575.811516,57.9863647 575.616364,57.77 C575.421211,57.5536353 575.141214,57.4454545 574.776364,57.4454545 C574.411513,57.4454545 574.04879,57.5557565 573.688182,57.7763636 C573.327574,57.9969708 573.007274,58.2896951 572.727273,58.6545455 L572.727273,58.6545455 Z M585.454545,64 L585.454545,56.3636364 L586.727273,56.3636364 L586.727273,64 L585.454545,64 Z M586.090909,54.9636364 C585.768483,54.9636364 585.507577,54.9127278 585.308182,54.8109091 C585.108787,54.7090904 585.009091,54.5181832 585.009091,54.2381818 L585.009091,54.1490909 C585.009091,53.8606046 585.108787,53.6633339 585.308182,53.5572727 C585.507577,53.4512116 585.768483,53.3981818 586.090909,53.3981818 C586.413335,53.3981818 586.674241,53.4512116 586.873636,53.5572727 C587.073031,53.6633339 587.172727,53.8606046 587.172727,54.1490909 L587.172727,54.2381818 C587.172727,54.5181832 587.07091,54.7090904 586.867273,54.8109091 C586.663635,54.9127278 586.40485,54.9636364 586.090909,54.9636364 L586.090909,54.9636364 Z M593.930909,64.0636364 C593.073935,64.0636364 592.401518,63.7751544 591.913636,63.1981818 C591.425755,62.6212092 591.181818,61.9381858 591.181818,61.1490909 L591.181818,53.8181818 L592.454545,53.8181818 L592.454545,61.1618182 C592.454545,61.6115174 592.579696,62.0103013 592.83,62.3581818 C593.080304,62.7060623 593.459997,62.88 593.969091,62.88 C594.096364,62.88 594.244848,62.8587881 594.414545,62.8163636 C594.584243,62.7739392 594.732727,62.7230306 594.86,62.6636364 L595.114545,63.7709091 C594.953333,63.855758 594.77091,63.9257573 594.567273,63.9809091 C594.363635,64.0360609 594.151516,64.0636364 593.930909,64.0636364 L593.930909,64.0636364 Z M600.294545,64.0636364 C599.437571,64.0636364 598.765154,63.7751544 598.277273,63.1981818 C597.789391,62.6212092 597.545455,61.9381858 597.545455,61.1490909 L597.545455,53.8181818 L598.818182,53.8181818 L598.818182,61.1618182 C598.818182,61.6115174 598.943332,62.0103013 599.193636,62.3581818 C599.443941,62.7060623 599.823634,62.88 600.332727,62.88 C600.460001,62.88 600.608484,62.8587881 600.778182,62.8163636 C600.94788,62.7739392 601.096363,62.7230306 601.223636,62.6636364 L601.478182,63.7709091 C601.316969,63.855758 601.134546,63.9257573 600.930909,63.9809091 C600.727272,64.0360609 600.515153,64.0636364 600.294545,64.0636364 L600.294545,64.0636364 Z" id="Readmill" fill="#909090" sketch:type="MSShapeGroup"></path>
                <path d="M705.42,64 L703.714545,58.8327273 L702.085455,64 L700.634545,64 L698.496364,56.3636364 L699.781818,56.3636364 L701.385455,62.7654545 L702.950909,57.6363636 L704.452727,57.6363636 L706.094545,62.6381818 L707.672727,56.3636364 L708.958182,56.3636364 L706.82,64 L705.42,64 Z M717.116364,62.32 C716.887272,62.9563668 716.524548,63.4166652 716.028182,63.7009091 C715.531816,63.9851529 714.829702,64.1272727 713.921818,64.1272727 C712.912116,64.1272727 712.127276,63.8833358 711.567273,63.3954545 C711.00727,62.9075733 710.727273,62.1842472 710.727273,61.2254545 L710.727273,59.1763636 C710.727273,58.1921163 711.022118,57.456063 711.611818,56.9681818 C712.201518,56.4803006 712.97151,56.2363636 713.921818,56.2363636 C714.880611,56.2363636 715.648482,56.484543 716.225455,56.9809091 C716.802427,57.4772752 717.090909,58.2387827 717.090909,59.2654545 L717.090909,60.4363636 L712,60.4363636 L712,61.2381818 C712,61.8745486 712.159089,62.3348471 712.477273,62.6190909 C712.795456,62.9033348 713.272724,63.0454545 713.909091,63.0454545 C714.520003,63.0454545 714.965453,62.9606069 715.245455,62.7909091 C715.525456,62.6212113 715.737575,62.3454565 715.881818,61.9636364 L717.116364,62.32 Z M712,59.1763636 L712,59.4818182 L715.818182,59.4818182 L715.818182,59.2909091 C715.818182,58.6036329 715.659093,58.1030319 715.340909,57.7890909 C715.022726,57.4751499 714.545458,57.3181818 713.909091,57.3181818 C713.272724,57.3181818 712.795456,57.4687864 712.477273,57.77 C712.159089,58.0712136 712,58.5399968 712,59.1763636 L712,59.1763636 Z M722.716364,64.1272727 C722.309089,64.1272727 721.827579,64.0615158 721.271818,63.93 C720.716058,63.7984842 720.170912,63.5672744 719.636364,63.2363636 L719.636364,53.8181818 L720.909091,53.8181818 L720.909091,57.6363636 L721.290909,57.6363636 C721.511516,57.1951493 721.812725,56.8515164 722.194545,56.6054545 C722.576366,56.3593927 723.017573,56.2363636 723.518182,56.2363636 C724.264852,56.2363636 724.865149,56.4887854 725.319091,56.9936364 C725.773033,57.4984874 726,58.2133287 726,59.1381818 L726,61.2127273 C726,62.2563689 725.650004,63.0030281 724.95,63.4527273 C724.249996,63.9024265 723.505458,64.1272727 722.716364,64.1272727 L722.716364,64.1272727 Z M722.703636,63.0072727 C723.238184,63.0072727 723.709089,62.8800013 724.116364,62.6254545 C724.523638,62.3709078 724.727273,61.8915187 724.727273,61.1872727 L724.727273,59.1509091 C724.727273,58.4890876 724.589395,58.0393951 724.313636,57.8018182 C724.037877,57.5642412 723.666669,57.4454545 723.2,57.4454545 C722.767271,57.4454545 722.368487,57.5557565 722.003636,57.7763636 C721.638786,57.9969708 721.273941,58.332119 720.909091,58.7818182 L720.909091,62.5236364 C721.163638,62.6763644 721.43515,62.7951511 721.723636,62.88 C722.012123,62.9648489 722.338786,63.0072727 722.703636,63.0072727 L722.703636,63.0072727 Z M731.829091,64.1272727 C731.184239,64.1272727 730.560609,64.0318191 729.958182,63.8409091 C729.355755,63.649999 728.800003,63.3551535 728.290909,62.9563636 L728.863636,61.9509091 C729.279396,62.2903047 729.743937,62.5469688 730.257273,62.7209091 C730.770609,62.8948494 731.294543,62.9818182 731.829091,62.9818182 C732.270305,62.9818182 732.692422,62.9139401 733.095455,62.7781818 C733.498487,62.6424236 733.7,62.3539416 733.7,61.9127273 C733.7,61.547877 733.534547,61.2890917 733.203636,61.1363636 C732.872726,60.9836356 732.266065,60.8521218 731.383636,60.7418182 C730.450298,60.6315146 729.743942,60.4130319 729.264545,60.0863636 C728.785149,59.7596953 728.545455,59.2442459 728.545455,58.54 C728.545455,57.7763598 728.833937,57.2015171 729.410909,56.8154545 C729.987882,56.429392 730.658178,56.2363636 731.421818,56.2363636 C732.024245,56.2363636 732.603331,56.3381808 733.159091,56.5418182 C733.714851,56.7454556 734.230301,57.0339375 734.705455,57.4072727 L734.132727,58.4127273 C733.742422,58.0987863 733.318184,57.8484858 732.86,57.6618182 C732.401816,57.4751506 731.922427,57.3818182 731.421818,57.3818182 C731.014543,57.3818182 730.643335,57.4581811 730.308182,57.6109091 C729.973029,57.7636371 729.805455,58.0436343 729.805455,58.4509091 C729.805455,58.7987896 729.960301,59.0512113 730.27,59.2081818 C730.579699,59.3651523 731.175753,59.4987873 732.058182,59.6090909 C733.025459,59.7193945 733.750907,59.9548467 734.234545,60.3154545 C734.718184,60.6760624 734.96,61.1787847 734.96,61.8236364 C734.96,62.6212161 734.637579,63.2045436 733.992727,63.5736364 C733.347876,63.9427291 732.626671,64.1272727 731.829091,64.1272727 L731.829091,64.1272727 Z M738.727273,64 L738.727273,56.3636364 L740,56.3636364 L740,64 L738.727273,64 Z M739.363636,54.9636364 C739.041211,54.9636364 738.780304,54.9127278 738.580909,54.8109091 C738.381514,54.7090904 738.281818,54.5181832 738.281818,54.2381818 L738.281818,54.1490909 C738.281818,53.8606046 738.381514,53.6633339 738.580909,53.5572727 C738.780304,53.4512116 739.041211,53.3981818 739.363636,53.3981818 C739.686062,53.3981818 739.946969,53.4512116 740.146364,53.5572727 C740.345759,53.6633339 740.445455,53.8606046 740.445455,54.1490909 L740.445455,54.2381818 C740.445455,54.5181832 740.343637,54.7090904 740.14,54.8109091 C739.936363,54.9127278 739.677577,54.9636364 739.363636,54.9636364 L739.363636,54.9636364 Z M747.623636,64.1145455 C746.783632,64.1145455 746.151517,63.8939416 745.727273,63.4527273 C745.303028,63.0115129 745.090909,62.3581861 745.090909,61.4927273 L745.090909,57.5090909 L743.563636,57.5090909 L743.563636,56.3636364 L745.090909,56.3636364 L745.090909,53.8181818 L746.363636,53.8181818 L746.363636,56.3636364 L749.163636,56.3636364 L749.163636,57.5090909 L746.363636,57.5090909 L746.363636,61.5054545 C746.363636,62.0060631 746.486665,62.3730291 746.732727,62.6063636 C746.978789,62.8396981 747.30121,62.9563636 747.7,62.9563636 C747.886668,62.9563636 748.094544,62.9351517 748.323636,62.8927273 C748.552728,62.8503028 748.786059,62.7866671 749.023636,62.7018182 L749.278182,63.8218182 C748.989696,63.9236369 748.707577,63.9978786 748.431818,64.0445455 C748.156059,64.0912124 747.886668,64.1145455 747.623636,64.1145455 L747.623636,64.1145455 Z M757.843636,62.32 C757.614544,62.9563668 757.251821,63.4166652 756.755455,63.7009091 C756.259088,63.9851529 755.556974,64.1272727 754.649091,64.1272727 C753.639389,64.1272727 752.854548,63.8833358 752.294545,63.3954545 C751.734543,62.9075733 751.454545,62.1842472 751.454545,61.2254545 L751.454545,59.1763636 C751.454545,58.1921163 751.749391,57.456063 752.339091,56.9681818 C752.928791,56.4803006 753.698783,56.2363636 754.649091,56.2363636 C755.607884,56.2363636 756.375755,56.484543 756.952727,56.9809091 C757.5297,57.4772752 757.818182,58.2387827 757.818182,59.2654545 L757.818182,60.4363636 L752.727273,60.4363636 L752.727273,61.2381818 C752.727273,61.8745486 752.886362,62.3348471 753.204545,62.6190909 C753.522729,62.9033348 753.999997,63.0454545 754.636364,63.0454545 C755.247276,63.0454545 755.692726,62.9606069 755.972727,62.7909091 C756.252729,62.6212113 756.464848,62.3454565 756.609091,61.9636364 L757.843636,62.32 Z M752.727273,59.1763636 L752.727273,59.4818182 L756.545455,59.4818182 L756.545455,59.2909091 C756.545455,58.6036329 756.386365,58.1030319 756.068182,57.7890909 C755.749998,57.4751499 755.27273,57.3181818 754.636364,57.3181818 C753.999997,57.3181818 753.522729,57.4687864 753.204545,57.77 C752.886362,58.0712136 752.727273,58.5399968 752.727273,59.1763636 L752.727273,59.1763636 Z M763.647273,64.1272727 C763.002421,64.1272727 762.378791,64.0318191 761.776364,63.8409091 C761.173936,63.649999 760.618184,63.3551535 760.109091,62.9563636 L760.681818,61.9509091 C761.097578,62.2903047 761.562119,62.5469688 762.075455,62.7209091 C762.58879,62.8948494 763.112725,62.9818182 763.647273,62.9818182 C764.088487,62.9818182 764.510604,62.9139401 764.913636,62.7781818 C765.316669,62.6424236 765.518182,62.3539416 765.518182,61.9127273 C765.518182,61.547877 765.352729,61.2890917 765.021818,61.1363636 C764.690907,60.9836356 764.084247,60.8521218 763.201818,60.7418182 C762.26848,60.6315146 761.562124,60.4130319 761.082727,60.0863636 C760.603331,59.7596953 760.363636,59.2442459 760.363636,58.54 C760.363636,57.7763598 760.652118,57.2015171 761.229091,56.8154545 C761.806063,56.429392 762.47636,56.2363636 763.24,56.2363636 C763.842427,56.2363636 764.421512,56.3381808 764.977273,56.5418182 C765.533033,56.7454556 766.048482,57.0339375 766.523636,57.4072727 L765.950909,58.4127273 C765.560604,58.0987863 765.136366,57.8484858 764.678182,57.6618182 C764.219998,57.4751506 763.740609,57.3818182 763.24,57.3818182 C762.832725,57.3818182 762.461517,57.4581811 762.126364,57.6109091 C761.79121,57.7636371 761.623636,58.0436343 761.623636,58.4509091 C761.623636,58.7987896 761.778483,59.0512113 762.088182,59.2081818 C762.39788,59.3651523 762.993935,59.4987873 763.876364,59.6090909 C764.843641,59.7193945 765.569088,59.9548467 766.052727,60.3154545 C766.536366,60.6760624 766.778182,61.1787847 766.778182,61.8236364 C766.778182,62.6212161 766.455761,63.2045436 765.810909,63.5736364 C765.166057,63.9427291 764.444852,64.1272727 763.647273,64.1272727 L763.647273,64.1272727 Z" id="websites" fill="#909090" sketch:type="MSShapeGroup"></path>
                <circle id="Oval-1-Copy" fill="#FFFFFF" sketch:type="MSShapeGroup" cx="198.5" cy="32.5" r="5.5"></circle>
                <circle id="Oval-1-Copy-3" fill="#FFFFFF" sketch:type="MSShapeGroup" cx="379.5" cy="31.5" r="5.5"></circle>
                <circle id="Oval-1-Copy-4" fill="#FFFFFF" sketch:type="MSShapeGroup" cx="565.5" cy="31.5" r="5.5"></circle>
            </g>
        </g>
    </g>
</svg>