<?xml version="1.0" encoding="UTF-8" standalone="no"?>
<svg width="1241px" height="159px" viewBox="0 0 1241 159" version="1.1" xmlns="http://www.w3.org/2000/svg" xmlns:xlink="http://www.w3.org/1999/xlink" xmlns:sketch="http://www.bohemiancoding.com/sketch/ns">
    <!-- Generator: Sketch 3.5.1 (25234) - http://www.bohemiancoding.com/sketch -->
    <title>THE NEW WEB TYPOGRAP Copy</title>
    <desc>Created with Sketch.</desc>
    <defs></defs>
    <g id="Page-1" stroke="none" stroke-width="1" fill="none" fill-rule="evenodd" sketch:type="MSPage">
        <g id="Artboard-1-Copy-7" sketch:type="MSArtboardGroup" transform="translate(-898.000000, -508.000000)" fill="#FFFFFF">
            <path d="M918.114,530.9 C916.758,568.416 916.984,623.786 918.114,657.008 C918.34,660.398 920.374,661.528 923.538,660.172 C927.832,658.364 929.64,657.46 932.126,655.652 C934.16,654.296 935.742,652.714 935.516,648.194 C933.934,614.294 934.386,568.868 935.742,529.77 C938.454,529.544 941.392,529.318 944.33,529.092 C950.206,528.64 952.918,528.64 956.082,522.764 C959.472,516.436 956.534,516.436 953.37,516.662 C934.612,518.244 916.984,520.504 905.232,521.634 C902.294,521.86 901.164,522.99 900.486,524.346 C899.808,525.928 898.904,527.51 898.678,528.866 C898.226,530.9 898.678,532.256 902.294,532.03 C907.718,531.804 912.916,531.352 918.114,530.9 L918.114,530.9 Z M993.146,614.52 C988.4,615.876 983.654,617.458 979.134,619.04 C978.908,590.338 979.36,558.472 980.49,527.736 C980.716,523.442 978.004,522.99 974.84,524.346 C972.128,525.476 969.868,526.832 966.478,529.092 C963.088,531.352 962.636,534.064 962.41,537.906 C961.054,575.648 962.636,621.074 963.54,656.33 C963.54,659.72 965.8,660.624 968.512,659.494 C972.58,657.686 974.614,656.33 976.874,654.974 C979.134,653.618 980.038,652.036 979.812,647.516 C979.586,641.866 979.586,636.216 979.36,630.34 C983.88,628.984 988.4,627.628 993.372,626.272 C993.372,637.12 993.598,647.742 993.824,657.686 C993.824,660.85 995.858,661.98 998.796,660.624 C1002.864,658.816 1004.672,657.46 1007.158,656.104 C1009.644,654.748 1010.548,653.392 1010.322,648.646 C1009.192,613.39 1010.322,558.472 1012.356,518.47 C1012.582,514.402 1011,513.046 1007.61,514.176 C1004.898,515.08 1001.508,516.436 998.344,518.244 C994.954,520.052 994.502,522.764 994.276,526.606 C993.372,555.534 992.92,586.044 993.146,614.52 L993.146,614.52 Z M1036.538,619.718 C1036.538,591.92 1037.216,560.958 1038.346,530.9 C1042.866,530.222 1046.708,529.544 1051.228,529.092 C1054.844,528.64 1060.042,527.058 1062.528,520.73 C1065.24,513.95 1061.398,513.95 1058.686,514.628 C1046.03,517.792 1035.634,519.374 1025.69,521.408 C1020.718,522.312 1020.492,526.38 1020.266,530.448 C1018.91,570.676 1019.362,618.588 1020.718,655.426 C1020.944,659.042 1022.752,660.85 1027.272,659.72 C1034.956,657.912 1043.77,656.556 1050.55,654.974 C1054.844,653.844 1058.46,652.714 1060.946,646.386 C1063.432,640.058 1060.494,640.51 1057.33,641.188 C1049.872,642.996 1044.222,644.578 1036.99,646.386 C1036.764,641.64 1036.764,636.442 1036.538,631.244 C1040.38,630.566 1043.996,629.888 1047.612,628.984 C1051.68,628.08 1055.522,626.272 1058.008,620.396 C1060.72,613.616 1057.33,614.068 1054.166,614.972 C1048.742,616.554 1042.414,618.136 1036.538,619.718 L1036.538,619.718 Z M1120.836,580.168 C1124,604.576 1131.006,639.832 1135.526,650.002 C1137.56,654.296 1141.176,654.974 1144.566,653.392 C1147.956,651.81 1151.12,649.776 1153.38,647.29 C1155.64,644.804 1157.448,642.77 1157.448,637.798 C1157.9,602.768 1159.256,549.658 1161.064,527.058 C1161.516,521.182 1161.064,514.176 1156.318,510.56 C1151.12,506.492 1149.764,510.334 1149.764,513.272 C1149.312,529.996 1148.86,588.304 1148.408,620.17 C1148.408,624.012 1146.6,624.916 1145.47,619.944 C1140.046,594.406 1136.882,553.952 1135.074,519.374 C1134.848,516.21 1133.492,513.724 1129.424,514.854 C1124.904,515.984 1121.062,517.792 1117.672,519.374 C1114.508,520.956 1112.474,523.442 1112.248,531.352 C1111.57,563.218 1111.344,632.374 1110.666,658.59 C1110.666,661.528 1111.796,665.596 1116.994,661.528 C1121.74,657.912 1122.644,650.906 1122.192,644.804 C1121.288,631.244 1120.61,605.028 1120.836,580.168 L1120.836,580.168 Z M1186.376,619.718 C1186.376,591.92 1187.054,560.958 1188.184,530.9 C1192.704,530.222 1196.546,529.544 1201.066,529.092 C1204.682,528.64 1209.88,527.058 1212.366,520.73 C1215.078,513.95 1211.236,513.95 1208.524,514.628 C1195.868,517.792 1185.472,519.374 1175.528,521.408 C1170.556,522.312 1170.33,526.38 1170.104,530.448 C1168.748,570.676 1169.2,618.588 1170.556,655.426 C1170.782,659.042 1172.59,660.85 1177.11,659.72 C1184.794,657.912 1193.608,656.556 1200.388,654.974 C1204.682,653.844 1208.298,652.714 1210.784,646.386 C1213.27,640.058 1210.332,640.51 1207.168,641.188 C1199.71,642.996 1194.06,644.578 1186.828,646.386 C1186.602,641.64 1186.602,636.442 1186.376,631.244 C1190.218,630.566 1193.834,629.888 1197.45,628.984 C1201.518,628.08 1205.36,626.272 1207.846,620.396 C1210.558,613.616 1207.168,614.068 1204.004,614.972 C1198.58,616.554 1192.252,618.136 1186.376,619.718 L1186.376,619.718 Z M1275.42,605.932 C1273.16,586.27 1270.222,563.218 1267.962,543.556 C1266.832,534.29 1262.312,535.42 1256.662,538.358 C1251.69,541.07 1250.334,543.556 1249.656,550.562 C1248.074,564.8 1246.266,589.208 1243.102,611.808 C1239.486,584.688 1236.096,553.952 1233.61,524.798 C1233.158,520.504 1230.446,520.504 1227.508,522.312 C1225.248,523.668 1222.084,525.25 1219.372,527.51 C1216.208,529.996 1215.756,531.578 1216.208,535.42 C1220.05,572.936 1226.152,617.458 1232.028,651.81 C1232.706,655.2 1233.836,656.104 1237.452,655.2 C1241.068,654.296 1242.65,653.618 1245.362,651.81 C1247.622,650.228 1248.526,647.742 1248.752,643.448 C1249.882,628.08 1252.82,602.994 1255.08,586.27 C1257.792,610.452 1260.504,634.182 1262.764,654.07 C1263.216,658.364 1265.25,658.816 1267.962,658.364 C1270.9,657.912 1272.482,657.46 1275.872,656.104 C1279.036,654.748 1281.07,653.392 1281.522,646.386 C1284.46,604.802 1291.466,551.918 1294.404,531.126 C1295.308,525.024 1293.5,518.018 1289.658,514.176 C1285.816,510.334 1283.556,512.594 1283.33,516.888 C1281.974,540.166 1279.488,570.902 1275.42,605.932 L1275.42,605.932 Z M1396.33,605.932 C1394.07,586.27 1391.132,563.218 1388.872,543.556 C1387.742,534.29 1383.222,535.42 1377.572,538.358 C1372.6,541.07 1371.244,543.556 1370.566,550.562 C1368.984,564.8 1367.176,589.208 1364.012,611.808 C1360.396,584.688 1357.006,553.952 1354.52,524.798 C1354.068,520.504 1351.356,520.504 1348.418,522.312 C1346.158,523.668 1342.994,525.25 1340.282,527.51 C1337.118,529.996 1336.666,531.578 1337.118,535.42 C1340.96,572.936 1347.062,617.458 1352.938,651.81 C1353.616,655.2 1354.746,656.104 1358.362,655.2 C1361.978,654.296 1363.56,653.618 1366.272,651.81 C1368.532,650.228 1369.436,647.742 1369.662,643.448 C1370.792,628.08 1373.73,602.994 1375.99,586.27 C1378.702,610.452 1381.414,634.182 1383.674,654.07 C1384.126,658.364 1386.16,658.816 1388.872,658.364 C1391.81,657.912 1393.392,657.46 1396.782,656.104 C1399.946,654.748 1401.98,653.392 1402.432,646.386 C1405.37,604.802 1412.376,551.918 1415.314,531.126 C1416.218,525.024 1414.41,518.018 1410.568,514.176 C1406.726,510.334 1404.466,512.594 1404.24,516.888 C1402.884,540.166 1400.398,570.902 1396.33,605.932 L1396.33,605.932 Z M1437.01,619.718 C1437.01,591.92 1437.688,560.958 1438.818,530.9 C1443.338,530.222 1447.18,529.544 1451.7,529.092 C1455.316,528.64 1460.514,527.058 1463,520.73 C1465.712,513.95 1461.87,513.95 1459.158,514.628 C1446.502,517.792 1436.106,519.374 1426.162,521.408 C1421.19,522.312 1420.964,526.38 1420.738,530.448 C1419.382,570.676 1419.834,618.588 1421.19,655.426 C1421.416,659.042 1423.224,660.85 1427.744,659.72 C1435.428,657.912 1444.242,656.556 1451.022,654.974 C1455.316,653.844 1458.932,652.714 1461.418,646.386 C1463.904,640.058 1460.966,640.51 1457.802,641.188 C1450.344,642.996 1444.694,644.578 1437.462,646.386 C1437.236,641.64 1437.236,636.442 1437.01,631.244 C1440.852,630.566 1444.468,629.888 1448.084,628.984 C1452.152,628.08 1455.994,626.272 1458.48,620.396 C1461.192,613.616 1457.802,614.068 1454.638,614.972 C1449.214,616.554 1442.886,618.136 1437.01,619.718 L1437.01,619.718 Z M1470.006,525.25 C1469.554,562.314 1469.78,614.52 1472.266,655.878 C1472.492,660.172 1474.526,661.98 1479.046,660.398 C1493.058,655.2 1516.562,640.736 1516.562,626.498 C1516.562,616.328 1506.618,605.932 1499.16,600.056 C1510.008,589.886 1517.466,580.846 1517.466,566.834 C1517.466,552.144 1504.584,529.544 1488.086,513.724 C1485.148,511.012 1482.662,509.882 1478.368,511.238 C1474.978,512.368 1471.362,515.08 1469.554,515.984 C1467.294,517.114 1464.808,520.052 1467.52,522.764 C1468.424,523.668 1469.102,524.346 1470.006,525.25 L1470.006,525.25 Z M1487.182,600.734 C1487.182,583.332 1487.408,564.8 1487.86,546.494 C1498.482,561.41 1503.228,573.614 1502.776,578.812 C1502.098,586.722 1494.64,594.18 1487.182,600.734 L1487.182,600.734 Z M1487.408,610.678 C1494.64,617.232 1502.098,625.142 1502.324,631.018 C1502.55,636.216 1499.612,641.64 1488.538,647.516 C1488.086,636.216 1487.634,623.786 1487.408,610.678 L1487.408,610.678 Z M1580.068,530.9 C1578.712,568.416 1578.938,623.786 1580.068,657.008 C1580.294,660.398 1582.328,661.528 1585.492,660.172 C1589.786,658.364 1591.594,657.46 1594.08,655.652 C1596.114,654.296 1597.696,652.714 1597.47,648.194 C1595.888,614.294 1596.34,568.868 1597.696,529.77 C1600.408,529.544 1603.346,529.318 1606.284,529.092 C1612.16,528.64 1614.872,528.64 1618.036,522.764 C1621.426,516.436 1618.488,516.436 1615.324,516.662 C1596.566,518.244 1578.938,520.504 1567.186,521.634 C1564.248,521.86 1563.118,522.99 1562.44,524.346 C1561.762,525.928 1560.858,527.51 1560.632,528.866 C1560.18,530.9 1560.632,532.256 1564.248,532.03 C1569.672,531.804 1574.87,531.352 1580.068,530.9 L1580.068,530.9 Z M1640.41,609.322 C1640.636,629.21 1640.184,649.098 1640.636,658.816 C1640.862,662.206 1643.122,663.11 1645.608,661.98 C1648.998,660.398 1651.936,659.042 1654.196,657.008 C1656.004,655.2 1657.586,653.844 1657.586,648.872 C1657.36,634.86 1656.23,622.43 1656.23,604.576 C1662.558,576.552 1669.112,551.918 1674.536,530.448 C1676.118,524.572 1676.796,517.792 1672.728,513.272 C1668.434,508.3 1666.852,511.916 1666.174,514.854 C1662.784,529.544 1656.682,559.376 1651.032,586.27 C1645.834,566.156 1641.088,546.72 1636.342,525.25 C1635.438,521.182 1632.726,521.182 1629.788,523.442 C1627.754,525.024 1625.72,527.284 1623.008,529.77 C1620.07,532.482 1620.522,535.872 1621.2,539.714 C1624.816,556.89 1633.178,584.236 1640.41,609.322 L1640.41,609.322 Z M1681.994,530.222 C1680.412,567.738 1680.864,621.3 1681.542,657.912 C1681.542,661.076 1683.576,661.98 1686.514,661.076 C1690.582,659.72 1692.842,658.816 1694.876,657.46 C1697.362,655.878 1698.266,654.748 1698.04,650.002 C1697.814,641.188 1697.814,631.922 1697.588,621.752 C1714.086,609.096 1732.844,593.954 1733.07,575.648 C1733.296,560.054 1718.832,535.42 1701.204,518.922 C1697.362,515.306 1693.068,514.402 1688.548,515.984 C1685.158,517.114 1681.768,519.148 1679.508,520.504 C1677.474,521.86 1675.892,524.12 1678.83,527.058 C1679.96,528.188 1680.864,529.092 1681.994,530.222 L1681.994,530.222 Z M1697.814,610.452 C1697.814,591.016 1698.492,569.998 1699.17,549.432 C1711.374,564.8 1717.024,577.004 1717.024,583.332 C1717.024,591.242 1706.854,602.542 1697.814,610.452 L1697.814,610.452 Z M1780.304,523.894 C1776.914,515.758 1771.038,515.306 1760.416,518.922 C1749.342,522.764 1745.274,527.962 1742.788,536.098 C1737.816,552.144 1736.46,577.004 1736.46,593.05 C1736.46,615.65 1737.816,645.934 1747.986,657.686 C1751.15,661.528 1754.992,660.85 1759.06,659.494 C1766.97,656.782 1771.716,653.844 1777.592,647.516 C1784.146,640.284 1789.118,625.82 1789.118,594.632 C1789.118,563.218 1785.502,536.098 1780.304,523.894 L1780.304,523.894 Z M1755.444,590.564 C1755.67,558.924 1759.286,531.804 1763.128,530.222 C1766.97,528.64 1770.812,553.726 1771.49,588.304 C1772.168,624.012 1770.586,646.16 1764.936,648.194 C1760.416,649.776 1755.218,622.43 1755.444,590.564 L1755.444,590.564 Z M1833.188,620.848 C1830.702,633.052 1824.826,644.804 1820.984,645.482 C1815.334,646.612 1812.396,621.074 1812.848,589.886 C1813.3,558.472 1818.046,528.414 1821.888,527.058 C1825.73,525.702 1827.99,560.506 1826.86,595.084 C1826.634,600.056 1828.894,600.734 1832.736,599.378 C1835.9,598.248 1837.708,596.892 1839.968,595.536 C1841.776,594.406 1844.036,592.146 1844.262,587.626 C1846.296,558.02 1844.262,534.064 1839.516,520.956 C1836.352,512.594 1830.024,512.142 1819.402,515.984 C1808.554,519.826 1804.26,524.346 1801.548,532.934 C1796.35,549.884 1794.768,576.778 1794.542,592.372 C1794.09,614.746 1794.542,646.612 1804.26,656.782 C1807.65,660.172 1812.396,659.494 1816.238,657.686 C1831.38,650.68 1847.2,633.052 1851.946,606.61 C1852.85,602.09 1850.816,601.412 1847.426,602.542 C1835.9,605.932 1830.702,607.062 1825.956,608.192 C1823.47,608.87 1821.21,610 1820.532,612.26 C1819.854,614.746 1819.176,616.554 1818.046,619.266 C1816.916,621.752 1817.142,623.786 1821.436,623.334 C1825.278,622.882 1828.216,622.43 1833.188,620.848 L1833.188,620.848 Z M1874.998,626.95 C1881.1,633.956 1886.298,640.962 1891.722,647.29 C1895.338,651.584 1900.536,655.426 1906.186,654.748 C1912.966,654.07 1911.61,650.906 1908.672,647.968 C1903.022,642.092 1889.914,629.21 1879.97,618.362 C1893.078,608.192 1910.48,593.502 1910.254,576.552 C1910.028,561.184 1896.242,536.324 1878.388,519.826 C1874.772,516.436 1870.252,515.532 1865.732,516.888 C1862.342,518.018 1858.952,520.278 1856.918,521.634 C1854.658,522.99 1853.302,525.25 1856.24,528.188 C1857.37,529.318 1858.274,530.222 1859.404,531.352 C1857.596,568.868 1858.048,621.752 1858.726,658.364 C1858.726,661.754 1860.986,662.884 1863.924,661.754 C1867.992,660.172 1870.026,659.494 1872.286,657.912 C1874.546,656.33 1875.676,654.974 1875.45,650.454 C1875.224,642.996 1874.998,635.086 1874.998,626.95 L1874.998,626.95 Z M1876.58,550.788 C1888.558,565.93 1894.208,577.908 1894.208,584.236 C1894.208,592.598 1883.812,603.672 1874.998,611.582 C1875.224,592.146 1875.676,571.128 1876.58,550.788 L1876.58,550.788 Z M1946.64,624.916 C1947.544,634.86 1948.674,644.804 1949.578,654.522 C1950.03,659.042 1952.29,659.268 1954.776,658.138 C1958.392,656.33 1960.652,654.974 1963.364,652.714 C1966.528,650.228 1967.206,647.29 1966.754,643.448 C1962.46,608.87 1957.714,555.082 1954.324,519.148 C1954.098,515.758 1951.612,514.176 1948.448,515.08 C1943.928,516.436 1940.99,517.792 1937.374,519.374 C1932.402,521.634 1932.628,525.024 1931.95,530.448 C1927.43,566.156 1917.486,631.696 1913.192,661.98 C1912.74,664.918 1913.192,668.986 1918.842,665.822 C1923.814,662.884 1925.848,656.104 1926.3,650.228 C1926.752,644.126 1927.43,637.346 1928.108,630.34 C1934.21,628.532 1940.312,626.724 1946.64,624.916 L1946.64,624.916 Z M1929.464,619.266 C1932.176,595.762 1936.244,569.32 1939.86,548.076 C1941.668,567.286 1943.476,590.79 1945.736,614.294 C1940.086,615.876 1934.662,617.684 1929.464,619.266 L1929.464,619.266 Z M1973.308,530.222 C1971.726,567.738 1972.178,621.3 1972.856,657.912 C1972.856,661.076 1974.89,661.98 1977.828,661.076 C1981.896,659.72 1984.156,658.816 1986.19,657.46 C1988.676,655.878 1989.58,654.748 1989.354,650.002 C1989.128,641.188 1989.128,631.922 1988.902,621.752 C2005.4,609.096 2024.158,593.954 2024.384,575.648 C2024.61,560.054 2010.146,535.42 1992.518,518.922 C1988.676,515.306 1984.382,514.402 1979.862,515.984 C1976.472,517.114 1973.082,519.148 1970.822,520.504 C1968.788,521.86 1967.206,524.12 1970.144,527.058 C1971.274,528.188 1972.178,529.092 1973.308,530.222 L1973.308,530.222 Z M1989.128,610.452 C1989.128,591.016 1989.806,569.998 1990.484,549.432 C2002.688,564.8 2008.338,577.004 2008.338,583.332 C2008.338,591.242 1998.168,602.542 1989.128,610.452 L1989.128,610.452 Z M2060.092,614.52 C2055.346,615.876 2050.6,617.458 2046.08,619.04 C2045.854,590.338 2046.306,558.472 2047.436,527.736 C2047.662,523.442 2044.95,522.99 2041.786,524.346 C2039.074,525.476 2036.814,526.832 2033.424,529.092 C2030.034,531.352 2029.582,534.064 2029.356,537.906 C2028,575.648 2029.582,621.074 2030.486,656.33 C2030.486,659.72 2032.746,660.624 2035.458,659.494 C2039.526,657.686 2041.56,656.33 2043.82,654.974 C2046.08,653.618 2046.984,652.036 2046.758,647.516 C2046.532,641.866 2046.532,636.216 2046.306,630.34 C2050.826,628.984 2055.346,627.628 2060.318,626.272 C2060.318,637.12 2060.544,647.742 2060.77,657.686 C2060.77,660.85 2062.804,661.98 2065.742,660.624 C2069.81,658.816 2071.618,657.46 2074.104,656.104 C2076.59,654.748 2077.494,653.392 2077.268,648.646 C2076.138,613.39 2077.268,558.472 2079.302,518.47 C2079.528,514.402 2077.946,513.046 2074.556,514.176 C2071.844,515.08 2068.454,516.436 2065.29,518.244 C2061.9,520.052 2061.448,522.764 2061.222,526.606 C2060.318,555.534 2059.866,586.044 2060.092,614.52 L2060.092,614.52 Z M2103.032,609.322 C2103.258,629.21 2102.806,649.098 2103.258,658.816 C2103.484,662.206 2105.744,663.11 2108.23,661.98 C2111.62,660.398 2114.558,659.042 2116.818,657.008 C2118.626,655.2 2120.208,653.844 2120.208,648.872 C2119.982,634.86 2118.852,622.43 2118.852,604.576 C2125.18,576.552 2131.734,551.918 2137.158,530.448 C2138.74,524.572 2139.418,517.792 2135.35,513.272 C2131.056,508.3 2129.474,511.916 2128.796,514.854 C2125.406,529.544 2119.304,559.376 2113.654,586.27 C2108.456,566.156 2103.71,546.72 2098.964,525.25 C2098.06,521.182 2095.348,521.182 2092.41,523.442 C2090.376,525.024 2088.342,527.284 2085.63,529.77 C2082.692,532.482 2083.144,535.872 2083.822,539.714 C2087.438,556.89 2095.8,584.236 2103.032,609.322 L2103.032,609.322 Z" id="THE-NEW-WEB-TYPOGRAP-Copy" sketch:type="MSShapeGroup"></path>
        </g>
    </g>
</svg>