<?xml version="1.0" encoding="UTF-8" standalone="no"?>
<svg width="843px" height="580px" viewBox="0 0 843 580" version="1.1" xmlns="http://www.w3.org/2000/svg" xmlns:xlink="http://www.w3.org/1999/xlink" xmlns:sketch="http://www.bohemiancoding.com/sketch/ns">
    <!-- Generator: Sketch 3.5.1 (25234) - http://www.bohemiancoding.com/sketch -->
    <title>Group</title>
    <desc>Created with Sketch.</desc>
    <defs></defs>
    <g id="Page-1" stroke="none" stroke-width="1" fill="none" fill-rule="evenodd" sketch:type="MSPage">
        <g id="Artboard-1" sketch:type="MSArtboardGroup" transform="translate(-13.000000, -10.000000)" fill="#359E91">
            <g id="Group" sketch:type="MSLayerGroup" transform="translate(13.000000, 10.000000)">
                <path d="M25.1727273,97.1818182 C16.5060173,97.1818182 10.20305,94.680328 6.26363636,89.6772727 C2.32422273,84.6742174 0.354545455,76.6576309 0.354545455,65.6272727 L0.354545455,1.45454545 L5.67272727,1.45454545 L5.67272727,65.6272727 C5.67272727,75.3182303 7.14998523,82.192404 10.1045455,86.25 C13.0591057,90.307596 18.0817827,92.3363636 25.1727273,92.3363636 C32.2636718,92.3363636 37.2863489,90.307596 40.2409091,86.25 C43.1954693,82.192404 44.6727273,75.3182303 44.6727273,65.6272727 L44.6727273,1.45454545 L49.9909091,1.45454545 L49.9909091,65.6272727 C49.9909091,76.6576309 48.0212318,84.6742174 44.0818182,89.6772727 C40.1424045,94.680328 33.8394373,97.1818182 25.1727273,97.1818182 L25.1727273,97.1818182 Z M70.7,96 L70.7,25.0909091 L76.0181818,25.0909091 L76.0181818,34.5454545 L76.9636364,34.5454545 C78.6181901,31.1575588 81.0408931,28.537888 84.2318182,26.6863636 C87.4227432,24.8348392 90.7121043,23.9090909 94.1,23.9090909 C99.300026,23.9090909 103.495439,25.7605875 106.686364,29.4636364 C109.877289,33.1666852 111.472727,38.1696655 111.472727,44.4727273 L111.472727,96 L106.154545,96 L106.154545,45.5363636 C106.154545,40.0999728 105.031829,35.9636505 102.786364,33.1272727 C100.540898,30.2908949 97.409111,28.8727273 93.3909091,28.8727273 C90.0818016,28.8727273 86.930318,29.6999917 83.9363636,31.3545455 C80.9424093,33.0090992 78.3030417,35.6878603 76.0181818,39.3909091 L76.0181818,96 L70.7,96 Z M137.045455,96 L137.045455,29.9363636 L126.409091,29.9363636 L126.409091,25.0909091 L137.045455,25.0909091 L137.045455,18.5909091 C137.045455,12.9181535 138.365138,8.54546991 141.004545,5.47272727 C143.643953,2.39998464 146.972707,0.863636364 150.990909,0.863636364 C152.487886,0.863636364 154.103022,1.11969441 155.836364,1.63181818 C157.569706,2.14394195 159.06666,2.75454191 160.327273,3.46363636 L159.145455,7.95454545 C157.96363,7.32423927 156.703037,6.79242641 155.363636,6.35909091 C154.024236,5.92575541 152.645462,5.70909091 151.227273,5.70909091 C148.548471,5.70909091 146.401523,6.71362632 144.786364,8.72272727 C143.171204,10.7318282 142.363636,13.9817957 142.363636,18.4727273 L142.363636,25.0909091 L160.090909,25.0909091 L160.090909,29.9363636 L142.363636,29.9363636 L142.363636,96 L137.045455,96 Z M190.245455,97.1818182 C183.706028,97.1818182 178.663654,95.0545667 175.118182,90.8 C171.57271,86.5454333 169.8,80.5182208 169.8,72.7181818 L169.8,48.8454545 C169.8,40.887839 171.592406,34.7424459 175.177273,30.4090909 C178.762139,26.0757359 183.784816,23.9090909 190.245455,23.9090909 C196.706093,23.9090909 201.709073,26.0757359 205.254545,30.4090909 C208.800018,34.7424459 210.572727,40.887839 210.572727,48.8454545 L210.572727,72.7181818 C210.572727,80.5182208 208.800018,86.5454333 205.254545,90.8 C201.709073,95.0545667 196.706093,97.1818182 190.245455,97.1818182 L190.245455,97.1818182 Z M190.245455,92.3363636 C195.287904,92.3363636 199.049988,90.7212283 201.531818,87.4909091 C204.013649,84.2605899 205.254545,79.3363967 205.254545,72.7181818 L205.254545,48.8454545 C205.254545,41.9908748 204.013649,36.9288042 201.531818,33.6590909 C199.049988,30.3893776 195.287904,28.7545455 190.245455,28.7545455 C185.124217,28.7545455 181.32274,30.3893776 178.840909,33.6590909 C176.359079,36.9288042 175.118182,41.9908748 175.118182,48.8454545 L175.118182,72.7181818 C175.118182,79.3363967 176.359079,84.2605899 178.840909,87.4909091 C181.32274,90.7212283 185.124217,92.3363636 190.245455,92.3363636 L190.245455,92.3363636 Z M230.281818,96 L230.281818,25.0909091 L235.6,25.0909091 L235.6,34.5454545 L236.545455,34.5454545 C238.278797,30.6848292 240.445442,27.9469778 243.045455,26.3318182 C245.645468,24.7166586 248.363622,23.9090909 251.2,23.9090909 C255.76972,23.9090909 259.393926,25.4454392 262.072727,28.5181818 C264.751529,31.5909245 266.090909,35.963608 266.090909,41.6363636 L266.090909,51.6818182 L260.772727,51.6818182 L260.772727,41.7545455 C260.772727,37.8151318 259.945463,34.6636482 258.290909,32.3 C256.636355,29.9363518 254.075775,28.7545455 250.609091,28.7545455 C247.772713,28.7545455 245.054558,29.6212035 242.454545,31.3545455 C239.854532,33.0878875 237.569707,35.9636163 235.6,39.9818182 L235.6,96 L230.281818,96 Z M302.6,97.0636364 C297.636339,97.0636364 293.756075,95.4288042 290.959091,92.1590909 C288.162107,88.8893776 286.763636,84.4182102 286.763636,78.7454545 L286.763636,29.9363636 L276.127273,29.9363636 L276.127273,25.0909091 L286.763636,25.0909091 L286.763636,1.45454545 L292.081818,1.45454545 L292.081818,25.0909091 L311.581818,25.0909091 L311.581818,29.9363636 L292.081818,29.9363636 L292.081818,77.5636364 C292.081818,82.4485093 293.007567,86.0924122 294.859091,88.4954545 C296.710615,90.8984969 299.48786,92.1 303.190909,92.1 C304.293945,92.1 305.554538,91.8833355 306.972727,91.45 C308.390916,91.0166645 309.809084,90.4060645 311.227273,89.6181818 L312.409091,94.3454545 C310.912114,95.2121255 309.336372,95.8818158 307.681818,96.3545455 C306.027264,96.8272751 304.333342,97.0636364 302.6,97.0636364 L302.6,97.0636364 Z M345.654545,97.1818182 C340.533308,97.1818182 336.396985,95.3303215 333.245455,91.6272727 C330.093924,87.9242239 328.518182,82.9212436 328.518182,76.6181818 L328.518182,25.0909091 L333.836364,25.0909091 L333.836364,75.5545455 C333.836364,80.9909363 334.978776,85.1272585 337.263636,87.9636364 C339.548496,90.8000142 342.69998,92.2181818 346.718182,92.2181818 C350.027289,92.2181818 353.159076,91.3909174 356.113636,89.7363636 C359.068197,88.0818099 361.687867,85.4030488 363.972727,81.7 L363.972727,25.0909091 L369.290909,25.0909091 L369.290909,96 L363.972727,96 L363.972727,86.5454545 L363.027273,86.5454545 C361.372719,89.9333503 358.930319,92.553021 355.7,94.4045455 C352.469681,96.2560699 349.121229,97.1818182 345.654545,97.1818182 L345.654545,97.1818182 Z M395,96 L395,25.0909091 L400.318182,25.0909091 L400.318182,34.5454545 L401.263636,34.5454545 C402.91819,31.1575588 405.340893,28.537888 408.531818,26.6863636 C411.722743,24.8348392 415.012104,23.9090909 418.4,23.9090909 C423.600026,23.9090909 427.795439,25.7605875 430.986364,29.4636364 C434.177289,33.1666852 435.772727,38.1696655 435.772727,44.4727273 L435.772727,96 L430.454545,96 L430.454545,45.5363636 C430.454545,40.0999728 429.331829,35.9636505 427.086364,33.1272727 C424.840898,30.2908949 421.709111,28.8727273 417.690909,28.8727273 C414.381802,28.8727273 411.230318,29.6999917 408.236364,31.3545455 C405.242409,33.0090992 402.603042,35.6878603 400.318182,39.3909091 L400.318182,96 L395,96 Z M473.272727,92.4545455 C476.660623,92.4545455 479.713623,91.5287971 482.431818,89.6772727 C485.150014,87.8257483 487.651504,85.166684 489.936364,81.7 L489.936364,63.2636364 L471.972727,63.2636364 C468.112102,63.2636364 465.059102,64.2090815 462.813636,66.1 C460.568171,67.9909185 459.445455,71.3787635 459.445455,76.2636364 C459.445455,81.4636624 460.568171,85.4621072 462.813636,88.2590909 C465.059102,91.0560746 468.545431,92.4545455 473.272727,92.4545455 L473.272727,92.4545455 Z M472.681818,97.1818182 C467.087851,97.1818182 462.656077,95.3697151 459.386364,91.7454545 C456.11665,88.121194 454.481818,83.1970008 454.481818,76.9727273 C454.481818,71.2999716 455.978773,66.8288042 458.972727,63.5590909 C461.966682,60.2893776 466.181791,58.6545455 471.618182,58.6545455 L489.936364,58.6545455 L489.936364,43.0545455 C489.936364,38.5636139 488.67577,35.0575884 486.154545,32.5363636 C483.633321,30.0151389 480.206082,28.7545455 475.872727,28.7545455 C471.381796,28.7545455 468.053041,29.7393841 465.886364,31.7090909 C463.719686,33.6787977 462.04546,37.2636104 460.863636,42.4636364 L456.136364,41.0454545 C457.475764,34.8999693 459.662106,30.507589 462.695455,27.8681818 C465.728803,25.2287747 470.08179,23.9090909 475.754545,23.9090909 C481.663666,23.9090909 486.390891,25.6227101 489.936364,29.05 C493.481836,32.4772899 495.254545,37.145425 495.254545,43.0545455 L495.254545,78.2727273 C495.254545,84.0242712 496.02272,87.8060515 497.559091,89.6181818 C499.095462,91.4303121 501.872707,91.8636411 505.890909,90.9181818 L505.890909,96 C501.951495,96.7878827 498.701528,96.334857 496.140909,94.6409091 C493.58029,92.9469612 492.142426,89.933355 491.827273,85.6 L491,85.6 C489.424235,89.066684 486.942441,91.8636257 483.554545,93.9909091 C480.16665,96.1181925 476.542444,97.1818182 472.681818,97.1818182 L472.681818,97.1818182 Z M543.8,97.0636364 C538.836339,97.0636364 534.956075,95.4288042 532.159091,92.1590909 C529.362107,88.8893776 527.963636,84.4182102 527.963636,78.7454545 L527.963636,29.9363636 L517.327273,29.9363636 L517.327273,25.0909091 L527.963636,25.0909091 L527.963636,1.45454545 L533.281818,1.45454545 L533.281818,25.0909091 L552.781818,25.0909091 L552.781818,29.9363636 L533.281818,29.9363636 L533.281818,77.5636364 C533.281818,82.4485093 534.207566,86.0924122 536.059091,88.4954545 C537.910615,90.8984969 540.68786,92.1 544.390909,92.1 C545.493945,92.1 546.754538,91.8833355 548.172727,91.45 C549.590916,91.0166645 551.009084,90.4060645 552.427273,89.6181818 L553.609091,94.3454545 C552.112114,95.2121255 550.536372,95.8818158 548.881818,96.3545455 C547.227264,96.8272751 545.533342,97.0636364 543.8,97.0636364 L543.8,97.0636364 Z M610.136364,82.0545455 C608.796963,87.1757832 606.610621,90.9772603 603.577273,93.4590909 C600.543924,95.9409215 596.269725,97.1818182 590.754545,97.1818182 C584.136331,97.1818182 578.975776,95.0939603 575.272727,90.9181818 C571.569678,86.7424034 569.718182,80.6364038 569.718182,72.6 L569.718182,48.8454545 C569.718182,40.5726859 571.589375,34.3485057 575.331818,30.1727273 C579.074261,25.9969488 584.018151,23.9090909 590.163636,23.9090909 C596.309122,23.9090909 601.233315,26.0363424 604.936364,30.2909091 C608.639412,34.5454758 610.490909,41.0060173 610.490909,49.6727273 L610.490909,61.1363636 L575.036364,61.1363636 L575.036364,72.7181818 C575.036364,79.5727615 576.356047,84.556045 578.995455,87.6681818 C581.634862,90.7803186 585.554519,92.3363636 590.754545,92.3363636 C595.009112,92.3363636 598.140899,91.4894024 600.15,89.7954545 C602.159101,88.1015067 603.793933,85.0091134 605.054545,80.5181818 L610.136364,82.0545455 Z M575.036364,48.8454545 L575.036364,56.2909091 L605.172727,56.2909091 L605.172727,49.9090909 C605.172727,42.5817815 603.912134,37.2242594 601.390909,33.8363636 C598.869684,30.4484679 595.127298,28.7545455 590.163636,28.7545455 C585.199975,28.7545455 581.437892,30.3893776 578.877273,33.6590909 C576.316654,36.9288042 575.036364,41.9908748 575.036364,48.8454545 L575.036364,48.8454545 Z M646.645455,96.5909091 C641.681793,96.5909091 637.762136,94.6409286 634.886364,90.7409091 C632.010592,86.8408896 630.572727,81.34549 630.572727,74.2545455 L630.572727,1.45454545 L636.009091,1.45454545 L636.009091,74.3727273 C636.009091,79.8091181 636.954536,84.0439242 638.845455,87.0772727 C640.736373,90.1106212 643.415134,91.6272727 646.881818,91.6272727 C647.827277,91.6272727 648.890903,91.4696985 650.072727,91.1545455 C651.254551,90.8393924 652.278784,90.4454569 653.145455,89.9727273 L654.327273,94.4636364 C653.303025,95.0151543 652.121219,95.5075736 650.781818,95.9409091 C649.442418,96.3742446 648.063643,96.5909091 646.645455,96.5909091 L646.645455,96.5909091 Z M669.309091,120.345455 C668.284843,120.345455 667.240914,120.266667 666.177273,120.109091 C665.113631,119.951514 663.912128,119.715153 662.572727,119.4 L663.281818,114.672727 C664.542431,114.98788 665.684843,115.224242 666.709091,115.381818 C667.733338,115.539395 668.915145,115.618182 670.254545,115.618182 C673.169712,115.618182 675.493931,114.71213 677.227273,112.9 C678.960615,111.08787 680.457569,107.621238 681.718182,102.5 L683.372727,96 L681.954545,96 L662.218182,25.0909091 L667.890909,25.0909091 L685.263636,89.5 L702.281818,25.0909091 L707.6,25.0909091 L686.209091,103.681818 C684.554537,109.748515 682.348499,114.042412 679.590909,116.563636 C676.83332,119.084861 673.406081,120.345455 669.309091,120.345455 L669.309091,120.345455 Z" id="Unfortunately" sketch:type="MSShapeGroup"></path>
                <path d="M28.2454545,250.181818 C18.8696501,250.181818 11.9560829,247.581844 7.50454545,242.381818 C3.05300805,237.181792 0.827272727,228.987935 0.827272727,217.8 L0.827272727,154.454545 L6.38181818,154.454545 L6.38181818,217.8 C6.38181818,227.648534 8.05604386,234.680282 11.4045455,238.895455 C14.753047,243.110627 20.3666273,245.218182 28.2454545,245.218182 C36.1242818,245.218182 41.7575588,243.110627 45.1454545,238.895455 C48.5333503,234.680282 50.2272727,227.648534 50.2272727,217.8 L50.2272727,154.454545 L55.6636364,154.454545 L55.6636364,217.8 C55.6636364,228.987935 53.437901,237.181792 48.9863636,242.381818 C44.5348262,247.581844 37.621259,250.181818 28.2454545,250.181818 L28.2454545,250.181818 Z M77.3181818,249 L77.3181818,178.090909 L82.8727273,178.090909 L82.8727273,188.372727 L83.8181818,188.372727 C85.7091004,184.748467 88.4469518,181.931828 92.0318182,179.922727 C95.6166846,177.913626 99.3787682,176.909091 103.318182,176.909091 C109.069726,176.909091 113.678771,178.839375 117.145455,182.7 C120.612139,186.560625 122.345455,191.760573 122.345455,198.3 L122.345455,249 L116.790909,249 L116.790909,199.363636 C116.790909,193.690881 115.550012,189.377287 113.068182,186.422727 C110.586351,183.468167 107.100022,181.990909 102.609091,181.990909 C98.9060421,181.990909 95.360623,182.916657 91.9727273,184.768182 C88.5848315,186.619706 85.5515285,189.475738 82.8727273,193.336364 L82.8727273,249 L77.3181818,249 Z M148.927273,249 L148.927273,183.054545 L136.990909,183.054545 L136.990909,178.090909 L148.927273,178.090909 L148.927273,172.181818 C148.927273,166.272698 150.384834,161.703046 153.3,158.472727 C156.215166,155.242408 159.839372,153.627273 164.172727,153.627273 C165.906069,153.627273 167.678779,153.883331 169.490909,154.395455 C171.303039,154.907578 172.878781,155.518178 174.218182,156.227273 L173.036364,160.954545 C171.775751,160.245451 170.396977,159.693941 168.9,159.3 C167.403023,158.906059 165.866675,158.709091 164.290909,158.709091 C161.296955,158.709091 158.893948,159.75302 157.081818,161.840909 C155.269688,163.928798 154.363636,167.33634 154.363636,172.063636 L154.363636,178.090909 L174.1,178.090909 L174.1,183.054545 L154.363636,183.054545 L154.363636,249 L148.927273,249 Z M207.327273,250.181818 C200.078752,250.181818 194.504565,247.995476 190.604545,243.622727 C186.704526,239.249978 184.754545,233.006101 184.754545,224.890909 L184.754545,202.672727 C184.754545,194.399959 186.724223,188.037901 190.663636,183.586364 C194.60305,179.134826 200.15754,176.909091 207.327273,176.909091 C214.497006,176.909091 220.031799,179.134826 223.931818,183.586364 C227.831838,188.037901 229.781818,194.399959 229.781818,202.672727 L229.781818,224.890909 C229.781818,233.006101 227.831838,239.249978 223.931818,243.622727 C220.031799,247.995476 214.497006,250.181818 207.327273,250.181818 L207.327273,250.181818 Z M207.327273,245.218182 C213.000028,245.218182 217.234835,243.563653 220.031818,240.254545 C222.828802,236.945438 224.227273,231.824277 224.227273,224.890909 L224.227273,202.672727 C224.227273,195.581783 222.828802,190.342441 220.031818,186.954545 C217.234835,183.56665 213.000028,181.872727 207.327273,181.872727 C201.575729,181.872727 197.301529,183.56665 194.504545,186.954545 C191.707562,190.342441 190.309091,195.581783 190.309091,202.672727 L190.309091,224.890909 C190.309091,231.824277 191.707562,236.945438 194.504545,240.254545 C197.301529,243.563653 201.575729,245.218182 207.327273,245.218182 L207.327273,245.218182 Z M248.436364,249 L248.436364,178.090909 L253.990909,178.090909 L253.990909,188.372727 L254.936364,188.372727 C257.142435,184.196949 259.703016,181.242433 262.618182,179.509091 C265.533348,177.775749 268.566651,176.909091 271.718182,176.909091 C276.760631,176.909091 280.719683,178.524226 283.595455,181.754545 C286.471227,184.984865 287.909091,189.554516 287.909091,195.463636 L287.909091,204.681818 L282.472727,204.681818 L282.472727,195.581818 C282.472727,191.484828 281.586373,188.17577 279.813636,185.654545 C278.0409,183.133321 275.224262,181.872727 271.363636,181.872727 C268.054529,181.872727 264.942439,182.818172 262.027273,184.709091 C259.112107,186.600009 256.433346,189.672706 253.990909,193.927273 L253.990909,249 L248.436364,249 Z M329.490909,250.063636 C324.054518,250.063636 319.800015,248.290927 316.727273,244.745455 C313.65453,241.199982 312.118182,236.315183 312.118182,230.090909 L312.118182,183.054545 L300.181818,183.054545 L300.181818,178.090909 L312.118182,178.090909 L312.118182,154.454545 L317.554545,154.454545 L317.554545,178.090909 L339.3,178.090909 L339.3,183.054545 L317.554545,183.054545 L317.554545,228.909091 C317.554545,234.345482 318.598474,238.38332 320.686364,241.022727 C322.774253,243.662134 325.945433,244.981818 330.2,244.981818 C331.460612,244.981818 332.859083,244.765154 334.395455,244.331818 C335.931826,243.898483 337.448477,243.287883 338.945455,242.5 L340.245455,247.345455 C338.512113,248.212126 336.739403,248.881816 334.927273,249.354545 C333.115142,249.827275 331.303039,250.063636 329.490909,250.063636 L329.490909,250.063636 Z M374.854545,250.181818 C369.18179,250.181818 364.612139,248.212141 361.145455,244.272727 C357.678771,240.333314 355.945455,235.015185 355.945455,228.318182 L355.945455,178.090909 L361.5,178.090909 L361.5,226.9 C361.5,232.80912 362.740897,237.319681 365.222727,240.431818 C367.704558,243.543955 371.190887,245.1 375.681818,245.1 C379.306079,245.1 382.792407,244.193948 386.140909,242.381818 C389.489411,240.569688 392.581804,237.693959 395.418182,233.754545 L395.418182,178.090909 L400.972727,178.090909 L400.972727,249 L395.418182,249 L395.418182,238.718182 L394.354545,238.718182 C392.227262,242.421231 389.450017,245.257566 386.022727,247.227273 C382.595437,249.19698 378.872747,250.181818 374.854545,250.181818 L374.854545,250.181818 Z M422.627273,249 L422.627273,178.090909 L428.181818,178.090909 L428.181818,188.372727 L429.127273,188.372727 C431.018191,184.748467 433.756043,181.931828 437.340909,179.922727 C440.925776,177.913626 444.687859,176.909091 448.627273,176.909091 C454.378817,176.909091 458.987861,178.839375 462.454545,182.7 C465.921229,186.560625 467.654545,191.760573 467.654545,198.3 L467.654545,249 L462.1,249 L462.1,199.363636 C462.1,193.690881 460.859103,189.377287 458.377273,186.422727 C455.895442,183.468167 452.409113,181.990909 447.918182,181.990909 C444.215133,181.990909 440.669714,182.916657 437.281818,184.768182 C433.893922,186.619706 430.860619,189.475738 428.181818,193.336364 L428.181818,249 L422.627273,249 Z M505.636364,245.218182 C509.654566,245.218182 513.219681,244.292434 516.331818,242.440909 C519.443955,240.589385 522.260593,237.851533 524.781818,234.227273 L524.781818,216.381818 L503.863636,216.381818 C499.845434,216.381818 496.595467,217.327263 494.113636,219.218182 C491.631806,221.1091 490.390909,224.496945 490.390909,229.381818 C490.390909,234.503056 491.631806,238.422714 494.113636,241.140909 C496.595467,243.859105 500.436338,245.218182 505.636364,245.218182 L505.636364,245.218182 Z M504.927273,250.181818 C498.860576,250.181818 494.07426,248.369715 490.568182,244.745455 C487.062104,241.121194 485.309091,236.157607 485.309091,229.854545 C485.309091,224.18179 486.943923,219.730319 490.213636,216.5 C493.48335,213.269681 497.954517,211.654545 503.627273,211.654545 L524.781818,211.654545 L524.781818,196.881818 C524.781818,192.390887 523.403044,188.76668 520.645455,186.009091 C517.887865,183.251501 513.987904,181.872727 508.945455,181.872727 C503.745429,181.872727 499.943951,182.857566 497.540909,184.827273 C495.137867,186.79698 493.306067,190.381792 492.045455,195.581818 L487.081818,194.163636 C488.657584,188.018151 491.11968,183.606074 494.468182,180.927273 C497.816683,178.248471 502.563606,176.909091 508.709091,176.909091 C515.327306,176.909091 520.586344,178.6818 524.486364,182.227273 C528.386383,185.772745 530.336364,190.657545 530.336364,196.881818 L530.336364,230.918182 C530.336364,236.827302 531.183325,240.707567 532.877273,242.559091 C534.571221,244.410615 537.663614,244.863641 542.154545,243.918182 L542.154545,249.118182 C537.663614,249.906065 534.078801,249.433342 531.4,247.7 C528.721199,245.966658 527.18485,242.893961 526.790909,238.481818 L525.845455,238.481818 C523.875748,242.106079 521.000019,244.962111 517.218182,247.05 C513.436345,249.137889 509.339416,250.181818 504.927273,250.181818 L504.927273,250.181818 Z M578.018182,250.063636 C572.581791,250.063636 568.327288,248.290927 565.254545,244.745455 C562.181803,241.199982 560.645455,236.315183 560.645455,230.090909 L560.645455,183.054545 L548.709091,183.054545 L548.709091,178.090909 L560.645455,178.090909 L560.645455,154.454545 L566.081818,154.454545 L566.081818,178.090909 L587.827273,178.090909 L587.827273,183.054545 L566.081818,183.054545 L566.081818,228.909091 C566.081818,234.345482 567.125747,238.38332 569.213636,241.022727 C571.301526,243.662134 574.472706,244.981818 578.727273,244.981818 C579.987885,244.981818 581.386356,244.765154 582.922727,244.331818 C584.459099,243.898483 585.97575,243.287883 587.472727,242.5 L588.772727,247.345455 C587.039385,248.212126 585.266676,248.881816 583.454545,249.354545 C581.642415,249.827275 579.830312,250.063636 578.018182,250.063636 L578.018182,250.063636 Z M646.027273,235.054545 C644.451507,240.254571 641.989411,244.075745 638.640909,246.518182 C635.292407,248.960618 630.545485,250.181818 624.4,250.181818 C617.151479,250.181818 611.518202,248.03487 607.5,243.740909 C603.481798,239.446948 601.472727,233.124284 601.472727,224.772727 L601.472727,202.672727 C601.472727,194.084806 603.560585,187.643961 607.736364,183.35 C611.912142,179.056039 617.348451,176.909091 624.045455,176.909091 C630.900034,176.909091 636.35604,179.095433 640.413636,183.468182 C644.471232,187.840931 646.5,194.518137 646.5,203.5 L646.5,214.136364 L607.027273,214.136364 L607.027273,224.890909 C607.027273,231.981854 608.465137,237.142408 611.340909,240.372727 C614.216681,243.603046 618.569668,245.218182 624.4,245.218182 C629.363661,245.218182 632.968171,244.351524 635.213636,242.618182 C637.459102,240.88484 639.290902,237.812143 640.709091,233.4 L646.027273,235.054545 Z M607.027273,202.672727 L607.027273,209.290909 L640.945455,209.290909 L640.945455,203.736364 C640.945455,196.172689 639.527287,190.657593 636.690909,187.190909 C633.854531,183.724225 629.639422,181.990909 624.045455,181.990909 C618.372699,181.990909 614.118196,183.665135 611.281818,187.013636 C608.44544,190.362138 607.027273,195.581783 607.027273,202.672727 L607.027273,202.672727 Z M685.490909,249.590909 C680.054518,249.590909 675.800015,247.483354 672.727273,243.268182 C669.65453,239.053009 668.118182,233.163674 668.118182,225.6 L668.118182,154.454545 L673.672727,154.454545 L673.672727,225.718182 C673.672727,231.627302 674.736353,236.21665 676.863636,239.486364 C678.99092,242.756077 681.984829,244.390909 685.845455,244.390909 C686.869702,244.390909 688.031812,244.233335 689.331818,243.918182 C690.631825,243.603029 691.793934,243.1697 692.818182,242.618182 L694,247.345455 C692.818176,247.896972 691.498492,248.409089 690.040909,248.881818 C688.583326,249.354548 687.066675,249.590909 685.490909,249.590909 L685.490909,249.590909 Z M706.336364,273.345455 C705.312116,273.345455 704.209097,273.266667 703.027273,273.109091 C701.845449,272.951514 700.506068,272.715153 699.009091,272.4 L699.718182,267.554545 C701.057582,267.869699 702.278782,268.10606 703.381818,268.263636 C704.484854,268.421213 705.784841,268.5 707.281818,268.5 C710.590926,268.5 713.210596,267.534858 715.140909,265.604545 C717.071222,263.674233 718.863628,260.03033 720.518182,254.672727 L722.172727,249 L720.754545,249 L698.654545,178.090909 L704.445455,178.090909 L724.063636,242.736364 L743.209091,178.090909 L748.645455,178.090909 L725.127273,255.854545 C723.236354,262.236396 720.793954,266.746957 717.8,269.386364 C714.806046,272.025771 710.984872,273.345455 706.336364,273.345455 L706.336364,273.345455 Z" id="Unfortunately" opacity="0.8" sketch:type="MSShapeGroup"></path>
                <path d="M31.3181818,403.181818 C21.1544946,403.181818 13.6106307,400.463664 8.68636364,395.027273 C3.76209659,389.590882 1.3,381.278844 1.3,370.090909 L1.3,307.454545 L6.97272727,307.454545 L6.97272727,370.090909 C6.97272727,380.09702 8.86361745,387.246948 12.6454545,391.540909 C16.4272916,395.83487 22.6514718,397.981818 31.3181818,397.981818 C39.9848918,397.981818 46.1893752,395.83487 49.9318182,391.540909 C53.6742611,387.246948 55.5454545,380.09702 55.5454545,370.090909 L55.5454545,307.454545 L61.2181818,307.454545 L61.2181818,370.090909 C61.2181818,381.278844 58.7560852,389.590882 53.8318182,395.027273 C48.9075511,400.463664 41.4030807,403.181818 31.3181818,403.181818 L31.3181818,403.181818 Z M78.8181818,402 L78.8181818,331.090909 L84.4909091,331.090909 L84.4909091,342.081818 L85.6727273,342.081818 C87.6424341,338.299981 90.59695,335.325768 94.5363636,333.159091 C98.4757773,330.992413 102.690887,329.909091 107.181818,329.909091 C113.48488,329.909091 118.507557,331.898465 122.25,335.877273 C125.992443,339.85608 127.863636,345.272693 127.863636,352.127273 L127.863636,402 L122.190909,402 L122.190909,353.309091 C122.190909,347.39997 120.851529,342.909106 118.172727,339.836364 C115.493926,336.763621 111.672752,335.227273 106.709091,335.227273 C102.612101,335.227273 98.692443,336.231808 94.95,338.240909 C91.207557,340.25001 87.7212283,343.263616 84.4909091,347.281818 L84.4909091,402 L78.8181818,402 Z M152.336364,402 L152.336364,336.290909 L139.336364,336.290909 L139.336364,331.090909 L152.336364,331.090909 L152.336364,325.772727 C152.336364,319.627242 153.931802,314.88032 157.122727,311.531818 C160.313652,308.183317 164.272704,306.509091 169,306.509091 C170.81213,306.509091 172.683324,306.745452 174.613636,307.218182 C176.543949,307.690911 178.257568,308.281815 179.754545,308.990909 L178.572727,313.836364 C177.154538,313.206057 175.637887,312.674245 174.022727,312.240909 C172.407568,311.807574 170.733342,311.590909 169,311.590909 C165.612104,311.590909 162.933343,312.693928 160.963636,314.9 C158.99393,317.106072 158.009091,320.690884 158.009091,325.654545 L158.009091,331.090909 L179.754545,331.090909 L179.754545,336.290909 L158.009091,336.290909 L158.009091,402 L152.336364,402 Z M214.936364,403.181818 C206.978748,403.181818 200.892445,400.936386 196.677273,396.445455 C192.4621,391.954523 190.354545,385.533375 190.354545,377.181818 L190.354545,356.381818 C190.354545,347.872685 192.481797,341.333356 196.736364,336.763636 C200.99093,332.193917 207.09693,329.909091 215.054545,329.909091 C222.854584,329.909091 228.8621,332.193917 233.077273,336.763636 C237.292445,341.333356 239.4,347.872685 239.4,356.381818 L239.4,377.181818 C239.4,385.533375 237.292445,391.954523 233.077273,396.445455 C228.8621,400.936386 222.815191,403.181818 214.936364,403.181818 L214.936364,403.181818 Z M214.936364,397.981818 C221.318214,397.981818 226.045439,396.287896 229.118182,392.9 C232.190924,389.512104 233.727273,384.272763 233.727273,377.181818 L233.727273,356.381818 C233.727273,349.133297 232.190924,343.775775 229.118182,340.309091 C226.045439,336.842407 221.318214,335.109091 214.936364,335.109091 C208.554514,335.109091 203.807591,336.842407 200.695455,340.309091 C197.583318,343.775775 196.027273,349.133297 196.027273,356.381818 L196.027273,377.181818 C196.027273,384.272763 197.583318,389.512104 200.695455,392.9 C203.807591,396.287896 208.554514,397.981818 214.936364,397.981818 L214.936364,397.981818 Z M255,402 L255,331.090909 L260.672727,331.090909 L260.672727,342.081818 L261.854545,342.081818 C264.454558,337.748463 267.349984,334.636373 270.540909,332.745455 C273.731834,330.854536 277.099982,329.909091 280.645455,329.909091 C286.081845,329.909091 290.356045,331.583317 293.468182,334.931818 C296.580319,338.28032 298.136364,343.027242 298.136364,349.172727 L298.136364,357.681818 L292.345455,357.681818 L292.345455,349.409091 C292.345455,345.075736 291.380313,341.609104 289.45,339.009091 C287.519687,336.409078 284.545475,335.109091 280.527273,335.109091 C276.666647,335.109091 273.121228,336.133323 269.890909,338.181818 C266.66059,340.230313 263.587893,343.460584 260.672727,347.872727 L260.672727,402 L255,402 Z M339.790909,403.063636 C333.881789,403.063636 329.23335,401.153049 325.845455,397.331818 C322.457559,393.510587 320.763636,388.251549 320.763636,381.554545 L320.763636,336.290909 L307.763636,336.290909 L307.763636,331.090909 L320.763636,331.090909 L320.763636,307.454545 L326.436364,307.454545 L326.436364,331.090909 L350.309091,331.090909 L350.309091,336.290909 L326.436364,336.290909 L326.436364,380.372727 C326.436364,386.281848 327.578776,390.654531 329.863636,393.490909 C332.148496,396.327287 335.654522,397.745455 340.381818,397.745455 C341.721219,397.745455 343.23787,397.52879 344.931818,397.095455 C346.625766,396.662119 348.339385,396.051519 350.072727,395.263636 L351.254545,400.345455 C349.442415,401.212126 347.531828,401.881816 345.522727,402.354545 C343.513626,402.827275 341.603039,403.063636 339.790909,403.063636 L339.790909,403.063636 Z M391.463636,403.181818 C385.239363,403.181818 380.236383,401.09396 376.454545,396.918182 C372.672708,392.742403 370.781818,387.14852 370.781818,380.136364 L370.781818,331.090909 L376.454545,331.090909 L376.454545,378.245455 C376.454545,384.706093 377.793926,389.610589 380.472727,392.959091 C383.151529,396.307592 387.012096,397.981818 392.054545,397.981818 C395.915171,397.981818 399.716648,397.016676 403.459091,395.086364 C407.201534,393.156051 410.76665,390.063658 414.154545,385.809091 L414.154545,331.090909 L419.827273,331.090909 L419.827273,402 L414.154545,402 L414.154545,391.009091 L413.090909,391.009091 C410.490896,395.027293 407.359109,398.060596 403.695455,400.109091 C400.0318,402.157586 395.954568,403.181818 391.463636,403.181818 L391.463636,403.181818 Z M442.427273,402 L442.427273,331.090909 L448.1,331.090909 L448.1,342.081818 L449.281818,342.081818 C451.251525,338.299981 454.206041,335.325768 458.145455,333.159091 C462.084868,330.992413 466.299978,329.909091 470.790909,329.909091 C477.093971,329.909091 482.116648,331.898465 485.859091,335.877273 C489.601534,339.85608 491.472727,345.272693 491.472727,352.127273 L491.472727,402 L485.8,402 L485.8,353.309091 C485.8,347.39997 484.460619,342.909106 481.781818,339.836364 C479.103017,336.763621 475.281843,335.227273 470.318182,335.227273 C466.221192,335.227273 462.301534,336.231808 458.559091,338.240909 C454.816648,340.25001 451.330319,343.263616 448.1,347.281818 L448.1,402 L442.427273,402 Z M531.936364,398.1 C536.506083,398.1 540.563619,397.154555 544.109091,395.263636 C547.654563,393.372718 550.766653,390.496989 553.445455,386.636364 L553.445455,369.381818 L529.690909,369.381818 C525.436342,369.381818 521.96971,370.366657 519.290909,372.336364 C516.612108,374.30607 515.272727,377.693915 515.272727,382.5 C515.272727,387.463661 516.612108,391.304532 519.290909,394.022727 C521.96971,396.740923 526.18482,398.1 531.936364,398.1 L531.936364,398.1 Z M531.109091,403.181818 C524.569664,403.181818 519.428807,401.369715 515.686364,397.745455 C511.943921,394.121194 510.072727,389.157607 510.072727,382.854545 C510.072727,377.18179 511.82574,372.710622 515.331818,369.440909 C518.837896,366.171196 523.584819,364.536364 529.572727,364.536364 L553.445455,364.536364 L553.445455,350.709091 C553.445455,346.218159 551.968197,342.495469 549.013636,339.540909 C546.059076,336.586349 541.666696,335.109091 535.836364,335.109091 C530.08482,335.109091 525.889407,336.074233 523.25,338.004545 C520.610593,339.934858 518.581825,343.499974 517.163636,348.7 L512.081818,347.163636 C513.81516,341.018151 516.493921,336.606074 520.118182,333.927273 C523.742442,331.248471 528.902997,329.909091 535.6,329.909091 C542.848521,329.909091 548.580282,331.740891 552.795455,335.404545 C557.010627,339.0682 559.118182,344.130271 559.118182,350.590909 L559.118182,383.445455 C559.118182,389.59094 560.04393,393.589385 561.895455,395.440909 C563.746979,397.292434 567.154521,397.745459 572.118182,396.8 L572.118182,402.236364 C567.233309,403.024246 563.372741,402.551524 560.536364,400.818182 C557.699986,399.08484 556.045457,395.97275 555.572727,391.481818 L554.509091,391.481818 C552.066654,395.106079 548.79699,397.962111 544.7,400.05 C540.60301,402.137889 536.072752,403.181818 531.109091,403.181818 L531.109091,403.181818 Z M607.936364,403.063636 C602.027243,403.063636 597.378805,401.153049 593.990909,397.331818 C590.603013,393.510587 588.909091,388.251549 588.909091,381.554545 L588.909091,336.290909 L575.909091,336.290909 L575.909091,331.090909 L588.909091,331.090909 L588.909091,307.454545 L594.581818,307.454545 L594.581818,331.090909 L618.454545,331.090909 L618.454545,336.290909 L594.581818,336.290909 L594.581818,380.372727 C594.581818,386.281848 595.724231,390.654531 598.009091,393.490909 C600.293951,396.327287 603.799976,397.745455 608.527273,397.745455 C609.866673,397.745455 611.383325,397.52879 613.077273,397.095455 C614.771221,396.662119 616.48484,396.051519 618.218182,395.263636 L619.4,400.345455 C617.58787,401.212126 615.677283,401.881816 613.668182,402.354545 C611.659081,402.827275 609.748494,403.063636 607.936364,403.063636 L607.936364,403.063636 Z M680.381818,387.936364 C678.648476,393.215178 675.950018,397.075745 672.286364,399.518182 C668.622709,401.960618 663.442458,403.181818 656.745455,403.181818 C648.945416,403.181818 642.859113,400.97578 638.486364,396.563636 C634.113614,392.151493 631.927273,385.651558 631.927273,377.063636 L631.927273,356.381818 C631.927273,347.557532 634.212098,340.939416 638.781818,336.527273 C643.351538,332.115129 649.299963,329.909091 656.627273,329.909091 C663.954582,329.909091 669.843917,332.154523 674.295455,336.645455 C678.746992,341.136386 680.972727,347.990863 680.972727,357.209091 L680.972727,367.136364 L637.6,367.136364 L637.6,377.181818 C637.6,384.509128 639.195439,389.807559 642.386364,393.077273 C645.577289,396.346986 650.363604,397.981818 656.745455,397.981818 C662.339422,397.981818 666.37726,397.095463 668.859091,395.322727 C671.340921,393.549991 673.330296,390.496991 674.827273,386.163636 L680.381818,387.936364 Z M637.6,356.381818 L637.6,362.172727 L675.3,362.172727 L675.3,357.445455 C675.3,349.645416 673.724258,343.972745 670.572727,340.427273 C667.421196,336.8818 662.733364,335.109091 656.509091,335.109091 C650.284817,335.109091 645.577289,336.842407 642.386364,340.309091 C639.195439,343.775775 637.6,349.133297 637.6,356.381818 L637.6,356.381818 Z M719.8,402.590909 C713.89088,402.590909 709.281835,400.32578 705.972727,395.795455 C702.66362,391.265129 701.009091,385.021252 701.009091,377.063636 L701.009091,307.454545 L706.681818,307.454545 L706.681818,377.181818 C706.681818,383.48488 707.863625,388.389376 710.227273,391.895455 C712.590921,395.401533 715.899979,397.154545 720.154545,397.154545 C721.257581,397.154545 722.537871,396.977275 723.995455,396.622727 C725.453038,396.26818 726.693934,395.815154 727.718182,395.263636 L729.136364,400.109091 C727.875751,400.818185 726.437887,401.409089 724.822727,401.881818 C723.207568,402.354548 721.533342,402.590909 719.8,402.590909 L719.8,402.590909 Z M745.590909,426.345455 C744.487873,426.345455 743.325764,426.286364 742.104545,426.168182 C740.883327,426.049999 739.445463,425.833335 737.790909,425.518182 L738.618182,420.318182 C740.036371,420.633335 741.316661,420.869696 742.459091,421.027273 C743.601521,421.184849 745.039385,421.263636 746.772727,421.263636 C750.396988,421.263636 753.292413,420.259101 755.459091,418.25 C757.625768,416.240899 759.69393,412.400028 761.663636,406.727273 L763.2,402 L761.781818,402 L737.318182,331.090909 L743.345455,331.090909 L765.209091,395.854545 L786.245455,331.090909 L792.036364,331.090909 L766.390909,408.145455 C764.184837,414.763669 761.466683,419.451501 758.236364,422.209091 C755.006044,424.96668 750.790935,426.345455 745.590909,426.345455 L745.590909,426.345455 Z" id="Unfortunately" opacity="0.6" sketch:type="MSShapeGroup"></path>
                <path d="M34.2727273,556.181818 C23.4787339,556.181818 15.3636635,553.345483 9.92727273,547.672727 C4.49088191,541.999972 1.77272727,533.530359 1.77272727,522.263636 L1.77272727,460.454545 L7.68181818,460.454545 L7.68181818,522.263636 C7.68181818,532.427324 9.74997932,539.734826 13.8863636,544.186364 C18.022748,548.637901 24.8181345,550.863636 34.2727273,550.863636 C43.72732,550.863636 50.5227066,548.637901 54.6590909,544.186364 C58.7954752,539.734826 60.8636364,532.427324 60.8636364,522.263636 L60.8636364,460.454545 L66.7727273,460.454545 L66.7727273,522.263636 C66.7727273,533.530359 64.0545726,541.999972 58.6181818,547.672727 C53.181791,553.345483 45.0667206,556.181818 34.2727273,556.181818 L34.2727273,556.181818 Z M82.3181818,555 L82.3181818,484.090909 L88.2272727,484.090909 L88.2272727,495.909091 L89.4090909,495.909091 C91.6151625,491.890889 94.8848268,488.719709 99.2181818,486.395455 C103.551537,484.071201 108.199975,482.909091 113.163636,482.909091 C120.018216,482.909091 125.454525,484.977252 129.472727,489.113636 C133.490929,493.250021 135.5,498.863601 135.5,505.954545 L135.5,555 L129.590909,555 L129.590909,507.136364 C129.590909,500.990878 128.133348,496.322743 125.218182,493.131818 C122.303016,489.940893 118.1273,488.345455 112.690909,488.345455 C108.199978,488.345455 103.906081,489.428777 99.8090909,491.595455 C95.7121007,493.762132 91.8515333,496.972706 88.2272727,501.227273 L88.2272727,555 L82.3181818,555 Z M161.863636,555 L161.863636,489.409091 L147.681818,489.409091 L147.681818,484.090909 L161.863636,484.090909 L161.863636,479.363636 C161.863636,472.981786 163.577256,468.037896 167.004545,464.531818 C170.431835,461.02574 174.706035,459.272727 179.827273,459.272727 C181.79698,459.272727 183.80605,459.509089 185.854545,459.981818 C187.903041,460.454548 189.715144,461.045451 191.290909,461.754545 L190.109091,466.836364 C188.612114,466.127269 186.957585,465.57576 185.145455,465.181818 C183.333324,464.787877 181.521221,464.590909 179.709091,464.590909 C176.08483,464.590909 173.189405,465.733322 171.022727,468.018182 C168.85605,470.303042 167.772727,474.045429 167.772727,479.245455 L167.772727,484.090909 L191.409091,484.090909 L191.409091,489.409091 L167.772727,489.409091 L167.772727,555 L161.863636,555 Z M228.545455,556.181818 C219.957533,556.181818 213.378811,553.877296 208.809091,549.268182 C204.239371,544.659068 201.954545,538.021255 201.954545,529.354545 L201.954545,510.209091 C201.954545,501.384804 204.259068,494.628811 208.868182,489.940909 C213.477296,485.253007 220.075715,482.909091 228.663636,482.909091 C237.17277,482.909091 243.712098,485.253007 248.281818,489.940909 C252.851538,494.628811 255.136364,501.384804 255.136364,510.209091 L255.136364,529.354545 C255.136364,538.021255 252.851538,544.659068 248.281818,549.268182 C243.712098,553.877296 237.133376,556.181818 228.545455,556.181818 L228.545455,556.181818 Z M228.545455,550.863636 C235.636399,550.863636 240.856044,549.110624 244.204545,545.604545 C247.553047,542.098467 249.227273,536.681855 249.227273,529.354545 L249.227273,510.209091 C249.227273,502.724205 247.553047,497.189412 244.204545,493.604545 C240.856044,490.019679 235.636399,488.227273 228.545455,488.227273 C221.45451,488.227273 216.234865,490.019679 212.886364,493.604545 C209.537862,497.189412 207.863636,502.724205 207.863636,510.209091 L207.863636,529.354545 C207.863636,536.681855 209.537862,542.098467 212.886364,545.604545 C216.234865,549.110624 221.45451,550.863636 228.545455,550.863636 L228.545455,550.863636 Z M274.681818,555 L274.681818,484.090909 L280.590909,484.090909 L280.590909,495.909091 L281.772727,495.909091 C284.766682,491.260583 288.016649,487.931828 291.522727,485.922727 C295.028805,483.913626 298.751495,482.909091 302.690909,482.909091 C308.521241,482.909091 313.090893,484.662104 316.4,488.168182 C319.709107,491.67426 321.363636,496.61815 321.363636,503 L321.363636,510.681818 L315.454545,510.681818 L315.454545,503.236364 C315.454545,498.745432 314.430313,495.121226 312.381818,492.363636 C310.333323,489.606047 307.103052,488.227273 302.690909,488.227273 C298.436342,488.227273 294.516685,489.330292 290.931818,491.536364 C287.346952,493.742435 283.900017,497.169674 280.590909,501.818182 L280.590909,555 L274.681818,555 Z M366.972727,556.063636 C360.590877,556.063636 355.5682,554.015172 351.904545,549.918182 C348.240891,545.821192 346.409091,540.148521 346.409091,532.9 L346.409091,489.409091 L332.227273,489.409091 L332.227273,484.090909 L346.409091,484.090909 L346.409091,460.454545 L352.318182,460.454545 L352.318182,484.090909 L378.318182,484.090909 L378.318182,489.409091 L352.318182,489.409091 L352.318182,531.836364 C352.318182,538.218214 353.578775,542.945439 356.1,546.018182 C358.621225,549.090924 362.481792,550.627273 367.681818,550.627273 C369.178795,550.627273 370.833324,550.410608 372.645455,549.977273 C374.457585,549.543937 376.269688,548.933337 378.081818,548.145455 L379.381818,553.345455 C377.333323,554.212126 375.245465,554.881816 373.118182,555.354545 C370.990898,555.827275 368.942434,556.063636 366.972727,556.063636 L366.972727,556.063636 Z M416.836364,556.181818 C410.060572,556.181818 404.64396,553.97578 400.586364,549.563636 C396.528768,545.151493 394.5,539.281855 394.5,531.954545 L394.5,484.090909 L400.409091,484.090909 L400.409091,529.590909 C400.409091,536.603065 401.827259,541.901497 404.663636,545.486364 C407.500014,549.07123 411.715124,550.863636 417.309091,550.863636 C421.327293,550.863636 425.443918,549.819707 429.659091,547.731818 C433.874263,545.643929 437.912102,542.354568 441.772727,537.863636 L441.772727,484.090909 L447.681818,484.090909 L447.681818,555 L441.772727,555 L441.772727,543.181818 L440.590909,543.181818 C437.518166,547.593961 434.031838,550.863626 430.131818,552.990909 C426.231799,555.118192 421.800025,556.181818 416.836364,556.181818 L416.836364,556.181818 Z M467.227273,555 L467.227273,484.090909 L473.136364,484.090909 L473.136364,495.909091 L474.318182,495.909091 C476.524253,491.890889 479.793918,488.719709 484.127273,486.395455 C488.460628,484.071201 493.109066,482.909091 498.072727,482.909091 C504.927307,482.909091 510.363616,484.977252 514.381818,489.113636 C518.40002,493.250021 520.409091,498.863601 520.409091,505.954545 L520.409091,555 L514.5,555 L514.5,507.136364 C514.5,500.990878 513.042439,496.322743 510.127273,493.131818 C507.212107,489.940893 503.036391,488.345455 497.6,488.345455 C493.109068,488.345455 488.815172,489.428777 484.718182,491.595455 C480.621192,493.762132 476.760624,496.972706 473.136364,501.227273 L473.136364,555 L467.227273,555 Z M564.236364,550.863636 C569.43639,550.863636 574.006041,549.918191 577.945455,548.027273 C581.884868,546.136354 585.312107,543.181838 588.227273,539.163636 L588.227273,522.5 L561.636364,522.5 C557.145432,522.5 553.462136,523.484839 550.586364,525.454545 C547.710592,527.424252 546.272727,530.812097 546.272727,535.618182 C546.272727,540.581843 547.710592,544.363623 550.586364,546.963636 C553.462136,549.563649 558.01209,550.863636 564.236364,550.863636 L564.236364,550.863636 Z M563.409091,556.181818 C556.396935,556.181818 550.901535,554.369715 546.922727,550.745455 C542.943919,547.121194 540.954545,542.118214 540.954545,535.736364 C540.954545,530.063608 542.825739,525.612137 546.568182,522.381818 C550.310625,519.151499 555.333302,517.536364 561.636364,517.536364 L588.227273,517.536364 L588.227273,504.536364 C588.227273,500.045432 586.631834,496.204561 583.440909,493.013636 C580.249984,489.822711 575.384881,488.227273 568.845455,488.227273 C562.463604,488.227273 557.834863,489.192415 554.959091,491.122727 C552.083319,493.05304 549.896977,496.618156 548.4,501.818182 L543.081818,500.281818 C544.972737,494.136333 547.887859,489.704559 551.827273,486.986364 C555.766686,484.268168 561.36057,482.909091 568.609091,482.909091 C576.40913,482.909091 582.613613,484.799981 587.222727,488.581818 C591.831841,492.363655 594.136364,497.64239 594.136364,504.418182 L594.136364,536.090909 C594.136364,542.315183 595.140899,546.392415 597.15,548.322727 C599.159101,550.25304 602.881791,550.745459 608.318182,549.8 L608.318182,555.354545 C602.881791,556.142428 598.686378,555.630312 595.731818,553.818182 C592.777258,552.006052 591.024245,548.854568 590.472727,544.363636 L589.290909,544.363636 C586.454531,548.145473 582.790932,551.060596 578.3,553.109091 C573.809068,555.157586 568.845482,556.181818 563.409091,556.181818 L563.409091,556.181818 Z M646.972727,556.063636 C640.590877,556.063636 635.5682,554.015172 631.904545,549.918182 C628.240891,545.821192 626.409091,540.148521 626.409091,532.9 L626.409091,489.409091 L612.227273,489.409091 L612.227273,484.090909 L626.409091,484.090909 L626.409091,460.454545 L632.318182,460.454545 L632.318182,484.090909 L658.318182,484.090909 L658.318182,489.409091 L632.318182,489.409091 L632.318182,531.836364 C632.318182,538.218214 633.578775,542.945439 636.1,546.018182 C638.621225,549.090924 642.481792,550.627273 647.681818,550.627273 C649.178795,550.627273 650.833324,550.410608 652.645455,549.977273 C654.457585,549.543937 656.269688,548.933337 658.081818,548.145455 L659.381818,553.345455 C657.333323,554.212126 655.245465,554.881816 653.118182,555.354545 C650.990898,555.827275 648.942434,556.063636 646.972727,556.063636 L646.972727,556.063636 Z M725.972727,540.936364 C724.00302,546.372754 721.048505,550.272715 717.109091,552.636364 C713.169677,555.000012 707.5364,556.181818 700.209091,556.181818 C691.778746,556.181818 685.21972,553.916689 680.531818,549.386364 C675.843916,544.856038 673.5,538.139438 673.5,529.236364 L673.5,510.209091 C673.5,501.069651 675.962097,494.234871 680.886364,489.704545 C685.810631,485.17422 692.251475,482.909091 700.209091,482.909091 C708.166706,482.909091 714.568158,485.213613 719.413636,489.822727 C724.259115,494.431841 726.681818,501.502983 726.681818,511.036364 L726.681818,520.136364 L679.409091,520.136364 L679.409091,529.354545 C679.409091,536.91822 681.12271,542.393922 684.55,545.781818 C687.97729,549.169714 693.157541,550.863636 700.090909,550.863636 C706.315183,550.863636 710.806047,549.937888 713.563636,548.086364 C716.321226,546.234839 718.527264,543.221233 720.181818,539.045455 L725.972727,540.936364 Z M679.409091,510.209091 L679.409091,515.172727 L720.772727,515.172727 L720.772727,511.272727 C720.772727,503.315112 719.039411,497.504564 715.572727,493.840909 C712.106043,490.177254 706.945489,488.345455 700.090909,488.345455 C693.236329,488.345455 688.075775,490.118164 684.609091,493.663636 C681.142407,497.209109 679.409091,502.724205 679.409091,510.209091 L679.409091,510.209091 Z M770.345455,555.590909 C764.042393,555.590909 759.098503,553.187903 755.513636,548.381818 C751.92877,543.575734 750.136364,536.957618 750.136364,528.527273 L750.136364,460.454545 L756.045455,460.454545 L756.045455,528.645455 C756.045455,535.263669 757.345442,540.463617 759.945455,544.245455 C762.545468,548.027292 766.13028,549.918182 770.7,549.918182 C771.881824,549.918182 773.260598,549.721214 774.836364,549.327273 C776.412129,548.933331 777.790903,548.460609 778.972727,547.909091 L780.390909,552.990909 C778.97272,553.700004 777.416675,554.310604 775.722727,554.822727 C774.028779,555.334851 772.236373,555.590909 770.345455,555.590909 L770.345455,555.590909 Z M792.2,579.345455 C791.018176,579.345455 789.777279,579.286364 788.477273,579.168182 C787.177266,579.049999 785.621221,578.833335 783.809091,578.518182 L784.636364,573.2 C786.133341,573.515153 787.512115,573.751514 788.772727,573.909091 C790.03334,574.066667 791.569688,574.145455 793.381818,574.145455 C797.40002,574.145455 800.590897,573.081829 802.954545,570.954545 C805.318194,568.827262 807.642413,564.80912 809.927273,558.9 L811.463636,555 L810.045455,555 L783.336364,484.090909 L789.481818,484.090909 L813.590909,549.090909 L836.636364,484.090909 L842.545455,484.090909 L814.890909,560.318182 C812.448473,567.172762 809.47426,572.057561 805.968182,574.972727 C802.462104,577.887893 797.872756,579.345455 792.2,579.345455 L792.2,579.345455 Z" id="Unfortunately" opacity="0.4" sketch:type="MSShapeGroup"></path>
            </g>
        </g>
    </g>
</svg>