<svg height="445" viewBox="0 0 1023 445" width="1023" xmlns="http://www.w3.org/2000/svg"><g fill-rule="evenodd"><path d="m34.5 44.1h-16.8l8.5-33.1zm-13.7 32.9v-2.3l-11.1.3 7.4-28.5h18l7.2 28.5-10.3-.3v2.3h23.9v-2.3l-6.5.2-18-70.1h-6.1l-18.4 70.2-6-.3v2.3zm75.7 0v-2.1c-4.3 1.1-6.8.5-6.8-4.3v-30.6c0-8.6-3.8-13.2-13.1-13.2-10.8 0-15 5-15 16.7h6.5c0-11.7 1.7-14.7 7.8-14.7 5.4 0 7.5 3 7.5 10.5v2c0 17.1-24.5 6.6-24.5 24.4 0 10 6.4 12 11.6 12 5.6 0 9.9-2.1 13.5-6 1.2 6.3 6.8 6.8 12.5 5.3zm-23.1-2.2c-5 0-8.1-2.1-8.1-9.9 0-11.7 11.5-8 18.1-15.2v13.5c0 8.3-4.3 11.6-10 11.6zm40.7-38.5v-28.2h6.8c8.2 0 10.7 2.9 10.7 14.8 0 10.9-2.5 13.4-10.7 13.4zm0 38.6v-36.4h8.2c11.2 0 14.8 3.6 14.8 17.9 0 14.6-3.3 18.5-14.2 18.5zm-14.3 2.1h25.7c12.1 0 18.5-3.2 18.5-20.6 0-15.3-6-18.5-17.6-19 7.3-.7 12.2-3.8 12.2-15.5 0-13.1-5.2-16.1-15.1-16.1h-23.7v2.4l7.5-.2v67l-7.5-.3zm71.8.7c8.2 0 15.6-4.2 15.6-25.8 0-20-5.7-25.2-13.3-25.2-5.8 0-10.4 2.5-14.2 7.3v-33h-12.9v2.3l6.6-.2v73.9h6.5l-.3-6c2.5 4.1 6.1 6.7 12 6.7zm-1-2.1c-7.4 0-11-4.4-11-23 0-17.7 4.1-23 11.4-23 6.7 0 9.4 4.5 9.4 23s-2.8 23-9.8 23zm67.6-28.4h-4.5c.5 23.7-4.9 27.9-15.3 27.9-10.3 0-16.5-4.6-16.5-34.1 0-28.7 6.1-33.6 15.3-33.6 8.8 0 13 6.2 12.6 25.2h6.1v-26.8h-6l-.1 7.2c-2.2-5.3-7-7.9-14-7.9-11.3 0-21 5.6-21 36.2 0 28.8 7.6 36.4 22.7 36.4 14.1 0 21.5-7.8 20.7-30.5zm23.8 30.5c11.2 0 16-7 15.7-21.4h-4.8c.3 14.3-2.9 19.3-9.6 19.3-7 0-11.2-2.7-11.2-23.9 0-19 2.9-22.9 9.6-22.9 5.8 0 6.9 3.4 6.4 17.5h7.6c.3-15-4.7-19.6-13.5-19.6-9 0-16.8 4.5-16.8 25.5 0 20.9 7 25.5 16.6 25.5zm35-2.8v-66.8h10.3c12.6 0 18 4.6 18 33.2 0 28.5-5.4 33.6-18 33.6zm-14.3 2.1h26.4c14.2 0 23.3-4.8 23.3-35.7s-9.1-35.5-23.3-35.5h-26.4v2.4l7.5-.2v67l-7.5-.3zm73.2-2.2c-6.5 0-9.4-4.4-9.4-23 0-18.4 2.8-22.9 9.8-22.9 7.2 0 11 4.4 11 22.9 0 17.8-4.4 23-11.4 23zm-2.9 2.9c5.6 0 10.6-2.5 14.3-7.4l-.2 6.7h13.1v-2.1l-6.7.2v-74.1h-16.6v2.3l10.2-.2v30c-2.4-3.7-5.9-6.4-11.8-6.4-8.2 0-15.6 4.3-15.6 25.8 0 20 5.7 25.2 13.3 25.2zm73.9-.7v-25h-6.1l.1 22.9h-22.9v-34.7h17v-2.6h-17v-29.5h19.5l-.1 19.1h6.2v-21.4h-39.9v2.4l7.5-.2v67l-7.5-.3v2.3zm22.7-48.2c6.8 0 8.1 6.2 7.5 18.2h-16.9c.5-15.5 3.9-18.2 9.4-18.2zm16.4 30.1h-4.9c0 12-2.8 16.9-9.9 16.9-7.2 0-11.1-4.1-11.1-24.1v-2.6h24c1.2-18.4-4.3-22.4-14.3-22.4-8.7 0-16.4 4.5-16.4 25.7 0 20.7 6.6 25.3 17.1 25.3s15.5-5.7 15.5-18.8zm32.5 18.1v-2.3l-13 .3v-32.9h17.4v-2.5h-17.4v-31.5h18.8l-.2 19.1h6.4v-21.4h-39.3v2.4l7.5-.2v67l-7.5-.3v2.3zm16.1 0h23.8v-2.2l-10.7.3v-45.6l10.7.1v-2.2h-11c-1-3.8-1.6-7.9-1.6-12.5 0-11 1.7-12.5 5.7-12.5 3.8 0 5.2 1.7 5.1 10.3h6.6c.2-11.1-4.2-12.1-10.4-12.1-7.8 0-11.4 3.2-11.4 15.3v11.5h-6.8v2.2l6.8-.1v45.6l-6.8-.2zm65.5 0h6.1v-26.8l6.7.3v-2.7h-27.8v2.7l14.8-.3v2.1c0 17.9-3.2 23.1-12 23-10.3.1-16.5-4.6-16.5-34 .1-29 6.1-33.9 15-33.9 8.4 0 13.1 6.4 13.2 24.5h5.7v-26.1h-6.2l.2 7.1c-2.6-5.4-7.5-7.8-13.6-7.8-11.7 0-21.4 5.5-21.4 36.5 0 28.4 7.8 36.1 22.2 36.1 6.4 0 10.7-2.3 13.5-6.6zm31.7-21.7c-5.4 0-7.4-2.7-7.4-13.4s1.9-13.2 7.2-13.2c5.1 0 7.2 2.8 7.2 13.2 0 10.7-2 13.4-7 13.4zm0 40.9c12.6 0 20.4-5.8 20.4-18.6 0-6.5-3.4-10.9-11.8-10.4l-11.8.6c-5.9.3-7.7-1.1-7.7-5.1 0-4.1 2-5.6 7.1-5.6h3.5c7.6 0 13.7-3.4 13.7-15.4 0-6.1-1.6-9.9-4.2-12.2l11 .2v-2.3h-11.6l-.5 1.3c-2.3-1.5-5.2-2-8.3-2-7.4 0-13.6 3.2-13.6 15.1 0 8 2.7 12.1 6.7 14-5.8.8-8.4 4.2-8.4 8.7 0 7 4.8 10 12 9.7l11.7-.6c5.5-.3 7.2 1.5 7.2 6 0 8.3-4.2 14.7-14.6 14.7-10.5 0-12-5.4-12-16.6h-7.1c0 12.8 5.6 18.5 18.3 18.5zm46.9-19.2v-2.3l-8.7.3v-36.4h28.5v36.4l-8.7-.3v2.3h23v-2.3l-7.5.3v-67l7.5.2v-2.4h-23v2.4l8.7-.2v28.4h-28.5v-28.4l8.7.2v-2.4h-23v2.4l7.5-.2v67l-7.5-.3v2.3zm38 0h19v-2.1l-6.6.1v-30.4c0-9.4 3.7-14.8 10.9-14.8 5.8 0 7.6 2.8 7.6 13.6v31.6l-6.8-.1v2.1h19.6v-2.1l-6.5.1v-34.5c0-9.4-3-13.8-10.6-13.8-5.8 0-10.5 2.3-14.2 7.2v-32.9h-13.2v2.3l6.8-.2v71.9l-6-.1zm47.5 0h23.2v-2.3l-8.2.3v-67l8.2.2v-2.4h-23.2v2.4l8.1-.2v67l-8.1-.3zm38.3-59.5c2.9 0 4-1.7 4-5.4s-1.1-5.4-4-5.4c-3 0-4.4 1.7-4.4 5.4s1.4 5.4 4.4 5.4zm-10.8 59.5h21.8v-2.1l-7.5.1v-47.6h-14.2v2.3l7.8-.2v45.5l-7.9-.1zm41.1.7c9.1 0 14.9-3.8 14.9-17.4v-52.3l7.9.2v-2.4h-26.9v2.4l12.3-.2v50.7c0 14.2-2.7 16.7-8.2 16.7-6.4 0-11-2.7-9.5-28.2h-6.4c-1.4 25.3 5.8 30.5 15.9 30.5zm35.9-60.2c2.9 0 4-1.7 4-5.4s-1.1-5.4-4-5.4c-3 0-4.4 1.7-4.4 5.4s1.4 5.4 4.4 5.4zm-12.4 80.4 15.6-12.8v-57.7h-14v2.3l7.7-.2v57.9l-10.9 8.3zm46.3-20.9v-2.3l-8 .3v-34.6h5.6l17.7 34.5-7.1-.2v2.3h21.5v-2.3l-5.7.2-20.3-37.6 17.2-29.2 7 .1v-2.4h-20.2v2.4l10-.2-16.6 28.5h-9.1v-28.5l8 .2v-2.4h-22.3v2.4l7.5-.2v67l-7.5-.3v2.3zm51 0v-2.1l-7.6.1v-23.7h4.2l12.7 23.8-5.5-.2v2.1h17.2v-2.1l-4.7.2-14.4-25.8 9.6-19.7 6.2.1v-2.3h-18.8v2.3l9.8-.2-9.5 19.6h-6.8v-48.1h-13.1v2.3l6.8-.2v71.9l-6.4-.1v2.1zm23.4 0h40.2v-25.2h-6.2l.2 23.1h-19.9v-66.9l10.4.2v-2.4h-24.7v2.4l7.5-.2v67l-7.5-.3zm43.5 0h21.6v-2.1l-8 .1v-74h-14.1v2.3l7.7-.2v71.9l-7.2-.1z"/><path d="m34.5 275.1h-16.8l8.5-33.1zm-13.7 32.9v-2.3l-11.1.3 7.4-28.5h18l7.2 28.5-10.3-.3v2.3h23.9v-2.3l-6.5.2-18-70.1h-6.1l-18.4 70.2-6-.3v2.3zm75.7 0v-2.1c-4.3 1.1-6.8.5-6.8-4.3v-30.6c0-8.6-3.8-13.2-13.1-13.2-10.8 0-15 5-15 16.7h6.5c0-11.7 1.7-14.7 7.8-14.7 5.4 0 7.5 3 7.5 10.5v2c0 17.1-24.5 6.6-24.5 24.4 0 10 6.4 12 11.6 12 5.6 0 9.9-2.1 13.5-6 1.2 6.3 6.8 6.8 12.5 5.3zm-23.1-2.2c-5 0-8.1-2.1-8.1-9.9 0-11.7 11.5-8 18.1-15.2v13.5c0 8.3-4.3 11.6-10 11.6zm40.7-38.5v-28.2h6.8c8.2 0 10.7 2.9 10.7 14.8 0 10.9-2.5 13.4-10.7 13.4zm0 38.6v-36.4h8.2c11.2 0 14.8 3.6 14.8 17.9 0 14.6-3.3 18.5-14.2 18.5zm-14.3 2.1h25.7c12.1 0 18.5-3.2 18.5-20.6 0-15.3-6-18.5-17.6-19 7.3-.7 12.2-3.8 12.2-15.5 0-13.1-5.2-16.1-15.1-16.1h-23.7v2.4l7.5-.2v67l-7.5-.3zm71.8.7c8.2 0 15.6-4.2 15.6-25.8 0-20-5.7-25.2-13.3-25.2-5.8 0-10.4 2.5-14.2 7.3v-33h-12.9v2.3l6.6-.2v73.9h6.5l-.3-6c2.5 4.1 6.1 6.7 12 6.7zm-1-2.1c-7.4 0-11-4.4-11-23 0-17.7 4.1-23 11.4-23 6.7 0 9.4 4.5 9.4 23s-2.8 23-9.8 23zm67.6-28.4h-4.5c.5 23.7-4.9 27.9-15.3 27.9-10.3 0-16.5-4.6-16.5-34.1 0-28.7 6.1-33.6 15.3-33.6 8.8 0 13 6.2 12.6 25.2h6.1v-26.8h-6l-.1 7.2c-2.2-5.3-7-7.9-14-7.9-11.3 0-21 5.6-21 36.2 0 28.8 7.6 36.4 22.7 36.4 14.1 0 21.5-7.8 20.7-30.5zm23.8 30.5c11.2 0 16-7 15.7-21.4h-4.8c.3 14.3-2.9 19.3-9.6 19.3-7 0-11.2-2.7-11.2-23.9 0-19 2.9-22.9 9.6-22.9 5.8 0 6.9 3.4 6.4 17.5h7.6c.3-15-4.7-19.6-13.5-19.6-9 0-16.8 4.5-16.8 25.5 0 20.9 7 25.5 16.6 25.5zm35-2.8v-66.8h10.3c12.6 0 18 4.6 18 33.2 0 28.5-5.4 33.6-18 33.6zm-14.3 2.1h26.4c14.2 0 23.3-4.8 23.3-35.7s-9.1-35.5-23.3-35.5h-26.4v2.4l7.5-.2v67l-7.5-.3zm73.2-2.2c-6.5 0-9.4-4.4-9.4-23 0-18.4 2.8-22.9 9.8-22.9 7.2 0 11 4.4 11 22.9 0 17.8-4.4 23-11.4 23zm-2.9 2.9c5.6 0 10.6-2.5 14.3-7.4l-.2 6.7h13.1v-2.1l-6.7.2v-74.1h-16.6v2.3l10.2-.2v30c-2.4-3.7-5.9-6.4-11.8-6.4-8.2 0-15.6 4.3-15.6 25.8 0 20 5.7 25.2 13.3 25.2zm73.9-.7v-25h-6.1l.1 22.9h-22.9v-34.7h17v-2.6h-17v-29.5h19.5l-.1 19.1h6.2v-21.4h-39.9v2.4l7.5-.2v67l-7.5-.3v2.3zm22.7-48.2c6.8 0 8.1 6.2 7.5 18.2h-16.9c.5-15.5 3.9-18.2 9.4-18.2zm16.4 30.1h-4.9c0 12-2.8 16.9-9.9 16.9-7.2 0-11.1-4.1-11.1-24.1v-2.6h24c1.2-18.4-4.3-22.4-14.3-22.4-8.7 0-16.4 4.5-16.4 25.7 0 20.7 6.6 25.3 17.1 25.3s15.5-5.7 15.5-18.8zm32.5 18.1v-2.3l-13 .3v-32.9h17.4v-2.5h-17.4v-31.5h18.8l-.2 19.1h6.4v-21.4h-39.3v2.4l7.5-.2v67l-7.5-.3v2.3zm16.1 0h23.8v-2.2l-10.7.3v-45.6l10.7.1v-2.2h-11c-1-3.8-1.6-7.9-1.6-12.5 0-11 1.7-12.5 5.7-12.5 3.8 0 5.2 1.7 5.1 10.3h6.6c.2-11.1-4.2-12.1-10.4-12.1-7.8 0-11.4 3.2-11.4 15.3v11.5h-6.8v2.2l6.8-.1v45.6l-6.8-.2zm65.5 0h6.1v-26.8l6.7.3v-2.7h-27.8v2.7l14.8-.3v2.1c0 17.9-3.2 23.1-12 23-10.3.1-16.5-4.6-16.5-34 .1-29 6.1-33.9 15-33.9 8.4 0 13.1 6.4 13.2 24.5h5.7v-26.1h-6.2l.2 7.1c-2.6-5.4-7.5-7.8-13.6-7.8-11.7 0-21.4 5.5-21.4 36.5 0 28.4 7.8 36.1 22.2 36.1 6.4 0 10.7-2.3 13.5-6.6zm31.7-21.7c-5.4 0-7.4-2.7-7.4-13.4s1.9-13.2 7.2-13.2c5.1 0 7.2 2.8 7.2 13.2 0 10.7-2 13.4-7 13.4zm0 40.9c12.6 0 20.4-5.8 20.4-18.6 0-6.5-3.4-10.9-11.8-10.4l-11.8.6c-5.9.3-7.7-1.1-7.7-5.1 0-4.1 2-5.6 7.1-5.6h3.5c7.6 0 13.7-3.4 13.7-15.4 0-6.1-1.6-9.9-4.2-12.2l11 .2v-2.3h-11.6l-.5 1.3c-2.3-1.5-5.2-2-8.3-2-7.4 0-13.6 3.2-13.6 15.1 0 8 2.7 12.1 6.7 14-5.8.8-8.4 4.2-8.4 8.7 0 7 4.8 10 12 9.7l11.7-.6c5.5-.3 7.2 1.5 7.2 6 0 8.3-4.2 14.7-14.6 14.7-10.5 0-12-5.4-12-16.6h-7.1c0 12.8 5.6 18.5 18.3 18.5zm46.9-19.2v-2.3l-8.7.3v-36.4h28.5v36.4l-8.7-.3v2.3h23v-2.3l-7.5.3v-67l7.5.2v-2.4h-23v2.4l8.7-.2v28.4h-28.5v-28.4l8.7.2v-2.4h-23v2.4l7.5-.2v67l-7.5-.3v2.3zm38 0h19v-2.1l-6.6.1v-30.4c0-9.4 3.7-14.8 10.9-14.8 5.8 0 7.6 2.8 7.6 13.6v31.6l-6.8-.1v2.1h19.6v-2.1l-6.5.1v-34.5c0-9.4-3-13.8-10.6-13.8-5.8 0-10.5 2.3-14.2 7.2v-32.9h-13.2v2.3l6.8-.2v71.9l-6-.1zm47.5 0h23.2v-2.3l-8.2.3v-67l8.2.2v-2.4h-23.2v2.4l8.1-.2v67l-8.1-.3zm38.3-59.5c2.9 0 4-1.7 4-5.4s-1.1-5.4-4-5.4c-3 0-4.4 1.7-4.4 5.4s1.4 5.4 4.4 5.4zm-10.8 59.5h21.8v-2.1l-7.5.1v-47.6h-14.2v2.3l7.8-.2v45.5l-7.9-.1zm41.1.7c9.1 0 14.9-3.8 14.9-17.4v-52.3l7.9.2v-2.4h-26.9v2.4l12.3-.2v50.7c0 14.2-2.7 16.7-8.2 16.7-6.4 0-11-2.7-9.5-28.2h-6.4c-1.4 25.3 5.8 30.5 15.9 30.5zm35.9-60.2c2.9 0 4-1.7 4-5.4s-1.1-5.4-4-5.4c-3 0-4.4 1.7-4.4 5.4s1.4 5.4 4.4 5.4zm-12.4 80.4 15.6-12.8v-57.7h-14v2.3l7.7-.2v57.9l-10.9 8.3zm46.3-20.9v-2.3l-8 .3v-34.6h5.6l17.7 34.5-7.1-.2v2.3h21.5v-2.3l-5.7.2-20.3-37.6 17.2-29.2 7 .1v-2.4h-20.2v2.4l10-.2-16.6 28.5h-9.1v-28.5l8 .2v-2.4h-22.3v2.4l7.5-.2v67l-7.5-.3v2.3zm51 0v-2.1l-7.6.1v-23.7h4.2l12.7 23.8-5.5-.2v2.1h17.2v-2.1l-4.7.2-14.4-25.8 9.6-19.7 6.2.1v-2.3h-18.8v2.3l9.8-.2-9.5 19.6h-6.8v-48.1h-13.1v2.3l6.8-.2v71.9l-6.4-.1v2.1zm23.4 0h40.2v-25.2h-6.2l.2 23.1h-19.9v-66.9l10.4.2v-2.4h-24.7v2.4l7.5-.2v67l-7.5-.3zm43.5 0h21.6v-2.1l-8 .1v-74h-14.1v2.3l7.7-.2v71.9l-7.2-.1z"/><path d="m34.6 157.9h-15.5l7.8-28.9zm-12.4 33.1v-3.8l-11.1.3 7-25.9h17.4l6.9 25.9-10.3-.3v3.8h29.8v-3.8l-6.4.2-18.6-68.3h-11.2l-18.8 68.4-6-.3v3.8zm84.7 0v-3.4c-4 1.1-6.2.2-6.2-3.8v-29.7c0-9.3-4.1-14.3-15.6-14.3-12.3 0-18.1 5-18 17.8h10.4c-.1-11.8 1.3-14.4 6.2-14.4 4.3 0 5.9 2.6 5.9 9.3v2.7c0 16.5-25.5 5-25.5 24.2 0 9.6 6.3 12.3 12.2 12.3 6.5 0 10.8-2.4 14.5-6.2 1.7 6.4 8.4 7.2 16.1 5.5zm-25.1-3.9c-4.2 0-6.5-2.4-6.5-9.2 0-10.7 9-8.1 14.4-13.9v12.7c0 7.2-3.2 10.4-7.9 10.4zm48.2-37.3v-26.5h5.4c6.5 0 8.6 3.2 8.6 14 0 9.7-2.1 12.5-8.6 12.5zm0 37.9v-34.3h6.2c9.3 0 12.3 4 12.3 17.1s-2.7 17.2-11.6 17.2zm-20.2 3.3h29.7c14.4 0 22-3.7 22-20.5 0-14.9-7.1-19.1-19.9-19.4 9-.6 14.7-4.1 14.7-15.3 0-12.6-6.4-16-18.5-16h-28v4l7.4-.2v63.9l-7.4-.3zm83 .8c8.8 0 16.6-4.1 16.6-26.3 0-20.6-5.9-25.7-14.1-25.7-6.3 0-11.3 2.2-15.2 7.2v-32h-17.5v3.7l6.3-.3v72.6h11.2l-.3-5.4c3 4 7.3 6.2 13 6.2zm-3.5-3.7c-6.4 0-9.3-4.3-9.3-21.8 0-16.9 3.2-21.7 9.5-21.7 5.9 0 8.2 4.3 8.2 21.7 0 17.5-2.3 21.8-8.4 21.8zm75.3-26.9h-6.9c.4 22.7-4.3 26.5-14.1 26.5-9.9 0-14.8-4.9-14.8-32.5 0-27.5 4.3-32.2 12.6-32.2 7.9 0 11 6 10.9 23.6h10v-26.8h-10l.1 6.1c-2.5-4.6-7.1-6.9-14.3-6.9-12.4 0-22.4 6-22.4 36.2 0 28.3 7.8 36.6 25.6 36.6 16.2 0 24.2-7.8 23.3-30.6zm25.7 30.6c12.2 0 18.3-6.7 18-21.5h-7.5c.3 13.8-2.7 18-8.6 18-6.5 0-9.9-2.3-9.9-22.9 0-19.2 2-22.2 7.3-22.2 4.8 0 5.5 3.1 5.1 16.2h11.6c.4-14.9-5.5-19.6-16.4-19.6-9.8 0-19.2 4-19.2 25.9 0 21.5 8 26.1 19.6 26.1zm42.4-4.5v-63.6h8.3c11.1 0 15.9 4.4 15.9 31.6 0 27.1-4.8 32-15.9 32zm-20.2 3.7h30.7c16.3 0 26.8-5.1 26.8-35.7s-10.5-35.5-26.8-35.5h-30.7v4l7.4-.2v63.9l-7.4-.3zm83.7-4.1c-5.8 0-8.2-4.2-8.2-21.6s2.3-21.8 8.4-21.8c6.3 0 9.2 4.4 9.2 21.8 0 16.9-3.2 21.6-9.4 21.6zm-6.1 4.9c6.3.1 11.3-2.2 15.6-7.3l-.3 6.5h17.6v-3.4l-6.3.2v-72.8h-21.8v3.7l10.6-.2v27c-2.9-3.5-7-5.7-12.9-5.7-8.8 0-16.4 4.3-16.4 26.3 0 20.6 5.7 25.7 13.9 25.7zm85.8-.8v-26.2h-10.1l.2 22.5h-19.8v-32.1h15.4v-4.2h-15.4v-27.3h16.3l-.3 18.7h10.3v-22.6h-46.5v4l7.4-.2v63.9l-7.4-.3v3.8zm24.7-47.8c5.6 0 6.4 5.1 6 17.1h-13.2c.3-14.8 2.6-17.1 7.2-17.1zm19 29.1h-7.2c0 11.8-2.5 16.1-9.1 16.1-6.8 0-10-3.2-10-23v-1.6h24.9c.9-19.2-5.2-24-17.3-24-9.6 0-19.3 3.7-19.3 26 0 21.3 7.8 26 20.1 26 11.8 0 17.9-6 17.9-19.5zm37 18.7v-3.8l-12.2.3v-30.4h16.1v-4.1h-16.1v-29.3h15.3l-.2 18.7h10.1v-22.6h-45.4v4l7.4-.2v63.9l-7.4-.3v3.8zm16.7 0h28.2v-3.4l-10.7.2v-43.7l10.7.1v-3.6h-11.4c-1.6-3.3-2.5-7.6-2.5-12.7 0-8.8 1.4-10.4 5-10.4 3.5 0 4.7 2 4.7 10.7h9.8c.2-12.5-6.2-14-13.9-14-8.1 0-13.6 3.5-13.6 15.3v11.1h-6.3v3.6l6.3-.1v43.7l-6.3-.2zm71.8 0h10.3v-27.1l5.8.3v-4.2h-30.1v4.2l13.7-.3v2.2c0 17.2-2.9 21.7-11.2 21.7-9.1 0-14-4.4-14-32.4 0-27.6 4.4-32.4 12.9-32.4 7.9 0 11.7 6.1 11.9 22.8h10v-26h-10.7l.3 5.5c-3.3-4.3-8.4-6.3-14.5-6.3-13 0-23 5.9-23 36.5 0 28.2 8.3 36.3 23.7 36.3 7.1 0 11.7-2.5 14.8-6.3zm37.7-23.3c-4.5 0-6.2-2.6-6.2-12.5 0-10.1 1.7-12.3 6.1-12.3 4.2 0 6 2.4 6 12.3s-1.8 12.5-5.9 12.5zm.1 42.6c14.8 0 23.2-7.1 23.2-19.9 0-7.7-4.3-12-13.9-11.5l-13.6.7c-5.1.2-7-.9-7-4.4s1.9-4.8 6.8-4.8h4.1c9.4 0 16.3-3.7 16.3-15.4 0-5.1-1.3-8.6-3.5-10.9l10.3.2v-3.7h-11.7l-.5 1.8c-2.8-1.9-6.6-2.6-10.8-2.6-9.1 0-16.1 3.3-16.1 15.3 0 7.4 2.7 11.5 6.9 13.6-5.6 1.2-8.6 4.7-8.6 10 0 7.7 5.1 11.1 12.9 10.7l12.7-.7c5-.2 6.5 1.2 6.5 5.6 0 7.3-3.6 13-13.1 13-9.9 0-11.4-4.7-11.4-15.2h-10.8c0 12.7 5.7 18.2 21.3 18.2zm54.5-19.3v-3.8l-8 .3v-34.1h24.4v34.1l-8.1-.3v3.8h28.3v-3.8l-7.4.3v-63.9l7.4.2v-4h-28.3v4l8.1-.2v26h-24.4v-26l8 .2v-4h-28.2v4l7.4-.2v63.9l-7.4-.3v3.8zm40.1 0h22.1v-3.3l-5.4.1v-30c0-7.9 3.1-12.8 8.9-12.8 5.1 0 6.4 2.9 6.4 12.2v30.6l-5.6-.2v3.4h22.8v-3.4l-6 .2v-33.7c0-9.1-2.6-14.3-11.1-14.3-6 0-11.2 2.2-15.4 7.2v-32h-17.7v3.7l6.5-.3v69.4l-5.5-.2zm52.4 0h29.2v-3.8l-8.2.3v-63.9l8.2.2v-4h-29.2v4l8.2-.2v63.9l-8.2-.3zm45.6-58.9c4.3 0 6.1-2.2 6.1-6.9s-1.8-6.9-6.1-6.9c-4.5 0-6.5 2.2-6.5 6.9s2 6.9 6.5 6.9zm-12.7 58.9h25.3v-3.4l-6.9.2v-47.2h-18.2v3.7l7-.3v43.8l-7.2-.2zm46.7.8c11.6 0 18.9-5.4 18.9-19.5v-48.7l7.4.2v-4h-32.5v4l12.3-.2v47.7c0 13.6-2.1 16.3-6.6 16.3-5.4 0-8.9-2.9-7.8-26.4h-10.4c-1.3 24.3 5.2 30.6 18.7 30.6zm40.9-59.7c4.3 0 6.1-2.2 6.1-6.9s-1.8-6.9-6.1-6.9c-4.5 0-6.5 2.2-6.5 6.9s2 6.9 6.5 6.9zm-14.4 80.6 19.8-15v-57.1h-18v3.7l6.8-.3v56.9l-11.2 7.5zm54.2-21.7v-3.8l-7.2.3v-32.4h3.9l15.3 32.3-6.1-.2v3.8h26.1v-3.8l-4.9.2-19.5-39.3 15.3-24.5 7.3.2v-4h-22.4v4l10-.2-16.3 26.1h-8.7v-26.1l7.3.2v-4h-27.5v4l7.4-.2v63.9l-7.4-.3v3.8z"/><path d="m34.6 389.9h-15.5l7.8-28.9zm-12.4 33.1v-3.8l-11.1.3 7-25.9h17.4l6.9 25.9-10.3-.3v3.8h29.8v-3.8l-6.4.2-18.6-68.3h-11.2l-18.8 68.4-6-.3v3.8zm84.7 0v-3.4c-4 1.1-6.2.2-6.2-3.8v-29.7c0-9.3-4.1-14.3-15.6-14.3-12.3 0-18.1 5-18 17.8h10.4c-.1-11.8 1.3-14.4 6.2-14.4 4.3 0 5.9 2.6 5.9 9.3v2.7c0 16.5-25.5 5-25.5 24.2 0 9.6 6.3 12.3 12.2 12.3 6.5 0 10.8-2.4 14.5-6.2 1.7 6.4 8.4 7.2 16.1 5.5zm-25.1-3.9c-4.2 0-6.5-2.4-6.5-9.2 0-10.7 9-8.1 14.4-13.9v12.7c0 7.2-3.2 10.4-7.9 10.4zm48.2-37.3v-26.5h5.4c6.5 0 8.6 3.2 8.6 14 0 9.7-2.1 12.5-8.6 12.5zm0 37.9v-34.3h6.2c9.3 0 12.3 4 12.3 17.1s-2.7 17.2-11.6 17.2zm-20.2 3.3h29.7c14.4 0 22-3.7 22-20.5 0-14.9-7.1-19.1-19.9-19.4 9-.6 14.7-4.1 14.7-15.3 0-12.6-6.4-16-18.5-16h-28v4l7.4-.2v63.9l-7.4-.3zm83 .8c8.8 0 16.6-4.1 16.6-26.3 0-20.6-5.9-25.7-14.1-25.7-6.3 0-11.3 2.2-15.2 7.2v-32h-17.5v3.7l6.3-.3v72.6h11.2l-.3-5.4c3 4 7.3 6.2 13 6.2zm-3.5-3.7c-6.4 0-9.3-4.3-9.3-21.8 0-16.9 3.2-21.7 9.5-21.7 5.9 0 8.2 4.3 8.2 21.7 0 17.5-2.3 21.8-8.4 21.8zm75.3-26.9h-6.9c.4 22.7-4.3 26.5-14.1 26.5-9.9 0-14.8-4.9-14.8-32.5 0-27.5 4.3-32.2 12.6-32.2 7.9 0 11 6 10.9 23.6h10v-26.8h-10l.1 6.1c-2.5-4.6-7.1-6.9-14.3-6.9-12.4 0-22.4 6-22.4 36.2 0 28.3 7.8 36.6 25.6 36.6 16.2 0 24.2-7.8 23.3-30.6zm25.7 30.6c12.2 0 18.3-6.7 18-21.5h-7.5c.3 13.8-2.7 18-8.6 18-6.5 0-9.9-2.3-9.9-22.9 0-19.2 2-22.2 7.3-22.2 4.8 0 5.5 3.1 5.1 16.2h11.6c.4-14.9-5.5-19.6-16.4-19.6-9.8 0-19.2 4-19.2 25.9 0 21.5 8 26.1 19.6 26.1zm42.4-4.5v-63.6h8.3c11.1 0 15.9 4.4 15.9 31.6 0 27.1-4.8 32-15.9 32zm-20.2 3.7h30.7c16.3 0 26.8-5.1 26.8-35.7s-10.5-35.5-26.8-35.5h-30.7v4l7.4-.2v63.9l-7.4-.3zm83.7-4.1c-5.8 0-8.2-4.2-8.2-21.6s2.3-21.8 8.4-21.8c6.3 0 9.2 4.4 9.2 21.8 0 16.9-3.2 21.6-9.4 21.6zm-6.1 4.9c6.3.1 11.3-2.2 15.6-7.3l-.3 6.5h17.6v-3.4l-6.3.2v-72.8h-21.8v3.7l10.6-.2v27c-2.9-3.5-7-5.7-12.9-5.7-8.8 0-16.4 4.3-16.4 26.3 0 20.6 5.7 25.7 13.9 25.7zm85.8-.8v-26.2h-10.1l.2 22.5h-19.8v-32.1h15.4v-4.2h-15.4v-27.3h16.3l-.3 18.7h10.3v-22.6h-46.5v4l7.4-.2v63.9l-7.4-.3v3.8zm24.7-47.8c5.6 0 6.4 5.1 6 17.1h-13.2c.3-14.8 2.6-17.1 7.2-17.1zm19 29.1h-7.2c0 11.8-2.5 16.1-9.1 16.1-6.8 0-10-3.2-10-23v-1.6h24.9c.9-19.2-5.2-24-17.3-24-9.6 0-19.3 3.7-19.3 26 0 21.3 7.8 26 20.1 26 11.8 0 17.9-6 17.9-19.5zm37 18.7v-3.8l-12.2.3v-30.4h16.1v-4.1h-16.1v-29.3h15.3l-.2 18.7h10.1v-22.6h-45.4v4l7.4-.2v63.9l-7.4-.3v3.8zm16.7 0h28.2v-3.4l-10.7.2v-43.7l10.7.1v-3.6h-11.4c-1.6-3.3-2.5-7.6-2.5-12.7 0-8.8 1.4-10.4 5-10.4 3.5 0 4.7 2 4.7 10.7h9.8c.2-12.5-6.2-14-13.9-14-8.1 0-13.6 3.5-13.6 15.3v11.1h-6.3v3.6l6.3-.1v43.7l-6.3-.2zm71.8 0h10.3v-27.1l5.8.3v-4.2h-30.1v4.2l13.7-.3v2.2c0 17.2-2.9 21.7-11.2 21.7-9.1 0-14-4.4-14-32.4 0-27.6 4.4-32.4 12.9-32.4 7.9 0 11.7 6.1 11.9 22.8h10v-26h-10.7l.3 5.5c-3.3-4.3-8.4-6.3-14.5-6.3-13 0-23 5.9-23 36.5 0 28.2 8.3 36.3 23.7 36.3 7.1 0 11.7-2.5 14.8-6.3zm37.7-23.3c-4.5 0-6.2-2.6-6.2-12.5 0-10.1 1.7-12.3 6.1-12.3 4.2 0 6 2.4 6 12.3s-1.8 12.5-5.9 12.5zm.1 42.6c14.8 0 23.2-7.1 23.2-19.9 0-7.7-4.3-12-13.9-11.5l-13.6.7c-5.1.2-7-.9-7-4.4s1.9-4.8 6.8-4.8h4.1c9.4 0 16.3-3.7 16.3-15.4 0-5.1-1.3-8.6-3.5-10.9l10.3.2v-3.7h-11.7l-.5 1.8c-2.8-1.9-6.6-2.6-10.8-2.6-9.1 0-16.1 3.3-16.1 15.3 0 7.4 2.7 11.5 6.9 13.6-5.6 1.2-8.6 4.7-8.6 10 0 7.7 5.1 11.1 12.9 10.7l12.7-.7c5-.2 6.5 1.2 6.5 5.6 0 7.3-3.6 13-13.1 13-9.9 0-11.4-4.7-11.4-15.2h-10.8c0 12.7 5.7 18.2 21.3 18.2zm54.5-19.3v-3.8l-8 .3v-34.1h24.4v34.1l-8.1-.3v3.8h28.3v-3.8l-7.4.3v-63.9l7.4.2v-4h-28.3v4l8.1-.2v26h-24.4v-26l8 .2v-4h-28.2v4l7.4-.2v63.9l-7.4-.3v3.8zm40.1 0h22.1v-3.3l-5.4.1v-30c0-7.9 3.1-12.8 8.9-12.8 5.1 0 6.4 2.9 6.4 12.2v30.6l-5.6-.2v3.4h22.8v-3.4l-6 .2v-33.7c0-9.1-2.6-14.3-11.1-14.3-6 0-11.2 2.2-15.4 7.2v-32h-17.7v3.7l6.5-.3v69.4l-5.5-.2zm52.4 0h29.2v-3.8l-8.2.3v-63.9l8.2.2v-4h-29.2v4l8.2-.2v63.9l-8.2-.3zm45.6-58.9c4.3 0 6.1-2.2 6.1-6.9s-1.8-6.9-6.1-6.9c-4.5 0-6.5 2.2-6.5 6.9s2 6.9 6.5 6.9zm-12.7 58.9h25.3v-3.4l-6.9.2v-47.2h-18.2v3.7l7-.3v43.8l-7.2-.2zm46.7.8c11.6 0 18.9-5.4 18.9-19.5v-48.7l7.4.2v-4h-32.5v4l12.3-.2v47.7c0 13.6-2.1 16.3-6.6 16.3-5.4 0-8.9-2.9-7.8-26.4h-10.4c-1.3 24.3 5.2 30.6 18.7 30.6zm40.9-59.7c4.3 0 6.1-2.2 6.1-6.9s-1.8-6.9-6.1-6.9c-4.5 0-6.5 2.2-6.5 6.9s2 6.9 6.5 6.9zm-14.4 80.6 19.8-15v-57.1h-18v3.7l6.8-.3v56.9l-11.2 7.5zm54.2-21.7v-3.8l-7.2.3v-32.4h3.9l15.3 32.3-6.1-.2v3.8h26.1v-3.8l-4.9.2-19.5-39.3 15.3-24.5 7.3.2v-4h-22.4v4l10-.2-16.3 26.1h-8.7v-26.1l7.3.2v-4h-27.5v4l7.4-.2v63.9l-7.4-.3v3.8z"/></g></svg>