<svg height="99" viewBox="0 0 156 99" width="156" xmlns="http://www.w3.org/2000/svg"><g fill="none" fill-rule="evenodd"><path d="m124.349303 72.5795481-46.349303 24.8204519-8.8304172-16.4482068c-7.016169 4.7057689-15.4657323 7.4482068-24.5695828 7.4482068-24.4 0-44.1-19.7-44.1-44.1 0-3.0818647.31847825-6.091348.92422335-8.9972384 2.76144203 16.9154732 14.99150085 31.4890625 32.47577665 36.2972384 16.2 4.4 32.7-.6 43.8-11.7l4.1 21zm.012327-.0024106 22.23837 15.8228625 8.4-88.1-21.618356 9.8826772 11.318356 58.4173228zm-46.5892276-57.3312732c-8.0757329-9.21569538-19.9321032-15.0458643-33.1724024-15.0458643-14.2905429 0-27.0247711 6.84778475-35.09083361 17.4315032l63.39083361 17.4684968-3.6-18.2z" fill="#000"/><g transform="translate(15 36)"><g fill="#201f1f"><path d="m13.9 18.2c-.2.1-.4.3-.7.5s-.7.4-1.2.7c-.5.2-1.1.4-1.8.6s-1.5.2-2.3.2c-1.2 0-2.2-.2-3.2-.5-.9-.4-1.7-.9-2.4-1.5s-1.2-1.4-1.5-2.3-.5-1.9-.5-3c0-1 .2-1.9.5-2.8s.8-1.7 1.4-2.3c.6-.7 1.4-1.2 2.2-1.6.9-.4 1.9-.6 3-.6s2.1.2 2.9.6 1.6.9 2.1 1.6c.6.7 1 1.5 1.3 2.5s.4 2 .4 3.2v.7h-9.8c0 .7.3 1.4 1 1.9.6.6 1.5.8 2.6.8s2-.2 2.7-.5 1.2-.6 1.5-.8zm-3.7-6.8c0-.3-.1-.6-.2-.9s-.3-.6-.5-.8c-.2-.3-.5-.5-.9-.6-.4-.2-.8-.2-1.3-.2s-.9.1-1.3.2c-.4.2-.7.4-.9.6-.2.3-.4.5-.6.8-.1.3-.2.6-.2.9z"/><path d="m15.9 5.9h4.1l.1 1.5c.5-.5 1-1 1.8-1.3.7-.3 1.5-.5 2.3-.5 1.6 0 2.8.5 3.8 1.4.9.9 1.4 2.3 1.4 4.2v8.5h-4.2v-7.9c0-.8-.2-1.4-.6-1.8-.4-.5-.9-.7-1.6-.7-.5 0-.9.1-1.2.2-.4.2-.6.4-.9.7-.2.3-.4.6-.5 1s-.2.7-.2 1.2v7.4h-4.2v-13.9z"/><path d="m41 18.3c-.4.5-1 .9-1.7 1.3-.7.3-1.4.5-2.3.5-.8 0-1.6-.2-2.4-.5-.7-.3-1.4-.8-1.9-1.4s-1-1.4-1.3-2.2c-.3-.9-.5-1.9-.5-2.9 0-1.2.2-2.3.7-3.2.4-.9 1-1.7 1.7-2.3s1.5-1.1 2.3-1.4c.9-.3 1.7-.5 2.5-.5.7 0 1.2 0 1.6.1s.8.2 1.1.3v-6h4.2v19.6h-3.9zm-.1-8.6c-.3-.2-.6-.3-1-.4-.3-.1-.8-.1-1.3-.1-1.1 0-1.9.4-2.5 1.1s-.9 1.7-.9 2.8c0 1 .2 1.8.7 2.5.5.6 1.2 1 2.2 1 .5 0 .9-.1 1.2-.2.3-.2.6-.4.9-.7.2-.3.4-.6.5-1s.1-.8.1-1.1v-3.9z"/><path d="m48.7 15.4c.4.4 1 .8 1.8 1 .7.3 1.4.4 2.1.4.6 0 1.1-.1 1.6-.2.4-.2.6-.5.6-.9 0-.2 0-.3-.1-.5-.1-.1-.3-.3-.5-.4s-.6-.3-1-.4-1-.3-1.6-.5c-.5-.1-1.1-.3-1.6-.5s-1-.5-1.4-.8-.7-.7-1-1.2c-.2-.5-.4-1-.4-1.6s.1-1.2.4-1.7.7-1 1.2-1.4 1.1-.7 1.8-.9 1.5-.3 2.3-.3c1.2 0 2.2.1 3.1.4s1.7.6 2.4 1.2l-1.8 2.8c-.4-.3-1-.6-1.5-.8-.6-.2-1.2-.4-2-.4-.6 0-1.1.1-1.4.3s-.4.4-.4.7c0 .5.3.8.9 1s1.4.5 2.5.7c1.4.4 2.4.9 3.1 1.6.6.7 1 1.6 1 2.7 0 .8-.2 1.4-.5 2-.3.5-.8 1-1.4 1.4s-1.2.6-2 .8c-.7.2-1.5.3-2.2.3-1.2 0-2.4-.2-3.5-.5s-2-.8-2.7-1.5z"/><path d="m60.7.1h4.2v19.6h-4.2z"/><path d="m80.4 18.2c-.2.1-.4.3-.7.5s-.7.4-1.2.7c-.5.2-1.1.4-1.8.6s-1.5.2-2.3.2c-1.2 0-2.2-.2-3.2-.5-.9-.4-1.7-.9-2.4-1.5s-1.2-1.4-1.5-2.3-.5-1.9-.5-3c0-1 .2-1.9.5-2.8s.8-1.7 1.4-2.3c.6-.7 1.3-1.2 2.2-1.6s1.9-.6 3-.6 2.1.2 2.9.6 1.5.9 2.1 1.6 1 1.5 1.3 2.5.4 2 .4 3.2v.7h-9.8c0 .7.3 1.4 1 1.9.6.6 1.5.8 2.6.8s2-.2 2.7-.5 1.2-.6 1.5-.8zm-3.7-6.8c0-.3-.1-.6-.2-.9s-.3-.6-.5-.8c-.2-.3-.5-.5-.9-.6-.4-.2-.8-.2-1.3-.2s-.9.1-1.3.2c-.4.2-.7.4-.9.6-.2.3-.4.5-.6.8-.1.3-.2.6-.2.9z"/><path d="m82.5 5.9h4.2v13.8h-4.2z"/><path d="m91.4 21.5c.5.3 1.1.6 1.7.8s1.3.3 2 .3c1 0 1.7-.3 2.3-.8.5-.5.8-1.3.8-2.3v-1c-.9.8-2.1 1.1-3.5 1.1-1 0-1.9-.2-2.6-.5-.8-.3-1.4-.8-2-1.4-.5-.6-.9-1.3-1.2-2.1s-.4-1.7-.4-2.6c0-1.1.2-2.1.6-3s.9-1.7 1.6-2.3c.7-.7 1.5-1.2 2.5-1.5 1-.4 2-.5 3.2-.5 1.1 0 2.2.1 3.2.3s2 .4 2.8.7v12.6c0 2.3-.6 3.9-1.9 5s-3 1.6-5.1 1.6c-1.2 0-2.3-.1-3.2-.4-.9-.2-1.8-.6-2.5-1.1zm6.9-12.1c-.3-.1-.5-.2-.8-.2s-.6-.1-1.1-.1c-.6 0-1.1.1-1.6.3-.4.2-.8.5-1.1.8s-.5.7-.7 1.2c-.1.5-.2.9-.2 1.5 0 1 .2 1.8.7 2.4s1.2.9 2.1.9 1.5-.2 2-.6.7-1.1.7-2z"/><path d="m104.6.1h4.2v7.1c.5-.5 1-.9 1.8-1.2.7-.3 1.5-.4 2.3-.4 1.6 0 2.9.5 3.8 1.4s1.4 2.3 1.4 4.2v8.5h-4.2v-7.9c0-.8-.2-1.4-.6-1.9s-1-.7-1.6-.7c-.4 0-.9.1-1.2.2-.4.2-.6.4-.9.7-.2.3-.4.6-.5 1s-.2.7-.2 1.2v7.4h-4.2v-19.6z"/></g><path d="m82.5.1h4.2v4.2h-4.2z" fill="#000"/></g></g></svg>