<svg width="1504" height="816" viewBox="0 0 1504 816" fill="none" xmlns="http://www.w3.org/2000/svg">
<rect width="1504" height="816" fill="#F9F5F2"/>
<g clip-path="url(#clip0_184_105)">
<path d="M434.757 417.809L413.88 433.177C411.376 434.853 409.427 435.971 406.922 435.971C401.911 435.971 397.735 431.501 397.735 426.471C397.735 422.279 401.076 419.206 404.138 417.809L428.634 407.191L404.138 396.294C400.798 394.897 397.735 391.824 397.735 387.632C397.735 382.603 402.189 378.412 407.2 378.412C409.706 378.412 411.376 379.251 413.88 381.206L434.757 396.574L431.974 371.707C431.139 365.839 435.037 361.088 440.603 361.088C446.171 361.088 450.068 365.559 449.232 371.426L446.449 396.574L467.326 381.206C469.831 379.251 471.78 378.412 474.285 378.412C479.295 378.412 483.471 382.603 483.471 387.632C483.471 392.103 480.409 394.897 477.069 396.294L452.572 407.191L477.069 417.809C480.409 419.206 483.471 422.279 483.471 426.751C483.471 431.78 479.017 435.971 474.007 435.971C471.78 435.971 469.831 434.853 467.326 433.177L446.449 417.809L449.232 442.676C450.068 448.544 446.171 453.294 440.603 453.294C435.037 453.294 431.139 448.823 431.974 442.956L434.757 417.809Z" fill="#E77938"/>
</g>
<g clip-path="url(#clip1_184_105)">
<path d="M578.966 424.151C577.604 424.145 576.288 424.649 575.269 425.567C570.219 429.901 565.266 432.318 557.923 432.318C544.655 432.318 535.033 421.133 535.033 407.267V407.067C535.033 393.289 544.753 382.18 557.923 382.18C564.017 382.188 569.9 384.444 574.481 388.53C575.385 389.179 576.444 389.568 577.547 389.657C578.651 389.746 579.757 389.532 580.75 389.036C581.744 388.54 582.587 387.781 583.192 386.839C583.798 385.897 584.142 384.807 584.189 383.683C584.193 382.729 583.981 381.788 583.569 380.932C583.156 380.076 582.555 379.328 581.811 378.748C575.775 374.013 568.728 370.794 558.022 370.794C537.078 370.794 522.294 387.215 522.294 407.267V407.468C522.294 427.734 537.361 443.791 557.578 443.791C568.777 443.791 576.218 440.171 582.76 434.322C583.378 433.765 583.874 433.083 584.215 432.319C584.557 431.555 584.737 430.727 584.744 429.888C584.702 428.356 584.076 426.901 582.997 425.83C581.919 424.759 580.473 424.157 578.966 424.151ZM624.364 401.681C610.973 398.45 607.807 396.032 607.807 390.597V390.396C607.807 385.749 611.971 382.029 619.104 382.029C624.562 382.029 629.711 383.833 635.12 387.365C636.073 387.968 637.175 388.285 638.298 388.279C639.047 388.288 639.79 388.145 640.485 387.86C641.18 387.575 641.812 387.154 642.346 386.619C642.879 386.085 643.303 385.449 643.594 384.747C643.885 384.045 644.036 383.292 644.039 382.53C644.065 381.54 643.831 380.561 643.361 379.694C642.891 378.827 642.203 378.102 641.366 377.595C634.865 373.172 627.184 370.886 619.363 371.045C605.589 371.045 595.684 379.399 595.684 391.498V391.699C595.684 404.7 604 409.134 618.771 412.766C631.658 415.784 634.43 418.503 634.43 423.55V423.751C634.43 428.986 629.675 432.619 622.11 432.619C614.993 432.615 608.109 430.046 602.681 425.367C601.817 424.737 600.801 424.357 599.742 424.267C598.682 424.177 597.618 424.381 596.663 424.856C595.708 425.331 594.898 426.06 594.317 426.966C593.737 427.872 593.409 428.921 593.368 430.001C593.363 430.926 593.576 431.838 593.99 432.662C594.404 433.486 595.006 434.197 595.745 434.735C603.247 440.501 612.398 443.615 621.802 443.603C636.377 443.603 646.59 435.737 646.59 422.536V422.335C646.627 410.649 639.025 405.301 624.364 401.681ZM685.804 401.681C672.424 398.45 669.258 396.032 669.258 390.597V390.396C669.258 385.749 673.422 382.029 680.556 382.029C686.001 382.029 691.163 383.833 696.572 387.365C697.525 387.968 698.627 388.285 699.75 388.279C700.499 388.288 701.242 388.145 701.937 387.86C702.631 387.575 703.264 387.154 703.797 386.619C704.331 386.085 704.755 385.449 705.046 384.747C705.337 384.045 705.488 383.292 705.491 382.53C705.517 381.54 705.283 380.561 704.813 379.694C704.343 378.827 703.654 378.102 702.818 377.595C696.299 373.16 688.595 370.873 680.753 371.045C666.979 371.045 657.062 379.399 657.062 391.498V391.699C657.062 404.7 665.39 409.134 680.162 412.766C693.048 415.784 695.82 418.503 695.82 423.55V423.751C695.82 428.986 691.065 432.619 683.5 432.619C676.388 432.612 669.508 430.043 664.084 425.367C663.218 424.738 662.202 424.359 661.142 424.27C660.082 424.18 659.018 424.383 658.063 424.858C657.107 425.333 656.295 426.062 655.714 426.967C655.132 427.872 654.802 428.92 654.758 430.001C654.756 430.925 654.971 431.837 655.384 432.66C655.798 433.483 656.398 434.194 657.136 434.735C664.643 440.498 673.797 443.612 683.204 443.603C697.779 443.603 707.98 435.737 707.98 422.536V422.335C708.004 410.649 700.477 405.301 685.804 401.681ZM742.007 405.714H723.367C721.851 405.785 720.419 406.447 719.37 407.563C718.321 408.68 717.736 410.164 717.736 411.708C717.736 413.251 718.321 414.736 719.37 415.852C720.419 416.968 721.851 417.63 723.367 417.701H742.007C743.524 417.63 744.956 416.968 746.005 415.852C747.054 414.736 747.639 413.251 747.639 411.708C747.639 410.164 747.054 408.68 746.005 407.563C744.956 406.447 743.524 405.785 742.007 405.714ZM798.162 372.047H752.11C751.346 372.01 750.583 372.132 749.866 372.404C749.15 372.676 748.495 373.094 747.942 373.63C747.389 374.167 746.948 374.813 746.647 375.528C746.346 376.242 746.191 377.012 746.191 377.789C746.191 378.567 746.346 379.336 746.647 380.051C746.948 380.766 747.389 381.412 747.942 381.948C748.495 382.485 749.15 382.902 749.866 383.175C750.583 383.447 751.346 383.569 752.11 383.532H768.951V436.952C768.951 438.613 769.6 440.206 770.755 441.38C771.911 442.555 773.478 443.215 775.111 443.215C776.745 443.215 778.312 442.555 779.467 441.38C780.622 440.206 781.271 438.613 781.271 436.952V383.532H798.162C799.614 383.463 800.985 382.828 801.989 381.759C802.992 380.689 803.553 379.268 803.553 377.789C803.553 376.311 802.992 374.89 801.989 373.82C800.985 372.751 799.614 372.116 798.162 372.047ZM846.025 372.047H821.286C820.474 372.033 819.667 372.186 818.913 372.496C818.16 372.806 817.476 373.266 816.901 373.851C816.326 374.435 815.873 375.131 815.568 375.897C815.263 376.663 815.113 377.483 815.126 378.309V436.965C815.335 438.458 816.067 439.823 817.188 440.812C818.308 441.8 819.741 442.344 821.224 442.344C822.708 442.344 824.141 441.8 825.261 440.812C826.382 439.823 827.114 438.458 827.323 436.965V418.002H842.686L859.527 439.87C860.17 440.876 861.053 441.7 862.093 442.265C863.134 442.83 864.298 443.118 865.478 443.102C866.234 443.115 866.984 442.977 867.688 442.695C868.389 442.414 869.032 441.994 869.575 441.46C870.117 440.926 870.554 440.289 870.853 439.584C871.155 438.879 871.317 438.121 871.33 437.353C871.262 435.581 870.557 433.896 869.348 432.619L856.065 415.584C865.379 412.666 871.822 405.815 871.822 394.517V394.316C871.894 391.52 871.423 388.737 870.434 386.125C869.447 383.514 867.963 381.126 866.07 379.098C861.622 374.664 854.833 372.047 846.062 372.047H846.025ZM859.441 395.218C859.441 402.37 853.897 407.004 845.174 407.004H827.335V383.332H845.076C854.094 383.332 859.441 387.465 859.441 395.03V395.218ZM892.642 371.546C891.838 371.527 891.037 371.673 890.292 371.974C889.543 372.275 888.862 372.726 888.285 373.299C887.711 373.872 887.257 374.557 886.948 375.312C886.639 376.067 886.481 376.877 886.484 377.695V436.952C886.553 438.547 887.227 440.052 888.36 441.155C889.494 442.258 891.006 442.873 892.577 442.873C894.144 442.873 895.656 442.258 896.79 441.155C897.924 440.052 898.597 438.547 898.669 436.952V377.683C898.673 376.877 898.521 376.077 898.219 375.331C897.92 374.585 897.473 373.907 896.913 373.337C896.353 372.766 895.69 372.314 894.955 372.006C894.223 371.699 893.436 371.542 892.642 371.546ZM969.851 424.151C968.49 424.141 967.174 424.646 966.157 425.567C961.092 429.901 956.14 432.318 948.811 432.318C935.53 432.318 925.908 421.133 925.908 407.267V407.067C925.908 393.289 935.626 382.18 948.811 382.18C954.9 382.188 960.779 384.445 965.356 388.53C966.415 389.354 967.717 389.795 969.05 389.782C969.841 389.799 970.628 389.655 971.363 389.358C972.098 389.061 972.765 388.618 973.332 388.054C973.895 387.49 974.342 386.817 974.645 386.075C974.95 385.333 975.105 384.537 975.102 383.733C975.098 382.78 974.885 381.841 974.473 380.986C974.06 380.131 973.462 379.382 972.724 378.798C966.672 374.063 959.638 370.844 948.935 370.844C927.915 370.844 913.204 387.265 913.204 407.318V407.518C913.204 427.784 928.259 443.841 948.488 443.841C959.687 443.841 967.116 440.221 973.658 434.372C974.277 433.816 974.772 433.133 975.115 432.369C975.456 431.606 975.638 430.777 975.641 429.938C975.614 428.395 974.992 426.925 973.909 425.844C972.827 424.762 971.37 424.154 969.851 424.151ZM1020.36 403.084L1041.97 381.929C1042.65 381.364 1043.19 380.655 1043.57 379.852C1043.95 379.049 1044.15 378.172 1044.15 377.282C1044.16 376.525 1044.02 375.775 1043.74 375.074C1043.46 374.373 1043.04 373.737 1042.51 373.203C1041.99 372.668 1041.36 372.246 1040.67 371.962C1039.98 371.677 1039.24 371.536 1038.5 371.546C1037.54 371.533 1036.59 371.741 1035.72 372.153C1034.85 372.565 1034.08 373.171 1033.47 373.925L1000.58 407.518V377.683C1000.51 376.088 999.836 374.583 998.702 373.48C997.564 372.377 996.056 371.762 994.485 371.762C992.915 371.762 991.407 372.377 990.273 373.48C989.135 374.583 988.465 376.088 988.393 377.683V436.94C988.465 438.534 989.135 440.039 990.273 441.143C991.407 442.245 992.915 442.861 994.485 442.861C996.056 442.861 997.564 442.245 998.702 441.143C999.836 440.039 1000.51 438.534 1000.58 436.94V422.335L1011.88 411.25L1034.17 440.184C1034.72 441.071 1035.49 441.803 1036.39 442.313C1037.29 442.823 1038.3 443.094 1039.34 443.102C1040.14 443.133 1040.93 442.998 1041.68 442.708C1042.43 442.417 1043.11 441.976 1043.69 441.411C1044.26 440.846 1044.72 440.169 1045.03 439.42C1045.34 438.671 1045.5 437.866 1045.5 437.052C1045.49 435.417 1044.89 433.841 1043.82 432.619L1020.36 403.084ZM1084.18 401.681C1070.8 398.45 1067.64 396.032 1067.64 390.597V390.396C1067.64 385.749 1071.8 382.029 1078.93 382.029C1084.39 382.029 1089.54 383.833 1094.95 387.365C1095.9 387.968 1097.01 388.285 1098.13 388.279C1098.88 388.288 1099.62 388.145 1100.31 387.86C1101.01 387.575 1101.64 387.154 1102.17 386.619C1102.71 386.085 1103.13 385.449 1103.42 384.747C1103.71 384.045 1103.86 383.292 1103.87 382.53C1103.9 381.544 1103.67 380.568 1103.2 379.701C1102.74 378.834 1102.06 378.107 1101.23 377.595C1094.73 373.172 1087.05 370.886 1079.23 371.045C1065.45 371.045 1055.54 379.399 1055.54 391.498V391.699C1055.54 404.7 1063.87 409.134 1078.64 412.766C1091.52 415.784 1094.29 418.503 1094.29 423.55V423.751C1094.29 428.986 1089.54 432.619 1081.98 432.619C1074.86 432.612 1067.98 430.043 1062.56 425.367C1061.69 424.738 1060.68 424.359 1059.62 424.27C1058.56 424.18 1057.49 424.383 1056.54 424.858C1055.58 425.333 1054.77 426.062 1054.19 426.967C1053.61 427.872 1053.28 428.92 1053.23 430.001C1053.23 430.927 1053.45 431.839 1053.86 432.663C1054.28 433.487 1054.88 434.197 1055.62 434.735C1063.12 440.501 1072.28 443.615 1081.68 443.603C1096.25 443.603 1106.46 435.737 1106.46 422.536V422.335C1106.42 410.649 1098.89 405.301 1084.22 401.681H1084.18Z" fill="black"/>
</g>
<defs>
<clipPath id="clip0_184_105">
<rect width="85.7353" height="92.2059" fill="white" transform="translate(397.735 361.088)"/>
</clipPath>
<clipPath id="clip1_184_105">
<rect width="583.971" height="110" fill="white" transform="translate(522.294 353)"/>
</clipPath>
</defs>
</svg>
