<svg viewBox="0 0 362.61569 388.51709" xmlns="http://www.w3.org/2000/svg"><path d="m156.584 238.9995-88.2989 64.752c-10.5932 7.06342-18.8369 11.77341-29.4306 11.77341-21.1939-.00001-38.8545-18.83692-38.8545-40.0312 0-17.66022 14.1308-30.61142 27.081-36.49422l103.60259-44.7412-103.60259-45.9141c-14.1269-5.88719-27.081-18.83738-27.081-36.49799 0-21.1904 18.8369-38.8506 40.0312-38.8506 10.5972 0 17.6607 3.5332 28.2539 11.7734l88.2989 64.7515-11.7735-104.7788c-3.5303-24.7241 12.9541-44.7417 36.4971-44.7417 23.54829 0 40.03079 18.8369 36.4975 43.561l-11.77341 105.95949 88.29881-64.7515c10.59769-8.2402 18.83789-11.7734 29.43561-11.7734 21.18939 0 38.84958 17.6602 38.84958 38.8506 0 18.83691-12.94919 30.6108-27.0762 36.49799l-103.60739 45.91412 103.60739 44.7412c14.12701 5.8828 27.0762 18.834 27.0762 37.67479 0 21.1904-18.83591 38.85062-40.02731 38.85062-9.41998 0-17.66019-4.70999-28.25787-11.77341l-88.29881-64.752 11.77341 104.77931c3.53329 24.7236-12.9492 44.73828-36.4975 44.73828-23.543 0-40.0274-18.83789-36.4971-43.56149z"/></svg>