<svg id="Layer_1" data-name="Layer 1" xmlns="http://www.w3.org/2000/svg" viewBox="0 0 661.78 313.07"><defs><style>.cls-1{fill:#231f20;}.cls-2{fill:#a7a9ac;}.cls-3{fill:#f1573a;}</style></defs><title>alt_dieresis_unoutlined_v3</title><path class="cls-1" d="M3.48,59.44H14c10.17,0,19.59,6.18,19.59,18.83,0,12.81-9.31,18.93-19.54,18.93H3.48V59.44Zm7.24,31.23h3.54c6.38,0,12.1-4.15,12.1-12.4S20.64,66,14.26,66H10.72v24.7Z"/><path class="cls-2" d="M77.88,78.27c0,11.13-9.16,20.14-20.8,20.14s-20.8-9-20.8-20.14,9.11-20,20.8-20S77.88,67.19,77.88,78.27Zm-34.32,0A13.51,13.51,0,1,0,57.08,64.86,13.54,13.54,0,0,0,43.56,78.27ZM54.5,56.36H48.27V51H54.5v5.36Zm11.39,0H59.66V51h6.23v5.36Z"/><path class="cls-1" d="M88.81,71.59V97.2H81.57V59.44h7.14L107,84.9V59.44h7.24V97.2h-7Z"/><path class="cls-1" d="M119.23,59.44h20.65v6.38H126.46v8.86h12.2V80.6h-12.2V90.82h13.82V97.2H119.23V59.44Z"/><path class="cls-1" d="M152.53,83.38H152V97.2h-7.24V59.44h9.82c7.74,0,13.92,3.39,13.92,12,0,5.42-3.54,9.06-8,10.78L172.27,97.2h-8.76ZM152,65.92V77.51h2.68c4,0,6.63-2.33,6.63-5.92,0-3.39-2.33-5.67-6.58-5.67H152Z"/><path class="cls-3" d="M196.86,91.94v-0.4l11.08-11H182.54V73.62h25.41l-11.08-11v-0.4h8.76L220.15,76.7v0.71L205.62,91.94h-8.76Z"/><path class="cls-1" d="M233.76,59.44h10.53c10.17,0,19.59,6.18,19.59,18.83,0,12.81-9.31,18.93-19.54,18.93H233.76V59.44ZM241,90.67h3.54c6.38,0,12.1-4.15,12.1-12.4S250.92,66,244.54,66H241v24.7Z"/><path class="cls-1" d="M287.36,98.42c-11.69,0-20.8-9-20.8-20.14a19.64,19.64,0,0,1,4.76-12.86h-4v-6h6.88v3.24a21.65,21.65,0,0,1,26.37.05V59.44h6.88v6h-4.1a19.42,19.42,0,0,1,4.81,12.86C308.16,89.41,299,98.42,287.36,98.42ZM273.84,78.27a13.51,13.51,0,1,0,13.51-13.41A13.54,13.54,0,0,0,273.84,78.27Z"/><path class="cls-1" d="M319.09,71.59V97.2h-7.24V59.44H319L337.31,84.9V59.44h7.24V97.2h-7Z"/><path class="cls-1" d="M349.51,59.44h20.65v6.38H356.74v8.86h12.2V80.6h-12.2V90.82h13.82V97.2H349.51V59.44Z"/><path class="cls-1" d="M382.81,83.38H382.3V97.2h-7.24V59.44h9.82c7.74,0,13.92,3.39,13.92,12,0,5.42-3.54,9.06-8,10.78L402.55,97.2h-8.76ZM382.3,65.92V77.51H385c4,0,6.63-2.33,6.63-5.92,0-3.39-2.33-5.67-6.58-5.67H382.3Z"/><path class="cls-1" d="M20.94,231.79a10.93,10.93,0,0,0-6-2.18c-3.34,0-4.61,1.62-4.61,3.29,0,2.23,1.87,3.75,5.82,7,6.28,5.26,8.45,8.5,8.45,12.45,0,6.48-5.52,10.38-12.55,10.38a22.12,22.12,0,0,1-10.48-2.83l2.73-5.67a15.65,15.65,0,0,0,7.79,2.53c3.39,0,5.16-2.07,5.16-4.2,0-2.33-1.87-4.25-6.12-7.74-6-5-8.3-7.54-8.3-11.89,0-4.76,3.69-9.31,12-9.31a19,19,0,0,1,8.86,2.48Z"/><path class="cls-1" d="M35.62,248.75v13.41H28.38V224.4H38.71c8,0,14.27,2.78,14.32,12.2-0.05,8.5-7.39,12.15-14.53,12.15H35.62Zm0-17.87v11.49h3.59c3.95,0,6.63-2.18,6.63-5.77-0.05-3.44-1.92-5.72-6.63-5.72H35.62Z"/><path class="cls-2" d="M76.87,255.63H60.11l-2.48,6.53H50.14L65,224.4h7.19l14.88,37.76H79.3ZM65.93,221.31H59.71v-5.37h6.23v5.37Zm2.58,11.94-6.23,16.55h12.4Zm8.81-11.94H71.1v-5.37h6.23v5.37Z"/><path class="cls-1" d="M91.9,230.88H85.27V224.4h20.5v6.48H99.14v31.28H91.9V230.88Z"/><path class="cls-1" d="M106.37,262.16l-0.15-.86,18.17-30.67H108.5l2.73-6.23h24.35l0.15,0.91-18.27,30.62h19.28l-2.58,6.23H106.37Z"/><path class="cls-1" d="M147,224.4v31.23h13.21v6.53H139.78V224.4H147Z"/><path class="cls-1" d="M163.41,224.4h20.65v6.38H170.65v8.86h12.2v5.92h-12.2v10.22h13.82v6.38H163.41V224.4Z"/><path class="cls-3" d="M210.58,256.89v-0.4l11.08-11H196.26v-6.88h25.41l-11.08-11v-0.41h8.76l14.53,14.53v0.71l-14.53,14.53h-8.76Z"/><path class="cls-1" d="M264.94,231.79a10.93,10.93,0,0,0-6-2.18c-3.34,0-4.61,1.62-4.61,3.29,0,2.23,1.87,3.75,5.82,7,6.28,5.26,8.45,8.5,8.45,12.45,0,6.48-5.52,10.38-12.55,10.38a22.12,22.12,0,0,1-10.48-2.83l2.73-5.67a15.65,15.65,0,0,0,7.79,2.53c3.39,0,5.16-2.07,5.16-4.2,0-2.33-1.87-4.25-6.12-7.74-6-5-8.3-7.54-8.3-11.89,0-4.76,3.69-9.31,12-9.31a19,19,0,0,1,8.86,2.48Z"/><path class="cls-1" d="M279.61,248.75v13.41h-7.24V224.4H282.7c8,0,14.27,2.78,14.32,12.2-0.05,8.5-7.39,12.15-14.53,12.15h-2.88Zm0-17.87v11.49h3.59c3.95,0,6.63-2.18,6.63-5.77-0.05-3.44-1.92-5.72-6.63-5.72h-3.59Z"/><path class="cls-1" d="M320.86,255.63H304.11l-2.48,6.53h-7.49L309,224.4h7.19l14.88,37.76h-7.79Zm-15.34-25.26h-7v-6h7v6Zm7,2.88-6.23,16.55h12.4Zm14.17-2.88H319.6v-6h7.09v6Z"/><path class="cls-1" d="M335.89,230.88h-6.63V224.4h20.5v6.48h-6.63v31.28h-7.24V230.88Z"/><path class="cls-1" d="M350.37,262.16l-0.15-.86,18.17-30.67H352.49l2.73-6.23h24.34l0.15,0.91-18.27,30.62h19.28l-2.58,6.23H350.37Z"/><path class="cls-1" d="M391,224.4v31.23h13.21v6.53H383.77V224.4H391Z"/><path class="cls-1" d="M407.41,224.4h20.65v6.38H414.64v8.86h12.2v5.92h-12.2v10.22h13.82v6.38H407.41V224.4Z"/><path class="cls-1" d="M3.48,180V142.2H15.37C24,142.2,27,146.5,27,151.92a9.76,9.76,0,0,1-4.61,8.1,10.61,10.61,0,0,1,6.07,9.67c0,5.21-3.64,10.27-12,10.27h-13Zm7.24-31.89V158h2.94c4.25,0,6.73-2.08,6.73-5.16,0-2.78-1.52-4.76-6.53-4.76H10.72Zm0,15.13v10.88h3.75c5.16,0,6.68-2.43,6.68-5.26,0-3.49-2.48-5.62-6.83-5.62H10.72Z"/><path class="cls-1" d="M32.38,142.2h7.24V180H32.38V142.2Z"/><path class="cls-1" d="M44.63,142.2H65.28v6.38H51.86v8.86h12.2v5.92H51.86v10.22H65.68V180H44.63V142.2Z"/><path class="cls-1" d="M77.93,166.14H77.42V180H70.18V142.2H80c7.74,0,13.92,3.39,13.92,12,0,5.42-3.54,9.06-8,10.78L97.67,180H88.91Zm-0.51-17.46v11.59H80.1c4,0,6.63-2.33,6.63-5.92,0-3.39-2.33-5.67-6.58-5.67H77.42Z"/><path class="cls-1" d="M121.15,153.43L113.71,180h-6.93L95.95,142.2h7.59l7.24,27.13L118,142.2h6.58l7.19,27.13L139,142.2h7.24L135.42,180h-7Z"/><path class="cls-2" d="M163.71,181.17c-9.62,0-14.88-6.28-14.88-16.85V142.2h7.24v23.64c0,5.77,3.69,8.76,7.64,8.76s7.69-3,7.69-8.76V142.2h7.24v22.12C178.65,174.89,173.48,181.17,163.71,181.17Zm-2.58-42.06h-6.23v-5.36h6.23v5.36Zm11.39,0H166.3v-5.36h6.23v5.36Z"/><path class="cls-1" d="M191.35,166.14h-0.51V180H183.6V142.2h9.82c7.74,0,13.92,3.39,13.92,12,0,5.42-3.54,9.06-8,10.78L211.09,180h-8.76Zm-0.51-17.46v11.59h2.68c4,0,6.63-2.33,6.63-5.92,0-3.39-2.33-5.67-6.58-5.67h-2.73Z"/><path class="cls-1" d="M230.67,149.59a10.92,10.92,0,0,0-6-2.18c-3.34,0-4.61,1.62-4.61,3.29,0,2.23,1.87,3.75,5.82,7,6.28,5.26,8.45,8.5,8.45,12.45,0,6.48-5.52,10.38-12.55,10.38a22.12,22.12,0,0,1-10.48-2.83l2.73-5.67a15.65,15.65,0,0,0,7.79,2.53c3.39,0,5.16-2.07,5.16-4.2,0-2.33-1.87-4.25-6.12-7.74-6-5-8.3-7.54-8.3-11.89,0-4.76,3.69-9.31,12-9.31a19,19,0,0,1,8.86,2.48Z"/><path class="cls-1" d="M241.3,148.68h-6.63V142.2h20.5v6.48h-6.63V180H241.3V148.68Z"/><path class="cls-1" d="M258.1,142.2h20.65v6.38H265.34v8.86h12.2v5.92h-12.2v10.22h13.82V180H258.1V142.2Z"/><path class="cls-3" d="M305.27,174.69v-0.4l11.08-11H290.95v-6.88h25.41l-11.08-11v-0.4H314l14.53,14.53v0.71L314,174.69h-8.76Z"/><path class="cls-1" d="M342.17,180V142.2h11.89c8.66,0,11.59,4.3,11.59,9.72A9.76,9.76,0,0,1,361,160a10.61,10.61,0,0,1,6.07,9.67c0,5.21-3.64,10.27-12,10.27h-13Zm7.24-31.89V158h2.94c4.25,0,6.73-2.08,6.73-5.16,0-2.78-1.52-4.76-6.53-4.76H349.4Zm0,15.13v10.88h3.75c5.16,0,6.68-2.43,6.68-5.26,0-3.49-2.48-5.62-6.83-5.62H349.4Z"/><path class="cls-1" d="M371.07,142.2h7.24V180h-7.24V142.2Z"/><path class="cls-1" d="M383.31,142.2H404v6.38H390.55v8.86h12.2v5.92h-12.2v10.22h13.82V180H383.31V142.2Z"/><path class="cls-1" d="M416.61,166.14h-0.51V180h-7.24V142.2h9.82c7.74,0,13.92,3.39,13.92,12,0,5.42-3.54,9.06-8,10.78L436.35,180H427.6Zm-0.51-17.46v11.59h2.68c4,0,6.63-2.33,6.63-5.92,0-3.39-2.33-5.67-6.58-5.67h-2.73Z"/><path class="cls-1" d="M459.84,153.43L452.4,180h-6.93L434.63,142.2h7.59l7.24,27.13,7.24-27.13h6.58l7.19,27.13,7.24-27.13h7.24L474.11,180h-7Z"/><path class="cls-1" d="M494.76,147.56h-7.24V142.2h7.24v5.37Zm7.64,33.61c-9.62,0-14.88-6.28-14.88-16.85V148.58h7.24v17.26c0,5.77,3.69,8.76,7.64,8.76s7.69-3,7.69-8.76V148.58h7.24v15.74C517.33,174.89,512.12,181.17,502.4,181.17Zm14.93-33.61h-7.24V142.2h7.24v5.37Z"/><path class="cls-1" d="M530,166.14h-0.51V180h-7.24V142.2h9.82c7.74,0,13.92,3.39,13.92,12,0,5.42-3.54,9.06-8,10.78L549.77,180H541Zm-0.51-17.46v11.59h2.68c4,0,6.63-2.33,6.63-5.92,0-3.39-2.33-5.67-6.58-5.67h-2.73Z"/><path class="cls-1" d="M569.36,149.59a10.92,10.92,0,0,0-6-2.18c-3.34,0-4.61,1.62-4.61,3.29,0,2.23,1.87,3.75,5.82,7,6.28,5.26,8.45,8.5,8.45,12.45,0,6.48-5.52,10.38-12.55,10.38A22.12,22.12,0,0,1,550,177.73l2.73-5.67a15.65,15.65,0,0,0,7.79,2.53c3.39,0,5.16-2.07,5.16-4.2,0-2.33-1.87-4.25-6.12-7.74-6-5-8.3-7.54-8.3-11.89,0-4.76,3.69-9.31,12-9.31a19,19,0,0,1,8.86,2.48Z"/><path class="cls-1" d="M580,148.68h-6.63V142.2h20.5v6.48h-6.63V180H580V148.68Z"/><path class="cls-1" d="M596.79,142.2h20.65v6.38H604v8.86h12.2v5.92H604v10.22h13.82V180H596.79V142.2Z"/><path class="cls-3" d="M191.88,50.14a3.93,3.93,0,0,0-1.63-.38c-0.83,0-1.16.34-1.16,0.72s0.44,0.84,1.33,1.61c1.46,1.26,2,2,2,3,0,1.55-1.37,2.47-3.13,2.47a6.66,6.66,0,0,1-2.12-.36l0-1.66a5.11,5.11,0,0,0,2.11.49,1.06,1.06,0,0,0,1.24-.9c0-.5-0.43-0.95-1.4-1.75-1.43-1.21-2-1.81-2-2.84s0.94-2.25,3-2.25a5.35,5.35,0,0,1,1.75.28Z"/><path class="cls-3" d="M198.21,50.14a3.93,3.93,0,0,0-1.63-.38c-0.83,0-1.16.34-1.16,0.72s0.44,0.84,1.33,1.61c1.46,1.26,2,2,2,3,0,1.55-1.37,2.47-3.13,2.47a6.66,6.66,0,0,1-2.12-.36l0-1.66a5.11,5.11,0,0,0,2.11.49,1.06,1.06,0,0,0,1.24-.9c0-.5-0.43-0.95-1.4-1.75-1.43-1.21-2-1.81-2-2.84s0.94-2.25,3-2.25a5.35,5.35,0,0,1,1.75.28Z"/><path class="cls-3" d="M206.76,52.59v0.62c0,2.93-1.46,4.44-3.45,4.44s-3.43-1.51-3.43-4.44V52.59c0-3,1.48-4.46,3.43-4.46S206.76,49.63,206.76,52.59Zm-1.74,0c0-2-.7-3-1.71-3s-1.7,1-1.7,3v0.62c0,2,.73,3,1.7,3s1.71-.95,1.71-3V52.6Z"/><path class="cls-3" d="M207.89,57.21V55.73a3.93,3.93,0,0,0,1.76.49c1.36,0,2.28-.64,2.28-1.54s-0.89-1.46-2.1-1.46h-0.62l0.06-1.39h0.56a1.45,1.45,0,0,0,1.62-1.22,1.28,1.28,0,0,0-1.51-1.07,3.51,3.51,0,0,0-1.54.32l0.11-1.5a5.31,5.31,0,0,1,1.75-.24c1.66,0,2.91,1,2.91,2.25a2.43,2.43,0,0,1-1.21,2,2.57,2.57,0,0,1,1.68,2.37c0,1.67-1.43,2.91-3.51,2.9A5.32,5.32,0,0,1,207.89,57.21Z"/><path class="cls-3" d="M207,215.22a3.93,3.93,0,0,0-1.63-.38c-0.83,0-1.16.34-1.16,0.72s0.44,0.84,1.33,1.61c1.46,1.26,2,2,2,3,0,1.55-1.37,2.47-3.13,2.47a6.65,6.65,0,0,1-2.12-.36l0-1.66a5.1,5.1,0,0,0,2.11.49,1.06,1.06,0,0,0,1.24-.9c0-.5-0.43-0.95-1.4-1.75-1.43-1.21-2-1.81-2-2.84s0.94-2.25,3-2.25a5.34,5.34,0,0,1,1.75.28Z"/><path class="cls-3" d="M213.36,215.22a3.93,3.93,0,0,0-1.63-.38c-0.83,0-1.16.34-1.16,0.72s0.44,0.84,1.33,1.61c1.46,1.26,2,2,2,3,0,1.55-1.37,2.47-3.13,2.47a6.65,6.65,0,0,1-2.12-.36l0-1.66a5.1,5.1,0,0,0,2.11.49,1.06,1.06,0,0,0,1.24-.9c0-.5-0.43-0.95-1.4-1.75-1.43-1.21-2-1.81-2-2.84s0.94-2.25,3-2.25a5.34,5.34,0,0,1,1.75.28Z"/><path class="cls-3" d="M221.91,217.67v0.62c0,2.93-1.46,4.44-3.45,4.44s-3.43-1.51-3.43-4.44v-0.62c0-3,1.48-4.46,3.43-4.46S221.91,214.71,221.91,217.67Zm-1.74,0c0-2-.7-3-1.71-3s-1.7,1-1.7,3v0.62c0,2,.73,3,1.7,3s1.71-.95,1.71-3v-0.62Z"/><path class="cls-3" d="M223,222.29v-1.48a3.93,3.93,0,0,0,1.76.49c1.36,0,2.28-.64,2.28-1.54s-0.89-1.46-2.1-1.46h-0.62l0.06-1.39H225a1.45,1.45,0,0,0,1.62-1.22,1.28,1.28,0,0,0-1.51-1.07,3.52,3.52,0,0,0-1.54.32l0.11-1.5a5.33,5.33,0,0,1,1.75-.24c1.66,0,2.91,1,2.91,2.25a2.43,2.43,0,0,1-1.21,2,2.57,2.57,0,0,1,1.68,2.38c0,1.67-1.43,2.91-3.51,2.9A5.32,5.32,0,0,1,223,222.29Z"/><path class="cls-3" d="M299.58,131.63a3.93,3.93,0,0,0-1.63-.38c-0.83,0-1.16.34-1.16,0.72s0.44,0.84,1.33,1.61c1.46,1.26,2,2,2,3,0,1.55-1.37,2.47-3.13,2.47a6.66,6.66,0,0,1-2.12-.36l0-1.66a5.11,5.11,0,0,0,2.11.49,1.06,1.06,0,0,0,1.24-.9c0-.5-0.43-0.95-1.4-1.75-1.43-1.21-2-1.81-2-2.84s0.94-2.25,3-2.25a5.35,5.35,0,0,1,1.75.28Z"/><path class="cls-3" d="M305.9,131.63a3.93,3.93,0,0,0-1.63-.38c-0.83,0-1.16.34-1.16,0.72s0.44,0.84,1.33,1.61c1.46,1.26,2,2,2,3,0,1.55-1.37,2.47-3.13,2.47a6.66,6.66,0,0,1-2.12-.36l0-1.66a5.11,5.11,0,0,0,2.11.49,1.06,1.06,0,0,0,1.24-.9c0-.5-0.43-0.95-1.4-1.75-1.43-1.21-2-1.81-2-2.84s0.94-2.25,3-2.25a5.35,5.35,0,0,1,1.75.28Z"/><path class="cls-3" d="M314.46,134.08v0.62c0,2.93-1.46,4.44-3.45,4.44s-3.43-1.51-3.43-4.44v-0.62c0-3,1.48-4.46,3.43-4.46S314.46,131.11,314.46,134.08Zm-1.74,0c0-2-.7-3-1.71-3s-1.7,1-1.7,3v0.62c0,2,.73,3,1.7,3s1.71-.95,1.71-3v-0.62Z"/><path class="cls-3" d="M315.59,138.69v-1.48a3.93,3.93,0,0,0,1.76.49c1.36,0,2.28-.64,2.28-1.54s-0.89-1.46-2.1-1.46h-0.62l0.06-1.39h0.56a1.45,1.45,0,0,0,1.62-1.22,1.28,1.28,0,0,0-1.51-1.07,3.51,3.51,0,0,0-1.54.32l0.11-1.5a5.31,5.31,0,0,1,1.75-.24c1.66,0,2.91,1,2.91,2.25a2.43,2.43,0,0,1-1.21,2,2.57,2.57,0,0,1,1.68,2.37c0,1.67-1.43,2.91-3.51,2.9A5.32,5.32,0,0,1,315.59,138.69Z"/></svg>