<svg id="Layer_1" data-name="Layer 1" xmlns="http://www.w3.org/2000/svg" viewBox="0 0 1359.25 326.02"><defs><style>.cls-1{fill:#fffbee;}.cls-2{fill:#fdee91;}</style></defs><title>Embury_Lede</title><rect class="cls-1" width="1358.42" height="326.02"/><g id="text"><circle class="cls-2" cx="894.72" cy="220.39" r="31.74"/><circle class="cls-2" cx="1287.54" cy="220.39" r="31.74"/><circle class="cls-2" cx="1036.26" cy="125.8" r="31.74"/><path d="M119.18,237.24H48.85v-13l20.49-5.28V125.61L48.85,113.73v-15L93.16,96l4.15,37.65c13.58-24.39,34.88-38.78,57.32-38.78,20.49,0,37.08,11.06,37.08,37.65v86.11l19.67,5.53v13h-70V224.23l20.49-5.28V137.55c0-15-3.33-18.86-13.83-19.11-27.15-.57-48.71,23.82-48.71,60.09V218.7l19.92,5.53-.06,13Z"/><path d="M293.41,240.25c-33.81,0-65.05-23.82-65.05-64,0-48.71,36.58-81.71,75.3-81.71,31.55,0,53.74,30.17,53.74,66.18a59.24,59.24,0,0,1-.57,10H260.16c1.95,30.73,20.49,45.13,45.13,45.13,11.88,0,26.84-4.71,37.08-16.59l10.5,8.86C340.48,230,318.3,240.25,293.41,240.25Zm-33-85.54,63.42-1.13c-2.51-32.93-21.31-42.93-33.81-42.93a16.94,16.94,0,0,0-9.43,2.77C271.54,119,262.67,133.66,260.41,154.71Z"/><path d="M452.36,294H379V281.23l21.31-5.85v-150l-20.49-11.63v-15l44.06-3,5,40.16c10.24-23.57,29.92-41,49.59-41,29.35,0,54.81,28.53,54.81,68.95,0,44.88-31.3,76.18-70.9,76.18-12.76,0-24.39-2.51-32.43-5.85v41l22.44,6.1.06,12.7Zm47.08-119.61c0-38-13-57.32-26.59-57.32-21.06,0-42.93,28.22-42.93,77.56v12.76c8,9.43,24.39,14.71,35.45,14.71C490,222,499.44,203.74,499.44,174.38Z"/><path d="M556.76,174.64c0-47.08,31.87-79.51,74.79-79.51,31.3,0,65.37,25,65.37,66.18,0,48.21-32.93,79.19-75,79.19C586.36,240.57,556.76,211.22,556.76,174.64Zm33.19-11.38c0,36,19.11,59,42.36,59,15.52,0,31-10.81,31-46.51,0-38-16.09-62.6-41.55-62.6C604.4,113.17,589.95,129.51,589.95,163.26Z"/><path d="M755,240.25c-23.57,0-35.2-13.26-28-38.21l25.77-86.11H720.93l5.28-16.34,29.6-7.23,23-37.4h21.87L787.93,98.14h40.73l-5.28,17.72H783l-27.15,92.2c-2.51,8.3-.57,10.81,6.91,10.81,13.26,0,26.59-4.4,36.83-8.86l5.85,11.88C794.59,229.76,775.8,240.25,755,240.25Z"/><path d="M840,210.9,864.67,125l-22.12-11.38,4.4-15,55.94-3-35.2,121.87a132.28,132.28,0,0,0,33.5-8.61c3.58,22.44-20.74,31-34.32,31C845,240,835.07,228.06,840,210.9ZM918.41,49.75c0,14.14-12.44,25.2-25,25.2-10.24,0-18.54-6.35-18.54-18,0-14.14,13.26-25,25.77-25C910.93,32,918.41,39.25,918.41,49.75Z"/><path d="M919.8,211.47c-.25-11.06,8.61-18.29,19.36-21.62,7.48,22.12,24.39,34.63,42.93,34.63,10.5,0,19.36-6.91,19.36-18.86,0-16.34-22.69-25-36.83-35.7-11.06-8.3-19.11-17.16-19.11-30.17,0-28.22,29.1-45.44,62-45.44,24.64,0,39,10,39.35,19.92s-8,18-20.24,21.62c-9.11-16.91-24.39-25.46-37.65-25.46a16,16,0,0,0-15.78,16.09c0,15.78,22.44,24.64,34.32,33.25,13.58,9.43,24.07,19.11,24.07,34.63,0,30.17-33.81,45.95-62,45.95C934.75,240.25,920,226.68,919.8,211.47Z"/><path d="M1236,210.9l22.12-77.56c3.58-11.88,1.38-15.52-7.73-15.52-22.12,0-47.08,21.31-61.47,70.65l-14.14,48.71H1144.3l30.17-103.83c3.58-11.88,1.63-15.52-7.73-15.52-23,0-47.33,23.82-62.6,76.68l-12.19,42.68h-30.48l33.25-111.88-22.44-11.63,4.71-15,46.51-2.51-5,40.73c20.49-30.73,37.65-41.55,57.89-41.55,18.86,0,31.87,12.76,27.72,37.08,18.86-26.84,34.88-37.08,55.12-37.08,20.74,0,35.7,15.21,27.72,42.68l-23,79.51c17.72-2.51,26.84-5.85,34.07-8.61,3.58,22.44-20.74,31-34.32,31C1242.1,240,1231,228.06,1236,210.9Z"/><polygon class="cls-2" points="118.81 92.93 161.36 49.56 197.18 98.58 157.14 84.25 118.81 92.93"/><polygon class="cls-2" points="111.07 161.19 148.72 135.16 145.45 181.3 131.63 165.52 111.07 161.19"/><polygon class="cls-2" points="473.1 81.11 531.81 65.27 537.78 125.8 510.56 93.12 473.1 81.11"/><polygon class="cls-2" points="441.8 168.66 471.78 127.62 485.17 177.15 464.93 165.71 441.8 168.66"/></g></svg>